<?xml version="1.0" standalone="no"?>
<!DOCTYPE svg PUBLIC "-//W3C//DTD SVG 1.1//EN" "http://www.w3.org/Graphics/SVG/1.1/DTD/svg11.dtd" >
<svg xmlns="http://www.w3.org/2000/svg" xmlns:xlink="http://www.w3.org/1999/xlink" version="1.1">
<metadata>
Created by FontForge 20170731 at Fri Jan  1 02:30:17 1904
 By Aleksey,,,
 
</metadata>
<defs>
<font id="Parsek" horiz-adv-x="433" >
  <font-face 
    font-family="Parsek"
    font-weight="400"
    font-stretch="normal"
    units-per-em="1000"
    panose-1="0 0 0 0 0 0 0 0 0 0"
    ascent="800"
    descent="-200"
    x-height="360"
    cap-height="722"
    bbox="-125 -334 1274 915"
    underline-thickness="50"
    underline-position="-155"
    unicode-range="U+0020-2219"
  />
<missing-glyph 
d="M163 -36l-15 -79q-7 -34 -21 -49t-30 -19q-5 -1 -10 -1.5t-10 -0.5q-12 0 -19.5 8t-7.5 18q0 9 6.5 21t20.5 31l55 71h31v0zM219 130q-8 -11 -19 -23.5t-22 -25.5q-11 -12 -22 -23t-23 -21q-19 -17 -38 -28t-34 -11q-26 0 -43.5 41.5t-17.5 95.5q0 18 9 43t24 51
q15 28 35 53.5t41 43.5q16 15 31.5 23.5t29.5 8.5q17 0 29.5 -7t12.5 -15q0 -10 -11 -27t-27 -36l-20.5 -20.5t-20.5 -18.5t-19 -14.5t-18 -11.5q-3 -1 -5 -2.5t-4 -2.5v0h-1l-6 -4t-8 -5q-3 -8 -4.5 -16.5t-1.5 -16.5q0 -20 8.5 -35t22.5 -15q8 0 18 5t24 14q12 8 25.5 18
t35.5 32l178 176l2 2l2 2q2 3 5.5 5t7.5 2q2 0 5 -1t6 -4q5 -4 9.5 -15.5t4.5 -34.5v-4.5v-4.5q0 -3 -0.5 -5t-1.5 -4l-0.5 -1t-1.5 -2l-89 -97q-3 -3 -5.5 -6t-5.5 -7q-8 -11 -15 -26.5t-7 -35.5q0 -16 6 -28.5t20 -12.5q8 0 18.5 3.5t21.5 8.5q5 3 10.5 6t10.5 6
q4 2 8 4.5t7 4.5l4.5 3t9.5 6t9.5 6l4.5 3q1 0 2 -0.5t2 -0.5q2 -1 3.5 -3t1.5 -4q0 -5 -20.5 -26t-49.5 -45q-7 -7 -15.5 -13.5t-16.5 -12.5q-25 -19 -48.5 -32t-37.5 -13h-1.5h-1.5q-14 1 -26 13.5t-12 41.5q0 10 1.5 24t4.5 28q1 9 3 17.5t4 16.5q0 3 0.5 5.5t1.5 4.5v0z
" />
    <glyph glyph-name=".notdef" 
d="M163 -36l-15 -79q-7 -34 -21 -49t-30 -19q-5 -1 -10 -1.5t-10 -0.5q-12 0 -19.5 8t-7.5 18q0 9 6.5 21t20.5 31l55 71h31v0zM219 130q-8 -11 -19 -23.5t-22 -25.5q-11 -12 -22 -23t-23 -21q-19 -17 -38 -28t-34 -11q-26 0 -43.5 41.5t-17.5 95.5q0 18 9 43t24 51
q15 28 35 53.5t41 43.5q16 15 31.5 23.5t29.5 8.5q17 0 29.5 -7t12.5 -15q0 -10 -11 -27t-27 -36l-20.5 -20.5t-20.5 -18.5t-19 -14.5t-18 -11.5q-3 -1 -5 -2.5t-4 -2.5v0h-1l-6 -4t-8 -5q-3 -8 -4.5 -16.5t-1.5 -16.5q0 -20 8.5 -35t22.5 -15q8 0 18 5t24 14q12 8 25.5 18
t35.5 32l178 176l2 2l2 2q2 3 5.5 5t7.5 2q2 0 5 -1t6 -4q5 -4 9.5 -15.5t4.5 -34.5v-4.5v-4.5q0 -3 -0.5 -5t-1.5 -4l-0.5 -1t-1.5 -2l-89 -97q-3 -3 -5.5 -6t-5.5 -7q-8 -11 -15 -26.5t-7 -35.5q0 -16 6 -28.5t20 -12.5q8 0 18.5 3.5t21.5 8.5q5 3 10.5 6t10.5 6
q4 2 8 4.5t7 4.5l4.5 3t9.5 6t9.5 6l4.5 3q1 0 2 -0.5t2 -0.5q2 -1 3.5 -3t1.5 -4q0 -5 -20.5 -26t-49.5 -45q-7 -7 -15.5 -13.5t-16.5 -12.5q-25 -19 -48.5 -32t-37.5 -13h-1.5h-1.5q-14 1 -26 13.5t-12 41.5q0 10 1.5 24t4.5 28q1 9 3 17.5t4 16.5q0 3 0.5 5.5t1.5 4.5v0z
" />
    <glyph glyph-name="glyph1" horiz-adv-x="0" 
 />
    <glyph glyph-name="glyph2" horiz-adv-x="351" 
 />
    <glyph glyph-name="glyph3" unicode=" " horiz-adv-x="351" 
 />
    <glyph glyph-name="glyph4" unicode="!" horiz-adv-x="350" 
d="M112 -24q-5 1 -10.5 2.5t-12.5 4.5q-12 6 -22.5 16t-10.5 21q0 6 3 16.5t8 21.5t11 21t12 16q4 4 7.5 6t6.5 2q4 0 9 -1.5t10 -4.5q9 -4 18 -12t13 -16l2 -6t1 -6q0 -5 -3.5 -16t-9.5 -23q-3 -6 -6.5 -12t-7.5 -12q-5 -7 -9.5 -12t-8.5 -5v-1zM341 606q2 2 4.5 5t5.5 6
q8 7 18.5 13.5t24.5 6.5q5 0 10.5 -1.5t10.5 -3.5q9 -4 17 -9.5t12 -10.5q3 -3 4.5 -6t1.5 -6q0 -16 -45.5 -67.5t-132.5 -182.5q-54 -80 -71.5 -124t-27.5 -60q-3 -4 -6.5 -6.5t-7.5 -2.5h-2.5h-2.5q-17 3 -31 21t-14 41q0 29 27 82.5t64 111.5q10 14 19.5 28.5t19.5 28.5
q29 42 56 78t46 58v0z" />
    <glyph glyph-name="glyph5" unicode="&#x22;" horiz-adv-x="350" 
d="M98 496l13 135q6 61 26.5 89t43.5 37q8 3 16.5 4.5t16.5 1.5q20 0 33.5 -9.5t13.5 -29.5q0 -22 -10.5 -45t-24.5 -48l-79 -135h-49v0zM298 496l13 135q1 10 3.5 26.5t9.5 34.5q9 27 30 49t60 22q22 0 35 -11t13 -28q0 -9 -4.5 -29.5t-30.5 -63.5l-80 -135h-49v0z" />
    <glyph glyph-name="glyph6" unicode="#" horiz-adv-x="700" 
d="M491 33h-61l30 167h-136l-30 -167h-60l29 167h-113l15 84h113l32 179h-113l15 84h113l30 167h61l-30 -167h136l29 167h61l-30 -167h114l-15 -84h-114l-32 -179h114l-15 -84h-114l-29 -167v0zM475 284l32 179h-136l-32 -179h136v0z" />
    <glyph glyph-name="glyph7" unicode="$" horiz-adv-x="845" 
d="M697 721l-35 -73q37 0 63.5 -15t33.5 -33q1 -3 1.5 -5.5t0.5 -5.5q0 -7 -2.5 -14.5t-7.5 -15.5q-8 -15 -21 -28t-28 -21q-4 -2 -9 -3.5t-9 -2.5q-7 -1 -12 -2t-9 -1q-4 -1 -7.5 -1h-7.5h-4.5h-4.5q14 16 4.5 23.5t-23.5 9.5h-2.5h-3.5h-2.5h-3.5l-49 -103q7 -3 17.5 -8
t21.5 -13q19 -14 35 -38t16 -61q0 -8 -1.5 -16.5t-3.5 -16.5q-17 -53 -80.5 -100t-155.5 -68l-57 -120q-1 1 -2.5 1h-3.5q-14 0 -25 6t-14 14q-1 2 -1 3v2q0 9 6 26t14 36q3 7 6.5 14t7.5 14h-7.5h-6.5q-3 -1 -5.5 -1h-5.5q-14 1 -23.5 2t-14.5 2q-3 0 -5 1t-4 1l-53 -110
h-2h-1h-2h-2h-3.5h-3.5q-12 1 -22 8.5t-10 19.5v0v0q0 3 4.5 19.5t32.5 71.5q-45 6 -64 18t-25 25q-3 7 -3.5 13t-0.5 12v5.5v4.5q0 7 3.5 16.5t9.5 19.5q5 9 11.5 18t13.5 15q7 7 13.5 11t11.5 4q3 0 6 -0.5t5 -2.5q5 -2 10.5 -6t13.5 -9q9 -5 22.5 -9.5t33.5 -6.5l59 125
q-8 1 -16.5 2.5t-17.5 3.5q-25 7 -45.5 24t-20.5 47q0 17 6 41t25 50q23 30 69.5 58t128.5 44q5 12 9.5 23t9.5 20q9 19 19.5 30.5t28.5 11.5q4 0 8.5 -0.5t9.5 -0.5q5 -1 9.5 -2t8.5 -3l-33 -69q19 1 37.5 1.5t37.5 1.5q5 11 8 16.5t5 9.5v0.5v0.5l2.5 5t2.5 6t2 5l2 4
q5 11 12.5 16.5t25.5 5.5h2.5h3.5h15t17 -3v0zM388 367l-59 -127l36 -2t36 -1l59 124q-19 1 -37 2.5t-35 3.5v0zM523 352l-53 -111q4 1 16.5 5.5t27.5 11.5q17 8 31 20t14 27q0 4 -0.5 8t-1.5 9q-4 11 -11.5 20.5t-20.5 9.5h-0.5h-1.5v0zM499 444l45 95q-3 0 -6.5 0.5
t-6.5 0.5h-6.5h-6.5q-12 0 -24 -0.5t-24 -2.5l-41 -86l18 -2t18 -1q9 -1 17.5 -2t16.5 -2v0zM365 457l35 73q-31 -4 -50 -11t-28 -14q-10 -7 -13 -13.5t-3 -10.5q0 -9 13.5 -16t30.5 -8h3.5h3.5h2h2h2h2v0z" />
    <glyph glyph-name="glyph8" unicode="%" horiz-adv-x="878" 
d="M747 121q12 -5 17.5 -13.5t7.5 -17.5q2 -6 2 -12v-11v-2v-2q0 -25 -13.5 -52.5t-41.5 -64.5l-2 -4t-1 -4q-2 -7 5 -13.5t18 -6.5q9 0 15 2.5t11 4.5q1 1 2.5 2t2.5 2q3 2 6 3t7 1q6 0 8.5 -2t2.5 -6t-4 -9.5t-12 -11.5q-14 -11 -39 -20t-55 -9h-4h-4t-4 0.5t-4 0.5
q-42 -42 -78 -51.5t-59 -9.5q-39 0 -60 30t-29 66q-4 15 -5.5 30t-1.5 27q0 51 47 98t104 76q32 18 63 27.5t53 9.5q15 0 27 -6.5t19 -14.5q3 -3 4.5 -6.5t1.5 -6.5v-2v-2q-1 -3 -2 -5.5t-2 -4.5q0 -1 -0.5 -2.5t-0.5 -2.5q-1 -1 -1.5 -2t-0.5 -3v0zM644 -93q-4 10 -6 19
t-2 19q0 19 8.5 40.5t23.5 49.5q10 18 15 29.5t5 18.5q0 2 -2 4t-5 2q-1 1 -1.5 1h-1.5q-13 0 -35.5 -10t-46.5 -26q-31 -22 -58.5 -52t-34.5 -62q-1 -5 -1.5 -9.5t-0.5 -8.5t0.5 -8t1.5 -9q2 -11 11.5 -20.5t31.5 -9.5q19 0 42 7.5t56 25.5v-1zM778 670l-588 -810
q0 1 -1.5 -0.5l-2.5 -2.5q0 -1 -0.5 -1h-0.5l-3 -3t-2 -1t-2 0.5t-2 0.5q-2 1 -3.5 2.5t-2.5 4.5l-15 44v1.5v1.5q-1 0 -1 0.5v1.5q1 2 2.5 6t7.5 12l586 810l2 2l2 2q1 2 3.5 4t4.5 2q4 0 5.5 -1.5t1.5 -3.5q1 0 1 -0.5v-0.5v-0.5v-0.5l18 -47q1 -2 -0.5 -5l-3.5 -7
q0 -1 -0.5 -1.5t-0.5 -1.5q-2 -3 -3 -5t-2 -3v0zM396 681q9 -4 15 -10.5t9 -13.5q1 -2 1.5 -3.5t0.5 -2.5q1 -3 1 -6v-6v-8t-1 -8q-3 -21 -13 -49t-41 -69q-1 -2 -2.5 -4.5t-0.5 -4.5q0 -7 6.5 -13t15.5 -6t15 2.5t11 5.5l4 2l4 2q3 1 5.5 2t5.5 1q6 0 8.5 -2t2.5 -6
t-3 -8.5t-8 -9.5q-14 -12 -41 -22t-58 -10h-4h-4t-4 0.5t-4 0.5q-25 -25 -60.5 -42.5t-76.5 -17.5t-62 30.5t-28 67.5q-3 14 -4.5 28t-1.5 26q0 11 2.5 21.5t7.5 21.5q19 42 63.5 80.5t93.5 61.5q27 13 52 20t47 7q15 0 27.5 -6.5t19.5 -14.5q3 -3 4.5 -6.5t1.5 -6.5v-2v-2
q-1 -3 -2 -5.5t-2 -4.5q-1 -1 -1.5 -2.5t-0.5 -2.5v-0.5v-1.5l-0.5 -1t-0.5 -2v0zM293 467l-2 6l-2 6q-2 6 -3 12t-1 12q0 13 4 27.5t12 33.5q5 12 9 19.5t7 14.5q1 1 2 3t2 3l1.5 1.5t0.5 1.5q8 13 11 21.5t3 14.5q0 2 -2 4t-5 2q-1 1 -1.5 1h-1.5q-12 0 -35.5 -10.5
t-48.5 -28.5q-32 -23 -59.5 -53.5t-33.5 -63.5q0 -3 -0.5 -6.5t-0.5 -6.5q0 -21 8.5 -31t18.5 -13q5 -2 10 -2.5t9 -0.5h6.5t6.5 1q19 2 39 10.5t46 21.5v0z" />
    <glyph glyph-name="glyph9" unicode="&#x26;" horiz-adv-x="721" 
d="M407 384q2 -14 5.5 -29t8.5 -30q7 -25 16.5 -48.5t19.5 -43.5q28 19 48 34t36 30q6 5 11.5 10.5l11.5 11.5q9 9 18.5 19t20.5 22q7 -8 10.5 -17.5t3.5 -20.5q0 -19 -8.5 -41.5t-22.5 -45.5q-10 -15 -21.5 -30t-24.5 -29l-5.5 -5.5t-4.5 -5.5q-1 0 -1.5 -1t-1.5 -1
q-3 -4 -6.5 -8.5t-8.5 -10.5q1 -2 3 -5l4 -6q5 -7 12.5 -13t16.5 -6q5 0 8 1.5t6 2.5q5 2 8.5 2.5t7.5 0.5q2 0 2.5 -1l1.5 -3l0.5 -0.5t0.5 -1.5v-1.5v-0.5v-3.5t-1 -3.5q-2 -7 -9 -21t-17 -29q-6 -10 -12.5 -19t-13.5 -16q-9 -9 -17 -15t-15 -6t-15.5 5.5t-17.5 14.5
q-6 5 -11 10.5t-10 11.5q-7 8 -12.5 15.5t-9.5 13.5q-46 -38 -95 -65.5t-100 -27.5q-53 0 -88.5 32t-53.5 71q-8 20 -12.5 38t-4.5 33q0 64 50.5 114t111.5 86q15 9 30.5 17.5t30.5 16.5q-1 8 -1.5 16.5t-0.5 16.5q0 95 58 159.5t127 88.5q19 6 37.5 9.5t36.5 3.5
q35 0 61.5 -21t36.5 -46q2 -4 3 -8.5t2 -8.5q0 -1 0.5 -2.5t0.5 -2.5v-2.5v-2.5v-2v-2q-1 -2 -1 -3v-2q-5 -38 -38 -69t-71 -55q-25 -15 -48 -26t-39 -19l-11 -5.5t-10 -5.5v0h-1q-5 -3 -11 -6t-15 -7v0zM307 319q-13 -8 -25 -16.5t-23 -16.5q-50 -38 -76 -73t-26 -59
q0 -18 10 -26t29 -8q23 0 59.5 6.5t104.5 43.5q-11 18 -21 42t-18 49q-4 15 -8 29.5t-6 28.5v0zM397 459q12 7 22 13t19 12q3 3 6.5 5.5t6.5 4.5q7 5 13 10t13 10t17 14t21 19q5 4 9.5 8.5t9.5 8.5q10 11 17.5 21t10.5 18q1 2 1.5 4.5t1.5 5.5v2.5v2.5v2.5t-1 2.5
q0 1 -0.5 2.5t-1.5 2.5q-3 5 -8 8t-11 4h-2h-2q-12 0 -28.5 -6t-33.5 -19q-28 -21 -51.5 -59t-28.5 -97v0z" />
    <glyph glyph-name="glyph10" unicode="'" horiz-adv-x="160" 
d="M98 496l14 135q6 60 27.5 88t45.5 37q10 4 19.5 5.5t17.5 1.5q23 0 36.5 -11t13.5 -28q0 -16 -8.5 -38t-28.5 -55l-84 -135h-53v0z" />
    <glyph glyph-name="glyph11" unicode="(" horiz-adv-x="463" 
d="M192 -138l-46 -27q-3 10 -6.5 25t-6.5 35q-8 44 -14.5 109.5t-6.5 145.5q0 25 2 50.5t6 50.5q18 111 63 214.5t96 174.5q34 47 66.5 74.5t56.5 27.5q10 0 21.5 -4.5t22.5 -12.5q15 -10 28.5 -24.5t24.5 -31.5q-18 -15 -37 -34.5t-39 -42.5q-35 -42 -68.5 -93t-60.5 -104
q-6 -14 -12.5 -27t-11.5 -26q-6 -14 -16 -40.5t-21 -63.5q-17 -55 -30.5 -131t-13.5 -167q0 -19 1 -38.5t2 -38.5v-1z" />
    <glyph glyph-name="glyph12" unicode=")" horiz-adv-x="463" 
d="M322 715l45 22q12 -36 21 -78.5t13 -95.5q2 -17 2 -34.5v-35.5q0 -16 -0.5 -32.5t-1.5 -33.5q-10 -138 -54.5 -254.5t-96.5 -196.5q-42 -66 -81 -103t-58 -37q-8 0 -17 3.5t-19 8.5q-14 9 -27 21t-23 25q-3 4 -6 7.5t-5 7.5q15 12 30.5 27t30.5 32q47 52 92 122.5
t77 144.5q36 85 58.5 188t22.5 216q0 19 -0.5 38t-2.5 38v0z" />
    <glyph glyph-name="glyph13" unicode="*" horiz-adv-x="608" 
d="M384 649l79 120q1 1 1 1.5t1 1.5v0.5v0.5q2 4 5 7t11 4h2h2h1h2t2.5 -0.5l4.5 -1.5v0l1 -1q1 0 2.5 -1t2.5 -1l25 -20l1 -1l2 -2l2 -2l1 -1q1 -1 1 -3.5t-1 -4.5q-1 -5 -2 -7t-3 -3q0 -1 -0.5 -1t-0.5 -1l-69 -111l129 -9q1 0 4 -0.5t7 -1.5t7.5 -4.5t3.5 -10.5v-5.5
t-2 -4.5l-32 -34l-5 -5t-4 -3q-1 -1 -2.5 -1.5t-3.5 -0.5h-2t-2 1h-2h-2h-2.5h-1.5h-2h-3l-105 9l72 -137q0 -1 1 -3.5t2 -5.5h0.5h0.5l2 -6l1 -3q1 -2 1 -4.5t-1 -4.5l-2 -6t-5 -5l-31 -19q-3 -2 -6 -3t-6 -1q-7 0 -12 4t-7 8l-75 135l-73 -124q-1 -2 -2.5 -4.5t-2.5 -4.5
q-3 -5 -6.5 -9t-7.5 -4h-3.5t-4.5 1q-1 0 -2 0.5t-2 1.5l-37 27q-1 1 -2.5 3.5t-2.5 7.5v1.5v1.5v0.5v0.5v2v2q1 2 1.5 3.5t1.5 2.5q0 1 0.5 1.5t0.5 1.5t0.5 1.5l0.5 0.5l83 128l-138 -9h-3h-4q-2 -1 -3.5 -1h-3.5h-2.5t-3.5 1q-2 0 -4 0.5t-2 1.5v0.5t1 1.5v1.5v1.5v0.5
v0.5v0.5v0.5l25 59q0 1 0.5 1.5l0.5 0.5q1 4 3 5t9 2q5 0 6.5 0.5t2.5 0.5h1v0q1 0 2 0.5t3 0.5l103 9l-58 111q0 1 -0.5 1.5l-0.5 0.5l-1 1v1q-2 2 -3 4.5t-1 7.5q0 8 1.5 10.5t3.5 3.5l0.5 0.5l0.5 0.5l38 24q2 2 4 2h4h2.5t3.5 -1q4 -1 7.5 -3.5t5.5 -6.5l70 -130v0z" />
    <glyph glyph-name="glyph14" unicode="+" horiz-adv-x="770" 
d="M406 0h-56v280h-280v56h280v280h56v-280h280v-56h-280v-280v0z" />
    <glyph glyph-name="glyph15" unicode="," horiz-adv-x="236" 
d="M63 28q0 8 2 16.5t6 16.5q8 18 21 33.5t27 24.5q6 4 12 6t11 2q15 0 19.5 -8t4.5 -18v-1.5v-1.5v-8v-7q0 -19 -14 -47.5t-48 -76.5q-22 -32 -30.5 -37.5t-11.5 -5.5h-0.5h-1.5q-2 1 -3.5 2.5t-1.5 3.5q0 4 2 7l4 6q1 1 2 2.5t2 2.5q7 9 12.5 19t5.5 22q0 9 -3 14t-7 9
v0.5v0.5q-4 4 -7 9.5t-3 13.5v0z" />
    <glyph glyph-name="glyph16" unicode="-" horiz-adv-x="590" 
d="M398 150h-256q-10 0 -14 4.5t1 13.5l26 42q2 3 5 5t7 2q2 1 4.5 1h4.5h1.5h0.5h256q8 0 12 -3.5t4 -8.5q0 -1 -0.5 -2.5t-1.5 -3.5l-27 -43q-3 -4 -8.5 -5.5t-14.5 -1.5v0z" />
    <glyph glyph-name="glyph17" unicode="." horiz-adv-x="247" 
d="M70 18q0 8 2.5 17.5t6.5 19.5q7 15 18 30t22 26q9 8 17.5 13t15.5 5q2 0 5 -0.5t5 -1.5q6 -3 10.5 -11t4.5 -24q0 -8 -2 -16t-5 -16q-8 -20 -22 -37.5t-29 -25.5q-6 -4 -12 -6.5t-12 -2.5q-2 0 -4 0.5t-4 0.5q-6 3 -11.5 9.5t-5.5 19.5v0z" />
    <glyph glyph-name="glyph18" unicode="/" horiz-adv-x="802" 
d="M708 647l-588 -810l-0.5 -0.5t-1.5 -0.5q-1 -3 -3.5 -5t-5.5 -2h-2h-2q-2 1 -3.5 2.5t-2.5 4.5l-15 44q-1 3 1 8t9 16l585 809q4 5 5.5 6.5t3.5 2.5l0.5 0.5t1.5 0.5h0.5h0.5h0.5h0.5h0.5h0.5h1.5h0.5l1 -1l1 -1l1 -1v0q1 -1 1.5 -2l0.5 -1l17 -48v-0.5t1 -0.5v-1.5v-0.5
q-1 -3 -2.5 -7t-7.5 -12v0z" />
    <glyph glyph-name="glyph19" unicode="0" horiz-adv-x="557" 
d="M482 617q6 -4 13.5 -11t15.5 -16q17 -20 31.5 -50.5t14.5 -63.5q0 -37 -10 -78.5t-28 -83.5q-39 -92 -107 -176t-142 -126q-27 -14 -53 -22.5t-51 -8.5q-10 0 -21 2t-22 7q-41 15 -75 61.5t-34 124.5q0 123 79.5 224.5t175.5 160.5q51 32 99.5 49.5t85.5 17.5
q6 0 12.5 -3t11.5 -6q1 0 2 -0.5t2 -1.5v0zM376 485l-13 9q-79 -31 -137 -93t-90 -130q-16 -35 -24.5 -69.5t-8.5 -64.5v-8.5t1 -8.5q2 -24 13 -44.5t35 -20.5q28 0 65.5 24.5t77.5 63.5q37 37 72 82.5t63 93.5q27 48 44 93.5t17 82.5q0 14 -6.5 22t-20.5 8q-8 0 -19 -3.5
t-22 -8.5q-7 -3 -14.5 -7t-13.5 -8q-6 -3 -10.5 -6.5t-8.5 -6.5v0z" />
    <glyph glyph-name="glyph20" unicode="1" horiz-adv-x="391" 
d="M133 509v35q5 4 31.5 19.5t59.5 33.5q3 2 6 3.5t6 3.5q34 18 63.5 32.5t38.5 14.5q12 0 21 -11t13 -24q3 -6 4 -12t1 -11q0 -30 -47 -99t-123 -206q-42 -77 -66 -131t-29 -104q0 -5 -0.5 -10.5t-0.5 -11.5q0 -7 0.5 -15t1.5 -16q-58 6 -78 35t-21 62v3.5v3.5
q0 35 18.5 82t46.5 96q14 24 29 47.5t30 45.5q21 31 41 57.5t37 47.5q18 21 28 36t10 22q0 3 -2.5 4.5t-5.5 2.5q-2 1 -3 1h-2v0v0q-3 0 -15 -2.5t-49 -17.5q-3 -1 -6 -2.5l-5 -2.5q-1 0 -1.5 -0.5t-1.5 -0.5q-6 -2 -12.5 -4.5t-17.5 -6.5v0z" />
    <glyph glyph-name="glyph21" unicode="2" horiz-adv-x="622" 
d="M286 418h-7h-6q-25 0 -45.5 -4t-36.5 -9q-2 0 -4 -0.5t-4 -1.5q-14 -4 -25.5 -5t-22.5 -1q-8 0 -14.5 8.5t-6.5 21.5t5 33t14 40q11 24 26.5 46.5t35.5 34.5q27 17 64.5 31t77.5 23q29 7 57.5 10.5t52.5 3.5h0.5h0.5q45 0 81.5 -18.5t36.5 -130.5q0 -37 -20 -69t-58 -63
q-36 -29 -87 -58.5t-116 -64.5q-124 -64 -160 -89.5t-36 -39.5q0 -9 4.5 -12.5t10.5 -3.5h0.5h1.5h2h2h1h2q54 4 98 10t79 13q64 12 99.5 21.5t47.5 9.5q2 0 4 -2.5t3 -5.5v-2v-1v-1v-1v-0.5v-1.5q-1 -5 -4 -11.5t-10 -20.5q-2 -5 -4.5 -9.5t-5.5 -9.5q-19 -36 -65.5 -66
t-178.5 -30q-79 0 -127.5 20t-48.5 99q0 33 63 96t218 139l39 19.5l43 21.5q34 18 65.5 38t52.5 40q13 13 20.5 25t7.5 24q0 2 -0.5 4.5t-1.5 5.5q-2 6 -10.5 11.5t-28.5 5.5q-21 0 -53.5 -5t-67.5 -14q-43 -10 -82 -26t-55 -35q6 -1 11 -2.5t9 -3.5q27 -8 38.5 -16.5
t17.5 -20.5v0z" />
    <glyph glyph-name="glyph22" unicode="3" horiz-adv-x="636" 
d="M268 512q-13 -1 -26.5 -2.5t-26.5 -2.5t-26.5 -2t-26.5 -2q-15 4 -24.5 12.5t-13.5 17.5q-1 3 -1.5 5.5t-0.5 4.5q0 10 4 21t14 22q25 30 95 55.5t203 25.5q86 0 116.5 -25.5t36.5 -55.5q2 -11 2.5 -22t0.5 -21v-0.5v-0.5q0 -68 -54.5 -104t-207.5 -57q-7 -1 -13.5 -2
t-13.5 -1q-17 -3 -29 -5.5t-12 -9.5q0 -4 3 -6t7 -3q3 -1 5.5 -1h3.5h11.5t11.5 -1q63 -4 115.5 -36.5t52.5 -86.5q0 -97 -113 -168t-249 -72h-1.5h-1.5q-59 0 -98 13.5t-55 31.5q-6 5 -8.5 10.5t-2.5 10.5q0 10 3.5 21t9.5 23q10 19 27.5 36t41.5 27q4 -36 38.5 -48.5
t77.5 -12.5q84 0 150.5 29.5t94.5 65.5q8 10 12.5 20.5t4.5 19.5q0 5 -3 13.5t-10 16.5q-13 14 -42.5 25.5t-85.5 11.5q-27 0 -48 -1.5t-37 -3.5q-17 -3 -30.5 -4.5t-24.5 -1.5q-12 0 -15.5 4t-3.5 20q0 65 34.5 80.5t79.5 21.5q6 0 11 0.5t10 1.5q98 13 159 31.5t93 38.5
q22 14 32 27.5t10 24.5q0 21 -24 29.5t-52 10.5q-13 1 -26 1h-23h-5.5h-4.5q-71 0 -107.5 -8.5t-49.5 -18.5q-6 -5 -8.5 -9t-2.5 -8t4 -6.5t8 -4.5q1 -1 2 -1.5t2 -0.5q1 -1 2 -1.5t2 -0.5q1 -1 1.5 -1t1.5 -1q3 -2 6.5 -4t7.5 -6v0z" />
    <glyph glyph-name="glyph23" unicode="4" horiz-adv-x="597" 
d="M383 300l96 9h1.5t1.5 1h1.5h1.5h3.5h2.5h1.5t0.5 -1q3 0 5 -1.5t2 -3.5q0 -6 -7.5 -19t-16.5 -28q-2 -2 -4 -5t-3 -5q-11 -15 -19.5 -26t-11.5 -14q-10 -3 -31 -6.5t-74 -10.5q-7 -22 -10 -40t-3 -32q0 -17 3.5 -29.5t7.5 -22.5q-5 -5 -11 -11.5t-13 -13.5
q-5 -5 -10.5 -9.5t-10.5 -8.5q-12 -10 -23.5 -16.5t-19.5 -6.5q-11 0 -20.5 22t-9.5 62q0 14 2 29.5t5 30.5q3 9 5.5 18.5t5.5 18.5q-21 0 -34 -0.5t-24 -0.5q-3 -1 -6 -1h-6h-6h-5q-3 -1 -5.5 -1h-5.5h-6h-6q-6 -1 -12 -1h-12q-9 0 -18.5 -0.5t-20.5 -0.5h-0.5h-0.5h-0.5
h-0.5q-25 0 -38 18.5t-19 40.5q-2 6 -3 12l-2 12v3.5v3.5v3v3v3.5v2.5v3.5v2.5q5 32 33.5 70.5t71.5 78.5q39 36 86 70.5t96 64.5q18 11 36 21.5t35 19.5q10 5 22 11.5t26 12.5q8 5 17 9t17 8q25 11 49 18.5t41 7.5q11 0 13.5 -4t2.5 -9v-2v-2q-1 -1 -1 -2v-2v-2v-2
q-1 -3 -1 -5.5t-1 -4.5q-1 -3 -3 -6.5t-6 -7.5q6 -5 10 -11t6 -12q3 -7 4 -13.5t1 -12.5v-2v-2q-2 -17 -15 -36t-34 -47t-53 -74t-70 -117v0zM267 291q3 4 5.5 8.5t5.5 8.5q50 80 95.5 136.5t70.5 84.5q5 5 9 9.5t8 8.5q0 1 1 2l2 2q11 12 23.5 27t31.5 39q-31 -7 -90 -34
t-152 -100q-12 -9 -34.5 -29.5t-47.5 -44.5q-5 -4 -9.5 -8.5l-9.5 -9.5q-29 -29 -51 -55t-22 -37q0 -6 4.5 -9t10.5 -4q3 -1 6.5 -1h5.5h9t8 1q4 0 8.5 0.5t10.5 0.5l101 4v0z" />
    <glyph glyph-name="glyph24" unicode="5" horiz-adv-x="555" 
d="M473 540h-217q-6 -4 -11.5 -8.5t-11.5 -10.5q-15 -13 -29 -29.5t-23 -34.5q-5 -9 -8 -18.5t-3 -18.5q7 2 17.5 4t23.5 4t28 4.5t30 3.5q13 1 25.5 2t24.5 1q65 0 94 -28t38 -62q4 -15 5.5 -30t1.5 -27q0 -101 -98.5 -183t-216.5 -110q-26 -6 -51.5 -9.5t-50.5 -3.5
q-7 0 -15.5 1t-18.5 4q-17 7 -32.5 25t-15.5 58q0 25 25 48t56 38q19 9 37 14.5t30 5.5q6 0 8 -2t2 -5v-0.5v-1.5v-0.5v-0.5v-0.5t-1 -0.5q-1 -2 -6 -4.5t-16 -6.5t-21.5 -9.5t-16.5 -10.5q-4 -2 -5.5 -4.5t-1.5 -5.5q0 -2 1 -4t3 -4q3 -3 8.5 -5.5t15.5 -4.5q3 -1 6 -1h6
h7.5t7.5 1q11 1 22.5 3t22.5 5q57 14 110 44t90 63q25 23 39.5 44.5t14.5 38.5v3.5t-1 3.5q-3 14 -23.5 25t-64.5 11q-8 0 -16.5 -0.5t-17.5 -1.5q-25 -2 -49.5 -7t-43.5 -12q-7 -3 -13.5 -5t-12.5 -4q-7 -2 -14 -3t-16 -1q-10 0 -16 3.5t-10 17.5q-2 3 -3.5 7.5t-2.5 10.5
l-16 65q7 17 44.5 80.5t148.5 151.5q33 -1 61 -1.5t53 -0.5q40 0 73.5 2t65.5 6q7 1 13.5 2t12.5 2q-4 -16 -21 -48t-61 -75v0z" />
    <glyph glyph-name="glyph25" unicode="6" horiz-adv-x="536" 
d="M508 639q-27 -14 -58 -32.5t-62 -40.5q-58 -41 -111.5 -92.5t-84.5 -109.5q7 5 16.5 11t21.5 12q11 7 24 13t26 11q15 6 30 9.5t28 3.5q29 0 54 -27.5t34 -59.5q3 -8 4 -16t1 -15q0 -25 -14 -60t-37 -72q-27 -44 -63 -84t-75 -64q-19 -12 -37.5 -19t-36.5 -7h-5.5t-5.5 1
q-44 5 -82.5 47t-53.5 92q-3 11 -5 22t-2 22q0 65 40 148t130 171q13 12 31.5 28t40.5 32q14 11 29.5 21.5t30.5 19.5q34 21 65.5 35t53.5 14q26 0 44 -4t29 -10v0zM126 219q-3 -9 -5.5 -19.5t-3.5 -20.5q0 -5 -0.5 -10t-0.5 -10q0 -30 8 -51.5t22 -21.5q9 0 18 3t19 8
q15 8 29.5 19.5t26.5 24.5q12 12 22 23t16 19q43 53 57 91.5t14 62.5q0 18 -8 25t-25 7q-16 0 -37.5 -10.5t-44.5 -27.5q-15 -11 -30 -24t-28 -27q-17 -17 -29.5 -32.5t-19.5 -28.5v0z" />
    <glyph glyph-name="glyph26" unicode="7" horiz-adv-x="494" 
d="M536 566q-39 -40 -68 -67.5t-54 -52.5q-9 -10 -18 -19.5t-17 -19.5q-11 -12 -22 -26t-23 -30q-8 -12 -17 -25t-18 -27t-17.5 -28.5t-17.5 -28.5q-24 -44 -41.5 -84t-17.5 -64v-2v-2q0 -15 3.5 -28t16.5 -17q-11 -11 -20.5 -18.5t-18.5 -12.5q-2 -2 -4.5 -3.5t-4.5 -2.5
q-5 -3 -10.5 -5.5t-11.5 -6.5q-19 -11 -36 -19t-30 -8q-2 0 -3.5 0.5t-3.5 0.5q-9 4 -17.5 17.5t-8.5 32.5q0 43 31 104t77 127q19 28 40 55.5t43 53.5q22 27 43.5 51.5t41.5 45.5q4 4 14 14.5t22 22.5q0 1 0.5 1.5t1.5 0.5q13 15 24 27t11 14q0 1 0.5 2.5t0.5 2.5t-0.5 2.5
t-0.5 2.5q-1 5 -11.5 7t-38.5 2q-74 0 -121 -9t-74 -19q-18 -7 -29 -13.5t-17 -10.5q-11 -8 -19 -11t-16 -3q-3 0 -5.5 4.5t-3.5 10.5v0.5v1.5v0.5v0.5q0 8 8 21t30 53q4 6 9 13t12 14q25 22 94.5 40.5t230.5 18.5h1.5h1.5q32 0 55.5 -11t23.5 -78v-6v-7v0z" />
    <glyph glyph-name="glyph27" unicode="8" horiz-adv-x="530" 
d="M198 343q-7 8 -15 19t-17 24q-13 21 -25 46t-18 51q-2 8 -3 16.5t-1 16.5q0 17 6 41t24 49q31 44 110.5 81t239.5 37h3h3h13h14q21 -1 37.5 -6t16.5 -20q0 -9 -3.5 -20.5t-9.5 -23.5q-10 -21 -27.5 -39t-39.5 -21q0 -1 0.5 -2t0.5 -2v-2v-2q0 -20 -40 -64t-157 -160
q18 -30 31.5 -62.5t13.5 -65.5q0 -107 -65.5 -170.5t-148.5 -63.5q-51 0 -83.5 23t-40.5 51q-2 5 -2.5 9.5t-0.5 8.5q0 40 42.5 98.5t141.5 152.5v0zM228 279q-11 -10 -26 -25t-31 -32q-7 -7 -14 -14.5t-13 -15.5q-22 -25 -37 -49t-15 -38q0 -11 8.5 -20.5t34.5 -9.5
q45 0 80.5 40t39.5 89v4v4q0 20 -7.5 36.5t-19.5 30.5v0zM273 405q27 23 31.5 28t4.5 6t5 5.5t34 29.5q64 56 90.5 78t26.5 29v1.5t-1 0.5q-3 7 -25.5 12t-64.5 5q-67 0 -102 -19.5t-45 -42.5q-2 -5 -3 -10t-1 -10v-0.5v-0.5q0 -16 6 -42.5t44 -69.5v0z" />
    <glyph glyph-name="glyph28" unicode="9" horiz-adv-x="507" 
d="M360 368q-64 -51 -115.5 -87.5t-88.5 -36.5q-6 0 -11.5 1t-11.5 4q-24 9 -47.5 34.5t-38.5 53.5q-9 17 -14 33.5t-5 29.5q0 17 6 35t17 36q28 44 79.5 87t107.5 75q52 31 100.5 49.5t77.5 18.5q25 0 48 -23t38 -51q1 -2 2.5 -4.5t2.5 -5.5v-2v-3q0 -10 -8.5 -27
t-40.5 -45q-3 -2 -8 -6t-12 -9q-1 -1 -2.5 -2t-2.5 -2q-8 -5 -15.5 -9t-10.5 -4h-0.5h-1.5l-2 2t-1 2v0v0l2 4t14 16q19 19 25 31t6 17q0 3 -4 4t-10 1h-2.5h-2.5q-14 0 -32.5 -5.5t-37.5 -13.5l-18 -8t-18 -9q-11 -5 -21 -10.5t-18 -10.5q-13 -7 -28 -16.5t-30 -21.5
q-38 -28 -69.5 -65.5t-31.5 -77.5q0 -19 10 -25t32 -6q18 0 45 12t56 29q10 6 20 12.5t19 13.5q30 20 53.5 38t31.5 25l53 45q3 2 6 3.5t7 2.5q3 1 6 1.5t6 0.5q2 0 6.5 -0.5t9.5 -2.5q6 -3 11.5 -7.5t5.5 -11.5q0 -4 -1.5 -9t-6.5 -11l-297 -411q-2 -3 -4 -5.5t-5 -4.5
q-4 -4 -9 -8t-9 -8q-9 -6 -16 -11t-12 -8q-14 -9 -23.5 -13.5t-17.5 -4.5q-6 0 -9.5 3t-3.5 8q0 4 2.5 13.5t17.5 43.5q8 18 12 23.5t7 6.5h1.5h0.5h1.5h1.5q0 -1 0.5 -1h1.5q5 0 15 7t30 35l179 246v0z" />
    <glyph glyph-name="glyph29" unicode=":" horiz-adv-x="292" 
d="M56 18q0 9 2.5 18.5t7.5 19.5q7 16 18 30.5t22 25.5q9 8 17.5 12.5t15.5 4.5q2 0 4.5 -0.5t5.5 -1.5q5 -3 10 -11t5 -24q0 -8 -2 -16t-5 -16q-8 -19 -21 -36t-28 -26q-7 -5 -13.5 -7.5t-12.5 -2.5q-10 0 -18 8.5t-8 21.5v0zM129 284q0 9 2.5 18.5t7.5 19.5q7 16 18 31
t22 25q9 8 17 12.5t15 4.5q2 0 5 -0.5t5 -1.5q6 -3 10.5 -11t4.5 -24q0 -5 -0.5 -10t-2.5 -10q-5 -21 -19 -40.5t-29 -31.5q-9 -6 -16.5 -9.5t-14.5 -3.5q-2 0 -4.5 0.5t-5.5 1.5q-5 3 -10 9.5t-5 19.5v0z" />
    <glyph glyph-name="glyph30" unicode=";" horiz-adv-x="291" 
d="M64 28q0 8 2.5 16.5t6.5 16.5q7 16 19 31t24 24q7 5 14 8t13 3q15 0 19.5 -8t4.5 -18v-1.5v-1.5v-8v-7q0 -19 -14 -47.5t-48 -76.5q-22 -32 -30.5 -37.5t-11.5 -5.5h-0.5h-1.5q-2 1 -3.5 2.5t-1.5 3.5q0 4 2 7l4 6q1 1 2 2.5t2 2.5q7 9 12.5 19t5.5 22q0 9 -3 14t-7 9
v0.5v0.5q-4 4 -7 9.5t-3 13.5v0zM128 284q0 9 2.5 18.5t7.5 19.5q7 16 18 31t22 25q9 8 17 12.5t15 4.5q2 0 5 -0.5t5 -1.5q6 -3 10.5 -11t4.5 -24q0 -5 -0.5 -10t-2.5 -10q-5 -21 -19 -40.5t-29 -31.5q-9 -6 -16.5 -9.5t-14.5 -3.5q-2 0 -4.5 0.5t-5.5 1.5q-5 3 -10 9.5
t-5 19.5v0z" />
    <glyph glyph-name="glyph31" unicode="&#x3c;" horiz-adv-x="725" 
d="M70 308l541 342l30 -47l-460 -295l459 -295l-29 -48l-541 343v0z" />
    <glyph glyph-name="glyph32" unicode="=" horiz-adv-x="798" 
d="M70 203v56h644v-56h-644v0zM70 357v56h644v-56h-644v0z" />
    <glyph glyph-name="glyph33" unicode="&#x3e;" horiz-adv-x="725" 
d="M655 308l-541 -343l-29 48l460 295l-461 295l30 47l541 -342v0z" />
    <glyph glyph-name="glyph34" unicode="?" horiz-adv-x="425" 
d="M155 -24q-5 1 -10.5 2.5t-12.5 5.5q-12 5 -22 15t-10 21q0 6 3 16.5t8 21.5q4 10 10.5 20.5t12.5 16.5q4 4 7.5 6t6.5 2q4 0 8 -1t9 -3q10 -5 19 -13t13 -17l2 -6t1 -6q0 -5 -3.5 -16t-9.5 -23q-3 -7 -7 -13.5t-8 -12.5q-4 -7 -8.5 -11t-8.5 -4v-1zM495 597
q0 -67 -33 -117.5t-80 -97.5q-15 -15 -31 -30t-32 -31q-14 -14 -28.5 -29t-28.5 -31q-26 -30 -32.5 -52.5t-8.5 -35.5q-2 -8 -4 -12t-9 -4q-15 0 -27.5 15.5t-19.5 34.5q-4 9 -5.5 17t-1.5 15q0 35 49.5 79.5t166.5 135.5q32 25 50.5 40t20.5 29v1.5v1.5q0 5 -1.5 10.5
t-5.5 10.5q-9 16 -32 28.5t-61 12.5q-52 0 -89.5 -6.5t-37.5 -23.5q0 -5 5 -9t12 -7q2 -2 5 -3.5l5 -2.5q3 -2 4.5 -3.5t1.5 -3.5v-0.5v-0.5q0 -2 -1 -3.5t-6 -1.5h-2h-3q-1 0 -1.5 0.5t-1.5 0.5h-2h-3q-4 1 -12 2t-27 3h-2.5t-3.5 1h-1.5h-1.5q-17 2 -31 7t-14 22
q0 10 3 26t13 32q17 27 60 50t130 23q72 0 104 -16t42 -36q7 -11 8 -22.5t1 -18.5v0z" />
    <glyph glyph-name="glyph35" unicode="@" horiz-adv-x="866" 
d="M712 586l-83 -288q-3 -11 -4.5 -20.5t-1.5 -17.5q0 -18 6.5 -27.5t14.5 -13.5q6 -3 11 -4t8 -1q11 0 25 4.5t28 13.5q32 21 59.5 69.5t27.5 129.5q0 136 -92.5 208t-214.5 72q-155 0 -245 -103.5t-90 -246.5q0 -134 87 -223.5t226 -89.5q41 0 87.5 5.5t108.5 30.5l13 -46
q-5 -2 -11 -4.5t-13 -5.5q-30 -11 -75 -19.5t-110 -8.5q-175 0 -274.5 109.5t-99.5 251.5q0 152 105.5 275.5t289.5 123.5q146 0 251.5 -85t105.5 -243v-12t-1 -12q-6 -90 -55.5 -165.5t-142.5 -75.5q-52 0 -79.5 18.5t-40.5 40.5q-6 11 -9 21.5t-5 18.5h-4q-16 -19 -32 -34
t-31 -25q-21 -14 -42 -21t-43 -7q-52 0 -88 42t-36 114q0 92 67 167t148 90l16 2t16 1q27 0 52.5 -8.5t45.5 -31.5h3l8 31h113v0zM414 257q12 0 29 8.5t35 24.5q32 28 58 77t26 116q0 30 -8.5 50.5t-38.5 20.5q-44 0 -84 -48.5t-58 -107.5q-5 -16 -7.5 -32.5t-2.5 -31.5
q0 -41 16 -59t35 -18v0z" />
    <glyph glyph-name="glyph36" unicode="A" horiz-adv-x="707" 
d="M250 357l53 5q28 33 68.5 73.5t86.5 82.5q21 19 43 38.5t44 37.5q55 46 107 83.5t93 57.5q17 -10 21.5 -23t4.5 -27q0 -12 -0.5 -17.5t-1.5 -10.5l-2 -4l-2 -4l-133 -261l62 7q5 1 8 1h6q5 0 7.5 -2.5t2.5 -10.5v-4.5t-1 -4.5q-2 -9 -8 -21.5t-15 -42.5
q-14 -42 -34.5 -49t-70.5 -8h-7h-7q-27 -52 -34.5 -68.5t-11.5 -23.5l-1 -1v-1l-1.5 -1.5t-0.5 -1.5q-3 -5 -5.5 -10t-4.5 -10q-2 -6 -3 -11t-1 -10v-2.5t1 -2.5q1 -5 5 -8.5t11 -3.5q14 0 27.5 9t25.5 19q1 1 6.5 6t12.5 11l0.5 0.5l1.5 1.5q7 6 13 10.5t7 4.5q5 0 7.5 -2
t2.5 -4q0 -3 -9.5 -15.5t-21.5 -26.5q-1 -1 -2 -2.5t-2 -2.5q-10 -12 -19.5 -22t-13.5 -14l-7.5 -7.5l-7.5 -7.5q-22 -21 -46.5 -38.5t-53.5 -17.5h-5.5t-4.5 1q-15 1 -28.5 8.5t-19.5 25.5l-2 10t-1 10v6t1 7q0 3 0.5 6t1.5 6q3 16 7.5 28.5t9.5 23.5q3 8 7 15.5t9 15.5
l49 90l-207 -2l-222 -235q-5 -5 -16 -13t-24 -17q-4 -2 -7.5 -4.5t-7.5 -5.5q-14 -9 -28 -16.5t-22 -9.5q-2 -1 -4 -1h-4h-0.5h-1.5t-1.5 0.5l-0.5 0.5q-2 1 -2.5 3t-0.5 4q0 9 6.5 23.5t16.5 29.5q3 5 6.5 10.5t7.5 10.5q6 10 12.5 18t11.5 14q4 5 7.5 9t6.5 7q0 2 1.5 4
t3.5 4l12.5 12.5t16.5 14.5h43l124 133l-81 -9q-1 0 -2.5 -0.5t-2.5 -0.5h-1.5h-1.5q-4 -1 -10 -1.5t-17 -0.5h-4.5t-4.5 1q-5 1 -9.5 4.5t-4.5 11.5q0 5 9 19.5t21 31.5q2 2 4 5t4 5q11 15 21.5 27t14.5 15q10 7 24.5 12t29.5 8q17 4 32.5 5.5t25.5 1.5l2 -25v0zM528 381
l132 252q-30 -22 -64 -48.5t-69 -56.5q-43 -37 -84.5 -78t-75.5 -84l161 15v0z" />
    <glyph glyph-name="glyph37" unicode="B" horiz-adv-x="735" 
d="M310 563v-29l-161 -46q-2 -1 -4.5 -1.5t-4.5 -1.5q-5 -1 -9.5 -1.5t-8.5 -0.5q-7 0 -11.5 3.5t-4.5 13.5q0 14 8.5 32t22.5 37q16 21 37 41t44 35q8 5 15.5 9.5t15.5 8.5q37 17 84.5 29t96.5 19q51 7 99.5 10t85.5 3q88 0 132 -30t58 -66q4 -11 6 -21.5t2 -20.5
q0 -63 -56.5 -102.5t-124.5 -61.5q-46 -15 -88.5 -23.5l-67.5 -13.5q-37 -7 -68 -13t-47 -9v-5q23 -5 40.5 -9.5t32.5 -8.5q4 -2 7.5 -3t7.5 -2q11 -3 22.5 -6.5t24.5 -7.5q9 -3 18.5 -6t19.5 -6q52 -16 95 -42t43 -73q0 -12 -5 -24t-14 -24q-30 -38 -93 -73.5t-133 -55.5
q-31 -9 -61.5 -13.5t-58.5 -4.5q-75 0 -117 25t-59 55q-5 11 -8 21.5t-3 20.5q0 19 13 45.5t31 54.5q8 11 16.5 22.5t17.5 22.5q15 20 29.5 37t25.5 29q-7 1 -15.5 2t-17.5 3q-21 4 -38.5 11.5t-17.5 22.5q0 13 9 19.5t20 9.5q8 2 16 2.5t11 0.5q10 0 24 1.5t29 3.5
q2 0 5 0.5t6 0.5q12 2 22.5 3t18.5 2q94 92 128.5 112t57.5 22h2.5h2.5h0.5h1.5q7 0 11 0.5t7 1.5q2 0 4 0.5t5 0.5l-22 -22t-16 -14v-1v0q-3 -2 -5.5 -4.5l-5.5 -5.5q-16 -13 -35.5 -32.5t-52.5 -57.5q122 15 191.5 38t101.5 48q19 14 26.5 28t7.5 26q0 6 -1 14t-5 16
q-6 16 -27 28.5t-68 12.5q-25 0 -69 -4.5t-92 -11.5q-49 -9 -93.5 -20.5t-69.5 -25.5v0zM325 319q-5 -5 -9.5 -11t-9.5 -13q-10 -13 -19.5 -29t-17.5 -32q-8 -17 -13 -33.5t-5 -30.5v-2.5v-2.5q4 -21 29 -38t66 -17q17 0 35.5 2.5t36.5 6.5q43 11 82 29t58 37q7 7 10.5 14
t3.5 13q0 30 -47 51t-104 35q-26 7 -51 12l-45 9v0z" />
    <glyph glyph-name="glyph38" unicode="C" horiz-adv-x="618" 
d="M437 410l3 -1.5t3 -0.5q3 -1 6 -1.5t6 -0.5q10 0 20.5 5t20.5 13q22 17 42.5 45.5t35.5 59.5q12 24 19 47.5t7 41.5v4.5t1 4.5v6v6q0 11 -3.5 19.5t-14.5 8.5q-35 0 -87.5 -37t-107.5 -96q-45 -48 -88 -106t-77 -118q-36 -63 -58.5 -124t-22.5 -110q0 -65 20.5 -93.5
t45.5 -38.5q14 -6 27 -7.5t23 -1.5q21 0 43 5t44 14q48 20 94.5 53.5t85.5 70.5q22 20 41 39.5t34 36.5q13 14 20 20.5t13 6.5q5 0 7 -3t3 -6v-0.5v-1.5q0 -11 -41 -61t-104 -109q-40 -35 -85 -69.5t-91 -59.5q-36 -19 -71 -30.5t-68 -11.5q-12 0 -24.5 2t-24.5 5
q-47 14 -86.5 57.5t-39.5 124.5q0 31 6 65t17 68q17 53 42.5 105t52.5 95q9 15 18 28t18 25q20 27 46.5 58t57.5 63q33 34 69 66.5t73 60.5q46 34 91.5 56t83.5 22q6 0 12.5 -1t12.5 -3q28 -8 51 -31t23 -52v-1.5v-0.5q0 -31 -17 -103.5t-119 -193.5q-10 -12 -29 -31
t-43 -39q-8 -8 -17 -15l-18 -14q-29 -23 -55.5 -39t-42.5 -16q-10 0 -19.5 11.5t-14.5 24.5l-2 6l-2 6q3 6 5.5 11.5t5.5 10.5q21 40 50.5 77t60.5 63q3 3 6 5.5t6 4.5v0z" />
    <glyph glyph-name="glyph39" unicode="D" horiz-adv-x="802" 
d="M477 591l9 -65q-118 -154 -171 -237t-53 -126v-2.5v-2.5q1 -18 12.5 -32.5t58.5 -14.5q37 0 92.5 12.5t115.5 37.5q97 41 177.5 114t80.5 179q0 7 -0.5 14t-2.5 14q-9 41 -63 75t-206 34q-14 0 -28 -0.5t-28 -1.5q-61 -5 -115 -16.5t-76 -25.5q-5 -3 -7.5 -6t-2.5 -6
q0 -2 2.5 -4t6.5 -4q3 -2 6.5 -3.5t6.5 -2.5q7 -3 12.5 -4.5t8.5 -2.5q-47 -16 -75.5 -24.5t-53.5 -14.5q-5 -2 -10 -3l-10 -2q-4 -1 -8.5 -1.5t-9.5 -0.5h-2.5h-2.5q-2 0 -3 0.5l-3 1.5q-9 4 -12 11.5t-3 15.5v4v4q0 21 3 42.5t11 46.5q14 43 84.5 73.5t152.5 46.5
q50 11 97 16t82 5q25 0 57.5 -3t66.5 -12q67 -18 122.5 -70t55.5 -164q0 -158 -120 -271.5t-263 -168.5q-59 -23 -116 -34.5t-106 -11.5h-1.5h-1.5q-28 1 -52 17.5t-24 75.5q0 45 34.5 109.5t82.5 132.5q12 17 25 34.5t26 34.5q41 56 79.5 104.5t61.5 82.5v0z" />
    <glyph glyph-name="glyph40" unicode="E" horiz-adv-x="686" 
d="M430 333v8q-15 2 -25.5 3t-21.5 1q-4 1 -8 1t-8 1q-5 0 -10.5 0.5t-11.5 0.5q-13 1 -26.5 1.5t-27.5 2.5q-53 5 -97 27t-44 86q0 5 0.5 9.5t1.5 9.5q14 88 141.5 161t306.5 73q68 0 98.5 -9t51.5 -28v-78q-2 -4 -4 -6.5t-6 -5.5q-7 -6 -23 -13.5t-49 -21.5
q-24 -10 -35.5 -16t-20.5 -12q-1 0 -2 -0.5t-2 -1.5q-8 -5 -18 -11.5t-29 -16.5q5 19 15 32.5t22 23.5q4 4 8 7l8 6q-4 2 -8.5 3.5t-9.5 2.5q-13 4 -26.5 6t-30.5 2q-100 0 -173 -31.5t-100 -69.5q-6 -9 -9.5 -18t-3.5 -18q0 -5 2 -11t10 -13q15 -12 57 -22t135 -10
q9 0 17.5 0.5t17.5 0.5q3 0 6 0.5t6 0.5q6 0 11.5 0.5t11.5 0.5q8 1 15 1h14h11.5t10.5 -1q19 -1 27.5 -10t7.5 -20v-2.5t-1 -2.5q0 -3 -1 -5.5t-3 -4.5l-36 -46q-4 -4 -13 -6t-26 -3q-121 -5 -206 -41t-133 -78q-31 -27 -46.5 -52t-15.5 -42q0 -15 23.5 -26t52.5 -16
q9 -1 18.5 -2t17.5 -1q40 0 80.5 7t81.5 20q60 19 121 50t119 70q-6 -72 -31.5 -112t-75.5 -69q-12 -7 -28.5 -16t-36.5 -19q-42 -19 -101 -35.5t-130 -16.5q-94 0 -157.5 24.5t-63.5 130.5q0 23 17.5 54.5t55.5 65.5q39 34 100.5 66t149.5 55q7 2 13.5 3.5t12.5 3.5
q1 0 2.5 0.5t3.5 0.5q12 3 24.5 7t28.5 10v0z" />
    <glyph glyph-name="glyph41" unicode="F" horiz-adv-x="672" 
d="M323 528l50 -25q-3 -1 -5.5 -1.5t-5.5 -0.5q-7 -2 -14 -3l-14 -2q-10 -2 -20 -3t-19 -1h-7.5h-7.5h-7.5h-7.5q-8 -1 -15 -1h-14q-28 0 -47.5 5t-18.5 21q0 2 0.5 5t1.5 6l27 76q5 13 13 22.5t24 18.5q8 5 18.5 9.5t23.5 9.5q15 6 32.5 12.5t37.5 12.5q58 19 140.5 35
t198.5 16h13.5h12.5h1.5h1.5q7 -1 14.5 -1h16.5q17 0 36 0.5t37 0.5q31 1 60 2t54 2q10 1 19 1.5t17 0.5q-14 -108 -53.5 -131t-89.5 -23h-12.5t-12.5 1q-6 0 -12.5 0.5t-12.5 0.5h-13h-12h-2t-2 1h-14.5h-16.5q-15 -20 -41.5 -55.5t-55.5 -73.5q-31 -42 -59 -80t-42 -58
q15 1 24.5 1.5t18.5 0.5v0v0q5 0 9.5 0.5t9.5 0.5h5.5h4.5q12 0 17 -3.5t5 -15.5q0 -8 -1.5 -17.5t-6.5 -19.5q-8 -18 -29.5 -34.5t-62.5 -18.5q-17 -1 -33 -3t-30 -4q-12 -14 -21 -23.5t-16 -18.5l-1.5 -1.5l-1.5 -1.5q-5 -7 -10.5 -13.5t-12.5 -15.5q-14 -17 -46.5 -53
t-73.5 -76q-11 -11 -22 -21l-22 -20q-44 -40 -84 -69t-64 -29h-2.5h-3.5q-6 2 -11.5 5t-7.5 9q-1 1 -1 2.5v3.5v0.5t1 1.5v1.5v1.5q2 10 8.5 22t15.5 25q5 7 11 15t12 15t12 13.5t12 11.5q36 33 52.5 41.5t28.5 12.5l1 0.5t2 0.5q5 2 10.5 4.5t12.5 7.5q21 15 51 50t73 86
q-46 -4 -71.5 -6t-46.5 -3q-7 0 -14.5 -0.5t-15.5 -0.5h-8h-8h-8h-8h-4h-4h-5h-4q-15 1 -18 4.5t-3 13.5q0 67 72.5 87.5t238.5 29.5q19 24 43 56t49 66q3 5 6.5 9.5t6.5 9.5q25 35 48.5 68.5t40.5 59.5q-29 -1 -67.5 -4.5t-78.5 -9.5q-50 -9 -95.5 -22.5t-74.5 -32.5v0z
" />
    <glyph glyph-name="glyph42" unicode="G" horiz-adv-x="705" 
d="M491 56q77 47 109 68.5t46 31.5q25 18 34.5 22t13.5 4q2 0 2.5 -1l1.5 -3q1 -1 1 -2.5t-1 -3.5q-7 -27 -82.5 -73.5t-193.5 -152.5q-104 -146 -161 -180.5t-75 -34.5q-1 0 -2.5 0.5t-3.5 0.5q-7 2 -13 8.5t-6 13.5q0 20 12 46t32 54q18 26 41 50.5t47 44.5q15 12 30 21.5
t29 15.5q6 11 10.5 19.5t9.5 17.5v0.5t1 1.5q5 10 11 20.5t13 24.5q15 26 40 72.5t57 117.5q-24 -19 -39.5 -31t-29.5 -23l-0.5 -0.5l-0.5 -0.5q-6 -5 -12.5 -10t-13.5 -11q-75 -61 -127.5 -93t-92.5 -32q-7 0 -15.5 2t-16.5 6q-26 12 -47 43.5t-21 87.5q0 17 2 34t6 34
q21 87 86 169.5t153 145.5q38 27 82.5 52.5t91.5 46.5q59 27 115 43.5t97 16.5q23 0 38 -9.5t20 -55.5q1 -4 1 -7.5v-6.5v-4.5t-1 -4.5q-3 -11 -16 -25.5t-32 -30.5q-16 -13 -35.5 -25.5t-39.5 -22.5q-20 -11 -40 -19t-36 -11q3 6 6.5 10t6.5 8l3 3l3 3q2 1 3.5 2.5l2.5 2.5
l4 4l5 5q3 4 6 9.5t5 10.5q0 2 0.5 3.5t0.5 3.5t-2 2.5t-5 -0.5h-2.5h-2.5h-2.5h-2.5q-19 0 -46.5 -11t-56.5 -26q-11 -6 -22 -12.5t-22 -13.5q-25 -15 -45.5 -29t-32.5 -23q-21 -16 -39.5 -32t-35.5 -32q-68 -64 -104 -125t-36 -104q0 -22 12 -35t37 -13q30 0 82.5 34.5
t109.5 82.5q14 12 27.5 24t27.5 24q46 41 85 79.5t60 61.5q2 3 4.5 5.5l5.5 5.5q8 8 17 15t20 7q4 0 9.5 -0.5t10.5 -2.5q13 -3 23.5 -12t10.5 -26q0 -4 -1.5 -9.5t-4.5 -10.5q-1 -3 -2 -5.5t-2 -4.5q-2 -4 -4 -7t-3 -5l-193 -329v0z" />
    <glyph glyph-name="glyph43" unicode="H" horiz-adv-x="862" 
d="M445 333l168 180l1.5 1.5l1.5 1.5l0.5 0.5l0.5 0.5q2 3 5.5 8t12.5 16q17 20 25.5 35.5t8.5 28.5q0 12 -6.5 18t-14.5 8q-4 1 -8.5 1.5t-7.5 0.5q-30 0 -70 -5.5t-82 -15.5q-59 -14 -112.5 -33.5t-78.5 -39.5l-1.5 -1.5l-1.5 -1.5q-2 -4 -3.5 -9t-1.5 -10v-2.5t1 -2.5
q0 -1 0.5 -2.5t0.5 -2.5l-170 -84q-2 1 -3.5 3t-3.5 4q-6 6 -10 14t-4 20t4.5 33t13.5 44q9 22 22.5 43t32.5 33q26 17 68.5 32t88.5 27q30 8 60 14.5t55 11.5q11 2 20.5 4t19.5 3q24 5 51.5 8t72.5 3h10.5h10.5q76 0 104 -11.5t28 -81.5q0 -26 -10.5 -45t-26.5 -36
l-179 -201q27 4 66 8.5t90 10.5q5 6 40 46.5t76 86.5q2 2 3 3.5t3 3.5q43 49 80 88.5t42 39.5q4 0 6 -7.5t2 -15.5v-3v-2q0 -14 -6.5 -24.5t-13.5 -18.5q-3 -3 -5 -5.5t-4 -4.5q-14 -17 -27 -33t-25 -31q-7 -9 -14 -18.5t-14 -18.5q-15 -20 -30 -41t-32 -45q4 0 8 0.5t8 0.5
q9 1 20 1.5t23 0.5q11 0 23 -0.5t26 -1.5l-68 -125q-10 1 -19.5 1h-19.5q-20 0 -40.5 -1.5t-41.5 -3.5q-14 -19 -27.5 -36.5t-23.5 -34.5q-15 -22 -23 -45t-8 -50v-10.5t1 -11.5l-87 -48q-1 2 -1.5 4.5t-1.5 6.5q-2 6 -3 13.5t-1 17.5q0 29 18 76.5t76 114.5
q-47 -6 -95 -10.5t-98 -7.5q-13 -12 -23 -22t-19 -20q-2 -2 -4.5 -4t-4.5 -5q-7 -8 -15 -17t-17 -19q-39 -44 -56 -67.5t-17 -41.5v-4.5t1 -4.5q0 -3 1 -5.5t2 -4.5q-20 2 -36.5 12.5t-23.5 23.5q-2 3 -3 7t-1 7q0 15 28.5 53t67.5 81q6 8 13 15.5t14 14.5q-7 -1 -15.5 -1.5
t-17.5 -0.5h-2.5h-2.5q-24 1 -43.5 10.5t-19.5 38.5q0 9 4 19t9 21q4 7 8 13.5t8 12.5q5 6 9 12t8 11q0 -18 17 -24.5t78 -6.5q15 0 28 1.5t25 4.5q6 2 12.5 4t12.5 4v0z" />
    <glyph glyph-name="glyph44" unicode="I" horiz-adv-x="497" 
d="M191 412q4 1 10 1.5t13 0.5q9 0 21 -1.5t28 -6.5q-47 -29 -65 -47t-31 -21q-1 -1 -2.5 -1h-2.5q-9 0 -16 2t-13 6q-4 2 -8 5t-9 6q-3 2 -5.5 3.5t-5.5 3.5q-10 6 -18.5 14t-8.5 24q0 15 7 33t18 36q8 13 18 26.5t20 25.5q12 16 24 29t21 23q11 12 27.5 27.5t36.5 32.5
q21 16 44.5 32t47.5 29q23 12 46.5 19.5t43.5 7.5h1.5h1.5q47 -1 86.5 -27.5t39.5 -61.5q0 -20 -5 -44t-13 -49q-6 -17 -12 -33.5t-12 -31.5q-7 -15 -13 -28t-11 -24q-35 -71 -64 -119t-56 -90q-2 -2 -3 -4t-3 -5q-15 -23 -30.5 -47.5t-32.5 -52.5q1 -2 1 -4.5v-4.5
q0 -8 -3 -17t-8 -19t-11.5 -20t-12.5 -19q-8 -9 -15.5 -15t-12.5 -6q-4 0 -8 1.5t-9 3.5q-11 6 -20.5 18t-9.5 26q0 13 13.5 33.5t42.5 57.5q19 24 46 65.5t57 91.5q10 17 20.5 35.5t20.5 36.5q36 66 62 127.5t26 95.5q0 16 -7 25.5t-26 9.5q-22 0 -50.5 -15t-58.5 -37
q-19 -15 -38.5 -32.5t-36.5 -35.5q-26 -27 -46.5 -52.5t-30.5 -42.5v0z" />
    <glyph glyph-name="glyph45" unicode="J" horiz-adv-x="532" 
d="M305 47q-174 -226 -236 -277.5t-77 -51.5q-2 0 -4.5 0.5t-5.5 0.5q-5 1 -10 4t-5 8q0 39 42.5 124t205.5 188q7 5 13 8.5t12 7.5q8 6 18.5 12.5t27.5 18.5q15 23 45 75t63 115l16.5 33t16.5 34q35 71 60.5 137t25.5 102v1.5v1.5q0 18 -3 26.5t-21 8.5q-23 0 -51 -14
t-56 -38q-41 -34 -79 -83t-63 -101q-15 -32 -23.5 -62.5t-8.5 -58.5v-2v-2v-2.5v-3.5q0 -8 1.5 -15t6.5 -7t13.5 2.5t17.5 7.5q6 3 12 7.5t11 9.5q-7 -11 -19.5 -28.5t-29.5 -35.5q-9 -11 -19.5 -21.5l-20.5 -20.5q-18 -16 -35.5 -26.5t-30.5 -10.5q-3 0 -7 1.5t-8 3.5
q-8 5 -14 15t-6 27q0 62 31.5 160.5t128.5 206.5q5 6 11 12l12 12q26 26 56.5 50.5t61.5 44.5q36 23 71 37t62 14q6 0 12 -1.5t12 -3.5q22 -9 40 -29t18 -44q0 -33 -26.5 -99.5t-62.5 -140.5q-7 -13 -13.5 -27t-13.5 -27q-37 -71 -69 -128t-43 -75q2 1 14.5 7t28.5 12
q1 1 2.5 1.5t2.5 1.5q16 6 29.5 11.5t17.5 5.5q9 0 12.5 -2t3.5 -4q0 -7 -23.5 -19t-63.5 -38q-4 -3 -8 -5t-8 -5q-2 -1 -4 -2.5t-3 -2.5q-14 -8 -28.5 -18t-35.5 -24v0z" />
    <glyph glyph-name="glyph46" unicode="K" horiz-adv-x="835" 
d="M515 452l380 184q3 -8 4 -15.5t1 -14.5q0 -36 -26.5 -61.5t-58.5 -45.5q-6 -4 -12.5 -7.5t-12.5 -7.5q-5 -3 -10.5 -6t-10.5 -6q-7 -4 -14.5 -8t-16.5 -8q-5 -2 -10.5 -4.5t-11.5 -4.5l-2 6t-3 6q-4 7 -9 12.5t-11 5.5q-4 0 -10 -1t-13 -3q-3 -1 -6.5 -2t-6.5 -2
q-3 -2 -6 -3t-5 -2l-181 -87l-41 -55l284 -188q41 -27 56 -64t15 -79q0 -3 -0.5 -10t-2.5 -14q-1 -11 -4 -19.5t-6 -6.5l-422 282l-85 -105q-1 -2 -1.5 -3.5t-0.5 -2.5t0.5 -1.5t0.5 -1.5l0.5 -0.5l0.5 -0.5q0 -1 0.5 -2t1.5 -4q-4 -5 -17 -19.5t-28 -30.5l-6.5 -6.5
l-6.5 -6.5q-16 -16 -30.5 -27.5t-22.5 -11.5q-5 0 -8 2.5t-5 6.5q0 1 -0.5 2.5t-0.5 2.5q0 17 27 59t143 178q-1 2 -2.5 4.5t-2.5 4.5q-3 7 -4 13.5t-1 12.5v5.5t1 4.5v4.5v3.5q0 10 5.5 19t12.5 17l7 7l6 6l94 46l109 146q10 13 14 20t4 12q0 1 -0.5 2l-1.5 3q-2 3 -6 5.5
t-9 2.5q-16 0 -69.5 -20.5t-114.5 -46.5q-6 -2 -11.5 -4.5t-11.5 -4.5q-58 -25 -105 -47t-59 -28q-3 -1 -7.5 -3t-10.5 -4q-1 0 -2.5 -0.5t-3.5 -1.5l-14 -4t-10 -2q-12 0 -15.5 6.5t-3.5 13.5v1.5v1.5v4.5v4.5q0 10 1.5 20.5t4.5 21.5q5 19 13.5 38t18.5 35l109 65
q0 -1 -0.5 -4t-0.5 -5q-1 -3 -1 -5.5v-4.5q0 -3 3.5 -5t8.5 -2q2 0 4 0.5t4 1.5q104 47 177 62.5t104 15.5q23 0 39 -14.5t26 -32.5q6 -12 9 -22.5t3 -17.5q0 -12 -2 -19t-7 -13l-91 -119v0z" />
    <glyph glyph-name="glyph47" unicode="L" horiz-adv-x="680" 
d="M654 394l-123 -95q-3 -2 -6 -3.5t-5 -1.5q-7 1 -10 9t-3 18q0 41 17.5 77.5t38.5 67.5q4 6 7.5 11.5t7.5 10.5q34 49 45 67.5t11 27.5v1.5v0.5q-1 1 -1.5 2.5t-1.5 1.5q0 1 -1.5 1t-2.5 1h-0.5h-1.5q-2 0 -4.5 -0.5t-4.5 -1.5q-21 -8 -67.5 -62.5t-97.5 -122.5
q-6 -8 -12.5 -16.5t-12.5 -16.5q-48 -65 -88.5 -123.5t-56.5 -82.5h2.5h3.5q39 -4 85.5 -15t126.5 -38q53 -18 81.5 -26t51.5 -11q6 0 11 -0.5t11 -0.5l-80 -86q-1 0 -2 -1t-1 -2q-8 -8 -19 -15t-36 -7q-4 0 -8 0.5t-8 0.5q-23 4 -62 19t-157 45q-2 1 -4.5 1.5t-4.5 0.5
l-6 2t-6 1q-20 6 -42 10t-48 4q-45 0 -77 -7.5t-54 -15.5q-21 -9 -33.5 -16.5t-19.5 -7.5q-2 0 -3 1.5t-2 3.5v1.5v0.5q0 9 10.5 30t25.5 45q2 4 5 8t5 8q10 15 19.5 28.5t16.5 22.5q5 2 12 4t15 4q20 5 48 9.5t67 4.5h3.5h3.5h3.5h3.5q24 34 42.5 60.5t35.5 51.5
q11 15 22.5 31t23.5 34q15 21 56.5 76t92.5 118l20 24l20 24q54 62 103 108.5t74 46.5q3 0 5.5 -0.5t5.5 -1.5q14 -7 26 -26.5t12 -41.5q0 -10 -2.5 -22.5t-7.5 -25.5q-3 -9 -7 -18.5t-7 -17.5l-10.5 -21t-8.5 -15q-21 -36 -39 -63t-24 -52q-1 -5 -1.5 -10t-0.5 -10v-6.5
t1 -6.5q0 -3 1 -6.5t2 -6.5v0z" />
    <glyph glyph-name="glyph48" unicode="M" horiz-adv-x="1033" 
d="M548 196q25 29 46 53t42 47q3 4 7 8t8 9q33 37 73.5 77.5t102.5 96.5q127 114 166 134.5t47 20.5q2 0 5 -0.5t5 -1.5q12 -6 22.5 -22t10.5 -34q0 -4 -0.5 -8.5t-2.5 -8.5q-22 -27 -39.5 -48.5t-34.5 -41.5q-2 -2 -3 -3.5t-3 -2.5q-11 -14 -23 -27.5t-25 -28.5t-29.5 -36
t-33.5 -45q-15 -22 -29.5 -46t-27.5 -49q-17 -34 -28.5 -67t-11.5 -61q0 -42 13 -59t30 -17q10 0 27 8t35 20q5 3 10.5 6.5t10.5 7.5q15 10 27.5 19.5t18.5 15.5q2 2 4.5 4t5.5 4l2.5 2.5t3.5 2.5q6 5 12 8.5t10 3.5h1.5h0.5q3 -1 5.5 -3t3.5 -4v-0.5v-1.5q0 -5 -8 -15
t-18 -22q-2 -1 -3.5 -3t-3.5 -4q-8 -9 -15.5 -16.5t-12.5 -11.5q-18 -17 -37.5 -33t-39.5 -28q-36 -25 -71 -40t-64 -15q-6 0 -15 2.5t-19 8.5q-15 10 -28 30.5t-13 57.5q0 52 20.5 101.5t44.5 87.5q10 16 20 30t18 25q58 76 72 97t14 28q0 3 -2.5 5.5t-7.5 2.5
q-7 0 -35 -19t-111 -104q-26 -27 -73.5 -79.5t-98.5 -120.5q-10 -13 -19.5 -26.5t-19.5 -27.5q-23 -33 -32 -45.5t-15 -13.5h-1.5h-0.5h-3.5h-3.5q-11 2 -20.5 11t-9.5 31q0 20 22 87.5t95 199.5q65 115 86 148t21 41q0 4 -5 7t-12 3q-13 0 -38.5 -16t-52.5 -38
q-6 -5 -11.5 -9.5t-10.5 -8.5q-23 -19 -42.5 -36.5t-29.5 -27.5q-52 -51 -121.5 -130t-154.5 -192q-20 -26 -30.5 -37.5t-19.5 -13.5q-3 -1 -6.5 -1.5t-7.5 -0.5h-4.5h-5.5q-3 1 -6 1h-7h-4.5h-4.5q-16 0 -22.5 8.5t-6.5 56.5q0 64 16.5 111.5t36.5 77.5q11 16 21 26.5
t18 16.5q4 3 11.5 6.5t17.5 6.5q7 3 14.5 5.5t14.5 4.5q21 6 38.5 10t22.5 4h0.5h1.5t2 -0.5t1 -1.5t-0.5 -2.5t-0.5 -2.5q-4 -8 -18.5 -18.5t-30.5 -33.5q-14 -20 -27 -53t-19 -86q18 21 59.5 67t87.5 96l5.5 5.5t4.5 5.5q40 43 77.5 82t61.5 62q16 15 48 43.5t69 58.5
q6 5 11.5 10t11.5 9q47 38 89 67.5t57 29.5q3 0 6.5 -2t7.5 -5q8 -8 15.5 -21.5t11.5 -28.5q2 -8 3.5 -15t1.5 -14q0 -17 -17.5 -42.5t-58.5 -86.5q-13 -19 -25 -37t-23 -36q-27 -44 -51.5 -89t-46.5 -97v0z" />
    <glyph glyph-name="glyph49" unicode="N" horiz-adv-x="809" 
d="M272 679q0 -11 6 -20t16 -9q5 0 10.5 1.5t9.5 3.5q12 6 25.5 13t27.5 14q29 16 61.5 28.5t68.5 12.5q37 0 54 -19.5t17 -46.5q0 -6 -0.5 -11.5t-2.5 -11.5q-1 -6 -3.5 -12t-5.5 -12q-75 -168 -128.5 -230.5t-53.5 -93.5v-1v-1q1 -3 2 -5t2 -2h0.5h0.5q5 1 30.5 29.5
t150.5 155.5q12 12 41.5 39t64.5 57q7 6 14 11.5t14 11.5q40 32 76 56t53 24q13 0 24 -14t18 -31q4 -10 6 -20t2 -16q0 -22 -21.5 -57.5t-66.5 -97.5q-9 -13 -35.5 -49.5t-55.5 -82.5l-12 -18t-12 -19q-29 -46 -50 -88.5t-21 -65.5q0 -29 9.5 -41t20.5 -13h1.5h1.5
q18 0 38 12t44 31q25 20 36 34.5t20 22.5q3 3 7 4.5t9 1.5t8 -1.5t4 -3.5q1 -1 1 -1.5v-1.5q0 -7 -10 -22t-48 -53q-100 -97 -148.5 -120.5t-64.5 -23.5h-4t-3 1q-20 3 -36 23t-16 53q0 23 15.5 79.5t86.5 170.5q87 140 120.5 186t33.5 61q0 2 -2 3.5t-4 1.5
q-16 0 -55 -30.5t-83 -71.5q-6 -5 -12 -11t-12 -11q-43 -40 -77 -75t-43 -46q-95 -108 -132 -174t-63 -74q-2 0 -3.5 -0.5t-3.5 -0.5q-4 0 -9 1.5t-10 4.5q-3 1 -6 2.5t-5 3.5q-8 4 -15.5 10.5t-11.5 12.5q-3 4 -4.5 7.5t-1.5 6.5q0 8 5 19.5t18 30.5q99 149 175 282.5
t76 197.5q0 11 -3 19.5t-22 8.5q-10 0 -25.5 -6t-31.5 -14q-6 -2 -11 -5l-10 -6q-17 -9 -31 -17.5t-18 -11.5q-12 -8 -22.5 -14.5t-20.5 -13.5q-5 -4 -10.5 -7.5t-10.5 -7.5q-13 -9 -26.5 -19.5t-28.5 -23.5q-33 -28 -47.5 -32.5t-20.5 -4.5h-0.5h-0.5q-1 0 -2.5 1t-2.5 2
q-4 5 -6.5 15.5t-2.5 30.5q0 9 1.5 17.5t5.5 17.5q14 41 53.5 78.5t84.5 63.5q9 5 17.5 9t17.5 8v0z" />
    <glyph glyph-name="glyph50" unicode="O" horiz-adv-x="622" 
d="M545 567h3.5t3.5 1h3h3q41 0 70.5 -27.5t29.5 -83.5q0 -37 -13.5 -82.5t-38.5 -91.5q-56 -105 -158.5 -192.5t-222.5 -87.5q-12 0 -22.5 1t-21.5 5q-8 2 -16 6t-16 10q-32 28 -50.5 58t-26.5 61q-4 15 -6 30.5t-2 30.5q0 123 77.5 220.5t170.5 161.5q69 48 131.5 76
t93.5 32q4 1 7.5 1h6.5h4.5t4.5 -1q17 -4 33 -22t27 -38q6 -10 10 -20t7 -18q-29 -3 -49.5 -10.5t-35.5 -15.5q-2 -1 -3.5 -2t-3.5 -2v0zM271 347l-24 10l-2.5 -2.5l-3.5 -3.5q-19 -22 -38 -55.5t-31 -69.5q-9 -25 -14 -48.5t-5 -43.5q0 -28 12 -46t27 -25q5 -3 10 -4t9 -1
q28 0 74.5 25.5t96.5 66.5q49 41 95 93t74 106q16 29 24.5 57.5t8.5 55.5q0 28 -10.5 44.5t-39.5 16.5q-23 0 -49 -9.5t-52 -24.5q-29 -18 -57 -40t-53 -46q-15 -14 -28 -28.5t-24 -27.5v0z" />
    <glyph glyph-name="glyph51" unicode="P" horiz-adv-x="774" 
d="M315 340l160 237q-35 1 -73 -3t-77 -11q-56 -11 -110.5 -26.5t-97.5 -31.5q41 143 141 178.5t271 35.5q112 0 203.5 -43.5t91.5 -195.5q0 -27 -10 -57t-29 -62q-50 -80 -153 -147.5t-239 -67.5q-12 0 -30 1t-38 3q-7 1 -14 1.5t-14 1.5q-11 1 -20.5 2t-16.5 2l-33 -54
q-3 -4 -5 -10t-2 -14q0 -4 1.5 -10t5.5 -12q-5 -7 -8 -12t-6 -9v-0.5v-0.5q-3 -5 -6.5 -10.5t-8.5 -14.5q-29 -47 -43.5 -61.5t-19.5 -14.5h-2h-1h-2h-2h-2.5h-2.5q-5 1 -9.5 5t-7.5 14q-1 2 -1.5 4t-0.5 4q-1 3 -1 5v4v4.5t1 4.5q0 3 0.5 5.5t1.5 4.5q3 11 17 36.5t31 54.5
l4 6t3 7q17 27 32 50t21 31l-6 2t-5 2q-21 8 -38.5 24.5t-17.5 34.5q0 9 2.5 18.5t9.5 19.5q14 19 49.5 36.5t106.5 28.5v0zM533 577l-149 -229q2 0 6.5 0.5t9.5 0.5q4 1 8.5 1h6.5h3.5h3.5h8t6 1h0.5h0.5h4h5q9 0 12.5 -2.5t3.5 -4.5q1 -2 1 -3v-2v-1v0q0 -5 -9.5 -6.5
t-22.5 -2.5h-11t-11 -1q-21 -2 -38 -9t-17 -28q0 -8 10.5 -14t22.5 -9q7 -2 13.5 -3t11.5 -1h8.5h8.5q120 5 220.5 66t100.5 147q0 49 -40 70t-88 27q-16 2 -32 3t-30 1h-7.5h-6.5q-4 -1 -7 -1h-6v0z" />
    <glyph glyph-name="glyph52" unicode="Q" horiz-adv-x="695" 
d="M224 164q36 26 78 56t84 62q34 25 67.5 51.5t64.5 52.5q59 51 102.5 101.5t53.5 93.5q1 4 1.5 8t0.5 8q0 3 -0.5 6t-1.5 6q-4 12 -12.5 15.5t-18.5 3.5h-2h-2q-29 0 -73 -12.5t-91 -32.5q-39 -17 -77 -38t-67 -43q-8 -6 -16 -12.5t-14 -12.5q10 -3 17.5 -6t13.5 -6
q11 -5 17 -10t10 -13q-30 -5 -54.5 -13t-44.5 -16q-6 -3 -11.5 -5.5t-10.5 -4.5q-38 -17 -49.5 -20t-14.5 -3v0v0q-10 0 -17.5 18.5t-11.5 40.5q-4 16 -5.5 30t-1.5 22q0 12 26.5 44.5t131.5 89.5q8 4 17 9t19 9q27 13 57.5 25.5t61.5 22.5q35 12 69 20t63 10q3 0 6.5 0.5
t7.5 0.5h7.5h6.5h6.5h7.5q3 -1 6.5 -1h6.5q48 -3 75.5 -29.5t38.5 -58.5q4 -10 5.5 -20.5t1.5 -20.5q0 -39 -31.5 -83.5t-79.5 -90.5q-34 -30 -72 -60.5t-78 -59.5q-54 -40 -105.5 -75t-89.5 -62q9 -1 17 -2l16 -2q15 -1 28 -3t25 -4q11 -2 22.5 -4t24.5 -5q38 -7 75.5 -12
t74.5 -5q13 0 26.5 1t27.5 3q13 2 26.5 5t26.5 7l-30 -90q-8 -25 -29 -39t-95 -14q-27 0 -54 1.5t-53 5.5q-20 3 -40 6.5t-39 6.5q-42 8 -81.5 14.5t-75.5 6.5q-49 0 -72 -6t-33 -13q-4 -3 -7.5 -5.5t-6.5 -5.5q-4 -3 -9.5 -5.5t-14.5 -2.5q-3 0 -4 3.5t-1 7.5q1 4 1 8.5
t1 9.5v4.5v4.5q0 7 0.5 14t2.5 15q7 36 37.5 66.5t100.5 30.5h33v0z" />
    <glyph glyph-name="glyph53" unicode="R" horiz-adv-x="837" 
d="M300 356l166 237q-39 -4 -70.5 -9.5t-54.5 -10.5q-36 -8 -54.5 -15.5t-18.5 -11.5q0 -1 1 -1.5t2 -1.5q6 -3 18 -6t25 -7q4 -2 8.5 -3.5t8.5 -3.5l-10 -2l-10 -2q-13 -2 -26.5 -4.5t-26.5 -4.5q-17 -2 -33.5 -3.5t-30.5 -1.5h-3h-3h-6.5h-6.5q-17 0 -31.5 6t-14.5 26v2v2
q0 13 3.5 38t27.5 53q32 38 120.5 70t275.5 32q150 0 223.5 -27.5t100.5 -60.5q12 -15 16.5 -29.5t4.5 -26.5q0 -135 -117.5 -181t-273.5 -74q-10 -2 -20.5 -4t-21.5 -4q-8 -1 -16 -2.5t-15 -3.5q-4 -1 -7.5 -1.5t-7.5 -1.5q-19 -3 -38.5 -7t-42.5 -9l243 -96
q65 -26 102 -43.5t55 -33.5q16 -14 20.5 -30t4.5 -38v-7.5v-8.5v-13v-11v-3.5v-3.5q-1 -11 -2 -16t-6 -5h-4.5h-4.5h-4.5t-5.5 2l-468 211l-96 -160l-9 -9t-12 -11q-4 -4 -9 -7.5t-10 -7.5q-8 -5 -15 -8t-13 -3q-7 0 -11 2.5t-4 12.5v3.5t1 3.5q1 5 3 10.5t5 9.5q0 1 0.5 2
t1.5 2l111 185q-2 1 -8.5 3t-13.5 5q-5 2 -9.5 4t-7.5 4t-5 4t-2 4v4v4q-1 2 -1 5v6q0 8 3 17.5t13 19.5q13 13 40 25t77 20v0zM538 596l-156 -222q262 53 348 99.5t86 83.5q0 20 -20 30t-44 14q-11 2 -21 2.5t-19 0.5q-18 0 -40.5 -0.5t-46.5 -1.5t-46.5 -2.5t-40.5 -3.5v0
z" />
    <glyph glyph-name="glyph54" unicode="S" horiz-adv-x="748" 
d="M691 588q-18 8 -37.5 11.5t-39.5 3.5q-25 0 -54.5 -5t-60.5 -14q-51 -15 -97.5 -37.5t-70.5 -46.5q-8 -9 -12.5 -17.5t-4.5 -16.5q0 -14 20 -23t53 -17q34 -8 77 -17.5t88 -23.5q7 -2 13.5 -4.5t12.5 -4.5q54 -19 97 -50.5t43 -87.5q0 -12 -8 -37t-28 -53
q-15 -21 -37 -41t-53 -34q-12 -5 -26.5 -11t-31.5 -12q-53 -18 -128 -33.5t-163 -15.5h-4.5h-4.5h-29.5t-33.5 2q-35 3 -64 14.5t-29 40.5q0 7 2 24t12 35q10 19 30.5 35.5t58.5 23.5q1 0 2 0.5t2 0.5q2 0 4.5 0.5t3.5 0.5q2 0 2.5 -0.5t0.5 -1.5t-0.5 -3t-1.5 -4l-0.5 -1
t-0.5 -2t-0.5 -2.5t-0.5 -2.5q0 -13 17 -20t38 -7q26 0 77 6.5t108 18.5q76 16 140 40t64 53q0 30 -45 49.5t-99 32.5q-22 5 -43 9t-39 7q-41 8 -71 14.5t-52 12.5q-53 17 -63 35.5t-10 50.5q0 54 12 93t65 76q12 8 26.5 16t32.5 17q19 9 38 16.5t38 14.5q88 30 168 39
t119 9q53 0 76.5 -12.5t30.5 -27.5q4 -8 5 -15t1 -13q0 -41 -10 -56t-31 -25q-6 -3 -13.5 -6t-15.5 -7q-27 -12 -48 -24t-41 -23q-13 -7 -26.5 -14t-28.5 -14q5 10 13 22.5t21 26.5q9 8 20 16t25 16v0z" />
    <glyph glyph-name="glyph55" unicode="T" horiz-adv-x="708" 
d="M259 528l50 -25q-3 -1 -5.5 -1.5t-5.5 -0.5q-7 -2 -14 -3l-14 -2q-10 -2 -20 -3t-19 -1h-7.5h-7.5h-7.5h-7.5q-8 -1 -15 -1h-14q-28 0 -47.5 5t-18.5 21q0 2 0.5 5t1.5 6l27 76q5 13 13 22.5t24 18.5q8 5 18.5 9.5t23.5 9.5q15 6 32.5 12.5t37.5 12.5q58 19 140.5 35
t198.5 16h13.5h12.5h1.5h1.5q7 -1 14.5 -1h16.5q17 0 36 0.5t37 0.5q31 1 60 2t54 2q10 1 19 1.5t17 0.5q-14 -108 -53.5 -131t-89.5 -23h-12.5t-12.5 1q-6 0 -12.5 0.5t-12.5 0.5h-13h-12h-2t-2 1h-14.5h-16.5q-12 -17 -54 -76t-90 -129q-4 -7 -8.5 -13.5t-9.5 -13.5
q-51 -75 -90.5 -141.5t-39.5 -87.5q0 -7 0.5 -12t0.5 -10t0.5 -10t0.5 -12q0 -12 -7 -28t-18 -32q-9 -13 -19.5 -25.5t-22.5 -23.5q-16 -16 -31.5 -26.5t-24.5 -10.5t-17 8t-13 17q-3 5 -4.5 9.5t-1.5 8.5q0 34 46.5 123t114.5 190l32 46t33 46q14 18 26.5 35.5t25.5 34.5
q5 7 10 14.5t11 14.5q17 24 35 50t37 56q-29 -1 -67.5 -4.5t-78.5 -9.5q-50 -9 -95.5 -22.5t-74.5 -32.5v0z" />
    <glyph glyph-name="glyph56" unicode="U" horiz-adv-x="863" 
d="M283 435q-8 -2 -19.5 -4.5t-24.5 -4.5q-4 -1 -9 -2t-9 -2q-18 -3 -35 -5.5t-27 -2.5h-3h-4q-2 -1 -4.5 -1h-5.5h-8t-8 1q-12 2 -22.5 8t-11.5 21v3v3v2.5v2.5q4 63 46.5 99.5t93.5 59.5q11 5 21.5 10t21.5 9q10 4 22 8.5t26 9.5q31 11 73 19.5t100 8.5q73 0 96.5 -6
t23.5 -23q0 -52 -20 -91.5t-51 -76.5q-11 -13 -24 -27l-26 -28q-73 -78 -122.5 -135.5t-55.5 -110.5q-1 -3 -1 -6v-6v-2.5t1 -2.5v-3v-3q1 -7 3.5 -13t12.5 -6q2 0 4.5 0.5t4.5 0.5q16 5 41 28t92 77q45 36 131.5 110t180.5 168q10 9 19.5 18.5t18.5 19.5q35 35 48 46.5
t20 11.5q1 0 2.5 -0.5t2.5 -0.5q7 -3 13 -12t10 -20q3 -7 4.5 -13t1.5 -11v-3t-1 -3q-3 -12 -20 -30t-54 -66q-17 -22 -43 -58t-53 -77q-10 -15 -20 -30.5t-20 -31.5q-33 -54 -56 -104t-23 -82q0 -18 6 -25.5t13 -9.5q2 -1 3.5 -1h3.5q13 0 30 7t35 17q5 3 11 6t11 7
q4 2 8.5 4.5t8.5 5.5q30 19 39 27.5t14 10.5q1 0 2.5 0.5t3.5 0.5q8 0 13 -3t5 -10q0 -5 -12.5 -16.5t-28.5 -24.5q-2 -2 -4 -3.5t-4 -3.5q-13 -9 -24.5 -18t-18.5 -14q-49 -35 -76.5 -52.5t-50.5 -20.5h-1.5h-1.5h-2.5h-2.5h-3h-3q-34 4 -54 40.5t-20 82.5q0 43 43.5 111
t128.5 201q-47 -43 -82 -76t-66 -64l-4 -4l-4 -4l-23 -23l-25 -25q-15 -16 -39 -40.5t-52 -50.5l-24 -22t-25 -21q-33 -28 -65 -47t-55 -19q-20 0 -38 17t-29 38q-7 12 -10.5 23.5t-3.5 19.5q0 15 7 34t18 39q6 12 13 24t14 22q7 11 14 20t13 16q20 25 43 48t47 45
q18 16 35.5 32t34.5 31q9 8 22 19.5t26 24.5l13.5 13.5l12.5 12.5q16 18 27 35t11 29q0 9 -11.5 13t-25.5 5h-8h-7q-10 0 -20.5 -0.5t-21.5 -2.5q-48 -6 -93 -22t-74 -34q-18 -11 -28.5 -21.5t-10.5 -18.5q0 -3 2.5 -4.5t6.5 -3.5t10 -3.5t13 -4.5q2 -1 4 -1.5t4 -1.5
q6 -2 12 -3.5t16 -3.5v0z" />
    <glyph glyph-name="glyph57" unicode="V" horiz-adv-x="756" 
d="M306 421q-10 -4 -18.5 -6.5t-16.5 -5.5q-3 0 -5 -1t-5 -1q-8 -3 -16.5 -5t-18.5 -5q-38 -10 -58 -15.5t-36 -6.5h-2h-2q-24 0 -30 6.5t-6 25.5v6.5v7.5v2v2q1 29 20 69t130 103q17 10 40.5 21.5t50.5 23.5q19 9 39.5 17.5t41.5 16.5q45 17 87 28t72 11q20 0 28.5 -6.5
t15.5 -17.5q1 -2 2.5 -4.5t2.5 -5.5q6 -10 9.5 -21.5t3.5 -28.5q0 -18 -17.5 -41t-49.5 -67q-163 -225 -190 -311.5t-27 -98.5v-0.5v-0.5q0 -16 5.5 -26t11.5 -14q2 -1 4.5 -2t4.5 -1q11 0 24.5 8t27.5 21q8 7 16.5 15.5t15.5 17.5q9 10 17 19.5t14 17.5l168 223
q11 15 17.5 22t9.5 13t4.5 12.5t2.5 18.5q0 5 0.5 10.5t0.5 11.5q9 20 19 37.5t21 32.5q22 31 42.5 48t32.5 17q3 0 5.5 -3t3.5 -7q1 -1 1 -2v-2q0 -11 -3.5 -26t-9.5 -31q-2 -7 -5 -14.5t-6 -14.5q-6 -15 -12 -27t-9 -17q-12 -19 -18 -29t-12 -17q0 -1 -0.5 -1t-0.5 -1
q-4 -5 -9 -11.5t-12 -16.5l-210 -285q-8 -11 -20.5 -26t-28.5 -31q-13 -14 -28.5 -27.5t-30.5 -23.5q-16 -10 -32 -17t-30 -7q-33 0 -58.5 41.5t-25.5 92.5q0 56 34 134.5t124 210.5q42 62 52.5 81t10.5 23q0 8 -3 10t-8 2h-4t-4 -1h-0.5h-1.5q-2 0 -4.5 -0.5t-4.5 -0.5
q-17 0 -51 -13.5t-71 -35.5q-29 -17 -56 -36.5t-46 -39.5l-5.5 -5.5t-4.5 -5.5q14 -3 22 -4l16 -2q2 0 5 -0.5t6 -0.5q5 0 8.5 -0.5t7.5 -0.5q6 -1 11.5 -2t13.5 -3v0z" />
    <glyph glyph-name="W" unicode="W" horiz-adv-x="978" 
d="M272 673v-8q0 -6 4 -8.5t11 -2.5q5 0 10 1t11 2l6 2l6 2q5 2 10 3.5t8 2.5q5 2 15.5 5.5t25.5 7.5q20 5 45 9.5t51 5.5h5.5h5.5q53 0 73 -30t25 -66q1 -11 1.5 -21.5t0.5 -20.5q0 -28 -21.5 -66t-52.5 -78l-26 -32t-27 -31t-27.5 -30t-26.5 -28q-40 -42 -61.5 -70
t-25.5 -54v-4v-4v-3v-4q0 -4 1 -7t3 -3q7 0 40 27t71 61q3 2 5 4l4 4q36 32 66.5 60t36.5 34q143 146 191.5 210t78.5 68h2h2q21 0 33 -15.5t15 -33.5q0 -3 0.5 -6.5t0.5 -6.5q0 -10 -11.5 -27t-40.5 -54q-8 -9 -37 -45.5t-62 -84.5l-24 -36t-22 -37q-24 -40 -39.5 -78
t-15.5 -67q0 -13 3 -23t8 -10q20 0 71.5 38t113.5 108q27 31 51.5 60t42.5 57q22 32 34.5 65t12.5 69v9t-1 9q0 4 -0.5 8.5t-1.5 8.5q33 34 48 50.5t25 16.5q13 0 16.5 -7t3.5 -17v-4v-4q-1 -2 -1 -4v-4q0 -42 -34 -133t-126 -216q-13 -18 -35 -43t-49 -52
q-14 -15 -29.5 -29.5t-30.5 -27.5q-34 -29 -66 -47.5t-55 -18.5q-7 0 -14 2t-14 5q-23 11 -42 34t-22 48v3.5v2.5q0 18 8.5 51.5t20.5 70.5q4 12 8 23.5t8 22.5q7 21 14.5 38.5t13.5 30.5q-115 -123 -174.5 -177t-91.5 -83q-3 -3 -6.5 -6t-6.5 -6q-9 -8 -19 -15.5t-19 -13.5
q-8 -4 -16 -6.5t-15 -2.5q-5 0 -9.5 1.5t-9.5 4.5q-17 9 -31.5 29t-20.5 42q-2 5 -2.5 10.5t-0.5 10.5q0 53 48.5 116t139.5 156q58 58 94.5 102t36.5 69q0 2 -1 4.5t-3 5.5q-5 5 -15.5 9.5t-29.5 4.5q-20 0 -42.5 -4t-45.5 -11q-22 -7 -43.5 -15t-40.5 -17
q-33 -14 -57.5 -26.5t-32.5 -17.5q-31 -16 -44 -22.5t-22 -8.5q-3 -1 -6 -1.5t-5 -0.5t-4 0.5t-4 1.5q-4 2 -5.5 8.5t-1.5 13.5v3v3q0 54 17 85t38 49q11 9 22 15.5t19 11.5q17 10 28.5 16.5t22.5 11.5q5 2 10.5 4t11.5 4q3 1 5.5 2t5.5 2v0z" />
    <glyph glyph-name="glyph59" unicode="X" horiz-adv-x="735" 
d="M557 433l203 208q11 11 16 14.5t6 3.5h1.5h0.5q6 -1 10.5 -7t4.5 -17q0 -5 -1 -10l-2 -10q-4 -11 -9.5 -21.5t-11.5 -19.5q-6 -7 -10.5 -13t-8.5 -10l-34 -10l-167 -176l-16 -206v-62q0 -15 6.5 -24t13.5 -12q3 -1 5 -1.5t4 -0.5q11 0 24.5 6.5t37.5 22.5q14 10 26 18
t16 8h2h2q2 -1 4 -3t2 -6q0 -11 -16 -29t-40 -38q-10 -9 -21.5 -17.5t-23.5 -16.5q-28 -18 -53 -31t-38 -13q-4 0 -9.5 1t-10.5 4q-12 5 -22 19.5t-9 41.5v3v3v2.5v2.5l18 250l-301 -282l-1.5 -1.5t-1.5 -0.5q-6 -6 -14.5 -11t-18.5 -5t-12.5 6.5t-2.5 15.5q0 13 6 28.5
t17 31.5q9 14 20.5 28.5t24.5 27.5q8 8 16 15.5t15 13.5l65 24l190 176l11 191v35q0 10 -4.5 15.5t-15.5 5.5q-20 0 -61 -13.5t-86 -35.5q-24 -12 -47.5 -25t-43.5 -27q-7 -5 -11 -9.5t-4 -6.5q0 -1 1.5 -2t4.5 -1q2 -1 6 -2l8 -2q2 0 4.5 -0.5t4.5 -0.5q2 -1 4 -1.5t4 -0.5
q3 -1 6.5 -2t7.5 -2q-3 -2 -17 -8.5t-32 -13.5q-6 -2 -12 -4.5t-12 -4.5q-17 -6 -33.5 -10t-26.5 -4q-15 0 -19 2.5t-4 11.5q0 13 2 32.5t8 40.5q6 22 16.5 43.5t26.5 34.5q14 11 35 23.5t48 25.5q30 15 65.5 29t71.5 26q40 12 77.5 19.5t69.5 7.5t45.5 -12.5t13.5 -31.5
v-0.5v-0.5v-0.5v-0.5l-14 -242v0z" />
    <glyph glyph-name="glyph60" unicode="Y" horiz-adv-x="743" 
d="M94 382q-1 10 -1.5 19t-0.5 17q0 33 7 56t16 38q7 13 14 19.5t8 7.5q14 11 52.5 34t89.5 48q23 11 47.5 22.5t48.5 21.5q49 20 95 33t81 13q23 0 32.5 -9.5t9.5 -32.5q0 -5 -0.5 -10t-1.5 -10q-3 -19 -13 -39.5t-25 -45.5q-87 -146 -143.5 -213t-80.5 -118l-4 -10l-4 -10
q-1 -2 -1.5 -4.5t-1.5 -4.5q0 -3 -0.5 -5.5t-0.5 -4.5q0 -3 1 -6t3 -5q3 -3 8.5 -3.5t11.5 -0.5q13 0 71.5 36t221.5 206q4 4 7.5 8t6.5 7q1 2 2.5 3t2.5 2q19 21 43 45t67 66q4 -1 8 -3t8 -5q8 -6 15 -14.5t11 -17.5q1 -3 2 -6.5t1 -6.5v-2.5t-1 -2.5q0 -3 -1.5 -5.5
t-4.5 -4.5q-48 -66 -85.5 -121t-68.5 -107q-25 -42 -47.5 -85t-44.5 -93q-12 -28 -24 -57.5t-25 -63.5q9 8 19.5 16.5t21.5 17.5q14 9 29 19.5t30 19.5q24 14 46.5 24.5t40.5 13.5q2 0 4 0.5t4 0.5h1.5h0.5q4 1 8 1.5t7 0.5t5 -0.5t2 -2.5q0 -8 -26.5 -28t-112.5 -95
q-125 -110 -160.5 -167.5t-52.5 -57.5q-6 0 -12.5 2.5t-13.5 8.5t-13.5 15t-12.5 21q8 49 39.5 122.5t122.5 223.5q66 110 78.5 138t12.5 30q0 6 -48 -43t-114 -110q-16 -14 -32.5 -28.5t-33.5 -28.5q-18 -15 -36 -28.5t-35 -24.5q-5 -5 -10.5 -8.5t-10.5 -5.5
q-6 -2 -11.5 -3t-10.5 -1q-19 0 -35 10.5t-23 23.5q-3 4 -4 7.5t-1 7.5q0 26 26 77t61 107q8 11 15.5 22.5t14.5 23.5q26 38 50.5 72t41.5 56q7 9 16.5 22.5t19.5 28.5q3 6 6.5 11.5t7.5 11.5q15 24 25.5 46t10.5 34q0 4 -2.5 5.5t-7.5 1.5q-19 0 -70 -24.5t-107 -55.5
q-7 -3 -13.5 -7t-12.5 -7q-55 -31 -99.5 -57.5t-57.5 -34.5v0z" />
    <glyph glyph-name="glyph61" unicode="Z" horiz-adv-x="638" 
d="M446 304q7 2 13 2h12q53 0 85.5 -41.5t33.5 -98.5q17 9 27.5 14.5t19.5 6.5q1 1 3 1h4h2t2 -1q1 0 2.5 -2t1.5 -7q0 -4 -10.5 -12t-51.5 -33q-11 -58 -38 -104.5t-57 -83.5q-20 -23 -38.5 -41.5l-32.5 -32.5q-13 -13 -30 -27t-35 -29q-17 -13 -34.5 -25.5t-35.5 -23.5
q-37 -23 -71 -38.5t-59 -15.5q-24 0 -38.5 14t-21.5 30q-4 8 -5.5 16t-1.5 14q0 13 10 31t24 37q7 9 14.5 17.5t14.5 16.5q17 18 33 33t24 22q30 25 62.5 47.5t66.5 43.5q46 30 90.5 55.5t80.5 46.5q1 5 1.5 8.5t0.5 7.5q-1 29 -21.5 44.5t-49.5 15.5q-34 0 -94.5 -24
t-131.5 -75q-3 -2 -6.5 -4.5t-6.5 -4.5q-15 -8 -28 -13.5t-19 -5.5q-1 0 -1.5 1.5t-0.5 3.5v6t1 6q1 8 1.5 15.5t0.5 14.5q0 15 2 27.5t7 23.5q12 24 53 52t139 79q14 7 49 26.5t75 44.5l36 24t33 25q27 21 44.5 41.5t17.5 37.5q0 3 -0.5 7.5t-2.5 8.5q-4 8 -14.5 15
t-30.5 7q-39 0 -87 -17t-122 -49q-31 -13 -101.5 -51t-157.5 -114q-2 12 -3.5 23.5t-1.5 21.5q0 102 80.5 170.5t177.5 105.5q57 22 110.5 32.5t90.5 10.5q72 0 105 -30t42 -66l2 -16t1 -16q0 -65 -61 -120t-134 -98q-16 -9 -31 -17.5t-30 -16.5v0zM501 94
q-19 -12 -62.5 -41.5t-91.5 -65.5q-17 -13 -34 -27t-32 -28q-42 -36 -70.5 -70.5t-28.5 -58.5q0 -4 5 -7t10 -4q2 -1 3.5 -1h3.5q25 0 57.5 17.5t66.5 46.5t66.5 66t58.5 76q16 24 28.5 49t19.5 48v0z" />
    <glyph glyph-name="glyph62" unicode="[" horiz-adv-x="588" 
d="M414 703q2 3 4 5.5t4 4.5q16 19 44 26t114 7q5 0 20.5 -0.5t32.5 -1.5q21 -1 38 -3.5t17 -7.5q0 -6 -0.5 -12.5t-2.5 -12.5q-6 -17 -34 -31.5t-104 -14.5h-7.5t-7.5 1h-8h-8q-35 -54 -58.5 -97.5t-43.5 -85.5q-6 -12 -11 -24t-11 -24q-10 -24 -20.5 -48.5l-22.5 -52.5
q-20 -47 -37.5 -86t-33.5 -77q-8 -18 -15.5 -37t-14.5 -39q-14 -37 -29 -79.5t-31 -96.5q33 1 58.5 2t50.5 2h24.5h25.5h2h3h2h2q7 0 13.5 -1t6.5 -4q0 -5 -4.5 -13.5t-11.5 -17.5q-3 -5 -6.5 -9t-6.5 -8q-6 -6 -11.5 -11t-9.5 -7q-8 -3 -31.5 -5.5t-50.5 -4.5
q-20 -1 -39 -2t-31 -1h-3.5h-3.5q-7 4 -14.5 9t-15.5 11t-16 12.5t-15 13.5q-10 10 -16 19t-6 17q0 29 22 108t125 320q45 106 78.5 177t64.5 122q9 16 19.5 30.5t20.5 27.5v0z" />
    <glyph glyph-name="glyph63" unicode="\" horiz-adv-x="489" 
d="M445 -205l-438 900q-4 8 -5.5 11.5t-1.5 6.5q0 1 0.5 2l1.5 3l25 44q1 2 2 3t4 2h0.5h1.5h1.5h0.5q2 0 4 -2.5t3 -4.5t2 -3t1 -2l435 -900l0.5 -1t1.5 -2t1.5 -2.5t1.5 -2.5q1 -2 1.5 -3.5t0.5 -3.5v-1.5v-2.5t-0.5 -2t-0.5 -2l-23 -42l-0.5 -0.5t-1.5 -0.5q-1 -2 -3 -3
t-6 -1q-2 0 -4 2t-3 5q-1 1 -1.5 2t-0.5 2v-1z" />
    <glyph glyph-name="glyph64" unicode="]" horiz-adv-x="588" 
d="M274 -123q-3 -2 -5.5 -5t-5.5 -6q-19 -20 -48 -25t-107 -5q-67 0 -87.5 3.5t-20.5 8.5q0 46 34 59t74 13h5.5h5.5q14 0 27.5 -0.5t24.5 -1.5q35 54 59 97.5t44 85.5q6 12 11.5 24t10.5 25q10 23 20.5 47.5t22.5 51.5q20 45 36.5 83t32.5 75q8 20 15.5 39.5t15.5 39.5
q15 38 30 81.5t31 97.5q-34 -2 -58 -2.5t-45 -0.5q-2 0 -4.5 -0.5t-4.5 -0.5h-9.5h-9.5h-13.5h-14.5h-4.5h-5.5h-2.5h-2.5q-6 0 -10.5 1t-4.5 4q0 5 4 14t11 19q9 13 23 24t32 14q5 1 21 2t35 2q3 0 6.5 0.5t7.5 0.5q23 2 44 3t26 1q7 -4 15.5 -10.5t18.5 -13.5
q6 -5 12 -10.5t12 -10.5q11 -10 18 -20t7 -18q0 -23 -42.5 -142t-98.5 -256q-10 -24 -20 -47.5t-20 -47.5q-43 -100 -83 -180.5t-66 -111.5v-1z" />
    <glyph glyph-name="glyph65" unicode="^" horiz-adv-x="598" 
d="M306 724l222 -294h-82l-140 183l-140 -183h-82l222 294v0z" />
    <glyph glyph-name="glyph66" unicode="_" horiz-adv-x="878" 
d="M0 -280v68h878v-68h-878v0z" />
    <glyph glyph-name="glyph67" unicode="`" horiz-adv-x="261" 
d="M261 459l-45 -10q-17 12 -30.5 19t-25.5 12q-5 2 -10 3.5t-10 2.5q-5 2 -10.5 3.5t-11.5 3.5q-3 11 -4 19t-2 14v2.5v2.5q-1 3 -1 6v6v2.5t1 2.5v2.5v2.5q2 10 7 14t15 4q11 0 23.5 -6.5t25.5 -16.5q10 -8 21 -18t20 -21q13 -14 22.5 -27.5t14.5 -22.5v0z" />
    <glyph glyph-name="glyph68" unicode="a" horiz-adv-x="462" 
d="M367 324q6 -12 11 -21.5t8 -18.5q1 -3 1.5 -6.5t0.5 -6.5q0 -6 -8 -20t-29 -48q-16 -25 -27.5 -44t-13.5 -37v-2.5v-3.5q0 -17 7.5 -25.5t16.5 -11.5q3 -1 6 -1.5t6 -0.5q12 0 24.5 5.5t25.5 13.5q2 2 4.5 3.5t5.5 3.5q4 2 7.5 4.5t7.5 4.5q15 9 21.5 15t11.5 8h1.5h1.5
q2 0 3.5 -2t1.5 -4q0 -6 -13.5 -20.5t-48.5 -48.5l-13.5 -13.5t-16.5 -14.5q-17 -15 -36.5 -28.5t-39.5 -18.5q-5 -2 -10 -2.5t-10 -0.5h-4.5t-4.5 1q-17 2 -31 14.5t-14 36.5q0 17 3.5 33.5t8.5 28.5q3 10 6.5 17t4.5 10q1 2 2 3t1 3l1.5 1.5t0.5 1.5q3 5 6 11.5t7 17.5
q-97 -100 -141 -130.5t-62 -30.5q-19 0 -32.5 23t-19.5 50q-3 13 -4.5 25.5t-1.5 22.5q0 38 23 72.5t51 61.5q19 18 36.5 31t27.5 20t24 15.5t30 17.5q13 7 27 14t28 13q28 13 54 21t45 8q17 0 30 -8.5t17 -19.5q1 -2 1.5 -4t0.5 -4q0 -6 -3 -10.5t-7 -8.5q-2 -2 -4 -3.5
t-3 -2.5l-1.5 -1.5t-1.5 -0.5l-0.5 -0.5l-0.5 -0.5q-2 -1 -3.5 -2.5t-3.5 -4.5v0zM57 113v-3v-3q2 -7 5 -13.5t8 -8.5q2 -1 3.5 -1h2.5h4t4 1q12 3 38.5 16t70.5 49q6 5 20 17.5t29 28.5q5 4 9.5 8.5t8.5 9.5q14 16 24.5 31t10.5 24q0 6 -4 8.5t-8 3.5q-3 1 -5 1h-4
q-13 0 -27.5 -2.5t-28.5 -7.5q-44 -14 -84.5 -45t-60.5 -65q-8 -13 -12 -25t-4 -24v0z" />
    <glyph glyph-name="glyph69" unicode="b" horiz-adv-x="377" 
d="M397 152v-42q-13 -8 -28.5 -15.5t-32.5 -10.5q-4 0 -8 -0.5t-8 -0.5h-4h-4q-12 2 -24 6t-21 9q-9 -11 -21.5 -25t-26.5 -29q-24 -25 -52 -46t-57 -26q-4 -1 -8 -1.5t-8 -0.5t-8.5 0.5t-8.5 1.5q-24 6 -43.5 34t-19.5 93q0 95 36 174.5t79 138.5q17 22 33.5 41.5
t30.5 35.5q12 14 38 39.5t56 54.5q7 6 14.5 12.5t14.5 12.5q36 32 69 55.5t50 23.5q9 0 16 -9.5t9 -20.5q1 -2 1 -3.5v-3.5q0 -34 -51.5 -114t-125.5 -170q-26 -32 -54.5 -63.5t-56.5 -61.5q-2 -1 -3.5 -2.5t-2.5 -3.5q-10 -11 -18 -19t-16 -14q-4 -4 -8 -7t-9 -7
q-3 -2 -6.5 -4.5t-7.5 -4.5q-1 -10 -2 -23.5t-1 -27.5q-1 -9 -1 -17.5v-16.5q0 -4 0.5 -9t2.5 -10q3 -10 10.5 -18t22.5 -8q4 0 8.5 1t8.5 3q18 7 33.5 25t23.5 39q-7 8 -10 17t-3 22q0 11 3.5 22.5t10.5 23.5q11 21 28.5 40.5t36.5 34.5q17 14 33.5 22t27.5 8q9 0 13 -11
t4 -35q0 -10 -3 -19.5t-8 -18.5q-2 -4 -4.5 -8.5t-4.5 -9.5q-2 -3 -4 -6.5t-4 -7.5l-5.5 -11t-5.5 -10q-1 -3 -2.5 -5t-2.5 -5q-3 -5 -6.5 -10t-8.5 -11q9 -4 18.5 -6.5t20.5 -2.5q8 0 15.5 1.5t14.5 3.5q8 3 16.5 7t18.5 10v0zM117 245q23 21 67.5 68t112.5 136q6 8 17 23
t23 33q3 3 5 6.5t5 6.5q14 22 25 41.5t11 29.5v1.5v0.5q-1 3 -4 6t-6 3q-7 0 -16 -6t-19 -14q-3 -4 -6.5 -7t-7.5 -7q-5 -5 -9.5 -10t-8.5 -9q-12 -12 -39 -42t-58 -73q-28 -39 -53 -86.5t-39 -100.5v0z" />
    <glyph glyph-name="glyph70" unicode="c" horiz-adv-x="339" 
d="M0 124q0 21 10 46t28 51q31 47 79.5 88t101.5 59q13 4 27 6.5t27 2.5q3 0 6.5 -0.5t6.5 -0.5q10 -2 18.5 -8.5t8.5 -20.5q0 -11 -7 -28t-18 -34q-6 -10 -13 -20t-13 -19q-14 -17 -26.5 -28.5t-19.5 -11.5q-4 0 -6.5 3t-4.5 7q-1 2 -1.5 4t-1.5 3q0 1 -1 3.5t-2 5.5
q-2 3 -4.5 5.5t-5.5 3.5q-1 0 -2 0.5l-1 0.5h-2h-2h-1.5h-1.5q-1 -1 -1.5 -1h-1.5q-9 -2 -22.5 -10.5t-27.5 -20.5t-27 -26.5t-23 -29.5q-7 -11 -11 -22t-4 -21v-4.5t1 -4.5q3 -19 22.5 -35t60.5 -16q26 0 47 7.5t38 16.5q7 4 13.5 8t11.5 7q39 24 51 35.5t20 13.5q1 1 2 1
h2t2 -0.5t2 -0.5q2 -1 3.5 -3t1.5 -6t-12.5 -22t-74.5 -71q-5 -4 -10.5 -8.5t-11.5 -9.5q-25 -19 -55 -35.5t-61 -16.5q-40 0 -64 26.5t-36 58.5q-8 21 -11 40.5t-3 31.5v0z" />
    <glyph glyph-name="glyph71" unicode="d" horiz-adv-x="458" 
d="M263 150q-101 -109 -140.5 -129.5t-52.5 -20.5q-2 0 -4.5 0.5t-5.5 1.5q-17 6 -32.5 28t-22.5 48q-2 8 -3.5 16t-1.5 16q0 25 4.5 52.5t20.5 55.5q10 18 27.5 36.5t42.5 36.5q9 6 22.5 14t29.5 15q11 6 23.5 11.5t24.5 10.5q29 12 56 20t43 8q12 0 23 -11t15 -27
q14 30 29 59t30 57q40 71 76 120.5t52 49.5q3 0 7.5 -1t9.5 -3q7 -2 13.5 -7.5t6.5 -12.5q0 -11 -16.5 -42.5t-38.5 -66.5q-3 -5 -5.5 -9.5t-5.5 -9.5q-18 -28 -34.5 -52.5t-25.5 -35.5q-7 -9 -14.5 -20t-14.5 -23q-18 -29 -34.5 -64.5t-27.5 -72.5q-7 -22 -11 -44.5
t-4 -43.5q0 -4 0.5 -9.5t2.5 -10.5q2 -10 8.5 -18t20.5 -8h2.5h2.5q16 2 31.5 10.5t27.5 18.5q7 6 13 11.5t10 9.5q23 22 30 26t11 4q5 0 6.5 -4t1.5 -12q0 -7 -19 -28.5t-46 -45.5q-8 -7 -17 -14.5t-18 -14.5q-25 -20 -48.5 -33.5t-37.5 -13.5h-4h-4q-20 2 -36.5 17.5
t-16.5 58.5q0 15 2.5 33.5t7.5 37.5q1 6 3.5 12.5t4.5 12.5v0zM299 280q-1 2 -5.5 3t-13.5 1q-14 0 -33.5 -6.5t-40.5 -16.5l-20 -10t-20 -11t-19.5 -12t-16.5 -11q-10 -7 -18 -15t-14 -16q-14 -20 -17.5 -39t-4.5 -31v-2v-2q-1 -1 -1 -2v-3v-2.5v-3.5q2 -6 6.5 -11.5
t15.5 -5.5t40.5 17t102.5 87q4 4 8 7.5t7 8.5q6 5 11 11l10 12q10 13 17 25t7 21v4t-1 3v0z" />
    <glyph glyph-name="glyph72" unicode="e" horiz-adv-x="319" 
d="M89 138v-4.5v-4.5q0 -5 0.5 -11.5t2.5 -12.5q4 -17 16.5 -31.5t39.5 -14.5q8 0 18 2.5t19 6.5q8 3 15.5 6.5t14.5 6.5q11 6 20.5 11.5t13.5 8.5q36 23 46 32t14 10q1 1 2 1h2q3 0 4.5 -3.5t1.5 -11.5q0 -4 -6 -12t-28 -31q-8 -9 -23.5 -23.5t-34.5 -30.5t-41 -29.5
t-44 -22.5q-11 -5 -23 -7.5t-23 -2.5q-37 0 -66.5 28.5t-29.5 85.5q0 22 6 46t17 49q29 63 83 119t114 73q9 2 19 3.5t19 1.5q26 0 38.5 -9.5t17.5 -21.5q2 -5 2.5 -9.5t0.5 -8.5q0 -15 -9 -33.5t-24 -36.5q-26 -33 -68 -62.5t-86 -45.5q-10 -4 -20.5 -6.5t-20.5 -4.5v0z
M89 175q12 3 26.5 10t28.5 15q18 11 35 24t30 27q11 12 18 24t7 22q0 12 -3.5 19t-17.5 7q-7 0 -14 -2.5t-14 -6.5q-21 -12 -41 -37t-34 -52q-7 -13 -12.5 -26t-8.5 -24v0z" />
    <glyph glyph-name="glyph73" unicode="f" horiz-adv-x="290" 
d="M45 201l-11 -17q-4 8 0.5 11.5t10.5 5.5q47 34 85.5 78.5t71.5 91.5q61 88 103.5 162t74.5 74h0.5h0.5h0.5h0.5q2 0 4 -0.5t4 -1.5q4 -2 8 -10t4 -28q0 -42 -23 -81.5t-51 -72.5q-11 -14 -22 -26t-21 -23q-9 -10 -16 -17.5t-13 -14.5q-5 -5 -10.5 -11t-12.5 -14l-98 -149
q19 -15 32.5 -37t18.5 -49q30 6 45.5 13.5t23.5 15.5q4 4 7 7.5t6 7.5q5 6 11 11.5t18 9.5q2 1 4 1t4 -1t4 -2.5t2 -3.5q0 -8 -10 -22t-27 -29q-15 -14 -35 -27.5t-41 -22.5q-2 -1 -4 -1.5t-4 -1.5q0 -18 -4 -37t-11 -38q-19 -53 -55 -103t-75 -84q-27 -23 -51.5 -36
t-44.5 -13h-2.5t-2.5 1q-15 4 -28 28.5t-13 60.5q0 18 3 37t8 38q10 42 28.5 81t38.5 73q8 13 15.5 25t14.5 23q-8 10 -13 21t-7 23q0 4 -0.5 7.5t-0.5 7.5q0 23 15 41t39 18v0h1v0v0v0zM128 19q-21 1 -36.5 4.5t-25.5 8.5q-5 2 -9 4t-7 4q-14 -16 -25 -39t-18 -47
q-6 -20 -9 -39t-4 -34q-1 -5 -1 -9.5v-8.5v-4v-4q1 -2 1 -4v-4q0 -4 0.5 -9t1.5 -11q2 -10 4.5 -18t7.5 -8q7 0 23.5 13.5t34.5 37.5q23 30 42.5 72t19.5 87v2v2v2v2v0zM106 124l-29 -41q8 -5 18.5 -8.5t31.5 -4.5q0 2 -0.5 3t-0.5 2q-1 1 -1.5 3t-1.5 5q-1 8 -5 18t-12 23
v0z" />
    <glyph glyph-name="glyph74" unicode="g" horiz-adv-x="458" 
d="M233 -53l-23 -42q-46 -82 -84.5 -144.5t-74.5 -62.5q-15 0 -22.5 14t-10.5 30q-2 12 -2.5 22.5t-0.5 16.5q0 84 30 120.5t66 53.5q8 4 17 7t17 6q4 1 7.5 2.5t6.5 2.5l0.5 0.5l0.5 0.5q6 2 12.5 4.5t17.5 7.5q19 34 39 69.5t41 70.5q-61 -52 -106.5 -87.5t-74.5 -35.5
q-7 0 -15.5 5t-17.5 14q-12 12 -23.5 29t-19.5 36q-6 13 -9.5 26t-3.5 24q0 19 12.5 40.5t34.5 43.5q33 34 81.5 66t100.5 54q36 15 71 24t65 9q3 0 5.5 -0.5t5.5 -0.5q17 -4 31.5 -25.5t14.5 -73.5q0 -13 -2 -19.5t-5 -11.5q0 -1 -1 -2t-1 -2l-0.5 -0.5l-0.5 -0.5
l-150 -236l171 79q5 2 8.5 3t5.5 1q5 0 7.5 -2t3.5 -5v-0.5v-1.5q0 -4 -1.5 -7t-3.5 -5l-3 -3t-2 -1l-215 -113v0zM166 -70q-59 -18 -89 -61t-29 -92v-3.5v-2.5q15 2 25.5 9.5t20.5 20.5q9 14 19.5 33.5t25.5 46.5l27 49v0zM81 88l4 -2l4 -2h2h2q12 0 49 21t79 51
q13 9 25 18l24 18q35 27 59.5 52.5t24.5 40.5q0 1 -0.5 2t-1.5 2q-1 2 -3.5 3.5t-6.5 1.5q-12 0 -37.5 -9t-53.5 -21q-7 -4 -14.5 -7t-14.5 -7q-19 -9 -34.5 -17.5t-24.5 -14.5q-33 -22 -60 -48t-27 -67q0 -4 1 -8.5t4 -6.5v0z" />
    <glyph glyph-name="glyph75" unicode="h" horiz-adv-x="407" 
d="M63 176q-1 -7 -1.5 -12.5t-0.5 -10.5q0 -15 3 -23.5t7 -12.5q3 -3 5.5 -4t3.5 -1q2 0 3.5 0.5t3.5 0.5q16 7 40.5 43t87.5 88q5 4 21 16t35 25q4 3 8 5.5t8 5.5q20 13 38 22.5t28 9.5q2 0 4.5 -1.5t5.5 -3.5q4 -4 8 -9.5t8 -12.5q2 -5 4 -10.5t2 -9.5q0 -10 -18 -26
t-47 -54q-28 -37 -37 -58t-9 -31q0 -24 9 -32.5t20 -8.5q7 0 14.5 2.5t15.5 6.5q6 3 12.5 7t12.5 8q9 7 16.5 13t10.5 9q8 8 14 12t10 4h1.5t1.5 -1q3 -1 5 -3t2 -4q0 -4 -11.5 -19.5t-67.5 -61.5q-19 -16 -36 -30t-34 -23q-10 -5 -20.5 -8.5t-21.5 -3.5q-20 0 -32 13
t-14 30q-1 2 -1 3.5v3.5q0 8 5.5 34t38.5 79q6 11 12 18.5t10 13.5q2 2 3.5 5t3.5 6q1 1 2 2.5t2 3.5q3 5 5 9.5t2 7.5q0 2 -2.5 3t-5.5 1h-2h-2q-7 0 -34.5 -20t-113.5 -116q-33 -37 -49.5 -54t-29.5 -20q-1 -1 -2.5 -1h-3.5t-4 0.5t-4 2.5q-4 3 -7.5 11t-4.5 25v6.5v6.5
v6.5v6.5v13.5v12.5q0 13 0.5 25.5t1.5 23.5q6 45 37.5 103.5t128.5 186.5q11 15 38 48.5t60 71.5l12 14t13 14q35 39 67.5 69t48.5 31q10 -3 18 -9t10 -13q0 -1 0.5 -2.5t0.5 -2.5t-0.5 -2.5t-0.5 -2.5q-2 -7 -11 -22t-20 -32q-1 -2 -2 -3.5t-2 -2.5q-11 -18 -21 -32.5
t-13 -18.5q-20 -28 -57 -76t-80 -100q-6 -8 -12.5 -16t-13.5 -16q-39 -47 -76.5 -88t-63.5 -64v0z" />
    <glyph glyph-name="glyph76" unicode="i" horiz-adv-x="243" 
d="M0 100v3.5v2.5q1 41 24.5 88.5t110.5 124.5q11 10 25.5 16.5t32.5 6.5q14 0 18 -7.5t5 -16.5v-4v-4v-1.5v-1.5q0 -12 -4.5 -25t-12.5 -26q-16 -25 -45.5 -48.5t-71.5 -42.5q-2 -4 -3 -7.5t-1 -7.5q-1 -5 -1 -10v-10v-3v-3q0 -34 13 -47.5t29 -16.5q5 0 9.5 -0.5t8.5 -0.5
q9 0 34.5 8t69.5 39q1 0 1.5 0.5l1.5 1.5v0h1q2 2 5 3.5t7 1.5h2h2q2 -1 4 -3t2 -6q0 -5 -9.5 -17.5t-47.5 -46.5l-2.5 -2.5t-3.5 -2.5q-25 -23 -55 -41.5t-66 -18.5q-42 0 -62.5 37.5t-20.5 87.5v0zM255 377q-4 -1 -9.5 -1.5t-10.5 -0.5q-3 0 -6.5 1t-7.5 3q-8 4 -14 13
t-6 25q0 3 0.5 6.5t0.5 7.5q6 25 26.5 45.5t50.5 20.5q19 0 26.5 -12t7.5 -30q0 -26 -17.5 -48.5t-40.5 -29.5v0z" />
    <glyph glyph-name="glyph77" unicode="j" horiz-adv-x="304" 
d="M178 -5l97 80q12 10 16 14t7 4h0.5h0.5h2h2q3 -1 5 -2t2 -3t-1.5 -5.5t-3.5 -6.5l-1.5 -3t-1.5 -2q-2 -3 -4 -5.5t-3 -3.5l-155 -162l-43 -105q-5 -10 -14.5 -25t-20.5 -30q-5 -8 -10 -15t-11 -14q-15 -19 -28 -32t-22 -13q-5 0 -10 7t-7 15q-1 2 -1 4v4q0 24 16.5 86.5
t117.5 153.5l72 210q6 18 8.5 32.5t2.5 24.5q0 3 -2.5 5t-5.5 3h-2h-2q-6 0 -19.5 -5t-43.5 -22l-113 -65q-1 4 -1.5 8t-0.5 8q-1 7 -1 13.5v14.5q0 7 0.5 13t0.5 13q1 6 2.5 12t4.5 13q12 9 33 21.5t45 25.5q10 5 19.5 10t19.5 9q38 19 72 32t49 13q17 0 23.5 -9t6.5 -26
q0 -4 -2 -13t-8 -27l-87 -255v0zM295 378q-4 -1 -9.5 -2t-10.5 -1q-2 0 -4.5 0.5t-5.5 0.5q-10 2 -18.5 11t-8.5 27q0 31 20 57.5t45 29.5h2.5h2.5q3 0 7.5 -0.5t8.5 -2.5q8 -4 15 -12t7 -25v-4v-4q-2 -24 -15.5 -45.5t-35.5 -29.5v0z" />
    <glyph glyph-name="glyph78" unicode="k" horiz-adv-x="447" 
d="M224 101q11 -22 31 -38t42 -16q13 0 22.5 5.5t18.5 12.5l2.5 2.5l2.5 2.5q2 1 4 2.5t4 3.5q51 39 63 47.5t17 8.5v0v0q3 0 5 -4t2 -10v-1.5v-1.5q-2 -11 -14.5 -22.5t-30.5 -30.5q-7 -7 -19 -18.5t-27 -23.5q-11 -10 -23.5 -18t-24.5 -16q-14 -7 -26.5 -11.5t-24.5 -4.5
q-33 0 -55 22t-37 48l-8 14t-7 14q-1 2 -2.5 4.5t-2.5 5.5q-4 5 -8.5 10t-10.5 5t-10.5 -2.5t-6.5 -5.5q-31 -33 -45.5 -53.5t-25.5 -27.5q-3 -2 -6 -3t-6 -1q-10 0 -13.5 14t-3.5 51q0 69 13 117t40 91q19 30 44 61.5t56 69.5q11 13 41 46.5t67 71.5q8 9 16 17t17 16
q38 37 73.5 64.5t54.5 27.5q12 0 18.5 -5t6.5 -12q0 -8 -6.5 -19.5t-26.5 -37.5q-88 -115 -152 -180.5t-116 -120.5q-22 -25 -43.5 -50t-41.5 -55q-2 -4 -3 -9t-2 -11v-4.5v-4.5q0 -7 2.5 -12.5t6.5 -5.5q8 0 18.5 8.5t34.5 37.5q13 16 31.5 35.5t40.5 39.5q16 15 33 29.5
t34 28.5q30 22 58.5 38.5t51.5 19.5q1 0 2 0.5t2 0.5h1h2h1.5h1.5q1 -1 1.5 -1h1.5q11 -3 20 -19t14 -35q2 -8 3.5 -16.5t1.5 -15.5q0 -6 -27.5 -46.5t-167.5 -123.5v0zM162 158q8 -4 17.5 -12t22.5 -23q9 6 25.5 18.5t34.5 28.5q5 4 10 8.5t10 9.5q20 18 34 34.5t14 25.5v2
t-1 3q-1 3 -4.5 5.5t-9.5 2.5q-12 0 -31 -10t-40 -25q-6 -4 -12.5 -9t-13.5 -10q-19 -15 -34 -28.5t-22 -20.5v0z" />
    <glyph glyph-name="glyph79" unicode="l" horiz-adv-x="274" 
d="M113 203q-2 -8 -3 -16l-2 -16q-1 -9 -1 -19v-21q0 -33 9.5 -50t21.5 -24q5 -3 11 -4.5t10 -1.5q8 0 21 6t27 15q4 2 8 4.5t7 4.5q12 8 21.5 15t15.5 11q10 8 16 12t10 4t6.5 -2t2.5 -5q1 -1 1 -1.5v-1.5q0 -3 -3 -7.5t-7 -9.5q-2 -1 -3.5 -3t-3.5 -3q-4 -5 -8.5 -8.5
t-6.5 -5.5q-73 -60 -108.5 -81t-55.5 -21q-6 0 -14 3t-17 11q-15 13 -27.5 46.5t-12.5 98.5q0 74 34.5 138.5t75.5 116.5l18 22t18 21q76 89 131.5 131t74.5 42q5 0 6 -4.5t1 -11.5v-5.5v-5.5q-1 -3 -1 -5.5v-5.5q0 -29 -16 -67.5t-69 -120.5q-9 -13 -44 -56.5t-106 -93.5
q-9 -6 -18.5 -12.5t-19.5 -12.5v0zM123 252q40 24 78 60.5t65 75.5q15 21 25.5 42t15.5 40q1 3 1.5 6t0.5 6q1 3 1 5.5v5.5q0 4 -0.5 6t-2.5 2q-5 0 -17.5 -6.5t-31.5 -28.5q-14 -17 -29.5 -35.5t-30.5 -40.5q-20 -27 -39 -60.5t-36 -77.5v0z" />
    <glyph glyph-name="glyph80" unicode="m" horiz-adv-x="650" 
d="M78 110q45 47 78.5 76t64.5 55q1 1 2 1.5t2 1.5q74 62 107 79t49 17q13 0 18 -7t6 -15v-4.5v-4.5v-2v-1v-2v-2q0 -7 -1 -11.5t-3 -8.5l-2 -4t-2 -5t-2 -5l-2 -4q-1 -1 -1 -2t-1 -2q-2 -3 -4 -6.5t-5 -8.5q-42 -62 -50 -74.5t-8 -14.5v0v0q0 -3 2 -5.5t4 -2.5l17 13.5
t38 30.5q20 16 36.5 29.5t17.5 14.5q7 7 20.5 17t30.5 22q5 3 10 6.5t10 6.5q22 13 41 23t29 10q7 0 13.5 -10.5t11.5 -22.5q3 -9 5 -17.5t2 -12.5t-1.5 -7.5t-4.5 -7.5q-8 -9 -21.5 -19t-28.5 -27q-3 -2 -5.5 -5t-4.5 -6q-3 -4 -7.5 -10.5t-9.5 -14.5q-3 -5 -6 -11l-6 -12
q-4 -8 -6.5 -16.5t-2.5 -15.5q0 -15 7.5 -22.5t22.5 -7.5q10 0 30 7.5t58 42.5l1.5 1.5t1.5 0.5q3 3 6.5 5t7.5 2q2 0 4 -1t3 -3t1 -4.5t-1 -4.5q-3 -12 -19.5 -30t-39.5 -37q-10 -8 -21 -16.5t-22 -16.5q-30 -20 -56.5 -34t-38.5 -14q-3 0 -5.5 0.5t-4.5 0.5
q-14 3 -25.5 12.5t-11.5 26.5q0 13 3 33t21 56q7 14 11.5 22.5t9.5 15.5l0.5 1l0.5 1l1.5 1.5t0.5 1.5q8 12 10.5 19t2.5 11v0.5v1.5q-1 0 -2 1t-1 2h-1.5h-0.5q-6 0 -22 -10.5t-34 -23.5q-2 -2 -5 -4.5t-6 -4.5q-13 -10 -24 -19.5t-17 -15.5q-48 -46 -73 -73t-46 -30h-2h-2
q-12 0 -20.5 9t-8.5 25q0 7 2.5 16t6.5 18q3 6 5.5 11.5t5.5 10.5q3 4 5 8t4 7q21 34 33 50t12 26q0 1 -0.5 3t-1.5 4q-2 3 -6.5 6t-13.5 3q-23 0 -51.5 -23.5t-66.5 -63.5q-3 -3 -5 -5.5t-5 -4.5q-28 -32 -44.5 -60t-31.5 -37q-2 -1 -4.5 -2t-5.5 -1t-7 1t-7 3
q-10 7 -18 27t-8 63q0 33 3.5 51.5t12.5 34.5q8 14 21 30t32 42q27 35 47 49t38 14q19 0 27 -4t8 -9q0 -12 -11.5 -26t-27.5 -33q-5 -6 -10.5 -12t-11.5 -12q-1 -1 -2 -2.5t-3 -2.5q-19 -20 -35.5 -39t-16.5 -32q0 -3 0.5 -7t1.5 -8t1.5 -7t1.5 -6q1 -1 1.5 -2.5t0.5 -2.5v0
z" />
    <glyph glyph-name="glyph81" unicode="n" horiz-adv-x="443" 
d="M78 109q11 12 31.5 31.5t43.5 40.5q2 2 4.5 4t4.5 4q22 20 42.5 38t33.5 28q64 50 94 67.5t49 17.5q13 0 18 -7t6 -15q1 -4 1 -8v-7v-0.5v-0.5q0 -24 -13 -45t-29 -40q-7 -8 -13.5 -16t-12.5 -15q-26 -34 -32 -53t-6 -27q0 -15 8 -22.5t23 -7.5q20 0 38.5 12t34.5 26
l1.5 1.5l1.5 1.5t2.5 2t2.5 2q6 5 12 9.5t11 4.5q3 0 5.5 -2.5t2.5 -10.5q0 -3 -1 -5.5t-2 -4.5q-3 -4 -6.5 -7.5l-8.5 -8.5q-9 -9 -25 -24.5t-35 -31.5q-10 -8 -20.5 -16.5t-21.5 -15.5q-21 -14 -41.5 -24t-36.5 -10q-4 0 -8.5 0.5t-8.5 2.5q-12 4 -21.5 15.5t-9.5 35.5
q0 8 3.5 27.5t21.5 47.5v0v0q1 1 5 7t27 34q11 14 16.5 22t5.5 15q0 1 -0.5 3t-1.5 4q-2 3 -6.5 6t-12.5 3q-24 0 -53 -24t-66 -63q-3 -3 -5 -5.5t-5 -4.5q-28 -32 -44.5 -60t-31.5 -37q-2 -1 -4.5 -2t-5.5 -1q-17 0 -25 18.5t-12 39.5q-1 10 -2 19t-1 17v7.5v6.5v3.5v3.5v3
v3q2 22 10 40.5t20 36.5q7 9 14 19t15 20q19 25 31.5 41t23.5 25q9 6 18.5 9t21.5 3q18 0 25.5 -4t9.5 -9q1 -2 1 -3.5v-3.5q0 -4 -4 -11.5t-13 -15.5q-5 -5 -19.5 -21t-30.5 -35q-1 -2 -2.5 -3.5l-2.5 -2.5q-18 -22 -32.5 -40.5t-14.5 -22.5q0 -3 0.5 -7.5t1.5 -8.5l2 -10
t3 -8v0z" />
    <glyph glyph-name="glyph82" unicode="o" horiz-adv-x="361" 
d="M297 312q15 -4 21.5 -13.5t8.5 -20.5q1 -6 1.5 -11t0.5 -10q0 -9 -1.5 -18t-3.5 -17q-5 -22 -13.5 -42.5t-18.5 -36.5q-1 -2 -2.5 -4.5t-2.5 -4.5l-2 -4t-1 -4q1 -7 8 -12t15 -5t14.5 3t11.5 6q6 3 10 6t7 3q6 0 8.5 -2t2.5 -5q0 -4 -6 -11.5t-16 -15.5
q-16 -12 -39.5 -22t-50.5 -10h-4.5h-4.5q-34 -41 -67 -56.5t-64 -15.5q-43 0 -68 30t-35 67q-3 12 -4.5 23.5t-1.5 22.5q0 5 0.5 10.5t1.5 10.5q9 50 50 96t89 77q30 18 58 29t48 11h1.5h1.5q14 -1 26.5 -6.5t19.5 -12.5q3 -2 4.5 -5t1.5 -5v-2.5v-2.5q-1 -3 -1 -5.5
t-1 -4.5q0 -1 -0.5 -1.5l-0.5 -0.5q-1 -1 -1 -2v-2t-0.5 -2t-0.5 -2v0zM206 91q-6 12 -8.5 23.5t-2.5 21.5q0 14 3.5 26.5t7.5 25.5q16 43 23.5 56.5t7.5 19.5q0 3 -3 5.5t-7 3.5q-1 1 -2.5 1h-2.5q-7 0 -19.5 -6.5t-26.5 -16.5q-4 -3 -8.5 -6.5t-8.5 -6.5
q-9 -7 -16.5 -13.5t-12.5 -11.5q-4 -4 -8 -8.5t-8 -8.5q-20 -22 -32.5 -46.5t-12.5 -57.5q0 -21 9 -29.5t19 -11.5q6 -1 12 -1.5t10 -0.5q23 0 44 11.5t37 25.5q2 1 3.5 2.5l2.5 2.5v0z" />
    <glyph glyph-name="glyph83" unicode="p" horiz-adv-x="466" 
d="M171 275l-155 -136q-10 -10 -14.5 -12t-5.5 -2h-1.5h-0.5q-2 1 -3.5 1.5t-2.5 2.5t-1 4t1 4q1 5 21.5 26.5t123.5 122.5q69 67 97 110t47 64q10 11 21 16.5t28 5.5q3 0 6 -0.5t6 -1.5q7 -2 13.5 -6t6.5 -8v-1.5t-2 -1.5q-76 -100 -105 -145t-34 -54q-1 -2 -2.5 -4.5
t-2.5 -4.5v0v0q-4 -7 -9.5 -15.5t-15.5 -25.5q10 10 26.5 24.5t36.5 29.5q9 7 18 13.5t18 12.5q27 19 52 31.5t41 12.5h3.5h3.5q16 -3 29 -15t13 -40q0 -14 -4.5 -28.5t-11.5 -29.5q-15 -28 -38 -54.5t-48 -49.5q-18 -16 -34.5 -29t-30.5 -23q15 -7 31 -9.5t33 -2.5
q28 0 51 10t39 22q11 8 18.5 16t10.5 12l2 2l2 2l4 4t5 2h1.5h0.5q3 -1 5 -2t2 -4v0v0q0 -3 -5 -14.5t-37 -41.5q-25 -24 -56 -41.5t-64 -28.5q-31 -11 -61 -16.5t-55 -5.5q-16 0 -34.5 4.5t-36.5 12.5l-19 9.5t-18 11.5q-53 -113 -72.5 -164.5t-32.5 -66.5q-4 -6 -9 -8
t-11 -2q-11 0 -17 12t-7 27v2.5v2.5q0 4 4.5 23.5t9.5 41.5q0 2 0.5 3t0.5 3q5 20 9.5 37t5.5 22q17 31 40 60t53 55l117 216v0zM122 87q12 6 23 8t21 2q11 0 20.5 -2.5t16.5 -5.5q5 -2 8.5 -4t5.5 -3q16 11 30.5 24.5t26.5 27.5q20 22 33.5 42.5t16.5 33.5q1 2 1 4.5v4.5
v3.5t-1 2.5q-2 6 -8.5 11t-16.5 5q-19 0 -46.5 -20t-57.5 -50q-14 -14 -27.5 -29.5t-26.5 -30.5l-10 -12t-9 -12v0z" />
    <glyph glyph-name="glyph84" unicode="q" horiz-adv-x="455" 
d="M288 75q6 -6 15.5 -8.5t23.5 -2.5q8 0 17 3.5t18 8.5q10 6 19.5 13.5t17.5 14.5l5.5 5.5t4.5 5.5q4 5 7 8t5 3h1.5h0.5q1 0 2.5 -1t1.5 -4v-2v-2v-2v-2q-1 -7 -4.5 -14t-9.5 -15q-8 -12 -21 -24t-27 -21q-9 -7 -17.5 -11.5t-16.5 -7.5q2 -4 2.5 -9.5t0.5 -10.5
q0 -24 -13.5 -54t-34.5 -61q-19 -27 -42 -53.5t-47 -48.5q-36 -35 -69.5 -57.5t-51.5 -22.5q-14 0 -21 8t-10 18q-1 5 -1.5 10.5t-0.5 9.5q0 6 0.5 11.5t0.5 10.5q5 37 35.5 87.5t120.5 169.5q5 6 9.5 12t8.5 11q4 6 7.5 11t7.5 11q8 11 16 24t17 29q-70 -64 -112 -93.5
t-67 -29.5q-4 0 -8 1t-8 3q-15 9 -30 29t-25 43q-7 16 -11.5 31.5t-4.5 26.5q0 57 62 108t137 84q47 21 91.5 33t72.5 12h4t3 -1q19 -2 34.5 -23t15.5 -76q0 -8 -1.5 -15.5t-3.5 -13.5l-2 -4t-2 -3l-123 -163v0zM138 -206q11 5 24.5 15t28.5 23q13 12 25.5 26.5t23.5 29.5
q14 20 22.5 38t8.5 32q0 30 -4.5 45.5t-13.5 23.5q-4 -6 -7.5 -11.5t-7.5 -10.5q-17 -23 -34 -45t-31 -43q-16 -25 -26 -50.5t-10 -56.5v-4t1 -4v-3v-4v-1zM79 92q2 -1 5 -2t7 -1h1.5h1.5q13 1 29 9t43 24q13 8 37 25.5t51 38.5q6 5 12.5 10.5t13.5 10.5q29 25 50.5 48
t21.5 34q0 1 -0.5 2t-0.5 2q-2 2 -4.5 4t-6.5 2q-17 0 -49 -12.5t-67 -30.5q-14 -7 -28 -14.5t-27 -15.5q-9 -5 -17 -10.5t-15 -10.5q-46 -32 -54 -54.5t-8 -42.5v-2v-2q0 -3 1 -6.5t3 -5.5v0z" />
    <glyph glyph-name="glyph85" unicode="r" horiz-adv-x="340" 
d="M14 170q0 5 2.5 12.5t9.5 19.5q17 30 20 41.5t3 16.5q0 1 -0.5 2.5t-1.5 2.5t-2.5 2t-2.5 2q-3 3 -5 6.5t-2 8.5q0 10 5.5 22.5t14.5 25.5t21 25.5t24 22.5t23.5 15.5t20.5 5.5q5 0 7.5 -3t2.5 -8q0 -3 -0.5 -4.5t-0.5 -2.5q-1 -2 -1.5 -3.5t-0.5 -4.5q0 -1 0.5 -3
t1.5 -4q2 -4 7 -7.5t13 -3.5q6 0 14.5 1t26.5 4q35 5 46.5 7.5t19.5 3.5h2h2q7 0 11 -3t7 -6l0.5 -0.5t0.5 -1.5q6 -9 8.5 -17.5t2.5 -15.5q0 -14 -7 -25t-15 -19l-4 -4l-4 -4l-13 -13t-14 -16q-10 -11 -19 -23t-17 -25q-14 -21 -23 -41t-9 -34q0 -19 11.5 -28.5t27.5 -9.5
q8 0 17.5 4t19.5 9l12 8t11 7q7 6 13.5 11t11.5 9q4 3 8 5.5t9 2.5t7.5 -3t2.5 -7q0 -5 -11.5 -17.5t-26.5 -26.5q-2 -2 -4 -3.5t-3 -3.5q-13 -11 -24 -21t-17 -15q-46 -36 -78 -41.5t-43 -5.5h-0.5h-0.5q-22 0 -36.5 16.5t-14.5 46.5q0 31 18.5 60.5t40.5 56.5q3 3 6 7t6 7
q23 27 40 45.5t17 29.5q0 9 -10.5 12.5t-23.5 3.5h-1.5h-1.5q-51 0 -65.5 -7t-21.5 -24q-1 -3 -2.5 -7t-3.5 -8q-5 -12 -10.5 -21.5t-10.5 -16.5q-17 -23 -30.5 -28.5t-13.5 -1.5v0z" />
    <glyph glyph-name="glyph86" unicode="s" horiz-adv-x="367" 
d="M204 302l-98 -87l-25 32l112 102v2v2q-1 1 -1 2v2v2v2v1v2q0 5 5.5 15.5t14.5 22.5q5 6 10.5 12.5t11.5 11.5q8 8 15.5 13t13.5 5q13 0 24 -24t18 -53q5 -21 8 -40t3 -29q0 -28 -14.5 -68t-48.5 -82q-10 -14 -23 -27.5t-28 -26.5q5 -2 10.5 -3.5t12.5 -1.5
q17 1 42.5 12.5t69.5 45.5q11 8 15.5 10.5t7.5 2.5h0.5h1.5q2 -1 3.5 -2t1.5 -3q0 -8 -19.5 -29.5t-49.5 -45.5q-12 -11 -26 -21.5t-28 -19.5q-26 -17 -50 -28t-42 -11q-12 0 -30 8t-37 21q-24 17 -46 40.5t-33 48.5q-3 7 -4.5 15t-1.5 15q0 3 0.5 6.5t1.5 6.5q3 13 12 23.5
t26 10.5h2h2q7 0 15.5 -0.5t17.5 -4.5q10 -4 19.5 -14t16.5 -30q1 -3 2.5 -7t4.5 -9q3 -8 8.5 -14t12.5 -6q6 0 15 3t19 10q15 11 28 33t13 58v3v3v13.5v13.5q-1 13 -3.5 26.5t-8.5 28.5v0z" />
    <glyph glyph-name="glyph87" unicode="t" horiz-adv-x="275" 
d="M211 327q-7 -10 -15 -21.5t-16 -23.5q-10 -14 -19.5 -29t-17.5 -30q-15 -27 -24.5 -53t-9.5 -48v-4.5v-4.5q2 -16 12 -29.5t35 -13.5q9 0 20.5 4.5t23.5 11.5q6 3 11.5 6.5t11.5 7.5q12 8 22 15.5t15 11.5q9 6 13.5 9.5t8.5 4.5h2h2q4 0 6 -2t2 -9q0 -5 -9 -15.5
t-22 -21.5q-2 -2 -4.5 -4t-4.5 -4q-12 -11 -23 -19.5t-15 -11.5q-55 -43 -92 -61t-67 -18q-4 0 -8.5 1t-9.5 3q-15 6 -27 25t-12 58q0 23 14.5 56t35.5 69q7 11 14 22.5t14 22.5q20 31 38.5 57t29.5 40l-95 1q-4 0 -6 2t-2 6q0 6 4.5 15t10.5 18q2 4 4 7t5 6q5 8 10 14t8 10
q14 17 36.5 19.5t84.5 1.5q28 41 48.5 64t40.5 33q10 6 21.5 8.5t23.5 2.5q3 0 7 -0.5t8 -0.5q7 -1 12.5 -3t5.5 -5q0 -4 -2.5 -9.5t-6.5 -10.5l-6.5 -6.5l-6.5 -6.5l-5.5 -5.5l-4.5 -4.5l-3.5 -3.5t-3.5 -2.5v-0.5v-0.5q-10 -9 -21.5 -20.5t-32.5 -33.5q28 -1 38 -1.5
t16 -0.5h0.5h1.5h4h4h4h4h0.5h1.5h1.5h0.5q5 -1 8.5 -3t3.5 -7q0 -4 -4.5 -9.5t-10.5 -12.5l-41 -44l-1.5 -1.5t-0.5 -1.5h-0.5h-0.5q-6 -7 -13 -12.5t-18 -5.5h-13.5t-22.5 1q-9 0 -17.5 0.5t-13.5 0.5v0z" />
    <glyph glyph-name="glyph88" unicode="u" horiz-adv-x="432" 
d="M219 130q-8 -11 -19 -23.5t-22 -25.5q-11 -12 -22 -23t-23 -21q-19 -17 -38 -28t-34 -11q-26 0 -43.5 41.5t-17.5 95.5q0 18 9 43t24 51q15 28 35 53.5t41 43.5q16 15 31.5 23.5t29.5 8.5q17 0 29.5 -7t12.5 -15q0 -10 -11 -27t-27 -36l-20.5 -20.5t-20.5 -18.5
t-19 -14.5t-18 -11.5q-3 -1 -5 -2.5t-4 -2.5v0h-1l-6 -4t-8 -5q-3 -8 -4.5 -16.5t-1.5 -16.5q0 -20 8.5 -35t22.5 -15q8 0 18 5t24 14q12 8 25.5 18t35.5 32l178 176l2 2l2 2q2 3 5.5 5t7.5 2q2 0 5 -1t6 -4q5 -4 9.5 -15.5t4.5 -34.5v-4.5v-4.5q0 -3 -0.5 -5t-1.5 -4
l-0.5 -1t-1.5 -2l-89 -97q-3 -3 -5.5 -6t-5.5 -7q-8 -11 -15 -26.5t-7 -35.5q0 -16 6 -28.5t20 -12.5q7 0 17.5 3.5t20.5 8.5q6 3 11.5 6t11.5 6q4 2 7.5 4.5t6.5 4.5q1 0 5 3t9 6q6 3 10.5 6l4.5 3h1.5t1.5 -1q2 -1 3.5 -2.5t1.5 -4.5q0 -5 -19.5 -26t-47.5 -45
q-9 -8 -18.5 -16t-19.5 -15q-23 -18 -45 -29t-37 -11h-1.5h-1.5q-14 1 -26 13.5t-12 41.5q0 10 1.5 24t4.5 28q1 9 3 17.5t4 16.5q0 3 0.5 5.5t1.5 4.5v0z" />
    <glyph glyph-name="glyph89" unicode="v" horiz-adv-x="390" 
d="M78 185q-6 -13 -8.5 -28.5t-2.5 -35.5q0 -15 6.5 -27.5t14.5 -15.5q2 -1 3 -1h2q6 0 15.5 4.5t19.5 10.5q3 2 5.5 3.5t5.5 3.5q9 6 16 11t11 8q6 5 11 9l10 8t9.5 8t9.5 9q4 4 7.5 8t7.5 8q-1 4 -1 7.5v7.5q0 26 20 61t75 96q5 5 11.5 9.5t18.5 4.5q3 0 5.5 -0.5
t5.5 -2.5q8 -3 15 -10.5t7 -16.5v-1.5v-0.5q-1 -6 -3.5 -13.5t-8.5 -20.5q-7 -17 -21.5 -46t-46.5 -63q0 -1 0.5 -6.5t3.5 -11.5t9.5 -11.5t19.5 -6.5h3.5h2.5q9 1 18 4.5t17 7.5q2 2 4.5 2.5t3.5 0.5q4 0 7 -3.5t3 -8.5t-4.5 -10t-9.5 -9q-2 -2 -4 -3.5t-4 -2.5
q-17 -13 -30 -18.5t-24 -5.5q-7 0 -15.5 1.5t-17.5 6.5q-7 4 -14.5 10t-13.5 15q-8 -11 -19.5 -25.5t-25.5 -30.5q-11 -13 -23.5 -25.5t-24.5 -22.5q-15 -11 -29 -18.5t-27 -7.5q-8 0 -18.5 4.5t-20.5 12.5q-24 20 -44.5 57t-20.5 82q0 9 1 18t4 18q6 24 22.5 49.5
t44.5 59.5q35 44 54 51.5t29 7.5h0.5h0.5q17 0 24.5 -4t9.5 -9q2 -3 2 -6v-5q0 -5 -4 -14t-10 -20q-1 -1 -2 -3l-2 -4q-5 -9 -10 -17t-7 -11t-4.5 -6.5t-4.5 -6.5q-14 -20 -29.5 -37t-40.5 -32v0z" />
    <glyph glyph-name="glyph90" unicode="w" horiz-adv-x="575" 
d="M406 149q-1 5 -1.5 10t-0.5 9q0 25 13 46.5t28 40.5l2.5 2.5t2.5 3.5q5 6 10 12.5t10 13.5q8 10 16.5 19.5t17.5 16.5q7 5 13.5 8t12.5 3h4t4 -1q10 -1 18 -8.5t8 -23.5q0 -7 -1.5 -13.5t-3.5 -12.5v-0.5v-0.5q-1 -2 -1.5 -3.5t-0.5 -3.5q-5 -13 -15.5 -41.5t-34.5 -60.5
l-6 -8t-7 -8q4 -12 11.5 -19t15.5 -10q2 0 4 -0.5t4 -0.5q14 0 19.5 2.5t8.5 5.5l0.5 0.5t0.5 1.5q2 2 4 3.5t8 1.5h0.5h1.5l2 -2t1 -3q0 -5 -4.5 -13.5t-11.5 -16.5q-12 -13 -29 -24.5t-35 -12.5h-1.5h-1.5q-6 0 -14 1.5t-16 6.5q-8 4 -15 10t-13 16q-71 -80 -104.5 -99
t-50.5 -19q-2 0 -4.5 0.5t-4.5 0.5q-14 4 -27 17.5t-18 29.5q-1 3 -1.5 7t-0.5 7q0 8 1.5 21t3.5 28q1 9 2.5 18.5t3.5 16.5q0 3 0.5 5.5t1.5 4.5q-10 -11 -23 -26t-29 -31q-5 -6 -11 -11.5t-12 -11.5q-23 -22 -44 -38t-34 -16q-7 0 -15.5 2.5t-18.5 9.5q-18 12 -33.5 41.5
t-15.5 81.5q0 48 10 73t28 46q7 8 14.5 16t15.5 17q55 60 84.5 79.5t45.5 19.5h3.5t3.5 -1q14 -1 25 -9t11 -18q0 -7 -5 -20t-26 -42q-7 -10 -18.5 -23.5t-25.5 -27.5q-5 -6 -10.5 -11.5l-10.5 -10.5q-16 -15 -31 -27t-26 -17q-7 -11 -11 -25.5t-4 -35.5q0 -16 6.5 -27
t14.5 -13q2 -1 3 -1h2q5 0 12.5 6.5t21.5 22.5l208 233q5 6 11.5 9.5t17.5 3.5q3 0 7.5 -1t9.5 -2q7 -3 13 -6.5t7 -8.5v-2.5v-3.5q0 -1 -0.5 -1.5l-0.5 -0.5q-2 -5 -7 -12t-20 -29q-6 -10 -14.5 -23t-17.5 -29q-14 -23 -25.5 -51.5t-16.5 -57.5q-1 -4 -1.5 -9t-0.5 -10
q0 -3 0.5 -6.5t1.5 -7.5q2 -10 7.5 -17t11.5 -7v0v0q6 0 23.5 10t58.5 72v0z" />
    <glyph glyph-name="glyph91" unicode="x" horiz-adv-x="392" 
d="M253 265l103 76q2 1 4 2.5t4 3.5q4 2 9.5 4.5t10.5 2.5q3 0 5.5 -2.5t2.5 -5.5q0 -2 -0.5 -3.5t-0.5 -3.5q-2 -5 -5.5 -10.5t-7.5 -9.5q-3 -4 -6 -6.5t-5 -4.5l-116 -105l-8 -103v-4v-4q0 -12 4.5 -19t14.5 -7q4 0 11 3t14 7q2 2 4.5 3.5t4.5 2.5q7 5 12.5 9t7.5 6l2 2
t3 2l6 4t7 4q2 1 4.5 1.5t4.5 0.5q4 0 6.5 -2t2.5 -5q1 -1 1 -2v-2v-0.5v-1.5q-1 -5 -10.5 -13.5t-33.5 -30.5q-78 -70 -103.5 -83t-31.5 -13q-2 0 -4.5 0.5t-4.5 2.5q-5 3 -9.5 10t-4.5 20v5.5v4.5q2 16 6 39t8 78q-32 -43 -55.5 -59.5t-43.5 -27.5q-3 -2 -6 -3.5l-7 -3.5
q-2 -1 -4 -2.5t-4 -2.5t-6.5 -3.5t-9.5 -5.5q-1 0 -1.5 -0.5t-1.5 -0.5q-6 -4 -12 -6.5t-7 -2.5q-3 0 -4.5 3.5t-2.5 7.5v0.5v1.5v3.5v2.5q1 3 2 6.5t3 8.5q1 4 3 8.5t5 9.5q6 12 14 22.5t17 17.5q3 3 7 5t7 3l39 6l68 67q1 7 1.5 12.5t1.5 10.5v5.5v6.5q1 3 1 6v7v2.5v2.5
v2.5v2.5q0 31 -6.5 42t-14.5 13q-1 1 -2.5 1h-3.5q-9 0 -16.5 -4.5t-15.5 -10.5q-1 0 -1.5 -0.5l-1.5 -1.5l-60 -44q-8 -6 -13 -5t-7 4q-1 0 -1 0.5v0.5l-0.5 0.5t-0.5 1.5v1.5v0.5v3.5t1 2.5q0 1 0.5 2t1.5 2q3 6 11.5 14.5l29.5 29.5q68 68 94.5 82.5t37.5 14.5q4 0 9 -1
t10 -3q13 -6 24 -25t10 -60v-12.5t-1 -14.5v0z" />
    <glyph glyph-name="glyph92" unicode="y" horiz-adv-x="431" 
d="M92 184q-9 -15 -13.5 -24.5t-6.5 -17.5q-1 -4 -1.5 -7.5t-0.5 -8.5q0 -10 4 -16.5t8 -8.5q1 -1 2 -1h2q3 0 14.5 6.5t24.5 15.5l1 1t2 1q12 8 22 15t13 9q71 53 122 103t97 96q5 5 8.5 7t6.5 2q8 0 13 -8.5t7 -18.5q0 -3 0.5 -5.5t0.5 -5.5q0 -11 -3.5 -20.5t-7.5 -17.5
q-2 -4 -4 -7.5t-4 -6.5l-145 -230q-9 -14 -12.5 -19.5t-4.5 -9.5q0 -1 -0.5 -2l-0.5 -1q0 -1 0.5 -2t0.5 -2h0.5h0.5l1.5 -1.5t1.5 -0.5h0.5h1.5q3 0 7 1.5t11 8.5l137 118q5 4 8 7t7 5q1 1 2 1.5t2 0.5q2 1 4.5 1t4.5 -1t3.5 -3t1.5 -4q0 -1 -0.5 -3t-1.5 -3t-1.5 -2.5
t-1.5 -2.5l-1.5 -1.5l-1.5 -1.5l-176 -184q-3 -2 -6.5 -5.5l-6.5 -6.5q-56 -62 -96 -113t-56 -51q-6 0 -9 11t-4 25q-1 9 -1 17.5v13.5v2.5v2.5q2 11 11.5 24.5t25.5 42.5l94 170q6 11 4.5 18.5t-10.5 -0.5q-6 -5 -21 -16.5t-33 -24.5q-4 -3 -7.5 -5.5t-7.5 -4.5
q-20 -14 -38.5 -24.5t-27.5 -10.5q-4 0 -8.5 3.5t-8.5 8.5q-7 9 -13.5 21.5t-12.5 26.5q-7 16 -11 31.5t-4 22.5q0 35 10.5 64.5t29.5 57.5l8 12t9 12q5 7 19 22.5t32 32.5q6 6 12 11.5t12 10.5q19 16 36 27t28 11t21 -7t15 -15q2 -3 3 -6t1 -6q0 -10 -13.5 -31.5
t-33.5 -45.5q-12 -14 -25 -27t-26 -24q-12 -10 -23.5 -17.5t-22.5 -11.5v0z" />
    <glyph glyph-name="glyph93" unicode="z" horiz-adv-x="361" 
d="M248 249q-15 -8 -36.5 -15t-43.5 -12q-24 -5 -46.5 -8t-37.5 -3q-22 0 -31.5 9t-11.5 19q-2 6 -2 11v9q0 8 7.5 20.5t18.5 26.5q9 10 18.5 19.5t19.5 17.5q12 8 22.5 13.5t19.5 5.5q8 0 10 -3.5t2 -11.5v-2v-1q-1 -1 -1 -2v-2v-4t1 -4q2 -4 8 -7.5t19 -3.5q37 0 54 2
t25 5q3 1 5.5 2t4.5 1q5 2 10 3t14 1q3 0 6 -3t5 -7q1 -1 1.5 -2.5t0.5 -2.5l13 -45q2 -6 2 -10v-7v-2.5v-2.5q0 -3 -27 -36t-161 -128q1 1 4 1.5t7 1.5q6 2 15 3t19 1q8 0 14.5 -3.5t11.5 -8.5q3 -2 5.5 -5t4.5 -6v0v0q6 -8 13.5 -14t23.5 -6q15 0 32.5 12.5t43.5 38.5
q7 7 12 11t9 4t6.5 -2.5t2.5 -8.5q0 -4 -9.5 -16.5t-41.5 -49.5q-38 -42 -59 -60.5t-36 -18.5q-8 0 -17 1.5t-19 4.5q-12 3 -22.5 7.5t-18.5 9.5q-3 2 -5.5 3.5t-5.5 3.5q-10 6 -22 11t-25 5q-11 0 -21 -4.5t-19 -9.5q-3 -2 -6 -3.5t-5 -3.5q-3 -2 -5.5 -3.5t-4.5 -3.5
q-1 -1 -2.5 -2t-3.5 -1q-3 -2 -6 -3.5l-7 -3.5q5 32 29.5 72t100.5 94q31 22 60.5 47t57.5 65v0z" />
    <glyph glyph-name="glyph94" unicode="{" horiz-adv-x="573" 
d="M217 292q10 -14 15.5 -27t8.5 -27q2 -8 2.5 -17t0.5 -18t-0.5 -18.5t-0.5 -19.5q-1 -10 -1.5 -20.5t-0.5 -21.5q0 -15 -7.5 -36.5t-15.5 -45.5q-2 -4 -3.5 -8t-2.5 -7q-7 -21 -12.5 -40.5t-5.5 -35.5q0 -18 4.5 -32t10.5 -23q2 -6 5 -10t5 -7q1 -2 4 -6.5t6 -9.5
q0 -1 1 -2.5t1 -3.5q3 -6 5.5 -11.5t2.5 -8.5q0 -6 -17.5 1t-38.5 19q-6 4 -11.5 7.5t-11.5 6.5q-1 1 -2.5 2t-2.5 2q-6 4 -13.5 10t-15.5 13q-16 15 -29 38.5t-13 60.5q0 13 4.5 44.5t26.5 80.5q2 5 4.5 10.5t5.5 10.5t6 10.5t5 10.5q13 23 24 45t11 41q0 21 -3.5 32
t-7.5 18q-1 1 -2 2.5t-2 3.5q-3 5 -5 10.5t-2 15.5q0 2 2 2.5t6 0.5h2h2h1h2q7 0 15 1.5t16 6.5q13 8 25 29t18 64q17 118 50.5 179.5t70.5 88.5q25 18 48.5 24.5t42.5 7.5q4 1 7.5 1h7.5h3.5h3.5q1 -1 3 -1h3q5 -1 11 -1.5t12 -2.5q17 -3 30.5 -8t13.5 -10v-1.5t-1 -0.5
q-4 -6 -27.5 -15t-50.5 -31q-11 -8 -21 -19t-19 -25q-14 -21 -23 -43t-17 -44q-4 -13 -7.5 -26.5t-7.5 -26.5q-17 -60 -44.5 -111.5t-109.5 -77.5v0z" />
    <glyph glyph-name="glyph95" unicode="|" horiz-adv-x="398" 
d="M230 -280h-62v1053h62v-1053v0z" />
    <glyph glyph-name="glyph96" unicode="}" horiz-adv-x="558" 
d="M327 203q-13 20 -21.5 38.5t-12.5 37.5q-2 10 -3 19.5t-1 18.5q0 32 10 66.5t26 73.5q5 11 9 21.5t8 20.5q9 23 15 46t8 51q0 2 0.5 4t0.5 4v4v4v4v4q-1 1 -1 3v4q-2 20 -10 40.5t-17 40.5q-5 11 -7 19t-2 12q0 2 1 2.5t3 0.5q6 0 21 -8t32 -19q4 -3 9 -6.5t10 -7.5
q11 -8 20 -15.5t13 -13.5q8 -10 13.5 -20t9.5 -20q9 -23 11 -44.5t2 -36.5q0 -20 -2.5 -36.5t-6.5 -32.5q-5 -14 -10.5 -28.5t-12.5 -31.5q-13 -30 -20.5 -47t-14.5 -29l-1.5 -3t-1.5 -2q-1 -3 -2.5 -5.5t-3.5 -5.5q-13 -23 -21 -40t-8 -31q0 -13 4 -22t10 -15q2 -3 3.5 -5
t3.5 -3l2.5 -2.5t3.5 -2.5l6 -8t3 -9q0 -4 -5.5 -7.5t-13.5 -6.5q-3 -1 -5.5 -2t-4.5 -2q-6 -3 -12 -5.5t-10 -5.5q-15 -11 -21 -28t-10 -35q-42 -192 -89.5 -228t-115.5 -36q-25 0 -47.5 4t-33.5 10q-4 2 -6.5 3.5t-2.5 3.5t2 4t6 3q12 4 36.5 12.5t51.5 38.5
q15 16 29.5 41.5t26.5 61.5q3 8 5 15.5t5 14.5q17 53 43 94.5t94 60.5v0z" />
    <glyph glyph-name="glyph97" unicode="~" horiz-adv-x="698" 
d="M107 272l-37 28q26 44 71.5 76.5t108.5 32.5q33 0 60.5 -9.5t53.5 -22.5q3 -1 6 -2.5l5 -2.5q11 -5 22 -10.5t23 -9.5q26 -10 41.5 -13t24.5 -3q28 0 52.5 21t38.5 47l37 -28q-4 -8 -9 -16t-11 -16q-22 -30 -55.5 -55t-78.5 -25q-33 0 -60 8.5t-48 17.5q-4 2 -7.5 3.5
t-6.5 3.5q-34 16 -65.5 29t-58.5 13q-12 0 -25.5 -3.5t-27.5 -11.5q-15 -9 -28.5 -21.5t-25.5 -30.5v0z" />
    <glyph glyph-name="uni007F" 
 />
    <glyph glyph-name="F" horiz-adv-x="751" 
d="M656 598q-26 -24 -46 -47t-36 -46q-12 -16 -23 -32.5t-21 -33.5q-19 -31 -40 -65t-49 -74q11 6 31.5 17.5t45.5 24.5q12 5 23.5 10.5t22.5 10.5q26 11 50.5 18.5t43.5 7.5q28 0 39 -9.5t14 -21.5q0 -3 0.5 -6t0.5 -6q0 -25 -11.5 -60.5t-28.5 -72.5q-7 -16 -15.5 -32.5
t-16.5 -32.5q-16 -30 -31.5 -55t-25.5 -39q-6 -9 -13.5 -18t-16.5 -18q-17 -18 -36.5 -35.5t-39.5 -31.5t-39.5 -22.5t-36.5 -8.5q-14 0 -27 6.5t-21 13.5q-4 4 -6.5 8t-2.5 7q0 4 4 5.5t9 2.5q4 1 7 1.5t5 0.5q7 1 13.5 3t13.5 4q24 11 47.5 29.5t41.5 39.5q3 4 5.5 7.5
t5.5 6.5q8 11 18 25.5t21 31.5q7 11 14.5 23.5t13.5 24.5q13 24 21 47t8 41t-4 28t-25 10q-31 0 -71.5 -11.5t-90.5 -41.5q-23 -43 -35.5 -63t-21.5 -36q0 -1 -0.5 -1t-0.5 -1q-7 -11 -15 -25t-20 -37q-10 -18 -17 -32t-13 -23q-6 -8 -11.5 -11.5t-13.5 -3.5q-6 0 -12 1.5
t-12 5.5q-18 12 -35 37.5t-27 54.5q-4 11 -6 22.5t-2 22.5q0 10 3.5 28t9.5 38q6 19 14 37.5t18 28.5q4 4 15 11t25 14l8 4l8 4q19 9 35 16t21 7q2 0 3.5 -1t1.5 -3v-2t-1 -2q-2 -3 -7.5 -8.5t-17.5 -26.5q-1 -1 -1.5 -2l-1.5 -3v0v0q-1 -2 -2 -4.5t-3 -5.5q-1 -1 -2 -3
l-2 -4q0 -1 -0.5 -1.5t-0.5 -1.5q-1 -1 -1.5 -2.5t-1.5 -2.5q-1 -3 -4 -8.5t-6 -13.5q-3 -10 -6.5 -24t-3.5 -30t4.5 -34.5t17.5 -38.5q34 60 64.5 115.5t59.5 106.5q26 46 52.5 89.5t55.5 86.5q14 22 29.5 44.5t32.5 44.5q-9 0 -18 -0.5t-18 -0.5q-62 -4 -120.5 -15
t-98.5 -23q-28 -8 -44.5 -16t-16.5 -14q0 -2 1.5 -3.5l3.5 -3.5q3 -3 9 -5.5t12 -5.5q8 -2 14.5 -4t9.5 -3q-3 -1 -5.5 -1.5t-5.5 -0.5q-7 -2 -14 -3l-14 -2q-10 -2 -20 -3t-19 -1h-9.5h-9.5h-5h-5q-7 -1 -14 -1h-14q-28 0 -49 5t-20 21q0 2 1 5l2 6l27 66q16 40 94.5 65.5
t169.5 39.5q70 11 134 16t100 5q20 0 37.5 0.5t33.5 1.5q17 1 31.5 1.5t27.5 0.5q46 0 70 -16.5t24 -72.5q0 -28 -5.5 -35.5t-12.5 -7.5h-1.5h-1.5h-1v0q-28 1 -50.5 2t-44.5 2h-11.5h-11.5q-14 1 -29 1.5t-32 0.5v0z" />
    <glyph glyph-name="uni0081" horiz-adv-x="658" 
d="M259 528l50 -25q-3 -1 -5.5 -1.5t-5.5 -0.5q-7 -2 -14 -3l-14 -2q-10 -2 -20 -3t-19 -1h-9.5h-9.5h-5h-5q-7 -1 -14 -1h-14q-28 0 -49 5t-20 21q0 2 1 5l2 6l27 66q15 38 91 63t163 40q72 12 137 17.5t97 5.5h15.5h14.5q8 -1 15.5 -1h14.5q17 0 35.5 0.5t37.5 0.5
q30 1 59.5 2t54.5 2q10 1 19 1.5t17 0.5q-12 -97 -53.5 -116t-88.5 -19q-7 0 -22.5 0.5t-33.5 1.5h-6h-6q-14 1 -25.5 1.5t-17.5 0.5q-34 -32 -85 -100t-150 -235q-32 -54 -53 -90.5t-39 -69.5q-2 -4 -4 -7.5t-4 -6.5q-4 -9 -9 -18t-10 -19q-19 -36 -30 -51t-21 -20
q-5 -3 -10.5 -3.5t-12.5 -1.5h-7t-9 -1h-2.5h-3.5q-24 0 -36 23t-17 51q-3 18 -3.5 35.5t-0.5 27.5q0 11 2 23t5 24q3 15 8 29t10 27q6 15 11.5 26.5t8.5 18.5q1 1 1.5 2t0.5 2q8 13 16 20.5t20 13.5q11 6 25.5 12t35.5 15q1 0 4.5 1.5t7.5 3.5q1 0 1.5 0.5t1.5 0.5
q6 3 10.5 4t4.5 -1q0 -3 -7 -14.5t-23 -37.5q-21 -35 -26.5 -56t-5.5 -37q0 -24 7 -42.5t16 -33.5q34 60 64.5 115.5t59.5 106.5q26 46 52.5 89.5t55.5 86.5q14 22 29.5 44.5t32.5 44.5q-29 -1 -67.5 -4.5t-78.5 -9.5q-50 -9 -95.5 -22.5t-74.5 -32.5v0z" />
    <glyph glyph-name="D" horiz-adv-x="835" 
d="M515 452l380 184q3 -8 4 -15.5t1 -14.5q0 -36 -26.5 -61.5t-58.5 -45.5q-6 -4 -12.5 -7.5t-12.5 -7.5q-5 -3 -10.5 -6t-10.5 -6q-7 -4 -14.5 -8t-16.5 -8q-5 -2 -10.5 -4.5t-11.5 -4.5l-2 6t-3 6q-4 7 -9 12.5t-11 5.5q-4 0 -10 -1t-13 -3q-3 -1 -6.5 -2t-6.5 -2
q-3 -2 -6 -3t-5 -2l-181 -87l-41 -55l284 -188q41 -27 56 -64t15 -79q0 -3 -0.5 -10t-2.5 -14q-1 -11 -4 -19.5t-6 -6.5l-422 282l-85 -105q-1 -2 -1.5 -3.5t-0.5 -2.5t0.5 -1.5t0.5 -1.5l0.5 -0.5l0.5 -0.5q0 -1 0.5 -2t1.5 -4q-4 -5 -17 -19.5t-28 -30.5l-6.5 -6.5
l-6.5 -6.5q-16 -16 -30.5 -27.5t-22.5 -11.5q-5 0 -8 2.5t-5 6.5q0 1 -0.5 2.5t-0.5 2.5q0 17 27 59t143 178q-1 2 -2.5 4.5t-2.5 4.5q-3 7 -4 13.5t-1 12.5v5.5t1 4.5v4.5v3.5q0 10 5.5 19t12.5 17l7 7l6 6l94 46l109 146q10 13 14 20t4 12q0 1 -0.5 2l-1.5 3q-2 3 -6 5.5
t-9 2.5q-16 0 -69.5 -20.5t-114.5 -46.5q-6 -2 -11.5 -4.5t-11.5 -4.5q-58 -25 -105 -47t-59 -28q-3 -1 -7.5 -3t-10.5 -4q-1 0 -2.5 -0.5t-3.5 -1.5l-14 -4t-10 -2q-12 0 -15.5 6.5t-3.5 13.5v1.5v1.5v4.5v4.5q0 10 1.5 20.5t4.5 21.5q5 19 13.5 38t18.5 35l109 65
q0 -1 -0.5 -4t-0.5 -5q-1 -3 -1 -5.5v-4.5q0 -3 3.5 -5t8.5 -2q2 0 4 0.5t4 1.5q104 47 177 62.5t104 15.5q23 0 39 -14.5t26 -32.5q6 -12 9 -22.5t3 -17.5q0 -12 -2 -19t-7 -13l-91 -119v0z" />
    <glyph glyph-name="N" horiz-adv-x="751" 
d="M259 528l50 -25q-3 -1 -5.5 -1.5t-5.5 -0.5q-7 -2 -14 -3l-14 -2q-10 -2 -20 -3t-19 -1h-9.5h-9.5h-5h-5q-7 -1 -14 -1h-14q-28 0 -49 5t-20 21q0 2 1 5l2 6l27 66q16 40 94.5 65.5t169.5 39.5q70 11 134 16t100 5q20 0 37.5 0.5t33.5 1.5q17 1 31.5 1.5t27.5 0.5
q46 0 70 -16.5t24 -72.5q0 -28 -5.5 -35.5t-12.5 -7.5h-1.5h-1.5h-1v0q-28 1 -50.5 2t-44.5 2h-11.5h-11.5q-14 1 -29 1.5t-32 0.5q-26 -24 -46 -47t-36 -46q-12 -16 -23 -32.5t-21 -33.5q-19 -31 -40 -65t-49 -74q13 7 31.5 16t39.5 19q10 4 21 9t23 9q37 16 71 26.5
t53 10.5q20 0 26 -13.5t6 -31.5q0 -14 -6 -27t-14 -24l-8 -12t-9 -11q-6 -9 -13.5 -18t-16.5 -18q-30 -34 -48 -60.5t-20 -50.5v-3.5v-3.5q0 -17 10 -25.5t29 -8.5q9 0 18.5 3t19.5 8q9 4 17.5 9t15.5 11q9 5 16 11t12 10q8 8 16.5 13.5t16.5 5.5q5 0 7.5 -3t2.5 -11
q0 -14 -18 -33.5t-45 -40.5q-16 -12 -33 -23.5t-35 -22.5q-36 -20 -69 -34.5t-50 -14.5q-25 0 -39 10t-14 35q0 30 13 58.5t28 51.5q7 9 13.5 18t11.5 16q14 19 26 36t21 30q3 4 6 8.5t4 8.5q2 4 3 8.5t1 8.5q0 11 -8 18.5t-25 7.5q-20 0 -57 -10t-91 -43l-122 -215
q0 -1 -0.5 -1.5l-0.5 -0.5q-4 -7 -9.5 -11.5t-15.5 -4.5q-9 0 -14 1.5t-9 5.5q-1 0 -1.5 0.5l-1.5 1.5q-3 3 -12.5 13t-20.5 26q-13 18 -24 43t-11 53q0 11 2.5 25.5t7.5 29.5q4 16 10 31t12 26q13 24 28.5 34t31.5 16q2 0 4 1t4 1l16 6t15 8q10 7 15 9.5t8 2.5q2 0 4 -0.5
t3 -2.5q1 -3 1 -5t-2 -4q-2 -4 -7.5 -8.5t-10.5 -14.5q-1 -1 -2 -2.5t-2 -3.5l-1.5 -3t-0.5 -2q-2 -3 -4 -7.5t-10 -18.5q-2 -3 -4.5 -7.5t-4.5 -9.5q-5 -12 -9.5 -27t-4.5 -33q0 -17 5 -36t18 -39q34 60 64.5 115.5t59.5 106.5q26 46 52.5 89.5t55.5 86.5q14 22 29.5 44.5
t32.5 44.5q-29 -1 -67.5 -4.5t-78.5 -9.5q-50 -9 -95.5 -22.5t-74.5 -32.5v0z" />
    <glyph glyph-name="bullet" horiz-adv-x="863" 
d="M458 28l-52 -163l-0.5 -1.5t-1.5 -3.5q-2 -7 -4 -14.5t-5 -14.5q-9 -29 -28.5 -52.5t-63.5 -23.5q-21 0 -31 11.5t-11 24.5v1.5v1.5q0 18 9 34.5t20 30.5l6 8l6 8l115 153h41v0zM283 435q-8 -2 -19.5 -4.5t-24.5 -4.5q-4 -1 -9 -2t-9 -2q-18 -3 -35 -5.5t-27 -2.5h-3h-4
q-2 -1 -4.5 -1h-5.5h-8t-8 1q-12 2 -22.5 8t-11.5 21v3v3v2.5v2.5q4 63 46.5 99.5t93.5 59.5q11 5 21.5 10t21.5 9q10 4 22 8.5t26 9.5q31 11 73 19.5t100 8.5q73 0 96.5 -6t23.5 -23q0 -52 -20 -91.5t-51 -76.5q-11 -13 -24 -27l-26 -28q-73 -78 -122.5 -135.5
t-55.5 -110.5q-1 -3 -1 -6v-6v-2.5t1 -2.5v-3v-3q1 -7 3.5 -13t12.5 -6q2 0 4.5 0.5t4.5 0.5q16 5 41 28t92 77q45 36 131.5 110t180.5 168q10 9 19.5 18.5t18.5 19.5q35 35 48 46.5t20 11.5q1 0 2.5 -0.5t2.5 -0.5q7 -3 13 -12t10 -20q3 -7 4.5 -13t1.5 -11v-3t-1 -3
q-3 -12 -20 -30t-54 -66q-17 -22 -43 -58t-53 -77q-10 -15 -20 -30.5t-20 -31.5q-33 -54 -56 -104t-23 -82q0 -18 6 -25.5t13 -9.5q2 -1 3.5 -1h3.5q13 0 30 7t35 17q5 3 11 6t11 7q4 2 8.5 4.5t8.5 5.5q30 19 39 27.5t14 10.5q1 0 2.5 0.5t3.5 0.5q8 0 13 -3t5 -10
q0 -5 -12.5 -16.5t-28.5 -24.5q-2 -2 -4 -3.5t-4 -3.5q-13 -9 -24.5 -18t-18.5 -14q-49 -35 -76.5 -52.5t-50.5 -20.5h-1.5h-1.5h-2.5h-2.5h-3h-3q-34 4 -54 40.5t-20 82.5q0 43 43.5 111t128.5 201q-47 -43 -82 -76t-66 -64l-4 -4l-4 -4l-23 -23l-25 -25q-15 -16 -39 -40.5
t-52 -50.5l-24 -22t-25 -21q-33 -28 -65 -47t-55 -19q-20 0 -38 17t-29 38q-7 12 -10.5 23.5t-3.5 19.5q0 22 14.5 52t35.5 61q12 18 25.5 35t27.5 33q12 13 23 25t22 22q16 16 35.5 33.5t39.5 35.5q3 3 6 5.5t6 5.5q45 41 80.5 78.5t35.5 58.5q0 9 -11.5 13t-25.5 5h-8h-7
q-10 0 -20.5 -0.5t-21.5 -2.5q-48 -6 -93 -22t-74 -34q-18 -11 -28.5 -21.5t-10.5 -18.5q0 -3 2.5 -4.5t6.5 -3.5t10 -3.5t13 -4.5q2 -1 4 -1.5t4 -1.5q6 -2 12 -3.5t16 -3.5v0z" />
    <glyph glyph-name="guilsinglleft" horiz-adv-x="407" 
d="M330 486q-18 -24 -50.5 -65t-69.5 -85q-5 -5 -9.5 -10t-8.5 -11q-38 -43 -72.5 -81.5t-56.5 -57.5q-1 -7 -1.5 -12.5t-0.5 -10.5q0 -15 3 -23.5t7 -12.5q3 -3 5.5 -4t3.5 -1q2 0 3.5 0.5t2.5 0.5q14 6 39 41t105 102q7 6 18 14t24 17q4 3 9 6l10 6q18 12 35.5 20.5
t26.5 8.5t16 -9.5t10 -20.5q2 -5 2.5 -9t0.5 -8q0 -15 -17 -51t-40 -76q-3 -5 -6 -10.5t-6 -11.5q-17 -29 -32.5 -55t-25.5 -41q-12 -18 -31 -46t-42 -58q-39 -48 -86.5 -88.5t-95.5 -40.5q-23 0 -36.5 3t-23.5 12l9 28q8 -1 15.5 -2.5t15.5 -1.5q31 0 68.5 25t88.5 90
q10 13 23.5 32.5t28.5 43.5q7 12 14.5 24.5t13.5 25.5q18 32 29.5 62t11.5 51v2v2q0 4 -1 8t-4 4q-9 0 -32 -20t-48 -45q-4 -3 -7 -6t-5 -6q-23 -23 -42 -43.5t-27 -29.5q-21 -23 -35.5 -39.5t-28.5 -20.5q-2 0 -4 -0.5t-4 -0.5q-8 0 -12 6.5t-6 13.5q-1 6 -1.5 11t-0.5 8
v73q0 53 43.5 131.5t165.5 241.5h-55h-3h-3q-2 0 -3.5 0.5t-3.5 0.5q-4 1 -4.5 3.5t-0.5 4.5l1.5 3t0.5 2l1.5 3l0.5 1l23 35q3 5 7.5 6.5t11.5 1.5h2h2h2h2h71q14 16 24.5 27.5t20.5 21.5q0 1 1 1.5t2 1.5q6 6 12.5 13t14.5 15q30 30 43.5 40t22.5 11q2 1 3 1h2
q10 -3 18 -9t10 -13q0 -1 0.5 -2.5t0.5 -2.5t-0.5 -2.5t-0.5 -2.5q-2 -7 -10.5 -21.5t-19.5 -31.5q-1 -1 -2 -2.5t-2 -3.5q-7 -12 -14.5 -23t-12.5 -18h100h2.5h3.5q3 -1 5.5 -2t2.5 -3q0 -3 -1 -5.5t-2 -4.5l-1.5 -1.5t-0.5 -1.5l-23 -36v-0.5t-1 -0.5q-2 -3 -5.5 -4.5
t-15.5 -1.5h-108v0z" />
    <glyph glyph-name="O" horiz-adv-x="439" 
d="M112 104l-80 -98l-1 -1l-2 -2l-0.5 -0.5l-0.5 -0.5q-1 -1 -2 -1.5t-2 -0.5q-2 0 -4.5 2.5t-5.5 7.5q-5 11 -9.5 33.5t-4.5 60.5v9.5v9.5q0 4 0.5 9t1.5 9q3 21 13.5 48t26.5 56q9 17 19 34t20 32q23 34 43.5 56.5t30.5 22.5q8 0 14.5 -16t9.5 -35q0 -5 0.5 -9.5t0.5 -9.5
q0 -7 -1 -11.5t-3 -9.5q-3 -6 -8.5 -12.5t-16.5 -16.5q-7 -6 -14.5 -14t-14.5 -17q-14 -16 -26.5 -34t-19.5 -36q-5 -11 -7.5 -21t-2.5 -20q0 -4 0.5 -7.5t1.5 -6.5q22 28 45.5 54t47.5 49q69 68 131 107.5t88 39.5q3 0 6.5 -1t6.5 -3q8 -5 14.5 -16.5t6.5 -30.5
q0 -12 -1 -25.5t-4 -27.5q-4 -21 -13 -40t-27 -33h-1.5h-1.5q-5 0 -10 0.5t-10 2.5q-15 3 -27 11t-12 17q0 3 2 5.5t5 4.5l1.5 1.5l1.5 1.5q5 2 9 6.5t6 12.5q1 2 1 3.5v3.5v0.5v1.5q-1 1 -1 1.5v0.5q-1 4 -6 6.5t-10 2.5q-13 0 -30.5 -10t-35.5 -25q-9 -7 -17 -14l-16 -14
q-14 -14 -25.5 -26.5t-19.5 -21.5q26 -9 42.5 -25t30.5 -34q7 -9 13.5 -17.5t13.5 -14.5q7 -7 13.5 -10.5t13.5 -3.5q8 0 22 6.5t29 16.5q4 2 7.5 4.5t7.5 4.5q11 7 21 14t16 12q14 11 19.5 15t9.5 4q2 0 4 -2t3 -5q1 -1 1 -1.5v-1.5q0 -6 -10 -19.5t-24 -28.5
q-3 -3 -5 -5.5t-5 -5.5l-22.5 -22.5t-16.5 -15.5q-5 -3 -14 -9.5t-21 -14.5q-10 -4 -20 -9t-20 -9q-9 -3 -17.5 -5t-16.5 -2q-30 0 -48.5 16.5t-30.5 36.5q-4 6 -7 12.5t-6 12.5q-5 9 -8.5 16.5t-7.5 12.5q-5 8 -11.5 13t-15.5 9v0z" />
    <glyph glyph-name="tilde" horiz-adv-x="407" 
d="M374 547h84h2.5h3.5q3 -1 5.5 -2t2.5 -3q0 -3 -1 -5.5t-2 -4.5l-1.5 -1.5t-0.5 -1.5l-22 -36q-3 -4 -8.5 -5.5t-14.5 -1.5h-94q-85 -112 -135 -167.5t-92 -99.5q-1 -2 -2.5 -3.5l-3.5 -3.5q-8 -9 -16.5 -18t-16.5 -18v-9v-10v-1.5v-1.5q0 -16 3.5 -29t14.5 -13q3 0 5 0.5
t4 2.5q14 8 38.5 42.5t102.5 98.5q7 6 18 14t24 17q5 3 9.5 6t9.5 6q18 12 35 20.5t27 8.5q2 0 4.5 -1.5t5.5 -3.5q4 -4 8 -9.5t8 -12.5q2 -5 4 -10.5t2 -9.5q0 -6 -7 -13.5t-20 -21.5q-6 -7 -16.5 -18.5t-21.5 -24.5q-9 -11 -17 -22t-14 -23q-7 -12 -11 -23.5t-4 -22.5
q0 -24 9 -32.5t20 -8.5q7 0 14.5 2.5t15.5 6.5q6 3 12.5 7t12.5 8q9 7 16.5 13t10.5 9q8 8 14 12t10 4h1.5t1.5 -1q3 -1 5 -3t2 -4q0 -11 -29 -37t-63 -55q-2 -1 -3.5 -2.5l-2.5 -2.5q-37 -31 -59 -40t-33 -9q-4 0 -8 1t-9 3q-11 6 -20.5 20.5t-9.5 42.5q0 12 4.5 23t9.5 21
l2 4l2 4q9 18 22 38t30 45q9 13 11 18.5t2 7.5v0v1v0v0q0 2 -2.5 3t-5.5 1h-2h-2q-10 0 -30 -17t-43 -39l-7.5 -7.5l-7.5 -7.5q-15 -16 -29 -31t-23 -25q-36 -41 -53 -61.5t-30 -21.5h-1.5h-0.5q-13 0 -20.5 7.5t-7.5 30.5v72q0 33 4.5 49.5t12.5 29.5q1 3 2.5 6t3.5 6
q11 20 21 37.5t20 33.5q3 6 6 11t7 10q23 39 53 82t82 109h-74h-4h-6t-5 0.5t-2 2.5v3t1 4q0 2 0.5 4.5t1.5 3.5l23 35q0 1 0.5 1.5l0.5 0.5q4 5 8.5 5.5t13.5 0.5h2h2h87q14 16 24.5 27.5t20.5 21.5q0 1 1 1.5t2 1.5q6 6 12.5 13t14.5 15q30 30 43.5 40t22.5 11q2 1 3 1h2
q10 -3 18 -9t10 -13q0 -1 0.5 -2.5t0.5 -2.5t-0.5 -2.5t-0.5 -2.5q-2 -7 -10.5 -21.5t-19.5 -31.5q-1 -1 -2 -2.5t-2 -3.5q-7 -12 -14.5 -23t-12.5 -18v0z" />
    <glyph glyph-name="uni00A0" unicode="&#xa0;" 
 />
    <glyph glyph-name="Z" unicode="&#xa1;" horiz-adv-x="743" 
d="M94 382q-1 10 -1.5 19t-0.5 17q0 33 7 56t16 38q7 13 14 19.5t8 7.5q14 11 52.5 34t89.5 48q23 11 47.5 22.5t48.5 21.5q49 20 95 33t81 13q23 0 32.5 -9.5t9.5 -32.5q0 -5 -0.5 -10t-1.5 -10q-3 -19 -13 -39.5t-25 -45.5q-87 -146 -143.5 -213t-80.5 -118l-4 -10l-4 -10
q-1 -2 -1.5 -4.5t-1.5 -4.5q0 -3 -0.5 -5.5t-0.5 -4.5q0 -3 1 -6t3 -5q3 -3 8.5 -3.5t11.5 -0.5q13 0 71.5 36t221.5 206q4 4 7.5 8t6.5 7q1 2 2.5 3t2.5 2q19 21 43 45t67 66q4 -1 8 -3t8 -5q8 -6 15 -14.5t11 -17.5q1 -3 2 -6.5t1 -6.5v-2.5t-1 -2.5q0 -3 -1.5 -5.5
t-4.5 -4.5q-48 -66 -85.5 -121t-68.5 -107q-25 -42 -47.5 -85t-44.5 -93q-12 -28 -24 -57.5t-25 -63.5q9 8 19.5 16.5t21.5 17.5q14 9 29 19.5t30 19.5q24 14 46.5 24.5t40.5 13.5q2 0 4 0.5t4 0.5h1.5h0.5q4 1 8 1.5t7 0.5t5 -0.5t2 -2.5q0 -8 -26.5 -28t-112.5 -95
q-125 -110 -160.5 -167.5t-52.5 -57.5q-6 0 -12.5 2.5t-13.5 8.5t-13.5 15t-12.5 21q8 49 39.5 122.5t122.5 223.5q66 110 78.5 138t12.5 30q0 4 -38 -32t-122 -119q-10 -10 -29 -26.5t-41 -34.5q-7 -5 -14 -10.5t-14 -10.5q-28 -21 -53.5 -35.5t-40.5 -14.5q-3 0 -10.5 5
t-14.5 12q-3 2 -5 4.5t-4 4.5q-8 8 -13.5 15t-5.5 10q0 26 26 77t62 107l14 22t15 22q26 39 50.5 73.5t41.5 56.5q7 9 16.5 22.5t19.5 28.5q3 6 6.5 11.5t7.5 11.5q15 24 25.5 46t10.5 34q0 4 -2.5 5.5t-7.5 1.5q-19 0 -70 -24.5t-107 -55.5q-7 -3 -13.5 -7t-12.5 -7
q-55 -31 -99.5 -57.5t-57.5 -34.5v0zM674 737q-4 -9 -6 -18t-2 -17q0 -25 16 -43t42 -18q23 0 52.5 8.5t60.5 22.5q26 12 51 26t47 29q27 19 44.5 37t17.5 30v0.5v1.5q-1 1 -2.5 2t-3.5 1q-3 0 -7 -1.5t-11 -6.5q-6 -4 -17 -11t-26 -15q-21 -11 -48 -20t-55 -9q-20 0 -31 5
t-17 11q-4 4 -5.5 8t-2.5 6q-1 3 -1.5 6t-0.5 6q0 4 0.5 8t1.5 8q0 2 0.5 4t1.5 4t1.5 4t0.5 4v0.5t1 1.5v1.5v0.5q0 27 -24 6t-78 -83v0z" />
    <glyph glyph-name="cent" unicode="&#xa2;" horiz-adv-x="431" 
d="M92 184q-9 -15 -13.5 -24.5t-6.5 -17.5q-1 -4 -1.5 -7.5t-0.5 -8.5q0 -10 4 -16.5t8 -8.5q1 -1 2 -1h2q3 0 14.5 6.5t24.5 15.5l1 1t2 1q12 8 22 15t13 9q71 53 122 103t97 96q5 5 8.5 7t6.5 2q8 0 13 -8.5t7 -18.5q0 -3 0.5 -5.5t0.5 -5.5q0 -11 -3.5 -20.5t-7.5 -17.5
q-2 -4 -4 -7.5t-4 -6.5l-145 -230q-9 -14 -12.5 -19.5t-4.5 -9.5q0 -1 -0.5 -2l-0.5 -1q0 -1 0.5 -2t0.5 -2h0.5h0.5l1.5 -1.5t1.5 -0.5h0.5h1.5q3 0 7 1.5t11 8.5l137 118q5 4 8 7t7 5q1 1 2 1.5t2 0.5q2 1 4.5 1t4.5 -1t3.5 -3t1.5 -4q0 -1 -0.5 -3t-1.5 -3t-1.5 -2.5
t-1.5 -2.5l-1.5 -1.5l-1.5 -1.5l-176 -184q-3 -2 -6.5 -5.5l-6.5 -6.5q-56 -62 -96 -113t-56 -51q-6 0 -9 11t-4 25q-1 9 -1 17.5v13.5v2.5v2.5q2 11 11.5 24.5t25.5 42.5l94 170q6 11 4.5 18.5t-10.5 -0.5q-6 -5 -21 -16.5t-33 -24.5q-4 -3 -7.5 -5.5t-7.5 -4.5
q-20 -14 -38.5 -24.5t-27.5 -10.5q-4 0 -8.5 3.5t-8.5 8.5q-7 9 -13.5 21.5t-12.5 26.5q-7 16 -11 31.5t-4 22.5q0 35 10.5 64.5t29.5 57.5l8 12t9 12q5 7 19 22.5t32 32.5q6 6 12 11.5t12 10.5q19 16 36 27t28 11t21 -7t15 -15q2 -3 3 -6t1 -6q0 -10 -13.5 -31.5
t-33.5 -45.5q-12 -14 -25 -27t-26 -24q-12 -10 -23.5 -17.5t-22.5 -11.5v0zM473 495q2 -1 2.5 -3.5t0.5 -4.5v-2v-2v-2t-1 -1q-2 -5 -8.5 -10t-18.5 -14q-4 -4 -17 -14t-29 -22q-5 -3 -10.5 -7t-10.5 -7q-15 -10 -29.5 -16.5t-24.5 -6.5q-23 0 -34.5 13t-16.5 29
q-3 11 -4 21.5t-1 15.5v2v2v2v2v0.5v1.5v1.5v0.5q0 1 0.5 1.5t0.5 1.5q3 10 14.5 20t24.5 16q9 5 17 7.5t14 2.5q5 0 7.5 -1.5t2.5 -5.5t-1 -8.5t-3 -9.5q-1 -4 -1.5 -8.5t-0.5 -9.5q0 -10 9 -16.5t19 -6.5q27 0 39 6.5t19 15.5q1 1 2.5 3t2.5 3q4 6 10 10.5t17 4.5
q3 0 5.5 -1.5t3.5 -3.5v0z" />
    <glyph glyph-name="endash" unicode="&#xa3;" horiz-adv-x="532" 
d="M305 47q-174 -226 -236 -277.5t-77 -51.5q-2 0 -4.5 0.5t-5.5 0.5q-5 1 -10 4t-5 8q0 39 42.5 124t205.5 188q7 5 13 8.5t12 7.5q8 6 18.5 12.5t27.5 18.5q15 23 45 75t63 115l16.5 33t16.5 34q35 71 60.5 137t25.5 102v1.5v1.5q0 18 -3 26.5t-21 8.5q-23 0 -51 -14
t-56 -38q-41 -34 -79 -83t-63 -101q-15 -32 -23.5 -62.5t-8.5 -58.5v-2v-2v-2.5v-3.5q0 -8 1.5 -15t6.5 -7t13.5 2.5t17.5 7.5q6 3 12 7.5t11 9.5q-7 -11 -19.5 -28.5t-29.5 -35.5q-9 -11 -19.5 -21.5l-20.5 -20.5q-18 -16 -35.5 -26.5t-30.5 -10.5q-3 0 -7 1.5t-8 3.5
q-8 5 -14 15t-6 27q0 62 31.5 160.5t128.5 206.5q5 6 11 12l12 12q26 26 56.5 50.5t61.5 44.5q36 23 71 37t62 14q6 0 12 -1.5t12 -3.5q22 -9 40 -29t18 -44q0 -33 -26.5 -99.5t-62.5 -140.5q-7 -13 -13.5 -27t-13.5 -27q-37 -71 -69 -128t-43 -75q2 1 14.5 7t28.5 12
q1 1 2.5 1.5t2.5 1.5q16 6 29.5 11.5t17.5 5.5q9 0 12.5 -2t3.5 -4q0 -7 -23.5 -19t-63.5 -38q-4 -3 -8 -5t-8 -5q-2 -1 -4 -2.5t-3 -2.5q-14 -8 -28.5 -18t-35.5 -24v0z" />
    <glyph glyph-name="currency" unicode="&#xa4;" horiz-adv-x="894" 
d="M764 722l60 -60l-102 -101q7 -8 12.5 -17t10.5 -17q22 -40 29 -78t7 -64t-7 -64t-29 -78q-5 -8 -10.5 -17t-12.5 -17l102 -101l-60 -60l-101 102q-8 -7 -17 -12.5t-17 -10.5q-40 -22 -78 -29t-64 -7t-64 7t-78 29q-8 5 -17 10.5t-17 12.5l-101 -102l-60 60l102 101
q-7 8 -12.5 17t-10.5 17q-22 40 -29 78t-7 64t7 64t29 78q5 8 10.5 17t12.5 17l-102 101l60 60l101 -102q8 7 17 12.5t17 10.5q40 22 78 29t64 7t64 -7t78 -29q8 -5 17 -10.5t17 -12.5l101 102v0zM264 385q0 -93 66.5 -158.5t157.5 -65.5t157.5 65.5t66.5 158.5
q0 92 -64.5 158t-159.5 66q-94 0 -159 -66t-65 -158v0z" />
    <glyph glyph-name="emdash" unicode="&#xa5;" horiz-adv-x="707" 
d="M259 528l50 -25q-3 -1 -5.5 -1.5t-5.5 -0.5q-7 -2 -14 -3l-14 -2q-10 -2 -20 -3t-19 -1h-9.5h-9.5h-5h-5q-7 -1 -14 -1h-14q-28 0 -49 5t-20 21q0 2 1 5l2 6l27 66q15 38 91 63t163 40q72 12 137 17.5t97 5.5q21 0 32 -0.5t19 -0.5q9 0 19.5 -0.5t30.5 -0.5q64 0 119 11
t69 66q1 3 2 8.5t3 11.5q2 9 6 16t11 7q2 0 4.5 -0.5t4.5 -2.5q5 -3 8.5 -10t3.5 -21q0 -11 -2 -42t-12 -66q-13 -42 -42.5 -77t-88.5 -35q-8 0 -14 0.5t-11 0.5q-13 1 -30 3.5t-57 4.5q-10 0 -21 0.5t-24 1.5q-34 -32 -85 -100t-150 -235q-32 -54 -53 -90.5t-39 -69.5
q-2 -4 -4 -7.5t-4 -6.5q-4 -9 -9 -18t-10 -19q-19 -36 -30 -51t-21 -20q-5 -3 -10.5 -3.5t-12.5 -1.5h-7t-9 -1h-2.5h-3.5q-24 0 -36 23t-17 51q-3 18 -3.5 35.5t-0.5 27.5q0 11 2 23t5 24q3 15 8 29t10 27q6 15 11.5 26.5t8.5 18.5q1 1 1.5 2t0.5 2q8 13 16 20.5t20 13.5
q11 6 25.5 12t35.5 15q1 0 4.5 1.5t7.5 3.5q1 0 1.5 0.5t1.5 0.5q6 3 10.5 4t4.5 -1q0 -3 -7 -14.5t-23 -37.5q-21 -35 -26.5 -56t-5.5 -37q0 -24 7 -42.5t16 -33.5q34 60 64.5 115.5t59.5 106.5q26 46 52.5 89.5t55.5 86.5q14 22 29.5 44.5t32.5 44.5q-29 -1 -67.5 -4.5
t-78.5 -9.5q-50 -9 -95.5 -22.5t-74.5 -32.5v0z" />
    <glyph glyph-name="circumflex" unicode="&#xa6;" horiz-adv-x="292" 
d="M56 18q0 9 2.5 18.5t7.5 19.5q7 16 18 30.5t22 25.5q9 8 17.5 12.5t15.5 4.5q2 0 4.5 -0.5t5.5 -1.5q5 -3 10 -11t5 -24q0 -8 -2 -16t-5 -16q-8 -19 -21 -36t-28 -26q-7 -5 -13.5 -7.5t-12.5 -2.5q-10 0 -18 8.5t-8 21.5v0zM129 284q0 9 2.5 18.5t7.5 19.5q7 16 18 31
t22 25q9 8 17 12.5t15 4.5q2 0 5 -0.5t5 -1.5q6 -3 10.5 -11t4.5 -24q0 -5 -0.5 -10t-2.5 -10q-5 -21 -19 -40.5t-29 -31.5q-9 -6 -16.5 -9.5t-14.5 -3.5q-2 0 -4.5 0.5t-5.5 1.5q-5 3 -10 9.5t-5 19.5v0z" />
    <glyph glyph-name="scaron" unicode="&#xa7;" horiz-adv-x="669" 
d="M240 469q-8 10 -15.5 22t-10.5 24q0 3 -0.5 6t-0.5 6q0 8 4 28.5t22 44.5q22 28 72 52t146 24q10 0 21 -0.5t23 -0.5q31 -3 57.5 -12.5t26.5 -32.5q0 -5 -1.5 -11t-3.5 -11q-3 -9 -8 -17.5t-10 -16.5q-6 -8 -11.5 -14t-8.5 -9q-7 -7 -18.5 -11.5t-23.5 -7.5
q-11 -2 -21.5 -3t-18.5 -1q3 1 6.5 3.5t6.5 5.5q4 3 8 7t7 8q4 5 6.5 9.5t2.5 8.5v2.5v2.5q-2 9 -14.5 17t-47.5 8q-68 0 -96.5 -11.5t-31.5 -24.5v-1.5v-1.5q0 -5 11 -19t63 -47q101 -63 132.5 -104t31.5 -76q0 -31 -19.5 -54.5t-42.5 -40.5q-12 -8 -24 -15t-21 -11
q7 -6 13.5 -16t10.5 -21q2 -5 3 -10t1 -10q0 -7 -5 -28t-24 -46q-23 -28 -73 -51.5t-142 -23.5h-2h-3q-9 0 -24.5 0.5t-33.5 2.5q-24 3 -44.5 12t-20.5 28q0 7 2.5 15t6.5 16q3 6 6 12.5t7 11.5q4 7 8.5 13t7.5 9q11 12 25 17t40 8q5 1 10 1.5t11 1.5q-3 -2 -7 -5.5t-8 -7.5
q-4 -3 -7 -6t-5 -6q-4 -4 -6.5 -8.5t-2.5 -8.5q0 -13 10.5 -19.5t23.5 -9.5q8 -1 15.5 -1.5t12.5 -0.5q56 0 83.5 7.5t36.5 16.5q5 4 6.5 8t1.5 7q0 17 -36 40t-79 53q-4 3 -7.5 5.5t-7.5 5.5q-6 4 -12 8.5t-13 9.5q-31 23 -57 52.5t-26 71.5q0 30 19 53.5t41 39.5
q13 10 25 17t21 11v0zM408 224q3 3 7 5.5t8 5.5q12 8 22 18t10 22q0 20 -19 38.5t-42 35.5q-4 3 -8.5 6t-8.5 6q-9 7 -17 12.5t-16 11.5q-1 0 -1.5 0.5l-0.5 0.5q-16 11 -32.5 23.5t-38.5 29.5q-4 -2 -10 -6t-12 -10q-6 -5 -12 -10.5t-10 -11.5q-2 -3 -3 -6t-1 -6
q0 -5 1.5 -9.5t3.5 -9.5q7 -13 20 -25.5t27 -23.5l14 -10t13 -9q14 -10 26.5 -18.5t23.5 -17.5q2 -2 4 -3.5t4 -2.5q12 -8 23.5 -17t24.5 -19v0z" />
    <glyph glyph-name="H" unicode="&#xa8;" horiz-adv-x="686" 
d="M430 333v8q-15 2 -25.5 3t-21.5 1q-4 1 -8 1t-8 1q-5 0 -10.5 0.5t-11.5 0.5h-0.5h-1.5q-15 1 -33 2t-37 4q-45 7 -83 34t-38 97q0 13 3.5 26t10.5 26q37 68 154.5 124.5t279.5 56.5q68 0 98.5 -9t51.5 -28v-78q-2 -4 -4 -6.5t-6 -5.5q-7 -6 -23 -13.5t-49 -21.5
q-24 -10 -35.5 -16t-20.5 -12q-1 0 -2 -0.5t-2 -1.5q-8 -5 -18 -11.5t-29 -16.5q5 19 15 32.5t22 23.5q4 4 8 7l8 6q-4 2 -8.5 3.5t-9.5 2.5q-13 4 -26.5 6t-30.5 2q-100 0 -173 -31.5t-100 -69.5q-6 -9 -9.5 -18t-3.5 -18q0 -5 2 -11t10 -13q15 -12 57 -22t135 -10
q9 0 17.5 0.5t17.5 0.5q3 0 6 0.5t6 0.5q6 0 11.5 0.5t11.5 0.5q8 1 15 1h14h11.5t10.5 -1q2 0 6.5 -1t9.5 -2q7 -2 13 -7t6 -15q0 -43 -33.5 -56t-80.5 -20q-12 -2 -25 -3.5t-26 -4.5q-89 -17 -151.5 -46.5t-100.5 -61.5q-33 -27 -48.5 -52.5t-15.5 -43.5q0 -23 50 -32.5
t112 -9.5q71 0 130.5 21.5t117.5 55.5q25 15 51 32t53 35q-9 -105 -79.5 -161.5t-153.5 -81.5q-47 -14 -91.5 -19.5t-78.5 -5.5q-94 0 -157.5 24.5t-63.5 130.5q0 23 17.5 54.5t55.5 65.5q39 34 100.5 66t149.5 55q7 2 13.5 3.5t12.5 3.5q1 0 2.5 0.5t3.5 0.5q12 3 24.5 7
t28.5 10v0zM396 772q-6 -1 -12 -1.5t-12 -0.5q-3 0 -7.5 1t-8.5 3q-8 5 -15 15.5t-7 29.5q0 35 22 60.5t49 33.5q4 1 8.5 1.5t8.5 0.5q3 0 7 -1t9 -3q9 -4 16.5 -14.5t7.5 -31.5q0 -31 -19 -58t-47 -35v0zM632 772q-5 -1 -11 -1.5t-12 -0.5q-3 0 -7 1l-8 2q-9 4 -16.5 15
t-7.5 31q0 37 24 63.5t53 31.5q3 0 6 0.5t6 0.5t7.5 -1t8.5 -3q9 -5 16 -15.5t7 -30.5q0 -31 -19 -58t-47 -35v0z" />
    <glyph glyph-name="I" unicode="&#xa9;" horiz-adv-x="1032" 
d="M150 371v6v6q5 142 110.5 261t281.5 119q164 0 278 -115.5t114 -276.5q0 -164 -116.5 -277.5t-275.5 -113.5q-160 0 -276 113.5t-116 277.5v0zM207 371q0 -139 97 -241t238 -102q137 0 235 100t98 243q0 144 -98 243.5t-235 99.5q-136 0 -235.5 -99.5t-99.5 -243.5v0z
M719 605l7 -149l-28 -1q-1 7 -3.5 15t-5.5 16q-13 30 -40 55t-71 25q-65 0 -95.5 -49.5t-36.5 -109.5q-1 -8 -1.5 -17t-0.5 -17q0 -77 25.5 -115t56.5 -53q20 -9 38 -11.5t30 -2.5q43 0 73 20.5t51 57.5l29 -15q-24 -59 -78 -92t-121 -33q-113 0 -178.5 74.5t-65.5 168.5
q0 111 75.5 173.5t177.5 62.5q9 0 20 -1.5t22 -3.5q14 -3 28 -7t25 -9q5 -2 10.5 -4t11.5 -2q8 0 13 5.5t7 11.5q1 2 1.5 3.5t0.5 3.5h23v0z" />
    <glyph glyph-name="J" unicode="&#xaa;" horiz-adv-x="693" 
d="M254 241q-15 -36 -26 -70t-15 -68q0 -7 -0.5 -13.5t-0.5 -13.5q0 -65 20.5 -93.5t45.5 -38.5q14 -6 27 -7.5t23 -1.5q21 0 43 5t44 14q48 20 94.5 53.5t85.5 70.5q22 20 41 39.5t34 36.5q13 14 20 20.5t13 6.5q5 0 7 -3t3 -6v-0.5v-1.5q0 -11 -41 -61t-104 -109
q-40 -35 -85 -69.5t-91 -59.5q-36 -19 -71 -30.5t-68 -11.5q-12 0 -25 2t-26 6q-47 14 -85.5 57.5t-38.5 123.5q0 36 7 73.5t20 75.5q28 81 75.5 159.5t99.5 140.5q11 14 21.5 26t21.5 23q15 16 33 33.5t37 35.5q31 28 65 54.5t69 47.5q32 19 64.5 31t61.5 12q40 0 67.5 -34
t34.5 -74q1 -7 1.5 -13t0.5 -12q0 -13 -4 -33t-12 -41q-12 -35 -31.5 -64.5t-41.5 -29.5q-5 0 -10.5 1.5t-11.5 4.5q-13 6 -24 17t-11 23q0 5 4.5 14.5t15.5 32.5q16 33 22.5 50.5t9.5 32.5q0 2 0.5 4t1.5 4q0 2 0.5 4t0.5 4q1 3 1.5 7t0.5 8v2.5v2.5q0 11 -4.5 19.5
t-18.5 8.5q-17 0 -41 -13.5t-50 -32.5q-8 -7 -17 -14t-18 -15q-12 -10 -23.5 -20.5t-21.5 -19.5q-15 -14 -32.5 -33t-34.5 -40q-14 -17 -28 -35.5t-27 -36.5q-19 -27 -35.5 -53t-28.5 -49q7 2 22 7t36 10q20 5 44.5 10t51.5 7q5 0 10.5 0.5t11.5 0.5q5 1 10.5 1h10.5
q8 0 16.5 -0.5t16.5 -1.5q6 -1 16.5 -2.5t21.5 -3.5q17 -4 31 -11t14 -16q0 -6 -3 -15t-8 -19t-11.5 -19t-13.5 -15q-3 -4 -7 -6t-8 -2q-6 0 -16 3t-28 7q-18 3 -46 6t-72 3q-40 0 -73.5 -2.5t-60.5 -7.5v0z" />
    <glyph glyph-name="ampersand" unicode="&#xab;" horiz-adv-x="494" 
d="M165 221l-21 -149q-2 -16 -6.5 -22.5t-8.5 -8.5q-2 -1 -4 -1h-4h-0.5h-1.5h-1.5h-0.5q-4 0 -7.5 5t-4.5 10q-1 2 -1.5 3.5t-0.5 2.5l-35 180l183 139q3 2 5.5 3t5.5 2t5.5 1h5.5q6 0 9.5 -3t5.5 -6q0 -2 0.5 -3.5t0.5 -2.5q0 -2 -0.5 -4t-0.5 -5l-2 -6t-3 -5l-118 -130v0
zM343 221l-22 -149q-3 -18 -7.5 -24.5t-9.5 -7.5h-2.5h-2.5h-1.5h-0.5h-1.5h-1.5q-7 0 -9.5 3.5t-2.5 8.5q-1 1 -1 2.5v2.5v2v2l-36 180l184 139q4 3 9 4.5t12 1.5q6 0 9.5 -3t5.5 -6q0 -2 0.5 -3.5t0.5 -2.5t-0.5 -4t-0.5 -6l-2 -6t-2 -4l-118 -130v0z" />
    <glyph glyph-name="quotesingle" unicode="&#xac;" horiz-adv-x="812" 
d="M728 336v-179h-56v122l-602 1v56h658v0z" />
    <glyph glyph-name="daggerdbl" unicode="&#xad;" horiz-adv-x="590" 
d="M398 150h-256q-10 0 -14 4.5t1 13.5l26 42q2 3 5 5t7 2q2 1 4.5 1h4.5h1.5h0.5h256q8 0 12 -3.5t4 -8.5q0 -1 -0.5 -2.5t-1.5 -3.5l-27 -43q-3 -4 -8.5 -5.5t-14.5 -1.5v0z" />
    <glyph glyph-name="dagger" unicode="&#xae;" horiz-adv-x="788" 
d="M200 575q0 124 86.5 209t207.5 85q123 0 208.5 -87t85.5 -207t-85.5 -207t-208.5 -87q-121 0 -207.5 85t-86.5 209v0zM242 575q0 -106 74.5 -179t177.5 -73q106 0 179 75t73 177t-73 177t-179 75q-103 0 -177.5 -73t-74.5 -179v0zM350 749h154h2h2q10 0 24.5 -0.5
t30.5 -4.5q26 -5 47 -23t21 -57q0 -37 -21 -60.5t-52 -26.5l60 -111q2 -3 4.5 -7.5t6.5 -9.5q6 -6 13.5 -11.5t16.5 -7.5v-17h-102l-80 159h-10v-108q0 -16 4.5 -23t10.5 -9q3 -2 6.5 -2h5.5h0.5h0.5h6v-17h-151v17h6h0.5h0.5h5.5t6.5 2q6 2 10.5 9t4.5 23v235
q0 16 -4.5 22.5t-10.5 8.5q-3 2 -6.5 2h-5.5h-0.5h-0.5h-6v17v0zM467 721v-124h4.5h4.5q28 0 42.5 10.5t20.5 23.5q5 10 6 19t1 13t-1 11.5t-4 16.5q-5 12 -15.5 21.5t-31.5 9.5h-13.5t-13.5 -1v0z" />
    <glyph glyph-name="macron" unicode="&#xaf;" horiz-adv-x="363" 
d="M190 412q4 1 10 1.5t13 0.5q10 0 22 -1.5t27 -6.5q-47 -29 -65 -47t-31 -21q-1 -1 -2.5 -1h-2.5q-9 0 -16 2t-13 6q-4 2 -8 5t-9 6q-1 0 -1.5 0.5l-1.5 1.5q-2 1 -4.5 2.5t-4.5 3.5q-10 6 -17.5 15t-7.5 28q0 21 11.5 44.5t29.5 48.5q15 20 33 40t37 38q15 14 29 26.5
t27 22.5q21 17 45 33t48 29q29 15 57 24.5t51 9.5q8 0 17 -1.5t18 -4.5q29 -10 54 -33.5t25 -52.5q0 -14 -2.5 -30t-7.5 -32q-3 -14 -7.5 -27.5t-9.5 -26.5q-8 -22 -15 -38.5t-10 -22.5q-38 -83 -68.5 -135t-58.5 -96q-2 -4 -4.5 -7.5t-5.5 -7.5q-16 -24 -32 -48.5
t-34 -54.5q1 -2 1 -4.5v-4.5q0 -8 -3 -17t-8 -19t-11.5 -20t-12.5 -19q-8 -9 -15.5 -15t-12.5 -6q-4 0 -8.5 1.5t-9.5 4.5q-11 6 -20 18t-9 25t13.5 33.5t42.5 57.5q19 24 46 65.5t57 91.5q10 17 20.5 35.5t20.5 36.5q36 66 62 127.5t26 95.5q0 16 -7 25.5t-26 9.5
q-22 0 -50.5 -15t-58.5 -37q-19 -15 -38.5 -32.5t-36.5 -35.5q-26 -27 -46.5 -52.5t-30.5 -42.5v0zM321 765q-5 -1 -11 -1.5t-12 -0.5q-3 0 -7 1l-8 2q-9 4 -16.5 15t-7.5 31q0 37 24 63.5t53 31.5q3 0 6 0.5t6 0.5t7.5 -1t8.5 -3q9 -5 16 -15.5t7 -30.5q0 -31 -19 -58
t-47 -35v0zM557 765q-5 -1 -11 -1.5t-12 -0.5q-3 0 -7 1l-8 2q-9 4 -16.5 15t-7.5 31q0 37 24 63.5t53 31.5q3 0 6 0.5t6 0.5t7.5 -1t8.5 -3q9 -5 16 -15.5t7 -30.5q0 -31 -19 -58t-47 -35v0z" />
    <glyph glyph-name="degree" unicode="&#xb0;" horiz-adv-x="336" 
d="M156 640q0 46 32.5 79t79.5 33t79.5 -33t32.5 -79q0 -47 -33 -79.5t-79 -32.5t-79 32.5t-33 79.5v0zM198 640q0 -29 20 -49.5t50 -20.5q28 0 44.5 16t22.5 35q2 5 2.5 10t0.5 9q0 29 -21 49.5t-49 20.5q-4 0 -9 -0.5t-10 -2.5q-19 -6 -35 -22.5t-16 -44.5v0z" />
    <glyph glyph-name="at" unicode="&#xb1;" horiz-adv-x="770" 
d="M70 -14v56h616v-56h-616v0zM406 98h-56v280h-280v56h280v280h56v-280h280v-56h-280v-280v0z" />
    <glyph glyph-name="P" unicode="&#xb2;" horiz-adv-x="497" 
d="M191 412q4 1 10 1.5t13 0.5q9 0 21 -1.5t28 -6.5q-47 -29 -65 -47t-31 -21q-1 -1 -2.5 -1h-2.5q-9 0 -16 2t-13 6q-4 2 -8 5t-9 6q-3 2 -5.5 3.5t-5.5 3.5q-10 6 -18.5 14t-8.5 24q0 15 7 33t18 36q8 13 18 26.5t20 25.5q12 16 24 29t21 23q11 12 27.5 27.5t36.5 32.5
q21 16 44.5 32t47.5 29q23 12 46.5 19.5t43.5 7.5h1.5h1.5q47 -1 86.5 -27.5t39.5 -61.5q0 -20 -5 -44t-13 -49q-6 -17 -12 -33.5t-12 -31.5q-7 -15 -13 -28t-11 -24q-35 -71 -64 -119t-56 -90q-2 -2 -3 -4t-3 -5q-15 -23 -30.5 -47.5t-32.5 -52.5q1 -2 1 -4.5v-4.5
q0 -8 -3 -17t-8 -19t-11.5 -20t-12.5 -19q-8 -9 -15.5 -15t-12.5 -6q-4 0 -8 1.5t-9 3.5q-11 6 -20.5 18t-9.5 26q0 13 13.5 33.5t42.5 57.5q19 24 46 65.5t57 91.5q10 17 20.5 35.5t20.5 36.5q36 66 62 127.5t26 95.5q0 16 -7 25.5t-26 9.5q-22 0 -50.5 -15t-58.5 -37
q-19 -15 -38.5 -32.5t-36.5 -35.5q-26 -27 -46.5 -52.5t-30.5 -42.5v0z" />
    <glyph glyph-name="S" unicode="&#xb3;" horiz-adv-x="243" 
d="M0 100v3.5v2.5q1 41 24.5 88.5t110.5 124.5q11 10 25.5 16.5t32.5 6.5q14 0 18 -7.5t5 -16.5v-4v-4v-1.5v-1.5q0 -12 -4.5 -25t-12.5 -26q-16 -25 -45.5 -48.5t-71.5 -42.5q-2 -4 -3 -7.5t-1 -7.5q-1 -5 -1 -10v-10v-3v-3q0 -34 13 -47.5t29 -16.5q5 0 9.5 -0.5t8.5 -0.5
q9 0 34.5 8t69.5 39q1 0 1.5 0.5l1.5 1.5v0h1q2 2 5 3.5t7 1.5h2h2q2 -1 4 -3t2 -6q0 -5 -9.5 -17.5t-47.5 -46.5l-2.5 -2.5t-3.5 -2.5q-25 -23 -55 -41.5t-66 -18.5q-42 0 -62.5 37.5t-20.5 87.5v0zM255 377q-4 -1 -9.5 -1.5t-10.5 -0.5q-3 0 -6.5 1t-7.5 3q-8 4 -14 13
t-6 25q0 3 0.5 6.5t0.5 7.5q6 25 26.5 45.5t50.5 20.5q19 0 26.5 -12t7.5 -30q0 -26 -17.5 -48.5t-40.5 -29.5v0z" />
    <glyph glyph-name="T" unicode="&#xb4;" horiz-adv-x="359" 
d="M415 466q7 0 10 -5t4 -10v-5.5v-4.5v-1.5v-0.5q0 -8 -3 -27.5t-12 -42.5q-11 -27 -34.5 -50t-64.5 -23q-7 0 -15 1.5t-15 3.5q-3 1 -5.5 1.5t-5.5 1.5q-8 2 -15.5 4t-13.5 3q-4 1 -8.5 1h-9.5q-19 0 -26 -9.5t-11 -26.5q-1 -2 -1.5 -3.5t-0.5 -3.5q-5 -21 -15.5 -57
t-23.5 -74q-14 -41 -30.5 -78.5t-33.5 -57.5q-7 -7 -14 -11.5t-14 -4.5q-2 0 -5 1t-6 3q-33 25 -39.5 34.5t-6.5 12.5q0 8 20 40t45 75q10 17 19.5 36.5t18.5 38.5q11 27 18.5 53t7.5 49q0 3 -1 4.5t-2 2.5q-1 0 -2.5 1.5t-2.5 3.5q0 1 -0.5 2.5t-1.5 2.5q0 2 -0.5 4.5
t-0.5 5.5q0 5 1 9.5t2 8.5q5 17 13.5 23.5t26.5 6.5q9 0 17.5 -1t16.5 -2q3 -1 5.5 -1.5t5.5 -0.5q3 -1 5.5 -1.5t5.5 -0.5l20 -2t21 -1q7 -1 14 -1t14 -1h4.5h4.5q2 -1 4.5 -1h4.5q7 0 14 0.5t15 2.5q16 4 32 15t27 33q1 1 1.5 2t0.5 2q3 8 8 14t13 6v0z" />
    <glyph glyph-name="U" unicode="&#xb5;" horiz-adv-x="501" 
d="M485 291l-89 -95q-7 -8 -13.5 -17t-10.5 -18q-5 -12 -8 -22.5t-3 -19.5q0 -3 0.5 -7.5t1.5 -8.5q2 -9 6 -16t10 -7q7 0 16.5 2.5t19.5 5.5l10 4t9 4q11 4 18.5 8t10.5 6q1 1 5.5 3.5t9.5 5.5l10.5 7l4.5 3h1.5t1.5 -1q2 -1 3.5 -2.5t1.5 -4.5q0 -5 -19.5 -26t-47.5 -45
q-9 -8 -18.5 -16t-19.5 -15q-23 -18 -45 -29t-37 -11q-18 0 -26.5 10t-11.5 21q-2 7 -2.5 13t-0.5 11q0 10 1.5 23t4.5 27q2 13 4.5 24.5t5.5 21.5q-61 -76 -98.5 -104t-60.5 -28q-4 0 -8 1t-8 3q-13 9 -25 31t-17 57q-4 -14 -8.5 -29t-9.5 -30q-21 -70 -50 -129.5
t-77 -59.5q-27 0 -39 14t-13 30v1.5v1.5q0 8 1.5 15.5t4.5 14.5q16 34 68.5 86.5t143.5 195.5q69 110 90.5 138.5t31.5 28.5q3 0 7 -2.5t7 -5.5q6 -6 10.5 -13t8.5 -15q3 -6 5 -12.5t2 -11.5q0 -4 -3.5 -8.5t-11.5 -12.5l-73 -83q-2 -2 -4 -4.5t-5 -5.5q-5 -6 -10 -14.5
t-5 -18.5v-5.5v-5.5q1 -14 5.5 -26t13.5 -12t22.5 6.5t27.5 15.5q6 4 11.5 8t10.5 8q11 9 20 16.5t15 13.5l178 176l2 2l2 2q2 3 5.5 5t7.5 2q2 0 5 -1t6 -4q5 -5 9.5 -18t4.5 -41q0 -4 -0.5 -6.5t-2.5 -4.5l-0.5 -0.5l-0.5 -0.5v0z" />
    <glyph glyph-name="V" unicode="&#xb6;" horiz-adv-x="750" 
d="M772 642h-147q-10 -15 -19 -29t-17 -28q-5 -7 -10 -15t-9 -15q-29 -49 -62 -112t-88 -170q-74 -143 -123.5 -240t-93.5 -149q-25 -29 -51 -43.5t-56 -14.5q-49 0 -72.5 27.5t-23.5 62.5t21.5 52.5t46.5 17.5t35 -12.5t17 -27.5l2 -4t1 -4q0 -1 0.5 -1h0.5q2 -7 5 -12.5
t7 -5.5q12 0 51 63.5t83 145.5q4 9 9 17.5t9 17.5q18 34 35 67t31 62q-80 18 -119 75t-39 137q0 17 6.5 39t20.5 46q29 45 96.5 82.5t189.5 37.5h313h9h8q5 0 8 -0.5t3 -3.5q0 -4 -2.5 -10t-5.5 -12q-1 -1 -1.5 -2.5t-1.5 -2.5q-10 -16 -24 -26t-43 -10v0z" />
    <glyph glyph-name="quoteleft" unicode="&#xb8;" horiz-adv-x="319" 
d="M89 138v-4.5v-4.5q0 -5 0.5 -11.5t2.5 -12.5q4 -17 16.5 -31.5t39.5 -14.5q8 0 18 2.5t19 6.5q8 3 15.5 6.5t14.5 6.5q11 6 20.5 11.5t13.5 8.5q36 23 46 32t14 10q1 1 2 1h2q3 0 4.5 -3.5t1.5 -11.5q0 -4 -6 -12t-28 -31q-8 -9 -23.5 -23.5t-34.5 -30.5t-41 -29.5
t-44 -22.5q-11 -5 -23 -7.5t-23 -2.5q-37 0 -66.5 28.5t-29.5 85.5q0 22 6 46t17 49q29 63 83 119t114 73q9 2 19 3.5t19 1.5q26 0 38.5 -9.5t17.5 -21.5q2 -5 2.5 -9.5t0.5 -8.5q0 -15 -9 -33.5t-24 -36.5q-26 -33 -68 -62.5t-86 -45.5q-10 -4 -20.5 -6.5t-20.5 -4.5v0z
M89 175q12 3 26.5 10t28.5 15q18 11 35 24t30 27q11 12 18 24t7 22q0 12 -3.5 19t-17.5 7q-7 0 -14 -2.5t-14 -6.5q-21 -12 -41 -37t-34 -52q-7 -13 -12.5 -26t-8.5 -24v0zM198 420q-1 0 -2.5 -0.5t-2.5 -0.5h-2.5h-2.5h-2.5h-2.5h-2.5h-2.5h-2.5h-2.5q-11 2 -20 11.5
t-9 29.5q0 29 18.5 50t40.5 28q4 1 9 2t9 1q3 0 6.5 -1t7.5 -2q8 -4 14.5 -13t6.5 -26v-2v-2q-1 -25 -18 -47t-40 -28v0zM355 420q-1 0 -2.5 -0.5t-2.5 -0.5h-2.5h-2.5h-2.5h-2.5h-2.5h-2.5q-13 0 -23 9.5t-10 31.5q0 31 20.5 53t44.5 27q3 0 6 0.5t6 0.5t6 -0.5t6 -1.5
q8 -4 15 -13t7 -27v-2v-2q-1 -25 -18 -47t-40 -28v0z" />
    <glyph glyph-name="one" unicode="&#xb9;" horiz-adv-x="1028" 
d="M798 707l2 -91q-25 -1 -70 -34t-130 -200q-80 -156 -103 -239.5t-35 -116.5q-5 -14 -11 -20t-17 -6q-5 0 -10 2t-11 5q-8 6 -15.5 13.5t-14.5 15.5q-5 6 -8.5 12.5t-4.5 11.5q-1 2 -1 5v6v3.5v3.5t0.5 3.5t0.5 3.5q2 12 4 28.5t5 33.5q2 18 4.5 34.5t3.5 27.5
q2 15 6 49.5t9 75.5q0 7 1 14.5t2 15.5q5 51 9 96t4 61v5t-1 7q-1 6 -5 11.5t-13 5.5q-17 0 -38 -25t-42 -66q-24 -44 -46 -101t-39 -116q-15 -54 -24.5 -107t-9.5 -95q0 -11 1 -21t2 -19h-4h-3h-3.5h-3.5q-33 0 -49 13t-23 29q-5 13 -6 24.5t-1 16.5v0.5v0.5q0 63 45 196
t192 326q3 4 14 18.5t25 30.5q2 3 4 5l4 4q14 17 26.5 29.5t17.5 12.5q3 0 7 -1t11 -3q1 0 2.5 -0.5t2.5 -0.5q22 -6 29 -22.5t9 -90.5q1 -10 0.5 -20.5t-0.5 -21.5v-10.5v-10.5q-1 -31 -2 -51.5t-3 -39.5q0 -8 -1 -16.5t-2 -18.5t-5 -55t-12 -136q11 39 33 104t51 135
q35 84 77 159t86 106q12 8 23.5 12.5t22.5 4.5q17 0 24 -6.5t7 -15.5v0zM653 87h161h3.5h2.5h2.5h3.5q12 -1 11.5 -5t-5.5 -15l-15 -30q-2 -5 -3.5 -7.5t-2.5 -3.5h-1.5h-1.5h-1.5h-2.5h-183h-3.5h-2.5h-2.5h-3.5q-12 1 -11.5 5.5t5.5 14.5l15 30q0 1 0.5 2t1.5 2q1 2 2.5 4
t3.5 3h1.5h1.5v0v0h1.5h0.5h2h2h2h2h6.5h7.5v0zM662 248q0 18 3 36.5t8 37.5q14 52 42.5 100t59.5 76q15 14 29.5 21.5t27.5 7.5q12 0 22 -8.5t19 -18.5q4 -5 7.5 -9.5t6.5 -8.5q5 -6 9 -11t7 -10q7 -12 10 -25t3 -36v-4v-5q-2 -67 -33 -128.5t-68 -95.5
q-16 -15 -31.5 -23.5t-28.5 -8.5q-8 0 -17 3.5t-18 9.5q-22 15 -40 42t-18 58v0zM706 239q0 -1 0.5 -2t0.5 -2q2 -3 4 -6.5t6 -5.5q2 -1 4.5 -1.5t4.5 -0.5q3 0 6 0.5t6 1.5q10 3 22 10t24 18q23 19 43.5 45.5t31.5 55.5q5 12 7.5 23.5t2.5 22.5v5v6q0 6 -2 11.5t-10 8.5
q-1 0 -2.5 0.5t-2.5 0.5h-2.5h-2.5h-4.5t-4.5 -1q-10 -3 -21 -10t-22 -17q-18 -15 -35.5 -37t-29.5 -44q-10 -17 -16 -33t-8 -30q0 -1 -0.5 -2.5t-0.5 -2.5v-3v-3v-4t1 -4v0z" />
    <glyph glyph-name="G" unicode="&#xba;" horiz-adv-x="383" 
d="M46 143q7 41 28 72t45 52q13 12 26 22t23 17l13.5 9t16.5 10q15 8 32 16t35 14q16 6 31 9t29 3q23 0 36 -8.5t18 -18.5q2 -4 3 -8t1 -7q0 -8 -7 -20t-18 -24q-8 -9 -17 -17.5t-18 -16.5q-12 -8 -22.5 -14t-19.5 -8q-1 0 -2 -0.5t-2 -0.5t-2 0.5t-2 0.5q-4 2 -6.5 5
t-3.5 6q-1 2 -1.5 4t-0.5 3t-0.5 2.5t-0.5 3.5q-2 5 -7 10t-16 5q-10 0 -26.5 -9t-34.5 -24q-14 -12 -27.5 -26t-23.5 -29q-5 -7 -9 -14t-7 -14q30 4 51 8.5t36 9.5q22 7 33 14t19 10q3 1 6 1.5t6 0.5q4 0 8 -7.5t6 -16.5q2 -8 3.5 -14.5t1.5 -8.5q0 -16 -29 -24t-64 -12
q-25 -3 -48 -4t-35 -2q6 -22 27 -35t45 -17q4 0 8.5 -0.5t8.5 -0.5q16 0 35 4t38 11q21 7 41 17t37 20l3 1.5t2 1.5q11 7 17 9.5t10 2.5h0.5h1.5q2 -1 3.5 -2.5t1.5 -3.5q0 -10 -20.5 -29.5t-66.5 -51.5q-6 -4 -18.5 -12t-28.5 -16q-10 -5 -21.5 -10t-22.5 -10
q-13 -5 -26.5 -8t-24.5 -3q-43 0 -65.5 24t-31.5 54q-5 13 -7 25.5t-3 23.5q-10 0 -20 7.5t-16 16.5q-5 6 -7.5 11.5t-2.5 8.5q0 2 2 3t5 1h1.5t1.5 -1l0.5 -0.5t1.5 -0.5q2 -1 4.5 -1h5.5h4.5h4.5h15v0z" />
    <glyph glyph-name="bracketleft" unicode="&#xbb;" horiz-adv-x="522" 
d="M179 205l21 150q0 2 1 6t3 9q2 6 7.5 11t15.5 5l2.5 -1t4.5 -4t4 -6.5t3 -8.5l36 -180l-184 -139q-4 -3 -8.5 -5t-12.5 -2q-7 0 -11.5 4t-4.5 11v4v4q1 4 2 7.5t3 5.5l118 129v0zM357 205l21 150q2 16 6.5 22t8.5 8q2 1 4 1h4h0.5h1.5h1.5h0.5q1 0 2 -0.5l3 -1.5
q3 -2 5.5 -7t3.5 -11l35 -180l-184 -139q-4 -3 -8.5 -5t-12.5 -2q-5 0 -9 3t-6 7q0 1 -0.5 2.5t-0.5 2.5t0.5 4t1.5 6q0 2 0.5 4t0.5 3l1.5 3l0.5 1l119 129v0z" />
    <glyph glyph-name="w" unicode="&#xbc;" horiz-adv-x="304" 
d="M178 -5l97 80q12 10 16 14t7 4h0.5h0.5h2h2q3 -1 5 -2t2 -3t-1.5 -5.5t-3.5 -6.5l-1.5 -3t-1.5 -2q-2 -3 -4 -5.5t-3 -3.5l-155 -162l-43 -105q-5 -10 -14.5 -25t-20.5 -30q-5 -8 -10 -15t-11 -14q-15 -19 -28 -32t-22 -13q-5 0 -10 7t-7 15q-1 2 -1 4v4q0 24 16.5 86.5
t117.5 153.5l72 210q6 18 8.5 32.5t2.5 24.5q0 3 -2.5 5t-5.5 3h-2h-2q-6 0 -19.5 -5t-43.5 -22l-113 -65q-1 4 -1.5 8t-0.5 8q-1 7 -1 13.5v14.5q0 7 0.5 13t0.5 13q1 6 2.5 12t4.5 13q12 9 33 21.5t45 25.5q10 5 19.5 10t19.5 9q38 19 72 32t49 13q17 0 23.5 -9t6.5 -26
q0 -4 -2 -13t-8 -27l-87 -255v0zM295 378q-4 -1 -9.5 -2t-10.5 -1q-2 0 -4.5 0.5t-5.5 0.5q-10 2 -18.5 11t-8.5 27q0 31 20 57.5t45 29.5h2.5h2.5q3 0 7.5 -0.5t8.5 -2.5q8 -4 15 -12t7 -25v-4v-4q-2 -24 -15.5 -45.5t-35.5 -29.5v0z" />
    <glyph glyph-name="bracketright" unicode="&#xbd;" horiz-adv-x="748" 
d="M691 588q-18 8 -37.5 11.5t-39.5 3.5q-25 0 -54.5 -5t-60.5 -14q-51 -15 -97.5 -37.5t-70.5 -46.5q-8 -9 -12.5 -17.5t-4.5 -16.5q0 -14 20 -23t53 -17q34 -8 77 -17.5t88 -23.5q7 -2 13.5 -4.5t12.5 -4.5q54 -19 97 -50.5t43 -87.5q0 -12 -8 -37t-28 -53
q-15 -21 -37 -41t-53 -34q-12 -5 -26.5 -11t-31.5 -12q-53 -18 -128 -33.5t-163 -15.5h-4.5h-4.5h-29.5t-33.5 2q-35 3 -64 14.5t-29 40.5q0 7 2 24t12 35q10 19 30.5 35.5t58.5 23.5q1 0 2 0.5t2 0.5q2 0 4.5 0.5t3.5 0.5q2 0 2.5 -0.5t0.5 -1.5t-0.5 -3t-1.5 -4l-0.5 -1
t-0.5 -2t-0.5 -2.5t-0.5 -2.5q0 -13 17 -20t38 -7q26 0 77 6.5t108 18.5q76 16 140 40t64 53q0 30 -45 49.5t-99 32.5q-22 5 -43 9t-39 7q-41 8 -71 14.5t-52 12.5q-53 17 -63 35.5t-10 50.5q0 54 12 93t65 76q12 8 26.5 16t32.5 17q19 9 38 16.5t38 14.5q88 30 168 39
t119 9q53 0 76.5 -12.5t30.5 -27.5q4 -8 5 -15t1 -13q0 -41 -10 -56t-31 -25q-6 -3 -13.5 -6t-15.5 -7q-27 -12 -48 -24t-41 -23q-13 -7 -26.5 -14t-28.5 -14q5 10 13 22.5t21 26.5q9 8 20 16t25 16v0z" />
    <glyph glyph-name="R" unicode="&#xbe;" horiz-adv-x="367" 
d="M204 302l-98 -87l-25 32l112 102v2v2q-1 1 -1 2v2v2v2v1v2q0 5 5.5 15.5t14.5 22.5q5 6 10.5 12.5t11.5 11.5q8 8 15.5 13t13.5 5q13 0 24 -24t18 -53q5 -21 8 -40t3 -29q0 -28 -14.5 -68t-48.5 -82q-10 -14 -23 -27.5t-28 -26.5q5 -2 10.5 -3.5t12.5 -1.5
q17 1 42.5 12.5t69.5 45.5q11 8 15.5 10.5t7.5 2.5h0.5h1.5q2 -1 3.5 -2t1.5 -3q0 -8 -19.5 -29.5t-49.5 -45.5q-12 -11 -26 -21.5t-28 -19.5q-26 -17 -50 -28t-42 -11q-12 0 -30 8t-37 21q-24 17 -46 40.5t-33 48.5q-3 7 -4.5 15t-1.5 15q0 3 0.5 6.5t1.5 6.5q3 13 12 23.5
t26 10.5h2h2q7 0 15.5 -0.5t17.5 -4.5q10 -4 19.5 -14t16.5 -30q1 -3 2.5 -7t4.5 -9q3 -8 8.5 -14t12.5 -6q6 0 15 3t19 10q15 11 28 33t13 58v3v3v13.5v13.5q-1 13 -3.5 26.5t-8.5 28.5v0z" />
    <glyph glyph-name="underscore" unicode="&#xbf;" horiz-adv-x="267" 
d="M82 165q-2 -4 -3 -7.5t-1 -7.5q-1 -5 -1 -10v-10v-3v-3q0 -34 13 -47.5t29 -16.5q5 0 9.5 -0.5t8.5 -0.5q9 0 34.5 8t69.5 39q1 0 1.5 0.5l1.5 1.5v0h1q2 2 5 3.5t7 1.5h2h2q2 -1 4 -3t2 -6q0 -5 -9.5 -17.5t-47.5 -46.5l-2.5 -2.5t-3.5 -2.5q-25 -23 -55 -41.5
t-66 -18.5q-42 0 -62.5 37.5t-20.5 87.5v3.5v2.5q1 41 24.5 88.5t110.5 124.5q11 10 25.5 16.5t32.5 6.5q14 0 18 -7.5t5 -16.5v-4v-4v-1.5v-1.5q0 -12 -4.5 -25t-12.5 -26q-16 -25 -45.5 -48.5t-71.5 -42.5v0zM149 377q-3 -1 -5.5 -1.5t-4.5 -0.5h-4.5h-5.5t-6.5 1t-7.5 3
q-8 4 -14 13t-6 25q0 3 0.5 6.5t0.5 7.5q6 25 26.5 45.5t50.5 20.5q19 0 26.5 -12t7.5 -30q0 -26 -17.5 -48.5t-40.5 -29.5v0zM288 377q-3 -1 -5.5 -1.5t-4.5 -0.5h-4.5h-5.5t-6.5 1t-7.5 3q-8 4 -14 13t-6 25q0 3 0.5 6.5t0.5 7.5q6 25 26.5 45.5t50.5 20.5q17 0 25.5 -12
t8.5 -30q0 -26 -17.5 -48.5t-40.5 -29.5v0z" />
    <glyph glyph-name="grave" unicode="&#xc0;" horiz-adv-x="707" 
d="M250 357l53 5q28 33 68.5 73.5t86.5 82.5q21 19 43 38.5t44 37.5q55 46 107 83.5t93 57.5q17 -10 21.5 -23t4.5 -27q0 -12 -0.5 -17.5t-1.5 -10.5l-2 -4l-2 -4l-133 -261l62 7q5 1 8 1h6q5 0 7.5 -2.5t2.5 -10.5v-4.5t-1 -4.5q-2 -9 -8 -21.5t-15 -42.5
q-14 -42 -34.5 -49t-70.5 -8h-7h-7q-27 -52 -34.5 -68.5t-11.5 -23.5l-1 -1v-1l-1.5 -1.5t-0.5 -1.5q-3 -5 -5.5 -10t-4.5 -10q-2 -6 -3 -11t-1 -10v-2.5t1 -2.5q1 -5 5 -8.5t11 -3.5q14 0 27.5 9t25.5 19q1 1 6.5 6t12.5 11l0.5 0.5l1.5 1.5q7 6 13 10.5t7 4.5q5 0 7.5 -2
t2.5 -4q0 -3 -9.5 -15.5t-21.5 -26.5q-1 -1 -2 -2.5t-2 -2.5q-10 -12 -19.5 -22t-13.5 -14l-7.5 -7.5l-7.5 -7.5q-22 -21 -46.5 -38.5t-53.5 -17.5h-5.5t-4.5 1q-15 1 -28.5 8.5t-19.5 25.5l-2 10t-1 10v6t1 7q0 3 0.5 6t1.5 6q3 16 7.5 28.5t9.5 23.5q3 8 7 15.5t9 15.5
l49 90l-207 -2l-222 -235q-5 -5 -16 -13t-24 -17q-4 -2 -7.5 -4.5t-7.5 -5.5q-14 -9 -28 -16.5t-22 -9.5q-2 -1 -4 -1h-4h-0.5h-1.5t-1.5 0.5l-0.5 0.5q-2 1 -2.5 3t-0.5 4q0 9 6.5 23.5t16.5 29.5q3 5 6.5 10.5t7.5 10.5q6 10 12.5 18t11.5 14q4 5 7.5 9t6.5 7q0 2 1.5 4
t3.5 4l12.5 12.5t16.5 14.5h43l124 133l-81 -9q-1 0 -2.5 -0.5t-2.5 -0.5h-1.5h-1.5q-4 -1 -10 -1.5t-17 -0.5h-4.5t-4.5 1q-5 1 -9.5 4.5t-4.5 11.5q0 5 9 19.5t21 31.5q2 2 4 5t4 5q11 15 21.5 27t14.5 15q10 7 24.5 12t29.5 8q17 4 32.5 5.5t25.5 1.5l2 -25v0zM528 381
l132 252q-30 -22 -64 -48.5t-69 -56.5q-43 -37 -84.5 -78t-75.5 -84l161 15v0z" />
    <glyph glyph-name="grave" unicode="&#x410;" horiz-adv-x="707" 
d="M250 357l53 5q28 33 68.5 73.5t86.5 82.5q21 19 43 38.5t44 37.5q55 46 107 83.5t93 57.5q17 -10 21.5 -23t4.5 -27q0 -12 -0.5 -17.5t-1.5 -10.5l-2 -4l-2 -4l-133 -261l62 7q5 1 8 1h6q5 0 7.5 -2.5t2.5 -10.5v-4.5t-1 -4.5q-2 -9 -8 -21.5t-15 -42.5
q-14 -42 -34.5 -49t-70.5 -8h-7h-7q-27 -52 -34.5 -68.5t-11.5 -23.5l-1 -1v-1l-1.5 -1.5t-0.5 -1.5q-3 -5 -5.5 -10t-4.5 -10q-2 -6 -3 -11t-1 -10v-2.5t1 -2.5q1 -5 5 -8.5t11 -3.5q14 0 27.5 9t25.5 19q1 1 6.5 6t12.5 11l0.5 0.5l1.5 1.5q7 6 13 10.5t7 4.5q5 0 7.5 -2
t2.5 -4q0 -3 -9.5 -15.5t-21.5 -26.5q-1 -1 -2 -2.5t-2 -2.5q-10 -12 -19.5 -22t-13.5 -14l-7.5 -7.5l-7.5 -7.5q-22 -21 -46.5 -38.5t-53.5 -17.5h-5.5t-4.5 1q-15 1 -28.5 8.5t-19.5 25.5l-2 10t-1 10v6t1 7q0 3 0.5 6t1.5 6q3 16 7.5 28.5t9.5 23.5q3 8 7 15.5t9 15.5
l49 90l-207 -2l-222 -235q-5 -5 -16 -13t-24 -17q-4 -2 -7.5 -4.5t-7.5 -5.5q-14 -9 -28 -16.5t-22 -9.5q-2 -1 -4 -1h-4h-0.5h-1.5t-1.5 0.5l-0.5 0.5q-2 1 -2.5 3t-0.5 4q0 9 6.5 23.5t16.5 29.5q3 5 6.5 10.5t7.5 10.5q6 10 12.5 18t11.5 14q4 5 7.5 9t6.5 7q0 2 1.5 4
t3.5 4l12.5 12.5t16.5 14.5h43l124 133l-81 -9q-1 0 -2.5 -0.5t-2.5 -0.5h-1.5h-1.5q-4 -1 -10 -1.5t-17 -0.5h-4.5t-4.5 1q-5 1 -9.5 4.5t-4.5 11.5q0 5 9 19.5t21 31.5q2 2 4 5t4 5q11 15 21.5 27t14.5 15q10 7 24.5 12t29.5 8q17 4 32.5 5.5t25.5 1.5l2 -25v0zM528 381
l132 252q-30 -22 -64 -48.5t-69 -56.5q-43 -37 -84.5 -78t-75.5 -84l161 15v0z" />
    <glyph glyph-name="a" unicode="&#xc1;" horiz-adv-x="655" 
d="M264 373q86 110 143.5 143.5t92.5 33.5q8 0 15 -1t13 -3q-49 -34 -90 -70.5t-76 -82.5q14 2 31 4t35 3q15 1 29 1.5t27 0.5q8 0 17 -1t19 -3t20.5 -5t19.5 -6q5 -2 9 -3.5t8 -3.5q15 -7 24.5 -15.5t14.5 -16.5q7 -12 8 -23.5t1 -18.5q0 -55 -12 -81t-30 -44
q-15 -15 -40.5 -35t-57.5 -41q-14 -10 -29.5 -20t-31.5 -19q-46 -28 -88 -47t-65 -19q-10 0 -21.5 3t-23.5 9q-35 16 -64 51.5t-29 78.5q0 13 2 25t6 24q9 28 28 56t47 62q-35 -8 -62 -18t-48 -21l3.5 7t3.5 6q12 22 23 35t19 20q14 6 37 14t72 21v0zM310 318
q-27 -47 -40 -86t-13 -72q0 -25 15.5 -44t38.5 -19q14 0 31.5 5.5t36.5 14.5l16 8t15 8q15 7 27.5 14.5t22.5 12.5q8 4 17.5 9.5t19.5 12.5l20 16t18 17t13.5 18t5.5 17q0 6 -3 12.5t-10 12.5q-17 17 -60.5 31t-123.5 13h-22.5t-24.5 -1v0zM310 506l-120 -39q-1 0 -5.5 -1.5
t-9.5 -2.5h-0.5h-0.5q-5 -2 -10 -3t-6 -1q-8 0 -12 5.5t-5 12.5q-1 4 -1 8v7q0 72 47 109.5t139 67.5q39 13 86 23t95 17t93.5 10.5t84.5 3.5q20 0 36.5 -1t30.5 -3q16 -30 23 -47t12 -31q0 -2 0.5 -4t1.5 -4h-8t-8 1h-8h-9q-34 0 -75 -2.5t-83 -7.5q-57 -7 -110 -16.5
t-90 -20.5q-5 -1 -9 -2.5t-9 -3.5q-33 -12 -52.5 -25.5t-19.5 -34.5q0 -4 0.5 -7.5t1.5 -7.5v0z" />
    <glyph glyph-name="a" unicode="&#x411;" horiz-adv-x="655" 
d="M264 373q86 110 143.5 143.5t92.5 33.5q8 0 15 -1t13 -3q-49 -34 -90 -70.5t-76 -82.5q14 2 31 4t35 3q15 1 29 1.5t27 0.5q8 0 17 -1t19 -3t20.5 -5t19.5 -6q5 -2 9 -3.5t8 -3.5q15 -7 24.5 -15.5t14.5 -16.5q7 -12 8 -23.5t1 -18.5q0 -55 -12 -81t-30 -44
q-15 -15 -40.5 -35t-57.5 -41q-14 -10 -29.5 -20t-31.5 -19q-46 -28 -88 -47t-65 -19q-10 0 -21.5 3t-23.5 9q-35 16 -64 51.5t-29 78.5q0 13 2 25t6 24q9 28 28 56t47 62q-35 -8 -62 -18t-48 -21l3.5 7t3.5 6q12 22 23 35t19 20q14 6 37 14t72 21v0zM310 318
q-27 -47 -40 -86t-13 -72q0 -25 15.5 -44t38.5 -19q14 0 31.5 5.5t36.5 14.5l16 8t15 8q15 7 27.5 14.5t22.5 12.5q8 4 17.5 9.5t19.5 12.5l20 16t18 17t13.5 18t5.5 17q0 6 -3 12.5t-10 12.5q-17 17 -60.5 31t-123.5 13h-22.5t-24.5 -1v0zM310 506l-120 -39q-1 0 -5.5 -1.5
t-9.5 -2.5h-0.5h-0.5q-5 -2 -10 -3t-6 -1q-8 0 -12 5.5t-5 12.5q-1 4 -1 8v7q0 72 47 109.5t139 67.5q39 13 86 23t95 17t93.5 10.5t84.5 3.5q20 0 36.5 -1t30.5 -3q16 -30 23 -47t12 -31q0 -2 0.5 -4t1.5 -4h-8t-8 1h-8h-9q-34 0 -75 -2.5t-83 -7.5q-57 -7 -110 -16.5
t-90 -20.5q-5 -1 -9 -2.5t-9 -3.5q-33 -12 -52.5 -25.5t-19.5 -34.5q0 -4 0.5 -7.5t1.5 -7.5v0z" />
    <glyph glyph-name="b" unicode="&#xc2;" horiz-adv-x="735" 
d="M310 563v-29l-161 -46q-2 -1 -4.5 -1.5t-4.5 -1.5q-5 -1 -9.5 -1.5t-8.5 -0.5q-7 0 -11.5 3.5t-4.5 13.5q0 14 8.5 32t22.5 37q16 21 37 41t44 35q8 5 15.5 9.5t15.5 8.5q37 17 84.5 29t96.5 19q51 7 99.5 10t85.5 3q88 0 132 -30t58 -66q4 -11 6 -21.5t2 -20.5
q0 -63 -56.5 -102.5t-124.5 -61.5q-46 -15 -88.5 -23.5l-67.5 -13.5q-37 -7 -68 -13t-47 -9v-5q23 -5 40.5 -9.5t32.5 -8.5q4 -2 7.5 -3t7.5 -2q11 -3 22.5 -6.5t24.5 -7.5q9 -3 18.5 -6t19.5 -6q52 -16 95 -42t43 -73q0 -12 -5 -24t-14 -24q-30 -38 -93 -73.5t-133 -55.5
q-31 -9 -61.5 -13.5t-58.5 -4.5q-75 0 -117 25t-59 55q-5 11 -8 21.5t-3 20.5q0 19 13 45.5t31 54.5q8 11 16.5 22.5t17.5 22.5q15 20 29.5 37t25.5 29q-7 1 -15.5 2t-17.5 3q-21 4 -38.5 11.5t-17.5 22.5q0 13 9 19.5t20 9.5q8 2 16 2.5t11 0.5q10 0 24 1.5t29 3.5
q2 0 5 0.5t6 0.5q12 2 22.5 3t18.5 2q94 92 128.5 112t57.5 22h2.5h2.5h0.5h1.5q7 0 11 0.5t7 1.5q2 0 4 0.5t5 0.5l-22 -22t-16 -14v-1v0q-3 -2 -5.5 -4.5l-5.5 -5.5q-16 -13 -35.5 -32.5t-52.5 -57.5q122 15 191.5 38t101.5 48q19 14 26.5 28t7.5 26q0 6 -1 14t-5 16
q-6 16 -27 28.5t-68 12.5q-25 0 -69 -4.5t-92 -11.5q-49 -9 -93.5 -20.5t-69.5 -25.5v0zM325 319q-5 -5 -9.5 -11t-9.5 -13q-10 -13 -19.5 -29t-17.5 -32q-8 -17 -13 -33.5t-5 -30.5v-2.5v-2.5q4 -21 29 -38t66 -17q17 0 35.5 2.5t36.5 6.5q43 11 82 29t58 37q7 7 10.5 14
t3.5 13q0 30 -47 51t-104 35q-26 7 -51 12l-45 9v0z" />
    <glyph glyph-name="b" unicode="&#x412;" horiz-adv-x="735" 
d="M310 563v-29l-161 -46q-2 -1 -4.5 -1.5t-4.5 -1.5q-5 -1 -9.5 -1.5t-8.5 -0.5q-7 0 -11.5 3.5t-4.5 13.5q0 14 8.5 32t22.5 37q16 21 37 41t44 35q8 5 15.5 9.5t15.5 8.5q37 17 84.5 29t96.5 19q51 7 99.5 10t85.5 3q88 0 132 -30t58 -66q4 -11 6 -21.5t2 -20.5
q0 -63 -56.5 -102.5t-124.5 -61.5q-46 -15 -88.5 -23.5l-67.5 -13.5q-37 -7 -68 -13t-47 -9v-5q23 -5 40.5 -9.5t32.5 -8.5q4 -2 7.5 -3t7.5 -2q11 -3 22.5 -6.5t24.5 -7.5q9 -3 18.5 -6t19.5 -6q52 -16 95 -42t43 -73q0 -12 -5 -24t-14 -24q-30 -38 -93 -73.5t-133 -55.5
q-31 -9 -61.5 -13.5t-58.5 -4.5q-75 0 -117 25t-59 55q-5 11 -8 21.5t-3 20.5q0 19 13 45.5t31 54.5q8 11 16.5 22.5t17.5 22.5q15 20 29.5 37t25.5 29q-7 1 -15.5 2t-17.5 3q-21 4 -38.5 11.5t-17.5 22.5q0 13 9 19.5t20 9.5q8 2 16 2.5t11 0.5q10 0 24 1.5t29 3.5
q2 0 5 0.5t6 0.5q12 2 22.5 3t18.5 2q94 92 128.5 112t57.5 22h2.5h2.5h0.5h1.5q7 0 11 0.5t7 1.5q2 0 4 0.5t5 0.5l-22 -22t-16 -14v-1v0q-3 -2 -5.5 -4.5l-5.5 -5.5q-16 -13 -35.5 -32.5t-52.5 -57.5q122 15 191.5 38t101.5 48q19 14 26.5 28t7.5 26q0 6 -1 14t-5 16
q-6 16 -27 28.5t-68 12.5q-25 0 -69 -4.5t-92 -11.5q-49 -9 -93.5 -20.5t-69.5 -25.5v0zM325 319q-5 -5 -9.5 -11t-9.5 -13q-10 -13 -19.5 -29t-17.5 -32q-8 -17 -13 -33.5t-5 -30.5v-2.5v-2.5q4 -21 29 -38t66 -17q17 0 35.5 2.5t36.5 6.5q43 11 82 29t58 37q7 7 10.5 14
t3.5 13q0 30 -47 51t-104 35q-26 7 -51 12l-45 9v0z" />
    <glyph glyph-name="c" unicode="&#xc3;" horiz-adv-x="658" 
d="M259 528l50 -25q-3 -1 -5.5 -1.5t-5.5 -0.5q-7 -2 -14 -3l-14 -2q-10 -2 -20 -3t-19 -1h-9.5h-9.5h-5h-5q-7 -1 -14 -1h-14q-28 0 -49 5t-20 21q0 2 1 5l2 6l27 66q15 38 91 63t163 40q72 12 137 17.5t97 5.5h15.5h14.5q8 -1 15.5 -1h14.5q17 0 35.5 0.5t37.5 0.5
q30 1 59.5 2t54.5 2q10 1 19 1.5t17 0.5q-12 -97 -53.5 -116t-88.5 -19q-7 0 -22.5 0.5t-33.5 1.5h-6h-6q-14 1 -25.5 1.5t-17.5 0.5q-34 -32 -85 -100t-150 -235q-32 -54 -53 -90.5t-39 -69.5q-2 -4 -4 -7.5t-4 -6.5q-4 -9 -9 -18t-10 -19q-19 -36 -30 -51t-21 -20
q-5 -3 -10.5 -3.5t-12.5 -1.5h-7t-9 -1h-2.5h-3.5q-24 0 -36 23t-17 51q-3 18 -3.5 35.5t-0.5 27.5q0 11 2 23t5 24q3 15 8 29t10 27q6 15 11.5 26.5t8.5 18.5q1 1 1.5 2t0.5 2q8 13 16 20.5t20 13.5q11 6 25.5 12t35.5 15q1 0 4.5 1.5t7.5 3.5q1 0 1.5 0.5t1.5 0.5
q6 3 10.5 4t4.5 -1q0 -3 -7 -14.5t-23 -37.5q-21 -35 -26.5 -56t-5.5 -37q0 -24 7 -42.5t16 -33.5q34 60 64.5 115.5t59.5 106.5q26 46 52.5 89.5t55.5 86.5q14 22 29.5 44.5t32.5 44.5q-29 -1 -67.5 -4.5t-78.5 -9.5q-50 -9 -95.5 -22.5t-74.5 -32.5v0z" />
    <glyph glyph-name="c" unicode="&#x413;" horiz-adv-x="658" 
d="M259 528l50 -25q-3 -1 -5.5 -1.5t-5.5 -0.5q-7 -2 -14 -3l-14 -2q-10 -2 -20 -3t-19 -1h-9.5h-9.5h-5h-5q-7 -1 -14 -1h-14q-28 0 -49 5t-20 21q0 2 1 5l2 6l27 66q15 38 91 63t163 40q72 12 137 17.5t97 5.5h15.5h14.5q8 -1 15.5 -1h14.5q17 0 35.5 0.5t37.5 0.5
q30 1 59.5 2t54.5 2q10 1 19 1.5t17 0.5q-12 -97 -53.5 -116t-88.5 -19q-7 0 -22.5 0.5t-33.5 1.5h-6h-6q-14 1 -25.5 1.5t-17.5 0.5q-34 -32 -85 -100t-150 -235q-32 -54 -53 -90.5t-39 -69.5q-2 -4 -4 -7.5t-4 -6.5q-4 -9 -9 -18t-10 -19q-19 -36 -30 -51t-21 -20
q-5 -3 -10.5 -3.5t-12.5 -1.5h-7t-9 -1h-2.5h-3.5q-24 0 -36 23t-17 51q-3 18 -3.5 35.5t-0.5 27.5q0 11 2 23t5 24q3 15 8 29t10 27q6 15 11.5 26.5t8.5 18.5q1 1 1.5 2t0.5 2q8 13 16 20.5t20 13.5q11 6 25.5 12t35.5 15q1 0 4.5 1.5t7.5 3.5q1 0 1.5 0.5t1.5 0.5
q6 3 10.5 4t4.5 -1q0 -3 -7 -14.5t-23 -37.5q-21 -35 -26.5 -56t-5.5 -37q0 -24 7 -42.5t16 -33.5q34 60 64.5 115.5t59.5 106.5q26 46 52.5 89.5t55.5 86.5q14 22 29.5 44.5t32.5 44.5q-29 -1 -67.5 -4.5t-78.5 -9.5q-50 -9 -95.5 -22.5t-74.5 -32.5v0z" />
    <glyph glyph-name="d" unicode="&#xc4;" horiz-adv-x="802" 
d="M477 591l9 -65q-118 -154 -171 -237t-53 -126v-2.5v-2.5q1 -18 12.5 -32.5t58.5 -14.5q37 0 93 13t117 39q96 41 176 114t80 177q0 74 -67.5 105t-213.5 31q-47 0 -87.5 -5t-70.5 -11q-18 -4 -31 -7.5t-20 -5.5q-3 -1 -6.5 -2t-7.5 -3q-9 -4 -17 -9t-8 -12q0 -1 1 -2
l2 -2q2 -2 5.5 -3.5t7.5 -3.5l4 -2l4 -2q4 -1 8.5 -2.5l10.5 -3.5q-47 -16 -75.5 -24.5t-53.5 -14.5q-5 -2 -10 -3l-10 -2q-4 -1 -8.5 -1.5t-9.5 -0.5h-2.5h-2.5q-2 0 -3 0.5l-3 1.5q-9 4 -12 11.5t-3 15.5v4v4q0 38 6 62.5t13 39.5q2 5 4 8.5t4 6.5q21 31 83.5 54t133.5 37
q54 11 104 16.5t82 5.5q136 0 219 -59t83 -190q0 -158 -120 -271.5t-263 -168.5q-59 -23 -116 -34.5t-106 -11.5h-1.5h-1.5q-28 1 -52 17.5t-24 75.5q0 45 34.5 109.5t82.5 132.5q12 17 25 34.5t26 34.5q41 56 79.5 104.5t61.5 82.5v0z" />
    <glyph glyph-name="d" unicode="&#x414;" horiz-adv-x="802" 
d="M477 591l9 -65q-118 -154 -171 -237t-53 -126v-2.5v-2.5q1 -18 12.5 -32.5t58.5 -14.5q37 0 93 13t117 39q96 41 176 114t80 177q0 74 -67.5 105t-213.5 31q-47 0 -87.5 -5t-70.5 -11q-18 -4 -31 -7.5t-20 -5.5q-3 -1 -6.5 -2t-7.5 -3q-9 -4 -17 -9t-8 -12q0 -1 1 -2
l2 -2q2 -2 5.5 -3.5t7.5 -3.5l4 -2l4 -2q4 -1 8.5 -2.5l10.5 -3.5q-47 -16 -75.5 -24.5t-53.5 -14.5q-5 -2 -10 -3l-10 -2q-4 -1 -8.5 -1.5t-9.5 -0.5h-2.5h-2.5q-2 0 -3 0.5l-3 1.5q-9 4 -12 11.5t-3 15.5v4v4q0 38 6 62.5t13 39.5q2 5 4 8.5t4 6.5q21 31 83.5 54t133.5 37
q54 11 104 16.5t82 5.5q136 0 219 -59t83 -190q0 -158 -120 -271.5t-263 -168.5q-59 -23 -116 -34.5t-106 -11.5h-1.5h-1.5q-28 1 -52 17.5t-24 75.5q0 45 34.5 109.5t82.5 132.5q12 17 25 34.5t26 34.5q41 56 79.5 104.5t61.5 82.5v0z" />
    <glyph glyph-name="e" unicode="&#xc5;" horiz-adv-x="686" 
d="M430 333v8q-15 2 -25.5 3t-21.5 1q-4 1 -8 1t-8 1q-5 0 -10.5 0.5t-11.5 0.5q-13 1 -26.5 1.5t-27.5 2.5q-53 5 -97 27t-44 86q0 5 0.5 9.5t1.5 9.5q14 88 141.5 161t306.5 73q68 0 98.5 -9t51.5 -28v-78q-2 -4 -4 -6.5t-6 -5.5q-7 -6 -23 -13.5t-49 -21.5
q-24 -10 -35.5 -16t-20.5 -12q-1 0 -2 -0.5t-2 -1.5q-8 -5 -18 -11.5t-29 -16.5q5 19 15 32.5t22 23.5q4 4 8 7l8 6q-4 2 -8.5 3.5t-9.5 2.5q-13 4 -26.5 6t-30.5 2q-100 0 -173 -31.5t-100 -69.5q-6 -9 -9.5 -18t-3.5 -18q0 -5 2 -11t10 -13q15 -12 57 -22t135 -10
q9 0 17.5 0.5t17.5 0.5q3 0 6 0.5t6 0.5q6 0 11.5 0.5t11.5 0.5q8 1 15 1h14h11.5t10.5 -1q19 -1 27.5 -10t7.5 -20v-2.5t-1 -2.5q0 -3 -1 -5.5t-3 -4.5l-36 -46q-4 -4 -13 -6t-26 -3q-121 -5 -206 -41t-133 -78q-31 -27 -46.5 -52t-15.5 -42q0 -15 23.5 -26t52.5 -16
q9 -1 18.5 -2t17.5 -1q40 0 80.5 7t81.5 20q60 19 121 50t119 70q-6 -72 -31.5 -112t-75.5 -69q-12 -7 -28.5 -16t-36.5 -19q-42 -19 -101 -35.5t-130 -16.5q-94 0 -157.5 24.5t-63.5 130.5q0 23 17.5 54.5t55.5 65.5q39 34 100.5 66t149.5 55q7 2 13.5 3.5t12.5 3.5
q1 0 2.5 0.5t3.5 0.5q12 3 24.5 7t28.5 10v0z" />
    <glyph glyph-name="e" unicode="&#x415;" horiz-adv-x="686" 
d="M430 333v8q-15 2 -25.5 3t-21.5 1q-4 1 -8 1t-8 1q-5 0 -10.5 0.5t-11.5 0.5q-13 1 -26.5 1.5t-27.5 2.5q-53 5 -97 27t-44 86q0 5 0.5 9.5t1.5 9.5q14 88 141.5 161t306.5 73q68 0 98.5 -9t51.5 -28v-78q-2 -4 -4 -6.5t-6 -5.5q-7 -6 -23 -13.5t-49 -21.5
q-24 -10 -35.5 -16t-20.5 -12q-1 0 -2 -0.5t-2 -1.5q-8 -5 -18 -11.5t-29 -16.5q5 19 15 32.5t22 23.5q4 4 8 7l8 6q-4 2 -8.5 3.5t-9.5 2.5q-13 4 -26.5 6t-30.5 2q-100 0 -173 -31.5t-100 -69.5q-6 -9 -9.5 -18t-3.5 -18q0 -5 2 -11t10 -13q15 -12 57 -22t135 -10
q9 0 17.5 0.5t17.5 0.5q3 0 6 0.5t6 0.5q6 0 11.5 0.5t11.5 0.5q8 1 15 1h14h11.5t10.5 -1q19 -1 27.5 -10t7.5 -20v-2.5t-1 -2.5q0 -3 -1 -5.5t-3 -4.5l-36 -46q-4 -4 -13 -6t-26 -3q-121 -5 -206 -41t-133 -78q-31 -27 -46.5 -52t-15.5 -42q0 -15 23.5 -26t52.5 -16
q9 -1 18.5 -2t17.5 -1q40 0 80.5 7t81.5 20q60 19 121 50t119 70q-6 -72 -31.5 -112t-75.5 -69q-12 -7 -28.5 -16t-36.5 -19q-42 -19 -101 -35.5t-130 -16.5q-94 0 -157.5 24.5t-63.5 130.5q0 23 17.5 54.5t55.5 65.5q39 34 100.5 66t149.5 55q7 2 13.5 3.5t12.5 3.5
q1 0 2.5 0.5t3.5 0.5q12 3 24.5 7t28.5 10v0z" />
    <glyph glyph-name="f" unicode="&#xc6;" horiz-adv-x="1122" 
d="M442 334l168 179q4 4 11 13t16 20q2 4 5 8.5t6 8.5q8 12 13 23t5 19q0 20 -11.5 26.5t-25.5 7.5h-8.5h-8.5h-3.5h-2.5q-29 0 -69.5 -6t-83.5 -17q-49 -13 -95.5 -32t-74.5 -42q-3 -4 -4 -8.5t-1 -9.5v-2.5t1 -2.5q0 -2 0.5 -3l1.5 -3l-171 -84q-2 1 -3.5 2.5t-2.5 3.5
q-9 9 -10.5 19.5t-1.5 23.5v4v4q0 109 76.5 143t180.5 53q20 3 40.5 7t41.5 8q15 3 27.5 6t24.5 6q23 5 48.5 8t66.5 3h10h10q73 0 103 -11.5t30 -81.5q0 -22 -7 -38t-20 -31q-2 -3 -4.5 -6t-5.5 -6l-179 -201q27 4 66 8.5t90 10.5q12 15 44.5 52t69.5 78q1 2 2.5 3.5
l3.5 3.5q45 50 83 90.5t42 40.5q5 0 6 -8.5t1 -19.5q0 -13 -4.5 -22t-11.5 -17q-3 -3 -6 -6.5t-7 -7.5q-13 -14 -27.5 -32t-29.5 -38q-4 -5 -8.5 -11t-8.5 -12q-20 -26 -37.5 -50.5t-30.5 -43.5q14 1 28.5 1.5t33.5 0.5h24.5t29.5 -1q17 20 44.5 51.5t60.5 66.5q8 8 16.5 17
t17.5 18q42 42 81 73.5t59 31.5q1 0 3.5 -0.5t5.5 -2.5q4 -3 7 -7.5t3 -11.5q0 -9 -8 -21t-21 -25q-10 -9 -22 -18.5t-24 -17.5q-17 -12 -33.5 -19.5t-27.5 -8.5q-17 -23 -29.5 -40t-23.5 -33q-4 -7 -8 -13t-8 -13q-5 -8 -10.5 -17t-10.5 -19q19 -4 37.5 -10.5t36.5 -16.5
l-52 -109q-9 6 -17.5 10t-17.5 7t-18 4t-18 1h-1.5h-0.5h-1.5h-1.5q-25 -52 -33.5 -84.5t-8.5 -52.5v-1.5v-0.5v-12.5t2 -13.5q2 -14 12.5 -26t35.5 -12q27 0 51.5 17.5t45.5 38.5l8 8l8 8l10 10t17 16q9 10 17.5 18t9.5 8q2 1 4.5 1t4.5 -1l0.5 -0.5t1.5 -0.5q1 -1 2.5 -2
t1.5 -3q1 0 1 -0.5v-1.5q0 -8 -18 -31t-77 -94q-6 -7 -12.5 -14.5t-14.5 -14.5q-18 -17 -39 -33t-43 -25q-10 -4 -20 -6.5t-19 -2.5q-7 0 -14.5 1t-14.5 3q-27 8 -50 31.5t-23 66.5q0 14 1.5 28t4.5 28q8 37 23.5 72t31.5 64l4 6l4 6q-10 1 -21 1h-22q-22 0 -43.5 -1.5
t-43.5 -3.5q-20 -27 -37.5 -50t-28.5 -46q-8 -16 -12 -32.5t-4 -34.5v-6t1 -6q0 -4 0.5 -7t0.5 -6l-88 -48q-4 10 -5.5 20t-1.5 20q0 13 2.5 27t7.5 29q11 32 29.5 62.5t39.5 55.5l8 10t8 9q-48 -6 -96 -10.5t-98 -7.5q-3 -3 -26.5 -26t-50.5 -54q-7 -8 -14.5 -17t-13.5 -17
q-21 -26 -35 -50t-14 -41q0 -3 0.5 -5.5t1.5 -4.5q-18 1 -33.5 10.5t-23.5 21.5q-3 5 -5 9.5t-2 8.5q0 5 15.5 37t108.5 127q-7 -1 -15 -1.5t-17 -0.5h-4h-4q-23 1 -42 6t-19 17q0 9 4.5 24t11.5 31q2 5 4.5 10.5t4.5 10.5q6 13 11.5 23.5t9.5 15.5v-2v-2q0 -16 18 -21
t77 -5q13 0 23.5 1t20.5 3q8 1 16 3.5t17 6.5v0z" />
    <glyph glyph-name="f" unicode="&#x416;" horiz-adv-x="1122" 
d="M442 334l168 179q4 4 11 13t16 20q2 4 5 8.5t6 8.5q8 12 13 23t5 19q0 20 -11.5 26.5t-25.5 7.5h-8.5h-8.5h-3.5h-2.5q-29 0 -69.5 -6t-83.5 -17q-49 -13 -95.5 -32t-74.5 -42q-3 -4 -4 -8.5t-1 -9.5v-2.5t1 -2.5q0 -2 0.5 -3l1.5 -3l-171 -84q-2 1 -3.5 2.5t-2.5 3.5
q-9 9 -10.5 19.5t-1.5 23.5v4v4q0 109 76.5 143t180.5 53q20 3 40.5 7t41.5 8q15 3 27.5 6t24.5 6q23 5 48.5 8t66.5 3h10h10q73 0 103 -11.5t30 -81.5q0 -22 -7 -38t-20 -31q-2 -3 -4.5 -6t-5.5 -6l-179 -201q27 4 66 8.5t90 10.5q12 15 44.5 52t69.5 78q1 2 2.5 3.5
l3.5 3.5q45 50 83 90.5t42 40.5q5 0 6 -8.5t1 -19.5q0 -13 -4.5 -22t-11.5 -17q-3 -3 -6 -6.5t-7 -7.5q-13 -14 -27.5 -32t-29.5 -38q-4 -5 -8.5 -11t-8.5 -12q-20 -26 -37.5 -50.5t-30.5 -43.5q14 1 28.5 1.5t33.5 0.5h24.5t29.5 -1q17 20 44.5 51.5t60.5 66.5q8 8 16.5 17
t17.5 18q42 42 81 73.5t59 31.5q1 0 3.5 -0.5t5.5 -2.5q4 -3 7 -7.5t3 -11.5q0 -9 -8 -21t-21 -25q-10 -9 -22 -18.5t-24 -17.5q-17 -12 -33.5 -19.5t-27.5 -8.5q-17 -23 -29.5 -40t-23.5 -33q-4 -7 -8 -13t-8 -13q-5 -8 -10.5 -17t-10.5 -19q19 -4 37.5 -10.5t36.5 -16.5
l-52 -109q-9 6 -17.5 10t-17.5 7t-18 4t-18 1h-1.5h-0.5h-1.5h-1.5q-25 -52 -33.5 -84.5t-8.5 -52.5v-1.5v-0.5v-12.5t2 -13.5q2 -14 12.5 -26t35.5 -12q27 0 51.5 17.5t45.5 38.5l8 8l8 8l10 10t17 16q9 10 17.5 18t9.5 8q2 1 4.5 1t4.5 -1l0.5 -0.5t1.5 -0.5q1 -1 2.5 -2
t1.5 -3q1 0 1 -0.5v-1.5q0 -8 -18 -31t-77 -94q-6 -7 -12.5 -14.5t-14.5 -14.5q-18 -17 -39 -33t-43 -25q-10 -4 -20 -6.5t-19 -2.5q-7 0 -14.5 1t-14.5 3q-27 8 -50 31.5t-23 66.5q0 14 1.5 28t4.5 28q8 37 23.5 72t31.5 64l4 6l4 6q-10 1 -21 1h-22q-22 0 -43.5 -1.5
t-43.5 -3.5q-20 -27 -37.5 -50t-28.5 -46q-8 -16 -12 -32.5t-4 -34.5v-6t1 -6q0 -4 0.5 -7t0.5 -6l-88 -48q-4 10 -5.5 20t-1.5 20q0 13 2.5 27t7.5 29q11 32 29.5 62.5t39.5 55.5l8 10t8 9q-48 -6 -96 -10.5t-98 -7.5q-3 -3 -26.5 -26t-50.5 -54q-7 -8 -14.5 -17t-13.5 -17
q-21 -26 -35 -50t-14 -41q0 -3 0.5 -5.5t1.5 -4.5q-18 1 -33.5 10.5t-23.5 21.5q-3 5 -5 9.5t-2 8.5q0 5 15.5 37t108.5 127q-7 -1 -15 -1.5t-17 -0.5h-4h-4q-23 1 -42 6t-19 17q0 9 4.5 24t11.5 31q2 5 4.5 10.5t4.5 10.5q6 13 11.5 23.5t9.5 15.5v-2v-2q0 -16 18 -21
t77 -5q13 0 23.5 1t20.5 3q8 1 16 3.5t17 6.5v0z" />
    <glyph glyph-name="g" unicode="&#xc7;" horiz-adv-x="762" 
d="M333 485l-159 -58q-7 -3 -14.5 -5t-13.5 -1q-7 0 -12 3.5t-5 12.5q0 21 9.5 46.5t30.5 51.5q45 58 149.5 106t284.5 48q130 0 174.5 -36t48.5 -79v-5.5v-5.5q0 -70 -80.5 -118t-176.5 -78q-48 -14 -93.5 -24.5t-81.5 -16.5v-4q192 -15 232.5 -45t40.5 -104t-85.5 -134
t-188.5 -87q-31 -8 -62.5 -12.5t-60.5 -4.5q-75 0 -112 25t-51 54q-11 24 -13 45t-2 30q0 20 14.5 38.5t31.5 34.5q8 7 15.5 13t13.5 12q12 11 19 16.5t12 6.5h1.5h0.5h2t1 -1q2 0 4 -1.5t2 -5.5v-1.5v-1.5q-1 -3 -7 -9.5t-12 -15.5q-8 -10 -14 -24t-6 -32q0 -36 38 -46
t84 -11h6.5h6.5q22 0 46.5 4t50.5 12q51 15 97.5 40t69.5 52q8 9 12.5 18.5t4.5 18.5q0 26 -27 40.5t-60 22.5q-13 3 -26 5t-24 4q-55 8 -93 12t-61 7q-22 2 -32 5.5t-10 11.5q0 3 2 9.5t8 13.5q7 9 22 16.5t42 8.5q32 1 84.5 10t108.5 25q86 24 157.5 59t71.5 73v2.5v2.5
q-3 20 -34 36.5t-112 16.5q-22 0 -51 -3.5t-59 -9.5q-60 -12 -110.5 -34.5t-49.5 -51.5v-1.5v-1.5v0z" />
    <glyph glyph-name="g" unicode="&#x417;" horiz-adv-x="762" 
d="M333 485l-159 -58q-7 -3 -14.5 -5t-13.5 -1q-7 0 -12 3.5t-5 12.5q0 21 9.5 46.5t30.5 51.5q45 58 149.5 106t284.5 48q130 0 174.5 -36t48.5 -79v-5.5v-5.5q0 -70 -80.5 -118t-176.5 -78q-48 -14 -93.5 -24.5t-81.5 -16.5v-4q192 -15 232.5 -45t40.5 -104t-85.5 -134
t-188.5 -87q-31 -8 -62.5 -12.5t-60.5 -4.5q-75 0 -112 25t-51 54q-11 24 -13 45t-2 30q0 20 14.5 38.5t31.5 34.5q8 7 15.5 13t13.5 12q12 11 19 16.5t12 6.5h1.5h0.5h2t1 -1q2 0 4 -1.5t2 -5.5v-1.5v-1.5q-1 -3 -7 -9.5t-12 -15.5q-8 -10 -14 -24t-6 -32q0 -36 38 -46
t84 -11h6.5h6.5q22 0 46.5 4t50.5 12q51 15 97.5 40t69.5 52q8 9 12.5 18.5t4.5 18.5q0 26 -27 40.5t-60 22.5q-13 3 -26 5t-24 4q-55 8 -93 12t-61 7q-22 2 -32 5.5t-10 11.5q0 3 2 9.5t8 13.5q7 9 22 16.5t42 8.5q32 1 84.5 10t108.5 25q86 24 157.5 59t71.5 73v2.5v2.5
q-3 20 -34 36.5t-112 16.5q-22 0 -51 -3.5t-59 -9.5q-60 -12 -110.5 -34.5t-49.5 -51.5v-1.5v-1.5v0z" />
    <glyph glyph-name="h" unicode="&#xc8;" horiz-adv-x="863" 
d="M283 435q-8 -2 -19.5 -4.5t-24.5 -4.5q-4 -1 -9 -2t-9 -2q-18 -3 -35 -5.5t-27 -2.5h-3h-4q-2 -1 -4.5 -1h-5.5h-8t-8 1q-12 2 -22.5 8t-11.5 21v3v3v2.5v2.5q4 63 46.5 99.5t93.5 59.5q11 5 21.5 10t21.5 9q10 4 22 8.5t26 9.5q31 11 73 19.5t100 8.5q73 0 96.5 -6
t23.5 -23q0 -52 -20 -91.5t-51 -76.5q-11 -13 -24 -27l-26 -28q-73 -78 -122.5 -135.5t-55.5 -110.5q-1 -3 -1 -6v-6v-2.5t1 -2.5v-3v-3q1 -7 3.5 -13t12.5 -6q2 0 4.5 0.5t4.5 0.5q16 5 41 28t92 77q45 36 131.5 110t180.5 168q10 9 19.5 18.5t18.5 19.5q35 35 48 46.5
t20 11.5q1 0 2.5 -0.5t2.5 -0.5q7 -3 13 -12t10 -20q3 -7 4.5 -13t1.5 -11v-3t-1 -3q-3 -12 -20 -30t-54 -66q-17 -22 -43 -58t-53 -77q-10 -15 -20 -30.5t-20 -31.5q-33 -54 -56 -104t-23 -82q0 -18 6 -25.5t13 -9.5q2 -1 3.5 -1h3.5q13 0 30 7t35 17q5 3 11 6t11 7
q4 2 8.5 4.5t8.5 5.5q30 19 39 27.5t14 10.5q1 0 2.5 0.5t3.5 0.5q8 0 13 -3t5 -10q0 -5 -12.5 -16.5t-28.5 -24.5q-2 -2 -4 -3.5t-4 -3.5q-13 -9 -24.5 -18t-18.5 -14q-49 -35 -76.5 -52.5t-50.5 -20.5h-1.5h-1.5h-2.5h-2.5h-3h-3q-34 4 -54 40.5t-20 82.5q0 43 43.5 111
t128.5 201q-47 -43 -82 -76t-66 -64l-4 -4l-4 -4l-23 -23l-25 -25q-15 -16 -39 -40.5t-52 -50.5l-24 -22t-25 -21q-33 -28 -65 -47t-55 -19q-20 0 -38 17t-29 38q-7 12 -10.5 23.5t-3.5 19.5q0 15 7 34t18 39q6 12 13 24t14 22q7 11 14 20t13 16q20 25 43 48t47 45
q18 16 35.5 32t34.5 31q9 8 22 19.5t26 24.5l13.5 13.5l12.5 12.5q16 18 27 35t11 29q0 9 -11.5 13t-25.5 5h-8h-7q-10 0 -20.5 -0.5t-21.5 -2.5q-48 -6 -93 -22t-74 -34q-18 -11 -28.5 -21.5t-10.5 -18.5q0 -3 2.5 -4.5t6.5 -3.5t10 -3.5t13 -4.5q2 -1 4 -1.5t4 -1.5
q6 -2 12 -3.5t16 -3.5v0z" />
    <glyph glyph-name="h" unicode="&#x418;" horiz-adv-x="863" 
d="M283 435q-8 -2 -19.5 -4.5t-24.5 -4.5q-4 -1 -9 -2t-9 -2q-18 -3 -35 -5.5t-27 -2.5h-3h-4q-2 -1 -4.5 -1h-5.5h-8t-8 1q-12 2 -22.5 8t-11.5 21v3v3v2.5v2.5q4 63 46.5 99.5t93.5 59.5q11 5 21.5 10t21.5 9q10 4 22 8.5t26 9.5q31 11 73 19.5t100 8.5q73 0 96.5 -6
t23.5 -23q0 -52 -20 -91.5t-51 -76.5q-11 -13 -24 -27l-26 -28q-73 -78 -122.5 -135.5t-55.5 -110.5q-1 -3 -1 -6v-6v-2.5t1 -2.5v-3v-3q1 -7 3.5 -13t12.5 -6q2 0 4.5 0.5t4.5 0.5q16 5 41 28t92 77q45 36 131.5 110t180.5 168q10 9 19.5 18.5t18.5 19.5q35 35 48 46.5
t20 11.5q1 0 2.5 -0.5t2.5 -0.5q7 -3 13 -12t10 -20q3 -7 4.5 -13t1.5 -11v-3t-1 -3q-3 -12 -20 -30t-54 -66q-17 -22 -43 -58t-53 -77q-10 -15 -20 -30.5t-20 -31.5q-33 -54 -56 -104t-23 -82q0 -18 6 -25.5t13 -9.5q2 -1 3.5 -1h3.5q13 0 30 7t35 17q5 3 11 6t11 7
q4 2 8.5 4.5t8.5 5.5q30 19 39 27.5t14 10.5q1 0 2.5 0.5t3.5 0.5q8 0 13 -3t5 -10q0 -5 -12.5 -16.5t-28.5 -24.5q-2 -2 -4 -3.5t-4 -3.5q-13 -9 -24.5 -18t-18.5 -14q-49 -35 -76.5 -52.5t-50.5 -20.5h-1.5h-1.5h-2.5h-2.5h-3h-3q-34 4 -54 40.5t-20 82.5q0 43 43.5 111
t128.5 201q-47 -43 -82 -76t-66 -64l-4 -4l-4 -4l-23 -23l-25 -25q-15 -16 -39 -40.5t-52 -50.5l-24 -22t-25 -21q-33 -28 -65 -47t-55 -19q-20 0 -38 17t-29 38q-7 12 -10.5 23.5t-3.5 19.5q0 15 7 34t18 39q6 12 13 24t14 22q7 11 14 20t13 16q20 25 43 48t47 45
q18 16 35.5 32t34.5 31q9 8 22 19.5t26 24.5l13.5 13.5l12.5 12.5q16 18 27 35t11 29q0 9 -11.5 13t-25.5 5h-8h-7q-10 0 -20.5 -0.5t-21.5 -2.5q-48 -6 -93 -22t-74 -34q-18 -11 -28.5 -21.5t-10.5 -18.5q0 -3 2.5 -4.5t6.5 -3.5t10 -3.5t13 -4.5q2 -1 4 -1.5t4 -1.5
q6 -2 12 -3.5t16 -3.5v0z" />
    <glyph glyph-name="i" unicode="&#xc9;" horiz-adv-x="950" 
d="M282 435q-8 -2 -18 -4t-20 -5q-7 -1 -14 -2.5t-15 -2.5q-15 -3 -30 -5t-27 -2q-36 0 -49 8t-16 18q-1 3 -1 6.5v6.5v0.5v0.5q0 42 20.5 68.5t50.5 49.5q5 4 10.5 8t10.5 8q28 21 76.5 39.5t100.5 31.5q36 9 71 14t63 5q74 0 97 -5t23 -24q0 -44 -13.5 -78t-37.5 -66
q-15 -19 -32.5 -38t-37.5 -41q-15 -16 -32 -33.5t-35 -36.5q-13 -14 -25.5 -28t-24.5 -28q-26 -32 -43.5 -63t-17.5 -57q0 -19 3 -31t17 -12q4 0 28 18.5t53 41.5l2 2l2 2q15 11 28.5 22.5t24.5 20.5q283 237 341.5 303t72.5 70q1 1 2 1h2q8 0 16 -10.5t12 -22.5
q3 -7 4.5 -13t1.5 -11v-2v-2q-2 -12 -18.5 -30.5t-55.5 -67.5q-16 -20 -32.5 -42.5t-33.5 -47.5l-26 -38t-25 -39q-41 -65 -69.5 -124t-28.5 -92q0 -20 7.5 -28t19.5 -8q9 0 19.5 3.5t21.5 8.5q7 3 14 7l14 8q10 5 18.5 10.5t14.5 9.5q28 17 37.5 26t15.5 12q1 0 2.5 0.5
t3.5 0.5q9 0 13.5 -3t4.5 -10v-0.5v-1.5q-1 -9 -21.5 -24t-77.5 -58q-64 -48 -92 -58.5t-42 -10.5q-31 0 -52.5 36.5t-21.5 86.5v0.5v1.5q1 37 36.5 94t136.5 216q-81 -73 -138.5 -130t-86.5 -86q-15 -15 -32.5 -32t-37.5 -34q-13 -12 -27 -23.5t-28 -22.5
q-36 -28 -70 -47.5t-58 -19.5q-5 0 -10.5 2.5t-10.5 7.5q-10 8 -19 21t-16 27q-5 11 -8 21t-3 18q0 14 7 33.5t18 40.5q6 11 12.5 22t13.5 22t14 20.5t13 16.5q18 22 36.5 41t37.5 37q13 11 25.5 22.5t24.5 21.5q69 62 109 104.5t40 63.5q0 9 -11.5 13t-25.5 5h-8h-7
q-10 0 -20.5 -0.5t-21.5 -2.5q-47 -6 -91 -21.5t-74 -33.5q-19 -11 -30 -22t-11 -19q0 -4 8 -7.5t18 -6.5q4 -1 7 -2.5t7 -2.5q3 -1 5.5 -1.5t5.5 -1.5l8 -2l8 -2v0zM691 737l102 89q-4 -12 -6 -22.5t-2 -19.5q0 -25 15.5 -36.5t43.5 -11.5q26 0 63.5 12.5t83.5 42.5
q7 5 10.5 6.5t6.5 1.5q2 0 4 -1t2 -4q0 -12 -16.5 -29.5t-43.5 -36.5q-21 -14 -47 -28.5t-53 -26.5q-31 -13 -60 -21.5t-52 -8.5q-27 0 -43 17.5t-16 42.5q0 8 2 16.5t6 17.5v0z" />
    <glyph glyph-name="i" unicode="&#x419;" horiz-adv-x="950" 
d="M282 435q-8 -2 -18 -4t-20 -5q-7 -1 -14 -2.5t-15 -2.5q-15 -3 -30 -5t-27 -2q-36 0 -49 8t-16 18q-1 3 -1 6.5v6.5v0.5v0.5q0 42 20.5 68.5t50.5 49.5q5 4 10.5 8t10.5 8q28 21 76.5 39.5t100.5 31.5q36 9 71 14t63 5q74 0 97 -5t23 -24q0 -44 -13.5 -78t-37.5 -66
q-15 -19 -32.5 -38t-37.5 -41q-15 -16 -32 -33.5t-35 -36.5q-13 -14 -25.5 -28t-24.5 -28q-26 -32 -43.5 -63t-17.5 -57q0 -19 3 -31t17 -12q4 0 28 18.5t53 41.5l2 2l2 2q15 11 28.5 22.5t24.5 20.5q283 237 341.5 303t72.5 70q1 1 2 1h2q8 0 16 -10.5t12 -22.5
q3 -7 4.5 -13t1.5 -11v-2v-2q-2 -12 -18.5 -30.5t-55.5 -67.5q-16 -20 -32.5 -42.5t-33.5 -47.5l-26 -38t-25 -39q-41 -65 -69.5 -124t-28.5 -92q0 -20 7.5 -28t19.5 -8q9 0 19.5 3.5t21.5 8.5q7 3 14 7l14 8q10 5 18.5 10.5t14.5 9.5q28 17 37.5 26t15.5 12q1 0 2.5 0.5
t3.5 0.5q9 0 13.5 -3t4.5 -10v-0.5v-1.5q-1 -9 -21.5 -24t-77.5 -58q-64 -48 -92 -58.5t-42 -10.5q-31 0 -52.5 36.5t-21.5 86.5v0.5v1.5q1 37 36.5 94t136.5 216q-81 -73 -138.5 -130t-86.5 -86q-15 -15 -32.5 -32t-37.5 -34q-13 -12 -27 -23.5t-28 -22.5
q-36 -28 -70 -47.5t-58 -19.5q-5 0 -10.5 2.5t-10.5 7.5q-10 8 -19 21t-16 27q-5 11 -8 21t-3 18q0 14 7 33.5t18 40.5q6 11 12.5 22t13.5 22t14 20.5t13 16.5q18 22 36.5 41t37.5 37q13 11 25.5 22.5t24.5 21.5q69 62 109 104.5t40 63.5q0 9 -11.5 13t-25.5 5h-8h-7
q-10 0 -20.5 -0.5t-21.5 -2.5q-47 -6 -91 -21.5t-74 -33.5q-19 -11 -30 -22t-11 -19q0 -4 8 -7.5t18 -6.5q4 -1 7 -2.5t7 -2.5q3 -1 5.5 -1.5t5.5 -1.5l8 -2l8 -2v0zM691 737l102 89q-4 -12 -6 -22.5t-2 -19.5q0 -25 15.5 -36.5t43.5 -11.5q26 0 63.5 12.5t83.5 42.5
q7 5 10.5 6.5t6.5 1.5q2 0 4 -1t2 -4q0 -12 -16.5 -29.5t-43.5 -36.5q-21 -14 -47 -28.5t-53 -26.5q-31 -13 -60 -21.5t-52 -8.5q-27 0 -43 17.5t-16 42.5q0 8 2 16.5t6 17.5v0z" />
    <glyph glyph-name="j" unicode="&#xca;" horiz-adv-x="835" 
d="M515 452l380 184q3 -8 4 -15.5t1 -14.5q0 -36 -26.5 -61.5t-58.5 -45.5q-6 -4 -12.5 -7.5t-12.5 -7.5q-5 -3 -10.5 -6t-10.5 -6q-7 -4 -14.5 -8t-16.5 -8q-5 -2 -10.5 -4.5t-11.5 -4.5l-2 6t-3 6q-4 7 -9 12.5t-11 5.5q-4 0 -10 -1t-13 -3q-3 -1 -6.5 -2t-6.5 -2
q-3 -2 -6 -3t-5 -2l-181 -87l-41 -55l284 -188q41 -27 56 -64t15 -79q0 -3 -0.5 -10t-2.5 -14q-1 -11 -4 -19.5t-6 -6.5l-422 282l-85 -105q-1 -2 -1.5 -3.5t-0.5 -2.5t0.5 -1.5t0.5 -1.5l0.5 -0.5l0.5 -0.5q0 -1 0.5 -2t1.5 -4q-4 -5 -17 -19.5t-28 -30.5l-6.5 -6.5
l-6.5 -6.5q-16 -16 -30.5 -27.5t-22.5 -11.5q-5 0 -8 2.5t-5 6.5q0 1 -0.5 2.5t-0.5 2.5q0 17 27 59t143 178q-1 2 -2.5 4.5t-2.5 4.5q-3 7 -4 13.5t-1 12.5v5.5t1 4.5v4.5v3.5q0 10 5.5 19t12.5 17l7 7l6 6l94 46l109 146q10 13 14 20t4 12q0 1 -0.5 2l-1.5 3q-2 3 -6 5.5
t-9 2.5q-16 0 -69.5 -20.5t-114.5 -46.5q-6 -2 -11.5 -4.5t-11.5 -4.5q-58 -25 -105 -47t-59 -28q-3 -1 -7.5 -3t-10.5 -4q-1 0 -2.5 -0.5t-3.5 -1.5l-14 -4t-10 -2q-12 0 -15.5 6.5t-3.5 13.5v1.5v1.5v4.5v4.5q0 10 1.5 20.5t4.5 21.5q5 19 13.5 38t18.5 35l109 65
q0 -1 -0.5 -4t-0.5 -5q-1 -3 -1 -5.5v-4.5q0 -3 3.5 -5t8.5 -2q2 0 4 0.5t4 1.5q104 47 177 62.5t104 15.5q23 0 39 -14.5t26 -32.5q6 -12 9 -22.5t3 -17.5q0 -12 -2 -19t-7 -13l-91 -119v0z" />
    <glyph glyph-name="j" unicode="&#x41a;" horiz-adv-x="835" 
d="M515 452l380 184q3 -8 4 -15.5t1 -14.5q0 -36 -26.5 -61.5t-58.5 -45.5q-6 -4 -12.5 -7.5t-12.5 -7.5q-5 -3 -10.5 -6t-10.5 -6q-7 -4 -14.5 -8t-16.5 -8q-5 -2 -10.5 -4.5t-11.5 -4.5l-2 6t-3 6q-4 7 -9 12.5t-11 5.5q-4 0 -10 -1t-13 -3q-3 -1 -6.5 -2t-6.5 -2
q-3 -2 -6 -3t-5 -2l-181 -87l-41 -55l284 -188q41 -27 56 -64t15 -79q0 -3 -0.5 -10t-2.5 -14q-1 -11 -4 -19.5t-6 -6.5l-422 282l-85 -105q-1 -2 -1.5 -3.5t-0.5 -2.5t0.5 -1.5t0.5 -1.5l0.5 -0.5l0.5 -0.5q0 -1 0.5 -2t1.5 -4q-4 -5 -17 -19.5t-28 -30.5l-6.5 -6.5
l-6.5 -6.5q-16 -16 -30.5 -27.5t-22.5 -11.5q-5 0 -8 2.5t-5 6.5q0 1 -0.5 2.5t-0.5 2.5q0 17 27 59t143 178q-1 2 -2.5 4.5t-2.5 4.5q-3 7 -4 13.5t-1 12.5v5.5t1 4.5v4.5v3.5q0 10 5.5 19t12.5 17l7 7l6 6l94 46l109 146q10 13 14 20t4 12q0 1 -0.5 2l-1.5 3q-2 3 -6 5.5
t-9 2.5q-16 0 -69.5 -20.5t-114.5 -46.5q-6 -2 -11.5 -4.5t-11.5 -4.5q-58 -25 -105 -47t-59 -28q-3 -1 -7.5 -3t-10.5 -4q-1 0 -2.5 -0.5t-3.5 -1.5l-14 -4t-10 -2q-12 0 -15.5 6.5t-3.5 13.5v1.5v1.5v4.5v4.5q0 10 1.5 20.5t4.5 21.5q5 19 13.5 38t18.5 35l109 65
q0 -1 -0.5 -4t-0.5 -5q-1 -3 -1 -5.5v-4.5q0 -3 3.5 -5t8.5 -2q2 0 4 0.5t4 1.5q104 47 177 62.5t104 15.5q23 0 39 -14.5t26 -32.5q6 -12 9 -22.5t3 -17.5q0 -12 -2 -19t-7 -13l-91 -119v0z" />
    <glyph glyph-name="k" unicode="&#xcb;" horiz-adv-x="706" 
d="M142 134q18 22 59.5 67.5t88.5 95.5q2 3 4.5 5.5t4.5 5.5q40 43 77.5 82t61.5 62q15 15 48 43.5t71 59.5q5 4 10.5 8.5t10.5 9.5q48 38 90 67.5t56 29.5q3 0 6.5 -2t7.5 -5q8 -8 15.5 -21.5t11.5 -28.5q2 -8 3.5 -15t1.5 -14v-0.5v-0.5q0 -15 -13.5 -35t-45.5 -68
q-130 -191 -164 -273.5t-34 -111.5q0 -19 6 -30t13 -17q2 -2 5 -3.5l5 -2.5q4 -1 7.5 -2t7.5 -1h4t4 1q2 0 4 0.5t4 1.5q2 0 4 1t4 1q19 7 39 21t45 33q9 7 14.5 11.5t10.5 9.5h0.5h0.5l1.5 1.5l1.5 1.5q4 3 5.5 4t3.5 2h1h2h1.5h1.5v0h1v0v0q2 0 4.5 -1t3.5 -6q1 -2 1 -3.5
t-1 -3.5q-1 -4 -6.5 -11t-12.5 -14q-2 -2 -3.5 -3t-2.5 -3q-8 -7 -14.5 -13.5t-9.5 -8.5q-100 -88 -148 -111t-72 -23q-5 0 -11.5 1.5t-13.5 4.5q-15 6 -27.5 23t-12.5 46q0 75 69.5 195.5t159.5 274.5q1 2 2.5 4t2.5 4q1 1 1.5 2.5t1.5 3.5q2 3 3 6.5t1 5.5q0 4 -5 7t-12 3
q-12 0 -37.5 -16.5t-53.5 -38.5l-10 -8l-10 -8q-24 -20 -44.5 -38t-29.5 -27q-52 -51 -121 -130t-155 -192q-20 -26 -30.5 -37.5t-19.5 -13.5q-3 -1 -6.5 -1.5t-7.5 -0.5h-4.5h-5.5q-3 1 -6 1h-7h-4.5h-4.5q-16 0 -22.5 8.5t-6.5 56.5v0.5v0.5q0 26 9 85t62 124q1 2 2 3l2 2
q10 12 28.5 22t37.5 17q20 7 38 11t28 4h1.5h0.5q3 0 5 -0.5t2 -1.5v-0.5v-0.5q-2 -6 -14.5 -17t-35.5 -49q-3 -5 -9 -16t-13 -26q-8 -18 -15 -40t-9 -47v0z" />
    <glyph glyph-name="k" unicode="&#x41b;" horiz-adv-x="706" 
d="M142 134q18 22 59.5 67.5t88.5 95.5q2 3 4.5 5.5t4.5 5.5q40 43 77.5 82t61.5 62q15 15 48 43.5t71 59.5q5 4 10.5 8.5t10.5 9.5q48 38 90 67.5t56 29.5q3 0 6.5 -2t7.5 -5q8 -8 15.5 -21.5t11.5 -28.5q2 -8 3.5 -15t1.5 -14v-0.5v-0.5q0 -15 -13.5 -35t-45.5 -68
q-130 -191 -164 -273.5t-34 -111.5q0 -19 6 -30t13 -17q2 -2 5 -3.5l5 -2.5q4 -1 7.5 -2t7.5 -1h4t4 1q2 0 4 0.5t4 1.5q2 0 4 1t4 1q19 7 39 21t45 33q9 7 14.5 11.5t10.5 9.5h0.5h0.5l1.5 1.5l1.5 1.5q4 3 5.5 4t3.5 2h1h2h1.5h1.5v0h1v0v0q2 0 4.5 -1t3.5 -6q1 -2 1 -3.5
t-1 -3.5q-1 -4 -6.5 -11t-12.5 -14q-2 -2 -3.5 -3t-2.5 -3q-8 -7 -14.5 -13.5t-9.5 -8.5q-100 -88 -148 -111t-72 -23q-5 0 -11.5 1.5t-13.5 4.5q-15 6 -27.5 23t-12.5 46q0 75 69.5 195.5t159.5 274.5q1 2 2.5 4t2.5 4q1 1 1.5 2.5t1.5 3.5q2 3 3 6.5t1 5.5q0 4 -5 7t-12 3
q-12 0 -37.5 -16.5t-53.5 -38.5l-10 -8l-10 -8q-24 -20 -44.5 -38t-29.5 -27q-52 -51 -121 -130t-155 -192q-20 -26 -30.5 -37.5t-19.5 -13.5q-3 -1 -6.5 -1.5t-7.5 -0.5h-4.5h-5.5q-3 1 -6 1h-7h-4.5h-4.5q-16 0 -22.5 8.5t-6.5 56.5v0.5v0.5q0 26 9 85t62 124q1 2 2 3l2 2
q10 12 28.5 22t37.5 17q20 7 38 11t28 4h1.5h0.5q3 0 5 -0.5t2 -1.5v-0.5v-0.5q-2 -6 -14.5 -17t-35.5 -49q-3 -5 -9 -16t-13 -26q-8 -18 -15 -40t-9 -47v0z" />
    <glyph glyph-name="l" unicode="&#xcc;" horiz-adv-x="1033" 
d="M548 196q25 29 46 53t42 47q3 4 7 8t8 9q33 37 73.5 77.5t102.5 96.5q127 114 166 134.5t47 20.5q2 0 5 -0.5t5 -1.5q12 -6 22.5 -22t10.5 -34q0 -4 -0.5 -8.5t-2.5 -8.5q-22 -27 -39.5 -48.5t-34.5 -41.5q-2 -2 -3 -3.5t-3 -2.5q-11 -14 -23 -27.5t-25 -28.5t-29.5 -36
t-33.5 -45q-15 -22 -29.5 -46t-27.5 -49q-17 -34 -28.5 -67t-11.5 -61q0 -42 13 -59t30 -17q10 0 27 8t35 20q5 3 10.5 6.5t10.5 7.5q15 10 27.5 19.5t18.5 15.5q2 2 4.5 4t5.5 4l2.5 2.5t3.5 2.5q6 5 12 8.5t10 3.5h1.5h0.5q3 -1 5.5 -3t3.5 -4v-0.5v-1.5q0 -5 -8 -15
t-18 -22q-2 -1 -3.5 -3t-3.5 -4q-8 -9 -15.5 -16.5t-12.5 -11.5q-18 -17 -37.5 -33t-39.5 -28q-36 -25 -71 -40t-64 -15q-6 0 -15 2.5t-19 8.5q-15 10 -28 30.5t-13 57.5q0 52 20.5 101.5t44.5 87.5q10 16 20 30t18 25q58 76 72 97t14 28q0 3 -2.5 5.5t-7.5 2.5
q-7 0 -35 -19t-111 -104q-26 -27 -73.5 -79.5t-98.5 -120.5q-10 -13 -19.5 -26.5t-19.5 -27.5q-23 -33 -32 -45.5t-15 -13.5h-1.5h-0.5h-3.5h-3.5q-11 2 -20.5 11t-9.5 31q0 20 22 87.5t95 199.5q65 115 86 148t21 41q0 4 -5 7t-12 3q-13 0 -38.5 -16t-52.5 -38
q-6 -5 -11.5 -9.5t-10.5 -8.5q-23 -19 -42.5 -36.5t-29.5 -27.5q-52 -51 -121.5 -130t-154.5 -192q-20 -26 -30.5 -37.5t-19.5 -13.5q-3 -1 -6.5 -1.5t-7.5 -0.5h-4.5h-5.5q-3 1 -6 1h-7h-4.5h-4.5q-16 0 -22.5 8.5t-6.5 56.5q0 64 16.5 111.5t36.5 77.5q11 16 21 26.5
t18 16.5q4 3 11.5 6.5t17.5 6.5q7 3 14.5 5.5t14.5 4.5q21 6 38.5 10t22.5 4h0.5h1.5t2 -0.5t1 -1.5t-0.5 -2.5t-0.5 -2.5q-4 -8 -18.5 -18.5t-30.5 -33.5q-14 -20 -27 -53t-19 -86q18 21 59.5 67t87.5 96l5.5 5.5t4.5 5.5q40 43 77.5 82t61.5 62q16 15 48 43.5t69 58.5
q6 5 11.5 10t11.5 9q47 38 89 67.5t57 29.5q3 0 6.5 -2t7.5 -5q8 -8 15.5 -21.5t11.5 -28.5q2 -8 3.5 -15t1.5 -14q0 -17 -17.5 -42.5t-58.5 -86.5q-13 -19 -25 -37t-23 -36q-27 -44 -51.5 -89t-46.5 -97v0z" />
    <glyph glyph-name="l" unicode="&#x41c;" horiz-adv-x="1033" 
d="M548 196q25 29 46 53t42 47q3 4 7 8t8 9q33 37 73.5 77.5t102.5 96.5q127 114 166 134.5t47 20.5q2 0 5 -0.5t5 -1.5q12 -6 22.5 -22t10.5 -34q0 -4 -0.5 -8.5t-2.5 -8.5q-22 -27 -39.5 -48.5t-34.5 -41.5q-2 -2 -3 -3.5t-3 -2.5q-11 -14 -23 -27.5t-25 -28.5t-29.5 -36
t-33.5 -45q-15 -22 -29.5 -46t-27.5 -49q-17 -34 -28.5 -67t-11.5 -61q0 -42 13 -59t30 -17q10 0 27 8t35 20q5 3 10.5 6.5t10.5 7.5q15 10 27.5 19.5t18.5 15.5q2 2 4.5 4t5.5 4l2.5 2.5t3.5 2.5q6 5 12 8.5t10 3.5h1.5h0.5q3 -1 5.5 -3t3.5 -4v-0.5v-1.5q0 -5 -8 -15
t-18 -22q-2 -1 -3.5 -3t-3.5 -4q-8 -9 -15.5 -16.5t-12.5 -11.5q-18 -17 -37.5 -33t-39.5 -28q-36 -25 -71 -40t-64 -15q-6 0 -15 2.5t-19 8.5q-15 10 -28 30.5t-13 57.5q0 52 20.5 101.5t44.5 87.5q10 16 20 30t18 25q58 76 72 97t14 28q0 3 -2.5 5.5t-7.5 2.5
q-7 0 -35 -19t-111 -104q-26 -27 -73.5 -79.5t-98.5 -120.5q-10 -13 -19.5 -26.5t-19.5 -27.5q-23 -33 -32 -45.5t-15 -13.5h-1.5h-0.5h-3.5h-3.5q-11 2 -20.5 11t-9.5 31q0 20 22 87.5t95 199.5q65 115 86 148t21 41q0 4 -5 7t-12 3q-13 0 -38.5 -16t-52.5 -38
q-6 -5 -11.5 -9.5t-10.5 -8.5q-23 -19 -42.5 -36.5t-29.5 -27.5q-52 -51 -121.5 -130t-154.5 -192q-20 -26 -30.5 -37.5t-19.5 -13.5q-3 -1 -6.5 -1.5t-7.5 -0.5h-4.5h-5.5q-3 1 -6 1h-7h-4.5h-4.5q-16 0 -22.5 8.5t-6.5 56.5q0 64 16.5 111.5t36.5 77.5q11 16 21 26.5
t18 16.5q4 3 11.5 6.5t17.5 6.5q7 3 14.5 5.5t14.5 4.5q21 6 38.5 10t22.5 4h0.5h1.5t2 -0.5t1 -1.5t-0.5 -2.5t-0.5 -2.5q-4 -8 -18.5 -18.5t-30.5 -33.5q-14 -20 -27 -53t-19 -86q18 21 59.5 67t87.5 96l5.5 5.5t4.5 5.5q40 43 77.5 82t61.5 62q16 15 48 43.5t69 58.5
q6 5 11.5 10t11.5 9q47 38 89 67.5t57 29.5q3 0 6.5 -2t7.5 -5q8 -8 15.5 -21.5t11.5 -28.5q2 -8 3.5 -15t1.5 -14q0 -17 -17.5 -42.5t-58.5 -86.5q-13 -19 -25 -37t-23 -36q-27 -44 -51.5 -89t-46.5 -97v0z" />
    <glyph glyph-name="m" unicode="&#xcd;" horiz-adv-x="862" 
d="M445 333l168 180l1.5 1.5l1.5 1.5l0.5 0.5l0.5 0.5q2 3 5.5 8t12.5 16q17 20 25.5 35.5t8.5 28.5q0 12 -6.5 18t-14.5 8q-4 1 -8.5 1.5t-7.5 0.5q-30 0 -70 -5.5t-82 -15.5q-59 -14 -112.5 -33.5t-78.5 -39.5l-1.5 -1.5l-1.5 -1.5q-2 -4 -3.5 -9t-1.5 -10v-2.5t1 -2.5
q0 -1 0.5 -2.5t0.5 -2.5l-170 -84q-2 1 -3.5 3t-3.5 4q-6 6 -10 14t-4 20t4.5 33t13.5 44q9 22 22.5 43t32.5 33q26 17 68.5 32t88.5 27q30 8 60 14.5t55 11.5q11 2 20.5 4t19.5 3q24 5 51.5 8t72.5 3h10.5h10.5q76 0 104 -11.5t28 -81.5q0 -26 -10.5 -45t-26.5 -36
l-179 -201q27 4 66 8.5t90 10.5q5 6 40 46.5t76 86.5q2 2 3 3.5t3 3.5q43 49 80 88.5t42 39.5q4 0 6 -7.5t2 -15.5v-3v-2q0 -14 -6.5 -24.5t-13.5 -18.5q-3 -3 -5 -5.5t-4 -4.5q-14 -17 -27 -33t-25 -31q-7 -9 -14 -18.5t-14 -18.5q-15 -20 -30 -41t-32 -45q4 0 8 0.5t8 0.5
q9 1 20 1.5t23 0.5q11 0 23 -0.5t26 -1.5l-68 -125q-10 1 -19.5 1h-19.5q-20 0 -40.5 -1.5t-41.5 -3.5q-14 -19 -27.5 -36.5t-23.5 -34.5q-15 -22 -23 -45t-8 -50v-10.5t1 -11.5l-87 -48q-1 2 -1.5 4.5t-1.5 6.5q-2 6 -3 13.5t-1 17.5q0 29 18 76.5t76 114.5
q-47 -6 -95 -10.5t-98 -7.5q-13 -12 -23 -22t-19 -20q-2 -2 -4.5 -4t-4.5 -5q-7 -8 -15 -17t-17 -19q-39 -44 -56 -67.5t-17 -41.5v-4.5t1 -4.5q0 -3 1 -5.5t2 -4.5q-20 2 -36.5 12.5t-23.5 23.5q-2 3 -3 7t-1 7q0 15 28.5 53t67.5 81q6 8 13 15.5t14 14.5q-7 -1 -15.5 -1.5
t-17.5 -0.5h-2.5h-2.5q-24 1 -43.5 10.5t-19.5 38.5q0 9 4 19t9 21q4 7 8 13.5t8 12.5q5 6 9 12t8 11q0 -18 17 -24.5t78 -6.5q15 0 28 1.5t25 4.5q6 2 12.5 4t12.5 4v0z" />
    <glyph glyph-name="m" unicode="&#x41d;" horiz-adv-x="862" 
d="M445 333l168 180l1.5 1.5l1.5 1.5l0.5 0.5l0.5 0.5q2 3 5.5 8t12.5 16q17 20 25.5 35.5t8.5 28.5q0 12 -6.5 18t-14.5 8q-4 1 -8.5 1.5t-7.5 0.5q-30 0 -70 -5.5t-82 -15.5q-59 -14 -112.5 -33.5t-78.5 -39.5l-1.5 -1.5l-1.5 -1.5q-2 -4 -3.5 -9t-1.5 -10v-2.5t1 -2.5
q0 -1 0.5 -2.5t0.5 -2.5l-170 -84q-2 1 -3.5 3t-3.5 4q-6 6 -10 14t-4 20t4.5 33t13.5 44q9 22 22.5 43t32.5 33q26 17 68.5 32t88.5 27q30 8 60 14.5t55 11.5q11 2 20.5 4t19.5 3q24 5 51.5 8t72.5 3h10.5h10.5q76 0 104 -11.5t28 -81.5q0 -26 -10.5 -45t-26.5 -36
l-179 -201q27 4 66 8.5t90 10.5q5 6 40 46.5t76 86.5q2 2 3 3.5t3 3.5q43 49 80 88.5t42 39.5q4 0 6 -7.5t2 -15.5v-3v-2q0 -14 -6.5 -24.5t-13.5 -18.5q-3 -3 -5 -5.5t-4 -4.5q-14 -17 -27 -33t-25 -31q-7 -9 -14 -18.5t-14 -18.5q-15 -20 -30 -41t-32 -45q4 0 8 0.5t8 0.5
q9 1 20 1.5t23 0.5q11 0 23 -0.5t26 -1.5l-68 -125q-10 1 -19.5 1h-19.5q-20 0 -40.5 -1.5t-41.5 -3.5q-14 -19 -27.5 -36.5t-23.5 -34.5q-15 -22 -23 -45t-8 -50v-10.5t1 -11.5l-87 -48q-1 2 -1.5 4.5t-1.5 6.5q-2 6 -3 13.5t-1 17.5q0 29 18 76.5t76 114.5
q-47 -6 -95 -10.5t-98 -7.5q-13 -12 -23 -22t-19 -20q-2 -2 -4.5 -4t-4.5 -5q-7 -8 -15 -17t-17 -19q-39 -44 -56 -67.5t-17 -41.5v-4.5t1 -4.5q0 -3 1 -5.5t2 -4.5q-20 2 -36.5 12.5t-23.5 23.5q-2 3 -3 7t-1 7q0 15 28.5 53t67.5 81q6 8 13 15.5t14 14.5q-7 -1 -15.5 -1.5
t-17.5 -0.5h-2.5h-2.5q-24 1 -43.5 10.5t-19.5 38.5q0 9 4 19t9 21q4 7 8 13.5t8 12.5q5 6 9 12t8 11q0 -18 17 -24.5t78 -6.5q15 0 28 1.5t25 4.5q6 2 12.5 4t12.5 4v0z" />
    <glyph glyph-name="n" unicode="&#xce;" horiz-adv-x="622" 
d="M545 567h3.5t3.5 1h3h3q41 0 70.5 -27.5t29.5 -83.5q0 -37 -13.5 -82.5t-38.5 -91.5q-56 -105 -158.5 -192.5t-222.5 -87.5q-12 0 -22.5 1t-21.5 5q-8 2 -16 6t-16 10q-32 28 -50.5 58t-26.5 61q-4 15 -6 30.5t-2 30.5q0 123 77.5 220.5t170.5 161.5q69 48 131.5 76
t93.5 32q4 1 7.5 1h6.5h4.5t4.5 -1q17 -4 33 -22t27 -38q6 -10 10 -20t7 -18q-29 -3 -49.5 -10.5t-35.5 -15.5q-2 -1 -3.5 -2t-3.5 -2v0zM271 347l-24 10l-2.5 -2.5l-3.5 -3.5q-19 -22 -38 -55.5t-31 -69.5q-9 -25 -14 -48.5t-5 -43.5q0 -28 12 -46t27 -25q5 -3 10 -4t9 -1
q28 0 74.5 25.5t96.5 66.5q49 41 95 93t74 106q16 29 24.5 57.5t8.5 55.5q0 28 -10.5 44.5t-39.5 16.5q-23 0 -49 -9.5t-52 -24.5q-29 -18 -57 -40t-53 -46q-15 -14 -28 -28.5t-24 -27.5v0z" />
    <glyph glyph-name="n" unicode="&#x41e;" horiz-adv-x="622" 
d="M545 567h3.5t3.5 1h3h3q41 0 70.5 -27.5t29.5 -83.5q0 -37 -13.5 -82.5t-38.5 -91.5q-56 -105 -158.5 -192.5t-222.5 -87.5q-12 0 -22.5 1t-21.5 5q-8 2 -16 6t-16 10q-32 28 -50.5 58t-26.5 61q-4 15 -6 30.5t-2 30.5q0 123 77.5 220.5t170.5 161.5q69 48 131.5 76
t93.5 32q4 1 7.5 1h6.5h4.5t4.5 -1q17 -4 33 -22t27 -38q6 -10 10 -20t7 -18q-29 -3 -49.5 -10.5t-35.5 -15.5q-2 -1 -3.5 -2t-3.5 -2v0zM271 347l-24 10l-2.5 -2.5l-3.5 -3.5q-19 -22 -38 -55.5t-31 -69.5q-9 -25 -14 -48.5t-5 -43.5q0 -28 12 -46t27 -25q5 -3 10 -4t9 -1
q28 0 74.5 25.5t96.5 66.5q49 41 95 93t74 106q16 29 24.5 57.5t8.5 55.5q0 28 -10.5 44.5t-39.5 16.5q-23 0 -49 -9.5t-52 -24.5q-29 -18 -57 -40t-53 -46q-15 -14 -28 -28.5t-24 -27.5v0z" />
    <glyph glyph-name="o" unicode="&#xcf;" horiz-adv-x="809" 
d="M272 679q0 -11 6 -20t16 -9q5 0 10.5 1.5t9.5 3.5q12 6 25.5 13t27.5 14q29 16 61.5 28.5t68.5 12.5q37 0 54 -19.5t17 -46.5q0 -6 -0.5 -11.5t-2.5 -11.5q-1 -6 -3.5 -12t-5.5 -12q-75 -168 -128.5 -230.5t-53.5 -93.5v-1v-1q1 -3 2 -5t2 -2h0.5h0.5q5 1 30.5 29.5
t150.5 155.5q12 12 41.5 39t64.5 57q7 6 14 11.5t14 11.5q40 32 76 56t53 24q13 0 24 -14t18 -31q4 -10 6 -20t2 -16q0 -22 -21.5 -57.5t-66.5 -97.5q-9 -13 -35.5 -49.5t-55.5 -82.5l-12 -18t-12 -19q-29 -46 -50 -88.5t-21 -65.5q0 -29 9.5 -41t20.5 -13h1.5h1.5
q18 0 38 12t44 31q25 20 36 34.5t20 22.5q3 3 7 4.5t9 1.5t8 -1.5t4 -3.5q1 -1 1 -1.5v-1.5q0 -7 -10 -22t-48 -53q-100 -97 -148.5 -120.5t-64.5 -23.5h-4t-3 1q-20 3 -36 23t-16 53q0 23 15.5 79.5t86.5 170.5q87 140 120.5 186t33.5 61q0 2 -2 3.5t-4 1.5
q-16 0 -55 -30.5t-83 -71.5q-6 -5 -12 -11t-12 -11q-43 -40 -77 -75t-43 -46q-95 -108 -132 -174t-63 -74q-2 0 -3.5 -0.5t-3.5 -0.5q-4 0 -9 1.5t-10 4.5q-3 1 -6 2.5t-5 3.5q-8 4 -15.5 10.5t-11.5 12.5q-3 4 -4.5 7.5t-1.5 6.5q0 8 5 19.5t18 30.5q99 149 175 282.5
t76 197.5q0 11 -3 19.5t-22 8.5q-10 0 -25.5 -6t-31.5 -14q-6 -2 -11 -5l-10 -6q-17 -9 -31 -17.5t-18 -11.5q-12 -8 -22.5 -14.5t-20.5 -13.5q-5 -4 -10.5 -7.5t-10.5 -7.5q-13 -9 -26.5 -19.5t-28.5 -23.5q-33 -28 -47.5 -32.5t-20.5 -4.5h-0.5h-0.5q-1 0 -2.5 1t-2.5 2
q-4 5 -6.5 15.5t-2.5 30.5q0 9 1.5 17.5t5.5 17.5q14 41 53.5 78.5t84.5 63.5q9 5 17.5 9t17.5 8v0z" />
    <glyph glyph-name="o" unicode="&#x41f;" horiz-adv-x="809" 
d="M272 679q0 -11 6 -20t16 -9q5 0 10.5 1.5t9.5 3.5q12 6 25.5 13t27.5 14q29 16 61.5 28.5t68.5 12.5q37 0 54 -19.5t17 -46.5q0 -6 -0.5 -11.5t-2.5 -11.5q-1 -6 -3.5 -12t-5.5 -12q-75 -168 -128.5 -230.5t-53.5 -93.5v-1v-1q1 -3 2 -5t2 -2h0.5h0.5q5 1 30.5 29.5
t150.5 155.5q12 12 41.5 39t64.5 57q7 6 14 11.5t14 11.5q40 32 76 56t53 24q13 0 24 -14t18 -31q4 -10 6 -20t2 -16q0 -22 -21.5 -57.5t-66.5 -97.5q-9 -13 -35.5 -49.5t-55.5 -82.5l-12 -18t-12 -19q-29 -46 -50 -88.5t-21 -65.5q0 -29 9.5 -41t20.5 -13h1.5h1.5
q18 0 38 12t44 31q25 20 36 34.5t20 22.5q3 3 7 4.5t9 1.5t8 -1.5t4 -3.5q1 -1 1 -1.5v-1.5q0 -7 -10 -22t-48 -53q-100 -97 -148.5 -120.5t-64.5 -23.5h-4t-3 1q-20 3 -36 23t-16 53q0 23 15.5 79.5t86.5 170.5q87 140 120.5 186t33.5 61q0 2 -2 3.5t-4 1.5
q-16 0 -55 -30.5t-83 -71.5q-6 -5 -12 -11t-12 -11q-43 -40 -77 -75t-43 -46q-95 -108 -132 -174t-63 -74q-2 0 -3.5 -0.5t-3.5 -0.5q-4 0 -9 1.5t-10 4.5q-3 1 -6 2.5t-5 3.5q-8 4 -15.5 10.5t-11.5 12.5q-3 4 -4.5 7.5t-1.5 6.5q0 8 5 19.5t18 30.5q99 149 175 282.5
t76 197.5q0 11 -3 19.5t-22 8.5q-10 0 -25.5 -6t-31.5 -14q-6 -2 -11 -5l-10 -6q-17 -9 -31 -17.5t-18 -11.5q-12 -8 -22.5 -14.5t-20.5 -13.5q-5 -4 -10.5 -7.5t-10.5 -7.5q-13 -9 -26.5 -19.5t-28.5 -23.5q-33 -28 -47.5 -32.5t-20.5 -4.5h-0.5h-0.5q-1 0 -2.5 1t-2.5 2
q-4 5 -6.5 15.5t-2.5 30.5q0 9 1.5 17.5t5.5 17.5q14 41 53.5 78.5t84.5 63.5q9 5 17.5 9t17.5 8v0z" />
    <glyph glyph-name="p" unicode="&#xd0;" horiz-adv-x="774" 
d="M315 340l160 237q-35 1 -73 -3t-77 -11q-56 -11 -110.5 -26.5t-97.5 -31.5q41 143 141 178.5t271 35.5q112 0 203.5 -43.5t91.5 -195.5q0 -27 -10 -57t-29 -62q-50 -80 -153 -147.5t-239 -67.5q-12 0 -30 1t-38 3q-7 1 -14 1.5t-14 1.5q-11 1 -20.5 2t-16.5 2l-33 -54
q-3 -4 -5 -10t-2 -14q0 -4 1.5 -10t5.5 -12q-5 -7 -8 -12t-6 -9v-0.5v-0.5q-3 -5 -6.5 -10.5t-8.5 -14.5q-29 -47 -43.5 -61.5t-19.5 -14.5h-2h-1h-2h-2h-2.5h-2.5q-5 1 -9.5 5t-7.5 14q-1 2 -1.5 4t-0.5 4q-1 3 -1 5v4v4.5t1 4.5q0 3 0.5 5.5t1.5 4.5q3 11 17 36.5t31 54.5
l4 6t3 7q17 27 32 50t21 31l-6 2t-5 2q-21 8 -38.5 24.5t-17.5 34.5q0 9 2.5 18.5t9.5 19.5q14 19 49.5 36.5t106.5 28.5v0zM533 577l-149 -229q2 0 6.5 0.5t9.5 0.5q4 1 8.5 1h6.5h3.5h3.5h8t6 1h0.5h0.5h4h5q9 0 12.5 -2.5t3.5 -4.5q1 -2 1 -3v-2v-1v0q0 -5 -9.5 -6.5
t-22.5 -2.5h-11t-11 -1q-21 -2 -38 -9t-17 -28q0 -8 10.5 -14t22.5 -9q7 -2 13.5 -3t11.5 -1h8.5h8.5q120 5 220.5 66t100.5 147q0 49 -40 70t-88 27q-16 2 -32 3t-30 1h-7.5h-6.5q-4 -1 -7 -1h-6v0z" />
    <glyph glyph-name="p" unicode="&#x420;" horiz-adv-x="774" 
d="M315 340l160 237q-35 1 -73 -3t-77 -11q-56 -11 -110.5 -26.5t-97.5 -31.5q41 143 141 178.5t271 35.5q112 0 203.5 -43.5t91.5 -195.5q0 -27 -10 -57t-29 -62q-50 -80 -153 -147.5t-239 -67.5q-12 0 -30 1t-38 3q-7 1 -14 1.5t-14 1.5q-11 1 -20.5 2t-16.5 2l-33 -54
q-3 -4 -5 -10t-2 -14q0 -4 1.5 -10t5.5 -12q-5 -7 -8 -12t-6 -9v-0.5v-0.5q-3 -5 -6.5 -10.5t-8.5 -14.5q-29 -47 -43.5 -61.5t-19.5 -14.5h-2h-1h-2h-2h-2.5h-2.5q-5 1 -9.5 5t-7.5 14q-1 2 -1.5 4t-0.5 4q-1 3 -1 5v4v4.5t1 4.5q0 3 0.5 5.5t1.5 4.5q3 11 17 36.5t31 54.5
l4 6t3 7q17 27 32 50t21 31l-6 2t-5 2q-21 8 -38.5 24.5t-17.5 34.5q0 9 2.5 18.5t9.5 19.5q14 19 49.5 36.5t106.5 28.5v0zM533 577l-149 -229q2 0 6.5 0.5t9.5 0.5q4 1 8.5 1h6.5h3.5h3.5h8t6 1h0.5h0.5h4h5q9 0 12.5 -2.5t3.5 -4.5q1 -2 1 -3v-2v-1v0q0 -5 -9.5 -6.5
t-22.5 -2.5h-11t-11 -1q-21 -2 -38 -9t-17 -28q0 -8 10.5 -14t22.5 -9q7 -2 13.5 -3t11.5 -1h8.5h8.5q120 5 220.5 66t100.5 147q0 49 -40 70t-88 27q-16 2 -32 3t-30 1h-7.5h-6.5q-4 -1 -7 -1h-6v0z" />
    <glyph glyph-name="q" unicode="&#xd1;" horiz-adv-x="618" 
d="M437 410l3 -1.5t3 -0.5q3 -1 6 -1.5t6 -0.5q10 0 20.5 5t20.5 13q22 17 42.5 45.5t35.5 59.5q12 24 19 47.5t7 41.5v4.5t1 4.5v6v6q0 11 -3.5 19.5t-14.5 8.5q-35 0 -87.5 -37t-107.5 -96q-45 -48 -88 -106t-77 -118q-36 -63 -58.5 -124t-22.5 -110q0 -65 20.5 -93.5
t45.5 -38.5q14 -6 27 -7.5t23 -1.5q21 0 43 5t44 14q48 20 94.5 53.5t85.5 70.5q22 20 41 39.5t34 36.5q13 14 20 20.5t13 6.5q5 0 7 -3t3 -6v-0.5v-1.5q0 -11 -41 -61t-104 -109q-40 -35 -85 -69.5t-91 -59.5q-36 -19 -71 -30.5t-68 -11.5q-12 0 -24.5 2t-24.5 5
q-47 14 -86.5 57.5t-39.5 124.5q0 31 6 65t17 68q17 53 42.5 105t52.5 95q9 15 18 28t18 25q20 27 46.5 58t57.5 63q33 34 69 66.5t73 60.5q46 34 91.5 56t83.5 22q6 0 12.5 -1t12.5 -3q28 -8 51 -31t23 -52v-1.5v-0.5q0 -31 -17 -103.5t-119 -193.5q-10 -12 -29 -31
t-43 -39q-8 -8 -17 -15l-18 -14q-29 -23 -55.5 -39t-42.5 -16q-10 0 -19.5 11.5t-14.5 24.5l-2 6l-2 6q3 6 5.5 11.5t5.5 10.5q21 40 50.5 77t60.5 63q3 3 6 5.5t6 4.5v0z" />
    <glyph glyph-name="q" unicode="&#x421;" horiz-adv-x="618" 
d="M437 410l3 -1.5t3 -0.5q3 -1 6 -1.5t6 -0.5q10 0 20.5 5t20.5 13q22 17 42.5 45.5t35.5 59.5q12 24 19 47.5t7 41.5v4.5t1 4.5v6v6q0 11 -3.5 19.5t-14.5 8.5q-35 0 -87.5 -37t-107.5 -96q-45 -48 -88 -106t-77 -118q-36 -63 -58.5 -124t-22.5 -110q0 -65 20.5 -93.5
t45.5 -38.5q14 -6 27 -7.5t23 -1.5q21 0 43 5t44 14q48 20 94.5 53.5t85.5 70.5q22 20 41 39.5t34 36.5q13 14 20 20.5t13 6.5q5 0 7 -3t3 -6v-0.5v-1.5q0 -11 -41 -61t-104 -109q-40 -35 -85 -69.5t-91 -59.5q-36 -19 -71 -30.5t-68 -11.5q-12 0 -24.5 2t-24.5 5
q-47 14 -86.5 57.5t-39.5 124.5q0 31 6 65t17 68q17 53 42.5 105t52.5 95q9 15 18 28t18 25q20 27 46.5 58t57.5 63q33 34 69 66.5t73 60.5q46 34 91.5 56t83.5 22q6 0 12.5 -1t12.5 -3q28 -8 51 -31t23 -52v-1.5v-0.5q0 -31 -17 -103.5t-119 -193.5q-10 -12 -29 -31
t-43 -39q-8 -8 -17 -15l-18 -14q-29 -23 -55.5 -39t-42.5 -16q-10 0 -19.5 11.5t-14.5 24.5l-2 6l-2 6q3 6 5.5 11.5t5.5 10.5q21 40 50.5 77t60.5 63q3 3 6 5.5t6 4.5v0z" />
    <glyph glyph-name="Scaron" unicode="&#xd2;" horiz-adv-x="1084" 
d="M450 420q177 178 243.5 227.5t94.5 49.5q3 0 7.5 -2t9.5 -6t10 -9t8 -10q3 -4 4.5 -8t1.5 -7v-0.5v-0.5q0 -12 -14.5 -66t-100.5 -230q185 167 272.5 248.5t113.5 81.5q4 0 9 -4t11 -11q3 -4 7 -9.5t7 -10.5q6 -10 10 -19.5t4 -13.5v-1.5v-1.5q-1 -12 -13.5 -29
t-43.5 -55q-112 -136 -169.5 -227.5t-57.5 -160.5q0 -32 9.5 -51.5t20.5 -24.5q2 -1 4 -1.5t4 -0.5q14 0 33.5 9.5t40.5 23.5q9 6 17.5 12.5t16.5 12.5q13 11 25 21t20 18l2 2l3 3q3 3 7 5.5t8 2.5q6 0 9.5 -2.5t3.5 -6.5q0 -13 -25.5 -39t-62.5 -55q-13 -11 -27.5 -21.5
t-29.5 -20.5q-38 -26 -73.5 -43.5t-54.5 -17.5q-4 0 -9 1t-9 3q-23 9 -42 36.5t-19 64.5q0 25 6.5 51t17.5 53q13 32 31 63.5t37 60.5q35 53 63.5 92t28.5 51q0 6 -42 -22t-139 -133q-8 -8 -15 -16.5t-15 -16.5q-87 -101 -148 -184t-87 -83q-9 0 -16 12.5t-12 28.5
q-3 12 -5 22.5t-3 15.5q-1 4 -1 7.5v6.5v3.5t1 3.5v3v3q0 3 1 6l2 6q6 18 29 47t80 109q99 137 124 192t25 76v4v5q0 5 -1.5 10t-4.5 5q-20 0 -91.5 -57.5t-207.5 -263.5q-96 -145 -127.5 -179t-38.5 -34q-5 0 -11 4.5t-12 11.5q-4 5 -9 11.5t-9 12.5q-8 13 -13 24t-5 15
q0 11 18 40t79 113q125 173 152.5 243.5t27.5 95.5v1v1q0 10 -2 17t-16 7q-30 0 -85 -35.5t-124 -77.5q-17 -10 -34.5 -20t-35.5 -20q-2 -1 -6.5 -3t-9.5 -4q-2 -1 -3.5 -1.5t-2.5 -0.5q-7 -3 -13 -5t-9 -2h-1.5t-0.5 1q-4 1 -7.5 10.5t-3.5 29.5q0 56 8.5 76t18.5 28
q2 1 3.5 2t2.5 2q2 2 3.5 3t2.5 2l70 63q-1 -2 -1 -4.5v-4.5q0 -4 1 -8t3 -6q1 -1 2.5 -1.5t3.5 -1.5h1.5h1.5h3.5t3.5 1q1 0 3 0.5t3 1.5q18 6 41.5 18t48.5 25q5 2 9 4.5t8 4.5q30 15 58 26.5t48 11.5q31 0 49.5 -17t27.5 -37q5 -12 7.5 -23t2.5 -19q0 -12 -10 -43
t-22 -66q-2 -5 -3.5 -9.5t-3.5 -9.5q-12 -31 -22.5 -56.5t-14.5 -35.5v0z" />
    <glyph glyph-name="Scaron" unicode="&#x422;" horiz-adv-x="1084" 
d="M450 420q177 178 243.5 227.5t94.5 49.5q3 0 7.5 -2t9.5 -6t10 -9t8 -10q3 -4 4.5 -8t1.5 -7v-0.5v-0.5q0 -12 -14.5 -66t-100.5 -230q185 167 272.5 248.5t113.5 81.5q4 0 9 -4t11 -11q3 -4 7 -9.5t7 -10.5q6 -10 10 -19.5t4 -13.5v-1.5v-1.5q-1 -12 -13.5 -29
t-43.5 -55q-112 -136 -169.5 -227.5t-57.5 -160.5q0 -32 9.5 -51.5t20.5 -24.5q2 -1 4 -1.5t4 -0.5q14 0 33.5 9.5t40.5 23.5q9 6 17.5 12.5t16.5 12.5q13 11 25 21t20 18l2 2l3 3q3 3 7 5.5t8 2.5q6 0 9.5 -2.5t3.5 -6.5q0 -13 -25.5 -39t-62.5 -55q-13 -11 -27.5 -21.5
t-29.5 -20.5q-38 -26 -73.5 -43.5t-54.5 -17.5q-4 0 -9 1t-9 3q-23 9 -42 36.5t-19 64.5q0 25 6.5 51t17.5 53q13 32 31 63.5t37 60.5q35 53 63.5 92t28.5 51q0 6 -42 -22t-139 -133q-8 -8 -15 -16.5t-15 -16.5q-87 -101 -148 -184t-87 -83q-9 0 -16 12.5t-12 28.5
q-3 12 -5 22.5t-3 15.5q-1 4 -1 7.5v6.5v3.5t1 3.5v3v3q0 3 1 6l2 6q6 18 29 47t80 109q99 137 124 192t25 76v4v5q0 5 -1.5 10t-4.5 5q-20 0 -91.5 -57.5t-207.5 -263.5q-96 -145 -127.5 -179t-38.5 -34q-5 0 -11 4.5t-12 11.5q-4 5 -9 11.5t-9 12.5q-8 13 -13 24t-5 15
q0 11 18 40t79 113q125 173 152.5 243.5t27.5 95.5v1v1q0 10 -2 17t-16 7q-30 0 -85 -35.5t-124 -77.5q-17 -10 -34.5 -20t-35.5 -20q-2 -1 -6.5 -3t-9.5 -4q-2 -1 -3.5 -1.5t-2.5 -0.5q-7 -3 -13 -5t-9 -2h-1.5t-0.5 1q-4 1 -7.5 10.5t-3.5 29.5q0 56 8.5 76t18.5 28
q2 1 3.5 2t2.5 2q2 2 3.5 3t2.5 2l70 63q-1 -2 -1 -4.5v-4.5q0 -4 1 -8t3 -6q1 -1 2.5 -1.5t3.5 -1.5h1.5h1.5h3.5t3.5 1q1 0 3 0.5t3 1.5q18 6 41.5 18t48.5 25q5 2 9 4.5t8 4.5q30 15 58 26.5t48 11.5q31 0 49.5 -17t27.5 -37q5 -12 7.5 -23t2.5 -19q0 -12 -10 -43
t-22 -66q-2 -5 -3.5 -9.5t-3.5 -9.5q-12 -31 -22.5 -56.5t-14.5 -35.5v0z" />
    <glyph glyph-name="r" unicode="&#xd3;" horiz-adv-x="743" 
d="M94 382q-1 10 -1.5 19t-0.5 17q0 33 7 56t16 38q7 13 14 19.5t8 7.5q14 11 52.5 34t89.5 48q23 11 47.5 22.5t48.5 21.5q49 20 95 33t81 13q23 0 32.5 -9.5t9.5 -32.5q0 -5 -0.5 -10t-1.5 -10q-3 -19 -13 -39.5t-25 -45.5q-87 -146 -143.5 -213t-80.5 -118l-4 -10l-4 -10
q-1 -2 -1.5 -4.5t-1.5 -4.5q0 -3 -0.5 -5.5t-0.5 -4.5q0 -3 1 -6t3 -5q3 -3 8.5 -3.5t11.5 -0.5q13 0 71.5 36t221.5 206q4 4 7.5 8t6.5 7q1 2 2.5 3t2.5 2q19 21 43 45t67 66q4 -1 8 -3t8 -5q8 -6 15 -14.5t11 -17.5q1 -3 2 -6.5t1 -6.5v-2.5t-1 -2.5q0 -3 -1.5 -5.5
t-4.5 -4.5q-48 -66 -85.5 -121t-68.5 -107q-25 -42 -47.5 -85t-44.5 -93q-12 -28 -24 -57.5t-25 -63.5q9 8 19.5 16.5t21.5 17.5q14 9 29 19.5t30 19.5q24 14 46.5 24.5t40.5 13.5q2 0 4 0.5t4 0.5h1.5h0.5q4 1 8 1.5t7 0.5t5 -0.5t2 -2.5q0 -8 -26.5 -28t-112.5 -95
q-125 -110 -160.5 -167.5t-52.5 -57.5q-6 0 -12.5 2.5t-13.5 8.5t-13.5 15t-12.5 21q8 49 39.5 122.5t122.5 223.5q66 110 78.5 138t12.5 30q0 6 -48 -43t-114 -110q-16 -14 -32.5 -28.5t-33.5 -28.5q-18 -15 -36 -28.5t-35 -24.5q-5 -5 -10.5 -8.5t-10.5 -5.5
q-6 -2 -11.5 -3t-10.5 -1q-19 0 -35 10.5t-23 23.5q-3 4 -4 7.5t-1 7.5q0 26 26 77t61 107q8 11 15.5 22.5t14.5 23.5q26 38 50.5 72t41.5 56q7 9 16.5 22.5t19.5 28.5q3 6 6.5 11.5t7.5 11.5q15 24 25.5 46t10.5 34q0 4 -2.5 5.5t-7.5 1.5q-19 0 -70 -24.5t-107 -55.5
q-7 -3 -13.5 -7t-12.5 -7q-55 -31 -99.5 -57.5t-57.5 -34.5v0z" />
    <glyph glyph-name="r" unicode="&#x423;" horiz-adv-x="743" 
d="M94 382q-1 10 -1.5 19t-0.5 17q0 33 7 56t16 38q7 13 14 19.5t8 7.5q14 11 52.5 34t89.5 48q23 11 47.5 22.5t48.5 21.5q49 20 95 33t81 13q23 0 32.5 -9.5t9.5 -32.5q0 -5 -0.5 -10t-1.5 -10q-3 -19 -13 -39.5t-25 -45.5q-87 -146 -143.5 -213t-80.5 -118l-4 -10l-4 -10
q-1 -2 -1.5 -4.5t-1.5 -4.5q0 -3 -0.5 -5.5t-0.5 -4.5q0 -3 1 -6t3 -5q3 -3 8.5 -3.5t11.5 -0.5q13 0 71.5 36t221.5 206q4 4 7.5 8t6.5 7q1 2 2.5 3t2.5 2q19 21 43 45t67 66q4 -1 8 -3t8 -5q8 -6 15 -14.5t11 -17.5q1 -3 2 -6.5t1 -6.5v-2.5t-1 -2.5q0 -3 -1.5 -5.5
t-4.5 -4.5q-48 -66 -85.5 -121t-68.5 -107q-25 -42 -47.5 -85t-44.5 -93q-12 -28 -24 -57.5t-25 -63.5q9 8 19.5 16.5t21.5 17.5q14 9 29 19.5t30 19.5q24 14 46.5 24.5t40.5 13.5q2 0 4 0.5t4 0.5h1.5h0.5q4 1 8 1.5t7 0.5t5 -0.5t2 -2.5q0 -8 -26.5 -28t-112.5 -95
q-125 -110 -160.5 -167.5t-52.5 -57.5q-6 0 -12.5 2.5t-13.5 8.5t-13.5 15t-12.5 21q8 49 39.5 122.5t122.5 223.5q66 110 78.5 138t12.5 30q0 6 -48 -43t-114 -110q-16 -14 -32.5 -28.5t-33.5 -28.5q-18 -15 -36 -28.5t-35 -24.5q-5 -5 -10.5 -8.5t-10.5 -5.5
q-6 -2 -11.5 -3t-10.5 -1q-19 0 -35 10.5t-23 23.5q-3 4 -4 7.5t-1 7.5q0 26 26 77t61 107q8 11 15.5 22.5t14.5 23.5q26 38 50.5 72t41.5 56q7 9 16.5 22.5t19.5 28.5q3 6 6.5 11.5t7.5 11.5q15 24 25.5 46t10.5 34q0 4 -2.5 5.5t-7.5 1.5q-19 0 -70 -24.5t-107 -55.5
q-7 -3 -13.5 -7t-12.5 -7q-55 -31 -99.5 -57.5t-57.5 -34.5v0z" />
    <glyph glyph-name="t" unicode="&#xd4;" horiz-adv-x="997" 
d="M668 427l-125 -213q11 11 22.5 21.5t23.5 21.5q115 105 219 184t151 79q6 0 11.5 -2.5t11.5 -6.5q14 -10 28 -29.5t23 -40.5q6 -15 10 -29t4 -25q0 -29 -15 -65t-39 -73q-18 -28 -40 -56t-44 -53q-19 -21 -37 -38.5t-34 -31.5q-8 -7 -21.5 -18t-29.5 -23l-14 -10l-14 -10
q-19 -12 -37 -20.5t-31 -8.5q-11 0 -18 5t-13 11l-3.5 3.5l-3.5 3.5q-3 3 -5 5.5t-4 4.5q-7 8 -11 17t-4 25q0 7 1 14t4 14q9 32 34.5 61.5t53.5 52.5q25 19 47.5 30.5t34.5 11.5h1.5h0.5q3 0 5 -1.5t2 -5.5q0 -2 -0.5 -3.5t-1.5 -2.5q-3 -6 -13 -14t-29 -27q-6 -6 -13 -16
t-14 -23q-5 -8 -9.5 -16.5t-9.5 -17.5q-10 -20 -16.5 -38.5t-6.5 -29.5v-2.5v-2.5q0 -4 0.5 -7t2.5 -3q7 0 24.5 16.5t37.5 37.5q2 3 4.5 5.5l4.5 4.5q20 23 36 42t19 22q1 2 2.5 3.5l3.5 3.5q52 67 96 129t44 120v7v6q0 8 -4.5 11t-22.5 3q-30 0 -110.5 -64t-170.5 -148
q-12 -12 -24.5 -23.5t-24.5 -23.5q-77 -74 -141.5 -140t-90.5 -97l-135 -241q-1 0 -1.5 -1t-0.5 -2q-3 -4 -7 -8t-11 -4q-11 0 -18.5 22t-11.5 49q-2 12 -3 24.5t-1 22.5q0 37 40.5 100.5t173.5 182.5l76 148q-28 -30 -58.5 -57.5t-61.5 -51.5q-76 -60 -146 -95.5
t-108 -35.5q-7 0 -17.5 6.5t-21.5 16.5q-8 8 -16 17.5t-14 19.5q-10 14 -16 27t-6 22q0 40 24.5 101.5t72.5 127.5q30 42 68.5 82.5t85.5 75.5q35 26 79 51t90 46q62 29 120 47t94 18q24 0 37 -14.5t19 -32.5q4 -12 5.5 -23.5t1.5 -17.5q0 -8 -6 -17.5t-15 -18.5
q-12 -11 -27 -22t-31 -20q-23 -13 -43.5 -22.5t-29.5 -12.5q-4 -1 -6.5 -2t-4.5 -2h-1h-1q-1 -1 -2.5 -1t-3.5 -1l4.5 4.5t4.5 6.5q3 3 5.5 6.5t4.5 6.5q4 7 6.5 13.5t2.5 10.5t-4 6.5t-8 3.5q-1 0 -2 0.5t-2 0.5h-0.5h-1.5h-1.5h-0.5h-3h-4q-27 -3 -63.5 -20t-75.5 -40
q-18 -11 -36 -23t-35 -25q-14 -9 -26.5 -19t-24.5 -19q-9 -7 -17 -13.5t-15 -13.5q-86 -76 -119 -144t-33 -95q0 -20 8.5 -25t21.5 -5h8h8q21 0 43 6.5t45 17.5q32 15 63.5 37.5t58.5 45.5q41 35 70.5 66t37.5 39q27 27 49 52t43 45q23 23 48.5 37.5t59.5 15.5v0z" />
    <glyph glyph-name="t" unicode="&#x424;" horiz-adv-x="997" 
d="M668 427l-125 -213q11 11 22.5 21.5t23.5 21.5q115 105 219 184t151 79q6 0 11.5 -2.5t11.5 -6.5q14 -10 28 -29.5t23 -40.5q6 -15 10 -29t4 -25q0 -29 -15 -65t-39 -73q-18 -28 -40 -56t-44 -53q-19 -21 -37 -38.5t-34 -31.5q-8 -7 -21.5 -18t-29.5 -23l-14 -10l-14 -10
q-19 -12 -37 -20.5t-31 -8.5q-11 0 -18 5t-13 11l-3.5 3.5l-3.5 3.5q-3 3 -5 5.5t-4 4.5q-7 8 -11 17t-4 25q0 7 1 14t4 14q9 32 34.5 61.5t53.5 52.5q25 19 47.5 30.5t34.5 11.5h1.5h0.5q3 0 5 -1.5t2 -5.5q0 -2 -0.5 -3.5t-1.5 -2.5q-3 -6 -13 -14t-29 -27q-6 -6 -13 -16
t-14 -23q-5 -8 -9.5 -16.5t-9.5 -17.5q-10 -20 -16.5 -38.5t-6.5 -29.5v-2.5v-2.5q0 -4 0.5 -7t2.5 -3q7 0 24.5 16.5t37.5 37.5q2 3 4.5 5.5l4.5 4.5q20 23 36 42t19 22q1 2 2.5 3.5l3.5 3.5q52 67 96 129t44 120v7v6q0 8 -4.5 11t-22.5 3q-30 0 -110.5 -64t-170.5 -148
q-12 -12 -24.5 -23.5t-24.5 -23.5q-77 -74 -141.5 -140t-90.5 -97l-135 -241q-1 0 -1.5 -1t-0.5 -2q-3 -4 -7 -8t-11 -4q-11 0 -18.5 22t-11.5 49q-2 12 -3 24.5t-1 22.5q0 37 40.5 100.5t173.5 182.5l76 148q-28 -30 -58.5 -57.5t-61.5 -51.5q-76 -60 -146 -95.5
t-108 -35.5q-7 0 -17.5 6.5t-21.5 16.5q-8 8 -16 17.5t-14 19.5q-10 14 -16 27t-6 22q0 40 24.5 101.5t72.5 127.5q30 42 68.5 82.5t85.5 75.5q35 26 79 51t90 46q62 29 120 47t94 18q24 0 37 -14.5t19 -32.5q4 -12 5.5 -23.5t1.5 -17.5q0 -8 -6 -17.5t-15 -18.5
q-12 -11 -27 -22t-31 -20q-23 -13 -43.5 -22.5t-29.5 -12.5q-4 -1 -6.5 -2t-4.5 -2h-1h-1q-1 -1 -2.5 -1t-3.5 -1l4.5 4.5t4.5 6.5q3 3 5.5 6.5t4.5 6.5q4 7 6.5 13.5t2.5 10.5t-4 6.5t-8 3.5q-1 0 -2 0.5t-2 0.5h-0.5h-1.5h-1.5h-0.5h-3h-4q-27 -3 -63.5 -20t-75.5 -40
q-18 -11 -36 -23t-35 -25q-14 -9 -26.5 -19t-24.5 -19q-9 -7 -17 -13.5t-15 -13.5q-86 -76 -119 -144t-33 -95q0 -20 8.5 -25t21.5 -5h8h8q21 0 43 6.5t45 17.5q32 15 63.5 37.5t58.5 45.5q41 35 70.5 66t37.5 39q27 27 49 52t43 45q23 23 48.5 37.5t59.5 15.5v0z" />
    <glyph glyph-name="u" unicode="&#xd5;" horiz-adv-x="735" 
d="M557 433l203 208q11 11 16 14.5t6 3.5h1.5h0.5q6 -1 10.5 -7t4.5 -17q0 -5 -1 -10l-2 -10q-4 -11 -9.5 -21.5t-11.5 -19.5q-6 -7 -10.5 -13t-8.5 -10l-34 -10l-167 -176l-16 -206v-62q0 -15 6.5 -24t13.5 -12q3 -1 5 -1.5t4 -0.5q11 0 24.5 6.5t37.5 22.5q14 10 26 18
t16 8h2h2q2 -1 4 -3t2 -6q0 -11 -16 -29t-40 -38q-10 -9 -21.5 -17.5t-23.5 -16.5q-28 -18 -53 -31t-38 -13q-4 0 -9.5 1t-10.5 4q-12 5 -22 19.5t-9 41.5v3v3v2.5v2.5l18 250l-301 -282l-1.5 -1.5t-1.5 -0.5q-6 -6 -14.5 -11t-18.5 -5t-12.5 6.5t-2.5 15.5q0 13 6 28.5
t17 31.5q9 14 20.5 28.5t24.5 27.5q8 8 16 15.5t15 13.5l65 24l190 176l11 191v35q0 10 -4.5 15.5t-15.5 5.5q-20 0 -61 -13.5t-86 -35.5q-24 -12 -47.5 -25t-43.5 -27q-7 -5 -11 -9.5t-4 -6.5q0 -1 1.5 -2t4.5 -1q2 -1 6 -2l8 -2q2 0 4.5 -0.5t4.5 -0.5q2 -1 4 -1.5t4 -0.5
q3 -1 6.5 -2t7.5 -2q-3 -2 -17 -8.5t-32 -13.5q-6 -2 -12 -4.5t-12 -4.5q-17 -6 -33.5 -10t-26.5 -4q-15 0 -19 2.5t-4 11.5q0 13 2 32.5t8 40.5q6 22 16.5 43.5t26.5 34.5q14 11 35 23.5t48 25.5q30 15 65.5 29t71.5 26q40 12 77.5 19.5t69.5 7.5t45.5 -12.5t13.5 -31.5
v-0.5v-0.5v-0.5v-0.5l-14 -242v0z" />
    <glyph glyph-name="u" unicode="&#x425;" horiz-adv-x="735" 
d="M557 433l203 208q11 11 16 14.5t6 3.5h1.5h0.5q6 -1 10.5 -7t4.5 -17q0 -5 -1 -10l-2 -10q-4 -11 -9.5 -21.5t-11.5 -19.5q-6 -7 -10.5 -13t-8.5 -10l-34 -10l-167 -176l-16 -206v-62q0 -15 6.5 -24t13.5 -12q3 -1 5 -1.5t4 -0.5q11 0 24.5 6.5t37.5 22.5q14 10 26 18
t16 8h2h2q2 -1 4 -3t2 -6q0 -11 -16 -29t-40 -38q-10 -9 -21.5 -17.5t-23.5 -16.5q-28 -18 -53 -31t-38 -13q-4 0 -9.5 1t-10.5 4q-12 5 -22 19.5t-9 41.5v3v3v2.5v2.5l18 250l-301 -282l-1.5 -1.5t-1.5 -0.5q-6 -6 -14.5 -11t-18.5 -5t-12.5 6.5t-2.5 15.5q0 13 6 28.5
t17 31.5q9 14 20.5 28.5t24.5 27.5q8 8 16 15.5t15 13.5l65 24l190 176l11 191v35q0 10 -4.5 15.5t-15.5 5.5q-20 0 -61 -13.5t-86 -35.5q-24 -12 -47.5 -25t-43.5 -27q-7 -5 -11 -9.5t-4 -6.5q0 -1 1.5 -2t4.5 -1q2 -1 6 -2l8 -2q2 0 4.5 -0.5t4.5 -0.5q2 -1 4 -1.5t4 -0.5
q3 -1 6.5 -2t7.5 -2q-3 -2 -17 -8.5t-32 -13.5q-6 -2 -12 -4.5t-12 -4.5q-17 -6 -33.5 -10t-26.5 -4q-15 0 -19 2.5t-4 11.5q0 13 2 32.5t8 40.5q6 22 16.5 43.5t26.5 34.5q14 11 35 23.5t48 25.5q30 15 65.5 29t71.5 26q40 12 77.5 19.5t69.5 7.5t45.5 -12.5t13.5 -31.5
v-0.5v-0.5v-0.5v-0.5l-14 -242v0z" />
    <glyph glyph-name="zero" unicode="&#xd6;" horiz-adv-x="863" 
d="M666 358q-20 -17 -39 -34l-38 -34q-113 -102 -204.5 -187.5t-141.5 -85.5q-19 0 -36 17t-28 37q-7 12 -11 24t-4 20q0 29 20 65t50 73q16 20 34 40t37 39q27 27 52.5 51t45.5 42q9 8 22 20t26 25q7 6 13 12t12 13q16 18 27.5 35t11.5 29q0 9 -11.5 13t-25.5 6h-8h-7
q-9 0 -18.5 -0.5t-19.5 -1.5q-48 -6 -93.5 -22t-75.5 -34q-19 -11 -30 -22t-11 -19q0 -2 11 -9t57 -17q-8 -2 -19 -4.5t-22 -4.5q-11 -3 -22.5 -5t-23.5 -4t-24.5 -3t-24.5 -1h-1.5h-1.5h-9t-10 1q-12 2 -22.5 10t-10.5 30q0 67 49.5 105t110.5 63q32 13 58.5 23t51.5 16
q30 8 62 12t72 4q72 0 96 -5.5t24 -23.5q0 -50 -18 -87.5t-47 -72.5q-12 -15 -26.5 -30.5t-29.5 -31.5q-71 -76 -109 -119.5t-55 -80.5q-5 -11 -8.5 -22.5t-5.5 -24.5q-1 -3 -1.5 -7t-0.5 -9v-1.5v-1.5q1 -9 6 -16.5t18 -7.5h2h2q10 1 20 8.5t25 25.5q16 16 28 27t23 19
q2 2 4 3.5t4 2.5q7 5 13.5 10t14.5 11q23 17 60 48.5t77 66.5q3 3 6.5 6t6.5 6q34 30 65 58.5t52 48.5l78 77q36 36 50.5 49.5t22.5 13.5q2 0 4 -1l4 -2q6 -4 11 -12.5t9 -17.5q3 -6 4.5 -12t1.5 -11q0 -25 -53 -77t-130 -173q-75 -118 -91 -167.5t-16 -68.5
q0 -15 5.5 -25.5t11.5 -14.5q2 -1 3.5 -1.5t2.5 -0.5q9 0 24 5t31 11q5 2 9.5 4t8.5 4q18 8 31.5 15t16.5 9q22 14 29.5 17.5t7.5 1.5t-4 -10.5t-15 -29.5q-16 -30 -40 -72t-54 -87q-54 -79 -125.5 -144t-156.5 -65q-25 0 -40.5 9.5t-20.5 21.5q-2 3 -2.5 5.5t-0.5 5.5
q0 12 11.5 33t28.5 44q3 5 7 10.5t9 11.5q20 26 37 46t18 20q2 0 4 -1t2 -4q0 -2 -1 -4t-6 -8l-1.5 -1.5t-0.5 -1.5q-5 -6 -9 -12.5t-4 -13.5v-5t1 -6q2 -7 8 -13t22 -6q43 0 101.5 38t121.5 142q-3 -3 -6.5 -5.5t-6.5 -4.5q-28 -20 -52.5 -27t-31.5 -7q-5 0 -11 2t-12 6
q-19 13 -35 40t-16 62q0 19 16 56.5t38 78.5q3 7 6.5 13.5t7.5 13.5q18 34 35 64t26 45v0z" />
    <glyph glyph-name="zero" unicode="&#x426;" horiz-adv-x="863" 
d="M666 358q-20 -17 -39 -34l-38 -34q-113 -102 -204.5 -187.5t-141.5 -85.5q-19 0 -36 17t-28 37q-7 12 -11 24t-4 20q0 29 20 65t50 73q16 20 34 40t37 39q27 27 52.5 51t45.5 42q9 8 22 20t26 25q7 6 13 12t12 13q16 18 27.5 35t11.5 29q0 9 -11.5 13t-25.5 6h-8h-7
q-9 0 -18.5 -0.5t-19.5 -1.5q-48 -6 -93.5 -22t-75.5 -34q-19 -11 -30 -22t-11 -19q0 -2 11 -9t57 -17q-8 -2 -19 -4.5t-22 -4.5q-11 -3 -22.5 -5t-23.5 -4t-24.5 -3t-24.5 -1h-1.5h-1.5h-9t-10 1q-12 2 -22.5 10t-10.5 30q0 67 49.5 105t110.5 63q32 13 58.5 23t51.5 16
q30 8 62 12t72 4q72 0 96 -5.5t24 -23.5q0 -50 -18 -87.5t-47 -72.5q-12 -15 -26.5 -30.5t-29.5 -31.5q-71 -76 -109 -119.5t-55 -80.5q-5 -11 -8.5 -22.5t-5.5 -24.5q-1 -3 -1.5 -7t-0.5 -9v-1.5v-1.5q1 -9 6 -16.5t18 -7.5h2h2q10 1 20 8.5t25 25.5q16 16 28 27t23 19
q2 2 4 3.5t4 2.5q7 5 13.5 10t14.5 11q23 17 60 48.5t77 66.5q3 3 6.5 6t6.5 6q34 30 65 58.5t52 48.5l78 77q36 36 50.5 49.5t22.5 13.5q2 0 4 -1l4 -2q6 -4 11 -12.5t9 -17.5q3 -6 4.5 -12t1.5 -11q0 -25 -53 -77t-130 -173q-75 -118 -91 -167.5t-16 -68.5
q0 -15 5.5 -25.5t11.5 -14.5q2 -1 3.5 -1.5t2.5 -0.5q9 0 24 5t31 11q5 2 9.5 4t8.5 4q18 8 31.5 15t16.5 9q22 14 29.5 17.5t7.5 1.5t-4 -10.5t-15 -29.5q-16 -30 -40 -72t-54 -87q-54 -79 -125.5 -144t-156.5 -65q-25 0 -40.5 9.5t-20.5 21.5q-2 3 -2.5 5.5t-0.5 5.5
q0 12 11.5 33t28.5 44q3 5 7 10.5t9 11.5q20 26 37 46t18 20q2 0 4 -1t2 -4q0 -2 -1 -4t-6 -8l-1.5 -1.5t-0.5 -1.5q-5 -6 -9 -12.5t-4 -13.5v-5t1 -6q2 -7 8 -13t22 -6q43 0 101.5 38t121.5 142q-3 -3 -6.5 -5.5t-6.5 -4.5q-28 -20 -52.5 -27t-31.5 -7q-5 0 -11 2t-12 6
q-19 13 -35 40t-16 62q0 19 16 56.5t38 78.5q3 7 6.5 13.5t7.5 13.5q18 34 35 64t26 45v0z" />
    <glyph glyph-name="parenright" unicode="&#xd7;" horiz-adv-x="835" 
d="M684 398q-20 -15 -41 -31.5t-43 -33.5q-52 -42 -102 -77t-90 -35q-15 0 -27 12t-19 26q-4 7 -6 14.5t-2 12.5q0 13 5 28t13 31q6 11 13 23t15 22q10 15 19 26.5t16 19.5q33 40 53.5 65.5t20.5 40.5v2t-1 3q-3 8 -16 14.5t-31 6.5q-15 0 -30 -1.5t-31 -4.5
q-58 -10 -110.5 -36.5t-78.5 -63.5q8 -2 15 -4.5t13 -4.5q11 -5 18.5 -9.5t12.5 -8.5l-148 -22h-1h-2q-1 -1 -2 -1h-2h-4t-4 1q-5 2 -10 7.5t-5 17.5q0 20 10.5 44.5t31.5 49.5q45 54 138.5 99t236.5 45q61 0 78.5 -14t17.5 -39t-19 -55.5t-45 -66.5q-5 -7 -10.5 -15.5
t-10.5 -17.5l-12 -22t-11 -22q-9 -20 -15 -39t-6 -33v-3.5t1 -3.5q0 -5 2.5 -10t6.5 -5q6 0 21.5 5.5t33.5 13.5q8 3 15.5 7t14.5 8t12.5 7.5t9.5 7.5q152 99 200.5 171t69.5 72q3 0 6 -1.5t6 -3.5q6 -5 11 -11t8 -13q2 -5 3.5 -9t1.5 -8q0 -12 -13 -27.5t-40 -47.5
q-10 -12 -20.5 -24.5t-20.5 -24.5q-78 -98 -128 -189.5t-50 -151.5q0 -23 7 -39t15 -23q2 -1 4.5 -2t4.5 -1q9 0 24 6.5t31 16.5q5 2 9 4.5t8 5.5q16 10 29 19t17 12q15 12 22 17t11 5q6 0 9.5 -2t3.5 -4q0 -5 -3.5 -11t-9.5 -12q-2 -3 -4.5 -5.5l-4.5 -4.5q-6 -7 -11.5 -12
t-8.5 -8q-5 -5 -23 -21.5t-43 -34.5q-9 -7 -18.5 -13.5t-19.5 -12.5q-20 -14 -39.5 -22.5t-34.5 -8.5h-2.5h-2.5q-24 3 -44.5 23.5t-25.5 44.5q0 3 -0.5 6t-0.5 6q0 36 15 79t37 87q9 18 19 36l20 36q18 33 36 63.5t31 56.5v0z" />
    <glyph glyph-name="parenright" unicode="&#x427;" horiz-adv-x="835" 
d="M684 398q-20 -15 -41 -31.5t-43 -33.5q-52 -42 -102 -77t-90 -35q-15 0 -27 12t-19 26q-4 7 -6 14.5t-2 12.5q0 13 5 28t13 31q6 11 13 23t15 22q10 15 19 26.5t16 19.5q33 40 53.5 65.5t20.5 40.5v2t-1 3q-3 8 -16 14.5t-31 6.5q-15 0 -30 -1.5t-31 -4.5
q-58 -10 -110.5 -36.5t-78.5 -63.5q8 -2 15 -4.5t13 -4.5q11 -5 18.5 -9.5t12.5 -8.5l-148 -22h-1h-2q-1 -1 -2 -1h-2h-4t-4 1q-5 2 -10 7.5t-5 17.5q0 20 10.5 44.5t31.5 49.5q45 54 138.5 99t236.5 45q61 0 78.5 -14t17.5 -39t-19 -55.5t-45 -66.5q-5 -7 -10.5 -15.5
t-10.5 -17.5l-12 -22t-11 -22q-9 -20 -15 -39t-6 -33v-3.5t1 -3.5q0 -5 2.5 -10t6.5 -5q6 0 21.5 5.5t33.5 13.5q8 3 15.5 7t14.5 8t12.5 7.5t9.5 7.5q152 99 200.5 171t69.5 72q3 0 6 -1.5t6 -3.5q6 -5 11 -11t8 -13q2 -5 3.5 -9t1.5 -8q0 -12 -13 -27.5t-40 -47.5
q-10 -12 -20.5 -24.5t-20.5 -24.5q-78 -98 -128 -189.5t-50 -151.5q0 -23 7 -39t15 -23q2 -1 4.5 -2t4.5 -1q9 0 24 6.5t31 16.5q5 2 9 4.5t8 5.5q16 10 29 19t17 12q15 12 22 17t11 5q6 0 9.5 -2t3.5 -4q0 -5 -3.5 -11t-9.5 -12q-2 -3 -4.5 -5.5l-4.5 -4.5q-6 -7 -11.5 -12
t-8.5 -8q-5 -5 -23 -21.5t-43 -34.5q-9 -7 -18.5 -13.5t-19.5 -12.5q-20 -14 -39.5 -22.5t-34.5 -8.5h-2.5h-2.5q-24 3 -44.5 23.5t-25.5 44.5q0 3 -0.5 6t-0.5 6q0 36 15 79t37 87q9 18 19 36l20 36q18 33 36 63.5t31 56.5v0z" />
    <glyph glyph-name="x" unicode="&#xd8;" horiz-adv-x="1080" 
d="M904 324l-16 -17q-23 -25 -57.5 -61.5t-72.5 -75.5q-8 -8 -16 -16.5t-16 -15.5q-56 -56 -106.5 -97.5t-74.5 -41.5q-3 0 -7 1.5t-8 4.5q-9 7 -17 19t-11 26q0 3 -0.5 5.5t-0.5 5.5q0 19 16 60.5t37 87.5q4 8 7.5 15.5t6.5 14.5q19 40 36.5 73.5t25.5 48.5
q-8 -8 -63 -62.5t-121 -117.5q-4 -4 -8 -7.5t-7 -7.5q-68 -64 -126.5 -115t-71.5 -51q-12 0 -20.5 11.5t-14.5 25.5q-4 11 -6 20t-2 14v0.5v0.5q1 7 9.5 17t29.5 35q152 178 209 276t57 149q0 27 -3.5 33.5t-19.5 6.5q-19 0 -39.5 -2.5t-41.5 -7.5q-42 -9 -81.5 -23.5
t-64.5 -30.5q-14 -9 -22 -18t-8 -17q0 -2 1.5 -3.5t5.5 -3.5q3 -1 8 -3t11 -4q2 -1 4.5 -2t4.5 -1q7 -3 14.5 -4.5t18.5 -3.5q-20 -5 -37 -9t-33 -7q-13 -2 -26 -3.5t-28 -1.5q-40 0 -52.5 9t-14.5 20v5.5v4.5v0.5v0.5q0 46 22.5 75.5t63.5 56.5q1 1 2.5 2t3.5 2
q32 21 78.5 39t96.5 30q36 8 71 13t65 5q73 0 96.5 -5t23.5 -24q0 -31 -32 -133.5t-176 -272.5q-3 -4 -5.5 -7.5t-2.5 -7.5q0 -3 3 -5.5t6 -3.5h0.5h1.5q8 0 39.5 22.5t67.5 52.5q4 3 8 6.5t8 6.5q21 18 40 34t32 29q135 129 179 208.5t70 82.5h0.5h1.5q7 0 11 -4t6 -9
q1 -3 1.5 -5.5t1.5 -4.5q2 -8 3.5 -14.5t3.5 -12.5q1 -7 2 -14.5t1 -16.5v-12.5t-2 -10.5q-2 -7 -7 -15t-16 -22q-156 -202 -190.5 -284t-34.5 -102v-6v-6t0.5 -5t2.5 -2q15 0 86.5 60.5t166.5 199.5q48 67 93 130t88 121q1 1 2.5 3.5t3.5 5.5q2 1 3.5 3t3.5 3q2 2 4 3t4 1
q13 0 19.5 -5t10.5 -13q1 -2 2.5 -4.5t3.5 -4.5q1 -2 2.5 -4t2.5 -4q4 -6 7 -12.5t3 -15.5q0 -4 -0.5 -8.5t-2.5 -9.5q-6 -8 -10 -13.5t-7 -10.5q-1 0 -1 -0.5v-0.5q-5 -7 -11.5 -15.5t-16.5 -22.5q-103 -139 -146 -253t-43 -173q0 -19 8.5 -27.5t25.5 -8.5h5.5h4.5
q21 2 43 12.5t52 31.5q17 12 24.5 16.5t12.5 4.5t7 -2t3 -5v-1.5v-1.5q0 -11 -17 -29.5t-42 -38.5q-15 -11 -31.5 -22t-32.5 -20q-29 -16 -56 -27t-45 -11q-6 0 -14 3t-16 8q-13 7 -24 17.5t-16 22.5q-1 3 -1.5 5.5t-0.5 5.5v4.5v4.5q0 18 16 75t91 203v0z" />
    <glyph glyph-name="x" unicode="&#x428;" horiz-adv-x="1080" 
d="M904 324l-16 -17q-23 -25 -57.5 -61.5t-72.5 -75.5q-8 -8 -16 -16.5t-16 -15.5q-56 -56 -106.5 -97.5t-74.5 -41.5q-3 0 -7 1.5t-8 4.5q-9 7 -17 19t-11 26q0 3 -0.5 5.5t-0.5 5.5q0 19 16 60.5t37 87.5q4 8 7.5 15.5t6.5 14.5q19 40 36.5 73.5t25.5 48.5
q-8 -8 -63 -62.5t-121 -117.5q-4 -4 -8 -7.5t-7 -7.5q-68 -64 -126.5 -115t-71.5 -51q-12 0 -20.5 11.5t-14.5 25.5q-4 11 -6 20t-2 14v0.5v0.5q1 7 9.5 17t29.5 35q152 178 209 276t57 149q0 27 -3.5 33.5t-19.5 6.5q-19 0 -39.5 -2.5t-41.5 -7.5q-42 -9 -81.5 -23.5
t-64.5 -30.5q-14 -9 -22 -18t-8 -17q0 -2 1.5 -3.5t5.5 -3.5q3 -1 8 -3t11 -4q2 -1 4.5 -2t4.5 -1q7 -3 14.5 -4.5t18.5 -3.5q-20 -5 -37 -9t-33 -7q-13 -2 -26 -3.5t-28 -1.5q-40 0 -52.5 9t-14.5 20v5.5v4.5v0.5v0.5q0 46 22.5 75.5t63.5 56.5q1 1 2.5 2t3.5 2
q32 21 78.5 39t96.5 30q36 8 71 13t65 5q73 0 96.5 -5t23.5 -24q0 -31 -32 -133.5t-176 -272.5q-3 -4 -5.5 -7.5t-2.5 -7.5q0 -3 3 -5.5t6 -3.5h0.5h1.5q8 0 39.5 22.5t67.5 52.5q4 3 8 6.5t8 6.5q21 18 40 34t32 29q135 129 179 208.5t70 82.5h0.5h1.5q7 0 11 -4t6 -9
q1 -3 1.5 -5.5t1.5 -4.5q2 -8 3.5 -14.5t3.5 -12.5q1 -7 2 -14.5t1 -16.5v-12.5t-2 -10.5q-2 -7 -7 -15t-16 -22q-156 -202 -190.5 -284t-34.5 -102v-6v-6t0.5 -5t2.5 -2q15 0 86.5 60.5t166.5 199.5q48 67 93 130t88 121q1 1 2.5 3.5t3.5 5.5q2 1 3.5 3t3.5 3q2 2 4 3t4 1
q13 0 19.5 -5t10.5 -13q1 -2 2.5 -4.5t3.5 -4.5q1 -2 2.5 -4t2.5 -4q4 -6 7 -12.5t3 -15.5q0 -4 -0.5 -8.5t-2.5 -9.5q-6 -8 -10 -13.5t-7 -10.5q-1 0 -1 -0.5v-0.5q-5 -7 -11.5 -15.5t-16.5 -22.5q-103 -139 -146 -253t-43 -173q0 -19 8.5 -27.5t25.5 -8.5h5.5h4.5
q21 2 43 12.5t52 31.5q17 12 24.5 16.5t12.5 4.5t7 -2t3 -5v-1.5v-1.5q0 -11 -17 -29.5t-42 -38.5q-15 -11 -31.5 -22t-32.5 -20q-29 -16 -56 -27t-45 -11q-6 0 -14 3t-16 8q-13 7 -24 17.5t-16 22.5q-1 3 -1.5 5.5t-0.5 5.5v4.5v4.5q0 18 16 75t91 203v0z" />
    <glyph glyph-name="y" unicode="&#xd9;" horiz-adv-x="1080" 
d="M903 324l-15 -17q-164 -186 -241.5 -247t-101.5 -61q-3 0 -7 1.5t-8 4.5q-9 7 -17 19t-11 26q0 3 -0.5 5.5t-0.5 5.5q0 19 16 60.5t37 87.5q3 8 6.5 15t6.5 15l37 74t25 48q-8 -9 -62.5 -63t-120.5 -117l-8 -8t-8 -7q-67 -64 -125 -115t-72 -51q-12 0 -20.5 11.5
t-14.5 25.5q-4 11 -6 20t-2 14q0 7 8.5 17.5t30.5 35.5q169 195 218.5 304.5t49.5 141.5q0 14 -7 16.5t-18 2.5q-64 0 -120 -17t-91 -38q-22 -13 -34 -24.5t-12 -19.5q0 -2 1.5 -3.5t5.5 -3.5q3 -1 8 -3t11 -4q2 -1 4.5 -2t4.5 -1q7 -3 14.5 -4.5t18.5 -3.5
q-22 -5 -40.5 -9.5t-36.5 -7.5q-12 -2 -23.5 -3t-24.5 -1q-42 0 -53.5 10t-12.5 22v4v4q0 66 44.5 104.5t111.5 65.5q11 4 25 9.5t32 10.5q32 10 72 19t82 13q9 0 17.5 0.5t17.5 0.5q82 0 101 -7t19 -22q0 -49 -41.5 -154.5t-165.5 -251.5q-3 -4 -5.5 -7.5t-2.5 -7.5
q0 -3 3 -5.5t6 -3.5h0.5h1.5q7 0 35.5 21t61.5 47q2 2 4.5 4t5.5 4q31 26 57 48t31 27q135 129 179 208t69 83h1.5h1.5q12 0 18.5 -17t9.5 -37q1 -7 1.5 -14t0.5 -13q0 -9 -0.5 -15t-2.5 -12q-3 -7 -8 -14.5t-14 -18.5q-156 -201 -190.5 -283.5t-34.5 -102.5v-6v-6t0.5 -5
t2.5 -2q11 0 70 44.5t183 215.5q48 67 93 130t88 121q1 1 2.5 3.5t4.5 5.5l2.5 2.5l2.5 2.5q2 2 4.5 3.5t4.5 1.5q11 0 17 -4.5t10 -9.5q1 -1 1.5 -2t1.5 -2t1.5 -2l0.5 -1q2 -3 4 -5.5t3 -4.5q5 -7 8.5 -15t2.5 -18v-8t-2 -9q-5 -7 -9 -12.5t-7 -10.5l-0.5 -0.5l-0.5 -0.5
q-5 -7 -10.5 -14.5t-15.5 -20.5q-9 -12 -18.5 -25.5t-18.5 -27.5q-24 -37 -47 -77.5t-43 -82.5q-28 -60 -46 -117t-18 -100q0 -16 6.5 -26t25.5 -10q9 0 20 2.5t23 6.5q8 3 16 6.5t15 6.5q11 5 19.5 10t13.5 8q1 1 3 2.5t5 2.5q1 1 1.5 1h0.5q4 3 7.5 4.5t3.5 -0.5
q0 -3 -18.5 -36.5t-40.5 -73.5q-2 -2 -3 -4l-2 -4q-18 -30 -34.5 -57t-24.5 -38q-58 -82 -122.5 -138.5t-148.5 -56.5q-25 0 -40 9t-20 20q-2 3 -3 6.5t-1 6.5q0 6 14 30t32 52q3 3 5.5 7t4.5 7q19 28 35 48.5t20 20.5q2 0 3 -0.5t2 -1.5v-1.5v-1.5v-1.5t-1 -1.5v-0.5v-1.5
q-1 0 -1.5 -1.5t-1.5 -2.5t-3.5 -3t-4.5 -4q-3 -4 -6 -10t-3 -15q0 -15 5.5 -21t12.5 -8q3 -1 6.5 -1h5.5q44 0 101.5 38t122.5 142q-4 -3 -8.5 -6.5t-9.5 -7.5q-7 -4 -14.5 -8t-15.5 -8q-11 -6 -22.5 -9.5t-19.5 -3.5q-6 0 -14 2.5t-16 7.5q-14 8 -26.5 19.5t-14.5 24.5
q-1 1 -1 2.5v2.5q0 26 14.5 68t33.5 87q3 8 6.5 16t7.5 16q12 28 23.5 54t20.5 46v0z" />
    <glyph glyph-name="y" unicode="&#x429;" horiz-adv-x="1080" 
d="M903 324l-15 -17q-164 -186 -241.5 -247t-101.5 -61q-3 0 -7 1.5t-8 4.5q-9 7 -17 19t-11 26q0 3 -0.5 5.5t-0.5 5.5q0 19 16 60.5t37 87.5q3 8 6.5 15t6.5 15l37 74t25 48q-8 -9 -62.5 -63t-120.5 -117l-8 -8t-8 -7q-67 -64 -125 -115t-72 -51q-12 0 -20.5 11.5
t-14.5 25.5q-4 11 -6 20t-2 14q0 7 8.5 17.5t30.5 35.5q169 195 218.5 304.5t49.5 141.5q0 14 -7 16.5t-18 2.5q-64 0 -120 -17t-91 -38q-22 -13 -34 -24.5t-12 -19.5q0 -2 1.5 -3.5t5.5 -3.5q3 -1 8 -3t11 -4q2 -1 4.5 -2t4.5 -1q7 -3 14.5 -4.5t18.5 -3.5
q-22 -5 -40.5 -9.5t-36.5 -7.5q-12 -2 -23.5 -3t-24.5 -1q-42 0 -53.5 10t-12.5 22v4v4q0 66 44.5 104.5t111.5 65.5q11 4 25 9.5t32 10.5q32 10 72 19t82 13q9 0 17.5 0.5t17.5 0.5q82 0 101 -7t19 -22q0 -49 -41.5 -154.5t-165.5 -251.5q-3 -4 -5.5 -7.5t-2.5 -7.5
q0 -3 3 -5.5t6 -3.5h0.5h1.5q7 0 35.5 21t61.5 47q2 2 4.5 4t5.5 4q31 26 57 48t31 27q135 129 179 208t69 83h1.5h1.5q12 0 18.5 -17t9.5 -37q1 -7 1.5 -14t0.5 -13q0 -9 -0.5 -15t-2.5 -12q-3 -7 -8 -14.5t-14 -18.5q-156 -201 -190.5 -283.5t-34.5 -102.5v-6v-6t0.5 -5
t2.5 -2q11 0 70 44.5t183 215.5q48 67 93 130t88 121q1 1 2.5 3.5t4.5 5.5l2.5 2.5l2.5 2.5q2 2 4.5 3.5t4.5 1.5q11 0 17 -4.5t10 -9.5q1 -1 1.5 -2t1.5 -2t1.5 -2l0.5 -1q2 -3 4 -5.5t3 -4.5q5 -7 8.5 -15t2.5 -18v-8t-2 -9q-5 -7 -9 -12.5t-7 -10.5l-0.5 -0.5l-0.5 -0.5
q-5 -7 -10.5 -14.5t-15.5 -20.5q-9 -12 -18.5 -25.5t-18.5 -27.5q-24 -37 -47 -77.5t-43 -82.5q-28 -60 -46 -117t-18 -100q0 -16 6.5 -26t25.5 -10q9 0 20 2.5t23 6.5q8 3 16 6.5t15 6.5q11 5 19.5 10t13.5 8q1 1 3 2.5t5 2.5q1 1 1.5 1h0.5q4 3 7.5 4.5t3.5 -0.5
q0 -3 -18.5 -36.5t-40.5 -73.5q-2 -2 -3 -4l-2 -4q-18 -30 -34.5 -57t-24.5 -38q-58 -82 -122.5 -138.5t-148.5 -56.5q-25 0 -40 9t-20 20q-2 3 -3 6.5t-1 6.5q0 6 14 30t32 52q3 3 5.5 7t4.5 7q19 28 35 48.5t20 20.5q2 0 3 -0.5t2 -1.5v-1.5v-1.5v-1.5t-1 -1.5v-0.5v-1.5
q-1 0 -1.5 -1.5t-1.5 -2.5t-3.5 -3t-4.5 -4q-3 -4 -6 -10t-3 -15q0 -15 5.5 -21t12.5 -8q3 -1 6.5 -1h5.5q44 0 101.5 38t122.5 142q-4 -3 -8.5 -6.5t-9.5 -7.5q-7 -4 -14.5 -8t-15.5 -8q-11 -6 -22.5 -9.5t-19.5 -3.5q-6 0 -14 2.5t-16 7.5q-14 8 -26.5 19.5t-14.5 24.5
q-1 1 -1 2.5v2.5q0 26 14.5 68t33.5 87q3 8 6.5 16t7.5 16q12 28 23.5 54t20.5 46v0z" />
    <glyph glyph-name="z" unicode="&#xda;" horiz-adv-x="583" 
d="M444 371q5 10 15.5 22t23.5 25q13 12 29 24t32 22q21 14 41.5 22.5t35.5 8.5q18 0 22 -18t4 -46q0 -31 -10 -60t-22 -56q-2 -4 -3.5 -7.5t-3.5 -7.5q-8 -18 -15 -31t-14 -24q-3 -5 -5.5 -9.5t-5.5 -8.5q-4 -6 -8.5 -12t-9.5 -13q-24 -34 -51.5 -64t-55.5 -54
q-44 -39 -86 -61.5t-72 -22.5q-6 0 -16.5 2.5t-21.5 9.5q-17 10 -31 30.5t-14 55.5q0 62 35.5 151.5t155.5 272.5q20 30 23 40.5t3 13.5v1v0q0 4 -5.5 5.5t-11.5 2.5h-4h-4q-10 0 -21 -2.5t-23 -5.5q-9 -3 -18.5 -7t-18.5 -8q-8 -3 -15.5 -7t-13.5 -7q-63 -36 -92 -67
t-51 -43q-5 -2 -10 -3.5t-10 -1.5q-13 0 -21 10t-8 35q0 7 1 14t3 14q12 39 47.5 76t76.5 64q20 14 39.5 24t35.5 16q-6 -5 -7.5 -10t-1.5 -10v-2.5t1 -2.5v-2v-2t1.5 -1.5t2.5 -0.5q7 0 22.5 5.5t32.5 12.5q3 2 7 3.5t7 2.5q2 1 3.5 1.5t2.5 1.5l4 2l4 2q32 14 65.5 26
t75.5 12q30 0 45 -10t21 -22q5 -9 6 -17t1 -12v-4.5t-1 -4.5q-4 -19 -31 -48.5t-92 -106.5q-80 -96 -122.5 -185.5t-42.5 -169.5q0 -34 9.5 -47.5t21.5 -15.5h2.5h2.5q12 0 25.5 8.5t27.5 22.5q12 12 23 25.5t22 28.5q6 9 12 17.5t11 16.5q5 7 10 15t10 17q8 12 15 25t14 25
q7 17 12 33t5 31v4.5t1 5.5v4.5v5.5q0 11 -4 19.5t-18 8.5q-5 0 -11.5 -1.5t-12.5 -4.5q-4 -2 -8 -3.5t-8 -3.5q-5 -3 -9.5 -5.5t-7.5 -4.5v0z" />
    <glyph glyph-name="z" unicode="&#x42a;" horiz-adv-x="583" 
d="M444 371q5 10 15.5 22t23.5 25q13 12 29 24t32 22q21 14 41.5 22.5t35.5 8.5q18 0 22 -18t4 -46q0 -31 -10 -60t-22 -56q-2 -4 -3.5 -7.5t-3.5 -7.5q-8 -18 -15 -31t-14 -24q-3 -5 -5.5 -9.5t-5.5 -8.5q-4 -6 -8.5 -12t-9.5 -13q-24 -34 -51.5 -64t-55.5 -54
q-44 -39 -86 -61.5t-72 -22.5q-6 0 -16.5 2.5t-21.5 9.5q-17 10 -31 30.5t-14 55.5q0 62 35.5 151.5t155.5 272.5q20 30 23 40.5t3 13.5v1v0q0 4 -5.5 5.5t-11.5 2.5h-4h-4q-10 0 -21 -2.5t-23 -5.5q-9 -3 -18.5 -7t-18.5 -8q-8 -3 -15.5 -7t-13.5 -7q-63 -36 -92 -67
t-51 -43q-5 -2 -10 -3.5t-10 -1.5q-13 0 -21 10t-8 35q0 7 1 14t3 14q12 39 47.5 76t76.5 64q20 14 39.5 24t35.5 16q-6 -5 -7.5 -10t-1.5 -10v-2.5t1 -2.5v-2v-2t1.5 -1.5t2.5 -0.5q7 0 22.5 5.5t32.5 12.5q3 2 7 3.5t7 2.5q2 1 3.5 1.5t2.5 1.5l4 2l4 2q32 14 65.5 26
t75.5 12q30 0 45 -10t21 -22q5 -9 6 -17t1 -12v-4.5t-1 -4.5q-4 -19 -31 -48.5t-92 -106.5q-80 -96 -122.5 -185.5t-42.5 -169.5q0 -34 9.5 -47.5t21.5 -15.5h2.5h2.5q12 0 25.5 8.5t27.5 22.5q12 12 23 25.5t22 28.5q6 9 12 17.5t11 16.5q5 7 10 15t10 17q8 12 15 25t14 25
q7 17 12 33t5 31v4.5t1 5.5v4.5v5.5q0 11 -4 19.5t-18 8.5q-5 0 -11.5 -1.5t-12.5 -4.5q-4 -2 -8 -3.5t-8 -3.5q-5 -3 -9.5 -5.5t-7.5 -4.5v0z" />
    </font>
</defs>
</svg>
