<?xml version="1.0" standalone="no"?>
<!DOCTYPE svg PUBLIC "-//W3C//DTD SVG 1.1//EN" "http://www.w3.org/Graphics/SVG/1.1/DTD/svg11.dtd" >
<svg xmlns="http://www.w3.org/2000/svg" xmlns:xlink="http://www.w3.org/1999/xlink" version="1.1">
<metadata>
Created by FontForge 20170731 at Sat Sep 29 00:15:50 2018
 By Aleksey,,,
Copyright (c) 2010 by Andrey Kudryavtsev. All rights reserved.
</metadata>
<defs>
<font id="BKOVKY+sandman-ItalicED.BYLY-Italic" horiz-adv-x="546" >
  <font-face 
    font-family="BKOVKY+sandman-Italic(ED. BY LY"
    font-weight="400"
    font-style="italic"
    font-stretch="normal"
    units-per-em="1000"
    panose-1="2 0 5 3 0 0 0 0 0 0"
    ascent="800"
    descent="-200"
    x-height="655.5"
    cap-height="698"
    bbox="-52 -296 962.46 854.444"
    underline-thickness="50"
    underline-position="-250"
    unicode-range="U+001D-2026"
  />
<missing-glyph horiz-adv-x="500" 
 />
    <glyph glyph-name=".notdef" horiz-adv-x="500" 
 />
    <glyph glyph-name=".null" horiz-adv-x="0" 
 />
    <glyph glyph-name=".null" horiz-adv-x="0" 
 />
    <glyph glyph-name="nonmarkingreturn" horiz-adv-x="333" 
 />
    <glyph glyph-name="space" unicode=" " horiz-adv-x="450" 
 />
    <glyph glyph-name="exclam" unicode="!" horiz-adv-x="238" 
d="M117 -6q-13 -6 -26 -7t-19 5q-4 6 -11.5 14.5t-8.5 11.5t-4 8t-1 9.5t4.5 10.5t7.5 17q2 4 4 10.5t4 11t7 9.5q3 3 11.5 5.5t13.5 5.5q3 2 11 8t15 8t17 2q19 0 43 -6q8 0 8 -7q5 -41 -4 -63.5t-38 -41.5q-8 -5 -18 -6t-16 -5zM293 725q17 2 24 -2q17 -5 20 -24
q3 -6 3 -26q0 -8 -40 -123l-27 -80q1 1 3 5q-5 -10 -19 -82t-21 -87q-3 -7 -7.5 -22t-7.5 -22q-9 -20 -15.5 -30t-20 -20.5t-30.5 -12.5q-28 30 -30 52q-1 10 2.5 20.5t10 23.5t7.5 16q31 154 33 172q10 46 35 99q8 19 8 47q0 11 6.5 25t15.5 29t12 21q12 7 38 21z" />
    <glyph glyph-name="quotedbl" unicode="&#x22;" horiz-adv-x="348" 
d="M243 748q5 0 21 -5q5 -17 1.5 -31t-9.5 -22t-19.5 -22.5t-21.5 -24.5q-3 -5 -7 -13.5t-6 -12.5q-2 -1 -19 -21.5t-26 -34.5q-14 -42 -21 -62q-2 -4 -26 -28q-16 -18 -24 -21q-6 -4 -16 -5q-23 37 -22 49q-1 7 5 20t10.5 19t12.5 16.5t10 14.5q6 9 10.5 23.5t10.5 22.5
q8 11 16.5 26t16.5 28q2 2 6.5 5t5.5 4q3 4 8 11t7 10q22 23 76 54zM390 748q5 0 21 -5q5 -17 1.5 -31t-9.5 -22t-19.5 -22.5t-21.5 -24.5q-3 -5 -7 -13.5t-6 -12.5q-2 -1 -19 -21.5t-26 -34.5q-14 -42 -21 -62q-2 -4 -26 -28q-16 -18 -24 -21q-6 -4 -16 -5q-23 37 -22 49
q-1 7 5 20t10.5 19t12.5 16.5t10 14.5q6 9 10.5 23.5t10.5 22.5q8 11 16.5 26t16.5 28q2 2 6.5 5t5.5 4q3 4 8 11t7 10q22 23 76 54z" />
    <glyph glyph-name="numbersign" unicode="#" horiz-adv-x="659" 
d="M227 284q12 43 19 69q5 19 11 42q-4 -1 -9 -1q-100 -9 -111 -5q-18 6 -36 42q6 16 16.5 27t20 15t27.5 10q5 2 18.5 2.5t77.5 -0.5q11 1 21 2q9 42 31 95q7 15 8 47q-1 11 5 25t15.5 29t11.5 21q14 7 39 21q17 2 23 -2q19 -5 21 -24q11 -7 -5.5 -44t-17.5 -47
q-3 -40 -23 -109q13 1 23 3q42 4 53 7l24 4q9 32 25 69q7 15 8 47q-1 11 5 25t15.5 29t11.5 21q14 7 39 21q17 2 23 -2q19 -5 21 -24q11 -7 -5.5 -44t-17.5 -47q-2 -32 -16 -84q21 0 36 -2q8 -1 41 8t36 -3q15 -6 15 -26q3 -7 -2 -24q-17 -22 -25 -34q-5 -1 -19 -7.5
t-26 -10t-22 -0.5q-25 6 -38 2q-15 -4 -28 -6l-4 -12q-5 -11 -19 -60q-4 -12 -8 -28q36 2 59 -1q8 -1 41 8t36 -3q15 -6 15 -26q3 -7 -2 -24q-17 -22 -25 -34q-5 -1 -19 -7.5t-26 -10t-22 -0.5q-25 6 -38 2q-28 -7 -50 -10q-6 -20 -13 -43q-14 -77 -17.5 -93t-7.5 -22
q-9 -20 -15 -30t-19.5 -20.5t-29.5 -12.5q-30 30 -32 52q-1 15 31 131q4 16 8 31q-29 -3 -53 -5q-22 -2 -60 -5q-3 -12 -7 -26q-14 -77 -17.5 -93t-7.5 -22q-9 -20 -15 -30t-19.5 -20.5t-29.5 -12.5q-30 30 -32 52q-1 15 31 131q2 7 4 15q-96 -9 -107 -5q-18 6 -36 42
q6 16 16.5 27t20 15t27.5 10q5 2 18.5 2.5t77.5 -0.5q3 0 6 1zM359 402q-6 -16 -17 -53q-6 -21 -16 -55q29 4 48 6q41 4 52 7l10 2q7 26 12 44q7 25 15 57q-37 -2 -66 -5q-15 -1 -38 -3z" />
    <glyph glyph-name="dollar" unicode="$" horiz-adv-x="488" 
d="M386 317q-6 -23 -20 -54q11 -30 -17 -102q2 1 5 2q23 10 33 24q6 7 18 15t28 64q-4 16 -6 22q-5 11 -30 25q-1 2 -11 4zM360 563q-17 -12 -37 -20q-24 -10 -34 -24q-6 -7 -21 -48q3 -16 6 -22q4 -11 29 -25q4 -3 14 -6q1 23 8 36q2 4 10 17q9 14 11 20q5 13 6 18
q0 5 -2 14v13q0 7 10 27zM292 339q-7 1 -17 1q-11 0 -24.5 1.5t-24.5 3.5q-28 5 -42.5 23t-16.5 33q-1 8 -7 20.5t-6 19.5q-1 16 12 41q4 10 16.5 39t27.5 38q71 65 143 84q11 5 21 8q6 14 18 34q20 30 31 37q10 10 34 2q25 -5 31.5 -10.5t-4.5 -37.5l-2 -5q4 -1 12 -7
q10 -7 19.5 -9t29.5 -1t21 0q13 -6 27.5 -17t13.5 -20q-2 -43 -30.5 -56.5t-56.5 5.5q-14 7 -42 14q-12 2 -21 3q-2 -12 -3 -26q-3 -31 -9 -45q-1 -4 -10 -23q-10 -19 -9 -20t-5 -25q-12 -25 -19 -45q2 -1 6 -1q9 -1 20 -1t24.5 -1.5t23.5 -3.5q28 -5 43 -23t17 -33
q0 -8 6 -20.5t6 -19.5q2 -16 -11 -41q-16 -40 -34.5 -69.5t-33.5 -38.5q-107 -65 -144 -84q-9 -5 -20 -8q-12 -30 -12 -36q0 -11 -15 -21q-15 -11 -28 -14q-1 -1 -11 -3q-2 3 -13 9q-13 6 -15 9q-3 12 -2 36l1 3q-12 -2 -23 -1q-4 0 -14 7t-19.5 9t-29.5 1t-20 0
q-14 6 -28 17t-14 20q2 43 30.5 56.5t57.5 -5.5q14 -7 42.5 -13.5t44.5 -0.5l13 48q2 3 6 10l9 14q4 7 5 14q10 76 24 125z" />
    <glyph glyph-name="percent" unicode="%" horiz-adv-x="602" 
d="M503 285q-7 -2 -19 -9q-8 -5 -30 -27q-15 -15 -16 -18q-7 -10 -11 -19.5t-7 -17t-4 -9.5q-6 -11 -7 -14t-1 -5t-1 -5q-2 -5 -5 -17.5t-4 -18.5q-2 -6 -1.5 -12t2 -9t4.5 -9.5t3 -7.5q1 -3 2 -6.5t2 -5.5t2.5 -4.5t4.5 -3.5q2 -2 7 -2t5 -1q2 0 7 -1.5t8 -2.5t8.5 -1.5
t7.5 0.5q1 0 5.5 2t7 3t6.5 3t6.5 3.5t5 3.5t5.5 4q0 1 3.5 3t3.5 3q4 3 9.5 6.5t8.5 5.5q1 1 11 17q0 2 4.5 7t6.5 9q1 3 3 9.5t4 9.5q1 2 4 9t3 9q2 4 3 5v1v6q2 7 5.5 19t5 20.5t-0.5 14.5q0 3 -0.5 6.5t-0.5 6.5q-1 2 -1.5 5.5t-1 5.5t-1.5 4q-1 0 -4 6l-3.5 7t-8 6.5
t-8.5 6.5t-4.5 1h-5.5q-11 4 -28 -2zM536 351q8 2 15 2t14 -1.5t11 -2.5t12.5 -4.5t12 -5t8 -9t7.5 -8.5l3 -3l3 -3t2.5 -3.5t2.5 -5.5q0 -4 3.5 -18t4.5 -20q0 -10 1 -19q0 -5 -4.5 -13.5t-3.5 -13.5q0 -3 -0.5 -7.5t-0.5 -7.5q0 -13 -5 -31q-1 -3 -3.5 -8t-2.5 -6
q-2 -5 -3 -12.5t-3 -11.5q-7 -15 -25 -43q-15 -20 -39 -45q-1 -1 -8.5 -5.5t-10.5 -6.5l-3.5 -1t-7.5 -4q-1 -1 -4.5 -6.5t-5.5 -6.5q-4 -4 -12.5 -8t-9.5 -5q-3 -2 -27 -6t-28 -3q-23 1 -33 4t-26 13l-3 2q-5 3 -6.5 4t-5 3.5t-4.5 5t-1 5.5q0 6 -7 12.5t-7 13.5
q1 4 1.5 14t0.5 16q-1 2 -3 11t-1 13q-1 12 1 21t3 13t6.5 15t7.5 18q3 6 9 23t11 27t14 17.5t14 14.5q0 1 2 5.5t5 6.5q3 4 8 12t10 14q4 5 12.5 11t11.5 10q2 2 9.5 7t11.5 6q13 7 20 7h5h4t3.5 1t4.5 4q3 2 8.5 2.5t12 0t8.5 -0.5zM307 636q-8 -3 -19 -10q-8 -5 -30 -27
q-15 -15 -17 -18q-5 -10 -10 -19.5t-7.5 -16.5t-4.5 -10q-5 -10 -6 -13t-1.5 -5.5t-0.5 -5.5q-3 -5 -5.5 -17.5t-4.5 -17.5q-1 -6 -0.5 -12.5t2 -9.5t4 -9.5t3.5 -7.5q1 -3 2 -6.5t2 -5.5t2.5 -4.5t4.5 -3.5q2 -2 6.5 -2h6.5q1 -1 6 -2.5t8 -2.5t8 -1.5t8 0.5q1 0 5.5 2
t6.5 3l6 3l7 3.5t6 3.5t4 4q1 1 4.5 3.5t4.5 2.5q2 3 8 6.5t8 5.5q3 1 11 17q2 2 5.5 7t5.5 9q2 3 4.5 9.5t3.5 9.5q0 2 3 9t4 9q2 4 3 5v1q-1 1 1 6q0 7 4 19t5.5 20.5t-1.5 14.5q1 3 0.5 6.5t-1.5 6.5v5.5t-1.5 5.5t-2.5 4q-1 1 -3 6.5t-3.5 6.5t-8 7t-9.5 6q-1 1 -4.5 1
h-4.5q-11 5 -28 -1zM339 701q9 2 16 2t14 -1.5t11 -2.5t12 -4.5t12 -5t9 -9t7 -8.5q0 -1 2 -3t3.5 -3t3 -3.5t1.5 -5.5q1 -4 4 -18t5 -20q1 -10 1 -19q-1 -5 -5 -13.5t-4 -12.5q1 -4 0 -8.5t0 -7.5q0 -13 -5 -30q-1 -4 -4 -9t-3 -6q-1 -4 -2.5 -12t-3.5 -12q-5 -15 -25 -43
q-14 -20 -38 -45q-1 -1 -9 -5.5t-9 -6.5q-1 0 -5 -1t-6 -4q-2 -1 -5.5 -6.5t-5.5 -6.5q-4 -3 -12.5 -7.5t-9.5 -4.5q-3 -3 -27 -6.5t-29 -3.5q-22 1 -32.5 4t-26.5 13l-3 3l-6 3t-5.5 3.5t-4.5 5t-1 6.5q1 5 -6 12t-7 13q0 4 0.5 14t0.5 16q0 2 -2.5 11.5t-1.5 12.5
q0 12 1.5 21t3 13t6.5 15t8 18q2 6 8 23.5t12 27.5q5 9 13.5 16.5t13.5 14.5q1 1 3 5.5t4 6.5q4 4 9 12t9 14q5 6 13 11.5t11 9.5q3 2 11 7t10 6q15 7 21 7h5h4t3 1t5 4q2 2 8 2.5t12.5 0t7.5 -0.5zM537 615q-2 -3 -31 -48q-41 -58 -116 -149q-3 -4 -34.5 -43.5t-42.5 -56.5
q-11 -18 -30 -38q-20 -21 -21 -23q-18 -22 -48 -78q0 -2 -7 -8q-7 -5 -8 -7q-3 -4 -8 -12q-4 -9 -7 -13q-3 -3 -14 -11q-10 -9 -13 -15q-4 -7 -8 -18q-5 -11 -9 -17q-3 -4 -12 -15q-8 -10 -12 -18q-3 -8 -5 -22q-2 -12 13 -19q17 -7 28 -2q24 14 55 44q30 30 43 50q2 4 4 14
q3 9 7 15q3 5 23 22q19 17 25 24q8 11 24 42q17 31 23 41q13 19 27 37t25 34q3 3 9 7q7 4 10 7q5 7 18 33t17 32q17 23 28 32q2 3 8 6q6 4 9 7q6 6 16 21q10 14 18 21q16 18 37 53q4 6 46 54t46 77q1 4 -5 8t-15 8q-8 3 -10 5q-7 9 -15 2q-64 -40 -88 -83z" />
    <glyph glyph-name="ampersand" unicode="&#x26;" horiz-adv-x="470" 
d="M429 141l2 -8l3 -8l6 -8l6 -9l4 -9l4 -9l5 -8l4 -8l5 -8l6 -7l-4 -16l-11 -6q-13 -7 -42 -31q-15 3 -21 11l-6 9l-3 8l-4 8l-3 8l-3 9l-3 5l-4 6l-2 6l-4 6l-16 -11l-11 -6l-13 -8l-14 -6l-15 -7l-24 -6l-23 -3l-25 -3l-21 1l-20 5l-22 3q-16 2 -26 3.5t-25 6.5l-16 6
l-12 8l-12 15l-7 15l-4 13l-3 10q2 15 -3 28l1 16l-1 14l2 17l3 14l8 15l5 15l6 16l5 13l7 13l7 11l7 7l6 12l10 9l5 11l9 10l9 8l9 10l7 8l7 6q8 9 16 14l7 8q8 6 15 15l7 4l1 12l-3 10q1 12 -2 21l-4 9l2 11v23l-3 8q2 11 0 19l-1 8q4 11 2 21q2 10 7 25l5 8l5 8
q7 12 15 17q6 9 9.5 13.5t12.5 10.5l8 8l9 7l9 5q13 4 16.5 9t15.5 8l14 3q17 10 24 11t21 2h17l10 -3q12 -1 25 -4l14 -5q7 -6 18 -10l5 -8q9 -9 18 -15l9 -7l9 -20q0 -20 1 -30t-2.5 -18t-4.5 -15l-5 -16q-6 -15 -11 -25q-13 -23 -23 -30l-5 -7l-12 -8l-15 -12
q-14 -4 -24 -12q-19 -9 -38 -21l-14 -5l-11 -7l5 -12l5 -11l1 -14l4 -10l3 -8l1 -11l5 -7l2 -10l5 -10l5 -10l1 -11l3 -10l3 -9l3 -9v-6l2 -10l6 -5l4 -10l5 -15l1 -14l9 -10l15 6l9 9l10 8l10 9l10 9l17 11l10 -1l3 -15l6 -12l-7 -16l-9 -10l-10 -8l-10 -7l-7 -11l-8 -11
l-8 -9zM321 184l-5 21l-3 12l-1 16l-2 10l-5 6l-3 9l-2 18v14q-4 23 -8 34.5t-16 25.5l-14 20l-12 -5l-8 -4l-7 -4l-6 -5l-9 -7l-6 -5l-6 -8l-4 -6l-3 -6l-12 -13q-8 -12 -14 -29l-5 -12q-1 -6 -6 -12q-7 -16 -12 -30l-5 -12l-6 -14q-6 -12 -6 -29q2 -21 10 -37l9 -15
q10 -11 31 -10l15 1l13 -1l14 -1l16 4l11 4l15 6q11 8 27 10l14 8l13 12q6 14 -2 34zM278 471l4 -10l9 4l10 4l11 6l20 12l19 8l10 4l17 12l12 8l10 9l11 13l7 9l4 18l4 11l3 18l-1 7l-6 7l-6 4l-6 4l-14 2h-24l-20 -2l-15 -2l-12 -3l-15 -7l-15 -12l-9 -12l-5 -10l-2 -9
l-2 -8l-1 -10l-3 -13v-13l2 -18l1 -15z" />
    <glyph glyph-name="quotesingle" unicode="'" horiz-adv-x="221" 
d="M290 748q5 0 21 -5q3 -17 -1.5 -31t-11 -22t-21 -22.5t-22.5 -24.5q-3 -5 -7.5 -13.5t-7.5 -12.5q-2 -1 -20 -21.5t-29 -34.5q-16 -42 -25 -62q-2 -4 -28 -28q-17 -18 -25 -21q-6 -4 -16 -5q-21 37 -19 49q-1 7 6.5 20t12 19t13 16.5t11.5 14.5q7 9 12 23.5t12 22.5
q9 11 18.5 26t17.5 28q2 2 7 5t6 4q3 4 8.5 11t7.5 10q23 23 80 54z" />
    <glyph glyph-name="parenleft" unicode="(" horiz-adv-x="351" 
d="M443 686q-6 -17 -11 -31q-16 -20 -26.5 -29t-17.5 -13.5t-20.5 -16t-14.5 -13.5q-4 -2 -15 -3t-15 -6q-2 -1 -6 -8t-6 -8q-41 -32 -60 -64q-8 -12 -23.5 -60.5t-21.5 -59.5q-4 -9 -10.5 -19t-8.5 -15.5t-4 -19.5t-1 -37q4 -58 8 -80q2 -10 5 -16.5t9.5 -16.5t8 -14
t6 -18.5t8.5 -17.5q2 -2 6.5 -3.5t7.5 -1.5q2 -4 10 -14t11 -13q7 -7 17.5 -2t12.5 3q5 0 15 -5.5t16 -6.5q11 -1 16.5 -13.5t-0.5 -30.5t-14.5 -27t-24.5 -18q-17 -11 -39 -17q-2 -2 -8.5 -3t-9.5 -1t-10.5 2t-10.5 6q-7 7 -18 22.5t-16 19.5q-3 3 -8.5 5t-8.5 4
q-3 4 -6 18.5t-5 18.5q-4 6 -16.5 12.5t-15.5 13.5q-1 3 -8.5 28.5t-7.5 26.5q0 5 1 14t-1 14q-1 6 -5.5 15.5t-5.5 15.5q-18 84 2 150q14 48 36 96q5 10 10 29t7 23q1 4 6.5 8.5t7.5 7.5q6 9 17 26q2 3 15 28t24 44t16 22q4 2 10.5 1.5t9.5 0.5q5 3 11 19t10 19q1 0 6.5 1
t8.5 2.5t8.5 10.5t8.5 10q3 0 7.5 -0.5t7.5 1t7.5 9t7.5 9.5q6 3 18 -1t17 -2q8 0 23.5 9t20.5 10q8 -5 12 -6.5t6 -9.5t1 -34z" />
    <glyph glyph-name="parenright" unicode=")" horiz-adv-x="351" 
d="M238 729.5q5 1.5 14 6.5q5 -1 16.5 -10t20.5 -9q4 -2 17.5 2t18.5 1q2 -2 3.5 -9.5t3.5 -9t7 -1t8 0.5q3 -1 4.5 -10t4 -10.5t7.5 -2.5t6 -1q3 -3 2.5 -19t2.5 -19q3 -1 9.5 -0.5t9.5 -1.5q4 -3 7 -22t5.5 -44t3.5 -28q5 -17 7 -26q0 -3 3.5 -7.5t4.5 -8.5q0 -4 -3 -23
t-3 -29q3 -48 -3 -96q-8 -66 -60 -150q-4 -6 -12.5 -15.5t-11.5 -15.5q-4 -5 -7 -14t-5 -14q0 -1 -18.5 -26.5t-19.5 -28.5q-7 -7 -22 -13.5t-22 -12.5q-3 -4 -12 -18.5t-13 -18.5q-4 -2 -10.5 -4t-10.5 -5q-7 -4 -25 -19.5t-27 -22.5q-5 -4 -13 -6t-11 -2t-9 1t-8 3
q-19 6 -32 17q-12 9 -16.5 18t-3.5 27t12 30.5t23 13.5q6 1 18.5 6.5t17.5 5.5q2 2 10 -3t19 2q4 3 16 13t16 14q3 0 8.5 1.5t7.5 3.5q6 3 16 17.5t13.5 18.5t14 14t16.5 16.5t11 16.5q14 22 42 80q10 23 14 37t4 19.5t-2 15.5t-3 19q-1 11 4 59.5t1 60.5q-6 32 -33 64
q-2 1 -3 8t-2 8q-3 5 -13 6t-13 3q-2 2 -10.5 13.5t-13 16t-11.5 13.5t-15 29q1 14 2 31q10 26 15 34t10 9.5z" />
    <glyph glyph-name="asterisk" unicode="*" horiz-adv-x="361" 
d="M237 681q6 16 9 20q7 11 8.5 21.5t7 22.5t15.5 19q11 13 32 16q3 1 14 2q4 -3 10 -8t10 -8q0 -4 1 -15t1 -20.5t-6 -17.5q-15 -17 -17 -29q19 10 24 10q11 4 21.5 12t23 14t22.5 4q15 2 23 -12q2 -1 5 -10q-2 -6 -5 -15.5t-5 -15.5q-4 -3 -14 -14t-19 -19t-19 -10
q-22 -4 -34 -15q-3 -3 -10 -6q20 -13 21 -19q5 -8 14 -11t16.5 -9.5t6.5 -17.5q3 -11 -11 -30q-1 -2 -10 -12q-7 -3 -17 -7.5t-16 -7.5q-4 1 -15.5 2t-20.5 3t-12 8q-6 18 -18 21q-3 1 -5 2q-9 -18 -20 -37q-2 -30 -13 -42q-21 -27 -44 -29q-12 -2 -19.5 0t-10.5 10t-3 12
v16q0 5 4.5 16t4.5 15q6 22 9 29q-13 -5 -27 -11q-30 -24 -43 -26q-32 -6 -40 11q-4 9 -4 17t6.5 17t10.5 12.5t15 14.5q5 4 16.5 10t14.5 9q27 17 33 21l10 5q-10 11 -20 24q-27 8 -31 19q-8 23 9 44q9 11 16.5 17t18 6.5t14 0t16.5 -2.5q5 0 11.5 -6.5t11.5 -6.5
q18 -10 23 -13z" />
    <glyph glyph-name="plus" unicode="+" horiz-adv-x="551" 
d="M328 419q14 30 33 64q9 15 14 47q1 11 9 25t19.5 29t15.5 21q14 7 41 21q17 2 23 -2q18 -5 18 -24q9 -7 -12.5 -44t-23.5 -47q-10 -44 -32 -90q31 -3 66 -12q14 -4 48 2q12 3 25 -0.5t25.5 -10t18.5 -7.5q3 -12 9 -34q-3 -17 -10 -24q-12 -20 -33 -26q-11 -12 -45 -3
t-44 8q-53 -6 -105 3q-3 -10 -6 -21q-25 -72 -34 -87q-4 -6 -10 -22t-10 -22q-12 -20 -19.5 -30t-22 -20.5t-31.5 -12.5q-26 30 -24 52q1 15 28 60q3 12 27 86l9 25h-13q-73 -1 -86 3q-6 2 -21.5 2.5t-21.5 2.5q-18 6 -26.5 10t-15 15t-3.5 27q42 36 66 42q17 4 58 -8
q12 1 86 2h10z" />
    <glyph glyph-name="comma" unicode="," horiz-adv-x="223" 
d="M188 107q5 0 23 -5q6 -14 6.5 -25t-3.5 -20.5t-9 -16.5t-14 -18t-14 -20q-2 -5 -4.5 -13.5t-3.5 -12.5l-10 -8q-10 -8 -12 -13q-12 -38 -17 -58q-7 -13 -25.5 -38t-25.5 -39q-6 -42 -10 -62q-3 -7 -12 -17t-10 -11q-13 -18 -20 -21q-6 -4 -16 -5q-29 35 -30 49
q-1 9 2 20.5t6 17.5t10 18t8 14q4 9 7 23t8 23q7 13 22.5 36.5t20.5 31.5q10 28 34 86q1 2 5 5t5 4q2 4 6.5 11t6.5 10q15 20 66 54z" />
    <glyph glyph-name="hyphen" unicode="-" horiz-adv-x="443" 
d="M99 280q17 18 22 26q5 1 17.5 6.5t22.5 8.5t17 0q20 -8 31 -5q9 3 33 0t36 -1q54 9 119 -3q31 8 42 2q22 -12 22 -30q0 -17 -8.5 -28t-16.5 -14t-25 -9q-5 -2 -16 -1t-15 -1q-26 -2 -32 -2.5t-43 2.5t-41 3q-6 0 -47.5 -2.5t-46.5 1.5q-10 3 -21 0.5t-23.5 -1.5t-17.5 9
q-10 7 -10 26q-2 1 -0.5 5t1.5 8z" />
    <glyph glyph-name="period" unicode="." horiz-adv-x="214" 
d="M130 133q5 -2 21 -6t25.5 -8.5t12.5 -11.5q1 -2 2 -7t2 -7q-3 -20 -23.5 -51t-36.5 -37q-13 -7 -28.5 -3.5t-22.5 10.5q-2 2 -7 6t-7 6.5t-5.5 6.5t-5 7.5t-2.5 9t-0.5 12.5t2.5 15q5 4 18.5 21t21.5 23q5 3 16.5 6.5t16.5 7.5z" />
    <glyph glyph-name="slash" unicode="/" horiz-adv-x="338" 
d="M42 -12q-10 17 -8 41q-6 13 28 64.5t40 66.5q16 39 46.5 97.5t53.5 91.5l21 47q20 46 37 62q21 21 41.5 74t24.5 59q6 9 17 32.5t18 31.5t17.5 24.5t17.5 25.5t16.5 18t21 11t24.5 -1q16 -5 18.5 -18t-5 -38.5t-7.5 -29.5q-3 -15 -10.5 -31t-21.5 -37t-16 -25
q-67 -130 -118 -241q-10 -21 -41.5 -64t-41.5 -75q-4 -10 -16 -35.5t-14 -33.5q-8 -24 -30 -55t-41 -49q-17 -15 -39.5 -20.5t-32.5 7.5z" />
    <glyph glyph-name="zero" unicode="0" horiz-adv-x="556" 
d="M462 699q17 8 39 1q2 -1 28 -15q7 -4 32 -4t28 -8q10 -10 13 -16q1 -2 5 -6t6 -7q4 -6 6 -22.5t4 -22.5q2 -4 9.5 -16.5t9.5 -20.5q1 -6 -2.5 -17t-0.5 -18q5 -18 -1 -63t-14 -73q-19 -57 -24 -67q-2 -3 -6 -15.5t-9.5 -28.5t-6.5 -19q-5 -19 -9 -34t-7 -26.5t-12 -24.5
t-25 -28q-15 -15 -31.5 -36t-33.5 -37t-46 -32q-36 -22 -54 -30q-9 -5 -23.5 -7t-19.5 -4q-36 -14 -87 -8t-67 28q-2 3 -8 7t-7 7q-2 3 -9 9t-9 10q-3 7 -2 18t-2 18q-2 2 -6 9t-5 9q-5 8 -5.5 30t-2.5 29q-12 35 4 127q43 105 56 130t19.5 38.5t15.5 26.5q7 8 8 15t9 15
q8 10 19 23.5t16.5 20.5t16 17t24.5 21q41 30 61 39q4 3 21 15.5t24 15.5t20 8.5t23 10t18 8.5zM464 603q-1 0 -21 -4t-21 -5q-6 -4 -25 -16.5t-25 -16.5t-16 -15.5t-20.5 -25t-14.5 -18.5q-3 -3 -8 -11t-9 -11q-7 -3 -11 -22.5t-6 -25.5q-4 -8 -21 -24.5t-19 -21.5t-13 -27
q-5 -9 -14.5 -40t-16.5 -43q-10 -21 -4 -66t18 -74q16 -33 27 -36q5 -1 21.5 -8.5t25.5 -9.5t23 0q23 10 52 22q10 4 19.5 17.5t16.5 16.5q10 6 28 27.5t22 24.5q13 11 18 27.5t6 31t10 33.5q23 44 27 60q3 8 3.5 22.5t2.5 22.5q3 12 12 33t12 30q13 48 2 69q-2 4 -3 11.5
t-3 11.5q-11 26 -17 34q-13 14 -32 19q-3 1 -11 5.5t-15 2.5z" />
    <glyph glyph-name="one" unicode="1" horiz-adv-x="338" 
d="M460 684l-1 -13q-2 -26 -3 -30q0 -15 -4 -31t-13 -37t-10 -25q-41 -130 -68 -241q-5 -21 -26.5 -64t-25.5 -75q-3 -10 -9.5 -35.5t-6.5 -33.5q-3 -24 -18 -55t-29 -49q-13 -15 -32.5 -20.5t-31.5 7.5q-11 17 -14 41q-8 13 15.5 64.5t25.5 66.5q8 39 25.5 97.5t34.5 91.5
l11 47q10 46 24 62q14 21 24.5 74t13.5 59q2 5 4 14q-17 -21 -28 -35q-11 -8 -36 -22q-26 -13 -37 -23q-22 -36 -34 -53q-4 -2 -29 -14q-18 -10 -26 -9q-5 -1 -14 4q-9 51 -4 63q0 8 9 18t14 14q4 4 15 10q9 7 12 9q7 6 15 19q7 13 14 18q10 7 31 20t32 21q11 11 33 32
q21 21 31 30q2 1 6 2q5 1 6 1q3 3 9 7q7 5 9 7q24 12 77 14q4 -3 17 -17q-2 -19 -8 -31z" />
    <glyph glyph-name="two" unicode="2" horiz-adv-x="380" 
d="M68 19q1 2 0 4q-4 13 35.5 64.5t46.5 66.5q20 39 93 147q24 46 43 62q21 21 47.5 74t32.5 59q2 3 4 7q2 7 -1 15q-4 10 -4 15l4 20q5 18 7 27q1 8 2 21q1 12 -3 17q-1 3 -7 8q-7 5 -9 6q-13 17 -44 7q-20 -5 -35 -17q-16 -13 -26 -24q-8 -12 -28 -24t-28 -17
q-10 -6 -23 -9q-13 -4 -21 2q-11 10 -8 26q2 15 16 31q15 16 32 34q19 17 37 32q16 14 52 35q33 20 63 25q33 6 46 5q41 -6 66 -42q1 -2 5 -7t6 -9q0 -6 -2 -24q-1 -18 3 -26q1 -4 8 -12q9 -8 9 -15q0 -3 -6 -12q-4 -8 -4 -11q-1 -4 3 -7q1 -4 3 -6q0 -4 -5 -13
q-6 -10 -6 -13q-1 -4 1 -9q1 -5 1 -7q-1 -4 -12 -19q-4 -5 -7 -9q9 -6 -43.5 -87t-97.5 -145.5t-60 -96.5q-6 -10 -20.5 -35.5t-16.5 -33.5q-7 -16 -19 -34q10 2 28 -1q23 -3 36 -1q57 9 117 -3q34 8 43 2q21 -12 11 -34q-5 -12 -11 -20q-7 -8 -17 -13q-11 -6 -16 -7
q-5 -2 -19 -7q-7 -2 -17 -1t-16 -1q-28 -2 -33 -2q-5 -1 -43 2t-40 3q-6 0 -48 -3q-42 -2 -45 2q-5 1 -9 1q-10 -5 -20 -7q-21 -6 -29 7l-2 8q-9 6 -2 25q1 1 2 4z" />
    <glyph glyph-name="three" unicode="3" horiz-adv-x="557" 
d="M295 518q-12 -7 -25 -3q-20 5 -10 36q0 1 4 14.5t6 18.5q17 35 28 42q12 8 26.5 22t33.5 25q1 0 30 17t32 17q21 4 33.5 5t29 1t33.5 1q5 1 22.5 -4.5t18.5 -5.5q3 0 9 -0.5t9 -1.5q8 -1 18 -10t13 -11q4 -1 9 -8.5t8 -8.5q11 -8 11 -37q-1 -3 -5 -13.5t-4 -14.5
q-1 -4 0 -11t1 -12q-4 -16 -37 -73q-4 -5 -8.5 -9.5t-12 -10t-10.5 -8.5q-4 -4 -12.5 -14.5t-12.5 -14.5q-9 -7 -22 -13t-22 -10t-10 -10q-2 -3 1.5 -5t11 -3t16.5 -1t20 -1.5t19 -3.5q22 -5 34 -23t12 -33q1 -8 5.5 -20.5t4.5 -19.5q1 -16 -10 -41q-4 -10 -5 -26t-5 -26
q-1 -3 -6 -10t-5 -10q-4 -14 -20 -43.5t-28 -38.5q-88 -65 -118 -84q-9 -5 -18.5 -8.5t-16 -5t-19 -3.5t-17.5 -3q-11 -2 -32 -7.5t-37.5 -9t-28.5 -2.5q-3 0 -11 7t-15.5 9t-24 1t-16.5 0q-11 6 -22.5 17t-10.5 20q2 43 26 57q3 1 7 3v1l18 5l16 -3l19 -9l12 -2l27 -5l10 1
l16 3l26 2l19 -1l26 15l33 11q58 36 87 76l15 38l2 27l-12 37l-15 17l-39 5l-27 -2l-37 -9l-19 -1l-12 2l-5 3l-1 2q-14 4 -18 21q-10 35 10 66q4 7 17 10l3 3l32 17l29 16l34 13l40 36l14 20l21 24l13 17l8 22l-9 21q-20 37 -80 29l-43 -16l-20 -8l-29 -26l-14 -24l-11 -10
l-11 -11l-11 -13z" />
    <glyph glyph-name="four" unicode="4" horiz-adv-x="436" 
d="M203 327q18 -15 56 -9q41 6 56 11q50 20 57 30q6 11 10 28.5t8.5 43t5.5 30.5q31 112 34 125q2 14 8 39q1 6 4 20.5t5.5 20.5t8 15t17 14.5t28.5 9.5q25 7 43.5 -10.5t3.5 -48.5q-2 -3 -8.5 -19.5l-13 -33t-7.5 -18.5q-6 -13 -14.5 -45t-9.5 -42q0 -18 -13 -47
q-4 -8 -13 -81q-3 -15 -11.5 -42.5t-10.5 -39.5q-5 -18 -19 -72.5t-20.5 -89t-7.5 -63.5q0 -18 -14 -41t-26 -27t-32 -2.5t-23 6.5q-1 1 -5 6t-4.5 5.5t-3 6t0 8t4.5 9.5l3 9t3 13t5 17q2 6 3.5 20t2.5 21q1 5 7 18t8 20q22 87 22 88q0 9 3.5 16t4.5 13t-6 10q-2 2 -7 0
t-12.5 -6.5t-9.5 -5.5q-52 -25 -54.5 -24.5t-100.5 -1.5q-23 6 -34.5 14.5t-28.5 36.5q-5 10 -5 28v2q0 6 1 11q2 13 33 50q4 11 35.5 74.5t36.5 75.5q19 37 56 83q9 12 18 41q1 10 11 21.5t22 23t16 16.5q14 4 41 11q16 -2 21 -7q16 -8 13 -26q8 -8 -16 -38.5t-28 -39.5
q-21 -56 -65 -113q-7 -9 -38 -71t-41 -74q-5 -5 -12 -19q-2 -2 -2 -4z" />
    <glyph glyph-name="five" unicode="5" horiz-adv-x="488" 
d="M240 429h30q51 -1 50 -7q0 -3 4.5 -5t14.5 -2.5t21 0t25.5 -0.5t24.5 -3q29 -4 51 -21.5t28 -31.5q4 -8 14 -20t12 -19q8 -16 3 -41q0 -10 4.5 -26t3.5 -26q0 -3 -3 -10t-3 -10q0 -14 -8.5 -43.5t-21.5 -39.5q-83 -67 -113 -87q-10 -6 -20.5 -9.5t-17.5 -5.5t-22 -4.5
l-21 -3.5q-13 -2 -37 -8.5t-43 -10.5t-34 -4q-4 0 -17 6.5t-22.5 8.5t-29.5 0t-20 -1q-16 6 -34 16t-21 19q-13 43 11 57t59 -4q17 -6 48 -11.5t44 1.5q4 1 24.5 0.5t35.5 2.5q14 3 42 23q2 1 26 9t44 18.5t25 24.5q3 7 13 15.5t12 13.5t2.5 18t2.5 18q6 19 -14 60
q-9 16 -14 22q-9 10 -39 23q-8 5 -36.5 11.5t-42.5 5.5q-13 -1 -23 -4t-19.5 -9t-12.5 -7q-56 -27 -83 9q-13 17 -16 33h-1l1 1q-3 16 4 31q2 4 7 7q3 20 9 31q2 4 11 17q9 12 12 18q5 12 6 16v14v12q1 8 17 35q7 14 9 37q-1 22 -1 23q3 16 23 43q21 28 33 34q10 10 34 2
q25 -8 35 -6q50 11 85 20q11 3 43 2q32 -2 39 5q31 1 53 0q23 0 37 -10q14 -9 13 -28q6 -16 -4 -29q-10 -12 -27 -17q-18 -10 -23 -8q-4 1 -11 6t-16 3q-39 -6 -46 -5q-13 5 -44 -3l-18 -4q-9 -2 -20 -5q-11 -2 -19 -4q-7 -2 -26 2q-20 4 -25 0q-18 -5 -26 -25t-13 -49
q-4 -29 -10 -42q-1 -3 -11 -21q-11 -18 -10 -19t-6 -23z" />
    <glyph glyph-name="six" unicode="6" 
d="M239 428q19 2 43 2l-2 -1h30q51 -1 51 -7q0 -3 4.5 -5t14.5 -2.5t21 0t25.5 -0.5t24.5 -3q29 -4 51 -21.5t29 -31.5q4 -8 14 -20t13 -19q8 -16 3 -41q0 -10 4.5 -26t4.5 -26q0 -3 -3 -10t-3 -10q0 -14 -8 -43.5t-20 -39.5q-83 -67 -112 -87q-10 -6 -20 -9.5t-17 -5.5
t-22 -4.5t-22 -3.5q-12 -2 -36 -8.5t-43 -10.5t-34 -4q-4 0 -17 6.5t-22.5 8.5t-29.5 0t-21 -1q-15 6 -33.5 16t-21.5 19q-6 20 -5 33q-1 10 0 26q1 24 -2 31q0 6 -3 12t-4 10q-1 6 5 23q7 16 7 22q0 9 -6 24q-6 16 -4 26q0 3 9 34q8 32 9 33q3 4 8 13q6 9 8 15q2 7 4 20
t5 20q34 98 87 151q38 38 84 71q8 6 24 22q15 16 18 19q4 2 11 3q6 1 10 3l28 14q3 1 84 27l86 9q76 3 81 1q6 -6 24 -8q17 -2 22 -5q3 -10 5 -15t-1 -14q-2 -9 -22 -31.5t-34 -23.5q-13 -2 -21 -2t-26 -2q-16 -2 -18 -2q-27 -2 -41 -6q-8 7 -15 5q-2 0 -8 -4q-7 -4 -9 -4
q-51 -2 -85 -21q-13 -7 -50 -11q-34 -31 -52 -45q-6 -19 -16 -24q-11 -6 -16 -10t-18 -38q-4 -5 -9 -12zM226 78q14 0 20 4q5 1 25 0.5t35 2.5q14 3 41 23q3 1 26.5 9t43.5 18.5t25 24.5q3 7 12.5 15.5t12 13.5t2.5 18t2 18q5 19 -15 60q-10 16 -14 22q-10 10 -40 23
q-8 5 -37 11.5t-42 5.5t-23 -4t-23 -6t-41 -23l-23 -16q-26 -33 -40 -66q-4 -29 -2 -35q3 -5 5 -7q0 -7 1 -21q0 -17 1 -21q1 -13 12 -15q11 -3 11 -5q4 -4 9 -17q5 -12 9 -18q6 -6 7 -15z" />
    <glyph glyph-name="seven" unicode="7" horiz-adv-x="447" 
d="M534 705q10 -2 21 -5q3 -4 10 -22q-6 -19 -16 -30l-4 -13q-9 -26 -10 -30q-5 -15 -13.5 -30.5t-23 -34.5t-15.5 -22q-26 -44 -51 -85q2 -1 4 -1q10 -2 35 8q9 5 18.5 3.5t19.5 -6t15 -4.5q4 -11 11 -31q-1 -17 -4 -24q-7 -21 -22 -29q-6 -13 -32.5 -9.5t-33.5 1.5
q-34 -12 -70 -12q-10 -20 -21 -40t-42.5 -58.5t-43.5 -69.5q-6 -10 -19.5 -34.5t-15.5 -32.5q-10 -23 -32.5 -51t-39.5 -43q-17 -11 -35.5 -12t-25.5 16q-6 20 -2 46q-2 15 33.5 61.5t41.5 61.5q18 38 52 93q16 28 31 49q-24 -3 -30 -2q-4 1 -16 -1t-16 0q-14 3 -21 5.5
t-13 12t-6 24.5q27 40 44 49q12 6 43 1q9 2 64 14q7 1 13 3q15 23 25 31q21 18 45 69.5t28 56.5t8 13l10 21q-7 -1 -48 -1q-43 0 -45 -1q-6 0 -51 -6q-44 -6 -50 -2q-12 2 -23 -1q-12 -4 -25 -4q-12 0 -19 8q-13 6 -13 27q-1 2 1 13q4 6 11 15t10 14q5 2 18 9q13 6 24 10
t18 2q20 -8 36 -3q9 4 35 3q26 -2 40 2q56 13 126 6l6 3q6 1 13 2q20 5 28 1z" />
    <glyph glyph-name="eight" unicode="8" 
d="M223 78q14 0 20 4q4 1 24.5 0.5t35.5 2.5q13 3 40 23q3 1 26.5 9t43 18.5t23.5 24.5q3 7 12.5 15.5t11.5 13.5t1.5 18t1.5 18q5 19 -17 60q-10 16 -15 22q-10 10 -40 23q-8 5 -37.5 11.5t-42.5 5.5t-23 -4t-23 -6t-41 -23l-22 -16q-24 -33 -37 -66q-4 -29 -1 -35
q3 -5 5 -7q0 -7 2 -21q0 -17 1 -21q2 -13 13 -15q11 -3 11 -5q5 -4 10 -17l9 -18q6 -6 8 -15zM516 635q-5 5 -15 13q-12 8 -15 13q-1 1 -2 12q0 12 -12 16q-4 2 -20 6q-13 4 -20 6q-1 2 -5 6q-6 4 -34 6q-34 -6 -71 -24l-20 -19q-25 -24 -30 -36t-10 -21.5t-9 -22.5
q-3 -13 -2.5 -43.5t3.5 -39.5q6 -33 14 -45q5 -6 18 -19q35 -30 54 -29q6 1 18 -2t17.5 -2t15.5 8.5t17 9.5q14 1 28 18.5t26.5 39.5t13.5 24q25 23 31 36q5 14 9 34.5t5 24.5q6 6 8 20q-8 3 -13 10zM492 387q20 -16 26 -29q5 -8 15.5 -20t12.5 -19q9 -16 5 -41
q0 -10 5.5 -26t5.5 -26q0 -3 -2.5 -10t-2.5 -10q0 -14 -7 -43.5t-19 -39.5q-80 -67 -109 -87q-9 -6 -19 -9.5t-17 -5.5t-22 -4.5l-21 -3.5q-13 -2 -36.5 -8.5t-42.5 -10.5t-34 -4q-4 0 -17 6.5t-23 8.5t-29.5 0t-20.5 -1q-16 6 -34.5 16t-21.5 19q-7 20 -7 33q-1 10 -1 26
q0 24 -2 31q-1 6 -4 12q-4 6 -5 10q-1 6 5 23q6 16 6 22q0 9 -7 24q-6 16 -5 26q1 3 8 34q2 16 12 33q14 25 45 54l22 20l-14 20q-19 29 -23 54q-4 17 0 33q5 31 6 34q3 10 15 26q14 85 38.5 111.5t29.5 36.5q4 13 19 33q7 9 29.5 19t40.5 16q1 1 33.5 8.5t72 2.5t61 -11.5
t32.5 -8.5q6 -1 20 -3.5t20 -4.5t15 -5.5t16 -9.5q21 -20 74 -87q8 -10 3.5 -39.5t-10.5 -43.5q-2 -3 -1.5 -10t-1.5 -10q-4 -10 -15.5 -26t-15.5 -26q-6 -25 -22 -41q-5 -7 -20.5 -19t-22.5 -20q-12 -13 -38 -29z" />
    <glyph glyph-name="nine" unicode="9" 
d="M501 281q-18 -4 -43 -7l1 1l-31 -4q-51 -5 -52 0q0 3 -5 4.5t-15.5 0.5t-21.5 -2.5t-25.5 -2.5t-26.5 -1q-30 1 -54.5 15t-33.5 26q-5 7 -17 17.5t-15 16.5q-10 14 -9 39q-1 10 -7.5 24.5t-7.5 24.5q-1 3 1.5 10t1.5 10q-2 13 3 42.5t16 40.5q76 76 105 99q8 7 18 11.5
t17 7.5t22 7t21 6q13 4 37 13t42.5 15.5t34.5 8.5q4 0 17.5 -4.5t24 -5t30.5 4t21 3.5q17 -4 37 -11t23 -16q10 -18 10 -31q2 -9 4 -25q2 -23 5 -29q1 -6 5 -12q4 -5 5 -9q2 -5 -2 -22q-5 -17 -4 -22q0 -9 9 -23q7 -14 7 -24q0 -3 -4 -34q-5 -32 -6 -33q-3 -4 -7 -14
q-5 -9 -6 -15q-1 -7 -2 -20t-2 -20q-23 -98 -71 -156q-34 -41 -77 -79q-8 -7 -22 -24q-13 -18 -16 -21q-4 -2 -11 -4q-6 -2 -9 -4q-10 -6 -27 -17q-4 -2 -83 -37l-87 -20q-77 -13 -82 -11q-8 5 -26 4q-18 0 -23 2q-5 9 -8 14q-2 5 0 14t19 33t31 27t22 4t26 6q17 4 19 4
q26 5 40 11q10 -6 16 -3q2 0 9 5q6 5 8 5q52 8 85 31q12 8 49 17q31 34 48 50q3 19 13 25q11 7 15 12q5 4 14 39q3 5 7 12zM472 620q-14 -2 -21 -7q-4 -1 -25 -3.5t-35 -6.5q-15 -5 -40 -28q-2 -1 -25.5 -12t-42.5 -23.5t-22 -26.5q-3 -7 -11.5 -16.5t-10 -14.5t0 -17.5
t-0.5 -17.5q-3 -19 23 -56q11 -14 17 -19q11 -9 44 -17q8 -4 38.5 -6.5t43.5 -0.5q14 3 24 7l22.5 9t39.5 27l21 19q23 35 32 68q2 29 -2 34q-3 5 -5 6q-1 7 -4 20q-2 17 -3 21q-3 12 -15 12q-11 2 -12 4q-4 3 -11 15q-7 11 -12 16q-6 5 -8 14z" />
    <glyph glyph-name="colon" unicode=":" horiz-adv-x="253" 
d="M308 450q12 -4 16 -5q7 -33 -16 -64.5t-55 -48.5q-5 -2 -16 -5t-17 -5q-4 -2 -7.5 -4t-5.5 -3t-4 -1.5t-2.5 -1t-4 0t-5 1.5t-8 2.5t-11.5 2.5q-2 3 -8.5 14t-7 20t3.5 23q4 3 18.5 17t24 22t20.5 14q6 2 8 -1t8 -1q2 1 9.5 7t12.5 8q9 2 24.5 4t22.5 4zM208 157
q7 0 12.5 -1.5t11 -3.5t9.5 -3q0 -39 -6.5 -50.5t-33.5 -41.5q-4 -5 -9.5 -14.5t-13.5 -13.5q-4 -3 -12 -3t-14 -2q-4 -1 -15 -7.5t-24 -7.5q-4 4 -9.5 7t-15 6t-13.5 5q-4 9 -4 10q21 85 90 110q6 2 22.5 3.5t24.5 6.5z" />
    <glyph glyph-name="semicolon" unicode=";" horiz-adv-x="253" 
d="M326 450q12 -4 16 -5q9 -33 -13 -64.5t-52 -48.5q-6 -2 -16.5 -5t-16.5 -5q-4 -2 -7.5 -4t-5 -3t-4 -1.5t-3 -1t-4 0t-5 1.5t-8 2.5t-11.5 2.5q-2 3 -9 14t-8 20t3 23l17 17t23 22t19 14q7 2 9 -1t8 -1q2 1 9 7t12 8q9 2 24.5 4t22.5 4zM104 -163q-5 0 -22 5
q-7 17 -5.5 31t6.5 22t16 22.5t18 24.5q2 5 5 13.5t5 12.5q1 1 15 21.5t21 34.5q8 42 12 62q2 4 22 28q14 18 21 21q5 4 15 5q29 -37 29 -49q3 -7 -1.5 -20t-8 -19t-10 -16.5t-8.5 -14.5q-5 -9 -7 -23.5t-7 -22.5q-6 -11 -12.5 -26t-12.5 -28q-2 -2 -6 -5t-5 -4
q-2 -4 -6 -11t-6 -10q-18 -23 -68 -54z" />
    <glyph glyph-name="less" unicode="&#x3c;" horiz-adv-x="480" 
d="M222 237q-2 -5 2.5 -12.5t3.5 -12.5q-1 -4 0.5 -7t5.5 -5.5t6 -4.5q9 -16 34 -33q4 -4 9 -11.5t10 -12t12 -4.5q11 -1 21.5 -10.5t21.5 -25.5t17.5 -22t7.5 -10q5 -7 7 -7q5 0 9 -4q5 -4 16.5 -11t15.5 -11q20 -24 22 -32q1 -5 1 -8t-0.5 -4t-2.5 -4t-4 -5q-2 -4 -3 -7.5
t-2.5 -6.5t-7.5 -9q-39 -47 -111 16q-4 3 -6.5 11.5t-4.5 14.5t-4 6q-18 0 -24 6q-4 4 -12.5 14.5t-17.5 19t-19 12.5q-4 2 -6.5 9.5t-7.5 7.5q-6 0 -12 7.5t-12 17.5t-9 13q-13 11 -22.5 15.5t-12 6.5t-4 7t-2.5 6q-2 3 -5 3q-5 0 -14 18q-12 25 1 68q7 23 14.5 31t20.5 12
q5 2 11 13.5t13 17.5q33 27 93 64q5 3 20 13l24 16q4 3 15 6.5t13 7.5q0 1 9 8q2 2 7.5 8t8.5 8q71 52 115 80q5 3 11.5 1.5t10.5 2.5q17 19 18 20q49 25 63 2q6 -8 7 -12t-1.5 -7.5t-3 -5.5t0.5 -10.5t-9 -16.5q-33 -41 -77 -64q-5 -3 -15.5 -11t-18 -13t-15.5 -5l-9 -7
q-2 -2 -4.5 -6t-5.5 -6q-4 -3 -28.5 -15.5t-36.5 -26.5q-7 -7 -24 -16.5t-24 -9.5q-1 0 -6 -2l-1 -1l-2 -2q-13 -12 -42 -30q-46 -28 -49 -43z" />
    <glyph glyph-name="equal" unicode="=" horiz-adv-x="426" 
d="M66 280q5 5 14 13t14 13q5 1 18.5 6.5t24.5 8.5t17 0q16 -9 31 -5q10 3 33 0t36 -1q56 9 117 -3q34 8 43 2q21 -12 13 -34q-5 -12 -11 -20t-16.5 -13.5t-15 -7l-19.5 -6.5q-6 -2 -16.5 -1t-15.5 -1q-27 -2 -32.5 -2.5t-43.5 2.5t-40 3q-6 0 -48 -2.5t-46 1.5
q-9 3 -21 0.5t-23.5 -1.5t-14.5 9q-10 6 -3 26q-1 2 5 13zM159 474q5 5 14 13t14 13q5 1 18.5 6.5t24.5 8.5t18 0q15 -9 30 -5q11 3 33.5 0t35.5 -1q56 9 117 -3q34 8 43 2q21 -12 13 -34q-5 -12 -11 -20t-16.5 -13.5t-15 -7l-19.5 -6.5q-6 -2 -16.5 -1t-15.5 -1
q-27 -2 -32.5 -2.5t-43.5 2.5t-40 3q-6 0 -48 -2.5t-46 1.5q-9 3 -21 0.5t-23.5 -1.5t-14.5 9q-10 6 -3 26q0 2 5 13z" />
    <glyph glyph-name="greater" unicode="&#x3e;" horiz-adv-x="486" 
d="M435 275q1 5 -2.5 14t-2 13t-0.5 7t-5.5 6t-4.5 5q-12 17 -32 32q-3 3 -12 18.5t-19 15.5q-12 1 -21.5 9.5t-19 24t-15.5 21.5q-6 8 -7 10q-5 7 -7 7q-5 0 -8 4q-5 4 -16 11t-15 11q-4 5 -9.5 10t-8.5 8.5t-4 7.5q-1 7 -1 9t3 6.5t5 6.5q2 4 3 7t3 6.5t7 9.5
q42 45 111 -17q4 -3 6 -11t4.5 -14t4.5 -6q16 0 23 -7q1 -2 10.5 -14t17 -20t17.5 -12q6 -2 8 -9t6 -7q6 0 11.5 -8t11 -18t8.5 -13q13 -11 22 -15.5t11.5 -6.5t4 -7t1.5 -6q4 -2 6 -2q3 0 12 -19q11 -23 -4 -68q-8 -23 -16 -31t-21 -12q-5 -2 -11.5 -13.5t-14.5 -17.5
q-31 -24 -97 -64q-15 -9 -44 -29q-4 -2 -15 -5.5t-14 -8.5q-1 -2 -10 -7q-3 -2 -8.5 -8t-7.5 -8q-93 -65 -119 -81q-5 -3 -11.5 -1.5t-11.5 -2.5q-18 -19 -19 -20q-50 -24 -63 -2q-4 6 -5 10.5t-0.5 6t2.5 4.5t3 5q0 1 -0.5 9.5t9.5 16.5q32 41 80 65q3 2 22 15t29 13l9 7
q1 2 4 6t6 6q5 3 29 15.5t38 26.5q8 7 25.5 16.5t24.5 9.5q1 0 5 2l4 3q6 5 9.5 8t6 5t5.5 4l4.5 3t8 4.5t10.5 5.5q48 29 51 44z" />
    <glyph glyph-name="question" unicode="?" horiz-adv-x="478" 
d="M233 -6q-33 -16 -44 -2q-4 5 -10.5 13t-8 9.5t-4 7.5t-2 7.5t2 8t4 11t7.5 14.5q3 5 5 15t8 16q3 3 11.5 5.5t13.5 5.5q3 2 8.5 6t9 6t10 4t14.5 2q7 0 12 -1.5t11.5 -3.5t12.5 -3q1 0 14 -20q-7 -3 -7 -40q0 -3 1.5 -5.5t3 -3.5t0.5 -4.5t-6 -9.5q-12 -15 -31 -27
q-8 -5 -18.5 -6t-17.5 -5zM171 601q13 17 18 22t11.5 7t12.5 6t9 12.5t13 14.5q26 18 69 32q32 10 57 14q1 1 16.5 0.5t16.5 -0.5q4 0 9.5 3t9.5 3q23 0 31 -1q17 -1 38 -6q5 -1 9.5 -6t9.5 -5q18 0 26 -4q24 -14 38 -35q4 -7 4 -26q0 -4 5 -7.5t6 -9.5v-16q0 -32 -10 -60
q-2 -5 -8 -12t-7 -10q-4 -19 -6 -23q-10 -19 -26 -38q-13 -16 -31 -32q-7 -6 -15.5 -8.5t-12.5 -5.5q-6 -4 -12 -12.5t-12 -13.5q-40 -27 -75 -60q-5 -4 -10.5 -5.5t-8.5 -4.5t-8.5 -13.5t-8.5 -14.5q-6 -8 -9 -15t-2.5 -10.5t2 -13t2.5 -14.5q1 -8 -1 -11.5t-9.5 -9
t-13.5 -12.5q-22 -26 -51 -14q-5 2 -8.5 7t-6.5 5q-11 1 -12 5q-2 3 -3 9v10q0 25 9 45q4 8 12 14.5t9 10.5q4 16 16 30q26 27 48 46q3 2 14 8t20 12.5t12 12.5q5 9 21 21q42 32 58 47q3 3 13 8t16.5 10t6.5 11q0 10 11 30q13 28 13 46q0 10 -8 24q-2 3 -1 9t-2 6
q-3 2 -35 15q-4 1 -17.5 2.5t-19.5 5.5q-8 6 -65 -7q-5 -1 -20 -1q-6 1 -14 -5t-11 -7q-38 -15 -51 -25q-5 -4 -26 -31q-5 -6 -12 -7q-5 -1 -8.5 -3.5t-5 -2t-13.5 2.5q-40 11 -16 51z" />
    <glyph glyph-name="at" unicode="@" horiz-adv-x="864" 
d="M681 165q-45 19 -84 28.5t-55 39.5q-33 -26 -61 -39t-55 -3q-51 -10 -88.5 34t-29 69t24.5 71q1 47 48.5 80.5t88.5 75t85 34.5l46 7q21 0 31 -15t5 -37q-7 -29 -59 -43h-36q-34 -19 -66 -43q-48 -35 -64 -102q-3 -14 7 -27q11 -15 35 -14q42 2 96 79q50 68 75 68
q21 0 29.5 -15.5t3.5 -37.5q-2 -9 -10 -29t-10 -29q-7 -32 18 -40q10 -4 46 -4q67 0 101 33q32 29 48 97l10 54q18 66 -15 113l-45 28l-16 40q-57 22 -123 37l-55 -7l-56 -7q-86 7 -130 -43l-74 -49l-31 -43q-53 -61 -72 -122l-12 -73l-8 -42q-27 -103 -2 -153l39 -42
l25 -35q42 -61 114 -46l67 -15q40 0 93 16l49 3l44 28l12 4q12 4 18 4q20 0 30.5 -16t5.5 -37q-11 -46 -115 -65q-90 -31 -190 -41q-32 23 -107.5 36t-81.5 77q-143 123 -85 306q27 218 149 329q162 106 241 118l94 4l87 -13q81 -16 190 -75q88 -112 50 -273
q-26 -110 -94 -153q-71 -77 -176 -85z" />
    <glyph glyph-name="A" unicode="A" horiz-adv-x="557" 
d="M443 665q9 3 43 -2q4 -1 8 -8t5 -8q4 -3 12 -4t12 -3q14 -6 27.5 -21t16.5 -28q1 -5 -0.5 -16t-0.5 -17q0 -3 5.5 -9t5.5 -9q1 -7 -0.5 -21.5t-1.5 -20.5q0 -4 6 -11.5t6 -16.5v-11q0 -7 1.5 -24.5t1.5 -26.5q0 -30 -12 -66q-2 -4 -2 -14q0 -42 -5 -58q-13 -31 -13 -70
q0 -10 1 -35t1 -33v-10q0 -52 -22 -88q-12 -20 -30 -30q-10 -5 -25.5 1.5t-19.5 14.5q-5 2 -1 32t4 38q0 12 5.5 51t3.5 63.5t-16 28.5q-26 8 -82 4q-45 -4 -109 -18q-11 -3 -31 -4t-33 -4.5t-22 -14.5q-5 -7 -12 -27l-8 -20q-1 -3 -2.5 -9.5t-3.5 -9.5q-2 -4 -12 -16
t-12 -19q-8 -25 -17 -51q-24 -67 -57 -81q-13 -4 -15 -3q-2 2 -9.5 7t-11.5 9.5t-5 11.5q-1 4 5.5 27t10.5 32q4 8 11 22.5t11 25t8 25.5q2 7 15.5 28.5t15.5 27.5q2 4 -5 11t-6 11q20 57 31 67q3 3 14 8t14 9q6 8 10 25t6 21q1 3 6.5 6.5t6.5 5.5q10 17 27 50t21 41
q3 4 12.5 11t13.5 12q8 11 13 19t11 18t13 21q2 3 7 6t6 5q2 3 10.5 18t13.5 22q2 3 7.5 6.5t7.5 5.5t23.5 30t35.5 37q22 15 50 23zM425 576q-2 -1 -7.5 -4t-9.5 -5q-8 -6 -63 -81q-7 -9 -40 -67q-3 -5 -14.5 -23t-17.5 -29t-10.5 -26.5t-1.5 -26.5q1 -6 12.5 -7.5
t21.5 2.5q9 3 25 2.5t28 2.5q15 4 45.5 6.5t43.5 5.5t22.5 0.5t19 1t18.5 16.5q5 9 7 35t0 35q-7 47 -6 77q0 5 0.5 14t0.5 14q0 12 -8.5 34t-17.5 25q-17 6 -48 -2z" />
    <glyph glyph-name="B" unicode="B" horiz-adv-x="552" 
d="M351 673q80 3 168 -2q5 -1 11.5 -8.5t10.5 -8.5q3 0 12 0.5t12 -0.5q11 -2 23 -13t15 -13q3 -1 10.5 -3t10.5 -4q13 -9 15.5 -48t-9.5 -66q-7 -14 -23.5 -36t-26.5 -27q-3 -2 -7.5 -3t-6.5 -2q-8 -4 -21 -18t-19 -18q-2 -1 -11.5 -6.5t-16.5 -9.5t-15.5 -10t-14.5 -11.5
t-8 -10.5q-3 -6 8.5 -14.5t26.5 -17t17 -12.5q2 -3 9.5 -11t11.5 -15t4 -15q0 -4 -1.5 -11t-1.5 -10q1 -3 4 -9.5t3 -9.5q0 -6 -2 -12t-6 -13t-5 -8q-5 -10 -3.5 -25t-2.5 -25q-1 -3 -6.5 -10t-6.5 -9q-3 -7 -6.5 -20t-5.5 -20q-2 -6 -12 -11.5t-12 -7.5q-1 -1 -5 -7t-7 -7
q-7 -3 -18.5 -5.5t-16.5 -4.5q-4 -1 -12 -8t-12 -8q-9 -4 -26.5 -4t-26.5 -3q-6 -2 -22.5 -11.5t-27.5 -10.5q-12 -1 -33 1t-32 2q-6 -1 -17 -9.5t-15 -9.5q-13 -4 -63.5 -2t-57.5 7q-4 2 -6.5 7t-4.5 7q-3 2 -4 5.5t-1 10v14t0.5 23t0.5 31.5q0 27 6 41q13 29 14 36v14
t1 20.5t5 17.5q7 16 13 37t9.5 35.5t8.5 40.5t8 39q12 58 12 59q3 10 14 32t15 32q2 5 3.5 15.5t2.5 15.5q2 7 10.5 23t10.5 22q2 4 3 13t2 13q2 5 10.5 14t10.5 12q2 4 4.5 8.5t3.5 7t4 5.5t8 5q26 13 51 13l5 -2q5 -3 9 -2q3 1 12.5 8.5t12.5 8.5q6 2 16 2zM353 583
q-24 -3 -31 -5q-2 -1 -19 -4q-25 -7 -41 -17q-5 -3 -7 -8t-4 -13.5t-3 -11.5q-1 -4 -6 -12.5t-5 -11.5q-2 -10 -7.5 -29t-7.5 -27q0 -2 0.5 -12.5t-1.5 -13.5q-2 -7 -7 -18.5t-8 -18.5t-5 -16.5t-1 -17.5q0 -3 1.5 -4.5t4.5 -3l5 -2.5q5 -3 33.5 3.5t35.5 10.5
q8 5 24.5 16.5t24.5 16.5q11 7 33.5 15.5t33.5 15.5q3 2 9 9.5t10 9.5l26 13t36 19.5t22 17.5q60 67 25 87q-17 10 -77.5 13.5t-93.5 -1.5zM363 289q-9 2 -27 -5t-21 -8q-5 -1 -20.5 -7.5t-21.5 -7.5q-23 -5 -55 -20.5t-44 -29.5q-7 -9 -11.5 -29.5t-8.5 -29.5
q-2 -5 -6.5 -13.5t-6.5 -13t-4.5 -13t0.5 -12.5q6 -21 42 -31q9 -3 19.5 -3t22 2t19 3.5t19.5 5t15 4.5q9 2 26 1.5t22 3.5q8 3 24.5 12t22.5 11q3 1 10.5 4t10.5 4t8.5 3.5t8.5 4.5t7.5 5.5t8 7.5t6.5 9q14 21 9 54q-4 32 -13 44.5t-35 26.5q-1 1 -9.5 8t-17.5 9z" />
    <glyph glyph-name="C" unicode="C" horiz-adv-x="553" 
d="M486 641q58 10 96 -8q13 -6 30 -26q15 -15 20 -46l3 -33q0 -53 -18.5 -90t-58.5 -36q-4 0 -7.5 1t-6 3t-4.5 3.5t-3.5 5.5t-2 6t-1.5 7t-1 7t-0.5 8.5t-0.5 8.5q-1 11 4.5 28t6.5 26.5t-8 28.5q-15 22 -42 18q-4 0 -14 0.5t-14 -0.5q-9 -2 -21.5 -9.5t-21.5 -14
t-23.5 -18.5t-18.5 -15t-17 -7t-18 -9q-6 -6 -14 -16q-48 -37 -71 -68q-9 -12 -30.5 -53t-24.5 -46q-15 -26 -20 -46t0 -52q2 -14 15 -45q3 -7 7 -11.5t12.5 -10.5t10.5 -8q1 -1 8 -11.5t13 -11.5q2 -1 8 -0.5t9 0.5q5 -1 14.5 -6.5t12.5 -6.5q10 -4 22 3t14 7q6 1 19 0
t20 0q19 4 87 41q3 2 9 9t10 10q9 6 38.5 12.5t34.5 3.5q12 -8 14 -16q3 -15 -1 -21q-22 -33 -35 -51q-11 -14 -45.5 -37.5t-52.5 -29.5q-7 -2 -21 -5.5t-21 -6.5q-3 -1 -13.5 -6.5t-15.5 -6.5q-8 -2 -27.5 2t-29.5 1q-1 0 -15.5 -5t-16.5 -4.5t-17 1.5q-9 2 -23.5 10.5
t-21.5 10.5q-3 1 -9.5 1t-10.5 1q-4 2 -9 12t-7 12q-5 4 -21 5t-21 6q-1 1 -11.5 18.5t-10.5 18.5v10t-2 11q-2 4 -7.5 10.5t-7.5 10.5q-10 20 -12.5 50t7.5 66q16 45 39 85q4 8 9 23.5t8 21.5q2 3 8.5 8.5t8.5 7.5q3 4 10.5 13t10.5 13t17 26.5t26.5 41t18.5 21.5
q5 3 13.5 4.5t11.5 3.5q6 3 12.5 17.5t11.5 17.5q2 1 8 3.5t9 4.5q2 1 9.5 10t12.5 11q3 1 8.5 2t8.5 3t9 9.5t9 9.5q7 4 22 5t21 3q11 3 29 14.5t25 14.5q6 2 15 3t11 2z" />
    <glyph glyph-name="D" unicode="D" horiz-adv-x="566" 
d="M316 660q55 -20 62.5 -21t13.5 -3q5 -3 18.5 -14.5t22.5 -14.5q4 -2 19 -3t20 -5q3 -2 5 -9.5t4.5 -9.5t8 -3t7.5 -2q4 -2 6.5 -10.5t5 -10.5t8 -4.5t6.5 -3.5q4 -3 4 -17.5t4 -17.5q3 -2 10.5 -3.5t10.5 -4.5q5 -3 9.5 -21.5t8.5 -41.5t5 -26q6 -16 9 -26q1 -2 5 -7.5
t4 -8.5q0 -4 -1.5 -20.5t-0.5 -24.5q5 -45 2 -85q-5 -58 -58 -116q-4 -4 -12.5 -10.5t-12.5 -10.5q-4 -3 -6.5 -10.5t-4.5 -10.5q0 -1 -18.5 -18.5t-20.5 -18.5q-7 -5 -23 -6t-23 -5q-4 -2 -12.5 -12t-13.5 -12q-4 -1 -11 -1t-11 -1q-8 -2 -26.5 -10.5t-27.5 -10.5
q-6 -3 -15 -2t-12 2t-10 4t-8 4q-10 3 -30.5 -1t-27.5 -2q-4 1 -12.5 6.5t-11.5 6.5q-19 -16 -47 -12q-34 -7 -51.5 -14t-29.5 1q-14 10 -18 29q-9 9 9 57.5t19 61.5q4 34 16.5 87.5t25.5 84.5l7 42q5 41 17 58q13 21 18 67.5t8 52.5q3 8 7 29t7.5 29t9 23.5t9.5 24t10 18
t15.5 14t23.5 5.5q15 0 75 -5zM163 159q0 -1 1 -1q2 -2 4.5 -9.5t-9.5 -55.5q40 -16 73 -5q16 9 29.5 10t18.5 0q2 0 11.5 -7t20.5 -3q4 1 17 6.5t17 6.5q3 0 9 -0.5t8 0.5q6 1 16.5 11t14 12t14.5 8t17 10.5t12 11.5q13 15 41 59q10 17 13.5 28t3 16t-3.5 15t-4 18
q-2 10 0.5 52t-1.5 54q-9 31 -41 68q-1 2 -3 8t-3 8q-3 5 -14.5 9t-14.5 7q-2 2 -12 15t-15.5 19t-15 13.5t-17.5 9.5q-4 1 -14 0.5t-14 -0.5q-20 15 -57 -5q-7 -26 -12 -41t-5 -26.5t-9 -28.5q-5 -10 -9 -17q-16 -72 -27 -136q-3 -19 -20 -60.5t-19 -68.5q0 -4 -1 -11z" />
    <glyph glyph-name="E" unicode="E" horiz-adv-x="538" 
d="M487 645q70 5 126 -25q23 -13 9 -39q-23 -42 -57 -35q-44 11 -59 7q-20 -6 -30 -6q-8 0 -43.5 6t-56.5 1q-11 -3 -29.5 -8.5t-25.5 -7.5q-10 -2 -21 -2t-16.5 -3t-12.5 -14q-3 -5 -7.5 -27.5t-5.5 -26.5q-3 -8 -9.5 -24.5t-9.5 -26t-6 -23.5t-3 -26q0 -8 3 -12t9.5 -4
t12.5 1.5t17 4.5t19 4t25.5 4t25.5 4q101 20 136 14q5 -1 16.5 1t17.5 2q56 -9 61 -38q6 -35 -9 -58q-8 -12 -45 -23q-10 -3 -22 4t-13 7q-5 2 -26 4t-24 1q-14 -4 -20 -2q-16 4 -24 2q-6 -1 -26 -1.5t-32 -3.5q-7 -2 -22 -7t-20 -6q-32 -8 -43 -14q-37 -22 -42 -35
q-26 -62 -26 -123q0 -2 2.5 -3t4.5 -3q11 -5 21.5 -2.5t29 10.5t24.5 9t21.5 -0.5t21.5 0.5q21 4 52 7t69 3t50 -8q7 -5 17 -15t11 -17q1 -20 -10.5 -42.5t-26.5 -30.5q-13 -7 -47 7.5t-49 11.5q-7 -2 -32 0t-38 -2q-5 -2 -16.5 -8.5t-16.5 -8.5q-13 -4 -36 -4t-35 -3
q-19 -5 -62.5 -16t-55.5 -14q-18 -5 -32.5 15t-15.5 39v4q4 11 20.5 21t20.5 17q10 17 17 32q6 13 7 62l1 5v5q0 56 11 84q1 2 4.5 15t6.5 20q2 4 8.5 13.5t8.5 14.5q5 13 7 37t5 33q4 10 8 33.5t7 33.5q1 3 10.5 30t11.5 33q3 9 2.5 13.5t-3.5 10.5t-3 8q-4 33 12 49
q13 13 55 33q8 3 22.5 4.5t18.5 2.5q8 2 25 -3t29 -2q4 1 16.5 8t19.5 8q5 1 16 -4l12 -5q1 0 81 13z" />
    <glyph glyph-name="F" unicode="F" horiz-adv-x="487" 
d="M282 709q12 4 28 -1q7 -1 11 -2q1 -1 4 -3q75 7 121 -6q10 -4 38 -2q26 1 33 -3q11 -5 38 3q9 2 16 -2q8 -4 16 -10q7 -7 11 -9q-2 -5 -2 -14q-1 -9 -1 -15q-8 -11 -10 -13q-18 -21 -35 -27q-14 -8 -26 -8q-13 0 -22 4q-8 3 -22 1q-10 -4 -48 2q-40 6 -46 6q-2 1 -45 1
q-41 0 -46 1l-8 -21q-2 -8 -4 -13q0 -5 -18 -56.5t-13 -69.5q4 -8 -1 -31q5 -2 11 -3q46 -12 52 -14q36 5 43 -1q9 -9 3 -49q-12 -15 -26 -24.5t-23.5 -12t-25.5 -5.5q-6 -2 -16 0t-15 1q-7 -1 -29 2q-2 -21 -8 -49q-13 -55 -27 -93q-6 -15 -8.5 -61.5t-18.5 -61.5
q-17 -26 -39 -46q-21 -17 -39.5 -16t-25.5 12q-4 15 -3.5 43t9.5 51q5 8 11.5 32.5t9.5 34.5q14 31 14 69.5t6 58.5l12 40l23 103q-14 -50 4 1q10 41 21 85q1 3 2 22t5.5 34.5t12.5 30.5q2 4 14 30l6 13q0 11 10 30q21 18 28 22q14 3 26 5z" />
    <glyph glyph-name="G" unicode="G" horiz-adv-x="553" 
d="M523 86q-10 -14 -43 -37.5t-51 -29.5q-8 -3 -21.5 -6.5t-20.5 -5.5q-3 -1 -14 -6.5t-15 -6.5q-8 -2 -27 2t-29 1q-3 -1 -11 -4t-11.5 -4t-12.5 -2t-14 2q-8 2 -23.5 10.5t-22.5 10.5q-3 1 -10 1t-11 1q-4 2 -9 12t-8 12q-5 4 -21 5t-21 6q-1 1 -13 18.5t-12 18.5v10.5
t-2 10.5q-3 4 -9 10.5t-8 10.5q-31 58 -13 116q12 40 35 85q4 8 8.5 24.5t5.5 20.5q2 3 8 8.5t8 7.5q6 10 18 26q3 3 16 26t24.5 41.5t17.5 21.5q4 3 12.5 4.5t11.5 3.5q5 3 11 17.5t10 17.5q2 1 8.5 3.5t9.5 4.5t9 10.5t10 10.5q3 1 9 2t9 3t8.5 9.5t8.5 9.5q6 4 21.5 5
t20.5 3q11 3 28.5 14.5t23.5 14.5q7 2 15 3t10 2q58 9 97 -8q12 -6 32 -26q18 -17 23 -46q7 -31 4 -47q0 -18 -4 -37.5t-9.5 -36.5t-19.5 -27.5t-34 -10.5q-12 0 -19 8.5t-8.5 16.5t-4 25t2 28.5t5 26.5t-9.5 28q-14 22 -42 18q-4 0 -14 0.5t-14 -0.5q-8 -2 -20.5 -9.5
t-20.5 -13.5t-23 -19t-17 -15q-5 -3 -18 -7t-18 -9q-2 -2 -6 -8t-6 -8q-47 -37 -67 -68q-9 -12 -23 -54t-19 -52q-4 -8 -11 -18t-9.5 -15t-3 -16t3.5 -28q10 -44 18 -59q3 -7 7 -11.5t13 -10.5t11.5 -8t9 -12t12.5 -11q2 -1 8 -0.5t9 0.5q4 -1 14.5 -6.5t14.5 -6.5
q9 -4 21.5 3t14.5 7q6 1 18.5 0t20.5 0q14 3 83 41q4 2 9 10q4 5 6 7q1 20 4 34v2q-26 2 -29 2q-2 0 -31 -3t-33 -2q-5 0 -22 2q-2 2 -11 1q-8 -1 -11 1q-8 5 -10 7q-3 1 -8 7q-6 5 -6 13t3 20q4 22 26 34q10 6 29 -2q51 12 87 3q8 -2 27 1q17 3 23 0l4 -1q9 7 23 7
q5 1 11 -1q2 -1 4 -3l5 -2q4 -2 6 -5q6 -4 7 -5q3 -5 6 -13q1 -8 3 -13q-2 -11 -3 -13q-3 -8 -5 -14q-1 -10 0 -16q1 -8 -3 -29t-18.5 -48.5t-18.5 -33.5z" />
    <glyph glyph-name="H" unicode="H" horiz-adv-x="574" 
d="M617 691q14 4 28.5 -3.5t18.5 -17.5v-2q0 -3 0.5 -7.5t0.5 -9.5q0 -40 -5 -66.5t-10.5 -38t-5.5 -14.5q-1 -11 -7.5 -29.5t-8.5 -29.5q-2 -17 -9 -32q-1 -3 -4.5 -10.5t-5.5 -15t-2 -14.5q2 -33 -14 -74q-4 -10 -11.5 -24.5t-10.5 -24.5q-2 -5 -4 -34q-1 -9 -8.5 -34
t-8.5 -37q-4 -74 -12 -94q-3 -8 -14 -18t-13 -12q-3 -5 -11 -16t-10.5 -13t-9.5 -6.5t-15.5 -3t-21.5 5.5q-11 3 -13 33q0 5 2.5 12t7 15.5t5.5 11.5q6 17 16.5 67t10.5 65q0 19 8 51q3 14 -2 19q-6 5 -12.5 8t-11.5 4.5t-14.5 0t-13.5 -2t-17.5 -4t-17.5 -4.5
q-10 -2 -28 0.5t-30 -0.5q-35 -9 -52 -5q-15 4 -46.5 -7.5t-37.5 -19.5q-8 -11 -13 -49.5t-9 -48.5q-8 -20 -19 -54q-2 -5 -3 -14.5t-2 -13.5q-3 -9 -4.5 -21t-4 -21t-10.5 -17l-15 -15q-20 -18 -39 -13q-20 5 -27 21q-8 19 9.5 64t17.5 63q0 22 4 43.5t13.5 50.5t11.5 36
q4 14 6 42t6 42q5 16 15.5 54.5t19.5 66.5q4 8 6 20t5 20q5 20 12 33q6 11 11 28.5t8 24.5q8 20 31 35t41 11q13 -2 19 -21q1 -6 -5.5 -33.5t-11.5 -38.5q-10 -19 -17.5 -49.5t-12.5 -44.5q-2 -6 -5 -12t-4 -10.5t0 -13.5q1 -7 -2 -21l-4.5 -21t1.5 -12q8 -5 42 1
q15 4 47.5 3.5t46.5 3.5q13 4 35.5 8.5t28.5 5.5q19 5 30.5 3t24.5 -0.5t25 9.5q11 8 15 17.5t6 26.5t6 29q2 6 6.5 11t6.5 12q2 10 4 31t5 31q2 7 2 18t3 19t9 20t9.5 20t3.5 14q0 13 8 21q13 13 27 16z" />
    <glyph glyph-name="I" unicode="I" horiz-adv-x="482" 
d="M226 86l2 10q1 41 8 60q9 24 18 56q2 4 3 12t1 11q2 4 10 15.5t9 19.5q3 9 9 59t7 55l6 33q13 39 12 49q0 5 -2.5 14.5t-2.5 13.5q-1 10 11.5 34t6.5 34q-10 16 -47 7t-53 -2q-30 15 -17 70q3 7 11 9q5 2 13.5 2t12.5 3q39 22 63 24.5t35 4.5q10 1 39.5 4t50 6.5
t37.5 7.5q8 3 49 2t68 -21q20 -16 4.5 -46t-44.5 -38q-18 -2 -25 -0.5t-33 2.5t-37.5 -4.5t-19.5 -21.5q-6 -9 -8.5 -34t-6.5 -36q-14 -38 -13 -50q2 -25 -2 -41q-6 -18 -23.5 -90.5t-23.5 -91.5q-2 -6 -4 -19.5t-3 -19.5q-2 -5 -5.5 -18t-7 -23t-4.5 -18q-3 -14 -7 -42
q34 0 72 -7q32 8 43 2q25 -12 23 -34q-1 -12 -5 -20q-3 -8 -12 -13q-9 -6 -13 -7q-4 -2 -17 -7q-6 -2 -16 -1q-11 1 -16 -1q-27 -2 -32 -2q-5 -1 -44 2q-16 1 -26 2q-9 -3 -15 -4q-10 0 -17 4q-11 -1 -30 -2q-41 -2 -46 2q-11 3 -21 0q-12 -2 -23 -1q-12 1 -18 9
q-12 6 -11 26q-1 2 1 13q4 5 10 13q7 8 10 13q5 1 16 6q12 6 22 9q11 3 18 0q18 -9 32 -5q6 2 18 1z" />
    <glyph glyph-name="J" unicode="J" horiz-adv-x="590" 
d="M478 425q5 16 2 41q-1 12 14 50q4 11 6 36q3 25 8 34q9 16 21 22q11 5 37 4t33 -2q7 -2 24 0q30 8 45 38q16 30 -4 46q-27 20 -68 21t-50 -2q-16 -4 -37 -7q-20 -4 -50 -7q-29 -3 -39 -4q-11 -2 -34 -4q-25 -3 -64 -25q-4 -3 -12 -3q-9 0 -15 -2q-7 -2 -10 -9
q-13 -55 17 -70q15 -7 53 2q37 9 47 -7q4 -6 1 -16q-4 -3 -7 -6l-3 -18q-11 -19 -9 -28q0 -3 2 -10q-9 -54 -10 -69l-5 -31q-1 -5 -7 -55q-1 -6 0 -11q-5 -43 -20 -80q-3 -5 -1 -15t2 -12q0 -10 -14 -35.5t-25 -39.5q-44 -66 -78 -68q-20 -2 -25 4q-8 8 -7.5 21t0.5 16
q-2 5 -9.5 15t-8.5 14q-4 9 -1.5 20t0.5 17q-3 17 -23 26q-23 11 -44.5 -7t-21.5 -39q1 -6 5 -12.5t4 -14.5q0 -4 -1.5 -14.5t0.5 -16.5q18 -73 79 -108q66 -38 133 13q16 12 28 29q1 1 3.5 8.5t4.5 10.5q4 2 14.5 9l16.5 11q4 4 6 16t5 16t10 9.5t9 10.5q4 8 8 25.5t5 23
t8.5 17t9.5 18.5q0 5 -1 17t1 19q2 13 14 45t15 50v19q10 41 13 54z" />
    <glyph glyph-name="K" unicode="K" horiz-adv-x="521" 
d="M243 700q27 1 37.5 -12t10.5 -42q0 -21 -4 -35t-9.5 -24.5t-6.5 -12.5q-2 -6 -2.5 -21t-3.5 -23q-3 -7 -14.5 -29t-18 -44.5t-6.5 -49.5q0 -13 3 -13q18 -2 45 31t38 38q3 2 16.5 12.5t17.5 12.5q10 5 28 24.5t19 20.5q7 6 32 23q5 3 12.5 11.5t10.5 11.5q33 29 64 49
q8 5 29.5 25.5t40.5 32.5t33 9q9 -1 15 -11t6 -21q0 -12 -12.5 -28.5t-31 -33.5t-20.5 -20q-33 -34 -103 -87q-4 -3 -9 -9.5t-8 -8.5q-4 -3 -19.5 -11.5t-28.5 -16.5t-16 -11q-3 -4 -6.5 -11.5t-6.5 -11.5q-7 -10 -30.5 -27t-28.5 -29q-1 -4 8.5 -15.5t17.5 -17.5
q6 -3 11 -7t10.5 -8.5t9.5 -7.5q4 -2 9.5 -12t6.5 -11q4 -4 11.5 -18t12.5 -19q7 -6 15 -23.5t13 -22.5q3 -3 11.5 -6.5t11.5 -5.5q9 -8 31.5 -47t31.5 -59q7 -15 1 -38t-19 -32q-28 -19 -52.5 3.5t-45.5 65t-28 49.5t-29.5 32.5t-32.5 34.5q-6 5 -15.5 18t-15.5 18
q-33 26 -47 43q-3 5 -7 10q-6 18 -20 13q-16 -5 -29.5 -57t-13.5 -80q0 -32 -9 -54q-9 -17 -8 -21q-2 -11 -2.5 -35t-0.5 -25q-2 -23 -22.5 -46.5t-38.5 -23.5q-10 0 -13 4t-19 9t-15 13q-3 19 2 32q1 5 2.5 20t2.5 20q1 6 10 24t9 32v10q0 32 10.5 69.5t10.5 38.5
q1 14 4.5 31t6.5 29.5t10.5 33.5t10.5 28.5l12 30t10 24.5q4 9 2.5 29t4.5 34q7 17 23 68q2 5 3.5 17t2.5 17q0 1 10 27.5t10 33.5q0 5 -5 24.5t0 26.5q2 5 19 12t18 7q3 2 9 2z" />
    <glyph glyph-name="L" unicode="L" horiz-adv-x="433" 
d="M272 -13.5q-33 -1.5 -42 1.5q-30 9 -74 20q-8 2 -37.5 -6t-34.5 2q-7 6 -12 33.5t2 43.5q0 1 13 23.5t14 36.5q-1 27 3 35q1 3 7 12t8 13.5t3 16.5q1 6 -1 18.5t-2 16.5q0 12 10 34t10 36q1 49 42 153q3 6 2.5 12.5t-1.5 13t-2 9.5l17 72q2 4 7 30t5 29q11 22 20 33
q3 3 18 8.5t19 8.5q8 -2 9 -3q11 -3 21 -12.5t5 -19.5q-3 -7 -6.5 -39t-2.5 -43q-2 -108 -37 -145q-3 -54 -19.5 -83t-17.5 -85q-6 -22 -7 -23t-1 -19t-1 -21q-1 -13 -13.5 -42t-16 -49t10.5 -25q4 -4 25.5 0t27.5 2t16 -4.5t17.5 -4.5t15.5 -4q26 -8 43 -3q7 1 42 -5
q9 -2 18.5 3t15 6.5t17.5 -8.5q14 -5 16.5 -17.5t-11.5 -28.5q-11 -19 -30 -28.5t-42 -10t-53 0.5q-3 7 -36 5.5z" />
    <glyph glyph-name="M" unicode="M" horiz-adv-x="741" 
d="M350 680q8 1 24.5 -2t21.5 -7q20 -24 23 -41q5 -26 -4 -54q-3 -19 -3 -25t2 -29.5t3 -32.5q0 -4 -2 -24t1 -23q6 -12 6 -45v-30q-3 -36 -3 -52q1 -12 -1 -36t-2 -39.5t6 -18.5q10 -4 71 114q3 5 5 14.5t4 13.5q5 10 20 36t18 32l4 8t6 10q4 6 8.5 18.5t7.5 17.5
q1 2 7 6.5t7 6.5q43 74 51 95q13 32 35 61q23 29 48 30q31 2 36 -11q4 -9 4.5 -20.5t0 -27t-0.5 -23.5q1 -29 -6 -73.5t-7 -112.5v-15q-21 -103 -21 -222q0 -26 1 -32q2 -17 -1 -56t-7 -52q-4 -11 -2 -35q1 -16 -22 -42q-8 -9 -25 -11t-28 5q-5 4 -8 6.5t-4 6t-1.5 6t-1 9
t-1.5 12.5v7q0 15 4 29t4 18q0 7 -4.5 21t-4.5 20q0 4 4 29.5t4 57.5v14.5v18.5v12q-1 19 6.5 64t7.5 56q0 15 5 51t9 63.5t2 28.5q-4 2 -12.5 -12t-17.5 -34l-9 -20q-9 -17 -24.5 -51t-20.5 -43q-3 -5 -11.5 -14.5t-10.5 -14.5q-3 -8 -8.5 -26.5t-9.5 -28.5q-2 -5 -9 -12
l-9 -9q-9 -13 -16.5 -26.5t-18 -33t-15.5 -29.5q-1 -2 -5 -6t-5 -7q-3 -6 -6 -17.5t-6 -17.5q-2 -3 -7.5 -8t-7.5 -7q-4 -6 -13.5 -21.5t-15.5 -24.5t-16.5 -14.5t-20.5 -0.5q-29 13 -42 63q0 1 0.5 5t2 15t1.5 26v25q0 12 3 27t3 20q0 10 -3 28.5t-3 27.5q-1 17 2.5 49.5
t3.5 44.5q0 3 1.5 11t1.5 11q0 4 -4 12t-4 12q-1 9 2 35t3 44.5t-9 20.5q-8 2 -26 -38t-22 -59q-1 -5 -3 -14t-4 -13q-4 -10 -15 -29t-14 -29q-2 -5 -3 -16t-3 -17q-4 -10 -17 -31.5t-18 -33.5q-3 -9 -5 -19.5t-6 -22.5t-16 -34.5t-16 -31.5q-3 -7 -6 -18.5t-9 -20.5
q-19 -31 -57 -53q-18 -10 -29 5q-5 7 -7.5 15.5t-1.5 19.5t2 18.5t6 21.5t7 19t9 20.5t8 17.5q3 6 10.5 16.5t9.5 17.5q1 3 4.5 14.5t5.5 17.5q3 12 19.5 36.5t19.5 33.5l18 48q3 9 14.5 26t14.5 25q3 10 12.5 34.5t13.5 37.5q2 7 12.5 20t13.5 18q7 37 10 45q7 20 16 35
q5 9 18 36.5t25.5 46t25.5 24.5z" />
    <glyph glyph-name="N" unicode="N" horiz-adv-x="594" 
d="M636 657q11 -2 13 -5q0 -1 7 -11t9.5 -16t1.5 -13q0 -8 -4.5 -22t-5.5 -20q0 -1 -0.5 -19t-4.5 -26q0 -3 -7.5 -16.5t-7.5 -19.5q-3 -46 -6 -60l-11 -51v-28.5t-1.5 -34t-7.5 -32.5q-10 -22 -20.5 -69.5t-10.5 -69.5q0 -18 -13.5 -82t-21.5 -71q-22 -20 -42 -15t-32 31
q-3 5 -7.5 11t-6.5 13q-1 1 -1.5 18.5t-13.5 29.5q-10 11 -17 26q-28 60 -32 65q-7 10 -17.5 37t-17.5 37q-2 4 -12.5 23.5t-15.5 28.5q-1 1 -13 34q-4 10 -12.5 26t-12.5 25q-2 5 -8.5 22.5t-12 30.5t-8.5 16q-2 2 -5 -3t-5.5 -14t-5.5 -19t-6 -21t-5 -17q-16 -49 -19 -67
q-1 -12 -8 -31t-9 -29q0 -4 1.5 -16t1.5 -15q-1 -16 -9.5 -49.5t-10.5 -40.5q-3 -8 -10 -40t-14 -42q-18 -27 -53 -30q-16 -2 -23 11.5t-9 32.5q-4 21 13 90q1 6 6.5 19.5t6.5 21.5q-1 7 3.5 21.5t4.5 19.5q-1 23 8 41q13 29 12 89q-1 17 13 46.5t14 30.5q3 13 7 38.5
t8 38.5l12 25q3 8 4 28.5t1 21.5q3 35 16.5 63.5t32.5 38.5q31 14 46 1q21 -16 27 -73q1 -7 6.5 -22t5.5 -17q4 -17 24 -72q2 -4 3 -14t3 -14q0 -1 9 -10t9 -13q1 -5 5 -18.5t5 -18.5q3 -18 17 -52q5 -9 12.5 -17.5t10.5 -16.5q1 -2 2.5 -7t3 -9t3.5 -7q15 -33 35 -59
q0 -1 6 -15t11.5 -25t8.5 -8q8 4 20.5 80t16.5 87q3 7 4 21.5t2 21.5q2 6 7 35t8 32q1 24 7.5 61t16.5 61q2 5 6 13.5t5.5 11.5t4.5 8t4.5 6.5l4.5 4.5t6.5 4t8 2.5t10.5 2.5q4 1 15 -1z" />
    <glyph glyph-name="O" unicode="O" horiz-adv-x="599" 
d="M400 569q-24 -9 -41 -21q-21 -13 -62 -58q-3 -4 -11.5 -12t-14 -14.5t-9.5 -12.5q-12 -21 -21.5 -41t-16 -37t-8.5 -21q-11 -23 -13.5 -30.5t-2 -9t-1.5 -12.5q-2 -7 -8 -36t-9 -41q-1 -14 -2.5 -20.5t2.5 -19t6 -17t7 -14.5t6 -13q2 -5 5 -13t4.5 -12.5t5.5 -9.5t10 -8
q4 -2 14 -3t14 -2q3 -1 13.5 -5t17 -5.5t18 -3.5t16.5 2q60 22 76 42q2 2 8.5 6.5t7.5 5.5q6 6 19 13.5t19 12.5q3 2 22 37q4 7 12 16.5t12 18.5q3 6 7.5 20t6.5 20q2 5 7.5 19.5t7.5 20.5q2 5 7 11t8.5 13t6.5 32.5t3 67.5q0 16 -1 19q-1 5 -1.5 13.5t-2.5 14.5
q-1 3 -2 10.5t-3 12.5t-5 8q-2 2 -7.5 14.5t-8.5 14.5t-17.5 14.5t-19.5 14.5q-3 1 -10 1t-10 1q-25 8 -61 -4zM455 654q16 5 35.5 1.5t27.5 -6.5t25 -11t28 -12q8 -3 17 -17t12 -17l7 -6q7 -6 10 -10.5t4 -11.5q1 -10 9 -35.5t10 -36.5q1 -5 -2 -24.5t-3 -44.5v-11
q1 -5 0 -15t-1 -16v-20q0 -19 -4 -32.5t-9.5 -21.5t-5.5 -10q-2 -8 -4 -23t-5 -22q-9 -24 -47 -81q-24 -37 -71 -85q-3 -3 -16.5 -11.5t-16.5 -11.5q-1 -1 -8 -2.5t-13 -6.5q-2 -2 -9 -12.5t-11 -13.5q-7 -6 -22.5 -14t-17.5 -9q-6 -5 -51 -12t-54 -6q-37 2 -55.5 9
t-52.5 29q-1 1 -7.5 4.5t-11 6t-10 7t-8 9.5t-2.5 11q0 11 -13.5 23t-13.5 24v1q0 1 -0.5 1.5t-1 2.5t-1 4.5t-1 7t-1 10t-0.5 14v18.5q0 3 -1.5 20t-1.5 24q0 17 0.5 28.5t1.5 19t3.5 16.5t4.5 14.5t8 19t10 24.5t10.5 30t12.5 35t13 31q8 18 25 32t25 27q2 3 5.5 11.5
t6.5 11.5q9 8 17 24t15 25q9 11 24.5 22t22.5 19q7 9 37 24q25 14 40 14h9t6 -0.5t4.5 0t5.5 2.5t7 6t15 5t23.5 0.5t15.5 -0.5z" />
    <glyph glyph-name="P" unicode="P" 
d="M486 694q15 0 23 1.5t20.5 -3t18 -5.5t17 -8t15.5 -10l14 -10.5l14 -10.5q3 -2 11 -4t11 -5q5 -4 7.5 -11t4.5 -18t3 -15t7 -10.5t7 -10.5q2 -9 -3 -30.5t-5 -30.5q0 -19 -3.5 -29t-12 -20.5t-12.5 -17.5q-1 -2 -3.5 -11t-6.5 -12q-7 -9 -25.5 -25.5t-22.5 -20.5
q-28 -28 -37 -32q-6 -2 -17 -4t-15 -3q-4 -2 -10.5 -9t-10.5 -8q-6 -3 -19 -5t-19 -6q-1 -1 -5.5 -6t-7.5 -6q-28 -5 -40 -11.5t-35 -12.5q-9 -2 -27 -8t-26 -8t-35.5 -5t-43.5 -11t-25 -28q-5 -13 -9.5 -66t-8.5 -64q-3 -5 -8.5 -14t-9 -15.5t-3.5 -12.5q0 -3 0.5 -7.5
t0.5 -8.5t-1 -7q-7 -22 -39 -42l-6 -1.5t-5.5 1.5t-4.5 2q-30 13 -34 24q-9 20 13 115.5t22 111.5q0 7 2 15.5t4 14t5.5 13.5t5.5 12q2 5 2 14v11q1 8 8 30t8 25q3 11 5 34q1 9 13 38q4 8 1 28q-1 8 12 41q9 22 3 54.5t1 46.5q3 6 11 14.5t10 10.5q3 4 5.5 11t4.5 10
q12 17 53 30q13 4 25 -6.5t17 -11.5q15 -2 22.5 0t18.5 7.5t15 6.5t11 -1t11 -2q3 1 10.5 6t10.5 6q14 4 48 4t44 2zM431 602q-15 -5 -38 -6.5t-38 -5.5l-28 -14q-8 -4 -17.5 -5t-17.5 -4q-25 -11 -28 -14q-10 -11 -23 -94q-1 -6 -3 -16q0 -1 -5.5 -28t-10.5 -53l-5 -27
q2 -4 17 -1.5t24.5 5t28 8t28.5 7.5q67 16 88 30q8 5 38.5 16.5t31.5 11.5q34 14 62 52q24 32 24 64q0 10 -5 18q-2 4 -13 19.5t-14 16.5q-7 5 -24.5 7t-23.5 4q-4 1 -14 6t-15 5.5t-19 -2.5z" />
    <glyph glyph-name="Q" unicode="Q" horiz-adv-x="599" 
d="M437 54q-2 -2 -8 -12q-7 -11 -11 -14q-7 -6 -23 -14t-17 -9q-6 -5 -50.5 -12t-53.5 -6q-43 2 -63 7.5t-50 25.5l-7 4q-9 4 -12.5 6.5t-9.5 7t-8.5 9.5t-2.5 11q0 11 -14 23.5t-14 24.5q0 8 -0.5 27t-0.5 30q0 4 -5 21.5t-5 23.5q-1 24 1 40.5t4 24t11 28.5t13 34
q4 11 14 44t19 52q8 18 24.5 32t24.5 27q1 2 4.5 10.5t7.5 12.5q8 8 16 23.5t15 25.5q8 11 23 22t22 19q3 3 18 12.5t19 11.5q27 14 39 14q5 0 10.5 -0.5t7.5 0t5.5 2t8.5 6.5q5 4 15.5 5t23 0.5t15.5 -0.5q16 3 29 3t26.5 -3t21 -5t23.5 -8t23.5 -9t17 -17t13.5 -17
q2 -1 6 -5t7 -6t5.5 -7t3.5 -10q1 -7 9.5 -33.5t9.5 -38.5q3 -18 4 -36q0 -10 -7 -25.5t-6 -24.5q1 -6 0.5 -15t-0.5 -15q1 -24 -6 -57q-1 -6 -6 -16l-6 -12q-1 -8 -3 -23t-4 -22q-10 -28 -44 -81q-22 -33 -58 -72q4 -2 9 -5q19 -12 28 -18q1 -2 2 -5q1 -4 1 -5q3 -2 7 -6
q5 -4 6 -6q12 -17 17 -61q-2 -4 -14 -18q-17 -4 -28 -2q-11 3 -16 8q-5 4 -13 15t-13 17q-3 2 -10 5q-6 3 -8 5q0 2 -3 9q-2 8 -6 10zM381 107q-3 4 -6 6q-32 9 -47 15q-3 2 -15 21q-10 12 -9 19q-2 4 2 13q43 20 54 20q8 1 17 -4t12 -8q4 -3 10 -10q6 -6 9 -8q6 -5 17 -8
q12 -3 16 -8q1 -1 2 -1q4 3 7 5q3 3 20 37q3 5 11 15t12 20q3 6 7 20t6 20q2 5 7.5 20t7.5 20q3 8 5 11v1q0 3 1 14q1 15 7.5 40.5t9 44.5t-2.5 32q-1 5 -2 13t-3 15q-1 3 -2 10.5t-2.5 12.5t-5.5 8q-2 2 -8 14.5t-8.5 14.5t-17.5 14.5t-20 14.5q-3 1 -10.5 1t-10.5 1
q-25 9 -60 -4q-15 -5 -41 -21q-17 -11 -61 -58q-31 -33 -34 -39q-12 -21 -20.5 -41.5t-14 -36.5t-8.5 -21q-10 -23 -12.5 -29.5t-2.5 -11t-1 -11.5q-3 -11 -8.5 -38.5t-7.5 -38.5q-3 -13 -1 -26.5t4.5 -20.5t10 -21t8.5 -16q2 -5 5 -13t5 -12.5t6 -9.5t10 -8q4 -3 14 -3.5
t14 -1.5q3 -1 14 -4.5t17.5 -5.5t18 -3.5t16.5 1.5q2 1 11.5 5t14 6l13.5 6t14 8q4 1 6 3z" />
    <glyph glyph-name="R" unicode="R" horiz-adv-x="595" 
d="M579 693q6 3 14.5 1t10.5 -2.5t9.5 -5t9.5 -5.5q3 -1 8 -7t8 -7q4 -1 24.5 5.5t24.5 -2.5q10 -5 20 -30q1 -3 5 -8.5t6 -8.5q3 -13 -0.5 -28.5t-8 -24t-16.5 -26.5t-13 -20q-4 -7 -8 -21q-11 -17 -34.5 -37.5t-43.5 -31.5q-4 -2 -11.5 -4.5t-12.5 -5.5q-7 -4 -21.5 -17
t-23.5 -17q-11 -4 -20 -5q-5 -3 -17.5 -13t-20.5 -13q-4 -2 -13.5 -3t-13.5 -4q-8 -4 -21.5 -17t-18.5 -17q-2 -5 -4 -14q14 -21 49.5 -52.5t44.5 -41.5q0 -3 2.5 -8.5t3.5 -8.5q27 -33 29 -38q3 -9 14 -29t16 -25t18 -11t17 -14q5 -10 9 -26t4 -38t-15 -35q-7 -15 -31 -12
q-4 6 -15 12.5t-15 11.5q-5 5 -9.5 21t-9.5 21q-3 1 -8.5 4t-8.5 5q-2 2 -4.5 10t-5.5 10q-5 1 -14.5 3.5t-14.5 3.5q-5 5 -15 22.5t-16 22.5q-3 1 -17 15t-18 16q-1 2 -7 9t-9 9q-14 5 -18 7q-1 2 -5 8.5t-5.5 8.5t-7.5 9.5t-9 10.5q-5 3 -9 15.5t-7 15.5
q-15 14 -52.5 23.5t-63.5 -1.5q-7 -4 -12.5 -25t-8.5 -26t-15 -50.5t-14 -50.5q-3 -10 -4 -44t-15 -46q-3 -2 -12 -8.5t-16 -8.5t-17 -1q-2 2 -9.5 12.5t-10 17.5t-2.5 17t11.5 65t16.5 67q12 25 12 37q5 63 36 127q16 60 24 91q5 9 14 27q9 19 14 81.5t14 67.5
q5 8 17.5 18.5t21.5 14.5q3 1 9 1t10 2q2 2 9.5 8.5t11.5 8.5q22 9 68 18q5 0 15.5 -0.5t16.5 -0.5q7 1 22 6.5t21 6.5q8 -1 23.5 -2t23.5 -2q10 2 31.5 4t31.5 3q7 1 22 -1t25 0zM492 598l-16 -4q-16 -5 -20 -4.5t-21 1.5q-9 5 -16 4q-42 -6 -109 -33q-4 -2 -11 -3
t-11.5 -3.5t-9.5 -9.5q-4 -4 -7 -15t-5.5 -25t-4.5 -19q-7 -17 -9 -37q0 -6 -3 -13.5t-7.5 -16.5t-4.5 -11q-2 -6 -2.5 -10t0.5 -10t0 -9q17 -13 36.5 -14t35 4.5t39.5 18.5q58 30 160 91q59 36 80 66q20 29 -19.5 44.5t-74.5 7.5z" />
    <glyph glyph-name="S" unicode="S" horiz-adv-x="582" 
d="M545 697q74 9 89 -60q13 -64 -24 -138q-3 -6 -11 -14t-11 -12q-6 -7 -7.5 -15t-5.5 -14q-14 -18 -38.5 -22.5t-31.5 17.5q-5 19 4 36q3 6 12 14.5t12 17.5q2 5 4.5 17.5t4.5 18.5q2 3 11 13.5t9 22.5q0 8 -12 17q-22 17 -92 -17q-15 -7 -40.5 -22t-32.5 -24
q-1 -2 -7 -11.5t-10 -12.5q-46 -34 -89 -87q-5 -6 -16 -15t-17.5 -15.5t-12 -17t0.5 -19.5q4 -10 13 -10t22.5 3.5t21.5 1.5q23 -7 134 -10q52 0 67 -2q6 -1 10.5 -4.5t9.5 -8.5l7 -7q4 -2 12 -2.5t12 -1.5q6 -3 22 -27q2 -3 9 -10.5t11 -13.5t3 -14q0 -7 -2 -18.5t-2 -15.5
q1 -16 -3 -24q-7 -15 -16.5 -26t-22.5 -22.5t-21 -19.5q-4 -4 -10.5 -12.5t-11.5 -15t-11 -10.5q-3 -2 -9.5 -4.5t-10.5 -5.5q-2 -2 -7.5 -9.5t-9.5 -9.5q-2 -2 -8.5 -3t-9.5 -2q-7 -4 -24.5 -22t-28.5 -22q-8 -2 -24 -1.5t-23 -2.5q-3 -1 -12 -8.5t-15 -8.5
q-3 -1 -12.5 -0.5t-13.5 0.5q-29 -4 -49 -3q-7 1 -21.5 -1.5t-21.5 -0.5q-88 17 -108 67q-2 6 -2 17.5v16.5q-1 7 -5 12t-5.5 11t2.5 19q4 11 21 19q19 10 25 5q24 -17 39 -35q2 -2 3.5 -6t3.5 -6q4 -4 14.5 -5t14.5 -2q5 -2 17 -10t20 -9q36 -4 73 -3q6 1 15 10t13 10
q4 2 11.5 3t10.5 2q12 4 36 24q2 2 9 10t12 11q2 2 6.5 2t6.5 1q7 3 18 14.5t15 19.5q11 23 -1 33q-15 15 -61 24t-72 3q-10 -2 -27.5 4t-29.5 3q-6 -1 -18.5 -6t-19 -6.5t-21.5 0.5q-6 2 -25 2t-28 3q-12 3 -38 20q-7 5 -9 31q0 24 3 36q2 4 9 15.5t9 15.5q7 17 17.5 30.5
t27 28t23.5 23.5q8 8 20 25t17 23q13 15 41.5 36.5t38.5 31.5q6 5 14 16t10 15q5 6 17.5 12t17 10t18 17.5t21.5 18.5q5 3 12.5 4t12 3t14 11.5t14.5 10.5q6 1 17 1.5t14 0.5q3 1 9.5 6t8.5 6q18 8 35 10z" />
    <glyph glyph-name="T" unicode="T" horiz-adv-x="479" 
d="M472 685h57t49 -7.5t43 -23.5q19 -18 3.5 -41t-43.5 -29q-9 -3 -18.5 -1.5t-13 2.5t-11 5t-10.5 5q-11 4 -28 -4t-20 -8q-14 -3 -31.5 0t-28 0.5t-20.5 -18.5q-5 -9 -10 -38t-8 -38q-1 -2 -6 -12.5t-7 -19t-2 -17.5q0 -2 -0.5 -16.5t-4.5 -25.5q-8 -21 -28.5 -97
t-25.5 -91q-2 -6 -4.5 -19.5t-5.5 -20.5q-2 -9 -9 -30.5t-9 -27.5q-4 -16 -10 -50t-11 -52q-3 -10 -18.5 -19t-26.5 -9q-33 1 -33 75v20q0 20 19 69q4 9 5 28t4 27q2 4 2.5 11.5t1.5 11.5t10 15t11 19q1 4 9.5 58.5t10.5 63.5q5 27 8 33q14 34 14 49q0 10 6 34.5t11.5 45
t4.5 22.5q-9 17 -27.5 18.5t-38 -6.5t-41 -11t-36.5 5q-15 9 -18.5 21.5t3.5 39.5q1 5 11 8q5 2 13.5 1.5t12.5 1.5q47 21 80 24q11 0 34 4.5t35 5.5q99 5 116 8q5 1 30 1z" />
    <glyph glyph-name="U" unicode="U" horiz-adv-x="473" 
d="M384 190q-3 -5 -6 -13q-9 -16 -17 -26q-41 -60 -103 -67q-51 7 -70 67q-4 10 -7 26q1 8 0 13q-1 6 -4 11q-3 17 1 25q0 2 5.5 12t4.5 15q-1 37 9 80q2 5 5 11q13 29 32 145l13 66q-2 3 -5 6q1 10 7 16l10 73q5 46 -22 49q-29 3 -48 7q-25 -28 -48 -150t-30 -185
q-6 -13 -7 -19q-4 -18 -4 -50t-2 -45q-1 -7 -6 -19t-7 -17q-1 -7 2 -18.5t0 -70.5q13 -51 22 -58l4 -4q3 -7 7 -13v-2q50 -73 119 -66q76 -7 122 28q16 12 28 29q1 1 4 9v2l13 13q2 2 7 4q10 7 16 11q3 4 5.5 16t6 16t10.5 9.5t9 10.5q4 8 8 25.5t5.5 23t9.5 17t9 18.5
q0 5 -1 17t2 19q2 13 15 45t15 50q0 6 1 19q11 41 14 54q5 16 3 41q-1 12 15 50q4 11 7 36q2 25 8 34q9 16 13.5 54t-10.5 66q-21 -4 -50 -7t-42 -49l-18 -73q4 -6 1 -16q-3 -3 -7 -6l-3 -18q-11 -19 -10 -28q1 -3 2 -10q-10 -54 -11 -69l-6 -31q-1 -5 -7 -55q-2 -6 -1 -11
q-6 -43 -21 -80q-3 -5 -1.5 -15t1.5 -12q0 -8 -9 -25q-5 -5 -8 -11z" />
    <glyph glyph-name="V" unicode="V" horiz-adv-x="487" 
d="M586 676q50 2 52 -21q9 -13 -14 -51q-4 -7 -16.5 -18t-16.5 -17q-2 -5 -6.5 -15t-6.5 -15q-7 -11 -25.5 -30.5t-23.5 -25.5q-3 -8 -7.5 -23.5t-5.5 -23.5q-7 -15 -23 -43t-19 -33q-3 -14 -12 -35q-7 -13 -26.5 -41.5t-26.5 -40.5l-3 -16q-3 -5 -10.5 -15.5t-9.5 -14.5
q-3 -7 -10.5 -22t-9.5 -23q-12 -21 -34 -48q-4 -7 -13.5 -16t-12.5 -15q-10 -12 -17 -19q-9 -10 -25 -40t-33 -40.5t-49 -2.5l-7 10q-6 10 -7 18q9 32 12 48q-1 7 -9.5 17.5t-8.5 17.5l4 45q0 4 -4 17t-5 20q-1 6 1.5 17.5t0.5 17.5q-1 6 -6.5 17.5t-7.5 17.5
q-1 8 -3.5 24.5t-2.5 22.5q-2 10 -0.5 28.5t1.5 26.5q-1 16 -4 41t-4 37l9 45q-1 5 -1 26t-2 37.5t-5 24.5q-10 24 -10 33q-3 13 8 28q4 8 10.5 13t16 10t14.5 9q33 0 39 -4q11 -5 20 -16.5t9 -23.5l-3 -33q0 -2 0.5 -27.5t1.5 -30.5q-2 -10 -4.5 -32t-4.5 -33q1 -7 4 -14
t3 -13q-4 -30 -7 -44q1 -14 9 -39t9 -38l-5 -23q1 -7 0 -24.5t0.5 -28t4.5 -19.5q1 -3 0.5 -25.5t5.5 -24.5q8 0 19 18t25 47t15 31q3 5 12.5 14t12.5 14q0 4 2 11.5t4 11.5q4 8 15 20t14 18q14 32 22 49q7 11 24 38t24 38q6 10 13 31.5t13 31.5q57 105 117 156z" />
    <glyph glyph-name="W" unicode="W" horiz-adv-x="741" 
d="M202 -19l-3 3q-11 6 -14.5 25t-3.5 46t-2 36q-1 16 1 35q2 9 5.5 24.5t4.5 20.5q1 6 -3.5 19t-3.5 19q1 13 3.5 37t4.5 35q1 8 -3 25t-3 26q1 8 2 24t2 24q2 9 -2.5 33.5t-1.5 36.5q0 6 1.5 16.5t2.5 15.5q0 6 -2 17t-1 17q-1 2 -0.5 17t1 20.5t1.5 19.5t3.5 21.5
t6.5 18.5t10.5 19.5t14.5 15.5q19 15 32 5q28 -22 32 -53q2 -9 -1 -20t-3 -19q0 -10 2 -32t1 -34q-2 -12 -5 -22.5t-5 -19.5q-1 -11 2 -32.5t2 -32.5q0 -5 -3.5 -16.5t-4.5 -16.5q-1 -10 1 -29t1 -29q-1 -5 -3.5 -14t-2.5 -13q-3 -9 -4.5 -32.5t0 -44.5t7.5 -20q9 2 18 20.5
t17.5 44t14.5 35.5q2 4 10 12t10 12q2 3 4 11t3 11q6 12 18 45t20 49q4 9 16 27.5t16 28.5q3 5 6 16.5t5.5 17.5t9.5 22t9 20q3 6 6.5 20t8.5 22q38 50 72 63q12 2 18 1.5t9.5 -10t4.5 -16.5t2 -19t3 -17q1 -3 4.5 -8t4.5 -7q0 -6 -2.5 -17.5t-2.5 -17.5q0 -3 2.5 -7t1.5 -6
q1 -11 1.5 -30t1.5 -33t4 -26q0 -3 4.5 -9.5t4.5 -11.5q-1 -10 -4 -28.5t-5 -26.5q0 -5 4.5 -14.5t4.5 -14.5q1 -9 1 -43t1 -51q-1 -1 -1 -10v-18t0.5 -18.5t2.5 -15t5 -4.5t12 29t21 63.5t18 50.5q7 12 20 56.5t23 63.5q7 14 39 83q4 7 8 23.5t6 23.5q3 6 14.5 21.5
t14.5 22.5q2 5 4.5 15t5.5 15q0 2 2 10.5t5 12.5q6 8 11.5 18t9 13t14.5 9q14 7 31 5t20 -11q10 -27 1 -42q-11 -22 -13 -35q-2 -12 -18 -51.5t-26 -56.5q-10 -16 -27 -60q-4 -11 -33 -85t-40 -109q-17 -47 -34 -79q-15 -30 -21.5 -57.5t-25.5 -64.5q-4 -8 -10 -23.5
t-12 -27t-14 -20.5q-12 -13 -41 -11q-16 1 -22.5 7.5t-11.5 22.5q-10 32 -7 61q0 52 -7 95q0 2 -3.5 6.5t-3.5 6.5q0 4 0.5 17t-0.5 19q-1 4 -1 18q-1 7 -4 33t-3 35q0 4 2.5 13.5t2.5 14.5q-6 118 -18 114q-7 -3 -14.5 -18.5t-16 -40t-14.5 -35.5q-11 -19 -23 -52
q-3 -7 -9.5 -21t-10.5 -23q-8 -18 -21 -31q-6 -6 -13 -25t-8 -22q-4 -8 -17 -30t-18.5 -34.5t-7.5 -22.5q-3 -27 -21 -54q-12 -17 -43 -41q-6 -4 -24 -7t-26 -2q-2 0 -5 3z" />
    <glyph glyph-name="X" unicode="X" horiz-adv-x="478" 
d="M210 668q6 -1 11.5 -2.5t9.5 -4.5l6 -4.5t5 -7.5l3.5 -7t3.5 -9t3 -9q1 -4 7.5 -11.5t7.5 -12.5q4 -24 10 -35q2 -5 5 -11q17 -38 25 -64q2 -7 3 -14.5t4 -16.5q1 -2 3 -12t5.5 -15.5t8.5 -6.5q9 -2 36 33q5 6 20 29.5t22 29.5q3 2 12 6.5t12 9.5q5 18 8 23t13.5 13
t13.5 12q7 10 16.5 25.5t17 28t17 26t18 21.5t18.5 12.5t21 2t23 -13.5t13 -25.5t-6 -28.5t-20.5 -31t-26.5 -30.5t-29.5 -30t-24.5 -26.5q-3 -4 -12 -10.5t-12 -10.5q-14 -15 -37.5 -48t-34.5 -46q-5 -5 -20 -18t-21 -22q-2 -3 2.5 -8.5t4.5 -7.5t-1 -6t-1 -6
q1 -11 9.5 -30.5t9.5 -24.5q1 -4 2 -13t2 -14q3 -13 16 -36t16 -36q1 -6 4 -13t4 -17q1 -7 6 -18t6 -15q2 -7 0 -36.5t-4 -33.5q-17 -31 -36 -36q-8 -4 -11 -3q-11 1 -18.5 7.5t-10.5 12.5t-6.5 18.5t-5.5 17.5q-1 2 -7 13.5t-7 17.5q-2 15 -6.5 25.5t-11.5 23t-11 22.5
q-3 8 -15.5 30.5t-16.5 34.5q-1 2 -2 9t-3 10q-1 1 -2 -1t-1 -4q-5 -6 -12.5 -18.5t-12.5 -18.5l-9 -10q-9 -9 -13 -15q-5 -6 -13.5 -19.5t-15.5 -22.5t-16 -17q-19 -17 -31 -32q-17 -21 -31 -43q-8 -12 -13 -25.5t-7.5 -19.5t-10 -12.5t-21.5 -12.5q-24 -10 -38 6.5
t-13 42.5t18 43q5 5 10.5 16.5t10.5 17.5q4 4 13.5 11.5t12.5 10.5q10 11 24 32t20 28q2 3 8.5 7.5t8.5 6.5q19 19 53 73q4 6 16.5 19.5t20.5 27t9 29.5q0 14 -12 34t-12 36q0 26 -21 66t-23 65q-1 7 -6 18t-6 15q-2 7 -1.5 26.5t2.5 23.5q6 11 16.5 22.5t19.5 14.5
q2 0 6 1.5t6 1.5z" />
    <glyph glyph-name="Y" unicode="Y" horiz-adv-x="436" 
d="M570 706q8 6 16 -2q2 -2 10.5 -5.5t15.5 -8t7 -8.5q0 -22 -17 -46t-41.5 -50.5t-33.5 -41.5q-3 -6 -8 -14t-6.5 -11t-5 -8t-8 -9.5t-11.5 -12.5q-7 -7 -17.5 -22t-17.5 -23q-3 -3 -9 -7t-8 -6q-14 -13 -29 -34q-4 -6 -17 -33.5t-18 -34.5q-2 -3 -10 -7.5t-10 -7.5
q-11 -17 -25.5 -35.5t-27.5 -39.5q-6 -9 -22 -41.5t-26 -45.5q-6 -7 -25.5 -25t-22.5 -23q-4 -6 -6.5 -16.5t-4.5 -14.5q-11 -20 -42.5 -52t-57.5 -46q-10 -6 -27 1t-17 20q0 14 3.5 22t12.5 19t13 17q5 7 9.5 19.5t7.5 17.5q3 7 14 15.5t14 11.5q3 4 8 13t8 14q1 2 7 7.5
t8 8.5q28 57 48 82q1 2 21 23.5t30.5 40t9.5 36.5q-1 6 -13 14t-12 13q0 2 2 7.5t1 7.5q-1 6 -6.5 15t-6.5 14q0 3 1 10t-1 8q-9 13 -16 26t-10.5 20.5t-10.5 24.5t-11 26q-5 11 -17 26t-18.5 25t-11.5 30t5 41q3 9 17.5 19.5t23.5 7.5q6 -2 9.5 -8.5t7.5 -7.5q12 -3 20 -10
q3 -2 5 -10t5 -10t9 -3.5t9 -3.5t4.5 -9t3.5 -9q11 -12 18 -23.5t10 -19.5t9 -24.5t11 -28.5q18 -41 36 -55q5 -4 12.5 -3t11.5 5q48 48 90 110q22 33 31 51q24 45 90 87z" />
    <glyph glyph-name="Z" unicode="Z" horiz-adv-x="527" 
d="M186 100q13 1 26 1q38 0 59 -5l29 3q30 4 40 -4q14 -8 48 -2t37 5q6 -1 21 0t20 -1t15.5 -3.5t16.5 -3.5t11.5 -6t7 -12t-0.5 -21q-3 -15 -11 -22.5t-24 -12.5t-19 -6q-9 -4 -19.5 -5t-24.5 1.5t-15 2.5q-84 0 -154 -6q-14 -1 -41.5 6t-47.5 2q-7 -1 -23.5 -2t-20.5 -3
q-16 -4 -36 1t-30 13q-11 7 -14.5 23t3.5 32q13 33 59 73q44 41 54 55q26 34 72 84q44 50 74 76l32 41q33 41 51 51q24 14 59 61q35 48 41 53q8 7 24 27q-70 -1 -131 -6q-15 -1 -42.5 6t-47.5 2q-6 -1 -22.5 -2t-21.5 -3q-16 -4 -36 1t-30 13q-10 7 -14 23t5 29q10 16 26 25
q9 11 41.5 4.5t41.5 -4.5q25 4 62.5 4t58.5 -5l30 3q30 4 40 -4q13 -8 47.5 -2t36.5 5q6 -1 21.5 0t20.5 -1t15 -3.5t16 -3.5t12 -6t7 -12v-8q1 -4 0 -9v-4q-3 -13 -10 -21q-3 -6 -8 -13q-15 -24 -15 -28q-9 -15 -20 -28q-12 -14 -30 -32q-19 -16 -21 -19
q-99 -111 -179 -208q-16 -18 -55 -51t-59 -63q-6 -8 -25 -31q-18 -22 -23 -30q-4 -7 -10 -14z" />
    <glyph glyph-name="bracketleft" unicode="[" horiz-adv-x="333" 
d="M176 632q-1 6 0 14q-1 2 2 13q3 5 8.5 13t9.5 13q2 1 9 5q3 3 8 5l4 2q4 2 7 3q6 2 11 1q13 0 20 -7q3 0 5 1q7 3 23.5 0t26.5 -1q39 9 85 -3q23 8 30 2q18 -12 14 -34q-2 -12 -5 -20t-10.5 -13.5t-10.5 -7t-12 -6.5q-5 -2 -12.5 -1t-11.5 -1l-22.5 -2.5t-32 2.5t-29.5 3
q-4 0 -31 -2v-2q-2 -14 -9 -34t-8 -23q-26 -118 -41 -217q-4 -19 -20 -61q-16 -41 -17 -68q-1 -9 -5 -32t-3 -29q-1 -18 -10 -42h4q17 -3 26 -1q39 9 86 -3q22 8 30 2q17 -12 14 -34q-2 -12 -5.5 -20t-10.5 -13.5t-10.5 -7t-12.5 -6.5q-4 -2 -12 -1t-11 -1q-19 -2 -23 -2.5
t-32 2.5t-30 3q-4 0 -34 -2.5t-33 1.5h-2q-18 -10 -30 -2q-1 1 -2 1q-8 2 -10 9q-5 4 -6 15q0 2 -1 4q-9 9 9 57q17 49 17 62q4 34 16 87q11 54 23 85l6 42q6 41 17 58q13 21 17 67q4 47 7 53q2 8 6 29t7 29q3 6 7 16z" />
    <glyph glyph-name="backslash" unicode="\" horiz-adv-x="338" 
d="M267.5 -19.5q-19.5 5.5 -30.5 20.5q-12 18 -20.5 49t-6.5 55q1 8 0 33.5t-1 35.5q3 32 -9.5 75t-13.5 64q-3 111 -16 241q0 4 -4.5 25t-5 37t2.5 31q1 4 4.5 29.5t12 38.5t26.5 18q15 3 25.5 1t16 -11t8.5 -18t6.5 -25.5t7 -24.5t4.5 -31.5t3 -32.5q2 -6 -0.5 -59
t9.5 -74q11 -16 11 -62v-47q9 -33 14.5 -91.5t4.5 -97.5q-1 -15 11.5 -66.5t1.5 -64.5q-8 -24 -26 -41q-16 -13 -35.5 -7.5z" />
    <glyph glyph-name="bracketright" unicode="]" horiz-adv-x="333" 
d="M415 616q0 -8 -5 -29t-6 -29q0 -6 -16 -53q-15 -46 -12 -67q5 -17 -8 -58l-11 -42q-2 -31 -13 -85q-11 -53 -22 -87q-4 -13 -9 -62q-2 -48 -15 -57q-2 -2 -3 -4q-5 -11 -12 -15q-7 -7 -14 -9q-1 0 -2 -1q-16 -8 -30 2h-2q-5 -4 -34 -1.5t-33 2.5q-2 0 -31 -3t-33 -2.5
t-21 2.5q-3 2 -11 1t-12 1q-7 5 -9.5 6.5t-7.5 7t-5 13.5t4 20q5 22 28 34q10 6 29 -2q52 12 87 3q9 -2 26 1h3q2 24 10 42q3 6 9 29t8 32q11 27 12 68q2 42 7 61q26 99 51 217q0 3 1 23q3 20 6 34l1 2q-27 2 -30 2q-2 0 -31 -3t-33 -2.5t-21 2.5q-3 2 -11 1t-12 1
q-7 5 -9.5 6.5t-7.5 7t-5 13.5t4 20q5 22 28 34q10 6 29 -2q52 12 87 3q9 -2 27 1t23 0q2 -1 4 -1q9 7 23 7q6 1 11 -1q2 -1 5 -3l4 -2q4 -2 6 -5q5 -4 7 -5q2 -5 4 -13t3 -13q-3 -11 -4 -13q-3 -8 -6 -14q-1 -10 0 -16z" />
    <glyph glyph-name="a" unicode="a" horiz-adv-x="557" 
d="M443 665q9 3 43 -2q4 -1 8 -8t5 -8q4 -3 12 -4t12 -3q14 -6 27.5 -21t16.5 -28q1 -5 -0.5 -16t-0.5 -17q0 -3 5.5 -9t5.5 -9q1 -7 -0.5 -21.5t-1.5 -20.5q0 -4 6 -11.5t6 -16.5v-11q0 -7 1.5 -24.5t1.5 -26.5q0 -30 -12 -66q-2 -4 -2 -14q0 -42 -5 -58q-13 -31 -13 -70
q0 -10 1 -35t1 -33v-10q0 -52 -22 -88q-12 -20 -30 -30q-10 -5 -25.5 1.5t-19.5 14.5q-5 2 -1 32t4 38q0 12 5.5 51t3.5 63.5t-16 28.5q-26 8 -82 4q-45 -4 -109 -18q-11 -3 -31 -4t-33 -4.5t-22 -14.5q-5 -7 -12 -27l-8 -20q-1 -3 -2.5 -9.5t-3.5 -9.5q-2 -4 -12 -16
t-12 -19q-8 -25 -17 -51q-24 -67 -57 -81q-13 -4 -15 -3q-2 2 -9.5 7t-11.5 9.5t-5 11.5q-1 4 5.5 27t10.5 32q4 8 11 22.5t11 25t8 25.5q2 7 15.5 28.5t15.5 27.5q2 4 -5 11t-6 11q20 57 31 67q3 3 14 8t14 9q6 8 10 25t6 21q1 3 6.5 6.5t6.5 5.5q10 17 27 50t21 41
q3 4 12.5 11t13.5 12q8 11 13 19t11 18t13 21q2 3 7 6t6 5q2 3 10.5 18t13.5 22q2 3 7.5 6.5t7.5 5.5t23.5 30t35.5 37q22 15 50 23zM425 576q-2 -1 -7.5 -4t-9.5 -5q-8 -6 -63 -81q-7 -9 -40 -67q-3 -5 -14.5 -23t-17.5 -29t-10.5 -26.5t-1.5 -26.5q1 -6 12.5 -7.5
t21.5 2.5q9 3 25 2.5t28 2.5q15 4 45.5 6.5t43.5 5.5t22.5 0.5t19 1t18.5 16.5q5 9 7 35t0 35q-7 47 -6 77q0 5 0.5 14t0.5 14q0 12 -8.5 34t-17.5 25q-17 6 -48 -2z" />
    <glyph glyph-name="b" unicode="b" horiz-adv-x="552" 
d="M351 673q80 3 168 -2q5 -1 11.5 -8.5t10.5 -8.5q3 0 12 0.5t12 -0.5q11 -2 23 -13t15 -13q3 -1 10.5 -3t10.5 -4q13 -9 15.5 -48t-9.5 -66q-7 -14 -23.5 -36t-26.5 -27q-3 -2 -7.5 -3t-6.5 -2q-8 -4 -21 -18t-19 -18q-2 -1 -11.5 -6.5t-16.5 -9.5t-15.5 -10t-14.5 -11.5
t-8 -10.5q-3 -6 8.5 -14.5t26.5 -17t17 -12.5q2 -3 9.5 -11t11.5 -15t4 -15q0 -4 -1.5 -11t-1.5 -10q1 -3 4 -9.5t3 -9.5q0 -6 -2 -12t-6 -13t-5 -8q-5 -10 -3.5 -25t-2.5 -25q-1 -3 -6.5 -10t-6.5 -9q-3 -7 -6.5 -20t-5.5 -20q-2 -6 -12 -11.5t-12 -7.5q-1 -1 -5 -7t-7 -7
q-7 -3 -18.5 -5.5t-16.5 -4.5q-4 -1 -12 -8t-12 -8q-9 -4 -26.5 -4t-26.5 -3q-6 -2 -22.5 -11.5t-27.5 -10.5q-12 -1 -33 1t-32 2q-6 -1 -17 -9.5t-15 -9.5q-13 -4 -63.5 -2t-57.5 7q-4 2 -6.5 7t-4.5 7q-3 2 -4 5.5t-1 10v14t0.5 23t0.5 31.5q0 27 6 41q13 29 14 36v14
t1 20.5t5 17.5q7 16 13 37t9.5 35.5t8.5 40.5t8 39q12 58 12 59q3 10 14 32t15 32q2 5 3.5 15.5t2.5 15.5q2 7 10.5 23t10.5 22q2 4 3 13t2 13q2 5 10.5 14t10.5 12q2 4 4.5 8.5t3.5 7t4 5.5t8 5q26 13 51 13l5 -2q5 -3 9 -2q3 1 12.5 8.5t12.5 8.5q6 2 16 2zM353 583
q-24 -3 -31 -5q-2 -1 -19 -4q-25 -7 -41 -17q-5 -3 -7 -8t-4 -13.5t-3 -11.5q-1 -4 -6 -12.5t-5 -11.5q-2 -10 -7.5 -29t-7.5 -27q0 -2 0.5 -12.5t-1.5 -13.5q-2 -7 -7 -18.5t-8 -18.5t-5 -16.5t-1 -17.5q0 -3 1.5 -4.5t4.5 -3l5 -2.5q5 -3 33.5 3.5t35.5 10.5
q8 5 24.5 16.5t24.5 16.5q11 7 33.5 15.5t33.5 15.5q3 2 9 9.5t10 9.5l26 13t36 19.5t22 17.5q60 67 25 87q-17 10 -77.5 13.5t-93.5 -1.5zM363 289q-9 2 -27 -5t-21 -8q-5 -1 -20.5 -7.5t-21.5 -7.5q-23 -5 -55 -20.5t-44 -29.5q-7 -9 -11.5 -29.5t-8.5 -29.5
q-2 -5 -6.5 -13.5t-6.5 -13t-4.5 -13t0.5 -12.5q6 -21 42 -31q9 -3 19.5 -3t22 2t19 3.5t19.5 5t15 4.5q9 2 26 1.5t22 3.5q8 3 24.5 12t22.5 11q3 1 10.5 4t10.5 4t8.5 3.5t8.5 4.5t7.5 5.5t8 7.5t6.5 9q14 21 9 54q-4 32 -13 44.5t-35 26.5q-1 1 -9.5 8t-17.5 9z" />
    <glyph glyph-name="c" unicode="c" horiz-adv-x="553" 
d="M486 641q58 10 96 -8q13 -6 30 -26q15 -15 20 -46l3 -33q0 -53 -18.5 -90t-58.5 -36q-4 0 -7.5 1t-6 3t-4.5 3.5t-3.5 5.5t-2 6t-1.5 7t-1 7t-0.5 8.5t-0.5 8.5q-1 11 4.5 28t6.5 26.5t-8 28.5q-15 22 -42 18q-4 0 -14 0.5t-14 -0.5q-9 -2 -21.5 -9.5t-21.5 -14
t-23.5 -18.5t-18.5 -15t-17 -7t-18 -9q-6 -6 -14 -16q-48 -37 -71 -68q-9 -12 -30.5 -53t-24.5 -46q-15 -26 -20 -46t0 -52q2 -14 15 -45q3 -7 7 -11.5t12.5 -10.5t10.5 -8q1 -1 8 -11.5t13 -11.5q2 -1 8 -0.5t9 0.5q5 -1 14.5 -6.5t12.5 -6.5q10 -4 22 3t14 7q6 1 19 0
t20 0q19 4 87 41q3 2 9 9t10 10q9 6 38.5 12.5t34.5 3.5q12 -8 14 -16q3 -15 -1 -21q-22 -33 -35 -51q-11 -14 -45.5 -37.5t-52.5 -29.5q-7 -2 -21 -5.5t-21 -6.5q-3 -1 -13.5 -6.5t-15.5 -6.5q-8 -2 -27.5 2t-29.5 1q-1 0 -15.5 -5t-16.5 -4.5t-17 1.5q-9 2 -23.5 10.5
t-21.5 10.5q-3 1 -9.5 1t-10.5 1q-4 2 -9 12t-7 12q-5 4 -21 5t-21 6q-1 1 -11.5 18.5t-10.5 18.5v10t-2 11q-2 4 -7.5 10.5t-7.5 10.5q-10 20 -12.5 50t7.5 66q16 45 39 85q4 8 9 23.5t8 21.5q2 3 8.5 8.5t8.5 7.5q3 4 10.5 13t10.5 13t17 26.5t26.5 41t18.5 21.5
q5 3 13.5 4.5t11.5 3.5q6 3 12.5 17.5t11.5 17.5q2 1 8 3.5t9 4.5q2 1 9.5 10t12.5 11q3 1 8.5 2t8.5 3t9 9.5t9 9.5q7 4 22 5t21 3q11 3 29 14.5t25 14.5q6 2 15 3t11 2z" />
    <glyph glyph-name="d" unicode="d" horiz-adv-x="566" 
d="M316 660q55 -20 62.5 -21t13.5 -3q5 -3 18.5 -14.5t22.5 -14.5q4 -2 19 -3t20 -5q3 -2 5 -9.5t4.5 -9.5t8 -3t7.5 -2q4 -2 6.5 -10.5t5 -10.5t8 -4.5t6.5 -3.5q4 -3 4 -17.5t4 -17.5q3 -2 10.5 -3.5t10.5 -4.5q5 -3 9.5 -21.5t8.5 -41.5t5 -26q6 -16 9 -26q1 -2 5 -7.5
t4 -8.5q0 -4 -1.5 -20.5t-0.5 -24.5q5 -45 2 -85q-5 -58 -58 -116q-4 -4 -12.5 -10.5t-12.5 -10.5q-4 -3 -6.5 -10.5t-4.5 -10.5q0 -1 -18.5 -18.5t-20.5 -18.5q-7 -5 -23 -6t-23 -5q-4 -2 -12.5 -12t-13.5 -12q-4 -1 -11 -1t-11 -1q-8 -2 -26.5 -10.5t-27.5 -10.5
q-6 -3 -15 -2t-12 2t-10 4t-8 4q-10 3 -30.5 -1t-27.5 -2q-4 1 -12.5 6.5t-11.5 6.5q-19 -16 -47 -12q-34 -7 -51.5 -14t-29.5 1q-14 10 -18 29q-9 9 9 57.5t19 61.5q4 34 16.5 87.5t25.5 84.5l7 42q5 41 17 58q13 21 18 67.5t8 52.5q3 8 7 29t7.5 29t9 23.5t9.5 24t10 18
t15.5 14t23.5 5.5q15 0 75 -5zM163 159q0 -1 1 -1q2 -2 4.5 -9.5t-9.5 -55.5q40 -16 73 -5q16 9 29.5 10t18.5 0q2 0 11.5 -7t20.5 -3q4 1 17 6.5t17 6.5q3 0 9 -0.5t8 0.5q6 1 16.5 11t14 12t14.5 8t17 10.5t12 11.5q13 15 41 59q10 17 13.5 28t3 16t-3.5 15t-4 18
q-2 10 0.5 52t-1.5 54q-9 31 -41 68q-1 2 -3 8t-3 8q-3 5 -14.5 9t-14.5 7q-2 2 -12 15t-15.5 19t-15 13.5t-17.5 9.5q-4 1 -14 0.5t-14 -0.5q-20 15 -57 -5q-7 -26 -12 -41t-5 -26.5t-9 -28.5q-5 -10 -9 -17q-16 -72 -27 -136q-3 -19 -20 -60.5t-19 -68.5q0 -4 -1 -11z" />
    <glyph glyph-name="e" unicode="e" horiz-adv-x="538" 
d="M487 645q70 5 126 -25q23 -13 9 -39q-23 -42 -57 -35q-44 11 -59 7q-20 -6 -30 -6q-8 0 -43.5 6t-56.5 1q-11 -3 -29.5 -8.5t-25.5 -7.5q-10 -2 -21 -2t-16.5 -3t-12.5 -14q-3 -5 -7.5 -27.5t-5.5 -26.5q-3 -8 -9.5 -24.5t-9.5 -26t-6 -23.5t-3 -26q0 -8 3 -12t9.5 -4
t12.5 1.5t17 4.5t19 4t25.5 4t25.5 4q101 20 136 14q5 -1 16.5 1t17.5 2q56 -9 61 -38q6 -35 -9 -58q-8 -12 -45 -23q-10 -3 -22 4t-13 7q-5 2 -26 4t-24 1q-14 -4 -20 -2q-16 4 -24 2q-6 -1 -26 -1.5t-32 -3.5q-7 -2 -22 -7t-20 -6q-32 -8 -43 -14q-37 -22 -42 -35
q-26 -62 -26 -123q0 -2 2.5 -3t4.5 -3q11 -5 21.5 -2.5t29 10.5t24.5 9t21.5 -0.5t21.5 0.5q21 4 52 7t69 3t50 -8q7 -5 17 -15t11 -17q1 -20 -10.5 -42.5t-26.5 -30.5q-13 -7 -47 7.5t-49 11.5q-7 -2 -32 0t-38 -2q-5 -2 -16.5 -8.5t-16.5 -8.5q-13 -4 -36 -4t-35 -3
q-19 -5 -62.5 -16t-55.5 -14q-18 -5 -32.5 15t-15.5 39v4q4 11 20.5 21t20.5 17q10 17 17 32q6 13 7 62l1 5v5q0 56 11 84q1 2 4.5 15t6.5 20q2 4 8.5 13.5t8.5 14.5q5 13 7 37t5 33q4 10 8 33.5t7 33.5q1 3 10.5 30t11.5 33q3 9 2.5 13.5t-3.5 10.5t-3 8q-4 33 12 49
q13 13 55 33q8 3 22.5 4.5t18.5 2.5q8 2 25 -3t29 -2q4 1 16.5 8t19.5 8q5 1 16 -4l12 -5q1 0 81 13z" />
    <glyph glyph-name="f" unicode="f" horiz-adv-x="487" 
d="M282 709q12 4 28 -1q7 -1 11 -2q1 -1 4 -3q75 7 121 -6q10 -4 38 -2q26 1 33 -3q11 -5 38 3q9 2 16 -2q8 -4 16 -10q7 -7 11 -9q-2 -5 -2 -14q-1 -9 -1 -15q-8 -11 -10 -13q-18 -21 -35 -27q-14 -8 -26 -8q-13 0 -22 4q-8 3 -22 1q-10 -4 -48 2q-40 6 -46 6q-2 1 -45 1
q-41 0 -46 1l-8 -21q-2 -8 -4 -13q0 -5 -18 -56.5t-13 -69.5q4 -8 -1 -31q5 -2 11 -3q46 -12 52 -14q36 5 43 -1q9 -9 3 -49q-12 -15 -26 -24.5t-23.5 -12t-25.5 -5.5q-6 -2 -16 0t-15 1q-7 -1 -29 2q-2 -21 -8 -49q-13 -55 -27 -93q-6 -15 -8.5 -61.5t-18.5 -61.5
q-17 -26 -39 -46q-21 -17 -39.5 -16t-25.5 12q-4 15 -3.5 43t9.5 51q5 8 11.5 32.5t9.5 34.5q14 31 14 69.5t6 58.5l12 40l23 103q-14 -50 4 1q10 41 21 85q1 3 2 22t5.5 34.5t12.5 30.5q2 4 14 30l6 13q0 11 10 30q21 18 28 22q14 3 26 5z" />
    <glyph glyph-name="g" unicode="g" horiz-adv-x="553" 
d="M523 86q-10 -14 -43 -37.5t-51 -29.5q-8 -3 -21.5 -6.5t-20.5 -5.5q-3 -1 -14 -6.5t-15 -6.5q-8 -2 -27 2t-29 1q-3 -1 -11 -4t-11.5 -4t-12.5 -2t-14 2q-8 2 -23.5 10.5t-22.5 10.5q-3 1 -10 1t-11 1q-4 2 -9 12t-8 12q-5 4 -21 5t-21 6q-1 1 -13 18.5t-12 18.5v10.5
t-2 10.5q-3 4 -9 10.5t-8 10.5q-31 58 -13 116q12 40 35 85q4 8 8.5 24.5t5.5 20.5q2 3 8 8.5t8 7.5q6 10 18 26q3 3 16 26t24.5 41.5t17.5 21.5q4 3 12.5 4.5t11.5 3.5q5 3 11 17.5t10 17.5q2 1 8.5 3.5t9.5 4.5t9 10.5t10 10.5q3 1 9 2t9 3t8.5 9.5t8.5 9.5q6 4 21.5 5
t20.5 3q11 3 28.5 14.5t23.5 14.5q7 2 15 3t10 2q58 9 97 -8q12 -6 32 -26q18 -17 23 -46q7 -31 4 -47q0 -18 -4 -37.5t-9.5 -36.5t-19.5 -27.5t-34 -10.5q-12 0 -19 8.5t-8.5 16.5t-4 25t2 28.5t5 26.5t-9.5 28q-14 22 -42 18q-4 0 -14 0.5t-14 -0.5q-8 -2 -20.5 -9.5
t-20.5 -13.5t-23 -19t-17 -15q-5 -3 -18 -7t-18 -9q-2 -2 -6 -8t-6 -8q-47 -37 -67 -68q-9 -12 -23 -54t-19 -52q-4 -8 -11 -18t-9.5 -15t-3 -16t3.5 -28q10 -44 18 -59q3 -7 7 -11.5t13 -10.5t11.5 -8t9 -12t12.5 -11q2 -1 8 -0.5t9 0.5q4 -1 14.5 -6.5t14.5 -6.5
q9 -4 21.5 3t14.5 7q6 1 18.5 0t20.5 0q14 3 83 41q4 2 9 10q4 5 6 7q1 20 4 34v2q-26 2 -29 2q-2 0 -31 -3t-33 -2q-5 0 -22 2q-2 2 -11 1q-8 -1 -11 1q-8 5 -10 7q-3 1 -8 7q-6 5 -6 13t3 20q4 22 26 34q10 6 29 -2q51 12 87 3q8 -2 27 1q17 3 23 0l4 -1q9 7 23 7
q5 1 11 -1q2 -1 4 -3l5 -2q4 -2 6 -5q6 -4 7 -5q3 -5 6 -13q1 -8 3 -13q-2 -11 -3 -13q-3 -8 -5 -14q-1 -10 0 -16q1 -8 -3 -29t-18.5 -48.5t-18.5 -33.5z" />
    <glyph glyph-name="h" unicode="h" horiz-adv-x="574" 
d="M617 691q14 4 28.5 -3.5t18.5 -17.5v-2q0 -3 0.5 -7.5t0.5 -9.5q0 -40 -5 -66.5t-10.5 -38t-5.5 -14.5q-1 -11 -7.5 -29.5t-8.5 -29.5q-2 -17 -9 -32q-1 -3 -4.5 -10.5t-5.5 -15t-2 -14.5q2 -33 -14 -74q-4 -10 -11.5 -24.5t-10.5 -24.5q-2 -5 -4 -34q-1 -9 -8.5 -34
t-8.5 -37q-4 -74 -12 -94q-3 -8 -14 -18t-13 -12q-3 -5 -11 -16t-10.5 -13t-9.5 -6.5t-15.5 -3t-21.5 5.5q-11 3 -13 33q0 5 2.5 12t7 15.5t5.5 11.5q6 17 16.5 67t10.5 65q0 19 8 51q3 14 -2 19q-6 5 -12.5 8t-11.5 4.5t-14.5 0t-13.5 -2t-17.5 -4t-17.5 -4.5
q-10 -2 -28 0.5t-30 -0.5q-35 -9 -52 -5q-15 4 -46.5 -7.5t-37.5 -19.5q-8 -11 -13 -49.5t-9 -48.5q-8 -20 -19 -54q-2 -5 -3 -14.5t-2 -13.5q-3 -9 -4.5 -21t-4 -21t-10.5 -17l-15 -15q-20 -18 -39 -13q-20 5 -27 21q-8 19 9.5 64t17.5 63q0 22 4 43.5t13.5 50.5t11.5 36
q4 14 6 42t6 42q5 16 15.5 54.5t19.5 66.5q4 8 6 20t5 20q5 20 12 33q6 11 11 28.5t8 24.5q8 20 31 35t41 11q13 -2 19 -21q1 -6 -5.5 -33.5t-11.5 -38.5q-10 -19 -17.5 -49.5t-12.5 -44.5q-2 -6 -5 -12t-4 -10.5t0 -13.5q1 -7 -2 -21l-4.5 -21t1.5 -12q8 -5 42 1
q15 4 47.5 3.5t46.5 3.5q13 4 35.5 8.5t28.5 5.5q19 5 30.5 3t24.5 -0.5t25 9.5q11 8 15 17.5t6 26.5t6 29q2 6 6.5 11t6.5 12q2 10 4 31t5 31q2 7 2 18t3 19t9 20t9.5 20t3.5 14q0 13 8 21q13 13 27 16z" />
    <glyph glyph-name="i" unicode="i" horiz-adv-x="482" 
d="M226 86l2 10q1 41 8 60q9 24 18 56q2 4 3 12t1 11q2 4 10 15.5t9 19.5q3 9 9 59t7 55l6 33q13 39 12 49q0 5 -2.5 14.5t-2.5 13.5q-1 10 11.5 34t6.5 34q-10 16 -47 7t-53 -2q-30 15 -17 70q3 7 11 9q5 2 13.5 2t12.5 3q39 22 63 24.5t35 4.5q10 1 39.5 4t50 6.5
t37.5 7.5q8 3 49 2t68 -21q20 -16 4.5 -46t-44.5 -38q-18 -2 -25 -0.5t-33 2.5t-37.5 -4.5t-19.5 -21.5q-6 -9 -8.5 -34t-6.5 -36q-14 -38 -13 -50q2 -25 -2 -41q-6 -18 -23.5 -90.5t-23.5 -91.5q-2 -6 -4 -19.5t-3 -19.5q-2 -5 -5.5 -18t-7 -23t-4.5 -18q-3 -14 -7 -42
q34 0 72 -7q32 8 43 2q25 -12 23 -34q-1 -12 -5 -20q-3 -8 -12 -13q-9 -6 -13 -7q-4 -2 -17 -7q-6 -2 -16 -1q-11 1 -16 -1q-27 -2 -32 -2q-5 -1 -44 2q-16 1 -26 2q-9 -3 -15 -4q-10 0 -17 4q-11 -1 -30 -2q-41 -2 -46 2q-11 3 -21 0q-12 -2 -23 -1q-12 1 -18 9
q-12 6 -11 26q-1 2 1 13q4 5 10 13q7 8 10 13q5 1 16 6q12 6 22 9q11 3 18 0q18 -9 32 -5q6 2 18 1z" />
    <glyph glyph-name="j" unicode="j" horiz-adv-x="590" 
d="M478 425q5 16 2 41q-1 12 14 50q4 11 6 36q3 25 8 34q9 16 21 22q11 5 37 4t33 -2q7 -2 24 0q30 8 45 38q16 30 -4 46q-27 20 -68 21t-50 -2q-16 -4 -37 -7q-20 -4 -50 -7q-29 -3 -39 -4q-11 -2 -34 -4q-25 -3 -64 -25q-4 -3 -12 -3q-9 0 -15 -2q-7 -2 -10 -9
q-13 -55 17 -70q15 -7 53 2q37 9 47 -7q4 -6 1 -16q-4 -3 -7 -6l-3 -18q-11 -19 -9 -28q0 -3 2 -10q-9 -54 -10 -69l-5 -31q-1 -5 -7 -55q-1 -6 0 -11q-5 -43 -20 -80q-3 -5 -1 -15t2 -12q0 -10 -14 -35.5t-25 -39.5q-44 -66 -78 -68q-20 -2 -25 4q-8 8 -7.5 21t0.5 16
q-2 5 -9.5 15t-8.5 14q-4 9 -1.5 20t0.5 17q-3 17 -23 26q-23 11 -44.5 -7t-21.5 -39q1 -6 5 -12.5t4 -14.5q0 -4 -1.5 -14.5t0.5 -16.5q18 -73 79 -108q66 -38 133 13q16 12 28 29q1 1 3.5 8.5t4.5 10.5q4 2 14.5 9l16.5 11q4 4 6 16t5 16t10 9.5t9 10.5q4 8 8 25.5t5 23
t8.5 17t9.5 18.5q0 5 -1 17t1 19q2 13 14 45t15 50v19q10 41 13 54z" />
    <glyph glyph-name="k" unicode="k" horiz-adv-x="521" 
d="M243 700q27 1 37.5 -12t10.5 -42q0 -21 -4 -35t-9.5 -24.5t-6.5 -12.5q-2 -6 -2.5 -21t-3.5 -23q-3 -7 -14.5 -29t-18 -44.5t-6.5 -49.5q0 -13 3 -13q18 -2 45 31t38 38q3 2 16.5 12.5t17.5 12.5q10 5 28 24.5t19 20.5q7 6 32 23q5 3 12.5 11.5t10.5 11.5q33 29 64 49
q8 5 29.5 25.5t40.5 32.5t33 9q9 -1 15 -11t6 -21q0 -12 -12.5 -28.5t-31 -33.5t-20.5 -20q-33 -34 -103 -87q-4 -3 -9 -9.5t-8 -8.5q-4 -3 -19.5 -11.5t-28.5 -16.5t-16 -11q-3 -4 -6.5 -11.5t-6.5 -11.5q-7 -10 -30.5 -27t-28.5 -29q-1 -4 8.5 -15.5t17.5 -17.5
q6 -3 11 -7t10.5 -8.5t9.5 -7.5q4 -2 9.5 -12t6.5 -11q4 -4 11.5 -18t12.5 -19q7 -6 15 -23.5t13 -22.5q3 -3 11.5 -6.5t11.5 -5.5q9 -8 31.5 -47t31.5 -59q7 -15 1 -38t-19 -32q-28 -19 -52.5 3.5t-45.5 65t-28 49.5t-29.5 32.5t-32.5 34.5q-6 5 -15.5 18t-15.5 18
q-33 26 -47 43q-3 5 -7 10q-6 18 -20 13q-16 -5 -29.5 -57t-13.5 -80q0 -32 -9 -54q-9 -17 -8 -21q-2 -11 -2.5 -35t-0.5 -25q-2 -23 -22.5 -46.5t-38.5 -23.5q-10 0 -13 4t-19 9t-15 13q-3 19 2 32q1 5 2.5 20t2.5 20q1 6 10 24t9 32v10q0 32 10.5 69.5t10.5 38.5
q1 14 4.5 31t6.5 29.5t10.5 33.5t10.5 28.5l12 30t10 24.5q4 9 2.5 29t4.5 34q7 17 23 68q2 5 3.5 17t2.5 17q0 1 10 27.5t10 33.5q0 5 -5 24.5t0 26.5q2 5 19 12t18 7q3 2 9 2z" />
    <glyph glyph-name="l" unicode="l" horiz-adv-x="433" 
d="M272 -13.5q-33 -1.5 -42 1.5q-30 9 -74 20q-8 2 -37.5 -6t-34.5 2q-7 6 -12 33.5t2 43.5q0 1 13 23.5t14 36.5q-1 27 3 35q1 3 7 12t8 13.5t3 16.5q1 6 -1 18.5t-2 16.5q0 12 10 34t10 36q1 49 42 153q3 6 2.5 12.5t-1.5 13t-2 9.5l17 72q2 4 7 30t5 29q11 22 20 33
q3 3 18 8.5t19 8.5q8 -2 9 -3q11 -3 21 -12.5t5 -19.5q-3 -7 -6.5 -39t-2.5 -43q-2 -108 -37 -145q-3 -54 -19.5 -83t-17.5 -85q-6 -22 -7 -23t-1 -19t-1 -21q-1 -13 -13.5 -42t-16 -49t10.5 -25q4 -4 25.5 0t27.5 2t16 -4.5t17.5 -4.5t15.5 -4q26 -8 43 -3q7 1 42 -5
q9 -2 18.5 3t15 6.5t17.5 -8.5q14 -5 16.5 -17.5t-11.5 -28.5q-11 -19 -30 -28.5t-42 -10t-53 0.5q-3 7 -36 5.5z" />
    <glyph glyph-name="m" unicode="m" horiz-adv-x="741" 
d="M350 680q8 1 24.5 -2t21.5 -7q20 -24 23 -41q5 -26 -4 -54q-3 -19 -3 -25t2 -29.5t3 -32.5q0 -4 -2 -24t1 -23q6 -12 6 -45v-30q-3 -36 -3 -52q1 -12 -1 -36t-2 -39.5t6 -18.5q10 -4 71 114q3 5 5 14.5t4 13.5q5 10 20 36t18 32l4 8t6 10q4 6 8.5 18.5t7.5 17.5
q1 2 7 6.5t7 6.5q43 74 51 95q13 32 35 61q23 29 48 30q31 2 36 -11q4 -9 4.5 -20.5t0 -27t-0.5 -23.5q1 -29 -6 -73.5t-7 -112.5v-15q-21 -103 -21 -222q0 -26 1 -32q2 -17 -1 -56t-7 -52q-4 -11 -2 -35q1 -16 -22 -42q-8 -9 -25 -11t-28 5q-5 4 -8 6.5t-4 6t-1.5 6t-1 9
t-1.5 12.5v7q0 15 4 29t4 18q0 7 -4.5 21t-4.5 20q0 4 4 29.5t4 57.5v14.5v18.5v12q-1 19 6.5 64t7.5 56q0 15 5 51t9 63.5t2 28.5q-4 2 -12.5 -12t-17.5 -34l-9 -20q-9 -17 -24.5 -51t-20.5 -43q-3 -5 -11.5 -14.5t-10.5 -14.5q-3 -8 -8.5 -26.5t-9.5 -28.5q-2 -5 -9 -12
l-9 -9q-9 -13 -16.5 -26.5t-18 -33t-15.5 -29.5q-1 -2 -5 -6t-5 -7q-3 -6 -6 -17.5t-6 -17.5q-2 -3 -7.5 -8t-7.5 -7q-4 -6 -13.5 -21.5t-15.5 -24.5t-16.5 -14.5t-20.5 -0.5q-29 13 -42 63q0 1 0.5 5t2 15t1.5 26v25q0 12 3 27t3 20q0 10 -3 28.5t-3 27.5q-1 17 2.5 49.5
t3.5 44.5q0 3 1.5 11t1.5 11q0 4 -4 12t-4 12q-1 9 2 35t3 44.5t-9 20.5q-8 2 -26 -38t-22 -59q-1 -5 -3 -14t-4 -13q-4 -10 -15 -29t-14 -29q-2 -5 -3 -16t-3 -17q-4 -10 -17 -31.5t-18 -33.5q-3 -9 -5 -19.5t-6 -22.5t-16 -34.5t-16 -31.5q-3 -7 -6 -18.5t-9 -20.5
q-19 -31 -57 -53q-18 -10 -29 5q-5 7 -7.5 15.5t-1.5 19.5t2 18.5t6 21.5t7 19t9 20.5t8 17.5q3 6 10.5 16.5t9.5 17.5q1 3 4.5 14.5t5.5 17.5q3 12 19.5 36.5t19.5 33.5l18 48q3 9 14.5 26t14.5 25q3 10 12.5 34.5t13.5 37.5q2 7 12.5 20t13.5 18q7 37 10 45q7 20 16 35
q5 9 18 36.5t25.5 46t25.5 24.5z" />
    <glyph glyph-name="n" unicode="n" horiz-adv-x="594" 
d="M636 657q11 -2 13 -5q0 -1 7 -11t9.5 -16t1.5 -13q0 -8 -4.5 -22t-5.5 -20q0 -1 -0.5 -19t-4.5 -26q0 -3 -7.5 -16.5t-7.5 -19.5q-3 -46 -6 -60l-11 -51v-28.5t-1.5 -34t-7.5 -32.5q-10 -22 -20.5 -69.5t-10.5 -69.5q0 -18 -13.5 -82t-21.5 -71q-22 -20 -42 -15t-32 31
q-3 5 -7.5 11t-6.5 13q-1 1 -1.5 18.5t-13.5 29.5q-10 11 -17 26q-28 60 -32 65q-7 10 -17.5 37t-17.5 37q-2 4 -12.5 23.5t-15.5 28.5q-1 1 -13 34q-4 10 -12.5 26t-12.5 25q-2 5 -8.5 22.5t-12 30.5t-8.5 16q-2 2 -5 -3t-5.5 -14t-5.5 -19t-6 -21t-5 -17q-16 -49 -19 -67
q-1 -12 -8 -31t-9 -29q0 -4 1.5 -16t1.5 -15q-1 -16 -9.5 -49.5t-10.5 -40.5q-3 -8 -10 -40t-14 -42q-18 -27 -53 -30q-16 -2 -23 11.5t-9 32.5q-4 21 13 90q1 6 6.5 19.5t6.5 21.5q-1 7 3.5 21.5t4.5 19.5q-1 23 8 41q13 29 12 89q-1 17 13 46.5t14 30.5q3 13 7 38.5
t8 38.5l12 25q3 8 4 28.5t1 21.5q3 35 16.5 63.5t32.5 38.5q31 14 46 1q21 -16 27 -73q1 -7 6.5 -22t5.5 -17q4 -17 24 -72q2 -4 3 -14t3 -14q0 -1 9 -10t9 -13q1 -5 5 -18.5t5 -18.5q3 -18 17 -52q5 -9 12.5 -17.5t10.5 -16.5q1 -2 2.5 -7t3 -9t3.5 -7q15 -33 35 -59
q0 -1 6 -15t11.5 -25t8.5 -8q8 4 20.5 80t16.5 87q3 7 4 21.5t2 21.5q2 6 7 35t8 32q1 24 7.5 61t16.5 61q2 5 6 13.5t5.5 11.5t4.5 8t4.5 6.5l4.5 4.5t6.5 4t8 2.5t10.5 2.5q4 1 15 -1z" />
    <glyph glyph-name="o" unicode="o" horiz-adv-x="599" 
d="M400 569q-24 -9 -41 -21q-21 -13 -62 -58q-3 -4 -11.5 -12t-14 -14.5t-9.5 -12.5q-12 -21 -21.5 -41t-16 -37t-8.5 -21q-11 -23 -13.5 -30.5t-2 -9t-1.5 -12.5q-2 -7 -8 -36t-9 -41q-1 -14 -2.5 -20.5t2.5 -19t6 -17t7 -14.5t6 -13q2 -5 5 -13t4.5 -12.5t5.5 -9.5t10 -8
q4 -2 14 -3t14 -2q3 -1 13.5 -5t17 -5.5t18 -3.5t16.5 2q60 22 76 42q2 2 8.5 6.5t7.5 5.5q6 6 19 13.5t19 12.5q3 2 22 37q4 7 12 16.5t12 18.5q3 6 7.5 20t6.5 20q2 5 7.5 19.5t7.5 20.5q2 5 7 11t8.5 13t6.5 32.5t3 67.5q0 16 -1 19q-1 5 -1.5 13.5t-2.5 14.5
q-1 3 -2 10.5t-3 12.5t-5 8q-2 2 -7.5 14.5t-8.5 14.5t-17.5 14.5t-19.5 14.5q-3 1 -10 1t-10 1q-25 8 -61 -4zM455 654q16 5 35.5 1.5t27.5 -6.5t25 -11t28 -12q8 -3 17 -17t12 -17l7 -6q7 -6 10 -10.5t4 -11.5q1 -10 9 -35.5t10 -36.5q1 -5 -2 -24.5t-3 -44.5v-11
q1 -5 0 -15t-1 -16v-20q0 -19 -4 -32.5t-9.5 -21.5t-5.5 -10q-2 -8 -4 -23t-5 -22q-9 -24 -47 -81q-24 -37 -71 -85q-3 -3 -16.5 -11.5t-16.5 -11.5q-1 -1 -8 -2.5t-13 -6.5q-2 -2 -9 -12.5t-11 -13.5q-7 -6 -22.5 -14t-17.5 -9q-6 -5 -51 -12t-54 -6q-37 2 -55.5 9
t-52.5 29q-1 1 -7.5 4.5t-11 6t-10 7t-8 9.5t-2.5 11q0 11 -13.5 23t-13.5 24v1q0 1 -0.5 1.5t-1 2.5t-1 4.5t-1 7t-1 10t-0.5 14v18.5q0 3 -1.5 20t-1.5 24q0 17 0.5 28.5t1.5 19t3.5 16.5t4.5 14.5t8 19t10 24.5t10.5 30t12.5 35t13 31q8 18 25 32t25 27q2 3 5.5 11.5
t6.5 11.5q9 8 17 24t15 25q9 11 24.5 22t22.5 19q7 9 37 24q25 14 40 14h9t6 -0.5t4.5 0t5.5 2.5t7 6t15 5t23.5 0.5t15.5 -0.5z" />
    <glyph glyph-name="p" unicode="p" 
d="M486 694q15 0 23 1.5t20.5 -3t18 -5.5t17 -8t15.5 -10l14 -10.5l14 -10.5q3 -2 11 -4t11 -5q5 -4 7.5 -11t4.5 -18t3 -15t7 -10.5t7 -10.5q2 -9 -3 -30.5t-5 -30.5q0 -19 -3.5 -29t-12 -20.5t-12.5 -17.5q-1 -2 -3.5 -11t-6.5 -12q-7 -9 -25.5 -25.5t-22.5 -20.5
q-28 -28 -37 -32q-6 -2 -17 -4t-15 -3q-4 -2 -10.5 -9t-10.5 -8q-6 -3 -19 -5t-19 -6q-1 -1 -5.5 -6t-7.5 -6q-28 -5 -40 -11.5t-35 -12.5q-9 -2 -27 -8t-26 -8t-35.5 -5t-43.5 -11t-25 -28q-5 -13 -9.5 -66t-8.5 -64q-3 -5 -8.5 -14t-9 -15.5t-3.5 -12.5q0 -3 0.5 -7.5
t0.5 -8.5t-1 -7q-7 -22 -39 -42l-6 -1.5t-5.5 1.5t-4.5 2q-30 13 -34 24q-9 20 13 115.5t22 111.5q0 7 2 15.5t4 14t5.5 13.5t5.5 12q2 5 2 14v11q1 8 8 30t8 25q3 11 5 34q1 9 13 38q4 8 1 28q-1 8 12 41q9 22 3 54.5t1 46.5q3 6 11 14.5t10 10.5q3 4 5.5 11t4.5 10
q12 17 53 30q13 4 25 -6.5t17 -11.5q15 -2 22.5 0t18.5 7.5t15 6.5t11 -1t11 -2q3 1 10.5 6t10.5 6q14 4 48 4t44 2zM431 602q-15 -5 -38 -6.5t-38 -5.5l-28 -14q-8 -4 -17.5 -5t-17.5 -4q-25 -11 -28 -14q-10 -11 -23 -94q-1 -6 -3 -16q0 -1 -5.5 -28t-10.5 -53l-5 -27
q2 -4 17 -1.5t24.5 5t28 8t28.5 7.5q67 16 88 30q8 5 38.5 16.5t31.5 11.5q34 14 62 52q24 32 24 64q0 10 -5 18q-2 4 -13 19.5t-14 16.5q-7 5 -24.5 7t-23.5 4q-4 1 -14 6t-15 5.5t-19 -2.5z" />
    <glyph glyph-name="q" unicode="q" horiz-adv-x="599" 
d="M437 54q-2 -2 -8 -12q-7 -11 -11 -14q-7 -6 -23 -14t-17 -9q-6 -5 -50.5 -12t-53.5 -6q-43 2 -63 7.5t-50 25.5l-7 4q-9 4 -12.5 6.5t-9.5 7t-8.5 9.5t-2.5 11q0 11 -14 23.5t-14 24.5q0 8 -0.5 27t-0.5 30q0 4 -5 21.5t-5 23.5q-1 24 1 40.5t4 24t11 28.5t13 34
q4 11 14 44t19 52q8 18 24.5 32t24.5 27q1 2 4.5 10.5t7.5 12.5q8 8 16 23.5t15 25.5q8 11 23 22t22 19q3 3 18 12.5t19 11.5q27 14 39 14q5 0 10.5 -0.5t7.5 0t5.5 2t8.5 6.5q5 4 15.5 5t23 0.5t15.5 -0.5q16 3 29 3t26.5 -3t21 -5t23.5 -8t23.5 -9t17 -17t13.5 -17
q2 -1 6 -5t7 -6t5.5 -7t3.5 -10q1 -7 9.5 -33.5t9.5 -38.5q3 -18 4 -36q0 -10 -7 -25.5t-6 -24.5q1 -6 0.5 -15t-0.5 -15q1 -24 -6 -57q-1 -6 -6 -16l-6 -12q-1 -8 -3 -23t-4 -22q-10 -28 -44 -81q-22 -33 -58 -72q4 -2 9 -5q19 -12 28 -18q1 -2 2 -5q1 -4 1 -5q3 -2 7 -6
q5 -4 6 -6q12 -17 17 -61q-2 -4 -14 -18q-17 -4 -28 -2q-11 3 -16 8q-5 4 -13 15t-13 17q-3 2 -10 5q-6 3 -8 5q0 2 -3 9q-2 8 -6 10zM381 107q-3 4 -6 6q-32 9 -47 15q-3 2 -15 21q-10 12 -9 19q-2 4 2 13q43 20 54 20q8 1 17 -4t12 -8q4 -3 10 -10q6 -6 9 -8q6 -5 17 -8
q12 -3 16 -8q1 -1 2 -1q4 3 7 5q3 3 20 37q3 5 11 15t12 20q3 6 7 20t6 20q2 5 7.5 20t7.5 20q3 8 5 11v1q0 3 1 14q1 15 7.5 40.5t9 44.5t-2.5 32q-1 5 -2 13t-3 15q-1 3 -2 10.5t-2.5 12.5t-5.5 8q-2 2 -8 14.5t-8.5 14.5t-17.5 14.5t-20 14.5q-3 1 -10.5 1t-10.5 1
q-25 9 -60 -4q-15 -5 -41 -21q-17 -11 -61 -58q-31 -33 -34 -39q-12 -21 -20.5 -41.5t-14 -36.5t-8.5 -21q-10 -23 -12.5 -29.5t-2.5 -11t-1 -11.5q-3 -11 -8.5 -38.5t-7.5 -38.5q-3 -13 -1 -26.5t4.5 -20.5t10 -21t8.5 -16q2 -5 5 -13t5 -12.5t6 -9.5t10 -8q4 -3 14 -3.5
t14 -1.5q3 -1 14 -4.5t17.5 -5.5t18 -3.5t16.5 1.5q2 1 11.5 5t14 6l13.5 6t14 8q4 1 6 3z" />
    <glyph glyph-name="r" unicode="r" horiz-adv-x="595" 
d="M579 693q6 3 14.5 1t10.5 -2.5t9.5 -5t9.5 -5.5q3 -1 8 -7t8 -7q4 -1 24.5 5.5t24.5 -2.5q10 -5 20 -30q1 -3 5 -8.5t6 -8.5q3 -13 -0.5 -28.5t-8 -24t-16.5 -26.5t-13 -20q-4 -7 -8 -21q-11 -17 -34.5 -37.5t-43.5 -31.5q-4 -2 -11.5 -4.5t-12.5 -5.5q-7 -4 -21.5 -17
t-23.5 -17q-11 -4 -20 -5q-5 -3 -17.5 -13t-20.5 -13q-4 -2 -13.5 -3t-13.5 -4q-8 -4 -21.5 -17t-18.5 -17q-2 -5 -4 -14q14 -21 49.5 -52.5t44.5 -41.5q0 -3 2.5 -8.5t3.5 -8.5q27 -33 29 -38q3 -9 14 -29t16 -25t18 -11t17 -14q5 -10 9 -26t4 -38t-15 -35q-7 -15 -31 -12
q-4 6 -15 12.5t-15 11.5q-5 5 -9.5 21t-9.5 21q-3 1 -8.5 4t-8.5 5q-2 2 -4.5 10t-5.5 10q-5 1 -14.5 3.5t-14.5 3.5q-5 5 -15 22.5t-16 22.5q-3 1 -17 15t-18 16q-1 2 -7 9t-9 9q-14 5 -18 7q-1 2 -5 8.5t-5.5 8.5t-7.5 9.5t-9 10.5q-5 3 -9 15.5t-7 15.5
q-15 14 -52.5 23.5t-63.5 -1.5q-7 -4 -12.5 -25t-8.5 -26t-15 -50.5t-14 -50.5q-3 -10 -4 -44t-15 -46q-3 -2 -12 -8.5t-16 -8.5t-17 -1q-2 2 -9.5 12.5t-10 17.5t-2.5 17t11.5 65t16.5 67q12 25 12 37q5 63 36 127q16 60 24 91q5 9 14 27q9 19 14 81.5t14 67.5
q5 8 17.5 18.5t21.5 14.5q3 1 9 1t10 2q2 2 9.5 8.5t11.5 8.5q22 9 68 18q5 0 15.5 -0.5t16.5 -0.5q7 1 22 6.5t21 6.5q8 -1 23.5 -2t23.5 -2q10 2 31.5 4t31.5 3q7 1 22 -1t25 0zM492 598l-16 -4q-16 -5 -20 -4.5t-21 1.5q-9 5 -16 4q-42 -6 -109 -33q-4 -2 -11 -3
t-11.5 -3.5t-9.5 -9.5q-4 -4 -7 -15t-5.5 -25t-4.5 -19q-7 -17 -9 -37q0 -6 -3 -13.5t-7.5 -16.5t-4.5 -11q-2 -6 -2.5 -10t0.5 -10t0 -9q17 -13 36.5 -14t35 4.5t39.5 18.5q58 30 160 91q59 36 80 66q20 29 -19.5 44.5t-74.5 7.5z" />
    <glyph glyph-name="s" unicode="s" horiz-adv-x="582" 
d="M545 697q74 9 89 -60q13 -64 -24 -138q-3 -6 -11 -14t-11 -12q-6 -7 -7.5 -15t-5.5 -14q-14 -18 -38.5 -22.5t-31.5 17.5q-5 19 4 36q3 6 12 14.5t12 17.5q2 5 4.5 17.5t4.5 18.5q2 3 11 13.5t9 22.5q0 8 -12 17q-22 17 -92 -17q-15 -7 -40.5 -22t-32.5 -24
q-1 -2 -7 -11.5t-10 -12.5q-46 -34 -89 -87q-5 -6 -16 -15t-17.5 -15.5t-12 -17t0.5 -19.5q4 -10 13 -10t22.5 3.5t21.5 1.5q23 -7 134 -10q52 0 67 -2q6 -1 10.5 -4.5t9.5 -8.5l7 -7q4 -2 12 -2.5t12 -1.5q6 -3 22 -27q2 -3 9 -10.5t11 -13.5t3 -14q0 -7 -2 -18.5t-2 -15.5
q1 -16 -3 -24q-7 -15 -16.5 -26t-22.5 -22.5t-21 -19.5q-4 -4 -10.5 -12.5t-11.5 -15t-11 -10.5q-3 -2 -9.5 -4.5t-10.5 -5.5q-2 -2 -7.5 -9.5t-9.5 -9.5q-2 -2 -8.5 -3t-9.5 -2q-7 -4 -24.5 -22t-28.5 -22q-8 -2 -24 -1.5t-23 -2.5q-3 -1 -12 -8.5t-15 -8.5
q-3 -1 -12.5 -0.5t-13.5 0.5q-29 -4 -49 -3q-7 1 -21.5 -1.5t-21.5 -0.5q-88 17 -108 67q-2 6 -2 17.5v16.5q-1 7 -5 12t-5.5 11t2.5 19q4 11 21 19q19 10 25 5q24 -17 39 -35q2 -2 3.5 -6t3.5 -6q4 -4 14.5 -5t14.5 -2q5 -2 17 -10t20 -9q36 -4 73 -3q6 1 15 10t13 10
q4 2 11.5 3t10.5 2q12 4 36 24q2 2 9 10t12 11q2 2 6.5 2t6.5 1q7 3 18 14.5t15 19.5q11 23 -1 33q-15 15 -61 24t-72 3q-10 -2 -27.5 4t-29.5 3q-6 -1 -18.5 -6t-19 -6.5t-21.5 0.5q-6 2 -25 2t-28 3q-12 3 -38 20q-7 5 -9 31q0 24 3 36q2 4 9 15.5t9 15.5q7 17 17.5 30.5
t27 28t23.5 23.5q8 8 20 25t17 23q13 15 41.5 36.5t38.5 31.5q6 5 14 16t10 15q5 6 17.5 12t17 10t18 17.5t21.5 18.5q5 3 12.5 4t12 3t14 11.5t14.5 10.5q6 1 17 1.5t14 0.5q3 1 9.5 6t8.5 6q18 8 35 10z" />
    <glyph glyph-name="t" unicode="t" horiz-adv-x="479" 
d="M472 685h57t49 -7.5t43 -23.5q19 -18 3.5 -41t-43.5 -29q-9 -3 -18.5 -1.5t-13 2.5t-11 5t-10.5 5q-11 4 -28 -4t-20 -8q-14 -3 -31.5 0t-28 0.5t-20.5 -18.5q-5 -9 -10 -38t-8 -38q-1 -2 -6 -12.5t-7 -19t-2 -17.5q0 -2 -0.5 -16.5t-4.5 -25.5q-8 -21 -28.5 -97
t-25.5 -91q-2 -6 -4.5 -19.5t-5.5 -20.5q-2 -9 -9 -30.5t-9 -27.5q-4 -16 -10 -50t-11 -52q-3 -10 -18.5 -19t-26.5 -9q-33 1 -33 75v20q0 20 19 69q4 9 5 28t4 27q2 4 2.5 11.5t1.5 11.5t10 15t11 19q1 4 9.5 58.5t10.5 63.5q5 27 8 33q14 34 14 49q0 10 6 34.5t11.5 45
t4.5 22.5q-9 17 -27.5 18.5t-38 -6.5t-41 -11t-36.5 5q-15 9 -18.5 21.5t3.5 39.5q1 5 11 8q5 2 13.5 1.5t12.5 1.5q47 21 80 24q11 0 34 4.5t35 5.5q99 5 116 8q5 1 30 1z" />
    <glyph glyph-name="u" unicode="u" horiz-adv-x="473" 
d="M384 190q-3 -5 -6 -13q-9 -16 -17 -26q-41 -60 -103 -67q-51 7 -70 67q-4 10 -7 26q1 8 0 13q-1 6 -4 11q-3 17 1 25q0 2 5.5 12t4.5 15q-1 37 9 80q2 5 5 11q13 29 32 145l13 66q-2 3 -5 6q1 10 7 16l10 73q5 46 -22 49q-29 3 -48 7q-25 -28 -48 -150t-30 -185
q-6 -13 -7 -19q-4 -18 -4 -50t-2 -45q-1 -7 -6 -19t-7 -17q-1 -7 2 -18.5t0 -70.5q13 -51 22 -58l4 -4q3 -7 7 -13v-2q50 -73 119 -66q76 -7 122 28q16 12 28 29q1 1 4 9v2l13 13q2 2 7 4q10 7 16 11q3 4 5.5 16t6 16t10.5 9.5t9 10.5q4 8 8 25.5t5.5 23t9.5 17t9 18.5
q0 5 -1 17t2 19q2 13 15 45t15 50q0 6 1 19q11 41 14 54q5 16 3 41q-1 12 15 50q4 11 7 36q2 25 8 34q9 16 13.5 54t-10.5 66q-21 -4 -50 -7t-42 -49l-18 -73q4 -6 1 -16q-3 -3 -7 -6l-3 -18q-11 -19 -10 -28q1 -3 2 -10q-10 -54 -11 -69l-6 -31q-1 -5 -7 -55q-2 -6 -1 -11
q-6 -43 -21 -80q-3 -5 -1.5 -15t1.5 -12q0 -8 -9 -25q-5 -5 -8 -11z" />
    <glyph glyph-name="v" unicode="v" horiz-adv-x="487" 
d="M586 676q50 2 52 -21q9 -13 -14 -51q-4 -7 -16.5 -18t-16.5 -17q-2 -5 -6.5 -15t-6.5 -15q-7 -11 -25.5 -30.5t-23.5 -25.5q-3 -8 -7.5 -23.5t-5.5 -23.5q-7 -15 -23 -43t-19 -33q-3 -14 -12 -35q-7 -13 -26.5 -41.5t-26.5 -40.5l-3 -16q-3 -5 -10.5 -15.5t-9.5 -14.5
q-3 -7 -10.5 -22t-9.5 -23q-12 -21 -34 -48q-4 -7 -13.5 -16t-12.5 -15q-10 -12 -17 -19q-9 -10 -25 -40t-33 -40.5t-49 -2.5l-7 10q-6 10 -7 18q9 32 12 48q-1 7 -9.5 17.5t-8.5 17.5l4 45q0 4 -4 17t-5 20q-1 6 1.5 17.5t0.5 17.5q-1 6 -6.5 17.5t-7.5 17.5
q-1 8 -3.5 24.5t-2.5 22.5q-2 10 -0.5 28.5t1.5 26.5q-1 16 -4 41t-4 37l9 45q-1 5 -1 26t-2 37.5t-5 24.5q-10 24 -10 33q-3 13 8 28q4 8 10.5 13t16 10t14.5 9q33 0 39 -4q11 -5 20 -16.5t9 -23.5l-3 -33q0 -2 0.5 -27.5t1.5 -30.5q-2 -10 -4.5 -32t-4.5 -33q1 -7 4 -14
t3 -13q-4 -30 -7 -44q1 -14 9 -39t9 -38l-5 -23q1 -7 0 -24.5t0.5 -28t4.5 -19.5q1 -3 0.5 -25.5t5.5 -24.5q8 0 19 18t25 47t15 31q3 5 12.5 14t12.5 14q0 4 2 11.5t4 11.5q4 8 15 20t14 18q14 32 22 49q7 11 24 38t24 38q6 10 13 31.5t13 31.5q57 105 117 156z" />
    <glyph glyph-name="w" unicode="w" horiz-adv-x="741" 
d="M202 -19l-3 3q-11 6 -14.5 25t-3.5 46t-2 36q-1 16 1 35q2 9 5.5 24.5t4.5 20.5q1 6 -3.5 19t-3.5 19q1 13 3.5 37t4.5 35q1 8 -3 25t-3 26q1 8 2 24t2 24q2 9 -2.5 33.5t-1.5 36.5q0 6 1.5 16.5t2.5 15.5q0 6 -2 17t-1 17q-1 2 -0.5 17t1 20.5t1.5 19.5t3.5 21.5
t6.5 18.5t10.5 19.5t14.5 15.5q19 15 32 5q28 -22 32 -53q2 -9 -1 -20t-3 -19q0 -10 2 -32t1 -34q-2 -12 -5 -22.5t-5 -19.5q-1 -11 2 -32.5t2 -32.5q0 -5 -3.5 -16.5t-4.5 -16.5q-1 -10 1 -29t1 -29q-1 -5 -3.5 -14t-2.5 -13q-3 -9 -4.5 -32.5t0 -44.5t7.5 -20q9 2 18 20.5
t17.5 44t14.5 35.5q2 4 10 12t10 12q2 3 4 11t3 11q6 12 18 45t20 49q4 9 16 27.5t16 28.5q3 5 6 16.5t5.5 17.5t9.5 22t9 20q3 6 6.5 20t8.5 22q38 50 72 63q12 2 18 1.5t9.5 -10t4.5 -16.5t2 -19t3 -17q1 -3 4.5 -8t4.5 -7q0 -6 -2.5 -17.5t-2.5 -17.5q0 -3 2.5 -7t1.5 -6
q1 -11 1.5 -30t1.5 -33t4 -26q0 -3 4.5 -9.5t4.5 -11.5q-1 -10 -4 -28.5t-5 -26.5q0 -5 4.5 -14.5t4.5 -14.5q1 -9 1 -43t1 -51q-1 -1 -1 -10v-18t0.5 -18.5t2.5 -15t5 -4.5t12 29t21 63.5t18 50.5q7 12 20 56.5t23 63.5q7 14 39 83q4 7 8 23.5t6 23.5q3 6 14.5 21.5
t14.5 22.5q2 5 4.5 15t5.5 15q0 2 2 10.5t5 12.5q6 8 11.5 18t9 13t14.5 9q14 7 31 5t20 -11q10 -27 1 -42q-11 -22 -13 -35q-2 -12 -18 -51.5t-26 -56.5q-10 -16 -27 -60q-4 -11 -33 -85t-40 -109q-17 -47 -34 -79q-15 -30 -21.5 -57.5t-25.5 -64.5q-4 -8 -10 -23.5
t-12 -27t-14 -20.5q-12 -13 -41 -11q-16 1 -22.5 7.5t-11.5 22.5q-10 32 -7 61q0 52 -7 95q0 2 -3.5 6.5t-3.5 6.5q0 4 0.5 17t-0.5 19q-1 4 -1 18q-1 7 -4 33t-3 35q0 4 2.5 13.5t2.5 14.5q-6 118 -18 114q-7 -3 -14.5 -18.5t-16 -40t-14.5 -35.5q-11 -19 -23 -52
q-3 -7 -9.5 -21t-10.5 -23q-8 -18 -21 -31q-6 -6 -13 -25t-8 -22q-4 -8 -17 -30t-18.5 -34.5t-7.5 -22.5q-3 -27 -21 -54q-12 -17 -43 -41q-6 -4 -24 -7t-26 -2q-2 0 -5 3z" />
    <glyph glyph-name="x" unicode="x" horiz-adv-x="478" 
d="M210 668q6 -1 11.5 -2.5t9.5 -4.5l6 -4.5t5 -7.5l3.5 -7t3.5 -9t3 -9q1 -4 7.5 -11.5t7.5 -12.5q4 -24 10 -35q2 -5 5 -11q17 -38 25 -64q2 -7 3 -14.5t4 -16.5q1 -2 3 -12t5.5 -15.5t8.5 -6.5q9 -2 36 33q5 6 20 29.5t22 29.5q3 2 12 6.5t12 9.5q5 18 8 23t13.5 13
t13.5 12q7 10 16.5 25.5t17 28t17 26t18 21.5t18.5 12.5t21 2t23 -13.5t13 -25.5t-6 -28.5t-20.5 -31t-26.5 -30.5t-29.5 -30t-24.5 -26.5q-3 -4 -12 -10.5t-12 -10.5q-14 -15 -37.5 -48t-34.5 -46q-5 -5 -20 -18t-21 -22q-2 -3 2.5 -8.5t4.5 -7.5t-1 -6t-1 -6
q1 -11 9.5 -30.5t9.5 -24.5q1 -4 2 -13t2 -14q3 -13 16 -36t16 -36q1 -6 4 -13t4 -17q1 -7 6 -18t6 -15q2 -7 0 -36.5t-4 -33.5q-17 -31 -36 -36q-8 -4 -11 -3q-11 1 -18.5 7.5t-10.5 12.5t-6.5 18.5t-5.5 17.5q-1 2 -7 13.5t-7 17.5q-2 15 -6.5 25.5t-11.5 23t-11 22.5
q-3 8 -15.5 30.5t-16.5 34.5q-1 2 -2 9t-3 10q-1 1 -2 -1t-1 -4q-5 -6 -12.5 -18.5t-12.5 -18.5l-9 -10q-9 -9 -13 -15q-5 -6 -13.5 -19.5t-15.5 -22.5t-16 -17q-19 -17 -31 -32q-17 -21 -31 -43q-8 -12 -13 -25.5t-7.5 -19.5t-10 -12.5t-21.5 -12.5q-24 -10 -38 6.5
t-13 42.5t18 43q5 5 10.5 16.5t10.5 17.5q4 4 13.5 11.5t12.5 10.5q10 11 24 32t20 28q2 3 8.5 7.5t8.5 6.5q19 19 53 73q4 6 16.5 19.5t20.5 27t9 29.5q0 14 -12 34t-12 36q0 26 -21 66t-23 65q-1 7 -6 18t-6 15q-2 7 -1.5 26.5t2.5 23.5q6 11 16.5 22.5t19.5 14.5
q2 0 6 1.5t6 1.5z" />
    <glyph glyph-name="y" unicode="y" horiz-adv-x="436" 
d="M570 706q8 6 16 -2q2 -2 10.5 -5.5t15.5 -8t7 -8.5q0 -22 -17 -46t-41.5 -50.5t-33.5 -41.5q-3 -6 -8 -14t-6.5 -11t-5 -8t-8 -9.5t-11.5 -12.5q-7 -7 -17.5 -22t-17.5 -23q-3 -3 -9 -7t-8 -6q-14 -13 -29 -34q-4 -6 -17 -33.5t-18 -34.5q-2 -3 -10 -7.5t-10 -7.5
q-11 -17 -25.5 -35.5t-27.5 -39.5q-6 -9 -22 -41.5t-26 -45.5q-6 -7 -25.5 -25t-22.5 -23q-4 -6 -6.5 -16.5t-4.5 -14.5q-11 -20 -42.5 -52t-57.5 -46q-10 -6 -27 1t-17 20q0 14 3.5 22t12.5 19t13 17q5 7 9.5 19.5t7.5 17.5q3 7 14 15.5t14 11.5q3 4 8 13t8 14q1 2 7 7.5
t8 8.5q28 57 48 82q1 2 21 23.5t30.5 40t9.5 36.5q-1 6 -13 14t-12 13q0 2 2 7.5t1 7.5q-1 6 -6.5 15t-6.5 14q0 3 1 10t-1 8q-9 13 -16 26t-10.5 20.5t-10.5 24.5t-11 26q-5 11 -17 26t-18.5 25t-11.5 30t5 41q3 9 17.5 19.5t23.5 7.5q6 -2 9.5 -8.5t7.5 -7.5q12 -3 20 -10
q3 -2 5 -10t5 -10t9 -3.5t9 -3.5t4.5 -9t3.5 -9q11 -12 18 -23.5t10 -19.5t9 -24.5t11 -28.5q18 -41 36 -55q5 -4 12.5 -3t11.5 5q48 48 90 110q22 33 31 51q24 45 90 87z" />
    <glyph glyph-name="z" unicode="z" horiz-adv-x="527" 
d="M186 100q13 1 26 1q38 0 59 -5l29 3q30 4 40 -4q14 -8 48 -2t37 5q6 -1 21 0t20 -1t15.5 -3.5t16.5 -3.5t11.5 -6t7 -12t-0.5 -21q-3 -15 -11 -22.5t-24 -12.5t-19 -6q-9 -4 -19.5 -5t-24.5 1.5t-15 2.5q-84 0 -154 -6q-14 -1 -41.5 6t-47.5 2q-7 -1 -23.5 -2t-20.5 -3
q-16 -4 -36 1t-30 13q-11 7 -14.5 23t3.5 32q13 33 59 73q44 41 54 55q26 34 72 84q44 50 74 76l32 41q33 41 51 51q24 14 59 61q35 48 41 53q8 7 24 27q-70 -1 -131 -6q-15 -1 -42.5 6t-47.5 2q-6 -1 -22.5 -2t-21.5 -3q-16 -4 -36 1t-30 13q-10 7 -14 23t5 29q10 16 26 25
q9 11 41.5 4.5t41.5 -4.5q25 4 62.5 4t58.5 -5l30 3q30 4 40 -4q13 -8 47.5 -2t36.5 5q6 -1 21.5 0t20.5 -1t15 -3.5t16 -3.5t12 -6t7 -12v-8q1 -4 0 -9v-4q-3 -13 -10 -21q-3 -6 -8 -13q-15 -24 -15 -28q-9 -15 -20 -28q-12 -14 -30 -32q-19 -16 -21 -19
q-99 -111 -179 -208q-16 -18 -55 -51t-59 -63q-6 -8 -25 -31q-18 -22 -23 -30q-4 -7 -10 -14z" />
    <glyph glyph-name="braceleft" unicode="{" horiz-adv-x="387" 
d="M150 391q2 0 7 1t8 1q1 1 3.5 4t4.5 4h28.5h30.5q8 1 24.5 6.5t24.5 7.5q6 2 15 -2t16 -3q2 0 10 2l12 3t12.5 0t12.5 -7q7 -5 22 -49q-3 -10 -6 -13q-4 -7 -17 -12q-19 -11 -22 -11q-12 4 -39 14q-10 -1 -29 -9.5t-28 -9.5q-13 3 -38 6q-3 0 -9.5 -5.5t-7.5 -6.5
q-3 0 -8.5 0.5t-9.5 0.5q-7 -2 -18 -7t-17 -6.5t-14.5 3t-16.5 18.5q1 19 2 24q29 37 47 46zM317 699q2 -1 6.5 -3t6.5 -3q1 0 4 1.5t4 1.5q8 -5 23.5 -16.5t23.5 -17.5q7 -3 22 -6.5t22 -6.5q5 -1 11 -10.5t11 -11.5q2 -2 8.5 -4t10.5 -4t10.5 -8t7.5 -13q4 -10 3 -65
q-5 -9 -9 -10q-5 -5 -17 -3q-18 0 -20 1q-9 12 -27 38q-8 4 -25.5 6t-25.5 6q-9 10 -28 28q-3 2 -9.5 0t-7.5 -3q-2 2 -6.5 6t-7.5 6q-6 2 -16.5 3t-15.5 2.5t-10.5 11t-7.5 29.5q6 19 9 24q34 22 50 21zM122 39q-1 5 2 24q11 20 21 29.5t15.5 11t16.5 2.5t18 3q4 2 10 6
l9 6q1 -1 6.5 -3t9.5 0q27 18 41 28q9 4 27.5 6t28.5 6q30 26 44 38q3 1 21 1q13 2 15 -3q3 -1 5 -10q-24 -55 -33 -65q-4 -7 -13.5 -13t-14 -8t-12 -4t-10.5 -4q-6 -2 -16.5 -11t-16.5 -11q-8 -3 -24 -6.5t-25 -6.5q-11 -6 -32 -17.5t-30 -16.5q-1 0 -3.5 1.5t-3.5 1.5
q-3 -1 -8 -3t-7 -3q-17 -1 -41 21z" />
    <glyph glyph-name="braceright" unicode="}" horiz-adv-x="381" 
d="M460 345q-1 -5 -10 -24q-16 -14 -27 -18.5t-16.5 -3t-14 6.5t-15.5 7q-3 0 -9 -0.5t-9 -0.5q-1 1 -4.5 6.5t-7.5 5.5q-27 -3 -42 -6q-9 1 -24 9.5t-25 9.5q-32 -10 -47 -14q-3 0 -17 11q-11 5 -12 12q-1 3 1 13q38 44 48 49q7 6 16 7t13 0t11 -3t10 -2q6 -1 17 3t17 2
q7 -2 21 -7.5t22 -6.5h31.5h29.5q1 -1 2.5 -4t1.5 -4q3 0 7.5 -1t6.5 -1q14 -9 25 -46zM463 678q0 -5 -3 -24q-13 -20 -23.5 -29.5t-16.5 -11t-17 -2.5t-19 -3q-4 -2 -10.5 -6t-9.5 -6q0 1 -6 3t-10 0q-28 -18 -43 -28q-10 -4 -29 -6t-30 -6q-32 -26 -47 -38q-3 -1 -21 -1
q-14 -2 -16 3q-3 1 -4 10q27 55 36 65q5 7 15 13t14.5 8t12.5 4t11 4q7 2 18 11.5t17 10.5q8 3 25 6.5t27 6.5q11 6 33 17.5t32 16.5q1 0 3.5 -1.5t3.5 -1.5q3 1 8 3t8 3q17 1 41 -21zM230 18q-2 1 -6.5 3t-6.5 3q-1 0 -4 -1.5t-5 -1.5q-7 5 -22.5 16.5t-23.5 17.5
q-7 3 -22 6.5t-22 6.5q-5 2 -11 11t-11 11q-2 2 -9 4t-10.5 4t-10 8t-7.5 13q-3 10 0 65q6 9 10 10q5 5 18 3q18 0 20 -1q9 -12 26 -38q8 -4 26 -6t26 -6q9 -10 28 -28q2 -2 9 0t8 3q2 -2 6.5 -6t7.5 -6q6 -2 16.5 -3t15.5 -2.5t10.5 -11t6.5 -29.5q-7 -19 -10 -24
q-36 -22 -53 -21z" />
    <glyph glyph-name="uni0401" unicode="&#x401;" horiz-adv-x="538" 
d="M579 739q-2 15 -4 23q-2 5 -8 11q-6 5 -7 7q-2 6 1 9q3 2 1 8q-6 9 -14 17q-8 7 -22 18q-14 10 -17 13q-14 0 -23 -3t-20 -12q-11 -10 -14 -12l-2 -12q-2 -7 -3 -9t-1 -5q-1 -4 0 -4q0 -1 1 -3l1 -3l1 -2l2 -3l4 -7q2 -5 5 -15t5 -15q17 -27 49 -41q31 -15 64 1q1 4 5 17
q-2 7 -4 22zM360 768q-2 16 -4 22q-25 62 -110 60q-1 -1 -10 -7q-2 -5 -5 -15t-6 -16q-3 -7 -7 -12q1 -13 8 -22q6 -9 7 -13q2 -5 2 -13t3 -12q4 -6 14 -9q9 -3 14 -6q30 -19 42 -22q11 -3 50 7q1 4 3 11l4 12q1 5 1 12q-5 7 -6 23zM406 671l-12 5q-11 5 -16 4q-7 -1 -19 -8
q-13 -7 -17 -8q-12 -3 -29 2t-25 3q-4 -1 -18 -2q-15 -2 -23 -5q-42 -20 -55 -33q-16 -16 -12 -49q0 -2 3 -8t4 -11q0 -4 -3 -13q-2 -6 -12 -33l-10 -30q-3 -10 -7 -34q-4 -23 -8 -33q-3 -9 -5 -33t-7 -37q-2 -5 -8 -15q-7 -9 -9 -13q-3 -7 -7 -20q-3 -13 -4 -15
q-11 -28 -11 -84v-5l-1 -5q-1 -49 -7 -62q-7 -15 -17 -32q-4 -7 -21 -17q-16 -10 -20 -21v-4q1 -19 16 -39q14 -20 32 -15q11 3 55 14t63 16q12 3 35 3t36 4q5 2 16 9q12 6 17 8q13 4 38 2t32 0q15 3 49 -11q34 -15 47 -8q15 8 26 31q12 22 11 42q-1 7 -11 17t-17 15
q-12 8 -50 8t-69 -3t-52 -7q-6 -2 -22 0q-15 1 -21 0t-24 -9q-19 -8 -29 -11q-11 -2 -22 3l-5 3q-2 1 -2 3q0 61 26 123q5 13 42 35q11 6 43 14q5 1 20 6t22 7q12 3 32 4q20 0 26 1q8 2 24 -2q6 -2 20 2q3 1 24 -1t26 -4q1 0 13 -7t22 -4q37 11 45 23q15 23 9 58
q-5 29 -61 38q-6 0 -18 -2q-11 -2 -16 -1q-35 6 -136 -14q-8 -1 -25 -4q-18 -3 -26 -4t-19 -4t-17 -4q-6 -2 -13 -2q-6 0 -9 4t-3 12q0 12 3 26t6 23q3 10 10 27l9 24q1 4 5 27q5 22 8 27q7 11 12 14q6 3 17 3t21 2q7 2 26 8q18 5 29 8q21 5 56 -1q36 -6 44 -6q10 0 30 6
q15 4 59 -7q34 -7 57 35q14 26 -9 39q-56 30 -126 25q-80 -13 -81 -13z" />
    <glyph glyph-name="uni0410" unicode="&#x410;" horiz-adv-x="557" 
d="M443 665q9 3 43 -2q4 -1 8 -8t5 -8q4 -3 12 -4t12 -3q14 -6 27.5 -21t16.5 -28q1 -5 -0.5 -16t-0.5 -17q0 -3 5.5 -9t5.5 -9q1 -7 -0.5 -21.5t-1.5 -20.5q0 -4 6 -11.5t6 -16.5v-11q0 -7 1.5 -24.5t1.5 -26.5q0 -30 -12 -66q-2 -4 -2 -14q0 -42 -5 -58q-13 -31 -13 -70
q0 -10 1 -35t1 -33v-10q0 -52 -22 -88q-12 -20 -30 -30q-10 -5 -25.5 1.5t-19.5 14.5q-5 2 -1 32t4 38q0 12 5.5 51t3.5 63.5t-16 28.5q-26 8 -82 4q-45 -4 -109 -18q-11 -3 -31 -4t-33 -4.5t-22 -14.5q-5 -7 -12 -27l-8 -20q-1 -3 -2.5 -9.5t-3.5 -9.5q-2 -4 -12 -16
t-12 -19q-8 -25 -17 -51q-24 -67 -57 -81q-13 -4 -15 -3q-2 2 -9.5 7t-11.5 9.5t-5 11.5q-1 4 5.5 27t10.5 32q4 8 11 22.5t11 25t8 25.5q2 7 15.5 28.5t15.5 27.5q2 4 -5 11t-6 11q20 57 31 67q3 3 14 8t14 9q6 8 10 25t6 21q1 3 6.5 6.5t6.5 5.5q10 17 27 50t21 41
q3 4 12.5 11t13.5 12q8 11 13 19t11 18t13 21q2 3 7 6t6 5q2 3 10.5 18t13.5 22q2 3 7.5 6.5t7.5 5.5t23.5 30t35.5 37q22 15 50 23zM425 576q-2 -1 -7.5 -4t-9.5 -5q-8 -6 -63 -81q-7 -9 -40 -67q-3 -5 -14.5 -23t-17.5 -29t-10.5 -26.5t-1.5 -26.5q1 -6 12.5 -7.5
t21.5 2.5q9 3 25 2.5t28 2.5q15 4 45.5 6.5t43.5 5.5t22.5 0.5t19 1t18.5 16.5q5 9 7 35t0 35q-7 47 -6 77q0 5 0.5 14t0.5 14q0 12 -8.5 34t-17.5 25q-17 6 -48 -2z" />
    <glyph glyph-name="uni0411" unicode="&#x411;" horiz-adv-x="565" 
d="M614 706q10 2 26 -5q5 -2 6 -12t2 -13q2 -2 0 -12t-2 -12q-8 -26 -28.5 -40.5t-39 -13t-32.5 8.5q-6 4 -20.5 5t-26.5 -4q-14 -11 -69 -4t-69 4q-9 -2 -19 -6.5t-21 -7.5q-29 -9 -41 -32q-12 -22 -24 -72q-1 -5 -1.5 -14t-2.5 -14q-2 -6 -6.5 -17t-6.5 -16.5t-3 -15
t4 -12.5q8 -10 16 -10.5t14 4.5t15.5 11.5t16.5 8.5q117 27 158 26h18.5t18 -0.5t17.5 -3.5t16 -9q2 -2 5.5 -8.5t6.5 -7.5q3 -2 11.5 -4.5t12.5 -5.5q22 -16 29 -36t9 -61q3 -51 -35 -104t-77 -77q-18 -11 -50 -40.5t-53 -40.5q-7 -3 -18 -4t-16 -3q-7 -2 -21 -12t-22 -12
t-23.5 -2.5t-21.5 -1.5q-3 -1 -13.5 -5t-13.5 -5q-10 -2 -25.5 0.5t-27.5 -0.5q-19 -5 -27 -2q-4 2 -9 8.5t-8 7.5q-5 3 -28.5 7t-27.5 11q-3 4 -9.5 10t-10 13t-3.5 20q0 9 3.5 30t3.5 33q0 13 10 48.5t19 56.5q2 4 7 13.5t8.5 18t3.5 16.5q0 2 -1 11.5t-0.5 17.5t4.5 16
q3 6 11.5 18t11.5 19q2 4 3 19t4 23q25 63 45 158q1 6 4 26.5t6 31.5q11 32 20 42q11 13 45 19q7 1 21.5 -4.5t23.5 -2.5q44 14 46 14q23 7 57 -3q10 -3 49 7q17 4 51 1.5t51 1.5q7 2 22.5 1t20.5 1zM395 344q-10 -3 -21.5 -2t-22.5 -2q-3 -1 -11 -6t-12 -6q-12 -3 -43 -8.5
t-46 -12.5q-3 -2 -9.5 -7.5t-8.5 -6.5q-8 -4 -29 -36q-10 -13 -14 -20t-11 -37t-7 -71q0 -16 1 -19q4 -15 22.5 -25.5t41.5 -2.5q3 1 27 7q12 4 28 0.5t26 -0.5q8 3 70 40q5 4 10 9t10.5 12t8.5 11q3 3 9.5 6.5t9.5 5.5q2 2 6 7t6 7q7 5 23.5 14.5t27.5 19t17 22.5
q6 17 1.5 36.5t-10.5 25.5q-2 2 -4.5 11.5t-5.5 10.5q-5 2 -14.5 3.5t-14.5 3.5q-3 1 -5.5 5.5t-4.5 5.5q-15 11 -51 -1z" />
    <glyph glyph-name="uni0412" unicode="&#x412;" horiz-adv-x="552" 
d="M351 673q80 3 168 -2q5 -1 11.5 -8.5t10.5 -8.5q3 0 12 0.5t12 -0.5q11 -2 23 -13t15 -13q3 -1 10.5 -3t10.5 -4q13 -9 15.5 -48t-9.5 -66q-7 -14 -23.5 -36t-26.5 -27q-3 -2 -7.5 -3t-6.5 -2q-8 -4 -21 -18t-19 -18q-2 -1 -11.5 -6.5t-16.5 -9.5t-15.5 -10t-14.5 -11.5
t-8 -10.5q-3 -6 8.5 -14.5t26.5 -17t17 -12.5q2 -3 9.5 -11t11.5 -15t4 -15q0 -4 -1.5 -11t-1.5 -10q1 -3 4 -9.5t3 -9.5q0 -6 -2 -12t-6 -13t-5 -8q-5 -10 -3.5 -25t-2.5 -25q-1 -3 -6.5 -10t-6.5 -9q-3 -7 -6.5 -20t-5.5 -20q-2 -6 -12 -11.5t-12 -7.5q-1 -1 -5 -7t-7 -7
q-7 -3 -18.5 -5.5t-16.5 -4.5q-4 -1 -12 -8t-12 -8q-9 -4 -26.5 -4t-26.5 -3q-6 -2 -22.5 -11.5t-27.5 -10.5q-12 -1 -33 1t-32 2q-6 -1 -17 -9.5t-15 -9.5q-13 -4 -63.5 -2t-57.5 7q-4 2 -6.5 7t-4.5 7q-3 2 -4 5.5t-1 10v14t0.5 23t0.5 31.5q0 27 6 41q13 29 14 36v14
t1 20.5t5 17.5q7 16 13 37t9.5 35.5t8.5 40.5t8 39q12 58 12 59q3 10 14 32t15 32q2 5 3.5 15.5t2.5 15.5q2 7 10.5 23t10.5 22q2 4 3 13t2 13q2 5 10.5 14t10.5 12q2 4 4.5 8.5t3.5 7t4 5.5t8 5q26 13 51 13l5 -2q5 -3 9 -2q3 1 12.5 8.5t12.5 8.5q6 2 16 2zM353 583
q-24 -3 -31 -5q-2 -1 -19 -4q-25 -7 -41 -17q-5 -3 -7 -8t-4 -13.5t-3 -11.5q-1 -4 -6 -12.5t-5 -11.5q-2 -10 -7.5 -29t-7.5 -27q0 -2 0.5 -12.5t-1.5 -13.5q-2 -7 -7 -18.5t-8 -18.5t-5 -16.5t-1 -17.5q0 -3 1.5 -4.5t4.5 -3l5 -2.5q5 -3 33.5 3.5t35.5 10.5
q8 5 24.5 16.5t24.5 16.5q11 7 33.5 15.5t33.5 15.5q3 2 9 9.5t10 9.5l26 13t36 19.5t22 17.5q60 67 25 87q-17 10 -77.5 13.5t-93.5 -1.5zM363 289q-9 2 -27 -5t-21 -8q-5 -1 -20.5 -7.5t-21.5 -7.5q-23 -5 -55 -20.5t-44 -29.5q-7 -9 -11.5 -29.5t-8.5 -29.5
q-2 -5 -6.5 -13.5t-6.5 -13t-4.5 -13t0.5 -12.5q6 -21 42 -31q9 -3 19.5 -3t22 2t19 3.5t19.5 5t15 4.5q9 2 26 1.5t22 3.5q8 3 24.5 12t22.5 11q3 1 10.5 4t10.5 4t8.5 3.5t8.5 4.5t7.5 5.5t8 7.5t6.5 9q14 21 9 54q-4 32 -13 44.5t-35 26.5q-1 1 -9.5 8t-17.5 9z" />
    <glyph glyph-name="uni0413" unicode="&#x413;" horiz-adv-x="381" 
d="M453 691q30 1 53.5 0.5t38 -10t16.5 -28.5q8 -15 -0.5 -28t-23.5 -18q-15 -14 -29 -6t-22 7q-37 -7 -45 -5q-14 5 -44 -3q-10 -3 -28 -7t-26 -6q-6 -2 -26.5 2t-25.5 0q-17 -5 -22.5 -25t-5.5 -49t-5 -42q-2 -7 -7.5 -19.5t-8 -22t-2.5 -21.5q-24 -56 -20 -85t-18 -83
q20 -37 -26 -145q-27 -63 -27 -82q0 -11 -14 -20t-26 -12q-1 -1 -10 -3q-2 3 -14.5 8.5t-14.5 8.5q-5 13 -6 33q0 3 6 27t7 30q0 2 7.5 36.5t8.5 37.5l8 13q8 14 9 22q5 106 24 153q5 13 5 35.5t6 34.5q2 6 9 18t10 17q3 12 3.5 16.5t-2 13.5t-2.5 12q0 6 2 12.5t6 13.5t5 9
q4 9 4 28q0 37 14 69.5t25 39.5q10 10 35.5 2t35.5 -6q34 8 82 20q11 3 42.5 1.5t38.5 5.5z" />
    <glyph glyph-name="uni0414" unicode="&#x414;" horiz-adv-x="591" 
d="M53 59q4 6 14.5 16.5t14.5 16.5q3 5 12.5 18t12.5 18q5 10 11 26.5t11 26.5q1 2 11.5 15.5t15.5 28.5q7 21 25.5 57.5t25.5 54.5q6 13 26.5 40.5t26.5 40.5q1 3 19.5 28t19.5 28q15 31 27.5 50t25.5 42q1 2 10.5 24t13.5 26q11 12 23 38.5t27 38t47 7.5q23 -4 26 -51
t-2 -61q0 -7 -2 -34.5t-1 -36.5q3 -58 9 -90q2 -9 3.5 -25.5t2.5 -20.5q2 -10 -0.5 -28.5t-2.5 -27.5q2 -50 2 -81q0 -14 -5 -33.5t-5 -28.5q0 -26 10 -60q1 -2 3.5 -5.5t3.5 -5.5l8 1q4 1 35.5 -1.5t42.5 -6.5q14 -5 14 -28q0 -10 -9.5 -29.5t-9.5 -30.5v-17
q-5 -48 -14.5 -75.5t-17.5 -32.5q-6 -4 -14.5 -6t-18.5 -2t-18 6.5t-10 20.5q-8 23 1 47q7 19 9.5 37t-2.5 19q-12 1 -18.5 2.5t-8 3t-6 2t-14.5 -1.5t-30 -7q-3 -1 -39.5 -1.5t-39.5 -1.5q-55 -17 -80 -18q-20 -3 -77 4q-3 1 -37 -5.5t-37 -6.5q-22 -1 -32 -3t-11.5 -4
t-10 -6t-26.5 -8q-5 -1 -10.5 -20t-5.5 -36q0 -20 -18 -49q-9 -15 -18.5 -19t-14.5 -1t-12.5 9.5t-8.5 7.5q-8 4 -8 30q0 50 6 60q9 16 8 33.5t0 27.5q10 29 28 36q29 11 63 18zM411 94q1 1 0.5 13.5t-0.5 13.5v20q0 11 2 52.5t2 90.5v60l1 13q1 13 2 41.5t1 65.5
q0 25 -2 35q-1 3 -1.5 9.5t-2.5 9t-7 2.5q-8 0 -19.5 -19.5t-24 -48.5t-14.5 -34t-11.5 -14t-11.5 -14q-6 -15 -18.5 -33.5t-16.5 -26.5q-5 -8 -11 -25t-10 -24q-6 -11 -23 -38t-24 -39q-6 -11 -13.5 -32t-12.5 -31q-14 -27 -36 -64q2 -4 22.5 -2.5t51.5 0.5q42 -1 116 12
q33 7 43 5.5t18 1.5z" />
    <glyph glyph-name="uni0415" unicode="&#x415;" horiz-adv-x="538" 
d="M487 645q70 5 126 -25q23 -13 9 -39q-23 -42 -57 -35q-44 11 -59 7q-20 -6 -30 -6q-8 0 -43.5 6t-56.5 1q-11 -3 -29.5 -8.5t-25.5 -7.5q-10 -2 -21 -2t-16.5 -3t-12.5 -14q-3 -5 -7.5 -27.5t-5.5 -26.5q-3 -8 -9.5 -24.5t-9.5 -26t-6 -23.5t-3 -26q0 -8 3 -12t9.5 -4
t12.5 1.5t17 4.5t19 4t25.5 4t25.5 4q101 20 136 14q5 -1 16.5 1t17.5 2q56 -9 61 -38q6 -35 -9 -58q-8 -12 -45 -23q-10 -3 -22 4t-13 7q-5 2 -26 4t-24 1q-14 -4 -20 -2q-16 4 -24 2q-6 -1 -26 -1.5t-32 -3.5q-7 -2 -22 -7t-20 -6q-32 -8 -43 -14q-37 -22 -42 -35
q-26 -62 -26 -123q0 -2 2.5 -3t4.5 -3q11 -5 21.5 -2.5t29 10.5t24.5 9t21.5 -0.5t21.5 0.5q21 4 52 7t69 3t50 -8q7 -5 17 -15t11 -17q1 -20 -10.5 -42.5t-26.5 -30.5q-13 -7 -47 7.5t-49 11.5q-7 -2 -32 0t-38 -2q-5 -2 -16.5 -8.5t-16.5 -8.5q-13 -4 -36 -4t-35 -3
q-19 -5 -62.5 -16t-55.5 -14q-18 -5 -32.5 15t-15.5 39v4q4 11 20.5 21t20.5 17q10 17 17 32q6 13 7 62l1 5v5q0 56 11 84q1 2 4.5 15t6.5 20q2 4 8.5 13.5t8.5 14.5q5 13 7 37t5 33q4 10 8 33.5t7 33.5q1 3 10.5 30t11.5 33q3 9 2.5 13.5t-3.5 10.5t-3 8q-4 33 12 49
q13 13 55 33q8 3 22.5 4.5t18.5 2.5q8 2 25 -3t29 -2q4 1 16.5 8t19.5 8q5 1 16 -4l12 -5q1 0 81 13z" />
    <glyph glyph-name="uni0416" unicode="&#x416;" horiz-adv-x="769" 
d="M520 696q28 7 39.5 -14.5t3.5 -47.5q-19 -48 -19 -69v-16q0 -18 -13 -55q-11 -25 -14 -57t7 -39q12 -5 34 11t24 17q8 3 21.5 19.5t18.5 19.5q8 6 23 23t24 23q14 10 48 35t42 31q10 7 23.5 24.5t24 31.5t25 28t26.5 14.5t28 -9.5q10 -8 7 -29t-17 -37q-5 -6 -27 -38.5
t-33 -41.5q-3 -2 -10.5 -5.5t-10.5 -6.5q-7 -5 -29 -26.5t-32 -28.5q-9 -6 -32.5 -25.5t-26.5 -21.5q-11 -8 -29.5 -18.5t-29.5 -19t-14 -18.5q-5 -21 13 -46t19 -28q5 -17 10.5 -24t19 -15t22.5 -16q3 -2 5 -9.5t4 -9.5q17 -19 50 -85q1 -3 12 -20t16.5 -33.5t0.5 -28.5
q-14 -30 -34 -35q-16 -4 -29.5 8t-26.5 32t-19 25q-8 7 -12 12.5t-8 13.5t-9 15q-2 3 -6.5 12t-7.5 12l-22 22q-33 45 -48 56q-9 7 -22 42.5t-30 38.5q-4 2 -8 -5q-11 -25 -22 -136q-9 -81 -11 -91q-7 -29 -14 -46t-21.5 -24.5t-19.5 -8.5t-29 -4q-18 -2 -29.5 16.5
t-4.5 41.5q3 10 9.5 25t11 26t4.5 15q0 3 -0.5 9.5t-0.5 8.5q0 24 14 56q11 27 13.5 63t-10.5 45q-5 2 -69 -38q-8 -6 -42 -43.5t-42 -42.5q-13 -9 -33.5 -27.5t-32.5 -27.5q-10 -7 -26.5 -27.5t-30.5 -39t-32.5 -36.5t-33 -21.5t-30.5 6.5q-10 8 -6.5 32t17.5 40q3 4 24 29
t39.5 46t26.5 27q4 3 14 6.5t14 6.5q7 6 21 25t23 25q16 11 41 46.5t49 45.5q11 4 21.5 16.5t14.5 24.5q8 20 -12.5 34.5t-22.5 21.5q-1 3 -2.5 2.5t-3.5 2.5q-2 5 -18 22t-23 23q-3 2 -10 10t-8 9q-9 10 -13.5 17t-6 12t-5.5 15t-9 21q-1 1 -13.5 19.5t-18 34.5t-0.5 28
q5 11 16.5 22t19.5 13q16 4 30 -8t26.5 -32t18.5 -25q9 -8 9 -17.5t6 -17.5q2 -3 5.5 -11.5t6.5 -11.5q2 -2 11 -10t13 -13q2 -3 10.5 -21t16.5 -23q3 -2 10 -6t10 -6q8 -5 26 -32.5t34 -30.5q7 -2 9 5q11 23 17 118q1 6 6.5 21.5t6.5 24.5q1 11 12 45q3 9 8 27t7.5 23.5
t8 15t13.5 14t20 7.5z" />
    <glyph glyph-name="uni0417" unicode="&#x417;" horiz-adv-x="557" 
d="M320 707q26 4 42 5t36.5 1t40.5 1q6 1 27 -4.5t23 -5.5q4 0 11 -0.5t11 -1.5q11 -1 23.5 -10t18.5 -11q4 -1 11 -8.5t10 -8.5q15 -7 17 -37q-8 -5 -8 -30q0 -4 2.5 -10t1.5 -11q-4 -16 -38 -73q-3 -5 -9 -9.5t-14.5 -10t-13.5 -8.5q-5 -4 -13.5 -14.5t-13.5 -14.5
q-10 -7 -25 -13l-25 -10t-13 -10q-2 -5 5 -8t29.5 -6t34.5 -5q28 -6 50.5 -24t24.5 -32q1 -8 7 -18t7 -17q4 -28 -2 -41q-3 -10 -3 -26t-4 -26q-1 -3 -5.5 -10t-5.5 -10q-4 -14 -21 -43.5t-30 -38.5q-103 -65 -138 -84q-10 -5 -21.5 -8.5t-18.5 -5t-23 -3.5t-22 -3
q-10 -1 -55 -10.5t-64 -9.5q-3 0 -13.5 7.5t-20.5 9.5t-29.5 1t-20.5 0q-14 6 -29 17t-15 20q-1 43 26 56.5t57 -5.5q13 -7 43 -13t45 -1q5 2 25 0.5t35 0.5q9 2 18.5 6t18.5 9.5t10 6.5q3 1 28.5 8t48.5 17t32 24q5 7 16.5 15t15.5 13t8.5 18t6.5 18q12 21 2 61
q-4 16 -7 22q-5 9 -32 25q-9 5 -34.5 12.5t-38.5 6.5q-14 0 -24.5 -3t-21.5 -8.5t-14 -6.5q-63 -25 -80 12q-16 35 5 66q5 8 27 11.5t25 4.5q11 5 28 7.5t28 11.5q4 3 35.5 20.5t34.5 19.5q32 20 57 53q9 11 15.5 25.5t8 33.5t-9.5 33q-16 19 -47 22q-12 1 -31 -0.5
t-29 -1.5q-31 0 -42 -2q-4 0 -9.5 -2.5t-12 -6t-8.5 -4.5q-5 -2 -33.5 -21t-30.5 -20q-17 -7 -20 -27t-13 -28q-22 -19 -46.5 -13.5t-15.5 36.5q1 3 4 15.5t5 17.5q18 36 29 42q13 8 30 22t40 25q1 1 19 9.5t35 16.5t19 8z" />
    <glyph glyph-name="uni0418" unicode="&#x418;" horiz-adv-x="594" 
d="M253 658q6 -1 9.5 -2.5t6.5 -2.5t4.5 -4t3 -4.5t2 -6.5t0.5 -8t0.5 -11.5t0.5 -13.5q1 -20 -7.5 -59.5t-17.5 -62.5q1 -5 -6 -32.5t-7 -34.5l4 16q-18 -41 -41 -131q-10 -41 -10 -58q1 -35 2 -37q1 -3 12 8t23 26l12 14q22 19 59 59q3 3 8.5 11.5t8.5 11.5q7 8 18.5 16.5
t19.5 17.5q24 29 38 52q3 5 13 18.5t13 18.5q2 4 13.5 12.5t13.5 10.5q3 5 9 14.5t10 13.5q35 42 53 72q2 4 13.5 18t14.5 21q28 54 58 73q21 13 46 -1q15 -9 16 -39t-10 -63q-1 -4 -5.5 -15t-7 -20t-2.5 -15q0 -2 1 -9.5t1 -10.5q0 -13 -9 -43.5t-9 -44.5q0 -3 1 -19.5
t0 -28.5t-6 -23q-27 -63 -25 -89q2 -16 -10 -41q-2 -6 -3.5 -20t-4.5 -21q-1 -4 -4 -36q-6 -60 -25 -95q-26 -47 -50 -44q-35 3 -40 30q-1 2 -1 22q0 78 28 150q1 4 8 15.5t8 15.5q3 11 3 30t4 30q17 51 17 121q0 20 -4 20q-4 -3 -15 -16t-24 -30t-18 -23q-8 -9 -23 -25.5
t-23 -25.5q-2 -2 -12 -15t-16 -19q-8 -8 -26.5 -27t-24.5 -25q-11 -10 -32 -37t-32 -37q-14 -12 -59 -65q-12 -15 -29 -26q-17 -12 -24.5 -29t-9.5 -19q-5 -7 -11.5 -13t-11.5 -11q-25 -26 -47 -31t-35 15q-5 7 7.5 70t21.5 83t18 68t9 71q0 13 5.5 30.5t14 38t10.5 26.5
q3 10 6.5 28.5t4.5 22.5q3 12 18 60q2 6 2 16q0 26 13 65q2 6 2.5 20t3.5 22q3 7 8 13.5t15 15.5t12 11q3 3 15 5t16 1z" />
    <glyph glyph-name="uni0419" unicode="&#x419;" horiz-adv-x="581" 
d="M251 655q4 -2 11 -3t10 -4t3 -12q0 -3 5.5 -17.5t5.5 -20.5v-18q0 -21 -13 -62.5t-15 -53.5q-1 -6 -4 -42q2 11 0 6q-13 -34 -35 -153q-7 -37 -7 -49v-32q4 -9 16.5 3t37 44t30.5 39t55.5 59.5t75.5 92.5q16 25 50 58.5t52 62.5q3 5 11.5 13.5l9.5 9.5q7 8 16.5 28
t16.5 28q20 26 32 35q8 6 24.5 8.5t24.5 -1.5q16 -9 18 -24l-21 -104q-4 0 -4 -20q0 -19 -4 -43.5t-8 -41t-13.5 -51.5t-12.5 -48q-9 -35 -16 -82q-2 -13 -7.5 -43t-7.5 -47q-1 -7 -5.5 -20.5t-5.5 -19.5q0 -2 -2.5 -15t-3.5 -18.5t-4 -18t-6 -19t-8 -16.5t-10.5 -15
t-14 -10t-17.5 -6q-18 -3 -27 1.5t-10 15t0.5 22t4 26.5t2.5 24v6v9.5v6.5q8 61 22 112t22 105q0 1 5.5 28.5t11.5 54.5l5 27q-28 -15 -100 -123q-51 -62 -62 -73q-12 -12 -50 -54q-8 -8 -20.5 -22t-19.5 -22q-19 -20 -31 -37q-21 -31 -42.5 -54t-33.5 -40q-33 -46 -114 -46
q-7 0 -9 9q-4 35 7 59q33 68 35 106q0 4 4 48q6 54 14 91.5t14 54t7 23.5q10 98 22 128q22 46 22 67q0 3 -0.5 9.5t-0.5 11t2 12t6 15.5q3 6 5.5 12.5t4 10t4 7t7.5 5.5q5 3 17 6.5t16 0.5zM320 789q-7 15 6 30q17 21 27.5 24t23.5 -3.5t23 -6.5q10 1 19.5 -10.5t17.5 -10.5
q7 1 23 -5t24 -4q13 2 37 8.5t29 7.5q8 2 30 15t30 15q18 7 24 5q12 -3 20.5 -11.5t5.5 -20.5q-8 -29 -22 -39q-17 -11 -45 -22t-39 -11q-7 0 -20.5 -5t-20.5 -5q-10 0 -31 -4.5t-29 -4.5q-11 -1 -34 8.5t-39 8.5q-8 -1 -32 16.5t-28 24.5z" />
    <glyph glyph-name="uni041A" unicode="&#x41a;" horiz-adv-x="521" 
d="M243 700q27 1 37.5 -12t10.5 -42q0 -21 -4 -35t-9.5 -24.5t-6.5 -12.5q-2 -6 -2.5 -21t-3.5 -23q-3 -7 -14.5 -29t-18 -44.5t-6.5 -49.5q0 -13 3 -13q18 -2 45 31t38 38q3 2 16.5 12.5t17.5 12.5q10 5 28 24.5t19 20.5q7 6 32 23q5 3 12.5 11.5t10.5 11.5q33 29 64 49
q8 5 29.5 25.5t40.5 32.5t33 9q9 -1 15 -11t6 -21q0 -12 -12.5 -28.5t-31 -33.5t-20.5 -20q-33 -34 -103 -87q-4 -3 -9 -9.5t-8 -8.5q-4 -3 -19.5 -11.5t-28.5 -16.5t-16 -11q-3 -4 -6.5 -11.5t-6.5 -11.5q-7 -10 -30.5 -27t-28.5 -29q-1 -4 8.5 -15.5t17.5 -17.5
q6 -3 11 -7t10.5 -8.5t9.5 -7.5q4 -2 9.5 -12t6.5 -11q4 -4 11.5 -18t12.5 -19q7 -6 15 -23.5t13 -22.5q3 -3 11.5 -6.5t11.5 -5.5q9 -8 31.5 -47t31.5 -59q7 -15 1 -38t-19 -32q-28 -19 -52.5 3.5t-45.5 65t-28 49.5t-29.5 32.5t-32.5 34.5q-6 5 -15.5 18t-15.5 18
q-33 26 -47 43q-3 5 -7 10q-6 18 -20 13q-16 -5 -29.5 -57t-13.5 -80q0 -32 -9 -54q-9 -17 -8 -21q-2 -11 -2.5 -35t-0.5 -25q-2 -23 -22.5 -46.5t-38.5 -23.5q-10 0 -13 4t-19 9t-15 13q-3 19 2 32q1 5 2.5 20t2.5 20q1 6 10 24t9 32v10q0 32 10.5 69.5t10.5 38.5
q1 14 4.5 31t6.5 29.5t10.5 33.5t10.5 28.5l12 30t10 24.5q4 9 2.5 29t4.5 34q7 17 23 68q2 5 3.5 17t2.5 17q0 1 10 27.5t10 33.5q0 5 -5 24.5t0 26.5q2 5 19 12t18 7q3 2 9 2z" />
    <glyph glyph-name="uni041B" unicode="&#x41b;" horiz-adv-x="487" 
d="M13 -32q-48 -2 -50 21q-9 13 14 51q4 7 17 18.5t17 16.5q2 5 6.5 15t6.5 15q7 12 26 31.5t24 24.5q1 5 14 47q6 15 42 76q4 15 11 35q7 12 27 40.5t28 41.5q0 6 4 16q3 5 10.5 15.5t9.5 14.5q2 8 10.5 23.5t10.5 21.5q9 19 34 48q4 8 13 17t13 14q4 6 17 19
q10 10 25.5 40t33 40.5t50.5 2.5q0 -1 6 -10.5t7 -17.5q-10 -32 -12 -48q0 -8 8 -18.5t9 -16.5l-5 -45q1 -3 4 -16t4 -21q0 -6 -2.5 -17.5t-0.5 -17.5q1 -6 7.5 -17.5t7.5 -17.5q2 -9 3.5 -26t2.5 -21q2 -10 0 -28t-2 -27q1 -16 4 -40.5t3 -37.5q-2 -8 -5 -23t-5 -22
q1 -6 1.5 -26.5t2 -37t4.5 -24.5q4 -10 10 -33q1 -9 -8 -28q-6 -10 -23.5 -20t-19.5 -12q-33 0 -38 4q-11 5 -20 16.5t-9 23.5l3 33q0 53 -2 58q3 11 10 65q0 8 -3 15t-3 12q1 5 3.5 20t4.5 24q-1 14 -8.5 39t-8.5 38q1 4 2 11.5t2 11.5q0 7 1 24.5t0.5 28t-4.5 19.5
q-2 6 -1 16t0 21t-5 13q-8 0 -19 -17.5t-26 -47.5l-15 -31q-3 -5 -12.5 -14t-12.5 -14q-1 -3 -3.5 -11t-4.5 -12q-3 -8 -13.5 -20.5t-13.5 -17.5q-16 -32 -24 -49q-44 -69 -49 -76q-6 -10 -13 -31.5t-13 -31.5q-58 -106 -120 -156z" />
    <glyph glyph-name="uni041C" unicode="&#x41c;" horiz-adv-x="741" 
d="M350 680q8 1 24.5 -2t21.5 -7q20 -24 23 -41q5 -26 -4 -54q-3 -19 -3 -25t2 -29.5t3 -32.5q0 -4 -2 -24t1 -23q6 -12 6 -45v-30q-3 -36 -3 -52q1 -12 -1 -36t-2 -39.5t6 -18.5q10 -4 71 114q3 5 5 14.5t4 13.5q5 10 20 36t18 32l4 8t6 10q4 6 8.5 18.5t7.5 17.5
q1 2 7 6.5t7 6.5q43 74 51 95q13 32 35 61q23 29 48 30q31 2 36 -11q4 -9 4.5 -20.5t0 -27t-0.5 -23.5q1 -29 -6 -73.5t-7 -112.5v-15q-21 -103 -21 -222q0 -26 1 -32q2 -17 -1 -56t-7 -52q-4 -11 -2 -35q1 -16 -22 -42q-8 -9 -25 -11t-28 5q-5 4 -8 6.5t-4 6t-1.5 6t-1 9
t-1.5 12.5v7q0 15 4 29t4 18q0 7 -4.5 21t-4.5 20q0 4 4 29.5t4 57.5v14.5v18.5v12q-1 19 6.5 64t7.5 56q0 15 5 51t9 63.5t2 28.5q-4 2 -12.5 -12t-17.5 -34l-9 -20q-9 -17 -24.5 -51t-20.5 -43q-3 -5 -11.5 -14.5t-10.5 -14.5q-3 -8 -8.5 -26.5t-9.5 -28.5q-2 -5 -9 -12
l-9 -9q-9 -13 -16.5 -26.5t-18 -33t-15.5 -29.5q-1 -2 -5 -6t-5 -7q-3 -6 -6 -17.5t-6 -17.5q-2 -3 -7.5 -8t-7.5 -7q-4 -6 -13.5 -21.5t-15.5 -24.5t-16.5 -14.5t-20.5 -0.5q-29 13 -42 63q0 1 0.5 5t2 15t1.5 26v25q0 12 3 27t3 20q0 10 -3 28.5t-3 27.5q-1 17 2.5 49.5
t3.5 44.5q0 3 1.5 11t1.5 11q0 4 -4 12t-4 12q-1 9 2 35t3 44.5t-9 20.5q-8 2 -26 -38t-22 -59q-1 -5 -3 -14t-4 -13q-4 -10 -15 -29t-14 -29q-2 -5 -3 -16t-3 -17q-4 -10 -17 -31.5t-18 -33.5q-3 -9 -5 -19.5t-6 -22.5t-16 -34.5t-16 -31.5q-3 -7 -6 -18.5t-9 -20.5
q-19 -31 -57 -53q-18 -10 -29 5q-5 7 -7.5 15.5t-1.5 19.5t2 18.5t6 21.5t7 19t9 20.5t8 17.5q3 6 10.5 16.5t9.5 17.5q1 3 4.5 14.5t5.5 17.5q3 12 19.5 36.5t19.5 33.5l18 48q3 9 14.5 26t14.5 25q3 10 12.5 34.5t13.5 37.5q2 7 12.5 20t13.5 18q7 37 10 45q7 20 16 35
q5 9 18 36.5t25.5 46t25.5 24.5z" />
    <glyph glyph-name="uni041D" unicode="&#x41d;" horiz-adv-x="574" 
d="M617 691q14 4 28.5 -3.5t18.5 -17.5v-2q0 -3 0.5 -7.5t0.5 -9.5q0 -40 -5 -66.5t-10.5 -38t-5.5 -14.5q-1 -11 -7.5 -29.5t-8.5 -29.5q-2 -17 -9 -32q-1 -3 -4.5 -10.5t-5.5 -15t-2 -14.5q2 -33 -14 -74q-4 -10 -11.5 -24.5t-10.5 -24.5q-2 -5 -4 -34q-1 -9 -8.5 -34
t-8.5 -37q-4 -74 -12 -94q-3 -8 -14 -18t-13 -12q-3 -5 -11 -16t-10.5 -13t-9.5 -6.5t-15.5 -3t-21.5 5.5q-11 3 -13 33q0 5 2.5 12t7 15.5t5.5 11.5q6 17 16.5 67t10.5 65q0 19 8 51q3 14 -2 19q-6 5 -12.5 8t-11.5 4.5t-14.5 0t-13.5 -2t-17.5 -4t-17.5 -4.5
q-10 -2 -28 0.5t-30 -0.5q-35 -9 -52 -5q-15 4 -46.5 -7.5t-37.5 -19.5q-8 -11 -13 -49.5t-9 -48.5q-8 -20 -19 -54q-2 -5 -3 -14.5t-2 -13.5q-3 -9 -4.5 -21t-4 -21t-10.5 -17l-15 -15q-20 -18 -39 -13q-20 5 -27 21q-8 19 9.5 64t17.5 63q0 22 4 43.5t13.5 50.5t11.5 36
q4 14 6 42t6 42q5 16 15.5 54.5t19.5 66.5q4 8 6 20t5 20q5 20 12 33q6 11 11 28.5t8 24.5q8 20 31 35t41 11q13 -2 19 -21q1 -6 -5.5 -33.5t-11.5 -38.5q-10 -19 -17.5 -49.5t-12.5 -44.5q-2 -6 -5 -12t-4 -10.5t0 -13.5q1 -7 -2 -21l-4.5 -21t1.5 -12q8 -5 42 1
q15 4 47.5 3.5t46.5 3.5q13 4 35.5 8.5t28.5 5.5q19 5 30.5 3t24.5 -0.5t25 9.5q11 8 15 17.5t6 26.5t6 29q2 6 6.5 11t6.5 12q2 10 4 31t5 31q2 7 2 18t3 19t9 20t9.5 20t3.5 14q0 13 8 21q13 13 27 16z" />
    <glyph glyph-name="uni041E" unicode="&#x41e;" horiz-adv-x="599" 
d="M400 569q-24 -9 -41 -21q-21 -13 -62 -58q-3 -4 -11.5 -12t-14 -14.5t-9.5 -12.5q-12 -21 -21.5 -41t-16 -37t-8.5 -21q-11 -23 -13.5 -30.5t-2 -9t-1.5 -12.5q-2 -7 -8 -36t-9 -41q-1 -14 -2.5 -20.5t2.5 -19t6 -17t7 -14.5t6 -13q2 -5 5 -13t4.5 -12.5t5.5 -9.5t10 -8
q4 -2 14 -3t14 -2q3 -1 13.5 -5t17 -5.5t18 -3.5t16.5 2q60 22 76 42q2 2 8.5 6.5t7.5 5.5q6 6 19 13.5t19 12.5q3 2 22 37q4 7 12 16.5t12 18.5q3 6 7.5 20t6.5 20q2 5 7.5 19.5t7.5 20.5q2 5 7 11t8.5 13t6.5 32.5t3 67.5q0 16 -1 19q-1 5 -1.5 13.5t-2.5 14.5
q-1 3 -2 10.5t-3 12.5t-5 8q-2 2 -7.5 14.5t-8.5 14.5t-17.5 14.5t-19.5 14.5q-3 1 -10 1t-10 1q-25 8 -61 -4zM455 654q16 5 35.5 1.5t27.5 -6.5t25 -11t28 -12q8 -3 17 -17t12 -17l7 -6q7 -6 10 -10.5t4 -11.5q1 -10 9 -35.5t10 -36.5q1 -5 -2 -24.5t-3 -44.5v-11
q1 -5 0 -15t-1 -16v-20q0 -19 -4 -32.5t-9.5 -21.5t-5.5 -10q-2 -8 -4 -23t-5 -22q-9 -24 -47 -81q-24 -37 -71 -85q-3 -3 -16.5 -11.5t-16.5 -11.5q-1 -1 -8 -2.5t-13 -6.5q-2 -2 -9 -12.5t-11 -13.5q-7 -6 -22.5 -14t-17.5 -9q-6 -5 -51 -12t-54 -6q-37 2 -55.5 9
t-52.5 29q-1 1 -7.5 4.5t-11 6t-10 7t-8 9.5t-2.5 11q0 11 -13.5 23t-13.5 24v1q0 1 -0.5 1.5t-1 2.5t-1 4.5t-1 7t-1 10t-0.5 14v18.5q0 3 -1.5 20t-1.5 24q0 17 0.5 28.5t1.5 19t3.5 16.5t4.5 14.5t8 19t10 24.5t10.5 30t12.5 35t13 31q8 18 25 32t25 27q2 3 5.5 11.5
t6.5 11.5q9 8 17 24t15 25q9 11 24.5 22t22.5 19q7 9 37 24q25 14 40 14h9t6 -0.5t4.5 0t5.5 2.5t7 6t15 5t23.5 0.5t15.5 -0.5z" />
    <glyph glyph-name="uni041F" unicode="&#x41f;" horiz-adv-x="565" 
d="M111 -5q-6 -1 -25.5 -1t-25.5 1q-17 10 -10 47.5t26 74.5q3 7 5.5 12t3.5 9.5t2 7t1 7v7v8.5v11q0 19 14 54q7 16 31 147q3 16 11 44.5t11 38.5q6 23 12 57t11 57t12.5 47t19 39.5t28.5 21.5q5 2 42 -1t41 -1q8 5 26 2.5t22 -0.5q30 11 66 3t66 2q5 2 14 -0.5t14 -0.5
q47 16 70 9q8 -2 17 -1t14 -2q2 -2 10 -4.5t12 -7t0 -12.5q-7 -17 -5 -38v-16q0 -69 -26 -144q-1 -3 -5 -9t-6.5 -12.5t-2.5 -13.5q1 -29 -15 -94t-31 -108q-5 -12 -11.5 -39.5t-10.5 -39.5q-3 -7 -11.5 -18t-10.5 -15q-3 -5 -4.5 -35t-4.5 -35q-12 -18 -76 -15
q-10 0 -12.5 10t1.5 26t9 29.5t11.5 29t6.5 16.5q9 23 17 59.5t11 46.5q0 1 8 22.5t12 39.5t1 31q1 3 21.5 66.5t25.5 110.5q0 1 0.5 10t0.5 11q0 4 -1 10.5t-1 11.5q0 6 3.5 17.5t-1.5 12.5q-6 8 -27 8q-5 0 -13 0.5t-16.5 0t-18.5 -3.5q-7 -2 -19.5 -3t-17.5 -2
q-20 -5 -47 3t-40 -5q-4 -3 -12.5 -3.5t-11.5 -1.5q-4 -1 -27 -4t-28 -9t-15.5 -69.5t-14.5 -70.5q-29 -52 -29 -85q0 -2 1.5 -10t1.5 -11q0 -12 -23.5 -113.5t-34.5 -125.5q-1 -3 -7 -11.5t-10 -17t-4 -14.5q0 -3 1 -14.5t0.5 -19.5t-4.5 -15q-1 -3 -18 -7z" />
    <glyph glyph-name="uni0420" unicode="&#x420;" 
d="M486 694q15 0 23 1.5t20.5 -3t18 -5.5t17 -8t15.5 -10l14 -10.5l14 -10.5q3 -2 11 -4t11 -5q5 -4 7.5 -11t4.5 -18t3 -15t7 -10.5t7 -10.5q2 -9 -3 -30.5t-5 -30.5q0 -19 -3.5 -29t-12 -20.5t-12.5 -17.5q-1 -2 -3.5 -11t-6.5 -12q-7 -9 -25.5 -25.5t-22.5 -20.5
q-28 -28 -37 -32q-6 -2 -17 -4t-15 -3q-4 -2 -10.5 -9t-10.5 -8q-6 -3 -19 -5t-19 -6q-1 -1 -5.5 -6t-7.5 -6q-28 -5 -40 -11.5t-35 -12.5q-9 -2 -27 -8t-26 -8t-35.5 -5t-43.5 -11t-25 -28q-5 -13 -9.5 -66t-8.5 -64q-3 -5 -8.5 -14t-9 -15.5t-3.5 -12.5q0 -3 0.5 -7.5
t0.5 -8.5t-1 -7q-7 -22 -39 -42l-6 -1.5t-5.5 1.5t-4.5 2q-30 13 -34 24q-9 20 13 115.5t22 111.5q0 7 2 15.5t4 14t5.5 13.5t5.5 12q2 5 2 14v11q1 8 8 30t8 25q3 11 5 34q1 9 13 38q4 8 1 28q-1 8 12 41q9 22 3 54.5t1 46.5q3 6 11 14.5t10 10.5q3 4 5.5 11t4.5 10
q12 17 53 30q13 4 25 -6.5t17 -11.5q15 -2 22.5 0t18.5 7.5t15 6.5t11 -1t11 -2q3 1 10.5 6t10.5 6q14 4 48 4t44 2zM431 602q-15 -5 -38 -6.5t-38 -5.5l-28 -14q-8 -4 -17.5 -5t-17.5 -4q-25 -11 -28 -14q-10 -11 -23 -94q-1 -6 -3 -16q0 -1 -5.5 -28t-10.5 -53l-5 -27
q2 -4 17 -1.5t24.5 5t28 8t28.5 7.5q67 16 88 30q8 5 38.5 16.5t31.5 11.5q34 14 62 52q24 32 24 64q0 10 -5 18q-2 4 -13 19.5t-14 16.5q-7 5 -24.5 7t-23.5 4q-4 1 -14 6t-15 5.5t-19 -2.5z" />
    <glyph glyph-name="uni0421" unicode="&#x421;" horiz-adv-x="553" 
d="M486 641q58 10 96 -8q13 -6 30 -26q15 -15 20 -46l3 -33q0 -53 -18.5 -90t-58.5 -36q-4 0 -7.5 1t-6 3t-4.5 3.5t-3.5 5.5t-2 6t-1.5 7t-1 7t-0.5 8.5t-0.5 8.5q-1 11 4.5 28t6.5 26.5t-8 28.5q-15 22 -42 18q-4 0 -14 0.5t-14 -0.5q-9 -2 -21.5 -9.5t-21.5 -14
t-23.5 -18.5t-18.5 -15t-17 -7t-18 -9q-6 -6 -14 -16q-48 -37 -71 -68q-9 -12 -30.5 -53t-24.5 -46q-15 -26 -20 -46t0 -52q2 -14 15 -45q3 -7 7 -11.5t12.5 -10.5t10.5 -8q1 -1 8 -11.5t13 -11.5q2 -1 8 -0.5t9 0.5q5 -1 14.5 -6.5t12.5 -6.5q10 -4 22 3t14 7q6 1 19 0
t20 0q19 4 87 41q3 2 9 9t10 10q9 6 38.5 12.5t34.5 3.5q12 -8 14 -16q3 -15 -1 -21q-22 -33 -35 -51q-11 -14 -45.5 -37.5t-52.5 -29.5q-7 -2 -21 -5.5t-21 -6.5q-3 -1 -13.5 -6.5t-15.5 -6.5q-8 -2 -27.5 2t-29.5 1q-1 0 -15.5 -5t-16.5 -4.5t-17 1.5q-9 2 -23.5 10.5
t-21.5 10.5q-3 1 -9.5 1t-10.5 1q-4 2 -9 12t-7 12q-5 4 -21 5t-21 6q-1 1 -11.5 18.5t-10.5 18.5v10t-2 11q-2 4 -7.5 10.5t-7.5 10.5q-10 20 -12.5 50t7.5 66q16 45 39 85q4 8 9 23.5t8 21.5q2 3 8.5 8.5t8.5 7.5q3 4 10.5 13t10.5 13t17 26.5t26.5 41t18.5 21.5
q5 3 13.5 4.5t11.5 3.5q6 3 12.5 17.5t11.5 17.5q2 1 8 3.5t9 4.5q2 1 9.5 10t12.5 11q3 1 8.5 2t8.5 3t9 9.5t9 9.5q7 4 22 5t21 3q11 3 29 14.5t25 14.5q6 2 15 3t11 2z" />
    <glyph glyph-name="uni0422" unicode="&#x422;" horiz-adv-x="479" 
d="M472 685h57t49 -7.5t43 -23.5q19 -18 3.5 -41t-43.5 -29q-9 -3 -18.5 -1.5t-13 2.5t-11 5t-10.5 5q-11 4 -28 -4t-20 -8q-14 -3 -31.5 0t-28 0.5t-20.5 -18.5q-5 -9 -10 -38t-8 -38q-1 -2 -6 -12.5t-7 -19t-2 -17.5q0 -2 -0.5 -16.5t-4.5 -25.5q-8 -21 -28.5 -97
t-25.5 -91q-2 -6 -4.5 -19.5t-5.5 -20.5q-2 -9 -9 -30.5t-9 -27.5q-4 -16 -10 -50t-11 -52q-3 -10 -18.5 -19t-26.5 -9q-33 1 -33 75v20q0 20 19 69q4 9 5 28t4 27q2 4 2.5 11.5t1.5 11.5t10 15t11 19q1 4 9.5 58.5t10.5 63.5q5 27 8 33q14 34 14 49q0 10 6 34.5t11.5 45
t4.5 22.5q-9 17 -27.5 18.5t-38 -6.5t-41 -11t-36.5 5q-15 9 -18.5 21.5t3.5 39.5q1 5 11 8q5 2 13.5 1.5t12.5 1.5q47 21 80 24q11 0 34 4.5t35 5.5q99 5 116 8q5 1 30 1z" />
    <glyph glyph-name="uni0423" unicode="&#x423;" horiz-adv-x="436" 
d="M570 706q8 6 16 -2q2 -2 10.5 -5.5t15.5 -8t7 -8.5q0 -22 -17 -46t-41.5 -50.5t-33.5 -41.5q-3 -6 -8 -14t-6.5 -11t-5 -8t-8 -9.5t-11.5 -12.5q-7 -7 -17.5 -22t-17.5 -23q-3 -3 -9 -7t-8 -6q-14 -13 -29 -34q-4 -6 -17 -33.5t-18 -34.5q-2 -3 -10 -7.5t-10 -7.5
q-11 -17 -25.5 -35.5t-27.5 -39.5q-6 -9 -22 -41.5t-26 -45.5q-6 -7 -25.5 -25t-22.5 -23q-4 -6 -6.5 -16.5t-4.5 -14.5q-11 -20 -42.5 -52t-57.5 -46q-10 -6 -27 1t-17 20q0 14 3.5 22t12.5 19t13 17q5 7 9.5 19.5t7.5 17.5q3 7 14 15.5t14 11.5q3 4 8 13t8 14q1 2 7 7.5
t8 8.5q28 57 48 82q1 2 21 23.5t30.5 40t9.5 36.5q-1 6 -13 14t-12 13q0 2 2 7.5t1 7.5q-1 6 -6.5 15t-6.5 14q0 3 1 10t-1 8q-9 13 -16 26t-10.5 20.5t-10.5 24.5t-11 26q-5 11 -17 26t-18.5 25t-11.5 30t5 41q3 9 17.5 19.5t23.5 7.5q6 -2 9.5 -8.5t7.5 -7.5q12 -3 20 -10
q3 -2 5 -10t5 -10t9 -3.5t9 -3.5t4.5 -9t3.5 -9q11 -12 18 -23.5t10 -19.5t9 -24.5t11 -28.5q18 -41 36 -55q5 -4 12.5 -3t11.5 5q48 48 90 110q22 33 31 51q24 45 90 87z" />
    <glyph glyph-name="uni0424" unicode="&#x424;" horiz-adv-x="790" 
d="M771 664q20 3 39 -3q8 -2 14 -6.5t14.5 -12.5t14.5 -13q12 -9 23 -7q2 1 3 -4q1 -3 11 -40q1 -4 6.5 -11t6.5 -11q2 -9 -5 -32t-7 -32q0 -19 -4 -30t-13 -22t-13 -18q-1 -3 -4 -13q-8 -30 -43 -69t-60 -46q-4 -2 -11.5 -8.5t-11.5 -8.5q-6 -2 -18 -5t-19 -7
q-1 -1 -5.5 -6t-7.5 -6q-14 -3 -30 -12t-24 -11q-9 -3 -32.5 -10.5t-36.5 -10.5q-11 -3 -32 -3.5t-27 -1.5q-9 -1 -12 -12q-1 -3 -1 -4q-8 -29 -15 -62t-9 -41q-14 -55 -24 -70q-13 -19 -37 -19q-2 0 -8 -0.5t-9 0t-8 2t-8.5 6.5t-6.5 13q-8 22 8.5 85t16.5 79v2q0 9 -7 9
q-8 1 -25.5 -7t-28.5 -9q-9 -1 -15.5 0t-14.5 1q-6 -1 -18.5 -4.5t-18.5 -4.5q-5 0 -19.5 3.5t-28.5 1.5q-3 -1 -5 3.5t-4 4.5q-2 1 -14 5.5t-19 5.5q-3 0 -8 5t-9 4q-15 -1 -41.5 32t-21.5 47q1 2 1 6q0 7 -5 16t-5 16t8 32q3 9 7 31.5t10 33.5q3 5 11 14.5t11 13.5
q35 56 36 56q11 5 27 18q13 11 31 31.5t32.5 30t40.5 14.5q7 1 48.5 18t55.5 17q3 0 10 1.5t13 2.5l5 2q5 1 11 -1t13.5 -1t21.5 9q11 6 18 50q4 25 20 41t34 16q24 1 30 -11t6 -53q0 -31 14 -35q11 -3 22 0t21.5 8.5t15.5 6.5q23 4 28 6q2 0 25 -1.5t45 -3t21 -1.5z
M257 263q14 5 26.5 3t29.5 2q2 1 11 1t14 3q8 5 34.5 4t32.5 13q-1 -2 4 17.5t13 51t16.5 64.5t14.5 62.5t6 40.5q0 19 -3 24q-8 11 -69 -8q-14 -4 -44 -18.5t-44 -18.5q-6 -2 -18 -12t-17 -12q-22 -7 -39 -26q-15 -16 -31.5 -50t-16.5 -61q0 -40 31 -61q31 -23 49 -19z
M721 580q-13 -5 -50 -3t-44 -3q-4 -2 -32 -6t-33 -19l-2 -9q-3 -9 -6.5 -24.5t-8.5 -34.5t-9.5 -40t-8 -41t-6 -39t-2.5 -31q0 -22 9.5 -29t43.5 2q7 2 16.5 2.5t15.5 1.5q5 1 20 10t17 10q3 2 11.5 3t10.5 2q6 2 19.5 12t18.5 12q27 9 52 37q15 16 33 54t18 64q0 40 -33 59
q-7 4 -25.5 8t-24.5 2z" />
    <glyph glyph-name="uni0425" unicode="&#x425;" horiz-adv-x="478" 
d="M210 668q6 -1 11.5 -2.5t9.5 -4.5l6 -4.5t5 -7.5l3.5 -7t3.5 -9t3 -9q1 -4 7.5 -11.5t7.5 -12.5q4 -24 10 -35q2 -5 5 -11q17 -38 25 -64q2 -7 3 -14.5t4 -16.5q1 -2 3 -12t5.5 -15.5t8.5 -6.5q9 -2 36 33q5 6 20 29.5t22 29.5q3 2 12 6.5t12 9.5q5 18 8 23t13.5 13
t13.5 12q7 10 16.5 25.5t17 28t17 26t18 21.5t18.5 12.5t21 2t23 -13.5t13 -25.5t-6 -28.5t-20.5 -31t-26.5 -30.5t-29.5 -30t-24.5 -26.5q-3 -4 -12 -10.5t-12 -10.5q-14 -15 -37.5 -48t-34.5 -46q-5 -5 -20 -18t-21 -22q-2 -3 2.5 -8.5t4.5 -7.5t-1 -6t-1 -6
q1 -11 9.5 -30.5t9.5 -24.5q1 -4 2 -13t2 -14q3 -13 16 -36t16 -36q1 -6 4 -13t4 -17q1 -7 6 -18t6 -15q2 -7 0 -36.5t-4 -33.5q-17 -31 -36 -36q-8 -4 -11 -3q-11 1 -18.5 7.5t-10.5 12.5t-6.5 18.5t-5.5 17.5q-1 2 -7 13.5t-7 17.5q-2 15 -6.5 25.5t-11.5 23t-11 22.5
q-3 8 -15.5 30.5t-16.5 34.5q-1 2 -2 9t-3 10q-1 1 -2 -1t-1 -4q-5 -6 -12.5 -18.5t-12.5 -18.5l-9 -10q-9 -9 -13 -15q-5 -6 -13.5 -19.5t-15.5 -22.5t-16 -17q-19 -17 -31 -32q-17 -21 -31 -43q-8 -12 -13 -25.5t-7.5 -19.5t-10 -12.5t-21.5 -12.5q-24 -10 -38 6.5
t-13 42.5t18 43q5 5 10.5 16.5t10.5 17.5q4 4 13.5 11.5t12.5 10.5q10 11 24 32t20 28q2 3 8.5 7.5t8.5 6.5q19 19 53 73q4 6 16.5 19.5t20.5 27t9 29.5q0 14 -12 34t-12 36q0 26 -21 66t-23 65q-1 7 -6 18t-6 15q-2 7 -1.5 26.5t2.5 23.5q6 11 16.5 22.5t19.5 14.5
q2 0 6 1.5t6 1.5z" />
    <glyph glyph-name="uni0426" unicode="&#x426;" horiz-adv-x="582" 
d="M616 673q18 -5 20 -48t-13 -77q-1 -2 -11 -34t-12 -35q-8 -17 -6 -39q1 -9 -14 -58q-1 -2 -14 -82q-4 -24 -20 -98q-5 -25 -12 -49t-11.5 -36.5t-4.5 -14.5q3 -2 15.5 0t32 4.5t26.5 0.5q14 -3 14 -26q0 -9 -6.5 -28.5t-6.5 -31.5v-18q-5 -49 -15.5 -81.5t-20.5 -38.5
q-9 -5 -20 -8.5t-24 1t-17 21.5q-3 8 -2 27t6 31q16 38 10 53q-1 2 -3 2q-18 -1 -40.5 2t-42.5 1.5t-50 -13.5q-3 -2 -60.5 -1.5t-60.5 -0.5q-31 -11 -71 -15t-69 3q-7 2 -17 0.5t-14 2.5q-20 13 -13 31q2 7 -2.5 20t-4.5 15q-1 13 14 45.5t15 45.5q0 25 15 70q1 2 8 13.5
t6 20.5q-6 89 14 148q4 12 6 22t6 22q2 6 6 40t7 39t12.5 41t12.5 41q7 12 27.5 19.5t38.5 6.5q12 0 13.5 -25.5t-4.5 -60.5t-11.5 -59t-8.5 -35q-5 -17 -8 -30.5t-6 -29t-6 -30.5q-1 -9 -7 -23q-2 -5 -2.5 -10t-0.5 -10v-8q-1 -4 -13 -39t-17 -80v-15q0 -4 -3.5 -13.5
t-2.5 -14.5q1 -7 -4.5 -25.5t-1.5 -23.5q21 -24 26 -26.5t32 3.5q15 4 73.5 2.5t82.5 8.5q4 2 15 4t18.5 5t11.5 8q4 6 15.5 61.5t13.5 61.5q7 13 14 46.5t6 54.5q-1 3 3.5 10.5t4.5 10.5q-1 15 8 55.5t16 60.5l3 7q3 7 3 12q0 8 9.5 41t15.5 48q11 25 11 42q0 21 16 43
q18 27 51 17z" />
    <glyph glyph-name="uni0427" unicode="&#x427;" horiz-adv-x="547" 
d="M592 705q26 7 44.5 -10.5t4.5 -48.5q-1 -3 -7.5 -19t-13.5 -33.5t-7 -18.5q-6 -13 -14.5 -45.5t-7.5 -41.5q1 -14 -12 -47q-2 -6 -7 -43t-5 -38q-1 -8 -10 -34.5t-19 -77t-18 -126.5q-1 -8 -8 -35.5t-7 -33.5q0 -18 -13.5 -41t-25.5 -27t-31 -2.5t-23 6.5q-1 2 -5 5.5
t-5 6t-3 6t-1 8t4 9.5q2 3 3 8t3 14t4 17q2 6 3.5 20t3.5 21q1 6 7 19t7 19q3 15 8.5 37.5t8.5 35t3 15.5q0 7 3 16t3.5 12.5t-5.5 10.5q-3 2 -8 0t-12 -6.5t-9 -5.5q-51 -25 -53 -24q-5 1 -48 -16q-10 -4 -34 -7.5t-36 -7.5q-10 -3 -82 11q-22 6 -33 14t-29 37
q-6 10 -6.5 28t2 39.5t2.5 29.5q0 9 2.5 19t8.5 24.5t8 21.5q28 89 32 154q1 27 15 57.5t38 37.5q18 5 34.5 -7.5t15.5 -33.5q-4 -64 -25.5 -118.5t-29.5 -109.5q0 -2 -0.5 -9t-0.5 -8q1 -9 -2 -28t-4.5 -30t1.5 -19q19 -19 39.5 -19.5t44.5 8.5q7 1 20 2t19 3q15 4 50 16.5
t40 14.5q50 19 58 30q4 5 8 25t7.5 42t4.5 27q30 117 31 125q2 12 8 39q1 5 3 17t3.5 17t5.5 14t9.5 13.5t15.5 10t24 8.5z" />
    <glyph glyph-name="uni0428" unicode="&#x428;" horiz-adv-x="736" 
d="M186 595q-1 21 17.5 37t40.5 21q8 2 13.5 -6t7 -20.5t2 -25.5t-0.5 -23v-9l-2 -7q2 -11 2 -16q0 -1 -12.5 -50.5t-12.5 -53.5q0 -2 -0.5 -7t-0.5 -7q-1 -37 -32 -99q-5 -8 -4 -25t0 -21q-2 -9 -14 -46.5t-20.5 -69t-8.5 -47.5q0 -31 21 -37q15 -5 69.5 -7t72.5 3
q8 4 12 12q23 56 33 163q3 28 14 66.5t13 48.5q1 5 5.5 16t4.5 16q0 3 -1 9t-1 9q0 12 7.5 42.5t20 73t15.5 51.5q1 5 2.5 17.5t4.5 24t9 22.5q13 22 38 35q18 10 33 4q27 -11 6 -98q-4 -15 -13.5 -39t-18.5 -58t-15 -84q-1 -3 1.5 -9t2.5 -8q0 -11 -10.5 -31t-11.5 -29
q0 -2 2 -16.5t-1 -17.5q-3 -13 -11.5 -36.5t-11.5 -32.5q-1 -3 0.5 -8.5t1.5 -6.5q0 -10 -9 -60t-5 -60q1 -3 0.5 -10.5t2.5 -8.5q9 -7 31.5 -7.5t49.5 7.5q4 1 18 5.5t20.5 6.5t16.5 6.5t17.5 10.5t13.5 14q13 16 22.5 75t11.5 88q11 7 11 45v5q0 1 -0.5 4.5t-0.5 5.5
q0 17 2.5 28.5t6.5 20t5 11.5q2 7 4.5 25.5t3.5 25.5q1 3 9.5 36t16.5 64t9 36q14 66 27 87q14 24 50.5 30t41.5 -13q4 -15 -11 -55q-6 -15 -17 -56t-22 -86t-14 -55q-4 -20 -8.5 -58t-8.5 -58q-1 -5 -8.5 -28t-9.5 -39q-1 -10 -3.5 -40.5t-3.5 -39.5q-2 -24 -11.5 -49
t-9.5 -30t3 -14t2 -17.5t-8 -17.5t-34 -24q-11 -6 -29.5 -4.5t-32.5 -2.5q-57 -19 -102 -19q-3 0 -18 -5t-19 -4q-13 2 -42 -5t-44 -3q-6 1 -17.5 3t-18.5 3.5t-11 3.5q-11 6 -27 8q-4 1 -11 -3l-7 -3q-7 -2 -14 1.5t-9 3.5q-5 0 -14 1.5t-15 0.5q-156 -16 -168 -6t-15 41
t12 64q21 38 24 66q10 93 25 117q6 8 11.5 24.5t2.5 23.5q-10 24 24.5 136t33.5 127z" />
    <glyph glyph-name="uni0429" unicode="&#x429;" horiz-adv-x="783" 
d="M122 349q16 66 36.5 130t33.5 95l12 30q7 8 21 15.5t28.5 11t25 -3.5t10.5 -25q0 -37 -6 -51q-1 -3 -3 -11l-3 -12q-10 -21 -28 -78.5t-19 -80.5q-1 -7 -2 -22.5t-1 -20.5q-1 -9 -27.5 -82t-26.5 -137q0 -21 1 -24q2 -8 8 -12t19 -5.5t20 -1.5t27 1h16t13.5 0.5t12.5 1.5
t12.5 3.5t13.5 6.5q23 15 32.5 54.5t8.5 66.5v11q0 46 18 93t18 50q1 26 42 191q3 11 6.5 30t6 30t7 24t10.5 21q16 22 51.5 24t37.5 -23v-12q0 -47 -18 -83q-6 -11 -6 -29q0 -9 -25.5 -94.5t-25.5 -87.5q0 -13 -3 -19q-19 -40 -19 -83v-9q0 -4 0.5 -12.5t1 -15t1.5 -11.5
t-9 -53t-8 -53t25.5 -7.5t52 -3.5t31.5 -1q31 -4 44 10q22 25 32.5 90t11.5 112q0 14 10.5 44.5t10.5 43.5q0 3 4 39q25 224 69 270q21 22 40 23.5t30.5 -9.5t16.5 -29q3 -10 -5 -29.5t-8 -27.5v-8q0 -28 -8 -56t-8 -35q-1 -8 -23.5 -97.5t-23.5 -93.5q-1 -8 -4 -25t-4 -26
v-36q0 -13 -13.5 -68.5t-14.5 -66.5v-3q0 -1 6 -1q4 0 39.5 0.5t38.5 -1.5q14 -4 14 -26q0 -26 -17 -60q-2 -4 -5.5 -32t-5.5 -35q-2 -8 -3.5 -18t-2.5 -15.5t-2.5 -11.5t-3.5 -9t-5 -5q-6 -4 -17.5 -7t-24.5 -4t-24 5t-14 19q-2 10 13 47q7 18 7.5 36.5t-5.5 19.5
q-16 4 -57 0q-5 -1 -32 -5t-31 -3.5t-27 1.5q-2 1 -6 4t-6 3q-11 3 -47.5 -4t-44.5 -7t-39 -1t-38 -1q-6 0 -21 1.5t-22 1.5q-13 0 -34 2.5t-36 1.5q-7 0 -46 -4.5t-47 -3.5q-5 1 -31.5 -3.5t-34.5 1.5q-25 13 -30 58q-1 7 5 17t6 16q1 5 2.5 33t5 55t8.5 38q1 1 6.5 10.5
t9.5 18.5t8 28.5t4 43.5v13v35z" />
    <glyph glyph-name="uni042A" unicode="&#x42a;" horiz-adv-x="658" 
d="M203 687l49 -9q17 -5 47.5 0.5t40.5 5.5q1 0 3 -2t4 -1q15 6 28 7q20 3 27 -11t1.5 -37t-13 -43.5t-15.5 -36.5q-26 -47 -36 -90q-2 -7 -11.5 -26.5t-16.5 -36.5t-5 -24q2 -5 7 -6t12 1.5t14.5 6t16 7t14.5 4.5q52 13 87 18q5 2 20 1t19 -1q8 1 22.5 -2t19.5 -3
q69 -2 102 -31q12 -11 24 -37q18 -39 19 -55q3 -52 -35.5 -109.5t-76.5 -81.5q-13 -8 -36 -23.5t-42 -27.5t-37 -20q-7 -3 -18 -4t-16 -3q-7 -2 -21.5 -12t-22.5 -12q-19 -4 -61.5 -6.5t-62.5 -7.5q-21 -4 -26 -2q-4 1 -16 2t-16 3q-3 2 -20.5 9t-22.5 14q-2 4 -13.5 9.5
t-11.5 21.5q0 9 -8 27.5t-8 29.5q0 35 28 105q2 4 7.5 14t8.5 18.5t3 16.5q0 25 19 68q1 3 12 24.5t14 29.5q2 5 12 37.5t13 39.5q8 21 22 48t21 45t7 38q0 8 -3.5 10t-11.5 1t-11 0q-23 6 -53 -1q-35 -10 -42 -5q-1 1 -5.5 3t-7 4t-5 7.5t-2.5 13.5q0 30 14 46q3 4 7.5 8
t10 9.5l7.5 7.5q10 10 26 6zM270 278q2 2 1 -2q-2 -4 -9 -22q-42 -101 -42 -141q0 -35 10 -43q13 -11 54 -11q17 0 32 5q5 1 18.5 -2.5t18.5 -0.5q3 1 16 11t28 14q9 2 28 14t22 14q22 12 70 49q21 16 40.5 38.5t25.5 34.5q8 16 2.5 31t-12.5 24t-11 11q-5 2 -14 4t-14 3
q-16 4 -25 6q-3 1 -9 5t-10 5q-5 1 -15 -1.5t-14 -2.5q-21 0 -43 -6q-5 -2 -13 -3.5t-10 -2.5q-3 -4 -22 -1.5t-24 2.5q-4 0 -16 -6t-16 -6q-35 -4 -47 -20z" />
    <glyph glyph-name="uni042B" unicode="&#x42b;" horiz-adv-x="781" 
d="M294 590l-16 -58q-5 -14 -9.5 -33.5t-7.5 -27.5q-5 -16 -12.5 -33.5t-11 -27t-3.5 -16.5q0 -8 4.5 -9t14.5 4t22.5 11t32 11t38.5 5q4 0 57 11q24 6 45 5q39 -2 51 -11q5 -3 35 -16t42 -34q9 -16 15 -73q1 -9 -2 -19t-8 -21t-7 -17q-6 -21 -17 -42.5t-20 -33t-20.5 -25
t-12.5 -15.5q-9 -11 -55 -46.5t-60 -42.5q-116 -56 -158 -50q-14 2 -29 2.5t-24 2t-20 6.5q-13 7 -34 7t-35 -0.5t-25 12.5t-11 44q0 9 8.5 33.5t8.5 35.5q0 14 12 37.5t13 28.5q4 16 5.5 28t0.5 24l-1 12q-1 15 13 49t17 48q10 42 27 97q4 12 3.5 25.5t2.5 21.5q3 10 12 32
t12 34q9 36 23.5 57.5t29 27.5t28.5 6t23 -4t10 -6q2 -3 3 -8t0 -11t-2.5 -11t-4 -14t-3.5 -13zM344 333q-3 -1 -16.5 -5t-21.5 -7q-5 -2 -16 -3.5t-16 -3.5q-23 -9 -29 -15q-4 -3 -16 -9l-14 -7q-1 -4 -8 -30t-10 -42q-1 -8 -13.5 -40t-17.5 -57q-1 -4 -1 -12q0 -5 3.5 -10
t7 -7.5t10.5 -6.5l7 -4q8 -4 19.5 -6t19 -1t13.5 0q21 -2 65.5 13.5t72.5 31.5q5 3 16.5 16t15.5 16q7 6 18 13.5t18 14.5t14 18q26 46 26 66q0 6 -1 15t-1 10t4 11t2 13q-7 14 -24.5 24t-30.5 10l-8 -1q-7 0 -21 -1t-28 -1q-1 0 -18 0.5t-21 -3.5zM647 -7
q-27 -7 -44.5 10.5t-0.5 48.5q2 3 14 36t13 36q15 27 15 57q0 15 16 47q3 6 9.5 42t7.5 39q4 16 13.5 44t12.5 38q46 156 51 236q1 17 19 40.5t31 27.5q12 4 34.5 2.5t25.5 -5.5q2 -2 6.5 -7t6.5 -7.5t3.5 -9t-3.5 -11.5q-2 -3 -3.5 -8t-3.5 -14t-5 -17q-2 -6 -6 -24.5
t-7 -26.5q-2 -6 -8 -22t-8 -22q-5 -18 -9 -36.5t-5.5 -31t-2.5 -14.5q-19 -83 -62 -231q-23 -81 -27 -97q-1 -4 -4 -12.5t-8 -25.5q-1 -5 -4 -15t-4.5 -14.5t-5 -13t-7.5 -12.5t-11 -10t-16.5 -10t-22.5 -7z" />
    <glyph glyph-name="uni042C" unicode="&#x42c;" horiz-adv-x="567" 
d="M318 665l-31 -110q-11 -37 -18 -64l-5 -20l-5 -20q-17 -44 -12.5 -53.5t24.5 -4.5q13 4 37.5 16t42.5 16l7.5 2.5l7.5 2.5q5 1 17 -1.5t16 -2.5q4 1 13.5 6.5t13.5 6.5q38 4 55 3q4 0 12 0.5t11 0t8.5 -1.5t10 -4t10.5 -8q3 -2 18.5 -2.5t18.5 -1.5q5 -2 9.5 -10.5
t7.5 -10.5q22 -17 29 -36.5t10 -61.5q4 -56 -43 -118q-3 -4 -40 -34q-6 -4 -14 -15t-13 -14q-13 -8 -51 -39t-61 -42q-35 -18 -148 -44q-11 -2 -26.5 0.5t-27.5 -0.5q-19 -5 -26 -3q-5 2 -10.5 9t-7.5 8q-5 4 -33.5 4.5t-33.5 6.5q-3 4 -12.5 11.5t-15.5 16t-6 21.5
q0 9 11 30t11 33q0 15 7.5 51t14.5 54q0 1 6.5 12.5t9 19.5t2.5 17q0 3 -1.5 11t-1.5 16.5t4 16.5q17 36 17 37q2 5 3 19.5t4 22.5q23 58 42 158q2 10 6 38t6 38q2 7 9 14.5t16.5 16t12.5 11.5q12 14 45 18q30 4 38 -8.5t-1 -34.5zM360 335q-3 -1 -17 -6t-17 -6
q-9 -3 -35.5 -8.5t-41.5 -12.5q-3 -1 -9.5 -6.5t-9.5 -7.5q-13 -7 -28 -30q-4 -6 -11 -42q-2 -9 -9 -35.5t-8 -37t1 -32.5q2 -6 7 -13q10 -12 18 -15.5t29 0.5q2 1 15.5 -1.5t14.5 -2.5q9 3 21.5 6t21.5 5.5t18 5.5q10 4 23 4.5t20 2.5q17 6 35 25.5t23 22.5q2 2 14 5.5
t16 6.5q1 1 13 15t14 16q32 25 46 56q6 17 2.5 33.5t-9.5 22.5q-1 1 -4.5 8t-6.5 8q-5 2 -11 10t-11 9q-1 0 -9 -1t-9 1q-13 5 -50.5 2t-55.5 -8z" />
    <glyph glyph-name="uni042D" unicode="&#x42d;" 
d="M342 673q39 11 73 -2q22 -8 39 -13q3 -1 7.5 -2t8.5 -2l8 -2q20 -5 38 -13q15 -6 32 -24t25 -35q5 -9 18 -58q5 -20 4.5 -50.5t-3.5 -51.5q-2 -8 -5.5 -31.5t-5.5 -32.5q-1 -5 -18 -56q-26 -79 -36 -96q-2 -4 -5.5 -17.5t-7.5 -19.5q-25 -39 -58 -67q-6 -5 -19.5 -22.5
t-21.5 -23.5q-4 -3 -13.5 -5.5t-13.5 -4.5q-3 -2 -10 -8.5t-10 -8.5q-11 -7 -41.5 -9t-41.5 -8q-31 -18 -46 -21q-8 -2 -28 0t-31 -1q-10 -3 -37 -3q-26 2 -42.5 11t-25.5 11q-84 20 -53 75q10 20 29 23t42 -2q15 -3 28 -13.5t36 -10.5q17 0 50 -5q43 -6 118 31
q12 6 25.5 15t25.5 18l12 9q10 7 40 58q34 57 34 92q0 11 -5 12q-3 3 -28.5 0.5t-31.5 -2.5q-5 0 -20 -5.5t-22 -5.5h-35q-8 0 -17 -1.5t-13 -1.5q-5 0 -38 -13q-3 -1 -9 0.5t-13 3.5t-9 2q-3 1 -9.5 8.5t-8.5 8.5q-10 6 2.5 30.5t27.5 30.5q27 11 54 11l33 3q34 6 43 5
q10 -1 27 1.5t26 2.5l63 7q13 1 16 14.5t3 50.5v12q0 18 -16 46q-15 26 -22 31q-2 1 -11 9t-18 14q-2 1 -7.5 4.5t-7.5 4.5t-8 3.5t-9 1.5t-11 -1q-12 -3 -33.5 1.5t-35.5 -0.5q-10 -3 -35 -14t-35 -14q-25 -7 -45 -21t-31 -18q-28 -11 -38 19t9 53q9 11 23 13q5 1 13 9.5
t10 9.5q26 15 68 29q4 1 12.5 1t11.5 2q50 17 60 19z" />
    <glyph glyph-name="uni042E" unicode="&#x42e;" horiz-adv-x="772" 
d="M634 690q15 7 38 1q27 -5 28 -6q6 -4 30.5 -10t31.5 -14q1 -2 6.5 -7.5t7.5 -8.5q1 -2 5.5 -6t6.5 -7q4 -6 7 -17t5 -16t11 -17t11 -20q2 -6 -1 -17t0 -18q6 -27 2.5 -66t-10.5 -70q-11 -50 -19 -67q-2 -5 -17 -63q-1 -3 -5.5 -21t-6 -21.5t-6 -18t-7.5 -20l-9 -16.5
t-12.5 -19t-15.5 -17q-15 -15 -26 -31t-22.5 -26.5t-40.5 -27.5q-3 -2 -22.5 -13.5t-29.5 -16.5q-8 -5 -22.5 -7t-19.5 -4q-36 -13 -86.5 -3t-68.5 33q-2 3 -8.5 7t-8.5 7t-9.5 9t-9.5 10q-4 8 -3.5 13.5t-2.5 12.5q-6 10 -12 18q-5 8 -7.5 30t-4.5 29q-3 8 -3 129q0 1 -2 7
q-25 0 -31 -2q-8 -2 -20 -4t-17.5 -3.5t-12.5 -6t-14 -12.5q-13 -16 -23 -65t-11 -79q-1 -22 -23 -69q-3 -9 -3 -13t2 -9.5t2 -8.5q1 -22 -25 -41.5t-46 -21.5q-1 2 -6 5t-7 6q0 4 -5 11t-5 10q0 4 -4.5 12t-4.5 12q2 7 6 22.5t5 22.5q0 30 13 94t26 95q6 14 10.5 41.5
t9.5 39.5q6 23 14 69q0 1 4.5 8t5.5 9l16 64q0 1 -0.5 14.5t2.5 16.5q3 7 12 19.5t11 16.5q8 14 5.5 34.5t7.5 32.5q1 1 6 5.5t7 6.5q1 1 7 11t11 12q4 3 21 2.5t19 -5.5q1 -2 7 -11t8.5 -15.5t2.5 -13.5q-5 -44 -24 -103q-24 -74 -24 -97q0 -9 2 -14t7.5 -6t10 -0.5t14 2
t16.5 1.5q21 0 51 4q20 27 22 32q3 7 8 24.5t15 30.5q6 8 6.5 15t7.5 15q8 9 21.5 28t23.5 29.5t27 24.5q42 32 58 39q6 3 21.5 15.5t21.5 15.5q10 4 30.5 8.5t29.5 9.5zM642 603q-1 0 -21 -4t-21 -5q-6 -4 -24.5 -17t-24.5 -16q-8 -5 -25.5 -30t-21.5 -29t-8 -11.5
t-7 -10.5q-8 -8 -13 -26t-7 -22q-3 -7 -16 -24t-15 -22t-6.5 -14.5t-5.5 -12.5q-4 -10 -12 -40.5t-13 -42.5q-9 -27 -0.5 -69t23.5 -71q18 -33 29 -36q4 -1 21 -9t26 -9.5t24 0.5q4 2 22.5 10.5t27.5 11.5q9 4 18 17.5t16 16.5q10 6 26 27t20 25q12 12 17 23.5t9 28t9 28.5
q3 7 10 38.5t7 33.5q1 5 4 40q1 13 12 43.5t11 57.5t-5 36q-2 4 -4.5 11.5t-4.5 11.5q-3 5 -6 12t-5.5 12.5t-6.5 9.5q-14 14 -33 19q-4 1 -12 5.5t-14 2.5z" />
    <glyph glyph-name="uni042F" unicode="&#x42f;" horiz-adv-x="590" 
d="M180 523q4 7 11.5 15t13.5 14.5t18.5 16.5t19.5 15.5t24 18.5t25 19q7 5 21 10.5t20 9.5q5 3 14 12t14 12q63 32 119 31q28 -1 61 5.5t59.5 6.5t57.5 -15q19 -9 19.5 -39.5t-10.5 -64t-21 -75.5t-8 -66q0 -2 -5.5 -15t-5.5 -20q0 -6 -25 -100q-40 -148 -36 -149q1 0 6 11
q-2 -5 -5.5 -44.5t-8.5 -63.5q-11 -34 -35 -46q-13 -8 -32.5 -4t-25.5 20q-11 15 -2 46.5t7 50.5q0 4 9.5 38t17 67t3.5 36q-5 4 -12 4t-16 -3t-17.5 -6.5t-19 -10.5t-17 -11.5t-16 -11.5t-11.5 -8q-5 -3 -14 -13.5t-14 -14.5q-4 -3 -11 -5t-11 -4q-7 -5 -27 -24.5
t-32 -26.5q-3 -2 -10.5 -4.5t-10.5 -4.5q-7 -4 -35 -35t-37 -36q-3 -2 -11.5 -7.5t-16 -9.5t-11.5 -4l-7 -6q-7 -5 -15 -11.5t-11 -8.5q-12 -7 -25 -20.5t-19.5 -20.5t-20 -11t-26.5 7q-39 24 28 96q9 10 35.5 22.5t56.5 52.5q6 8 24 22t21 17q4 3 8 10t5 8q15 12 59.5 39
t65.5 49q9 9 -3 9q-5 0 -24 -4q-45 -9 -57 -3q-3 2 -37.5 11t-43.5 15q-5 2 -16.5 25t-11.5 40v12.5v12.5t0.5 11.5t1.5 13l3 13.5t5.5 16.5t8 18t11 22.5t14.5 25zM461 600q-72 3 -138 -53q-3 -3 -14 -10t-16 -12q-27 -29 -34 -40q-11 -15 -16 -28.5t-5.5 -22.5t4 -18
t7.5 -13t10 -10.5t8 -7.5q4 -4 8.5 -6t16 -5.5t18.5 -5.5q5 -2 21 -2t21 -1q25 -5 33 -5q33 -1 59 13q19 11 42 19t32 14.5t12 21.5t14 52l28 124q-4 13 -19 15t-31.5 -3t-35 -10.5t-25.5 -5.5z" />
    <glyph glyph-name="uni0430" unicode="&#x430;" horiz-adv-x="557" 
d="M443 665q9 3 43 -2q4 -1 8 -8t5 -8q4 -3 12 -4t12 -3q14 -6 27.5 -21t16.5 -28q1 -5 -0.5 -16t-0.5 -17q0 -3 5.5 -9t5.5 -9q1 -7 -0.5 -21.5t-1.5 -20.5q0 -4 6 -11.5t6 -16.5v-11q0 -7 1.5 -24.5t1.5 -26.5q0 -30 -12 -66q-2 -4 -2 -14q0 -42 -5 -58q-13 -31 -13 -70
q0 -10 1 -35t1 -33v-10q0 -52 -22 -88q-12 -20 -30 -30q-10 -5 -25.5 1.5t-19.5 14.5q-5 2 -1 32t4 38q0 12 5.5 51t3.5 63.5t-16 28.5q-26 8 -82 4q-45 -4 -109 -18q-11 -3 -31 -4t-33 -4.5t-22 -14.5q-5 -7 -12 -27l-8 -20q-1 -3 -2.5 -9.5t-3.5 -9.5q-2 -4 -12 -16
t-12 -19q-8 -25 -17 -51q-24 -67 -57 -81q-13 -4 -15 -3q-2 2 -9.5 7t-11.5 9.5t-5 11.5q-1 4 5.5 27t10.5 32q4 8 11 22.5t11 25t8 25.5q2 7 15.5 28.5t15.5 27.5q2 4 -5 11t-6 11q20 57 31 67q3 3 14 8t14 9q6 8 10 25t6 21q1 3 6.5 6.5t6.5 5.5q10 17 27 50t21 41
q3 4 12.5 11t13.5 12q8 11 13 19t11 18t13 21q2 3 7 6t6 5q2 3 10.5 18t13.5 22q2 3 7.5 6.5t7.5 5.5t23.5 30t35.5 37q22 15 50 23zM425 576q-2 -1 -7.5 -4t-9.5 -5q-8 -6 -63 -81q-7 -9 -40 -67q-3 -5 -14.5 -23t-17.5 -29t-10.5 -26.5t-1.5 -26.5q1 -6 12.5 -7.5
t21.5 2.5q9 3 25 2.5t28 2.5q15 4 45.5 6.5t43.5 5.5t22.5 0.5t19 1t18.5 16.5q5 9 7 35t0 35q-7 47 -6 77q0 5 0.5 14t0.5 14q0 12 -8.5 34t-17.5 25q-17 6 -48 -2z" />
    <glyph glyph-name="uni0431" unicode="&#x431;" horiz-adv-x="565" 
d="M614 706q10 2 26 -5q5 -2 6 -12t2 -13q2 -2 0 -12t-2 -12q-8 -26 -28.5 -40.5t-39 -13t-32.5 8.5q-6 4 -20.5 5t-26.5 -4q-14 -11 -69 -4t-69 4q-9 -2 -19 -6.5t-21 -7.5q-29 -9 -41 -32q-12 -22 -24 -72q-1 -5 -1.5 -14t-2.5 -14q-2 -6 -6.5 -17t-6.5 -16.5t-3 -15
t4 -12.5q8 -10 16 -10.5t14 4.5t15.5 11.5t16.5 8.5q117 27 158 26h18.5t18 -0.5t17.5 -3.5t16 -9q2 -2 5.5 -8.5t6.5 -7.5q3 -2 11.5 -4.5t12.5 -5.5q22 -16 29 -36t9 -61q3 -51 -35 -104t-77 -77q-18 -11 -50 -40.5t-53 -40.5q-7 -3 -18 -4t-16 -3q-7 -2 -21 -12t-22 -12
t-23.5 -2.5t-21.5 -1.5q-3 -1 -13.5 -5t-13.5 -5q-10 -2 -25.5 0.5t-27.5 -0.5q-19 -5 -27 -2q-4 2 -9 8.5t-8 7.5q-5 3 -28.5 7t-27.5 11q-3 4 -9.5 10t-10 13t-3.5 20q0 9 3.5 30t3.5 33q0 13 10 48.5t19 56.5q2 4 7 13.5t8.5 18t3.5 16.5q0 2 -1 11.5t-0.5 17.5t4.5 16
q3 6 11.5 18t11.5 19q2 4 3 19t4 23q25 63 45 158q1 6 4 26.5t6 31.5q11 32 20 42q11 13 45 19q7 1 21.5 -4.5t23.5 -2.5q44 14 46 14q23 7 57 -3q10 -3 49 7q17 4 51 1.5t51 1.5q7 2 22.5 1t20.5 1zM395 344q-10 -3 -21.5 -2t-22.5 -2q-3 -1 -11 -6t-12 -6q-12 -3 -43 -8.5
t-46 -12.5q-3 -2 -9.5 -7.5t-8.5 -6.5q-8 -4 -29 -36q-10 -13 -14 -20t-11 -37t-7 -71q0 -16 1 -19q4 -15 22.5 -25.5t41.5 -2.5q3 1 27 7q12 4 28 0.5t26 -0.5q8 3 70 40q5 4 10 9t10.5 12t8.5 11q3 3 9.5 6.5t9.5 5.5q2 2 6 7t6 7q7 5 23.5 14.5t27.5 19t17 22.5
q6 17 1.5 36.5t-10.5 25.5q-2 2 -4.5 11.5t-5.5 10.5q-5 2 -14.5 3.5t-14.5 3.5q-3 1 -5.5 5.5t-4.5 5.5q-15 11 -51 -1z" />
    <glyph glyph-name="uni0432" unicode="&#x432;" horiz-adv-x="552" 
d="M351 673q80 3 168 -2q5 -1 11.5 -8.5t10.5 -8.5q3 0 12 0.5t12 -0.5q11 -2 23 -13t15 -13q3 -1 10.5 -3t10.5 -4q13 -9 15.5 -48t-9.5 -66q-7 -14 -23.5 -36t-26.5 -27q-3 -2 -7.5 -3t-6.5 -2q-8 -4 -21 -18t-19 -18q-2 -1 -11.5 -6.5t-16.5 -9.5t-15.5 -10t-14.5 -11.5
t-8 -10.5q-3 -6 8.5 -14.5t26.5 -17t17 -12.5q2 -3 9.5 -11t11.5 -15t4 -15q0 -4 -1.5 -11t-1.5 -10q1 -3 4 -9.5t3 -9.5q0 -6 -2 -12t-6 -13t-5 -8q-5 -10 -3.5 -25t-2.5 -25q-1 -3 -6.5 -10t-6.5 -9q-3 -7 -6.5 -20t-5.5 -20q-2 -6 -12 -11.5t-12 -7.5q-1 -1 -5 -7t-7 -7
q-7 -3 -18.5 -5.5t-16.5 -4.5q-4 -1 -12 -8t-12 -8q-9 -4 -26.5 -4t-26.5 -3q-6 -2 -22.5 -11.5t-27.5 -10.5q-12 -1 -33 1t-32 2q-6 -1 -17 -9.5t-15 -9.5q-13 -4 -63.5 -2t-57.5 7q-4 2 -6.5 7t-4.5 7q-3 2 -4 5.5t-1 10v14t0.5 23t0.5 31.5q0 27 6 41q13 29 14 36v14
t1 20.5t5 17.5q7 16 13 37t9.5 35.5t8.5 40.5t8 39q12 58 12 59q3 10 14 32t15 32q2 5 3.5 15.5t2.5 15.5q2 7 10.5 23t10.5 22q2 4 3 13t2 13q2 5 10.5 14t10.5 12q2 4 4.5 8.5t3.5 7t4 5.5t8 5q26 13 51 13l5 -2q5 -3 9 -2q3 1 12.5 8.5t12.5 8.5q6 2 16 2zM353 583
q-24 -3 -31 -5q-2 -1 -19 -4q-25 -7 -41 -17q-5 -3 -7 -8t-4 -13.5t-3 -11.5q-1 -4 -6 -12.5t-5 -11.5q-2 -10 -7.5 -29t-7.5 -27q0 -2 0.5 -12.5t-1.5 -13.5q-2 -7 -7 -18.5t-8 -18.5t-5 -16.5t-1 -17.5q0 -3 1.5 -4.5t4.5 -3l5 -2.5q5 -3 33.5 3.5t35.5 10.5
q8 5 24.5 16.5t24.5 16.5q11 7 33.5 15.5t33.5 15.5q3 2 9 9.5t10 9.5l26 13t36 19.5t22 17.5q60 67 25 87q-17 10 -77.5 13.5t-93.5 -1.5zM363 289q-9 2 -27 -5t-21 -8q-5 -1 -20.5 -7.5t-21.5 -7.5q-23 -5 -55 -20.5t-44 -29.5q-7 -9 -11.5 -29.5t-8.5 -29.5
q-2 -5 -6.5 -13.5t-6.5 -13t-4.5 -13t0.5 -12.5q6 -21 42 -31q9 -3 19.5 -3t22 2t19 3.5t19.5 5t15 4.5q9 2 26 1.5t22 3.5q8 3 24.5 12t22.5 11q3 1 10.5 4t10.5 4t8.5 3.5t8.5 4.5t7.5 5.5t8 7.5t6.5 9q14 21 9 54q-4 32 -13 44.5t-35 26.5q-1 1 -9.5 8t-17.5 9z" />
    <glyph glyph-name="uni0433" unicode="&#x433;" horiz-adv-x="381" 
d="M453 691q30 1 53.5 0.5t38 -10t16.5 -28.5q8 -15 -0.5 -28t-23.5 -18q-15 -14 -29 -6t-22 7q-37 -7 -45 -5q-14 5 -44 -3q-10 -3 -28 -7t-26 -6q-6 -2 -26.5 2t-25.5 0q-17 -5 -22.5 -25t-5.5 -49t-5 -42q-2 -7 -7.5 -19.5t-8 -22t-2.5 -21.5q-24 -56 -20 -85t-18 -83
q20 -37 -26 -145q-27 -63 -27 -82q0 -11 -14 -20t-26 -12q-1 -1 -10 -3q-2 3 -14.5 8.5t-14.5 8.5q-5 13 -6 33q0 3 6 27t7 30q0 2 7.5 36.5t8.5 37.5l8 13q8 14 9 22q5 106 24 153q5 13 5 35.5t6 34.5q2 6 9 18t10 17q3 12 3.5 16.5t-2 13.5t-2.5 12q0 6 2 12.5t6 13.5t5 9
q4 9 4 28q0 37 14 69.5t25 39.5q10 10 35.5 2t35.5 -6q34 8 82 20q11 3 42.5 1.5t38.5 5.5z" />
    <glyph glyph-name="uni0434" unicode="&#x434;" horiz-adv-x="591" 
d="M53 59q4 6 14.5 16.5t14.5 16.5q3 5 12.5 18t12.5 18q5 10 11 26.5t11 26.5q1 2 11.5 15.5t15.5 28.5q7 21 25.5 57.5t25.5 54.5q6 13 26.5 40.5t26.5 40.5q1 3 19.5 28t19.5 28q15 31 27.5 50t25.5 42q1 2 10.5 24t13.5 26q11 12 23 38.5t27 38t47 7.5q23 -4 26 -51
t-2 -61q0 -7 -2 -34.5t-1 -36.5q3 -58 9 -90q2 -9 3.5 -25.5t2.5 -20.5q2 -10 -0.5 -28.5t-2.5 -27.5q2 -50 2 -81q0 -14 -5 -33.5t-5 -28.5q0 -26 10 -60q1 -2 3.5 -5.5t3.5 -5.5l8 1q4 1 35.5 -1.5t42.5 -6.5q14 -5 14 -28q0 -10 -9.5 -29.5t-9.5 -30.5v-17
q-5 -48 -14.5 -75.5t-17.5 -32.5q-6 -4 -14.5 -6t-18.5 -2t-18 6.5t-10 20.5q-8 23 1 47q7 19 9.5 37t-2.5 19q-12 1 -18.5 2.5t-8 3t-6 2t-14.5 -1.5t-30 -7q-3 -1 -39.5 -1.5t-39.5 -1.5q-55 -17 -80 -18q-20 -3 -77 4q-3 1 -37 -5.5t-37 -6.5q-22 -1 -32 -3t-11.5 -4
t-10 -6t-26.5 -8q-5 -1 -10.5 -20t-5.5 -36q0 -20 -18 -49q-9 -15 -18.5 -19t-14.5 -1t-12.5 9.5t-8.5 7.5q-8 4 -8 30q0 50 6 60q9 16 8 33.5t0 27.5q10 29 28 36q29 11 63 18zM411 94q1 1 0.5 13.5t-0.5 13.5v20q0 11 2 52.5t2 90.5v60l1 13q1 13 2 41.5t1 65.5
q0 25 -2 35q-1 3 -1.5 9.5t-2.5 9t-7 2.5q-8 0 -19.5 -19.5t-24 -48.5t-14.5 -34t-11.5 -14t-11.5 -14q-6 -15 -18.5 -33.5t-16.5 -26.5q-5 -8 -11 -25t-10 -24q-6 -11 -23 -38t-24 -39q-6 -11 -13.5 -32t-12.5 -31q-14 -27 -36 -64q2 -4 22.5 -2.5t51.5 0.5q42 -1 116 12
q33 7 43 5.5t18 1.5z" />
    <glyph glyph-name="uni0435" unicode="&#x435;" horiz-adv-x="538" 
d="M487 645q70 5 126 -25q23 -13 9 -39q-23 -42 -57 -35q-44 11 -59 7q-20 -6 -30 -6q-8 0 -43.5 6t-56.5 1q-11 -3 -29.5 -8.5t-25.5 -7.5q-10 -2 -21 -2t-16.5 -3t-12.5 -14q-3 -5 -7.5 -27.5t-5.5 -26.5q-3 -8 -9.5 -24.5t-9.5 -26t-6 -23.5t-3 -26q0 -8 3 -12t9.5 -4
t12.5 1.5t17 4.5t19 4t25.5 4t25.5 4q101 20 136 14q5 -1 16.5 1t17.5 2q56 -9 61 -38q6 -35 -9 -58q-8 -12 -45 -23q-10 -3 -22 4t-13 7q-5 2 -26 4t-24 1q-14 -4 -20 -2q-16 4 -24 2q-6 -1 -26 -1.5t-32 -3.5q-7 -2 -22 -7t-20 -6q-32 -8 -43 -14q-37 -22 -42 -35
q-26 -62 -26 -123q0 -2 2.5 -3t4.5 -3q11 -5 21.5 -2.5t29 10.5t24.5 9t21.5 -0.5t21.5 0.5q21 4 52 7t69 3t50 -8q7 -5 17 -15t11 -17q1 -20 -10.5 -42.5t-26.5 -30.5q-13 -7 -47 7.5t-49 11.5q-7 -2 -32 0t-38 -2q-5 -2 -16.5 -8.5t-16.5 -8.5q-13 -4 -36 -4t-35 -3
q-19 -5 -62.5 -16t-55.5 -14q-18 -5 -32.5 15t-15.5 39v4q4 11 20.5 21t20.5 17q10 17 17 32q6 13 7 62l1 5v5q0 56 11 84q1 2 4.5 15t6.5 20q2 4 8.5 13.5t8.5 14.5q5 13 7 37t5 33q4 10 8 33.5t7 33.5q1 3 10.5 30t11.5 33q3 9 2.5 13.5t-3.5 10.5t-3 8q-4 33 12 49
q13 13 55 33q8 3 22.5 4.5t18.5 2.5q8 2 25 -3t29 -2q4 1 16.5 8t19.5 8q5 1 16 -4l12 -5q1 0 81 13z" />
    <glyph glyph-name="uni0436" unicode="&#x436;" horiz-adv-x="769" 
d="M520 696q28 7 39.5 -14.5t3.5 -47.5q-19 -48 -19 -69v-16q0 -18 -13 -55q-11 -25 -14 -57t7 -39q12 -5 34 11t24 17q8 3 21.5 19.5t18.5 19.5q8 6 23 23t24 23q14 10 48 35t42 31q10 7 23.5 24.5t24 31.5t25 28t26.5 14.5t28 -9.5q10 -8 7 -29t-17 -37q-5 -6 -27 -38.5
t-33 -41.5q-3 -2 -10.5 -5.5t-10.5 -6.5q-7 -5 -29 -26.5t-32 -28.5q-9 -6 -32.5 -25.5t-26.5 -21.5q-11 -8 -29.5 -18.5t-29.5 -19t-14 -18.5q-5 -21 13 -46t19 -28q5 -17 10.5 -24t19 -15t22.5 -16q3 -2 5 -9.5t4 -9.5q17 -19 50 -85q1 -3 12 -20t16.5 -33.5t0.5 -28.5
q-14 -30 -34 -35q-16 -4 -29.5 8t-26.5 32t-19 25q-8 7 -12 12.5t-8 13.5t-9 15q-2 3 -6.5 12t-7.5 12l-22 22q-33 45 -48 56q-9 7 -22 42.5t-30 38.5q-4 2 -8 -5q-11 -25 -22 -136q-9 -81 -11 -91q-7 -29 -14 -46t-21.5 -24.5t-19.5 -8.5t-29 -4q-18 -2 -29.5 16.5
t-4.5 41.5q3 10 9.5 25t11 26t4.5 15q0 3 -0.5 9.5t-0.5 8.5q0 24 14 56q11 27 13.5 63t-10.5 45q-5 2 -69 -38q-8 -6 -42 -43.5t-42 -42.5q-13 -9 -33.5 -27.5t-32.5 -27.5q-10 -7 -26.5 -27.5t-30.5 -39t-32.5 -36.5t-33 -21.5t-30.5 6.5q-10 8 -6.5 32t17.5 40q3 4 24 29
t39.5 46t26.5 27q4 3 14 6.5t14 6.5q7 6 21 25t23 25q16 11 41 46.5t49 45.5q11 4 21.5 16.5t14.5 24.5q8 20 -12.5 34.5t-22.5 21.5q-1 3 -2.5 2.5t-3.5 2.5q-2 5 -18 22t-23 23q-3 2 -10 10t-8 9q-9 10 -13.5 17t-6 12t-5.5 15t-9 21q-1 1 -13.5 19.5t-18 34.5t-0.5 28
q5 11 16.5 22t19.5 13q16 4 30 -8t26.5 -32t18.5 -25q9 -8 9 -17.5t6 -17.5q2 -3 5.5 -11.5t6.5 -11.5q2 -2 11 -10t13 -13q2 -3 10.5 -21t16.5 -23q3 -2 10 -6t10 -6q8 -5 26 -32.5t34 -30.5q7 -2 9 5q11 23 17 118q1 6 6.5 21.5t6.5 24.5q1 11 12 45q3 9 8 27t7.5 23.5
t8 15t13.5 14t20 7.5z" />
    <glyph glyph-name="uni0437" unicode="&#x437;" horiz-adv-x="557" 
d="M320 707q26 4 42 5t36.5 1t40.5 1q6 1 27 -4.5t23 -5.5q4 0 11 -0.5t11 -1.5q11 -1 23.5 -10t18.5 -11q4 -1 11 -8.5t10 -8.5q15 -7 17 -37q-8 -5 -8 -30q0 -4 2.5 -10t1.5 -11q-4 -16 -38 -73q-3 -5 -9 -9.5t-14.5 -10t-13.5 -8.5q-5 -4 -13.5 -14.5t-13.5 -14.5
q-10 -7 -25 -13l-25 -10t-13 -10q-2 -5 5 -8t29.5 -6t34.5 -5q28 -6 50.5 -24t24.5 -32q1 -8 7 -18t7 -17q4 -28 -2 -41q-3 -10 -3 -26t-4 -26q-1 -3 -5.5 -10t-5.5 -10q-4 -14 -21 -43.5t-30 -38.5q-103 -65 -138 -84q-10 -5 -21.5 -8.5t-18.5 -5t-23 -3.5t-22 -3
q-10 -1 -55 -10.5t-64 -9.5q-3 0 -13.5 7.5t-20.5 9.5t-29.5 1t-20.5 0q-14 6 -29 17t-15 20q-1 43 26 56.5t57 -5.5q13 -7 43 -13t45 -1q5 2 25 0.5t35 0.5q9 2 18.5 6t18.5 9.5t10 6.5q3 1 28.5 8t48.5 17t32 24q5 7 16.5 15t15.5 13t8.5 18t6.5 18q12 21 2 61
q-4 16 -7 22q-5 9 -32 25q-9 5 -34.5 12.5t-38.5 6.5q-14 0 -24.5 -3t-21.5 -8.5t-14 -6.5q-63 -25 -80 12q-16 35 5 66q5 8 27 11.5t25 4.5q11 5 28 7.5t28 11.5q4 3 35.5 20.5t34.5 19.5q32 20 57 53q9 11 15.5 25.5t8 33.5t-9.5 33q-16 19 -47 22q-12 1 -31 -0.5
t-29 -1.5q-31 0 -42 -2q-4 0 -9.5 -2.5t-12 -6t-8.5 -4.5q-5 -2 -33.5 -21t-30.5 -20q-17 -7 -20 -27t-13 -28q-22 -19 -46.5 -13.5t-15.5 36.5q1 3 4 15.5t5 17.5q18 36 29 42q13 8 30 22t40 25q1 1 19 9.5t35 16.5t19 8z" />
    <glyph glyph-name="uni0438" unicode="&#x438;" horiz-adv-x="594" 
d="M253 658q6 -1 9.5 -2.5t6.5 -2.5t4.5 -4t3 -4.5t2 -6.5t0.5 -8t0.5 -11.5t0.5 -13.5q1 -20 -7.5 -59.5t-17.5 -62.5q1 -5 -6 -32.5t-7 -34.5l4 16q-18 -41 -41 -131q-10 -41 -10 -58q1 -35 2 -37q1 -3 12 8t23 26l12 14q22 19 59 59q3 3 8.5 11.5t8.5 11.5q7 8 18.5 16.5
t19.5 17.5q24 29 38 52q3 5 13 18.5t13 18.5q2 4 13.5 12.5t13.5 10.5q3 5 9 14.5t10 13.5q35 42 53 72q2 4 13.5 18t14.5 21q28 54 58 73q21 13 46 -1q15 -9 16 -39t-10 -63q-1 -4 -5.5 -15t-7 -20t-2.5 -15q0 -2 1 -9.5t1 -10.5q0 -13 -9 -43.5t-9 -44.5q0 -3 1 -19.5
t0 -28.5t-6 -23q-27 -63 -25 -89q2 -16 -10 -41q-2 -6 -3.5 -20t-4.5 -21q-1 -4 -4 -36q-6 -60 -25 -95q-26 -47 -50 -44q-35 3 -40 30q-1 2 -1 22q0 78 28 150q1 4 8 15.5t8 15.5q3 11 3 30t4 30q17 51 17 121q0 20 -4 20q-4 -3 -15 -16t-24 -30t-18 -23q-8 -9 -23 -25.5
t-23 -25.5q-2 -2 -12 -15t-16 -19q-8 -8 -26.5 -27t-24.5 -25q-11 -10 -32 -37t-32 -37q-14 -12 -59 -65q-12 -15 -29 -26q-17 -12 -24.5 -29t-9.5 -19q-5 -7 -11.5 -13t-11.5 -11q-25 -26 -47 -31t-35 15q-5 7 7.5 70t21.5 83t18 68t9 71q0 13 5.5 30.5t14 38t10.5 26.5
q3 10 6.5 28.5t4.5 22.5q3 12 18 60q2 6 2 16q0 26 13 65q2 6 2.5 20t3.5 22q3 7 8 13.5t15 15.5t12 11q3 3 15 5t16 1z" />
    <glyph glyph-name="uni0439" unicode="&#x439;" horiz-adv-x="581" 
d="M251 655q4 -2 11 -3t10 -4t3 -12q0 -3 5.5 -17.5t5.5 -20.5v-18q0 -21 -13 -62.5t-15 -53.5q-1 -6 -4 -42q2 11 0 6q-13 -34 -35 -153q-7 -37 -7 -49v-32q4 -9 16.5 3t37 44t30.5 39t55.5 59.5t75.5 92.5q16 25 50 58.5t52 62.5q3 5 11.5 13.5l9.5 9.5q7 8 16.5 28
t16.5 28q20 26 32 35q8 6 24.5 8.5t24.5 -1.5q16 -9 18 -24l-21 -104q-4 0 -4 -20q0 -19 -4 -43.5t-8 -41t-13.5 -51.5t-12.5 -48q-9 -35 -16 -82q-2 -13 -7.5 -43t-7.5 -47q-1 -7 -5.5 -20.5t-5.5 -19.5q0 -2 -2.5 -15t-3.5 -18.5t-4 -18t-6 -19t-8 -16.5t-10.5 -15
t-14 -10t-17.5 -6q-18 -3 -27 1.5t-10 15t0.5 22t4 26.5t2.5 24v6v9.5v6.5q8 61 22 112t22 105q0 1 5.5 28.5t11.5 54.5l5 27q-28 -15 -100 -123q-51 -62 -62 -73q-12 -12 -50 -54q-8 -8 -20.5 -22t-19.5 -22q-19 -20 -31 -37q-21 -31 -42.5 -54t-33.5 -40q-33 -46 -114 -46
q-7 0 -9 9q-4 35 7 59q33 68 35 106q0 4 4 48q6 54 14 91.5t14 54t7 23.5q10 98 22 128q22 46 22 67q0 3 -0.5 9.5t-0.5 11t2 12t6 15.5q3 6 5.5 12.5t4 10t4 7t7.5 5.5q5 3 17 6.5t16 0.5zM320 789q-7 15 6 30q17 21 27.5 24t23.5 -3.5t23 -6.5q10 1 19.5 -10.5t17.5 -10.5
q7 1 23 -5t24 -4q13 2 37 8.5t29 7.5q8 2 30 15t30 15q18 7 24 5q12 -3 20.5 -11.5t5.5 -20.5q-8 -29 -22 -39q-17 -11 -45 -22t-39 -11q-7 0 -20.5 -5t-20.5 -5q-10 0 -31 -4.5t-29 -4.5q-11 -1 -34 8.5t-39 8.5q-8 -1 -32 16.5t-28 24.5z" />
    <glyph glyph-name="uni043A" unicode="&#x43a;" horiz-adv-x="521" 
d="M243 700q27 1 37.5 -12t10.5 -42q0 -21 -4 -35t-9.5 -24.5t-6.5 -12.5q-2 -6 -2.5 -21t-3.5 -23q-3 -7 -14.5 -29t-18 -44.5t-6.5 -49.5q0 -13 3 -13q18 -2 45 31t38 38q3 2 16.5 12.5t17.5 12.5q10 5 28 24.5t19 20.5q7 6 32 23q5 3 12.5 11.5t10.5 11.5q33 29 64 49
q8 5 29.5 25.5t40.5 32.5t33 9q9 -1 15 -11t6 -21q0 -12 -12.5 -28.5t-31 -33.5t-20.5 -20q-33 -34 -103 -87q-4 -3 -9 -9.5t-8 -8.5q-4 -3 -19.5 -11.5t-28.5 -16.5t-16 -11q-3 -4 -6.5 -11.5t-6.5 -11.5q-7 -10 -30.5 -27t-28.5 -29q-1 -4 8.5 -15.5t17.5 -17.5
q6 -3 11 -7t10.5 -8.5t9.5 -7.5q4 -2 9.5 -12t6.5 -11q4 -4 11.5 -18t12.5 -19q7 -6 15 -23.5t13 -22.5q3 -3 11.5 -6.5t11.5 -5.5q9 -8 31.5 -47t31.5 -59q7 -15 1 -38t-19 -32q-28 -19 -52.5 3.5t-45.5 65t-28 49.5t-29.5 32.5t-32.5 34.5q-6 5 -15.5 18t-15.5 18
q-33 26 -47 43q-3 5 -7 10q-6 18 -20 13q-16 -5 -29.5 -57t-13.5 -80q0 -32 -9 -54q-9 -17 -8 -21q-2 -11 -2.5 -35t-0.5 -25q-2 -23 -22.5 -46.5t-38.5 -23.5q-10 0 -13 4t-19 9t-15 13q-3 19 2 32q1 5 2.5 20t2.5 20q1 6 10 24t9 32v10q0 32 10.5 69.5t10.5 38.5
q1 14 4.5 31t6.5 29.5t10.5 33.5t10.5 28.5l12 30t10 24.5q4 9 2.5 29t4.5 34q7 17 23 68q2 5 3.5 17t2.5 17q0 1 10 27.5t10 33.5q0 5 -5 24.5t0 26.5q2 5 19 12t18 7q3 2 9 2z" />
    <glyph glyph-name="uni043B" unicode="&#x43b;" horiz-adv-x="487" 
d="M13 -32q-48 -2 -50 21q-9 13 14 51q4 7 17 18.5t17 16.5q2 5 6.5 15t6.5 15q7 12 26 31.5t24 24.5q1 5 14 47q6 15 42 76q4 15 11 35q7 12 27 40.5t28 41.5q0 6 4 16q3 5 10.5 15.5t9.5 14.5q2 8 10.5 23.5t10.5 21.5q9 19 34 48q4 8 13 17t13 14q4 6 17 19
q10 10 25.5 40t33 40.5t50.5 2.5q0 -1 6 -10.5t7 -17.5q-10 -32 -12 -48q0 -8 8 -18.5t9 -16.5l-5 -45q1 -3 4 -16t4 -21q0 -6 -2.5 -17.5t-0.5 -17.5q1 -6 7.5 -17.5t7.5 -17.5q2 -9 3.5 -26t2.5 -21q2 -10 0 -28t-2 -27q1 -16 4 -40.5t3 -37.5q-2 -8 -5 -23t-5 -22
q1 -6 1.5 -26.5t2 -37t4.5 -24.5q4 -10 10 -33q1 -9 -8 -28q-6 -10 -23.5 -20t-19.5 -12q-33 0 -38 4q-11 5 -20 16.5t-9 23.5l3 33q0 53 -2 58q3 11 10 65q0 8 -3 15t-3 12q1 5 3.5 20t4.5 24q-1 14 -8.5 39t-8.5 38q1 4 2 11.5t2 11.5q0 7 1 24.5t0.5 28t-4.5 19.5
q-2 6 -1 16t0 21t-5 13q-8 0 -19 -17.5t-26 -47.5l-15 -31q-3 -5 -12.5 -14t-12.5 -14q-1 -3 -3.5 -11t-4.5 -12q-3 -8 -13.5 -20.5t-13.5 -17.5q-16 -32 -24 -49q-44 -69 -49 -76q-6 -10 -13 -31.5t-13 -31.5q-58 -106 -120 -156z" />
    <glyph glyph-name="uni043C" unicode="&#x43c;" horiz-adv-x="741" 
d="M350 680q8 1 24.5 -2t21.5 -7q20 -24 23 -41q5 -26 -4 -54q-3 -19 -3 -25t2 -29.5t3 -32.5q0 -4 -2 -24t1 -23q6 -12 6 -45v-30q-3 -36 -3 -52q1 -12 -1 -36t-2 -39.5t6 -18.5q10 -4 71 114q3 5 5 14.5t4 13.5q5 10 20 36t18 32l4 8t6 10q4 6 8.5 18.5t7.5 17.5
q1 2 7 6.5t7 6.5q43 74 51 95q13 32 35 61q23 29 48 30q31 2 36 -11q4 -9 4.5 -20.5t0 -27t-0.5 -23.5q1 -29 -6 -73.5t-7 -112.5v-15q-21 -103 -21 -222q0 -26 1 -32q2 -17 -1 -56t-7 -52q-4 -11 -2 -35q1 -16 -22 -42q-8 -9 -25 -11t-28 5q-5 4 -8 6.5t-4 6t-1.5 6t-1 9
t-1.5 12.5v7q0 15 4 29t4 18q0 7 -4.5 21t-4.5 20q0 4 4 29.5t4 57.5v14.5v18.5v12q-1 19 6.5 64t7.5 56q0 15 5 51t9 63.5t2 28.5q-4 2 -12.5 -12t-17.5 -34l-9 -20q-9 -17 -24.5 -51t-20.5 -43q-3 -5 -11.5 -14.5t-10.5 -14.5q-3 -8 -8.5 -26.5t-9.5 -28.5q-2 -5 -9 -12
l-9 -9q-9 -13 -16.5 -26.5t-18 -33t-15.5 -29.5q-1 -2 -5 -6t-5 -7q-3 -6 -6 -17.5t-6 -17.5q-2 -3 -7.5 -8t-7.5 -7q-4 -6 -13.5 -21.5t-15.5 -24.5t-16.5 -14.5t-20.5 -0.5q-29 13 -42 63q0 1 0.5 5t2 15t1.5 26v25q0 12 3 27t3 20q0 10 -3 28.5t-3 27.5q-1 17 2.5 49.5
t3.5 44.5q0 3 1.5 11t1.5 11q0 4 -4 12t-4 12q-1 9 2 35t3 44.5t-9 20.5q-8 2 -26 -38t-22 -59q-1 -5 -3 -14t-4 -13q-4 -10 -15 -29t-14 -29q-2 -5 -3 -16t-3 -17q-4 -10 -17 -31.5t-18 -33.5q-3 -9 -5 -19.5t-6 -22.5t-16 -34.5t-16 -31.5q-3 -7 -6 -18.5t-9 -20.5
q-19 -31 -57 -53q-18 -10 -29 5q-5 7 -7.5 15.5t-1.5 19.5t2 18.5t6 21.5t7 19t9 20.5t8 17.5q3 6 10.5 16.5t9.5 17.5q1 3 4.5 14.5t5.5 17.5q3 12 19.5 36.5t19.5 33.5l18 48q3 9 14.5 26t14.5 25q3 10 12.5 34.5t13.5 37.5q2 7 12.5 20t13.5 18q7 37 10 45q7 20 16 35
q5 9 18 36.5t25.5 46t25.5 24.5z" />
    <glyph glyph-name="uni043D" unicode="&#x43d;" horiz-adv-x="574" 
d="M617 691q14 4 28.5 -3.5t18.5 -17.5v-2q0 -3 0.5 -7.5t0.5 -9.5q0 -40 -5 -66.5t-10.5 -38t-5.5 -14.5q-1 -11 -7.5 -29.5t-8.5 -29.5q-2 -17 -9 -32q-1 -3 -4.5 -10.5t-5.5 -15t-2 -14.5q2 -33 -14 -74q-4 -10 -11.5 -24.5t-10.5 -24.5q-2 -5 -4 -34q-1 -9 -8.5 -34
t-8.5 -37q-4 -74 -12 -94q-3 -8 -14 -18t-13 -12q-3 -5 -11 -16t-10.5 -13t-9.5 -6.5t-15.5 -3t-21.5 5.5q-11 3 -13 33q0 5 2.5 12t7 15.5t5.5 11.5q6 17 16.5 67t10.5 65q0 19 8 51q3 14 -2 19q-6 5 -12.5 8t-11.5 4.5t-14.5 0t-13.5 -2t-17.5 -4t-17.5 -4.5
q-10 -2 -28 0.5t-30 -0.5q-35 -9 -52 -5q-15 4 -46.5 -7.5t-37.5 -19.5q-8 -11 -13 -49.5t-9 -48.5q-8 -20 -19 -54q-2 -5 -3 -14.5t-2 -13.5q-3 -9 -4.5 -21t-4 -21t-10.5 -17l-15 -15q-20 -18 -39 -13q-20 5 -27 21q-8 19 9.5 64t17.5 63q0 22 4 43.5t13.5 50.5t11.5 36
q4 14 6 42t6 42q5 16 15.5 54.5t19.5 66.5q4 8 6 20t5 20q5 20 12 33q6 11 11 28.5t8 24.5q8 20 31 35t41 11q13 -2 19 -21q1 -6 -5.5 -33.5t-11.5 -38.5q-10 -19 -17.5 -49.5t-12.5 -44.5q-2 -6 -5 -12t-4 -10.5t0 -13.5q1 -7 -2 -21l-4.5 -21t1.5 -12q8 -5 42 1
q15 4 47.5 3.5t46.5 3.5q13 4 35.5 8.5t28.5 5.5q19 5 30.5 3t24.5 -0.5t25 9.5q11 8 15 17.5t6 26.5t6 29q2 6 6.5 11t6.5 12q2 10 4 31t5 31q2 7 2 18t3 19t9 20t9.5 20t3.5 14q0 13 8 21q13 13 27 16z" />
    <glyph glyph-name="uni043E" unicode="&#x43e;" horiz-adv-x="599" 
d="M400 569q-24 -9 -41 -21q-21 -13 -62 -58q-3 -4 -11.5 -12t-14 -14.5t-9.5 -12.5q-12 -21 -21.5 -41t-16 -37t-8.5 -21q-11 -23 -13.5 -30.5t-2 -9t-1.5 -12.5q-2 -7 -8 -36t-9 -41q-1 -14 -2.5 -20.5t2.5 -19t6 -17t7 -14.5t6 -13q2 -5 5 -13t4.5 -12.5t5.5 -9.5t10 -8
q4 -2 14 -3t14 -2q3 -1 13.5 -5t17 -5.5t18 -3.5t16.5 2q60 22 76 42q2 2 8.5 6.5t7.5 5.5q6 6 19 13.5t19 12.5q3 2 22 37q4 7 12 16.5t12 18.5q3 6 7.5 20t6.5 20q2 5 7.5 19.5t7.5 20.5q2 5 7 11t8.5 13t6.5 32.5t3 67.5q0 16 -1 19q-1 5 -1.5 13.5t-2.5 14.5
q-1 3 -2 10.5t-3 12.5t-5 8q-2 2 -7.5 14.5t-8.5 14.5t-17.5 14.5t-19.5 14.5q-3 1 -10 1t-10 1q-25 8 -61 -4zM455 654q16 5 35.5 1.5t27.5 -6.5t25 -11t28 -12q8 -3 17 -17t12 -17l7 -6q7 -6 10 -10.5t4 -11.5q1 -10 9 -35.5t10 -36.5q1 -5 -2 -24.5t-3 -44.5v-11
q1 -5 0 -15t-1 -16v-20q0 -19 -4 -32.5t-9.5 -21.5t-5.5 -10q-2 -8 -4 -23t-5 -22q-9 -24 -47 -81q-24 -37 -71 -85q-3 -3 -16.5 -11.5t-16.5 -11.5q-1 -1 -8 -2.5t-13 -6.5q-2 -2 -9 -12.5t-11 -13.5q-7 -6 -22.5 -14t-17.5 -9q-6 -5 -51 -12t-54 -6q-37 2 -55.5 9
t-52.5 29q-1 1 -7.5 4.5t-11 6t-10 7t-8 9.5t-2.5 11q0 11 -13.5 23t-13.5 24v1q0 1 -0.5 1.5t-1 2.5t-1 4.5t-1 7t-1 10t-0.5 14v18.5q0 3 -1.5 20t-1.5 24q0 17 0.5 28.5t1.5 19t3.5 16.5t4.5 14.5t8 19t10 24.5t10.5 30t12.5 35t13 31q8 18 25 32t25 27q2 3 5.5 11.5
t6.5 11.5q9 8 17 24t15 25q9 11 24.5 22t22.5 19q7 9 37 24q25 14 40 14h9t6 -0.5t4.5 0t5.5 2.5t7 6t15 5t23.5 0.5t15.5 -0.5z" />
    <glyph glyph-name="uni043F" unicode="&#x43f;" horiz-adv-x="565" 
d="M111 -5q-6 -1 -25.5 -1t-25.5 1q-17 10 -10 47.5t26 74.5q3 7 5.5 12t3.5 9.5t2 7t1 7v7v8.5v11q0 19 14 54q7 16 31 147q3 16 11 44.5t11 38.5q6 23 12 57t11 57t12.5 47t19 39.5t28.5 21.5q5 2 42 -1t41 -1q8 5 26 2.5t22 -0.5q30 11 66 3t66 2q5 2 14 -0.5t14 -0.5
q47 16 70 9q8 -2 17 -1t14 -2q2 -2 10 -4.5t12 -7t0 -12.5q-7 -17 -5 -38v-16q0 -69 -26 -144q-1 -3 -5 -9t-6.5 -12.5t-2.5 -13.5q1 -29 -15 -94t-31 -108q-5 -12 -11.5 -39.5t-10.5 -39.5q-3 -7 -11.5 -18t-10.5 -15q-3 -5 -4.5 -35t-4.5 -35q-12 -18 -76 -15
q-10 0 -12.5 10t1.5 26t9 29.5t11.5 29t6.5 16.5q9 23 17 59.5t11 46.5q0 1 8 22.5t12 39.5t1 31q1 3 21.5 66.5t25.5 110.5q0 1 0.5 10t0.5 11q0 4 -1 10.5t-1 11.5q0 6 3.5 17.5t-1.5 12.5q-6 8 -27 8q-5 0 -13 0.5t-16.5 0t-18.5 -3.5q-7 -2 -19.5 -3t-17.5 -2
q-20 -5 -47 3t-40 -5q-4 -3 -12.5 -3.5t-11.5 -1.5q-4 -1 -27 -4t-28 -9t-15.5 -69.5t-14.5 -70.5q-29 -52 -29 -85q0 -2 1.5 -10t1.5 -11q0 -12 -23.5 -113.5t-34.5 -125.5q-1 -3 -7 -11.5t-10 -17t-4 -14.5q0 -3 1 -14.5t0.5 -19.5t-4.5 -15q-1 -3 -18 -7z" />
    <glyph glyph-name="uni0440" unicode="&#x440;" 
d="M486 694q15 0 23 1.5t20.5 -3t18 -5.5t17 -8t15.5 -10l14 -10.5l14 -10.5q3 -2 11 -4t11 -5q5 -4 7.5 -11t4.5 -18t3 -15t7 -10.5t7 -10.5q2 -9 -3 -30.5t-5 -30.5q0 -19 -3.5 -29t-12 -20.5t-12.5 -17.5q-1 -2 -3.5 -11t-6.5 -12q-7 -9 -25.5 -25.5t-22.5 -20.5
q-28 -28 -37 -32q-6 -2 -17 -4t-15 -3q-4 -2 -10.5 -9t-10.5 -8q-6 -3 -19 -5t-19 -6q-1 -1 -5.5 -6t-7.5 -6q-28 -5 -40 -11.5t-35 -12.5q-9 -2 -27 -8t-26 -8t-35.5 -5t-43.5 -11t-25 -28q-5 -13 -9.5 -66t-8.5 -64q-3 -5 -8.5 -14t-9 -15.5t-3.5 -12.5q0 -3 0.5 -7.5
t0.5 -8.5t-1 -7q-7 -22 -39 -42l-6 -1.5t-5.5 1.5t-4.5 2q-30 13 -34 24q-9 20 13 115.5t22 111.5q0 7 2 15.5t4 14t5.5 13.5t5.5 12q2 5 2 14v11q1 8 8 30t8 25q3 11 5 34q1 9 13 38q4 8 1 28q-1 8 12 41q9 22 3 54.5t1 46.5q3 6 11 14.5t10 10.5q3 4 5.5 11t4.5 10
q12 17 53 30q13 4 25 -6.5t17 -11.5q15 -2 22.5 0t18.5 7.5t15 6.5t11 -1t11 -2q3 1 10.5 6t10.5 6q14 4 48 4t44 2zM431 602q-15 -5 -38 -6.5t-38 -5.5l-28 -14q-8 -4 -17.5 -5t-17.5 -4q-25 -11 -28 -14q-10 -11 -23 -94q-1 -6 -3 -16q0 -1 -5.5 -28t-10.5 -53l-5 -27
q2 -4 17 -1.5t24.5 5t28 8t28.5 7.5q67 16 88 30q8 5 38.5 16.5t31.5 11.5q34 14 62 52q24 32 24 64q0 10 -5 18q-2 4 -13 19.5t-14 16.5q-7 5 -24.5 7t-23.5 4q-4 1 -14 6t-15 5.5t-19 -2.5z" />
    <glyph glyph-name="uni0441" unicode="&#x441;" horiz-adv-x="553" 
d="M486 641q58 10 96 -8q13 -6 30 -26q15 -15 20 -46l3 -33q0 -53 -18.5 -90t-58.5 -36q-4 0 -7.5 1t-6 3t-4.5 3.5t-3.5 5.5t-2 6t-1.5 7t-1 7t-0.5 8.5t-0.5 8.5q-1 11 4.5 28t6.5 26.5t-8 28.5q-15 22 -42 18q-4 0 -14 0.5t-14 -0.5q-9 -2 -21.5 -9.5t-21.5 -14
t-23.5 -18.5t-18.5 -15t-17 -7t-18 -9q-6 -6 -14 -16q-48 -37 -71 -68q-9 -12 -30.5 -53t-24.5 -46q-15 -26 -20 -46t0 -52q2 -14 15 -45q3 -7 7 -11.5t12.5 -10.5t10.5 -8q1 -1 8 -11.5t13 -11.5q2 -1 8 -0.5t9 0.5q5 -1 14.5 -6.5t12.5 -6.5q10 -4 22 3t14 7q6 1 19 0
t20 0q19 4 87 41q3 2 9 9t10 10q9 6 38.5 12.5t34.5 3.5q12 -8 14 -16q3 -15 -1 -21q-22 -33 -35 -51q-11 -14 -45.5 -37.5t-52.5 -29.5q-7 -2 -21 -5.5t-21 -6.5q-3 -1 -13.5 -6.5t-15.5 -6.5q-8 -2 -27.5 2t-29.5 1q-1 0 -15.5 -5t-16.5 -4.5t-17 1.5q-9 2 -23.5 10.5
t-21.5 10.5q-3 1 -9.5 1t-10.5 1q-4 2 -9 12t-7 12q-5 4 -21 5t-21 6q-1 1 -11.5 18.5t-10.5 18.5v10t-2 11q-2 4 -7.5 10.5t-7.5 10.5q-10 20 -12.5 50t7.5 66q16 45 39 85q4 8 9 23.5t8 21.5q2 3 8.5 8.5t8.5 7.5q3 4 10.5 13t10.5 13t17 26.5t26.5 41t18.5 21.5
q5 3 13.5 4.5t11.5 3.5q6 3 12.5 17.5t11.5 17.5q2 1 8 3.5t9 4.5q2 1 9.5 10t12.5 11q3 1 8.5 2t8.5 3t9 9.5t9 9.5q7 4 22 5t21 3q11 3 29 14.5t25 14.5q6 2 15 3t11 2z" />
    <glyph glyph-name="uni0442" unicode="&#x442;" horiz-adv-x="479" 
d="M472 685h57t49 -7.5t43 -23.5q19 -18 3.5 -41t-43.5 -29q-9 -3 -18.5 -1.5t-13 2.5t-11 5t-10.5 5q-11 4 -28 -4t-20 -8q-14 -3 -31.5 0t-28 0.5t-20.5 -18.5q-5 -9 -10 -38t-8 -38q-1 -2 -6 -12.5t-7 -19t-2 -17.5q0 -2 -0.5 -16.5t-4.5 -25.5q-8 -21 -28.5 -97
t-25.5 -91q-2 -6 -4.5 -19.5t-5.5 -20.5q-2 -9 -9 -30.5t-9 -27.5q-4 -16 -10 -50t-11 -52q-3 -10 -18.5 -19t-26.5 -9q-33 1 -33 75v20q0 20 19 69q4 9 5 28t4 27q2 4 2.5 11.5t1.5 11.5t10 15t11 19q1 4 9.5 58.5t10.5 63.5q5 27 8 33q14 34 14 49q0 10 6 34.5t11.5 45
t4.5 22.5q-9 17 -27.5 18.5t-38 -6.5t-41 -11t-36.5 5q-15 9 -18.5 21.5t3.5 39.5q1 5 11 8q5 2 13.5 1.5t12.5 1.5q47 21 80 24q11 0 34 4.5t35 5.5q99 5 116 8q5 1 30 1z" />
    <glyph glyph-name="uni0443" unicode="&#x443;" horiz-adv-x="436" 
d="M570 706q8 6 16 -2q2 -2 10.5 -5.5t15.5 -8t7 -8.5q0 -22 -17 -46t-41.5 -50.5t-33.5 -41.5q-3 -6 -8 -14t-6.5 -11t-5 -8t-8 -9.5t-11.5 -12.5q-7 -7 -17.5 -22t-17.5 -23q-3 -3 -9 -7t-8 -6q-14 -13 -29 -34q-4 -6 -17 -33.5t-18 -34.5q-2 -3 -10 -7.5t-10 -7.5
q-11 -17 -25.5 -35.5t-27.5 -39.5q-6 -9 -22 -41.5t-26 -45.5q-6 -7 -25.5 -25t-22.5 -23q-4 -6 -6.5 -16.5t-4.5 -14.5q-11 -20 -42.5 -52t-57.5 -46q-10 -6 -27 1t-17 20q0 14 3.5 22t12.5 19t13 17q5 7 9.5 19.5t7.5 17.5q3 7 14 15.5t14 11.5q3 4 8 13t8 14q1 2 7 7.5
t8 8.5q28 57 48 82q1 2 21 23.5t30.5 40t9.5 36.5q-1 6 -13 14t-12 13q0 2 2 7.5t1 7.5q-1 6 -6.5 15t-6.5 14q0 3 1 10t-1 8q-9 13 -16 26t-10.5 20.5t-10.5 24.5t-11 26q-5 11 -17 26t-18.5 25t-11.5 30t5 41q3 9 17.5 19.5t23.5 7.5q6 -2 9.5 -8.5t7.5 -7.5q12 -3 20 -10
q3 -2 5 -10t5 -10t9 -3.5t9 -3.5t4.5 -9t3.5 -9q11 -12 18 -23.5t10 -19.5t9 -24.5t11 -28.5q18 -41 36 -55q5 -4 12.5 -3t11.5 5q48 48 90 110q22 33 31 51q24 45 90 87z" />
    <glyph glyph-name="uni0444" unicode="&#x444;" horiz-adv-x="790" 
d="M771 664q20 3 39 -3q8 -2 14 -6.5t14.5 -12.5t14.5 -13q12 -9 23 -7q2 1 3 -4q1 -3 11 -40q1 -4 6.5 -11t6.5 -11q2 -9 -5 -32t-7 -32q0 -19 -4 -30t-13 -22t-13 -18q-1 -3 -4 -13q-8 -30 -43 -69t-60 -46q-4 -2 -11.5 -8.5t-11.5 -8.5q-6 -2 -18 -5t-19 -7
q-1 -1 -5.5 -6t-7.5 -6q-14 -3 -30 -12t-24 -11q-9 -3 -32.5 -10.5t-36.5 -10.5q-11 -3 -32 -3.5t-27 -1.5q-9 -1 -12 -12q-1 -3 -1 -4q-8 -29 -15 -62t-9 -41q-14 -55 -24 -70q-13 -19 -37 -19q-2 0 -8 -0.5t-9 0t-8 2t-8.5 6.5t-6.5 13q-8 22 8.5 85t16.5 79v2q0 9 -7 9
q-8 1 -25.5 -7t-28.5 -9q-9 -1 -15.5 0t-14.5 1q-6 -1 -18.5 -4.5t-18.5 -4.5q-5 0 -19.5 3.5t-28.5 1.5q-3 -1 -5 3.5t-4 4.5q-2 1 -14 5.5t-19 5.5q-3 0 -8 5t-9 4q-15 -1 -41.5 32t-21.5 47q1 2 1 6q0 7 -5 16t-5 16t8 32q3 9 7 31.5t10 33.5q3 5 11 14.5t11 13.5
q35 56 36 56q11 5 27 18q13 11 31 31.5t32.5 30t40.5 14.5q7 1 48.5 18t55.5 17q3 0 10 1.5t13 2.5l5 2q5 1 11 -1t13.5 -1t21.5 9q11 6 18 50q4 25 20 41t34 16q24 1 30 -11t6 -53q0 -31 14 -35q11 -3 22 0t21.5 8.5t15.5 6.5q23 4 28 6q2 0 25 -1.5t45 -3t21 -1.5z
M257 263q14 5 26.5 3t29.5 2q2 1 11 1t14 3q8 5 34.5 4t32.5 13q-1 -2 4 17.5t13 51t16.5 64.5t14.5 62.5t6 40.5q0 19 -3 24q-8 11 -69 -8q-14 -4 -44 -18.5t-44 -18.5q-6 -2 -18 -12t-17 -12q-22 -7 -39 -26q-15 -16 -31.5 -50t-16.5 -61q0 -40 31 -61q31 -23 49 -19z
M721 580q-13 -5 -50 -3t-44 -3q-4 -2 -32 -6t-33 -19l-2 -9q-3 -9 -6.5 -24.5t-8.5 -34.5t-9.5 -40t-8 -41t-6 -39t-2.5 -31q0 -22 9.5 -29t43.5 2q7 2 16.5 2.5t15.5 1.5q5 1 20 10t17 10q3 2 11.5 3t10.5 2q6 2 19.5 12t18.5 12q27 9 52 37q15 16 33 54t18 64q0 40 -33 59
q-7 4 -25.5 8t-24.5 2z" />
    <glyph glyph-name="uni0445" unicode="&#x445;" horiz-adv-x="478" 
d="M210 668q6 -1 11.5 -2.5t9.5 -4.5l6 -4.5t5 -7.5l3.5 -7t3.5 -9t3 -9q1 -4 7.5 -11.5t7.5 -12.5q4 -24 10 -35q2 -5 5 -11q17 -38 25 -64q2 -7 3 -14.5t4 -16.5q1 -2 3 -12t5.5 -15.5t8.5 -6.5q9 -2 36 33q5 6 20 29.5t22 29.5q3 2 12 6.5t12 9.5q5 18 8 23t13.5 13
t13.5 12q7 10 16.5 25.5t17 28t17 26t18 21.5t18.5 12.5t21 2t23 -13.5t13 -25.5t-6 -28.5t-20.5 -31t-26.5 -30.5t-29.5 -30t-24.5 -26.5q-3 -4 -12 -10.5t-12 -10.5q-14 -15 -37.5 -48t-34.5 -46q-5 -5 -20 -18t-21 -22q-2 -3 2.5 -8.5t4.5 -7.5t-1 -6t-1 -6
q1 -11 9.5 -30.5t9.5 -24.5q1 -4 2 -13t2 -14q3 -13 16 -36t16 -36q1 -6 4 -13t4 -17q1 -7 6 -18t6 -15q2 -7 0 -36.5t-4 -33.5q-17 -31 -36 -36q-8 -4 -11 -3q-11 1 -18.5 7.5t-10.5 12.5t-6.5 18.5t-5.5 17.5q-1 2 -7 13.5t-7 17.5q-2 15 -6.5 25.5t-11.5 23t-11 22.5
q-3 8 -15.5 30.5t-16.5 34.5q-1 2 -2 9t-3 10q-1 1 -2 -1t-1 -4q-5 -6 -12.5 -18.5t-12.5 -18.5l-9 -10q-9 -9 -13 -15q-5 -6 -13.5 -19.5t-15.5 -22.5t-16 -17q-19 -17 -31 -32q-17 -21 -31 -43q-8 -12 -13 -25.5t-7.5 -19.5t-10 -12.5t-21.5 -12.5q-24 -10 -38 6.5
t-13 42.5t18 43q5 5 10.5 16.5t10.5 17.5q4 4 13.5 11.5t12.5 10.5q10 11 24 32t20 28q2 3 8.5 7.5t8.5 6.5q19 19 53 73q4 6 16.5 19.5t20.5 27t9 29.5q0 14 -12 34t-12 36q0 26 -21 66t-23 65q-1 7 -6 18t-6 15q-2 7 -1.5 26.5t2.5 23.5q6 11 16.5 22.5t19.5 14.5
q2 0 6 1.5t6 1.5z" />
    <glyph glyph-name="uni0446" unicode="&#x446;" horiz-adv-x="582" 
d="M616 673q18 -5 20 -48t-13 -77q-1 -2 -11 -34t-12 -35q-8 -17 -6 -39q1 -9 -14 -58q-1 -2 -14 -82q-4 -24 -20 -98q-5 -25 -12 -49t-11.5 -36.5t-4.5 -14.5q3 -2 15.5 0t32 4.5t26.5 0.5q14 -3 14 -26q0 -9 -6.5 -28.5t-6.5 -31.5v-18q-5 -49 -15.5 -81.5t-20.5 -38.5
q-9 -5 -20 -8.5t-24 1t-17 21.5q-3 8 -2 27t6 31q16 38 10 53q-1 2 -3 2q-18 -1 -40.5 2t-42.5 1.5t-50 -13.5q-3 -2 -60.5 -1.5t-60.5 -0.5q-31 -11 -71 -15t-69 3q-7 2 -17 0.5t-14 2.5q-20 13 -13 31q2 7 -2.5 20t-4.5 15q-1 13 14 45.5t15 45.5q0 25 15 70q1 2 8 13.5
t6 20.5q-6 89 14 148q4 12 6 22t6 22q2 6 6 40t7 39t12.5 41t12.5 41q7 12 27.5 19.5t38.5 6.5q12 0 13.5 -25.5t-4.5 -60.5t-11.5 -59t-8.5 -35q-5 -17 -8 -30.5t-6 -29t-6 -30.5q-1 -9 -7 -23q-2 -5 -2.5 -10t-0.5 -10v-8q-1 -4 -13 -39t-17 -80v-15q0 -4 -3.5 -13.5
t-2.5 -14.5q1 -7 -4.5 -25.5t-1.5 -23.5q21 -24 26 -26.5t32 3.5q15 4 73.5 2.5t82.5 8.5q4 2 15 4t18.5 5t11.5 8q4 6 15.5 61.5t13.5 61.5q7 13 14 46.5t6 54.5q-1 3 3.5 10.5t4.5 10.5q-1 15 8 55.5t16 60.5l3 7q3 7 3 12q0 8 9.5 41t15.5 48q11 25 11 42q0 21 16 43
q18 27 51 17z" />
    <glyph glyph-name="uni0447" unicode="&#x447;" horiz-adv-x="547" 
d="M592 705q26 7 44.5 -10.5t4.5 -48.5q-1 -3 -7.5 -19t-13.5 -33.5t-7 -18.5q-6 -13 -14.5 -45.5t-7.5 -41.5q1 -14 -12 -47q-2 -6 -7 -43t-5 -38q-1 -8 -10 -34.5t-19 -77t-18 -126.5q-1 -8 -8 -35.5t-7 -33.5q0 -18 -13.5 -41t-25.5 -27t-31 -2.5t-23 6.5q-1 2 -5 5.5
t-5 6t-3 6t-1 8t4 9.5q2 3 3 8t3 14t4 17q2 6 3.5 20t3.5 21q1 6 7 19t7 19q3 15 8.5 37.5t8.5 35t3 15.5q0 7 3 16t3.5 12.5t-5.5 10.5q-3 2 -8 0t-12 -6.5t-9 -5.5q-51 -25 -53 -24q-5 1 -48 -16q-10 -4 -34 -7.5t-36 -7.5q-10 -3 -82 11q-22 6 -33 14t-29 37
q-6 10 -6.5 28t2 39.5t2.5 29.5q0 9 2.5 19t8.5 24.5t8 21.5q28 89 32 154q1 27 15 57.5t38 37.5q18 5 34.5 -7.5t15.5 -33.5q-4 -64 -25.5 -118.5t-29.5 -109.5q0 -2 -0.5 -9t-0.5 -8q1 -9 -2 -28t-4.5 -30t1.5 -19q19 -19 39.5 -19.5t44.5 8.5q7 1 20 2t19 3q15 4 50 16.5
t40 14.5q50 19 58 30q4 5 8 25t7.5 42t4.5 27q30 117 31 125q2 12 8 39q1 5 3 17t3.5 17t5.5 14t9.5 13.5t15.5 10t24 8.5z" />
    <glyph glyph-name="uni0448" unicode="&#x448;" horiz-adv-x="736" 
d="M186 595q-1 21 17.5 37t40.5 21q8 2 13.5 -6t7 -20.5t2 -25.5t-0.5 -23v-9l-2 -7q2 -11 2 -16q0 -1 -12.5 -50.5t-12.5 -53.5q0 -2 -0.5 -7t-0.5 -7q-1 -37 -32 -99q-5 -8 -4 -25t0 -21q-2 -9 -14 -46.5t-20.5 -69t-8.5 -47.5q0 -31 21 -37q15 -5 69.5 -7t72.5 3
q8 4 12 12q23 56 33 163q3 28 14 66.5t13 48.5q1 5 5.5 16t4.5 16q0 3 -1 9t-1 9q0 12 7.5 42.5t20 73t15.5 51.5q1 5 2.5 17.5t4.5 24t9 22.5q13 22 38 35q18 10 33 4q27 -11 6 -98q-4 -15 -13.5 -39t-18.5 -58t-15 -84q-1 -3 1.5 -9t2.5 -8q0 -11 -10.5 -31t-11.5 -29
q0 -2 2 -16.5t-1 -17.5q-3 -13 -11.5 -36.5t-11.5 -32.5q-1 -3 0.5 -8.5t1.5 -6.5q0 -10 -9 -60t-5 -60q1 -3 0.5 -10.5t2.5 -8.5q9 -7 31.5 -7.5t49.5 7.5q4 1 18 5.5t20.5 6.5t16.5 6.5t17.5 10.5t13.5 14q13 16 22.5 75t11.5 88q11 7 11 45v5q0 1 -0.5 4.5t-0.5 5.5
q0 17 2.5 28.5t6.5 20t5 11.5q2 7 4.5 25.5t3.5 25.5q1 3 9.5 36t16.5 64t9 36q14 66 27 87q14 24 50.5 30t41.5 -13q4 -15 -11 -55q-6 -15 -17 -56t-22 -86t-14 -55q-4 -20 -8.5 -58t-8.5 -58q-1 -5 -8.5 -28t-9.5 -39q-1 -10 -3.5 -40.5t-3.5 -39.5q-2 -24 -11.5 -49
t-9.5 -30t3 -14t2 -17.5t-8 -17.5t-34 -24q-11 -6 -29.5 -4.5t-32.5 -2.5q-57 -19 -102 -19q-3 0 -18 -5t-19 -4q-13 2 -42 -5t-44 -3q-6 1 -17.5 3t-18.5 3.5t-11 3.5q-11 6 -27 8q-4 1 -11 -3l-7 -3q-7 -2 -14 1.5t-9 3.5q-5 0 -14 1.5t-15 0.5q-156 -16 -168 -6t-15 41
t12 64q21 38 24 66q10 93 25 117q6 8 11.5 24.5t2.5 23.5q-10 24 24.5 136t33.5 127z" />
    <glyph glyph-name="uni0449" unicode="&#x449;" horiz-adv-x="783" 
d="M122 349q16 66 36.5 130t33.5 95l12 30q7 8 21 15.5t28.5 11t25 -3.5t10.5 -25q0 -37 -6 -51q-1 -3 -3 -11l-3 -12q-10 -21 -28 -78.5t-19 -80.5q-1 -7 -2 -22.5t-1 -20.5q-1 -9 -27.5 -82t-26.5 -137q0 -21 1 -24q2 -8 8 -12t19 -5.5t20 -1.5t27 1h16t13.5 0.5t12.5 1.5
t12.5 3.5t13.5 6.5q23 15 32.5 54.5t8.5 66.5v11q0 46 18 93t18 50q1 26 42 191q3 11 6.5 30t6 30t7 24t10.5 21q16 22 51.5 24t37.5 -23v-12q0 -47 -18 -83q-6 -11 -6 -29q0 -9 -25.5 -94.5t-25.5 -87.5q0 -13 -3 -19q-19 -40 -19 -83v-9q0 -4 0.5 -12.5t1 -15t1.5 -11.5
t-9 -53t-8 -53t25.5 -7.5t52 -3.5t31.5 -1q31 -4 44 10q22 25 32.5 90t11.5 112q0 14 10.5 44.5t10.5 43.5q0 3 4 39q25 224 69 270q21 22 40 23.5t30.5 -9.5t16.5 -29q3 -10 -5 -29.5t-8 -27.5v-8q0 -28 -8 -56t-8 -35q-1 -8 -23.5 -97.5t-23.5 -93.5q-1 -8 -4 -25t-4 -26
v-36q0 -13 -13.5 -68.5t-14.5 -66.5v-3q0 -1 6 -1q4 0 39.5 0.5t38.5 -1.5q14 -4 14 -26q0 -26 -17 -60q-2 -4 -5.5 -32t-5.5 -35q-2 -8 -3.5 -18t-2.5 -15.5t-2.5 -11.5t-3.5 -9t-5 -5q-6 -4 -17.5 -7t-24.5 -4t-24 5t-14 19q-2 10 13 47q7 18 7.5 36.5t-5.5 19.5
q-16 4 -57 0q-5 -1 -32 -5t-31 -3.5t-27 1.5q-2 1 -6 4t-6 3q-11 3 -47.5 -4t-44.5 -7t-39 -1t-38 -1q-6 0 -21 1.5t-22 1.5q-13 0 -34 2.5t-36 1.5q-7 0 -46 -4.5t-47 -3.5q-5 1 -31.5 -3.5t-34.5 1.5q-25 13 -30 58q-1 7 5 17t6 16q1 5 2.5 33t5 55t8.5 38q1 1 6.5 10.5
t9.5 18.5t8 28.5t4 43.5v13v35z" />
    <glyph glyph-name="uni044A" unicode="&#x44a;" horiz-adv-x="658" 
d="M203 687l49 -9q17 -5 47.5 0.5t40.5 5.5q1 0 3 -2t4 -1q15 6 28 7q20 3 27 -11t1.5 -37t-13 -43.5t-15.5 -36.5q-26 -47 -36 -90q-2 -7 -11.5 -26.5t-16.5 -36.5t-5 -24q2 -5 7 -6t12 1.5t14.5 6t16 7t14.5 4.5q52 13 87 18q5 2 20 1t19 -1q8 1 22.5 -2t19.5 -3
q69 -2 102 -31q12 -11 24 -37q18 -39 19 -55q3 -52 -35.5 -109.5t-76.5 -81.5q-13 -8 -36 -23.5t-42 -27.5t-37 -20q-7 -3 -18 -4t-16 -3q-7 -2 -21.5 -12t-22.5 -12q-19 -4 -61.5 -6.5t-62.5 -7.5q-21 -4 -26 -2q-4 1 -16 2t-16 3q-3 2 -20.5 9t-22.5 14q-2 4 -13.5 9.5
t-11.5 21.5q0 9 -8 27.5t-8 29.5q0 35 28 105q2 4 7.5 14t8.5 18.5t3 16.5q0 25 19 68q1 3 12 24.5t14 29.5q2 5 12 37.5t13 39.5q8 21 22 48t21 45t7 38q0 8 -3.5 10t-11.5 1t-11 0q-23 6 -53 -1q-35 -10 -42 -5q-1 1 -5.5 3t-7 4t-5 7.5t-2.5 13.5q0 30 14 46q3 4 7.5 8
t10 9.5l7.5 7.5q10 10 26 6zM270 278q2 2 1 -2q-2 -4 -9 -22q-42 -101 -42 -141q0 -35 10 -43q13 -11 54 -11q17 0 32 5q5 1 18.5 -2.5t18.5 -0.5q3 1 16 11t28 14q9 2 28 14t22 14q22 12 70 49q21 16 40.5 38.5t25.5 34.5q8 16 2.5 31t-12.5 24t-11 11q-5 2 -14 4t-14 3
q-16 4 -25 6q-3 1 -9 5t-10 5q-5 1 -15 -1.5t-14 -2.5q-21 0 -43 -6q-5 -2 -13 -3.5t-10 -2.5q-3 -4 -22 -1.5t-24 2.5q-4 0 -16 -6t-16 -6q-35 -4 -47 -20z" />
    <glyph glyph-name="uni044B" unicode="&#x44b;" horiz-adv-x="781" 
d="M294 590l-16 -58q-5 -14 -9.5 -33.5t-7.5 -27.5q-5 -16 -12.5 -33.5t-11 -27t-3.5 -16.5q0 -8 4.5 -9t14.5 4t22.5 11t32 11t38.5 5q4 0 57 11q24 6 45 5q39 -2 51 -11q5 -3 35 -16t42 -34q9 -16 15 -73q1 -9 -2 -19t-8 -21t-7 -17q-6 -21 -17 -42.5t-20 -33t-20.5 -25
t-12.5 -15.5q-9 -11 -55 -46.5t-60 -42.5q-116 -56 -158 -50q-14 2 -29 2.5t-24 2t-20 6.5q-13 7 -34 7t-35 -0.5t-25 12.5t-11 44q0 9 8.5 33.5t8.5 35.5q0 14 12 37.5t13 28.5q4 16 5.5 28t0.5 24l-1 12q-1 15 13 49t17 48q10 42 27 97q4 12 3.5 25.5t2.5 21.5q3 10 12 32
t12 34q9 36 23.5 57.5t29 27.5t28.5 6t23 -4t10 -6q2 -3 3 -8t0 -11t-2.5 -11t-4 -14t-3.5 -13zM344 333q-3 -1 -16.5 -5t-21.5 -7q-5 -2 -16 -3.5t-16 -3.5q-23 -9 -29 -15q-4 -3 -16 -9l-14 -7q-1 -4 -8 -30t-10 -42q-1 -8 -13.5 -40t-17.5 -57q-1 -4 -1 -12q0 -5 3.5 -10
t7 -7.5t10.5 -6.5l7 -4q8 -4 19.5 -6t19 -1t13.5 0q21 -2 65.5 13.5t72.5 31.5q5 3 16.5 16t15.5 16q7 6 18 13.5t18 14.5t14 18q26 46 26 66q0 6 -1 15t-1 10t4 11t2 13q-7 14 -24.5 24t-30.5 10l-8 -1q-7 0 -21 -1t-28 -1q-1 0 -18 0.5t-21 -3.5zM647 -7
q-27 -7 -44.5 10.5t-0.5 48.5q2 3 14 36t13 36q15 27 15 57q0 15 16 47q3 6 9.5 42t7.5 39q4 16 13.5 44t12.5 38q46 156 51 236q1 17 19 40.5t31 27.5q12 4 34.5 2.5t25.5 -5.5q2 -2 6.5 -7t6.5 -7.5t3.5 -9t-3.5 -11.5q-2 -3 -3.5 -8t-3.5 -14t-5 -17q-2 -6 -6 -24.5
t-7 -26.5q-2 -6 -8 -22t-8 -22q-5 -18 -9 -36.5t-5.5 -31t-2.5 -14.5q-19 -83 -62 -231q-23 -81 -27 -97q-1 -4 -4 -12.5t-8 -25.5q-1 -5 -4 -15t-4.5 -14.5t-5 -13t-7.5 -12.5t-11 -10t-16.5 -10t-22.5 -7z" />
    <glyph glyph-name="uni044C" unicode="&#x44c;" horiz-adv-x="567" 
d="M318 665l-31 -110q-11 -37 -18 -64l-5 -20l-5 -20q-17 -44 -12.5 -53.5t24.5 -4.5q13 4 37.5 16t42.5 16l7.5 2.5l7.5 2.5q5 1 17 -1.5t16 -2.5q4 1 13.5 6.5t13.5 6.5q38 4 55 3q4 0 12 0.5t11 0t8.5 -1.5t10 -4t10.5 -8q3 -2 18.5 -2.5t18.5 -1.5q5 -2 9.5 -10.5
t7.5 -10.5q22 -17 29 -36.5t10 -61.5q4 -56 -43 -118q-3 -4 -40 -34q-6 -4 -14 -15t-13 -14q-13 -8 -51 -39t-61 -42q-35 -18 -148 -44q-11 -2 -26.5 0.5t-27.5 -0.5q-19 -5 -26 -3q-5 2 -10.5 9t-7.5 8q-5 4 -33.5 4.5t-33.5 6.5q-3 4 -12.5 11.5t-15.5 16t-6 21.5
q0 9 11 30t11 33q0 15 7.5 51t14.5 54q0 1 6.5 12.5t9 19.5t2.5 17q0 3 -1.5 11t-1.5 16.5t4 16.5q17 36 17 37q2 5 3 19.5t4 22.5q23 58 42 158q2 10 6 38t6 38q2 7 9 14.5t16.5 16t12.5 11.5q12 14 45 18q30 4 38 -8.5t-1 -34.5zM360 335q-3 -1 -17 -6t-17 -6
q-9 -3 -35.5 -8.5t-41.5 -12.5q-3 -1 -9.5 -6.5t-9.5 -7.5q-13 -7 -28 -30q-4 -6 -11 -42q-2 -9 -9 -35.5t-8 -37t1 -32.5q2 -6 7 -13q10 -12 18 -15.5t29 0.5q2 1 15.5 -1.5t14.5 -2.5q9 3 21.5 6t21.5 5.5t18 5.5q10 4 23 4.5t20 2.5q17 6 35 25.5t23 22.5q2 2 14 5.5
t16 6.5q1 1 13 15t14 16q32 25 46 56q6 17 2.5 33.5t-9.5 22.5q-1 1 -4.5 8t-6.5 8q-5 2 -11 10t-11 9q-1 0 -9 -1t-9 1q-13 5 -50.5 2t-55.5 -8z" />
    <glyph glyph-name="uni044D" unicode="&#x44d;" 
d="M342 673q39 11 73 -2q22 -8 39 -13q3 -1 7.5 -2t8.5 -2l8 -2q20 -5 38 -13q15 -6 32 -24t25 -35q5 -9 18 -58q5 -20 4.5 -50.5t-3.5 -51.5q-2 -8 -5.5 -31.5t-5.5 -32.5q-1 -5 -18 -56q-26 -79 -36 -96q-2 -4 -5.5 -17.5t-7.5 -19.5q-25 -39 -58 -67q-6 -5 -19.5 -22.5
t-21.5 -23.5q-4 -3 -13.5 -5.5t-13.5 -4.5q-3 -2 -10 -8.5t-10 -8.5q-11 -7 -41.5 -9t-41.5 -8q-31 -18 -46 -21q-8 -2 -28 0t-31 -1q-10 -3 -37 -3q-26 2 -42.5 11t-25.5 11q-84 20 -53 75q10 20 29 23t42 -2q15 -3 28 -13.5t36 -10.5q17 0 50 -5q43 -6 118 31
q12 6 25.5 15t25.5 18l12 9q10 7 40 58q34 57 34 92q0 11 -5 12q-3 3 -28.5 0.5t-31.5 -2.5q-5 0 -20 -5.5t-22 -5.5h-35q-8 0 -17 -1.5t-13 -1.5q-5 0 -38 -13q-3 -1 -9 0.5t-13 3.5t-9 2q-3 1 -9.5 8.5t-8.5 8.5q-10 6 2.5 30.5t27.5 30.5q27 11 54 11l33 3q34 6 43 5
q10 -1 27 1.5t26 2.5l63 7q13 1 16 14.5t3 50.5v12q0 18 -16 46q-15 26 -22 31q-2 1 -11 9t-18 14q-2 1 -7.5 4.5t-7.5 4.5t-8 3.5t-9 1.5t-11 -1q-12 -3 -33.5 1.5t-35.5 -0.5q-10 -3 -35 -14t-35 -14q-25 -7 -45 -21t-31 -18q-28 -11 -38 19t9 53q9 11 23 13q5 1 13 9.5
t10 9.5q26 15 68 29q4 1 12.5 1t11.5 2q50 17 60 19z" />
    <glyph glyph-name="uni044E" unicode="&#x44e;" horiz-adv-x="772" 
d="M634 690q15 7 38 1q27 -5 28 -6q6 -4 30.5 -10t31.5 -14q1 -2 6.5 -7.5t7.5 -8.5q1 -2 5.5 -6t6.5 -7q4 -6 7 -17t5 -16t11 -17t11 -20q2 -6 -1 -17t0 -18q6 -27 2.5 -66t-10.5 -70q-11 -50 -19 -67q-2 -5 -17 -63q-1 -3 -5.5 -21t-6 -21.5t-6 -18t-7.5 -20l-9 -16.5
t-12.5 -19t-15.5 -17q-15 -15 -26 -31t-22.5 -26.5t-40.5 -27.5q-3 -2 -22.5 -13.5t-29.5 -16.5q-8 -5 -22.5 -7t-19.5 -4q-36 -13 -86.5 -3t-68.5 33q-2 3 -8.5 7t-8.5 7t-9.5 9t-9.5 10q-4 8 -3.5 13.5t-2.5 12.5q-6 10 -12 18q-5 8 -7.5 30t-4.5 29q-3 8 -3 129q0 1 -2 7
q-25 0 -31 -2q-8 -2 -20 -4t-17.5 -3.5t-12.5 -6t-14 -12.5q-13 -16 -23 -65t-11 -79q-1 -22 -23 -69q-3 -9 -3 -13t2 -9.5t2 -8.5q1 -22 -25 -41.5t-46 -21.5q-1 2 -6 5t-7 6q0 4 -5 11t-5 10q0 4 -4.5 12t-4.5 12q2 7 6 22.5t5 22.5q0 30 13 94t26 95q6 14 10.5 41.5
t9.5 39.5q6 23 14 69q0 1 4.5 8t5.5 9l16 64q0 1 -0.5 14.5t2.5 16.5q3 7 12 19.5t11 16.5q8 14 5.5 34.5t7.5 32.5q1 1 6 5.5t7 6.5q1 1 7 11t11 12q4 3 21 2.5t19 -5.5q1 -2 7 -11t8.5 -15.5t2.5 -13.5q-5 -44 -24 -103q-24 -74 -24 -97q0 -9 2 -14t7.5 -6t10 -0.5t14 2
t16.5 1.5q21 0 51 4q20 27 22 32q3 7 8 24.5t15 30.5q6 8 6.5 15t7.5 15q8 9 21.5 28t23.5 29.5t27 24.5q42 32 58 39q6 3 21.5 15.5t21.5 15.5q10 4 30.5 8.5t29.5 9.5zM642 603q-1 0 -21 -4t-21 -5q-6 -4 -24.5 -17t-24.5 -16q-8 -5 -25.5 -30t-21.5 -29t-8 -11.5
t-7 -10.5q-8 -8 -13 -26t-7 -22q-3 -7 -16 -24t-15 -22t-6.5 -14.5t-5.5 -12.5q-4 -10 -12 -40.5t-13 -42.5q-9 -27 -0.5 -69t23.5 -71q18 -33 29 -36q4 -1 21 -9t26 -9.5t24 0.5q4 2 22.5 10.5t27.5 11.5q9 4 18 17.5t16 16.5q10 6 26 27t20 25q12 12 17 23.5t9 28t9 28.5
q3 7 10 38.5t7 33.5q1 5 4 40q1 13 12 43.5t11 57.5t-5 36q-2 4 -4.5 11.5t-4.5 11.5q-3 5 -6 12t-5.5 12.5t-6.5 9.5q-14 14 -33 19q-4 1 -12 5.5t-14 2.5z" />
    <glyph glyph-name="uni044F" unicode="&#x44f;" horiz-adv-x="590" 
d="M180 523q4 7 11.5 15t13.5 14.5t18.5 16.5t19.5 15.5t24 18.5t25 19q7 5 21 10.5t20 9.5q5 3 14 12t14 12q63 32 119 31q28 -1 61 5.5t59.5 6.5t57.5 -15q19 -9 19.5 -39.5t-10.5 -64t-21 -75.5t-8 -66q0 -2 -5.5 -15t-5.5 -20q0 -6 -25 -100q-40 -148 -36 -149q1 0 6 11
q-2 -5 -5.5 -44.5t-8.5 -63.5q-11 -34 -35 -46q-13 -8 -32.5 -4t-25.5 20q-11 15 -2 46.5t7 50.5q0 4 9.5 38t17 67t3.5 36q-5 4 -12 4t-16 -3t-17.5 -6.5t-19 -10.5t-17 -11.5t-16 -11.5t-11.5 -8q-5 -3 -14 -13.5t-14 -14.5q-4 -3 -11 -5t-11 -4q-7 -5 -27 -24.5
t-32 -26.5q-3 -2 -10.5 -4.5t-10.5 -4.5q-7 -4 -35 -35t-37 -36q-3 -2 -11.5 -7.5t-16 -9.5t-11.5 -4l-7 -6q-7 -5 -15 -11.5t-11 -8.5q-12 -7 -25 -20.5t-19.5 -20.5t-20 -11t-26.5 7q-39 24 28 96q9 10 35.5 22.5t56.5 52.5q6 8 24 22t21 17q4 3 8 10t5 8q15 12 59.5 39
t65.5 49q9 9 -3 9q-5 0 -24 -4q-45 -9 -57 -3q-3 2 -37.5 11t-43.5 15q-5 2 -16.5 25t-11.5 40v12.5v12.5t0.5 11.5t1.5 13l3 13.5t5.5 16.5t8 18t11 22.5t14.5 25zM461 600q-72 3 -138 -53q-3 -3 -14 -10t-16 -12q-27 -29 -34 -40q-11 -15 -16 -28.5t-5.5 -22.5t4 -18
t7.5 -13t10 -10.5t8 -7.5q4 -4 8.5 -6t16 -5.5t18.5 -5.5q5 -2 21 -2t21 -1q25 -5 33 -5q33 -1 59 13q19 11 42 19t32 14.5t12 21.5t14 52l28 124q-4 13 -19 15t-31.5 -3t-35 -10.5t-25.5 -5.5z" />
    <glyph glyph-name="uni0451" unicode="&#x451;" horiz-adv-x="538" 
d="M579 739q-2 15 -4 23q-2 5 -8 11q-6 5 -7 7q-2 6 1 9q3 2 1 8q-6 9 -14 17q-8 7 -22 18q-14 10 -17 13q-14 0 -23 -3t-20 -12q-11 -10 -14 -12l-2 -12q-2 -7 -3 -9t-1 -5q-1 -4 0 -4q0 -1 1 -3l1 -3l1 -2l2 -3l4 -7q2 -5 5 -15t5 -15q17 -27 49 -41q31 -15 64 1q1 4 5 17
q-2 7 -4 22zM360 768q-2 16 -4 22q-25 62 -110 60q-1 -1 -10 -7q-2 -5 -5 -15t-6 -16q-3 -7 -7 -12q1 -13 8 -22q6 -9 7 -13q2 -5 2 -13t3 -12q4 -6 14 -9q9 -3 14 -6q30 -19 42 -22q11 -3 50 7q1 4 3 11l4 12q1 5 1 12q-5 7 -6 23zM406 671l-12 5q-11 5 -16 4q-7 -1 -19 -8
q-13 -7 -17 -8q-12 -3 -29 2t-25 3q-4 -1 -18 -2q-15 -2 -23 -5q-42 -20 -55 -33q-16 -16 -12 -49q0 -2 3 -8t4 -11q0 -4 -3 -13q-2 -6 -12 -33l-10 -30q-3 -10 -7 -34q-4 -23 -8 -33q-3 -9 -5 -33t-7 -37q-2 -5 -8 -15q-7 -9 -9 -13q-3 -7 -7 -20q-3 -13 -4 -15
q-11 -28 -11 -84v-5l-1 -5q-1 -49 -7 -62q-7 -15 -17 -32q-4 -7 -21 -17q-16 -10 -20 -21v-4q1 -19 16 -39q14 -20 32 -15q11 3 55 14t63 16q12 3 35 3t36 4q5 2 16 9q12 6 17 8q13 4 38 2t32 0q15 3 49 -11q34 -15 47 -8q15 8 26 31q12 22 11 42q-1 7 -11 17t-17 15
q-12 8 -50 8t-69 -3t-52 -7q-6 -2 -22 0q-15 1 -21 0t-24 -9q-19 -8 -29 -11q-11 -2 -22 3l-5 3q-2 1 -2 3q0 61 26 123q5 13 42 35q11 6 43 14q5 1 20 6t22 7q12 3 32 4q20 0 26 1q8 2 24 -2q6 -2 20 2q3 1 24 -1t26 -4q1 0 13 -7t22 -4q37 11 45 23q15 23 9 58
q-5 29 -61 38q-6 0 -18 -2q-11 -2 -16 -1q-35 6 -136 -14q-8 -1 -25 -4q-18 -3 -26 -4t-19 -4t-17 -4q-6 -2 -13 -2q-6 0 -9 4t-3 12q0 12 3 26t6 23q3 10 10 27l9 24q1 4 5 27q5 22 8 27q7 11 12 14q6 3 17 3t21 2q7 2 26 8q18 5 29 8q21 5 56 -1q36 -6 44 -6q10 0 30 6
q15 4 59 -7q34 -7 57 35q14 26 -9 39q-56 30 -126 25q-80 -13 -81 -13z" />
    <glyph glyph-name="ellipsis" unicode="&#x2026;" horiz-adv-x="633" 
d="M130 133q5 -2 21 -6t25.5 -8.5t12.5 -11.5q1 -2 -1.5 -22.5t-0.5 -22.5q-3 -18 -19.5 -34t-34.5 -23q-13 -7 -28.5 -3.5t-22.5 10.5q-2 2 -7 6t-7 6.5t-5.5 6.5t-5 7.5t-2.5 9t-0.5 12.5t2.5 15q5 4 18.5 21t21.5 23q5 3 16.5 6.5t16.5 7.5zM337 125q8 -2 20 -3.5
t18 -2.5t13.5 -4.5t6.5 -10l-3 -19.5q0 -3 -1 -16t-1.5 -18.5t-2.5 -14.5t-6.5 -14t-10.5 -7q-11 -9 -43.5 -12.5t-37.5 2.5q-25 23 -14 70q6 5 14.5 22t16.5 22q5 3 15.5 2.5t15.5 3.5zM550 127q6 -2 20.5 -4.5t25 -5.5t14.5 -10q10 -19 -13.5 -54.5t-43.5 -45.5
q-11 -9 -30.5 -10.5t-24.5 4.5q-24 23 -13 74q14 24 28 36.5t37 15.5z" />
  </font>
</defs>
</svg>
