<?xml version="1.0" standalone="no"?>
<!DOCTYPE svg PUBLIC "-//W3C//DTD SVG 1.1//EN" "http://www.w3.org/Graphics/SVG/1.1/DTD/svg11.dtd" >
<svg xmlns="http://www.w3.org/2000/svg" xmlns:xlink="http://www.w3.org/1999/xlink" version="1.1">
<metadata>
Created by FontForge 20170731 at Sun Oct  4 12:37:31 2015
 By Aleksey,,,
Copyright (c) 2015 by Annastasia Samsonova. All rights reserved.
</metadata>
<defs>
<font id="HitchHike" horiz-adv-x="569" >
  <font-face 
    font-family="Hitch Hike"
    font-weight="400"
    font-stretch="normal"
    units-per-em="1000"
    panose-1="2 0 5 6 0 0 0 2 0 3"
    ascent="800"
    descent="-200"
    x-height="349"
    cap-height="717"
    bbox="-270 -464 1130 1046"
    underline-thickness="50"
    underline-position="-200"
    unicode-range="U+000D-F6D4"
  />
<missing-glyph horiz-adv-x="9209" 
 />
    <glyph glyph-name=".notdef" horiz-adv-x="9209" 
 />
    <glyph glyph-name=".null" horiz-adv-x="0" 
 />
    <glyph glyph-name=".null" horiz-adv-x="0" 
 />
    <glyph glyph-name="nonmarkingreturn" horiz-adv-x="333" 
 />
    <glyph glyph-name="CR" unicode="&#xd;" horiz-adv-x="0" 
 />
    <glyph glyph-name="space" unicode=" " horiz-adv-x="160" 
 />
    <glyph glyph-name="exclam" unicode="!" horiz-adv-x="215" 
d="M31 194q10 43 21 83t26.5 89t23 72t29.5 85.5t26 75.5q4 12 13.5 47t16 55.5t21.5 39.5t33 19q21 0 32.5 -9t11.5 -23q0 -9 -3 -18q-13 -37 -46.5 -129.5t-51.5 -142t-49 -122.5t-61 -131q-2 -4 -30 -19q-3 7 -13 28zM73 55q0 -18 -18.5 -42.5t-31.5 -24.5q-15 0 -29 20
t-14 44q0 19 14.5 30.5t37.5 11.5q14 0 23 -7t11.5 -12.5t6.5 -19.5z" />
    <glyph glyph-name="quotedbl" unicode="&#x22;" horiz-adv-x="306" 
d="M178 711q24 0 24 -19q0 -8 -2 -12q-58 -147 -72 -181q-5 -12 -17 -20t-22 -8q-19 0 -19 21q0 5 1 8q32 124 43 176q4 16 13 22.5t28 9t23 3.5zM331 711q25 0 25 -20q0 -7 -3 -14q-31 -81 -68 -175q-5 -12 -17 -20.5t-23 -8.5q-19 0 -19 21q0 2 0.5 4.5t0.5 3.5
q11 44 40 172q9 37 64 37z" />
    <glyph glyph-name="numbersign" unicode="#" horiz-adv-x="588" 
d="M588 593q6 -3 23.5 -9.5t26.5 -10.5q-52 -30 -64 -30q-80 0 -94 -95q-2 -11 -11.5 -40.5t-9.5 -45.5q0 -9 4.5 -15.5t14 -10.5t19.5 -6.5t27 -7t30 -8.5q-37 -31 -56 -31q-41 0 -59.5 -21t-27.5 -64q-15 -68 -51 -175q-2 -6 -6 -11t-14.5 -12.5t-11.5 -8.5q-2 6 -8 15.5
t-10 17t-4 14.5q4 32 31 167q3 15 3 25q0 22 -26 22q-11 0 -18 -1q-20 -4 -46 -7.5t-32 -4.5t-16.5 -8.5t-14.5 -18t-11 -33.5q-28 -88 -55 -155q-5 -12 -11.5 -19.5t-19 -16t-16.5 -11.5q-2 6 -8.5 19t-6.5 19q1 11 19 77q26 93 28 102q2 5 2 15q0 12 -9.5 19.5t-21.5 10.5
t-23.5 11t-13.5 20q0 4 9.5 13t15.5 9q83 0 91 90q1 12 9 37.5t8 35.5q0 14 -15 19.5t-33 5t-33 6t-15 22.5q2 18 30 22.5t58.5 10.5t36.5 27q1 5 7.5 36.5t11 45.5t13.5 36t21.5 32t28.5 10q10 0 17.5 -11t7.5 -25q0 -21 -14.5 -68t-14.5 -59q0 -18 23 -18q5 0 21 2
q18 3 42.5 7t32.5 6t20 6t16 11.5t9 18.5t10 31q2 7 5.5 25.5t7 29.5t9 24.5t14 20t20.5 6.5q34 0 34 -31q0 -12 -8 -45t-8 -47q0 -15 9.5 -20t33.5 -5h15q1 1 1.5 3t0.5 3zM268 307q39 4 77 15q7 1 13.5 7.5t12.5 17.5t10 22.5t8.5 28l7.5 27.5t6.5 28t5.5 24v1
q0 6 -6.5 15.5t-10.5 9.5q-47 -1 -124 -21q-6 -1 -11.5 -11t-10.5 -27.5t-8.5 -32t-8 -35.5t-6.5 -29q-3 -9 -3 -17q0 -23 38 -23h10z" />
    <glyph glyph-name="dollar" unicode="$" horiz-adv-x="472" 
d="M152 483q0 -56 28.5 -91.5t92.5 -65.5q16 -7 54 -20.5t59 -24.5q32 -17 49 -47t17 -64q0 -68 -68 -129t-147 -80q-28 -5 -41 -22t-24.5 -53.5t-21.5 -56.5q-2 -3 -7 -5.5t-11.5 -4.5t-9.5 -3q-10 18 -10 26q0 15 10.5 45t10.5 41q0 25 -33 37q-70 27 -70 90
q0 23 10.5 48.5t33 64t26.5 47.5q1 2 20 10q0 -2 0.5 -7.5t0.5 -8.5q0 -5 -1 -7l-17 -40q-27 -64 -26 -91q0 -69 92 -69q75 0 152.5 52.5t77.5 122.5q0 16 -9.5 29t-29 23.5t-35 16.5t-43 15t-37.5 13q-61 23 -109.5 79.5t-48.5 124.5q0 73 57.5 162t135.5 117q27 9 40 48
q7 28 22 60.5t24 32.5q8 0 13.5 -12.5t5.5 -28.5q0 -13 -7 -33.5t-7 -28.5q0 -12 21 -33t21 -44q-6 -82 -16 -114q-5 -16 -21 -34t-28 -18q-10 0 -18.5 18t-8.5 38q0 8 5 27t5 29q0 24 -21 24q-6 0 -15 -3q-55 -20 -99 -83t-44 -119z" />
    <glyph glyph-name="percent" unicode="%" horiz-adv-x="431" 
d="M91 0q-3 21 -3 43q0 70 45 202q3 10 5 15q34 101 174 472q13 33 22 41q4 4 11 6.5t16 5t14 4.5q1 -5 7 -17.5t6 -18.5v-3q-8 -36 -41 -128q-126 -349 -224 -586q-3 -6 -7.5 -11.5t-13.5 -14t-11 -10.5zM185 7q3 7 14 42.5t20 51.5q19 34 53 74.5t48 40.5q12 0 25 -10
q31 -22 43.5 -35t12.5 -28q0 -19 -31 -73q-25 -46 -58 -82.5t-64 -36.5q-11 0 -19 1.5t-15 9t-9 10t-10 17t-10 18.5zM80 628q4 54 33 110t65 56q21 0 50 -16.5t29 -42.5q0 -33 -43.5 -106t-76.5 -73q-57 0 -57 72zM238 36l13 -26q21 0 24 6q35 51 69 109v2q1 1 1 2
q0 9 -6 18t-13 9q-17 0 -22 -7q-2 -4 -66 -113zM206 719q-2 3 -3.5 8t-2.5 7t-3 4.5t-3.5 3.5t-4.5 1q-9 0 -16.5 -6t-14 -19.5t-10 -22.5t-9.5 -27.5t-7 -21.5v-2q0 -15 10 -15q19 0 64 90zM91 0q0 -1 -3 -19l-2 1q-3 1 -4 2z" />
    <glyph glyph-name="ampersand" unicode="&#x26;" horiz-adv-x="436" 
d="M486 469q-3 -4 -7 -11.5t-8 -13t-8 -9.5q-10 -10 -34.5 -30.5t-39 -33.5t-29 -35t-17.5 -44q-14 -95 -147 -264q-46 -56 -109 -56q-38 0 -62.5 22.5t-24.5 59.5q0 61 20 118t68 143t57 104q7 15 7 42q0 204 138 303q24 18 58 18q48 0 48 -46q0 -26 -13 -54t-40 -39
q0 4 -3.5 10.5t-3.5 9.5q1 5 5.5 18t4.5 22q0 4 -0.5 8t-1.5 9t-1 8q-3 -1 -11 -1t-13.5 -1.5t-8.5 -4.5q-55 -63 -73 -96q-10 -17 -31 -93q0 -5 3 -15.5t3 -14.5q5 2 15 4.5t13 3.5t12.5 5.5t15.5 4.5q7 0 15.5 -4.5t8.5 -10.5q0 -24 -34 -49q-20 -15 -38.5 -34.5
t-31.5 -35t-28.5 -45t-23 -42t-22 -49.5t-17.5 -45t-17.5 -51t-15.5 -46q-7 -21 -7 -38q0 -16 11 -30t30 -14q66 0 177 225v4q0 2 -3 23q-4 -1 -11 -2t-11 -2q-3 -1 -13 -6t-16 -5q-5 0 -35 10q2 3 6.5 16t9.5 18q13 9 39.5 24t31.5 18q21 13 64 42t76.5 49.5t64.5 37.5z
" />
    <glyph glyph-name="quotesingle" unicode="'" horiz-adv-x="151" 
d="M172 717q29 -7 29 -26q0 -3 -2 -11q-55 -145 -70 -183q-5 -11 -18.5 -19t-22.5 -8q-18 0 -18 19q0 2 2 10q27 128 45 182q3 8 12 14t23.5 12.5t19.5 9.5z" />
    <glyph glyph-name="parenleft" unicode="(" horiz-adv-x="290" 
d="M50 101q6 27 23.5 122.5t27.5 140.5t32 115.5t49 122.5q13 24 29.5 49t40 56t34.5 46q15 12 31 12q11 0 33 -2q-10 -33 -14 -37q-84 -83 -135 -250q-50 -171 -62 -240q-10 -56 -10 -190q0 -10 7.5 -28t7.5 -28q0 -4 -0.5 -12t-0.5 -11h-8q-37 0 -56.5 34.5t-19.5 78.5
q0 3 0.5 9t0.5 10q-6 0 -10 2z" />
    <glyph glyph-name="parenright" unicode=")" horiz-adv-x="290" 
d="M260 551q0 -102 -56 -217q-55 -113 -162 -310q-11 -20 -57 -66q-6 -4 -32 -7q0 4 -1.5 12.5t-1.5 12.5q0 8 6 21.5t11.5 23t17 27t13.5 21.5q135 222 188 411q18 62 18 113q0 74 -34 139q-2 3 -2 11q0 3 0.5 9.5t0.5 9.5q4 -1 12 -2t13.5 -2.5t9.5 -4.5q56 -55 56 -147
v-55z" />
    <glyph glyph-name="asterisk" unicode="*" horiz-adv-x="260" 
d="M280 611q2 -1 8 -3.5t9 -6t3 -10.5q0 -14 -14.5 -31t-14.5 -29q0 -6 3 -18t3 -18q0 -12 -7 -21.5t-21 -9.5t-29 23t-26 23q-10 0 -30 -21.5t-35 -21.5q-14 0 -14 14q0 16 6 22q24 30 24 39q0 7 -5 9.5t-12.5 4t-21 9.5t-26.5 23q1 1 6 7t8.5 9t8.5 4q25 9 56.5 31
t46.5 42l4 5q36 22 40 25v-47q-8 -20 -8 -34q0 -20 24 -20q9 0 14 1z" />
    <glyph glyph-name="plus" unicode="+" horiz-adv-x="409" 
d="M51 291q14 -1 36 -4t32 -3q32 0 51.5 16.5t19.5 44.5q0 5 -2 17t-2 18q0 37 23.5 65t62.5 28q7 0 13 -10.5t6 -26.5v-6q-13 -51 -32 -103q-4 -12 -4 -15q0 -18 24 -18q14 0 40.5 8t40.5 8q7 0 20 -3t19 -3q-3 -3 -10 -10.5t-13 -12.5t-12 -7q-13 -5 -53.5 -12t-62 -19
t-28.5 -37q-4 -11 -13 -37t-16.5 -45t-16.5 -39.5t-19 -32t-19 -11.5q-16 0 -24 9t-8 21q0 9 3 18l34 113q4 18 4 21q0 10 -7.5 14.5t-26.5 7.5l-53 4q-2 0 -8 1l-9 1.5t-7.5 2t-7 3.5t-4.5 5.5t-2 7.5q0 12 31 21z" />
    <glyph glyph-name="comma" unicode="," horiz-adv-x="141" 
d="M10 -90q6 14 23.5 59.5t27.5 68.5q3 4 9.5 6.5t18.5 5t15 3.5q0 -5 3.5 -17t3.5 -18q0 -5 -1 -7q-10 -29 -14.5 -41t-16 -37.5t-23 -36.5t-23.5 -11q-3 1 -6 5t-8 10t-9 10z" />
    <glyph glyph-name="hyphen" unicode="-" horiz-adv-x="437" 
d="M269 206h-203q-46 9 -46 34q0 16 27 24.5t58 8.5q259 0 306 -18q15 -7 16 -14q0 -41 -121 -41h-37v6z" />
    <glyph glyph-name="period" unicode="." horiz-adv-x="151" 
d="M121 55q0 -21 -18 -44t-36 -23t-37.5 18.5t-19.5 36.5q0 24 21 42t47 18q16 0 29.5 -14.5t13.5 -33.5z" />
    <glyph glyph-name="slash" unicode="/" horiz-adv-x="361" 
d="M411 728q-6 -26 -11 -36q-54 -111 -153 -312t-131 -266q-24 -47 -72 -110q-3 -4 -9 -6t-14.5 -4t-12.5 -3q-8 27 -8 33q0 5 1 7q24 61 56 127.5t78 156t66 129.5l96 195q3 6 14 32.5t17.5 37.5t22 23.5t34.5 12.5q4 0 8.5 -3t9.5 -7.5t8 -6.5z" />
    <glyph glyph-name="zero" unicode="0" horiz-adv-x="426" 
d="M20 153q13 136 78.5 266.5t172.5 231.5q9 8 20.5 13t31 10.5t25.5 7.5q12 0 20 -6t8 -15t-8.5 -22.5t-8.5 -20.5q0 -9 11 -22q36 -42 36 -111q0 -168 -77 -276q-58 -83 -119 -158q-13 -21 -43 -33t-54 -12q-93 0 -93 147zM370 455q-1 8 -3.5 26.5t-4 29.5t-5.5 26
t-9 23.5t-14 15t-21 6.5q-22 0 -37 -19q-91 -113 -138 -211t-56 -216q0 -2 -0.5 -5t-0.5 -4q0 -29 12 -49.5t29 -20.5q14 0 26 11q97 69 158.5 171.5t63.5 215.5z" />
    <glyph glyph-name="one" unicode="1" horiz-adv-x="276" 
d="M30 64q8 42 15 64q25 73 75 220t75 221v2q0 1 -1 1q-4 0 -53 -33t-63 -33q-6 0 -14 6.5t-8 10.5q4 13 17 23q4 4 46 44t79.5 74t49.5 42q6 3 51 8q0 -2 3.5 -17t3.5 -21q0 -7 -1 -10q-21 -61 -62.5 -173.5t-73.5 -205t-57 -176.5q-4 -14 -5.5 -44.5t-6 -49.5t-17.5 -19
q-38 0 -53 66z" />
    <glyph glyph-name="two" unicode="2" horiz-adv-x="406" 
d="M396 622q-7 -65 -58 -140q-28 -40 -83 -115t-79 -110q-2 -2 -19 -40q3 0 9.5 -0.5t10.5 -0.5q3 0 20.5 3t44.5 5.5t54 2.5q26 0 63 -1t39 -1q5 -1 9.5 -4t10 -7.5t8.5 -6.5q-1 -1 -9 -11t-13 -12q-10 -4 -46.5 -6t-79.5 -8t-91.5 -20t-94.5 -49.5t-75 -89.5q-2 -2 -9 -10
t-10 -11.5t-9.5 -7t-12.5 -3.5q-12 0 -24 12t-12 22q0 9 20 42q34 61 79.5 125.5t104.5 141t89 118.5q29 41 101 175q7 14 7 24q0 17 -12.5 32.5t-29.5 15.5q-14 0 -37.5 -16t-36.5 -16q-2 0 -8 1t-9 1q0 28 33.5 49.5t72.5 21.5q26 0 54 -34.5t28 -71.5z" />
    <glyph glyph-name="three" unicode="3" horiz-adv-x="477" 
d="M-80 -57q1 24 10.5 47.5t30 48t35.5 39t45 41t39 35.5q2 2 9 3t10 3q-5 -18 -15.5 -35.5t-26 -37.5t-22.5 -30q-49 -77 -49 -97t23 -20q9 0 13 3q106 67 183.5 161t150.5 224q12 17 22 47t10 49q0 39 -42 39q-20 0 -43 -7.5t-35 -14t-39.5 -23.5t-33.5 -21
q-20 -13 -33 -13q-10 0 -20.5 12t-10.5 25q0 17 22 37q112 104 199 192q6 6 10 14t8.5 19t7.5 17q-7 1 -24 5t-25 4q-14 0 -32 -6t-46 -20t-31 -16q-4 -2 -10 -7t-11.5 -7.5t-13.5 -2.5q-7 0 -8 1t-1 7v2q0 10 2 12q44 33 63 46.5t57.5 31t69.5 17.5q27 0 52.5 -28.5
t25.5 -49.5q0 -19 -47 -75.5t-47 -67.5t22 -14q41 -8 67 -36t26 -65q0 -17 -6 -35q-36 -111 -104.5 -209t-172.5 -212q-17 -18 -38.5 -33.5t-55.5 -35.5t-45 -27q-28 -24 -47 -24q-29 0 -53.5 28t-24.5 60z" />
    <glyph glyph-name="four" unicode="4" horiz-adv-x="424" 
d="M165 32q40 146 79 269q3 13 3 22q0 21 -20 21q-13 0 -31 -4t-30.5 -7.5t-36.5 -11t-30 -9.5q-10 -3 -35 -19t-42 -16q-12 0 -12 34q0 17 18 26q26 19 49.5 48.5t35.5 49.5t33 60q15 30 31 64.5t34.5 76t29.5 65.5q5 9 20 20q1 -3 8 -12t7 -12v-2q-9 -34 -54.5 -134.5
t-65.5 -135.5q-2 -5 -3 -16t-3 -16q4 0 12 -0.5t12 -0.5q35 0 73 12t48 38q14 37 42.5 104.5t38.5 91.5q24 62 40 75q10 8 19 8q19 0 19 -14q0 -39 -42 -154.5t-42 -122.5q0 -19 16 -36v-2q0 -5 -5.5 -15t-9.5 -10q-21 -6 -31 -20.5t-17 -38.5q-67 -231 -67 -241
q-2 -27 -22 -59t-40 -32q-12 0 -18 13.5t-11 42.5z" />
    <glyph glyph-name="five" unicode="5" horiz-adv-x="416" 
d="M199 302q-15 -17 -49 -53t-51 -56t-37.5 -53t-31.5 -66q-3 -8 -3 -15q0 -4 0.5 -7.5t1.5 -8t1 -7.5q32 6 36 10t44.5 41t58.5 58q62 75 138 176q17 23 33 55t16 49q0 41 -66 41q-52 0 -126 -36q-4 -2 -13 -8t-16.5 -9t-14.5 -3q-15 0 -26 13.5t-11 27.5q0 16 9 39
q8 20 36.5 96t45.5 117q12 30 41 30q16 0 38.5 -22t36.5 -22q10 0 31 8t50 20.5t43 17.5h4q4 0 14 -2.5t14 -2.5q-1 -3 -3 -10.5t-4 -12.5t-6 -8q-67 -57 -141 -57h-10q-51 0 -66 -46q-4 -12 -13 -31t-14.5 -33t-5.5 -24q0 -16 20 -16q17 0 51 6t49 7q46 0 72.5 -23
t26.5 -61q0 -26 -16 -65.5t-38 -67.5q-69 -88 -213 -258q-21 -24 -49 -40.5t-54 -16.5q-29 0 -45.5 21.5t-16.5 47.5q0 14 4 26q12 37 34.5 71.5t60 69.5t56.5 51t64 51q3 -2 10 -9z" />
    <glyph glyph-name="six" unicode="6" horiz-adv-x="417" 
d="M10 93q1 48 12.5 97t37 106.5t43 92.5t56.5 103.5t51 91.5q1 2 7.5 14.5t9.5 17.5t10 17t11 18t10.5 16t11.5 15l11 11t12 8.5t11 2.5q14 0 22 -7t8 -18q0 -8 -4 -18q-43 -76 -96 -173q-9 -17 -28 -49.5t-32.5 -58.5t-23.5 -51q-19 -46 -47.5 -134.5t-28.5 -98.5
q0 -13 7.5 -30.5t17.5 -17.5q15 0 37 14q119 84 205 224q19 32 19 47t-12 27t-25 12q-22 0 -67.5 -30.5t-73.5 -33.5q6 41 56.5 72.5t97.5 31.5q34 0 52.5 -16.5t18.5 -47.5q0 -74 -88 -164q-80 -90 -164 -173q-24 -24 -62 -24q-28 0 -46 8.5t-25.5 26t-9.5 32.5t-2 39z" />
    <glyph glyph-name="seven" unicode="7" horiz-adv-x="423" 
d="M112 342h-3q-3 -1 -5 -1q-7 0 -14 6t-7 11q0 4 4 9.5t9 6.5q14 4 33.5 7.5t29 6t21 7t20 12t16.5 20.5q78 120 108 168q2 4 4 14t4 14q-4 0 -13 2.5t-13 2.5q-7 0 -19.5 -2t-18.5 -2q-41 0 -80 24.5t-39 63.5q0 13 7 19.5t15 6.5q13 0 29 -16q35 -35 73 -35
q19 0 48.5 12.5t71.5 34.5t61 31q6 2 12 2q13 0 19 -6t6.5 -10t0.5 -15q0 -8 -4 -18q-28 -45 -87.5 -131.5t-86.5 -130.5q-6 -8 -6 -21q0 -11 5.5 -15t20.5 -4q6 0 17 1.5t17 1.5q18 0 23 -18q1 -4 -13 -10t-29 -10t-20 -4h-12q-54 0 -81 -47q-109 -185 -173 -358
q-13 -33 -34 -66q-2 -3 -10.5 -6t-12.5 -6q-1 2 -2.5 6.5l-2.5 7.5t-1 6v2l1 2q27 162 105 313q4 8 18.5 33.5t21.5 41t7 23.5q0 13 -27 13h-14z" />
    <glyph glyph-name="eight" unicode="8" horiz-adv-x="347" 
d="M0 93q32 82 39 95q11 21 38.5 58t45 68t17.5 56q0 14 -5.5 44.5t-5.5 45.5q0 84 59.5 162.5t141.5 78.5q20 0 33.5 -13t13.5 -34q0 -16 -3.5 -36t-7.5 -34t-10.5 -36.5t-9.5 -32.5q0 -3 -3 -5t-8.5 -4t-7.5 -4q-8 16 -8 21q0 17 8 49.5t8 48.5q0 30 -21 30q-14 0 -30 -7
q-96 -58 -96 -178q0 -31 28 -31q1 0 3 0.5t4 0.5q4 0 32 13.5t35 13.5q3 0 3 -3q0 -6 -21.5 -36.5t-22.5 -35.5q0 -2 -1.5 -3.5l-3 -3t-3 -3.5t-2.5 -3q-22 -33 -22 -56q0 -16 18 -59q20 -50 20 -72q0 -52 -58 -118t-123 -71q-41 0 -57.5 19.5t-16.5 74.5zM188 196
q-1 3 -2.5 13t-3 16t-6 13.5t-12.5 12.5q-7 0 -29.5 -28t-43.5 -70t-21 -72q0 -19 17 -19q7 0 18 6q77 44 83 128z" />
    <glyph glyph-name="nine" unicode="9" horiz-adv-x="381" 
d="M210 343q4 12 4 15q0 12 -18 12q-5 0 -15 -1t-14 -1q-63 0 -63 57q0 68 38 142.5t95 121.5q11 9 25 17t33 16t28 13q21 -4 33 -17t14.5 -26t11 -23.5t23.5 -11.5q26 -2 26 -23q0 -11 -6 -23q-61 -115 -90.5 -172t-71.5 -153t-68 -180q-3 -6 -8 -15t-21.5 -33t-35 -42.5
t-46 -33.5t-55.5 -15q-29 0 -50.5 8t-30 16.5t-8.5 15.5q0 15 21.5 27.5t52.5 13.5q33 2 64 28.5t53 68.5t37 79.5t27.5 76t14.5 42.5zM336 621q-3 8 -11 26t-11 26q-4 -2 -19 -7.5t-23.5 -10t-15.5 -11.5q-74 -77 -97 -184q-1 -2 -1 -7q0 -4 5 -34q1 0 18 3.5t25 8.5
q46 28 83 83.5t47 106.5z" />
    <glyph glyph-name="colon" unicode=":" horiz-adv-x="176" 
d="M104 59q0 -17 -18.5 -38t-34.5 -21q-15 0 -33 18.5t-18 34.5q0 19 15.5 34t41.5 15q17 0 31.5 -12.5t15.5 -30.5zM127 391q3 -1 12.5 -4t14 -5.5t10.5 -7t9 -11t3 -15.5l-1 -4q-10 -3 -15 -13t-6 -20t-7 -18t-18 -8q-19 0 -36 19t-17 41q0 41 51 46z" />
    <glyph glyph-name="semicolon" unicode=";" horiz-adv-x="185" 
d="M67 99q3 -2 11.5 -5t12 -6.5t3.5 -9.5q0 -8 -5 -19t-17.5 -28t-19.5 -26t-24 -29.5t-18 -21.5q-3 -3 -8.5 -5.5t-12 -4.5t-9.5 -3q-10 20 -10 25q0 4 1 5q24 53 62 116q2 3 7.5 5t13.5 3.5t13 3.5zM144 400q37 0 41 -35q0 -17 -23.5 -41.5t-38.5 -24.5q-19 0 -31 14
t-12 33q0 22 19.5 38t44.5 16z" />
    <glyph glyph-name="less" unicode="&#x3c;" horiz-adv-x="281" 
d="M276 380q4 -2 9.5 -5t8.5 -4.5t5 -5t2 -8.5q0 -14 -6 -20q-15 -13 -42.5 -37.5t-49.5 -43t-43 -33.5q-5 -3 -12.5 -8.5t-11 -8t-9 -6.5t-8 -6t-6.5 -5.5t-5 -5.5t-3 -5t-2.5 -5.5t-0.5 -5.5q0 -7 16 -30.5t32 -54.5t16 -56q0 -7 -4.5 -14.5t-10.5 -7.5q-8 0 -17.5 6
t-20.5 18.5t-18.5 22t-19 26t-14.5 20.5q-61 80 -61 98q0 16 18 27q37 23 108.5 70t106.5 69q6 4 21 9.5t22 9.5z" />
    <glyph glyph-name="equal" unicode="=" horiz-adv-x="375" 
d="M262 268q-133 8 -145 9q-24 0 -37.5 9.5t-26.5 31.5q3 2 9 7t11.5 8.5t9.5 3.5q26 0 73.5 -2t62.5 -2l89 -6q3 0 11 -1t11 -1.5t9 -2t9.5 -4t8 -6t9 -9t9.5 -13.5q-12 -8 -28 -13t-27 -6t-30.5 -1.5t-27.5 -1.5zM117 122q13 1 43 5.5t53 6.5t44 2q12 0 47 -29
q-3 -3 -11.5 -11t-14.5 -12.5t-12 -5.5q-127 -5 -231 -5q-12 0 -23.5 10.5t-11.5 21.5q0 4 1.5 7.5t5.5 5.5l8 4t10 2.5t11 1.5t12.5 1h11.5h11.5h9.5h36v-5z" />
    <glyph glyph-name="greater" unicode="&#x3e;" horiz-adv-x="299" 
d="M-4 -1q-2 1 -7.5 3.5t-7 3t-5 2.5t-4 3.5l-1.5 4.5t-1 6q0 33 141 133q49 34 55 44q3 6 3 12q0 14 -35 64q-31 43 -31 75q0 9 5 16.5t11 7.5q8 0 17.5 -6.5t20 -18t19 -22t19 -25t14.5 -19.5q60 -77 60 -100q0 -16 -16 -25q-185 -120 -257 -159z" />
    <glyph glyph-name="question" unicode="?" horiz-adv-x="356" 
d="M316 776q41 0 65.5 -20.5t24.5 -56.5q0 -35 -18 -78t-35 -69.5t-46 -67.5q-17 -24 -47.5 -67t-55.5 -78.5t-47 -67.5q-3 -4 -10 -36q60 5 77 10q-18 -31 -24 -36q-2 -2 -15 -12t-17.5 -14t-16 -12t-19 -11.5t-16.5 -6.5t-17 -3q-48 0 -48 50q0 28 49 101
q34 51 102.5 150.5t100.5 148.5q13 18 25.5 47t12.5 44q0 30 -29 30q-38 0 -76 -22t-59 -55q-1 -2 -6.5 -12.5t-10 -17.5t-11.5 -14t-14 -7q-22 0 -22 36q0 21 29.5 56t58.5 54q14 9 31 16.5t45.5 16.5t36.5 12zM55 75q23 0 37 -10.5t14 -27.5q0 -18 -20.5 -38t-39.5 -20
q-20 0 -33 16t-13 37q0 43 55 43z" />
    <glyph glyph-name="at" unicode="@" horiz-adv-x="634" 
d="M169 -35q-12 -3 -23 -3q-58 0 -102 50t-44 109q0 43 24 89q116 228 298 350q101 68 191 68q54 0 87.5 -34.5t33.5 -86.5q0 -18 -5 -41q-11 -42 -33 -88.5t-40 -74.5t-52 -78q-3 -5 -14 -21.5t-16.5 -24t-16 -22.5t-17.5 -23t-18 -20.5t-19.5 -19t-19 -13.5t-21 -10
t-20.5 -3q-23 0 -39.5 16t-20.5 43q-2 8 -3 18.5t-1.5 16t-3.5 9.5t-9 4q-5 0 -23 -6.5t-25 -6.5q-41 0 -41 56q0 53 47 105t96 52q27 0 56.5 -10.5t29.5 -26.5q0 -12 -6.5 -34.5t-19.5 -57.5t-16 -44q0 -1 -0.5 -3t-0.5 -3q0 -3 6 -27q3 2 12.5 7t12.5 9q4 6 22.5 31t24 33
t21 31t22.5 34t19.5 32t20 36t16 34.5t14.5 37.5q13 28 13 59q0 24 -18.5 39t-43.5 15q-16 0 -37 -7q-124 -44 -217.5 -140t-171.5 -231q-24 -50 -24 -96q0 -22 8 -39.5t27.5 -34t34 -26t45.5 -28.5zM223 230q0 -1 1.5 -3.5l3 -5t4.5 -4.5t6 -2q27 0 54 37t27 69
q0 10 -17 10q-23 0 -50.5 -34t-28.5 -67z" />
    <glyph glyph-name="A" unicode="A" horiz-adv-x="446" 
d="M416 674q-26 -140 -37 -211q-4 -15 -4.5 -57t-6.5 -52q-16 -30 -23 -64.5t-10 -78.5t-7 -67q0 -6 14 -22t14 -26q0 -35 -24.5 -78t-52.5 -43q-17 0 -26.5 30t-9.5 61q0 34 5 72.5t12.5 84.5t10.5 71v2q0 6 -7.5 15t-12.5 9q-26 -2 -41 -6t-31.5 -17.5t-26.5 -37.5
q-17 -41 -53.5 -117.5t-45.5 -95.5q-11 -23 -24 -33q-3 -3 -13.5 -6t-13.5 -4q0 4 -1 11.5t-1 10.5q0 7 2 10l98 211q4 8 4 16q0 6 -1.5 10t-5.5 6t-6.5 2.5t-10 1t-10.5 0.5t-10 -1t-10 -1q-13 0 -28 26q17 15 73 30t70 43q16 29 67 126t79 149q42 89 73 89q9 0 19 -18.5
t10 -28.5q0 -4 -0.5 -11t-0.5 -11h4zM250 373h4q30 -1 38 37q2 12 8.5 35.5t10 43t3.5 35.5q0 4 -5 26q-2 -2 -11.5 -9.5t-12.5 -12.5q-21 -39 -61 -121q-7 -16 -7 -21q0 -13 33 -13z" />
    <glyph glyph-name="B" unicode="B" horiz-adv-x="461" 
d="M145 -48q-13 26 -13 45q0 18 11.5 34t22.5 16q4 0 15.5 -23t29.5 -23q15 0 38 28q101 119 127 212q4 11 4 24q0 23 -16.5 42.5t-38.5 19.5q-32 0 -70 -20t-58 -50l-8 -9q-39 -24 -56 -61t-26 -93q-2 -11 -6.5 -20t-8 -13t-12 -12.5l-11.5 -11.5q-3 4 -11 12.5t-12.5 15
t-5.5 12.5q-6 48 -6 75q0 22 3 45q16 104 57 332q12 72 51 72q26 0 35.5 -8t9.5 -26q0 -42 -17.5 -126.5t-18.5 -94.5q-1 -2 -1 -5q0 -18 14 -18q11 0 30.5 17.5t29.5 33.5q51 85 149 255q13 13 13 53q0 31 -19 49.5t-52 18.5q-57 0 -124 -36.5t-119 -86.5q-9 -9 -16 -12.5
t-15 -5t-13 -3.5q0 4 -0.5 11t-0.5 10q0 10 3 13q48 58 133 104t163 46q46 0 74.5 -28t28.5 -77q0 -3 -0.5 -8t-0.5 -7v-11q0 -23 -8.5 -49.5t-16 -40t-24.5 -43.5q-8 -13 -29.5 -45t-36 -56t-14.5 -35q0 -13 25 -14q49 -4 81.5 -42t32.5 -85q0 -19 -8 -43
q-37 -98 -107 -187.5t-132 -89.5q-26 0 -49 23z" />
    <glyph glyph-name="C" unicode="C" horiz-adv-x="498" 
d="M462 613q2 -6 2 -20q0 -23 -8.5 -45.5t-18.5 -22.5q-11 0 -18 24v-1q-1 0 -10.5 22t-26.5 44.5t-36 22.5q-20 0 -42 -16.5t-30.5 -27t-29.5 -38.5q-87 -113 -143 -272q-30 -87 -30 -119q0 -48 36.5 -69t85.5 -21q137 0 288 109q4 3 8 3q9 0 9 -16t-8 -35.5t-21 -28.5
q-7 -5 -49.5 -37t-60.5 -43.5t-53.5 -32.5t-65.5 -29t-60 -8q-58 0 -95.5 31t-51 73.5t-13.5 95.5q0 81 28 165q70 215 170 338q70 85 121 85q46 0 77 -39.5t46 -91.5z" />
    <glyph glyph-name="D" unicode="D" horiz-adv-x="546" 
d="M297 722h12q92 0 159.5 -60t67.5 -165q0 -107 -43 -201q-84 -185 -228 -301q-15 -13 -38 -23t-40 -10t-45.5 22.5t-44.5 22.5q-4 0 -10.5 -1t-9.5 -1q-26 0 -28 24q-9 72 -9 99q0 20 3 41q9 53 30.5 150.5t27.5 128.5q2 10 2 31v18q0 27 5 52.5t20.5 48t39.5 22.5
q22 0 36 -13.5t14 -39.5q-5 -62 -15 -104q-12 -52 -35 -150.5t-33 -144.5q-2 -8 -2 -15q1 -5 4 -12.5t4 -9.5q17 8 19 12q28 33 58 33q13 0 13 -10q0 -6 -26 -41.5t-26 -57.5q0 -6 3 -18.5t4 -16.5q35 5 39 10q51 47 89.5 88.5t83.5 100.5t70 122.5t25 125.5
q0 106 -57.5 153.5t-149.5 47.5q-117 0 -219 -60q-3 -2 -37 -5q2 4 5 13.5t6 16t7 8.5q84 38 151 57q13 4 29.5 6t37 3.5t31.5 2.5z" />
    <glyph glyph-name="E" unicode="E" 
d="M137 5q120 44 164 64q13 6 273 130q10 5 29.5 6t25.5 2q-23 -34 -32 -40q-2 -2 -37 -26t-40.5 -28t-37 -25t-42 -27t-37.5 -23t-43 -24t-40 -19.5t-45.5 -20.5t-44.5 -15q-66 -22 -112 -22q-67 0 -107.5 33.5t-40.5 80.5q0 29 15 60q60 128 174 260q10 11 29.5 27.5
t31 28.5t11.5 22q0 12 -12 24q-33 33 -33 88q0 64 43.5 124t104.5 60q37 0 62 -31t25 -66q0 -11 -3 -19t-5.5 -11.5t-9.5 -10t-10 -9.5q-13 24 -13 38q0 2 0.5 6.5t0.5 6.5q0 20 -15 32.5t-29 12.5q-43 0 -69 -46t-26 -92q0 -21 7 -34.5t20.5 -19.5t26 -8.5t32.5 -5t30 -4.5
q5 -1 16 -5.5t16 -5.5q-2 -4 -4.5 -12t-5 -13.5t-6.5 -8.5q-3 -2 -56 -30q-86 -44 -162 -159q-99 -151 -99 -196q0 -42 69 -42q2 0 4 0.5t3 0.5z" />
    <glyph glyph-name="F" unicode="F" horiz-adv-x="502" 
d="M611 677q0 -43 -26 -43q-13 0 -30 8.5t-28 17t-13 10.5q-4 7 -18 7h-5q-250 -49 -257 -51q-15 -4 -25 -33t-18.5 -88.5t-9.5 -64.5q-3 -16 -3 -26q0 -24 26 -24q18 0 55.5 4t56.5 4q4 0 23 -13q-42 -24 -140 -39q-39 -6 -46 -48q-2 -16 -8.5 -69.5t-11 -85.5t-12 -72.5
t-16 -60.5t-18.5 -20q-11 0 -18 17.5t-13 50t-7 34.5q20 142 27 186q1 4 1 13q0 17 -23.5 27t-23.5 18q9 21 19 22q28 4 39.5 21t15.5 49q3 29 13 81.5t13 71.5v1q0 3 -8 12t-12 9t-15 -3t-17 -3q-28 0 -28 30q0 23 39 29q331 60 475 79q3 1 10 1q21 0 34.5 -9.5t13.5 -25.5
q0 -13 -11 -24z" />
    <glyph glyph-name="G" unicode="G" horiz-adv-x="506" 
d="M455 425q17 -13 17 -39v-6q-7 -37 -22 -107.5t-21 -105.5q0 -6 -7 -27q-1 -11 -6 -33t-5 -34q0 -30 23 -50q9 -9 9 -20q0 -17 -21 -40t-46 -23q-38 0 -51 83q-84 -69 -147 -69q-45 0 -80 39.5t-51.5 95.5t-16.5 114q0 167 105 341q161 273 252 273q26 0 45 -19.5
t27.5 -49.5t12.5 -57t4 -52q0 -60 -26 -60t-26 60q1 4 0.5 16t-10 25.5t-28.5 13.5q-10 0 -21.5 -4.5t-23 -13.5t-22.5 -18.5t-23 -24t-21 -25t-20 -26t-16.5 -23.5t-13.5 -20.5t-9 -13.5q-137 -205 -137 -317q0 -53 32 -94.5t77 -41.5q77 0 173 118q1 26 4 57t5.5 52
t2.5 26q0 11 -18.5 21.5t-19.5 12.5q-5 5 -25 32q16 6 36 17q4 -3 6 -9q11 4 30.5 12t34 12t27.5 4q5 0 11 -2z" />
    <glyph glyph-name="H" unicode="H" horiz-adv-x="509" 
d="M310 92q11 76 37 238q2 18 2 22q0 19 -19 19q-4 0 -22 -2q-14 -3 -46 -7t-50.5 -7.5t-36.5 -16.5t-23 -35q-3 -13 -9 -43.5t-10.5 -52t-11 -51.5t-12.5 -50.5t-12.5 -40.5t-13.5 -30t-13 -10q-17 0 -17 21q0 6 2 16.5t2 12.5q10 72 36 212q1 7 1 18q0 15 -8 20t-31 5
q-3 0 -11 -1t-12 -1q-22 0 -22 19q0 8 2 13t8 7.5t9.5 3.5t12.5 1.5t12 0.5q39 5 49 14t17 47q3 16 7.5 54t9 68.5t12 63t19 51t26.5 18.5q8 0 16.5 -11.5t8.5 -19.5q-1 -38 -21 -116.5t-20 -119.5q0 -22 24 -22q48 0 106 11.5t60 34.5q16 76 51 262q0 2 1.5 9.5l2 10t2.5 8
t5 7.5t7.5 5.5t11.5 4.5t16 1q34 0 34 -36q0 -10 -1 -15q-5 -50 -38 -230l-3 -6q0 -5 2 -14t2 -14q0 -26 -18 -71.5t-20 -69.5q-2 -26 -7 -54.5t-12.5 -63.5t-10.5 -55q-3 -15 -11 -64t-14 -76q0 -4 -3 -7.5t-7.5 -8.5t-6.5 -8q-2 2 -9 6.5t-11 8t-5 7.5q-7 32 -16 109z" />
    <glyph glyph-name="I" unicode="I" horiz-adv-x="301" 
d="M84 141q20 157 72 436q0 1 0.5 3.5t0.5 3.5q0 12 -14.5 24.5t-31.5 21t-31.5 20.5t-14.5 25q0 14 19 14q21 0 53.5 -12t46.5 -12q26 0 75 24.5t76 24.5q16 0 16 -11q0 -14 -6 -18q-11 -10 -35.5 -27.5t-40 -33t-19.5 -32.5q-29 -132 -81 -483q-1 -4 -1 -11q0 -26 30 -26
q2 0 5.5 1t5.5 1q4 0 9.5 -3.5t11.5 -8t9 -5.5q-15 -20 -19 -21q-15 -4 -47 -10.5t-47 -11.5q-9 -3 -29 -11t-36.5 -13t-29.5 -5q-6 0 -17 2t-14 2q2 4 4.5 13t5.5 15t8 8q21 16 52 41.5t31 28.5h-1q-2 0 -8 18.5t-6 27.5h-2z" />
    <glyph glyph-name="J" unicode="J" horiz-adv-x="337" 
d="M14 245q0 1 -0.5 4t-0.5 5q0 6 12 25q2 -2 8.5 -7t8.5 -8q5 -13 13.5 -37.5t14 -39t14.5 -34t20 -36.5q1 2 9 14.5t9 19.5q6 32 32 193.5t46 246.5q2 10 2 14q0 14 -12.5 24t-27.5 15.5t-27.5 16.5t-12.5 26t22 15q14 0 47 -13t52 -13q22 0 66.5 20t68.5 20
q5 0 15.5 -3.5l13.5 -4.5q-10 -29 -14 -31q-18 -12 -50.5 -25t-47.5 -27t-19 -45q-48 -292 -88 -508q-8 -36 -28.5 -68.5t-43.5 -32.5q-14 0 -26.5 10.5t-22 31t-17 41t-14.5 51.5t-10.5 50t-9 49.5t-6.5 38.5q1 0 2 1t2 1z" />
    <glyph glyph-name="K" unicode="K" horiz-adv-x="436" 
d="M426 -133q60 -89 60 -117q0 -12 -11 -12q-5 0 -11.5 2t-11.5 4l-4 3q-22 21 -41.5 43t-37.5 51t-30.5 47t-29.5 56t-24 52t-23.5 59.5t-19.5 53t-20.5 60t-18.5 54.5q-17 45 -32 45q-12 -1 -16.5 -7.5t-5.5 -24t-1 -18.5q-2 -12 -8 -50.5t-10.5 -61t-13 -51t-21.5 -42.5
t-30 -14q-19 0 -27 9t-8 32q0 19 5 48t11 52t12 45t7 24q21 118 78 406q1 7 2 27t3 32.5t6 17.5q3 2 12 9t14.5 10t12.5 6.5t13 3.5q13 0 20 -11.5t7 -26.5q0 -10 -1 -15q-33 -166 -37 -185q0 -2 -1 -6t-1 -6q0 -3 6 -39q25 14 31 21l176 241q4 7 9 11t12.5 5.5t11.5 2t14 0
t12 -0.5q-1 -3 -1.5 -9t-1 -10.5t-2 -9.5t-3.5 -8q-171 -240 -203 -282q-22 -30 -22 -53q0 -16 11 -40q17 -36 43.5 -105.5t34.5 -88.5q31 -77 105 -239z" />
    <glyph glyph-name="L" unicode="L" horiz-adv-x="443" 
d="M226 672q-9 -54 -24.5 -151.5t-28.5 -179t-26 -153.5q-1 -4 -6.5 -41.5t-10.5 -56.5q-2 -7 -2 -19q0 -24 28 -24q26 0 79 6t79 6q11 0 21.5 -1t21.5 -3t18.5 -3.5t20 -5.5t18 -6t20.5 -7t20 -7q4 -2 7 -7t6.5 -12.5t5.5 -10.5q-13 -3 -25 -3q-7 0 -11 1q-69 20 -144 20
q-92 0 -217 -33q-2 -1 -4.5 -2t-4.5 -2t-3 -1q-9 0 -34 14q3 7 19.5 33.5t16.5 37.5q-2 30 -2 46q0 50 7 103.5t19.5 123.5t17.5 103q31 222 35 261q5 48 34 48q18 0 31.5 -10t13.5 -34q0 -4 -0.5 -14t-0.5 -14q1 -2 5 -2z" />
    <glyph glyph-name="M" unicode="M" horiz-adv-x="530" 
d="M325 33q6 35 13 75t15.5 89t13.5 76q6 31 7 52q0 4 -7 20q-16 -13 -16 -14q-18 -41 -48.5 -121.5t-45.5 -116.5q-2 -5 -6.5 -9.5l-10.5 -10.5l-9 -9q-3 4 -9 11t-9.5 12.5t-4.5 11.5q-8 48 -20.5 139t-18.5 129q-2 10 -7.5 29t-7.5 29q-16 -46 -17 -54l-32 -272
q-5 -64 -34 -64q-18 0 -29.5 37t-11.5 71q0 9 1 13q8 82 30.5 230.5t29.5 209.5q5 50 42 50q22 0 35.5 -11.5t19.5 -34.5t8 -42.5t3 -51.5t2 -45q18 -195 22 -234q0 -5 2.5 -10t7 -12t6.5 -11l11.5 11.5t12.5 16.5q150 318 208 455q10 23 34 23q45 0 45 -31q0 -15 -10.5 -47
t-12.5 -41q-72 -315 -108 -491q-3 -11 -7.5 -41t-9 -49.5t-16 -36.5t-28.5 -17q-10 0 -18.5 18t-8.5 34q0 6 0.5 17t0.5 17q-2 0 -4 0.5t-3 0.5z" />
    <glyph glyph-name="N" unicode="N" horiz-adv-x="533" 
d="M196 520q-2 -8 -10 -28t-10 -32q-13 -65 -37 -198t-37 -200q-5 -23 -24 -52q-4 -4 -9.5 -7t-13 -5.5t-11.5 -4.5q0 1 -6.5 15.5t-6.5 21.5q0 11 1.5 22t5 25.5t4.5 21.5q8 44 23 128.5t23 125.5l41 193q2 11 5 37t5.5 41.5t12.5 29t26 13.5q29 0 35 -29q35 -167 65 -326
q3 -15 6.5 -53.5t9 -66t15.5 -37.5q14 11 15 17q7 31 16.5 48.5t17.5 49.5q15 62 60 225.5t65 254.5q4 20 12 29.5t25 9.5q33 0 33 -50q0 -24 -11.5 -62t-27 -77t-16.5 -42t-31 -120q-15 -59 -40.5 -142t-41.5 -151q-3 -12 -7 -37.5t-8 -41t-10.5 -33.5t-18 -27t-27.5 -9
q-9 0 -16 5t-12.5 16t-9 21.5t-6.5 27.5t-5 28.5t-4 29.5t-3 26l-38 292q-4 36 -12 75q-8 0 -12 2z" />
    <glyph glyph-name="O" unicode="O" horiz-adv-x="567" 
d="M547 457q-4 -93 -53.5 -196t-142.5 -196q-83 -83 -169 -83q-79 0 -120.5 50.5t-41.5 109.5q0 23 11 66.5t13 55.5q1 7 5.5 54t13.5 70q30 99 77 171q23 37 114 123q25 24 64.5 40t71.5 16q75 0 116 -71t41 -210zM466 520q-2 7 -6 32.5t-8.5 43t-12.5 38.5t-21 32.5
t-30 11.5q-90 0 -211 -195l-6 -9q-3 -4 -3 -11q0 -17 23.5 -36t23.5 -32q0 -4 -3 -13.5t-3 -14.5q0 -28 46 -28q1 0 5 0.5t6 0.5q7 0 7 -6q0 -13 -15.5 -22t-34 -13t-35.5 -12.5t-20 -21.5q-2 -9 -10 -43t-11.5 -57.5t-3.5 -43.5q0 -29 11.5 -47t33.5 -18q27 2 42 13
q115 79 167 192.5t69 258.5z" />
    <glyph glyph-name="P" unicode="P" horiz-adv-x="440" 
d="M254 680h-11q-70 0 -135 -38q-6 -3 -12 -3h-19q2 4 4 11.5t4 12.5t6 8q73 47 181 47q84 0 136 -37.5t52 -99.5q0 -68 -71 -179q-106 -161 -187 -161q-6 0 -15.5 2t-12.5 2q-18 0 -23 -28q-4 -25 -15.5 -94t-16.5 -106q-1 -7 -3 -12.5t-6 -11t-5.5 -8.5t-8 -8.5t-8 -6.5
l-10.5 -7l-8 -6q0 -1 -3 -1q-37 0 -37 59q0 30 9.5 73t20 78t10.5 36q10 50 34.5 183.5t40.5 204.5q8 37 45 37q9 0 15.5 -10t6.5 -23q0 -26 -9.5 -76t-10.5 -58q-2 -8 -2 -11q0 -4 1 -12t1 -11q27 10 34 15t19 17t23 20t21 8h11q-6 -25 -53 -77.5t-47 -87.5q0 -25 18 -25
q16 0 45.5 26.5t49.5 52.5q34 42 49.5 63t35 61.5t19.5 72.5q0 59 -34 79.5t-129 28.5z" />
    <glyph glyph-name="Q" unicode="Q" horiz-adv-x="471" 
d="M326 367q-4 -4 -17 -14t-19 -17q-7 -8 -28 -31.5t-31 -33.5t-27.5 -25t-33 -21t-31.5 -6q-40 0 -64.5 39.5t-24.5 108.5q0 98 36.5 193.5t105.5 160.5q19 19 50 33t51 14q31 0 64.5 -35.5t33.5 -85.5q0 -26 -10.5 -47.5t-27.5 -21.5q-8 0 -8 18q0 10 1.5 29t1.5 28
q0 31 -18 49.5t-43 18.5q-29 0 -54 -15.5t-44.5 -43t-31 -48.5t-24.5 -51q-43 -99 -43 -195q0 -41 12.5 -77t41.5 -36q10 0 23.5 8.5t30 24t29.5 29t31 33.5t25 28q5 5 33.5 38t46.5 48t32 15q17 0 31.5 -10t14.5 -25q0 -10 -6 -28q-5 -19 -29 -106t-35 -134
q-5 -24 -23 -144q-1 -5 -1 -13q0 -13 9 -13q2 0 12.5 3t14.5 3q12 0 12 -13q0 -39 -25 -82t-59 -74q-11 -9 -21 -9q-15 0 -25 20.5t-10 42.5q0 1 0.5 4t0.5 4q31 261 34 283q5 32 21 90t21 85q-4 0 -6 4z" />
    <glyph glyph-name="R" unicode="R" horiz-adv-x="497" 
d="M479 -115q2 9 6.5 35.5t8 43t10.5 35t16 25.5q11 -13 11 -16q16 -112 16 -169q0 -21 -4 -59q-3 -21 -22 -42t-35 -21q-14 0 -30.5 8.5t-23.5 18.5q-85 120 -120 192q-24 48 -62.5 141t-48.5 115q-1 4 -4 7t-8 7t-8 7q-1 -2 -8.5 -11t-8.5 -14q-6 -41 -19 -142
q-6 -53 -38 -59q-4 0 -15.5 19.5t-13.5 35.5q-3 28 -3 59q0 13 2.5 41t2.5 42q0 15 -4.5 23t-20 22t-25.5 26q4 0 13.5 3.5t14.5 3.5h11q25 0 29 24q13 76 41 228v10q11 65 53 65q39 0 39 -46q0 -13 -3 -31q-6 -36 -19.5 -102.5t-16.5 -81.5q-1 -2 -1 -5q0 -7 5 -25
q30 8 31 9q74 60 129.5 135t55.5 143q0 54 -25 83t-72 29q-90 0 -166 -50q-6 -4 -20 -4.5t-16 -0.5q2 4 4.5 12.5t5 14t6.5 7.5q82 61 175 61q30 0 60 -6q40 -7 68.5 -52t28.5 -97q0 -86 -94 -203q-11 -14 -41 -43.5t-49 -52t-19 -36.5q0 -15 19 -47q8 -14 16 -31
t17.5 -39.5t14.5 -33.5q80 -180 120 -249q2 -4 6.5 -7.5t12.5 -7.5l10 -5q13 29 13 43l-3 15h-5z" />
    <glyph glyph-name="S" unicode="S" horiz-adv-x="482" 
d="M378 477q42 -5 62.5 -32.5t20.5 -70.5q1 -120 -138 -261q-79 -79 -118 -105q-55 -38 -100 -38q-52 0 -52 76q0 34 8 62.5t16 28.5t14.5 -18t6.5 -35q0 -4 -1 -11.5t-1 -10.5q2 0 8 -0.5t9 -0.5q12 0 56 22q148 91 220 214q11 16 23 40.5t12 33.5q0 6 -25.5 12.5
t-43.5 6.5q-37 0 -129 -21q-10 -2 -37 -11t-51.5 -14.5t-44.5 -5.5q-31 0 -47 14.5t-16 37.5q0 25 14 54t30 48q146 165 278 245q17 10 31 10q32 0 32 -49q0 -14 -3 -29q-4 -19 -20.5 -51t-23.5 -32q-8 0 -13 18t-5 39q-13 -8 -27 -19t-23.5 -19t-26 -22t-23.5 -20
q-112 -98 -141 -130q29 3 113 24t131 21q17 0 25 -1z" />
    <glyph glyph-name="T" unicode="T" horiz-adv-x="645" 
d="M85 583q-30 0 -42.5 10t-12.5 35q0 41 22.5 69t54.5 28q19 0 24 -29.5t20 -29.5q7 0 16 3q211 46 409 50q69 0 157 -5q5 0 10.5 -3t12 -9t9.5 -8q-1 -1 -13 -12t-19 -12q-188 -23 -269 -30q-23 -2 -32.5 -12t-13.5 -33q-13 -80 -31 -175t-31.5 -163.5t-36 -178
t-33.5 -165.5q-14 -68 -40 -68q-16 0 -26.5 11t-10.5 27q0 41 9 113l46 235q7 36 30 153.5t36 182.5q3 12 3 22q0 33 -34 33q-11 0 -25 -3q-33 -7 -96.5 -18.5t-92.5 -17.5z" />
    <glyph glyph-name="U" unicode="U" horiz-adv-x="547" 
d="M30 192q2 25 6 92t6 96.5t7.5 86t11.5 93t16 83t23 87.5q1 1 1 4.5t2 5.5l40 45q0 -2 1.5 -17t1.5 -23q0 -3 -0.5 -8t-0.5 -7q-5 -29 -19 -117.5t-20.5 -132.5t-13 -114t-6.5 -128q0 -182 50 -182q18 -1 30 17q77 115 116 202q29 66 79 192t59 147q15 38 62 38
q35 0 35 -42q0 -11 -1 -17q-6 -54 -22.5 -153.5t-21.5 -140.5q-15 -112 -15 -130q0 -17 16.5 -47t16.5 -45q0 -22 -23.5 -58.5t-52.5 -36.5q-26 0 -44 31.5t-18 64.5q0 27 8.5 84t8.5 87q0 5 -5 15.5t-6 13.5q-17 -19 -21 -26q-17 -27 -60 -101.5t-68 -113.5
q-24 -38 -69 -38q-25 0 -44 11t-29 25t-18 39.5t-10 41t-5 43t-4 33.5z" />
    <glyph glyph-name="V" unicode="V" horiz-adv-x="456" 
d="M556 745q-9 -18 -98 -171.5t-122 -241.5l-103 -289q-10 -23 -25 -40.5t-30 -17.5t-28 26.5t-22.5 74t-16 89t-13.5 97.5t-10 73q-4 25 -15 77.5t-17 92.5t-6 72q0 15 8 22t31 7q31 0 37 -31q15 -73 23 -121l42 -196q1 -8 4 -30t6.5 -37.5t10.5 -32.5q2 2 11 10t11 13
q41 100 72 185q78 210 228 363l13 11q2 0 5 -2t4 -3z" />
    <glyph glyph-name="W" unicode="W" horiz-adv-x="530" 
d="M392 171q8 33 29.5 128t33 142.5t33 121.5t44.5 134q10 26 30 73t27 64q1 2 18 13q0 -1 1.5 -7.5t1.5 -9.5v-4l-58 -214q-28 -121 -70 -307q-10 -50 -33 -176t-37 -194q-5 -26 -22 -53t-33 -27q-28 0 -43 56q-3 16 -11.5 59.5t-12.5 66t-9 58.5t-7.5 66.5t-2.5 60.5
q0 4 0.5 12t0.5 12q0 6 -2.5 11.5t-7 12.5t-6.5 10q-2 -2 -10.5 -7t-13 -9t-6.5 -9q-8 -19 -24.5 -60t-28.5 -69t-28.5 -59t-33.5 -47.5t-34 -16.5q-37 0 -37 58l22 364q1 28 5.5 95.5t4.5 104.5q0 69 67 77q22 0 30 -9.5t8 -27.5v-8q-3 -68 -10 -139t-20 -174t-17 -138
q0 -3 2 -7.5t2 -5.5q13 4 28.5 25t34.5 55t25 43q3 4 17.5 27t22 34.5t19.5 28t19.5 24.5t11.5 8q18 0 34 -44.5t16 -81.5v-20q0 -18 15 -118q2 -1 15 -3z" />
    <glyph glyph-name="X" unicode="X" horiz-adv-x="459" 
d="M-30 -7q5 12 12.5 31.5t13.5 33.5t14 25q16 27 49.5 75.5t46.5 69.5q3 4 16 24.5t18 29t15.5 27t15 29.5t8.5 25.5t4 25.5q0 9 -1 13q-10 50 -31 140.5t-28 121.5q-1 2 -1 8t3 18t3 15q4 -3 13 -7t14.5 -8t7.5 -9q9 -24 22 -67.5t26 -79.5t30 -68q65 81 180 245
q27 37 70 37q48 -1 48 -21q0 -11 -11 -30q-5 -7 -26.5 -36t-27.5 -37.5t-25 -35t-26.5 -37.5t-24.5 -35t-26 -38t-23.5 -35.5t-25 -38t-22 -36.5t-22.5 -39q-10 -18 -10 -36q0 -5 1 -8q33 -160 102 -286q10 -20 42.5 -55.5t43.5 -60.5q-21 -7 -28 -7q-3 0 -5 1
q-66 18 -106 107q-10 21 -33 82t-41 103.5t-24 42.5t-14.5 -6t-11.5 -11q-16 -25 -43.5 -73t-41.5 -69q-2 -3 -8.5 -13.5t-9.5 -15t-9.5 -14.5t-10.5 -15.5t-10.5 -13.5t-11.5 -12.5t-10.5 -9t-11 -6.5t-10.5 -2q-8 0 -16 7t-17.5 18.5t-14.5 16.5z" />
    <glyph glyph-name="Y" unicode="Y" horiz-adv-x="446" 
d="M491 714q5 -3 5 -17q0 -12 -4 -26q-116 -347 -246 -678q-6 -14 -21.5 -28t-27.5 -14q-10 0 -17.5 5t-12.5 16t-8.5 20t-5.5 27.5t-2.5 27.5t-1.5 30t-1 25t3 9t8 11t7 10l22 -23q3 -4 10 -11.5t9 -9.5q10 18 20 41.5t15 37.5t15.5 46t13.5 40q-39 33 -101 171
q-42 90 -64 171q0 1 -3 12t-6 19.5t-7 19t-8.5 16.5t-8.5 6q-3 0 -10 -6.5t-10 -6.5q-10 0 -16.5 21t-6.5 47q0 34 14 50t28 16q13 0 25.5 -13t23 -36.5t17 -41.5t13.5 -42.5t8 -26.5q20 -59 69.5 -166t76.5 -107l71 239q0 25 22.5 69.5t43.5 51.5q9 4 24 4q14 0 25 -6z" />
    <glyph glyph-name="Z" unicode="Z" horiz-adv-x="392" 
d="M191 142q8 1 28 1q90 0 134 -30q5 -5 12 -18t11 -18q-5 0 -16.5 -2.5t-16.5 -2.5q-6 0 -9 1q-31 12 -84 12q-81 -1 -135.5 -16t-96.5 -52q-21 -19 -36 -19q-13 0 -22.5 10t-9.5 23t6 22q26 34 52 69t53.5 76t47.5 70t51.5 78t45.5 71t49.5 78.5t46.5 73.5q3 5 3 8
q0 8 -11 15t-30.5 12t-36 8t-39.5 6.5t-29 4.5q-21 4 -70 31q-3 1 -4.5 5.5t-2.5 11t-2 9.5h14q19 0 43.5 -12t50.5 -12q49 0 108.5 8.5t75.5 21.5l4.5 4.5l4 4t4 3t4.5 2.5t5.5 1.5t8.5 0.5q32 0 37 -10q2 -4 2 -9q0 -14 -5 -22q-40 -73 -92.5 -154.5t-118 -179
t-100.5 -153.5q-7 -9 -7 -19q0 -12 26 -16q1 0 46 3z" />
    <glyph glyph-name="bracketleft" unicode="[" horiz-adv-x="287" 
d="M310 624q-5 1 -13 1q-25 0 -36 -32q-20 -59 -56 -167.5t-65.5 -197.5t-55.5 -169q-12 -24 -12 -40q0 -20 26 -20q6 0 18.5 1t18.5 1q19 0 40 -14t21 -36q0 -20 -19 -20q-7 0 -22.5 4.5t-23.5 4.5q-23 0 -65.5 -17t-65.5 -17q-16 0 -23 14t-7 32q0 6 1 9q6 21 67 195
q10 30 31 98t33 103q49 141 110 313q5 15 19.5 24.5t31.5 9.5q34 0 72 -21q7 -4 18.5 -14.5t13.5 -12.5q-33 -33 -44 -33q-2 0 -6.5 0.5t-6.5 0.5z" />
    <glyph glyph-name="backslash" unicode="\" horiz-adv-x="413" 
d="M353 13q-2 -3 -4.5 -9.5t-4 -10.5t-5.5 -7.5t-9 -3.5q-20 1 -42.5 38.5t-34.5 75.5q-21 64 -57 185t-67.5 218t-64.5 183q-4 9 -4 19q0 11 10 20.5t27 9.5q19 0 28 -21q54 -131 68 -171q109 -325 160 -526z" />
    <glyph glyph-name="bracketright" unicode="]" horiz-adv-x="396" 
d="M262 673q115 8 130 8q34 0 34 -28q0 -11 -4 -19q-99 -220 -120 -274q-12 -28 -111 -299q-1 -3 -6.5 -19t-10 -27.5t-12 -29t-14.5 -30.5t-16 -25t-18.5 -18.5t-19.5 -6.5q-54 0 -154 10q-8 1 -22.5 8.5t-17.5 8.5q3 4 8.5 13t10.5 14.5t10 6.5q60 21 107 22t62 42
q2 6 24 66.5t26.5 73t24 65t27 72.5t25 64.5t29 71.5t27.5 63.5t31 68.5q5 13 5 19q0 12 -22.5 20t-44.5 19.5t-22 32.5q0 4 30 20q1 -2 2 -6.5t2 -6.5z" />
    <glyph glyph-name="asciicircum" unicode="^" horiz-adv-x="280" 
d="M280 575q0 -78 -1 -116q0 -5 -6 -16.5t-7 -15.5q-3 2 -11 5.5t-13 6.5t-7 7q-7 13 -18 42t-19.5 47t-15.5 18q-16 0 -50 -41t-52 -41q-20 0 -20 18q0 20 11 31q75 106 134 172q10 14 58 14q16 0 16 -68v-63h1z" />
    <glyph glyph-name="underscore" unicode="_" horiz-adv-x="296" 
d="M168 -151h-203q-17 0 -31 11t-14 23q0 17 27 25t57 8q73 0 101 -0.5t95 -3t96.5 -9.5t29.5 -19q0 -41 -120 -41h-38v6z" />
    <glyph glyph-name="grave" unicode="`" horiz-adv-x="156" 
d="M196 543l-4 -8t-5.5 -10t-7 -8t-9.5 -4q-12 0 -22 5.5t-18.5 18.5t-14.5 23.5t-12 30.5t-8.5 29t-7.5 30t-6 23q0 1 -0.5 1t-0.5 1q0 11 15.5 22t24.5 11q21 0 43 -55.5t33 -109.5z" />
    <glyph glyph-name="a" unicode="a" horiz-adv-x="275" 
d="M181 338q64 -7 64 -60q0 -6 -2 -18q-13 -84 -24 -175q-2 -18 -3.5 -28t-5 -23t-9.5 -19.5t-15 -6.5q-12 0 -26 19q-12 14 -15 30.5t-4 24.5t-8 8q-2 0 -13.5 -7.5t-28.5 -15t-32 -7.5q-22 0 -35.5 16t-13.5 40q0 53 27 104.5t70 83.5q12 9 39.5 20t34.5 14zM181 251
q-2 3 -4.5 7.5t-3.5 6t-3 4t-3 3.5t-3 2t-4 1.5t-5 0.5q-16 0 -23 -7q-71 -98 -71 -124q0 -6 4.5 -14.5t12.5 -8.5q9 0 19.5 8t23 25t20.5 29.5t22 36t18 30.5z" />
    <glyph glyph-name="b" unicode="b" horiz-adv-x="316" 
d="M285 288q-1 -129 -82 -244q-4 -6 -12.5 -11.5t-14 -8.5t-18 -7.5t-15.5 -5.5q-1 8 -6.5 26.5t-6.5 29.5t27 20t32 17q63 113 63 196q0 3 -12 32q-27 -14 -31 -18q-86 -118 -113 -247q-3 -17 -19.5 -39t-29.5 -22q-10 0 -18.5 10t-8.5 25q0 24 20 129q6 45 35 218
q5 27 15 54t14 53q2 12 2 18q0 7 -3.5 23t-3.5 27q0 44 21.5 77.5t57.5 33.5q12 0 22.5 -12.5t10.5 -29.5q-5 -75 -30 -158.5t-29 -106.5q-1 -2 -1 -7q0 -7 7 -33q6 5 17 12t15 9l12 9t13 9t12.5 6t15.5 3q20 0 31.5 -15.5t11.5 -41.5q0 -5 -0.5 -15t-0.5 -15z" />
    <glyph glyph-name="c" unicode="c" horiz-adv-x="227" 
d="M185 287q0 -9 -13 -46q-2 3 -5.5 8t-5 7.5t-4 6t-4.5 5t-3.5 3.5t-3.5 2.5t-4 0.5q-8 0 -17 -11q-39 -53 -39 -137q0 -14 10 -22.5t24 -8.5q10 0 32.5 12t31.5 12q13 0 13 -12q0 -23 -37.5 -44.5t-67.5 -21.5q-72 0 -72 112q0 103 80 163q23 20 54 20t31 -40v-9z" />
    <glyph glyph-name="d" unicode="d" horiz-adv-x="344" 
d="M22 152v14q0 77 27.5 147t71.5 70q4 0 8.5 -1t9 -4t7.5 -6l8 -8t7.5 -8t8 -9t7.5 -9q14 16 16 22q16 45 49 133.5t53 142.5q10 25 33 25q36 0 36 -25q0 -1 -3 -22q-9 -41 -20 -97.5t-21 -98.5q-10 -45 -33 -125.5t-30 -108.5q-4 -18 -11.5 -56t-14 -64t-16 -55t-23 -44.5
t-29.5 -15.5q-27 0 -27 50q0 11 5 64q0 10 -4 34q-2 -1 -14.5 -5.5t-17.5 -9.5q-22 -22 -38 -22q-19 0 -33 25t-14 44q0 6 1 13.5t1 9.5zM56 150q2 -4 5 -13t5 -13.5t5 -5.5q12 0 28 12q8 5 35 67.5t27 77.5q0 14 -19 31.5t-30 17.5q-5 0 -11.5 -12.5t-13 -35t-11.5 -43
t-11 -47t-9 -36.5z" />
    <glyph glyph-name="e" unicode="e" horiz-adv-x="249" 
d="M20 104q1 58 16.5 121t50.5 114.5t81 51.5q26 0 43.5 -15.5t17.5 -41.5q0 -10 -3.5 -22t-10.5 -25.5t-12.5 -23t-15 -25t-12.5 -20.5q-9 -14 -29 -31t-33 -34t-13 -39v-4q0 -13 1 -20.5t8 -15t21 -7.5q10 0 29 5.5t29 5.5q17 0 17 -15q0 -29 -34 -51t-66 -22
q-22 0 -38 8.5t-24 18t-13.5 28.5t-6.5 28.5t-3 30.5zM191 312q-2 3 -6 9.5t-7 10t-6 3.5q-6 0 -12 -5.5t-11 -16.5t-8 -19.5t-7.5 -22l-5.5 -16.5q0 -1 -0.5 -1t-0.5 -1q0 -3 4 -8t8 -5q7 0 15.5 11.5t20.5 33.5t16 27z" />
    <glyph glyph-name="f" unicode="f" horiz-adv-x="271" 
d="M75 440q4 -1 11 -1q26 0 34 33q1 5 7 32t8.5 37.5t9.5 36.5t13 38.5t15 33.5t18.5 31.5t22 23t27.5 17.5t32 5q22 0 37 -23t15 -55q0 -52 -38 -60q-10 0 -20 18.5t-15 18.5q-11 0 -29.5 -58t-18.5 -89q0 -15 18 -15q10 0 20 5q112 84 119 90q-12 -42 -17 -50
q-47 -65 -122 -92q-28 -10 -36 -42q-33 -196 -43 -249q-8 -40 -13 -87t-17 -96q-3 -13 -24.5 -37.5t-32.5 -24.5q-36 0 -36 38q0 6 1 9q37 192 80 428q4 13 4 24q0 12 -11 17t-29 11.5t-30 18.5q1 0 11.5 7.5t14.5 7.5q2 0 6.5 -1t7.5 -1z" />
    <glyph glyph-name="g" unicode="g" horiz-adv-x="271" 
d="M-52 -303q-29 5 -53.5 26t-24.5 47q0 15 15 15q10 0 27 -3t23 -3q24 0 41 12.5t36 44.5q69 117 103 255q14 53 14 61q0 14 -13 14q-5 0 -18 -2.5t-18 -2.5q-48 0 -48 60q0 53 38 95t92 48q9 0 26 5.5t30 5.5h4.5h5h4.5t4.5 -0.5t4 -1.5t3.5 -2.5t2.5 -3.5t2.5 -5
t1.5 -6.5t0.5 -8.5q0 -6 -2 -12q-62 -279 -83 -350q-53 -182 -159 -262q-10 -6 -31.5 -14.5t-27.5 -11.5zM72 226q1 -1 2 -4.5t2 -5t2.5 -3.5t4 -2.5t6.5 -0.5q14 0 21 7q2 3 11.5 13.5t15.5 18t14 18t12 19t4 14.5q0 2 -0.5 8t-0.5 10v4q-4 0 -12 1t-11 1q-25 0 -44 -32
t-27 -66z" />
    <glyph glyph-name="h" unicode="h" horiz-adv-x="308" 
d="M276 270q-23 -143 -28 -169q-3 -18 -3 -26q0 -11 21.5 -16t21.5 -18v-2q-4 -6 -12.5 -20t-14.5 -23.5t-14.5 -20.5t-16 -17t-14.5 -6q-29 0 -29 46q0 19 3 37q30 195 32 215q0 1 0.5 4.5t0.5 5.5q0 9 -3.5 26t-4.5 24q-2 -2 -19.5 -17t-22.5 -24q-22 -34 -62.5 -98.5
t-50.5 -80.5q-9 -13 -20 -13q-7 0 -11.5 4.5t-6 15.5t-2 18.5t0 23.5t0.5 20q0 43 5 73q14 83 44 234.5t41 211.5q2 8 5 34.5t9 40.5t19 14q11 0 23.5 -14.5t12.5 -27.5q0 -8 -2 -18q-5 -61 -15 -122.5t-28.5 -151t-23.5 -117.5v-5q0 -5 3 -29q25 15 29 20q7 7 22.5 26
t29 28t32.5 9q15 0 30.5 -20.5t15.5 -42.5q0 -5 -1 -15.5t-1 -15.5q2 -1 5 -1z" />
    <glyph glyph-name="i" unicode="i" horiz-adv-x="168" 
d="M0 56q6 30 27 140q2 11 3.5 34.5t4 41.5t8 37t18 29.5t31.5 10.5q17 0 28.5 -12t11.5 -29v-5q-24 -108 -64 -264q-5 -19 -41 -37q-24 35 -24 45v7q-1 2 -3 2zM93 487q1 50 42 50q33 0 33 -23l-2 -5q-22 -48 -42 -48q-3 0 -9 5t-13 12.5t-9 8.5z" />
    <glyph glyph-name="j" unicode="j" horiz-adv-x="196" 
d="M-112 -259q1 -3 7.5 -15t9.5 -18t8.5 -14.5t10 -12.5t8.5 -4q6 0 11.5 7.5t9.5 23.5t6 26t5.5 30.5t3.5 21.5q10 61 31 182.5t31 182.5q2 13 6 47t7.5 55t10 46t16.5 37.5t23 12.5q19 0 28.5 -18.5t9.5 -39.5q0 -17 -6 -51q-30 -145 -64 -332q-6 -31 -17 -97.5
t-19 -101.5q-11 -46 -33 -87.5t-49 -41.5q-18 0 -32 16t-20 44l-11 98q1 0 4 1.5t4 1.5zM102 506q0 20 10 37.5t22 17.5q9 0 20 -7t24 -18t18 -14q-5 -5 -19.5 -24t-26 -28.5t-23.5 -9.5t-18.5 14t-6.5 32z" />
    <glyph glyph-name="k" unicode="k" horiz-adv-x="306" 
d="M20 24q33 177 117 569q2 11 6 35t7 41t8.5 35.5t13 28.5t18.5 10q36 0 36 -31q0 -2 -0.5 -5t-0.5 -4q-48 -307 -54 -343q0 -2 -2 -7t-2 -8q6 -26 7 -30q19 16 21 21q6 12 21.5 53t28 63t24.5 22q19 0 28 -10.5t9 -25.5q0 -90 -78 -181q-31 -36 -31 -64q0 -7 4.5 -25
t4.5 -29t-3 -34t-3 -33q0 -18 23 -30.5t23 -18.5q-2 -12 -10.5 -20t-17.5 -8q-21 0 -36.5 25t-15.5 49q0 6 1.5 18.5t1.5 18.5q0 8 -1 25t-1 26q0 2 -17 24q-14 -12 -20.5 -27.5t-10.5 -36.5t-8 -32q-17 -57 -46 -128q-1 -4 -19 -15q-2 4 -7 11t-7 11q-1 4 -2.5 19.5
t-3.5 27t-6 13.5z" />
    <glyph glyph-name="l" unicode="l" horiz-adv-x="197" 
d="M20 74q5 50 12.5 100.5t18.5 109.5t18.5 96.5t22.5 109.5t21 99q1 5 4.5 26.5t6.5 33t8.5 27.5t13.5 23.5t19 7.5q32 -4 32 -56q-76 -397 -87 -467q-3 -18 -3 -19q0 -13 11 -13q6 0 15 3q2 1 9.5 -6t7.5 -12q0 -37 -29 -84t-62 -47q-29 0 -39 68z" />
    <glyph glyph-name="m" unicode="m" horiz-adv-x="451" 
d="M431 281q-7 -27 -17.5 -80.5t-21.5 -95.5t-25 -74q-1 -4 -4.5 -7.5t-10 -8t-8.5 -6.5q-1 3 -7 13t-6 15q5 27 17.5 76.5t13.5 55.5l22 98q0 1 -3 19q-2 -1 -6.5 -1.5t-7.5 -1.5t-5 -3q-21 -23 -55 -73t-45 -65q-4 -5 -30 -16q-10 22 -10 27q0 15 7 47t7 47q0 1 -6 25
q-100 -64 -136 -184q-7 -22 -21 -39.5t-26 -17.5q-10 0 -18.5 13.5t-8.5 33.5v7q16 97 44 239q7 34 48 34q29 0 29 -44q0 -8 -3 -24.5t-3 -25.5q0 -5 2 -15t2 -14q3 1 14.5 4.5t15.5 7.5q10 7 28 25.5t32.5 29.5t26.5 11q9 0 15.5 -24t8.5 -48q6 7 17.5 16.5t16.5 15.5
t17.5 22.5t18.5 23t19 13.5t28 7q8 0 18 -14.5t10 -33.5v-9h2q2 -1 4 -1z" />
    <glyph glyph-name="n" unicode="n" horiz-adv-x="277" 
d="M207 269q-22 -29 -34 -49q-7 -12 -20 -38.5t-23.5 -45.5t-24 -39.5t-27.5 -31.5t-28 -11q-30 0 -30 39q0 17 11 165l6 50q5 34 37 34t32 -37q0 -12 -2.5 -37t-2.5 -37q0 -5 2.5 -14t2.5 -12q20 14 22 18l39 67q12 15 31 27.5t34 12.5q25 0 25 -35q0 -8 -2 -24
q-22 -179 -37 -287q-1 -9 -14 -26q-1 3 -4 9t-4.5 11t-1.5 10q9 208 20 277q-1 0 -7 4z" />
    <glyph glyph-name="o" unicode="o" horiz-adv-x="249" 
d="M20 142q3 29 13.5 70t34 79.5t51.5 38.5q11 0 20.5 -7t9.5 -19q0 -11 -5 -16q-29 -35 -46 -87t-17 -99q0 -6 3 -13.5t8 -17.5l7 -14q4 3 13.5 8t15 9t7.5 9q46 103 46 173q0 10 -5 32t-5 34q0 6 1.5 9.5t3 5.5t5.5 5.5t7 6.5q31 -31 31 -117q0 -77 -38.5 -149.5
t-87.5 -72.5q-33 0 -53 35t-20 97z" />
    <glyph glyph-name="p" unicode="p" horiz-adv-x="286" 
d="M-20 -228l35 251q3 24 16 105.5t18 125.5q1 9 1.5 27t1.5 31.5t3.5 27.5t9 21.5t17.5 7.5q15 -1 29 -12t23 -22t12 -11t27 24.5t41 24.5q24 0 38 -20t14 -42q0 -9 -1 -13q-43 -249 -142 -249q-6 0 -17 -6.5t-12 -14.5q-6 -33 -16 -96t-20 -112.5t-25 -93.5q-2 -4 -7.5 -8
t-13 -8.5t-10.5 -7.5q-2 3 -6 10.5t-6.5 12t-4.5 10.5t-2 12q0 4 0.5 12t0.5 11l-2 1q-1 1 -2 1zM179 146q42 86 50 161q0 8 -7 14.5t-12 6.5q-7 0 -15.5 -8t-16.5 -22.5t-14 -27.5t-14 -31.5t-11 -25.5q0 -1 -0.5 -2t-0.5 -2q0 -16 41 -63z" />
    <glyph glyph-name="q" unicode="q" horiz-adv-x="264" 
d="M26 -241q13 66 44.5 191t44.5 183v5q0 5 -2 14.5t-2 11.5q-2 -1 -30 -16q-1 0 -18 -17.5t-29 -17.5q-18 0 -26 12t-8 26q0 46 19.5 96.5t53.5 83.5q21 21 64 35.5t76 14.5q25 0 25 -26q0 -7 -1 -11q-52 -204 -59 -233q-9 -39 -29.5 -107.5t-30.5 -115.5q-1 -2 -1 -7
q0 -7 7 -28q22 4 134 38q4 1 11 1q11 0 18 -3t16.5 -13.5t10.5 -11.5q-3 -2 -8.5 -6t-9.5 -6.5t-8 -2.5q-87 -6 -164 -87q-3 -3 -17.5 -21.5t-25.5 -26.5t-24 -8q-6 0 -16 17t-10 27q0 1 1 4v3q-2 2 -6 2zM54 175q17 11 33 29.5t40.5 53.5t27.5 39q2 4 2 9q0 24 -16 24
q-25 0 -61.5 -50t-36.5 -87q0 -4 2 -7t5 -6t4 -5z" />
    <glyph glyph-name="r" unicode="r" horiz-adv-x="263" 
d="M313 400q-2 -7 -5 -22t-5 -22.5t-5.5 -17.5t-7.5 -14t-9 -4q-8 0 -18.5 15t-16.5 15q-11 0 -44.5 -53.5t-56.5 -99.5q-14 -29 -34 -85t-28 -74q-4 -10 -8.5 -17.5t-10.5 -13t-9.5 -8t-12.5 -7t-12 -6.5q-2 4 -8 13t-9 15.5t-3 12.5q1 20 20 163q1 7 3 37.5t5 52t9.5 47.5
t19.5 40t31 14q31 0 45 -77q24 22 34 34q7 8 22 30t25 34.5t26 24t31 11.5q9 0 14 -5t9.5 -16.5t8.5 -16.5z" />
    <glyph glyph-name="s" unicode="s" horiz-adv-x="269" 
d="M112 221q-71 2 -85 20q-6 7 -6 16t5 16q45 76 99 149q8 11 30 11q13 0 20 -8t7 -30q0 -25 -8.5 -50.5t-20.5 -25.5q-5 0 -16.5 13t-16.5 13q-13 0 -28 -68q43 -9 55 -9h10q42 0 67 -21.5t25 -56.5q0 -93 -146 -213q-71 -58 -126 -58q-21 0 -34 12t-13 30q0 33 35 71.5
t75 63.5q2 2 9 2h11q0 -15 -4 -21q-2 -4 -12 -17.5t-16.5 -25t-6.5 -17.5q0 -8 2.5 -10t10.5 -2q9 0 33.5 19t35.5 32q25 29 37 43.5t28 42t16 45.5t-15.5 27.5t-40.5 9.5q-2 0 -8 -1.5t-8 -1.5z" />
    <glyph glyph-name="t" unicode="t" horiz-adv-x="247" 
d="M64 74q8 39 22.5 171.5t21.5 172.5q0 2 3.5 16t3.5 22q0 27 -27 27q-6 0 -21 -3t-23 -3t-15.5 6t-8.5 15q0 6 3 10t10 7t11 4.5t15 4t13 2.5q39 7 54.5 24.5t15.5 54.5q0 4 -0.5 14.5t-0.5 15.5q0 35 15 61.5t47 26.5q22 0 22 -33q0 -10 -2.5 -38t-2.5 -38q0 -24 18 -24
q10 0 41.5 15t48.5 15q1 0 19 -3q-2 -2 -6 -9.5t-7 -9.5q-10 -7 -39 -25t-45 -29t-33 -28.5t-20 -33.5q-8 -34 -21.5 -155.5t-20.5 -155.5q-2 -10 -2 -13q0 -13 14 -13q5 0 8 1q3 0 10.5 -7t7.5 -10q-4 -11 -11.5 -41.5t-17.5 -50t-28 -32.5q-18 -16 -33 -16q-16 0 -25 21
t-9 37q0 5 0.5 13.5t0.5 12.5q-1 0 -3 0.5t-3 0.5z" />
    <glyph glyph-name="u" unicode="u" horiz-adv-x="315" 
d="M20 111q18 122 36 221q5 28 27 28q24 0 24 -17q0 -3 -1.5 -11t-1.5 -11q-19 -116 -28 -188q0 -6 5.5 -19.5t6.5 -16.5q3 3 9 7t10.5 8t6.5 8q26 45 117 207q13 26 27 26q16 0 26.5 -11t10.5 -25q0 -3 -2 -13q-34 -142 -49 -213q-2 -7 -2 -20t5.5 -32.5t5.5 -24.5
q0 -12 -15 -23t-28 -11q-14 0 -23.5 16t-19.5 51.5t-10 36.5q-21 -9 -47.5 -34t-42.5 -25q-29 0 -39 36q-2 7 -3.5 24t-4.5 26z" />
    <glyph glyph-name="v" unicode="v" horiz-adv-x="238" 
d="M20 311q2 20 9 30.5t26 10.5q25 0 32.5 -10.5t7.5 -33.5q-3 -32 -3 -63q0 -5 0.5 -9.5t1 -7t2.5 -6t3 -5t4.5 -6t4.5 -6.5q16 14 32 36t34 53t28 45q4 12 36 26q-1 -2 -1 -6q0 -2 0.5 -5.5t0.5 -4.5q0 -3 -2 -9q-12 -27 -43.5 -94t-48.5 -103q-5 -11 -11.5 -34t-11.5 -34
q-11 -22 -28 -43.5t-31 -21.5q-42 0 -42 143v158z" />
    <glyph glyph-name="w" unicode="w" horiz-adv-x="451" 
d="M428 450q0 -14 1.5 -42t1.5 -41q0 -20 -4 -45t-8 -45t-13.5 -51t-14.5 -46t-17.5 -50t-15.5 -44q-8 -29 -35 -57t-48 -28q-31 0 -50 49t-19 97q0 18 4 60q0 1 -6 28q-3 -1 -10 -4t-11.5 -5.5t-6.5 -6.5q-9 -13 -37 -60t-49 -71.5t-40 -24.5l-2 1q-27 17 -27 58
q-1 30 2.5 85t3.5 79q0 41 10 57.5t37 18.5q34 0 34 -41q0 -10 -2.5 -30.5t-2.5 -30.5q0 -5 3.5 -13t3.5 -9q2 1 9.5 3t9.5 4q9 10 35.5 43t46 51.5t34.5 18.5q16 0 24 -10t8 -22t-7 -40q-17 -71 -17 -127q0 -57 24 -97q3 3 11 8.5t13.5 10t7.5 9.5q21 65 57 187t53 174
q1 0 4 -0.5t5 -0.5z" />
    <glyph glyph-name="x" unicode="x" horiz-adv-x="357" 
d="M104 397q40 -2 53 -37q22 -62 36 -62q13 0 54 45q3 4 15 18t18.5 20.5t18 13t23.5 6.5q5 0 35 -5q-11 -37 -12 -38q-15 -20 -48 -58t-52 -65t-19 -44t28 -84t35 -97q1 -3 1 -8q0 -9 -7.5 -27.5t-8.5 -23.5q-5 3 -16 8.5t-18.5 11t-11.5 11.5q-11 17 -31 55t-34.5 62
t-23.5 24q-11 0 -34.5 -24.5t-56 -63.5t-45.5 -52q-5 -5 -12 -9t-16.5 -8t-13.5 -6q0 4 -0.5 12t-0.5 13q0 13 5 21q66 101 122 169q22 27 22 49q0 12 -22.5 66t-22.5 71q0 15 11 25.5t29 10.5z" />
    <glyph glyph-name="y" unicode="y" horiz-adv-x="289" 
d="M-54 -461q-7 -1 -20 -1q-41 0 -78.5 18t-58 36.5t-54.5 55.5q-3 3 -5 28l26 -3q136 -55 179 -55q87 0 128 108q15 40 28 84.5t28 102t23 85.5q21 73 21 95q0 5 -2.5 13.5t-2.5 12.5q-11 -5 -22.5 -12t-19 -10.5t-16.5 -3.5q-57 0 -69 126l-12 125v13q0 7 3 14t6.5 11.5
t9.5 11t8 8.5q2 -3 8 -8.5t9 -9t6.5 -8.5t3.5 -10q2 -28 5.5 -85.5t6.5 -86.5q1 -9 8.5 -24l8.5 -17q3 3 12 10t14 12.5t8 11.5q28 65 51 130q10 32 44 32q38 0 38 -47q-1 -9 -8 -86t-15 -117q-44 -222 -87 -363q-22 -73 -76.5 -136.5t-111.5 -63.5q-13 0 -25 3z" />
    <glyph glyph-name="z" unicode="z" horiz-adv-x="232" 
d="M156 89q0 38 -28 38q-16 0 -52 -23t-47 -23q-13 0 -23.5 12t-10.5 23q0 13 39.5 73.5t39.5 77.5q0 7 -5 11.5t-16 13t-20 21.5q3 1 8 4.5t9 6t8 2.5h10q35 -1 67 23q5 4 13 5.5t21.5 1.5h16.5v-22q0 -21 -27.5 -66t-27.5 -63q0 -10 20.5 -18t40.5 -22.5t20 -41.5
q0 -1 -0.5 -4.5t-0.5 -5.5q-9 -89 -56.5 -176.5t-117.5 -158.5q-18 -19 -50.5 -42.5t-48.5 -23.5q-4 0 -14 2.5t-14 2.5q2 3 6 8t7.5 9t6.5 6q149 118 226 349z" />
    <glyph glyph-name="braceleft" unicode="{" horiz-adv-x="313" 
d="M1 -93q9 96 63 243l39 108q5 15 5 26q0 16 -24 35t-24 29q0 14 20 20q25 8 43.5 23.5t32 40.5t20.5 43t17 52t14 45q16 46 51 86t71 40q15 0 24.5 -12.5t9.5 -31.5q0 -21 -24 -76q-2 -4 -11.5 -8t-11.5 -5q-1 2 -4 10.5t-4 13.5q0 2 1.5 6t1.5 7q-5 17 -8 25
q-2 -2 -7.5 -5.5t-9 -6.5t-4.5 -6q-9 -22 -23 -68t-22 -69q-7 -17 -31.5 -59t-24.5 -53q0 -9 3 -24.5t3 -22.5q0 -20 -5 -42.5t-11 -38t-16.5 -41.5t-15.5 -39q-21 -54 -34 -96q-2 -6 -2 -9q0 -4 2 -12.5t2 -12.5q12 5 41 29t49 27q0 -2 0.5 -7t0.5 -8q0 -4 -1 -5
q-85 -152 -116 -202q-4 -8 -16 -14.5t-22 -6.5t-26.5 20.5t-16.5 33.5q0 3 0.5 9.5t0.5 8.5z" />
    <glyph glyph-name="bar" unicode="|" horiz-adv-x="408" 
d="M0 17l12 36l107 216q172 358 218 452q7 14 16.5 19t28 5t23.5 1q0 -5 1.5 -16t1.5 -16q0 -7 -3 -13q-172 -361 -302 -614q-16 -31 -40 -61.5t-42 -30.5q-3 0 -5.5 1t-5 4t-3.5 5t-3.5 6t-3.5 6z" />
    <glyph glyph-name="braceright" unicode="}" horiz-adv-x="272" 
d="M243 461l8 -2q8 -2 14.5 -6.5t6.5 -10.5q0 -14 -7 -23q-14 -18 -27 -39t-22.5 -38t-22 -43t-18.5 -39.5t-18.5 -44.5t-16 -41t-16.5 -45.5t-16 -42.5q-82 -223 -152 -223q-56 0 -56 92q0 55 25 88q4 5 14 12t13 10q1 -6 5.5 -18.5t5.5 -18.5q0 -5 -2.5 -15.5t-2.5 -15.5
q0 -4 1.5 -8t4 -8.5t3.5 -7.5q2 1 6.5 3.5t8 4.5t4.5 5q18 35 41 83l109 267q2 5 8.5 14.5t9.5 18t3 20.5q0 10 -10 28t-10 27q0 17 10 44t30 70.5t24 51.5q6 16 6 23q0 11 -20 19.5t-20 18.5q0 25 61 25q19 0 28 -9t9 -39q0 -33 -31.5 -98.5t-31.5 -78.5q0 -11 20 -11
q12 0 21 1z" />
    <glyph glyph-name="asciitilde" unicode="~" horiz-adv-x="455" 
d="M251 120q-33 0 -56.5 18t-28.5 46t-12.5 39.5t-22.5 11.5q-8 1 -41 -12q-7 -3 -19 -10t-22 -11.5t-17 -4.5q-4 0 -11.5 1t-10.5 1q1 3 1 10t1 12t4 8q58 50 126 50q2 0 8 -0.5t9 -0.5q19 -1 32 -14.5t19 -30t15.5 -30t21.5 -13.5t82.5 40t93.5 40q22 0 22 -13
q0 -8 -9.5 -19t-29.5 -26t-33.5 -24.5t-39.5 -25.5t-29 -18q-10 -7 -29.5 -14.5t-23.5 -9.5z" />
    <glyph glyph-name="nbspace" unicode="&#xa0;" horiz-adv-x="0" 
 />
    <glyph glyph-name="exclamdown" unicode="&#xa1;" horiz-adv-x="156" 
d="M105 172q-10 -43 -21 -84t-26.5 -88.5t-23.5 -72.5t-28.5 -84t-26.5 -76q-4 -12 -13.5 -47t-16 -55.5t-21.5 -39.5t-33 -19q-21 0 -33 9t-12 23q0 4 4 18q10 27 45.5 128t52.5 145.5t48.5 119t61.5 132.5q2 4 30 19q3 -7 13 -28zM63 311q0 18 18.5 42.5t31.5 24.5
q15 0 29 -20t14 -44q0 -19 -14.5 -30.5t-37.5 -11.5q-14 0 -23 6.5t-12 13t-6 19.5z" />
    <glyph glyph-name="cent" unicode="&#xa2;" horiz-adv-x="227" 
d="M102 322q5 25 5 32q0 2 -0.5 6.5t-0.5 11.5q0 67 39 67q12 0 20.5 -8t8.5 -20v-3q-7 -29 -11.5 -45.5t-6.5 -26.5q29 -1 29 -41q0 -21 -13 -54q-2 3 -5.5 8t-5 7.5t-4 6t-4.5 5t-3.5 3.5t-3.5 2.5t-4 0.5q-8 0 -17 -11q-39 -53 -39 -137q0 -14 10 -22.5t24 -8.5
q10 0 32.5 12t31.5 12q13 0 13 -12q0 -17 -24.5 -35.5t-50.5 -25.5q-6 -27 -10.5 -45l-11.5 -46l-6 -12l-23 -14q-17 22 -17 32v5q-1 1 -2 1q5 25 5 32q0 2 -0.5 6.5t-0.5 11.5q0 24 3 36q-18 13 -27 32t-10.5 32t-1.5 36q0 103 80 163l4 3v2q-1 1 -2 1z" />
    <glyph glyph-name="sterling" unicode="&#xa3;" horiz-adv-x="396" 
d="M130 120l-1 1l-3 -7q-7 -9 -7 -19q0 -12 26 -16q11 0 35 2t39 2q90 0 134 -30q5 -5 12 -18t11 -18q-5 0 -16.5 -2.5t-16.5 -2.5q-6 0 -9 1q-31 12 -84 12q-81 -1 -135.5 -16t-96.5 -52q-21 -19 -36 -19q-13 0 -22.5 10t-9.5 23t6 22q43 56 54 71t46 66t48.5 80.5t30 75.5
t21.5 90q4 13 4 24q0 12 -11 17t-29 11.5t-30 18.5q1 0 11.5 7.5t14.5 7.5q3 0 12 -1.5t13 -1.5q27 0 34 33q1 5 7 32t8.5 37.5t9.5 36.5t13 38.5t15 33.5t18.5 31.5t22 23t27.5 17.5t32 5q22 0 37 -23t15 -55q0 -52 -38 -60q-10 0 -20 18.5t-15 18.5q-11 0 -29.5 -58
t-18.5 -89q0 -15 18 -15q10 0 20 5q112 84 119 90q-12 -42 -17 -50q-47 -65 -122 -92q-28 -10 -36 -42q-8 -35 -21.5 -72t-25 -62t-32 -68t-31.5 -68q-1 -2 -1 -5z" />
    <glyph glyph-name="currency" unicode="&#xa4;" horiz-adv-x="448" 
d="M282 698h-10q-67 0 -136 -38q-7 -4 -17 -4q-2 0 -6.5 0.5t-7.5 0.5l5 15t8 15q67 48 182 48q84 0 136 -38t52 -99q0 -73 -72 -179q-23 -33 -37.5 -52t-41 -49t-53 -45t-52.5 -15q-6 0 -15.5 2.5t-13.5 2.5q-20 0 -25 -29l-5 -31q9 0 31 3t33 3q12 0 47 -29
q-3 -3 -11.5 -11t-14.5 -13t-12 -5q-27 -3 -82 -3q-10 -57 -18 -114q-1 -11 -7 -21t-10 -14.5t-16.5 -14t-14.5 -11.5q-1 -1 -3 -1q-17 0 -27.5 17t-10.5 44q0 45 19 113h-61q-12 0 -23.5 10.5t-11.5 21.5q0 22 71 22h6h35l6 20q3 10 6.5 30.5t4.5 26.5l-54 -3
q-24 0 -37.5 9.5t-26.5 31.5q3 2 9 7t11.5 8.5t9.5 3.5q15 0 25.5 1.5t25.5 1.5q25 0 47 -1l52 271q12 37 44 37q11 0 18 -10.5t7 -23.5q-4 -23 -11.5 -66.5t-10.5 -66.5q-1 -3 -1 -9q0 -4 1 -13t1 -13l-21 -101v-1q0 -3 7.5 -8t18 -10.5t11.5 -6.5q3 -3 9 -3q12 0 19 7
q68 58 125 131.5t57 138.5q0 46 -21 68.5t-72 32.5q-13 3 -37 4.5t-33 3.5z" />
    <glyph glyph-name="yen" unicode="&#xa5;" horiz-adv-x="446" 
d="M239 175q5 0 11 14t13 37t8 27q-55 0 -87 9.5t-49 38.5q3 2 9 7t11.5 8.5t9.5 3.5q9 0 27.5 -0.5t28.5 -0.5q-9 16 -51 105q-43 94 -64 171q0 1 -3 12t-6 19.5t-7 19t-8.5 16.5t-8.5 6q-3 0 -10 -6.5t-10 -6.5q-10 0 -16.5 21t-6.5 47q0 34 14 50t28 16q13 0 25.5 -13
t23 -36.5t17 -41.5t13.5 -42.5t8 -26.5q20 -59 69.5 -166t76.5 -107l71 239q0 25 22.5 69.5t43.5 51.5q9 4 24 4q30 0 30 -23q0 -12 -4 -26q-42 -126 -120 -341l-7 -19l25 -1q3 0 11 -1t11 -1.5t9 -2t9.5 -4t8 -6t9 -9t9.5 -13.5q-12 -8 -28 -13t-27 -6t-30.5 -1.5
t-27.5 -1.5l-25 -68l50 5q1 0 4.5 0.5t5.5 0.5q12 0 47 -29q-4 -3 -11.5 -11t-14 -13t-12.5 -5q-15 -1 -90 -4l-52 -134q-6 -14 -21.5 -28t-27.5 -14q-10 0 -17.5 5t-12.5 16t-8.5 20t-5.5 27.5t-2.5 27.5t-1.5 30t-1 25q0 3 14 24h-5q-12 0 -23.5 10.5t-11.5 21.5
q0 4 1.5 7.5t5.5 5.5l8 4t10 2.5t11 1.5t12.5 1h11.5h11.5h9.5h36v-5zM221 109l7 17h-57l17 -17q3 -4 10 -11.5t9 -9.5q1 2 7 9t7 12z" />
    <glyph glyph-name="brokenbar" unicode="&#xa6;" horiz-adv-x="408" 
d="M405 701q-17 -36 -39.5 -80.5t-50 -99t-41.5 -82.5q-8 -14 -18 -14q-9 0 -20 4l-12 51l60 130q10 21 53 111q5 11 14 16.5t16 6.5t19.5 1t18.5 1q0 -5 1.5 -16t1.5 -16q0 -7 -3 -13zM0 17l12 36l107 216l30 45l34 7q17 -17 17 -27q0 -5 -4 -13q-11 -22 -42.5 -89.5
t-50.5 -104.5q-18 -33 -41 -62.5t-41 -29.5q-3 0 -5.5 1t-5 4t-3.5 5t-3.5 6t-3.5 6z" />
    <glyph glyph-name="section" unicode="&#xa7;" horiz-adv-x="454" 
d="M192 485q37 8 72 8q68 0 114 -27.5t46 -78.5q0 -38 -19.5 -67.5t-64 -66t-55.5 -47.5l-13 -12q126 0 126 -70q0 -43 -28 -87.5t-72 -80.5t-86.5 -63t-84.5 -46q-1 0 -3.5 -0.5t-3.5 -0.5q-40 0 -40 59q0 18 3 35t7 27t8 10q6 0 11.5 -14.5t5.5 -27.5q0 -3 -1 -8.5
t-1 -8.5q1 0 5.5 -0.5t7.5 -0.5q18 1 44 18q28 17 54.5 35.5t63.5 47.5t59.5 59t22.5 53q0 5 -20.5 10t-34.5 5q-28 0 -100 -16l-41 -13q-42 -12 -63 -12q-30 0 -45.5 17t-15.5 40q0 77 155 255q-44 -14 -70 -14q-49 0 -49 41t34 80q113 128 218 192q12 8 24 8q25 0 25 -38
q0 -15 -2 -23q-3 -15 -16 -40t-19 -25t-10 14t-4 30q-27 -17 -78 -62q-7 -6 -34.5 -30t-44 -39.5t-31.5 -32.5q18 2 44 8zM124 179q12 0 26 3l7 5q37 9 122.5 79t85.5 110q0 25 -28.5 40.5t-63.5 17.5q-46 -49 -72 -81t-50.5 -80.5t-26.5 -93.5z" />
    <glyph glyph-name="dieresis" unicode="&#xa8;" horiz-adv-x="294" 
d="M295 683h4q20 0 32.5 -12.5t12.5 -31.5q0 -15 -16.5 -34.5t-31.5 -19.5q-16 0 -32.5 18.5t-16.5 37.5q0 17 14 29.5t34 12.5zM126 696h4q15 0 25 -7.5t10 -19.5q0 -13 -19.5 -36.5t-37.5 -23.5q-13 0 -25.5 15t-12.5 29q0 19 16 31t40 12z" />
    <glyph glyph-name="copyright" unicode="&#xa9;" horiz-adv-x="567" 
d="M547 457q-4 -93 -53.5 -196t-142.5 -196q-83 -83 -169 -83q-79 0 -120.5 50.5t-41.5 109.5q0 23 11 66.5t13 55.5q1 7 5.5 54t13.5 70q30 99 77 171q23 37 114 123q25 24 64.5 40t71.5 16q75 0 116 -71t41 -210zM386 475q-3 -28 -16 -51q-7 7 -14 17t-11 15t-9 5
q-8 0 -19 -14q-45 -57 -45 -144q0 -49 38 -49q12 0 36.5 14.5t37.5 14.5q12 0 16 -12q50 103 66 249q-2 7 -6 32.5t-8.5 43t-12.5 38.5t-21 32.5t-30 11.5q-34 0 -60 -20q-65 -46 -104 -89t-53 -95q-50 -188 -50 -268q0 -58 19.5 -104t47.5 -46q27 2 42 13q98 66 157 177
q-17 -22 -49 -37.5t-59 -15.5q-18 0 -29 7q-33 22 -44 49t-11 68q0 122 92 192q22 22 64 22q35 0 35 -46v-10z" />
    <glyph glyph-name="guillemotleft" unicode="&#xab;" horiz-adv-x="387" 
d="M276 401q5 -3 12.5 -6.5t10 -6.5t2.5 -10q0 -14 -6 -20q-15 -13 -42.5 -37.5t-49.5 -43t-43 -33.5q-5 -3 -12.5 -8.5t-11 -8t-9 -6.5t-8 -6t-6.5 -5.5t-5 -5.5t-3 -5t-2.5 -5.5t-0.5 -5.5q0 -7 16 -30.5t32 -54.5t16 -56q0 -7 -4.5 -14.5t-10.5 -7.5q-8 0 -17.5 6
t-20.5 18.5t-18.5 22t-19 26t-14.5 20.5q-61 80 -61 98q0 16 18 27q37 23 108.5 70t106.5 69q6 4 21 9.5t22 9.5zM382 330q4 -2 9.5 -5t8.5 -4.5t5 -5t2 -8.5q0 -14 -6 -20q-13 -12 -40.5 -34t-40 -33.5t-24 -30t-11.5 -36.5q0 -16 25.5 -62.5t25.5 -73.5q0 -7 -4.5 -14.5
t-10.5 -7.5q-8 0 -17.5 6t-20.5 18.5t-18.5 22t-19 26t-14.5 20.5q-61 80 -61 98q0 16 18 27q37 23 76.5 49.5t74.5 48.5q6 4 21 9.5t22 9.5z" />
    <glyph glyph-name="logicalnot" unicode="&#xac;" horiz-adv-x="437" 
d="M304 137q7 38 33 103q-4 0 -11.5 -0.5t-11.5 -0.5q-8 0 -23 0.5t-22 0.5v6h-203q-46 9 -46 34q0 16 27 24.5t58 8.5q259 0 306 -18q16 -6 16 -14q0 -14 -10 -22q-26 -111 -57 -139q-14 -13 -30 -13q-11 0 -26 30z" />
    <glyph glyph-name="uni00AD" unicode="&#xad;" horiz-adv-x="437" 
d="M269 206h-203q-46 9 -46 34q0 16 27 24.5t58 8.5q259 0 306 -18q15 -7 16 -14q0 -41 -121 -41h-37v6z" />
    <glyph glyph-name="registered" unicode="&#xae;" horiz-adv-x="567" 
d="M547 457q-4 -93 -53.5 -196t-142.5 -196q-83 -83 -169 -83q-79 0 -120.5 50.5t-41.5 109.5q0 23 11 66.5t13 55.5q1 7 5.5 54t13.5 70q30 99 77 171q23 37 114 123q25 24 64.5 40t71.5 16q75 0 116 -71t41 -210zM358 598h3q3 0 4 -2q34 -11 44 -28.5t10 -46.5
q0 -48 -38 -107q-2 -4 -6 -8.5t-6.5 -8t-2.5 -8.5q1 -21 0.5 -71t1.5 -70l2 -32l17 30q8 28 11 28q2 0 2 -3q50 103 66 249q-2 7 -6 32.5t-8.5 43t-12.5 38.5t-21 32.5t-30 11.5q-34 0 -60 -20q-65 -46 -104 -89t-53 -95q-50 -188 -50 -268q0 -58 19.5 -104t47.5 -46
q62 0 158 125q-18 6 -25 41l-7 182v2q1 1 1 2q0 5 -8 5q-11 0 -16.5 -9.5t-8 -25t-3.5 -17.5q-14 -35 -23 -74t-24 -74h-7l-5 -7q-5 -8 -7 -10t-7 -8t-8.5 -8.5t-9 -5t-10.5 -2.5q-19 0 -19 32q0 7 1.5 21.5t1.5 21.5v6q0 25 25 40l2 1h1q-3 -10 -8 -17l-1 -2q1 0 5.5 9
t3.5 10q14 39 39 125t40 128q12 32 22.5 43.5t30.5 11.5q6 0 36 -4zM341 540v-12q0 -82 16 -82q11 2 16.5 16t6 26t0.5 34v7q0 12 -1.5 18t-3 7.5t-8 4.5t-10.5 6q-16 -24 -16 -25z" />
    <glyph glyph-name="macron" unicode="&#xaf;" horiz-adv-x="262" 
d="M195 650q-5 5 -32.5 2t-60 3.5t-32.5 24.5q0 12 20 18t43 6q179 0 179 -24q0 -30 -90 -30h-27z" />
    <glyph glyph-name="degree" unicode="&#xb0;" horiz-adv-x="247" 
d="M100 538q4 54 33 110t65 56q21 0 50 -16.5t29 -42.5q0 -33 -43.5 -106t-76.5 -73q-57 0 -57 72zM226 629q-2 3 -3.5 8t-2.5 7t-3 4.5t-3.5 3.5t-4.5 1q-9 0 -16.5 -6t-14 -19.5t-10 -22.5t-9.5 -27.5t-7 -21.5v-2q0 -15 10 -15q19 0 64 90z" />
    <glyph glyph-name="plusminus" unicode="&#xb1;" horiz-adv-x="426" 
d="M229 90h-203q-46 9 -46 34q0 16 27 24.5t58 8.5q10 0 30 -0.5t31 -0.5l32 106q4 18 4 21q0 10 -7.5 14.5t-26.5 7.5l-53 4q-2 0 -8 1l-9 1.5t-7.5 2t-7 3.5t-4.5 5.5t-2 7.5q0 12 31 21q14 -1 36 -4t32 -3q32 0 51.5 16.5t19.5 44.5q0 5 -2 17t-2 18q0 37 23.5 65
t62.5 28q7 0 13 -10.5t6 -26.5v-6q-13 -51 -32 -103q-4 -12 -4 -15q0 -18 24 -18q14 0 40.5 8t40.5 8q7 0 20 -3t19 -3q-3 -3 -10 -10.5t-13 -12.5t-12 -7q-13 -5 -53.5 -12t-62 -19t-28.5 -37q-34 -89 -43 -112l122 -4q71 -3 71 -25q0 -41 -121 -41h-37v6z" />
    <glyph glyph-name="acute" unicode="&#xb4;" horiz-adv-x="308" 
d="M110 548q-4 3 -17 10.5t-18 13.5t-5 15q0 14 28 25q198 80 228 91q2 1 8 1q24 0 24 -19q0 -15 -5 -18q-20 -19 -53.5 -38t-55 -28.5t-72 -28.5t-62.5 -24z" />
    <glyph glyph-name="mu" unicode="&#xb5;" horiz-adv-x="333" 
d="M-50 -266q5 50 12.5 100.5t18.5 109.5t18.5 96.5t22.5 109.5t21 99q1 5 4.5 26.5t6.5 33t8.5 27.5t13.5 23.5t19 7.5q9 -2 19.5 -9.5t10.5 -14.5v-4q2 -9 2 -28q-22 -112 -32 -167q-1 -4 -1 -11q0 -6 5.5 -19.5t6.5 -16.5q3 3 9 7t10.5 8t6.5 8q26 45 117 207
q13 26 27 26q16 0 26.5 -11t10.5 -25q0 -3 -2 -13q-34 -142 -49 -213q-2 -7 -2 -20t5.5 -32.5t5.5 -24.5q0 -12 -15 -23t-28 -11q-14 0 -23.5 16t-19.5 51.5t-10 36.5q-21 -9 -47.5 -34t-42.5 -25q-4 0 -12 2l-2 -15q-2 -11 -14 -73t-17 -95q-3 -18 -3 -19q0 -13 11 -13
q6 0 15 3q2 1 9.5 -6t7.5 -12q0 -37 -29 -84t-62 -47q-29 0 -39 68z" />
    <glyph glyph-name="paragraph" unicode="&#xb6;" horiz-adv-x="477" 
d="M410 703q27 17 51 17q36 0 36 -50v-6q-2 -5 -18.5 -50.5t-28.5 -66.5q-30 -49 -45 -150q-19 -119 -32 -207q-1 -8 -5 -45.5t-9 -54.5q-14 -68 -34 -68q-7 0 -14.5 11.5t-14 43t-6.5 77.5q0 33 6 66q29 184 64 347l12 43q-7 -5 -41.5 -10.5t-55.5 -29.5l-13 -74l-38 -211
l-52 -272l-4 2q-2 -4 -5.5 -14t-6 -16t-6.5 -13.5t-9.5 -11t-12.5 -3.5q-46 0 -46 34q0 10 3 25q44 190 57 259l12 65q-13 -4 -30 -4q-18 0 -29 7q-33 22 -44 49t-11 68q0 47 18 96t60 87t99 38q4 0 12 -4q37 -19 101 -19h59q18 45 21 45zM163 397q22 122 40 181
q-5 5 -8 10.5t-4 8.5t-3 5t-7 2q-9 0 -19 -14q-45 -57 -45 -144q0 -50 38 -50q5 0 8 1z" />
    <glyph glyph-name="periodcentered" unicode="&#xb7;" horiz-adv-x="161" 
d="M136 362q0 -21 -18 -44t-36 -23t-37.5 18.5t-19.5 36.5q0 24 21 42t47 18q16 0 29.5 -14.5t13.5 -33.5z" />
    <glyph glyph-name="cedilla" unicode="&#xb8;" horiz-adv-x="183" 
d="M154 -16q-7 -3 -15 -14.5t-8 -18.5q0 -8 26 -27.5t26 -34.5q0 -24 -62 -92l-54 -59q-24 -35 -42 -35q-19 0 -25 47q4 4 30 27t49 44.5t29 27.5q5 7 5 16t-18 9q-3 0 -8 -0.5t-7 -0.5q-43 0 -43 35q0 67 117 76z" />
    <glyph glyph-name="guillemotright" unicode="&#xbb;" horiz-adv-x="416" 
d="M133 -1q-2 1 -7.5 3.5t-7 3t-5 2.5t-4 3.5l-1.5 4.5t-1 6q0 33 141 133q49 34 55 44q3 6 3 12q0 14 -35 64q-31 43 -31 75q0 9 5 16.5t11 7.5q8 0 17.5 -6.5t20 -18t19 -22t19 -25t14.5 -19.5q60 -77 60 -100q0 -16 -16 -25q-185 -120 -257 -159zM6 71q-2 1 -7.5 3.5
t-7 3t-5 2.5t-4 3.5l-1.5 4.5t-1 6q0 13 7 20q18 16 34 35t43 38q49 34 55 44q3 6 3 12q0 14 -35 64q-31 43 -31 75q0 9 5 16.5t11 7.5q8 0 17.5 -6.5t20 -18t19 -22t19 -25t14.5 -19.5q60 -77 60 -100q0 -16 -16 -25q-13 -9 -40.5 -26.5t-35.5 -22.5t-28.5 -17t-41.5 -23.5
t-54 -29.5z" />
    <glyph glyph-name="questiondown" unicode="&#xbf;" horiz-adv-x="226" 
d="M-88 -421l-2 8q-41 0 -65.5 20.5t-24.5 56.5q0 35 18 78t35 69.5t46 67.5q75 105 150 213q3 4 10 36q-8 -1 -24.5 -2t-29 -2.5t-23.5 -5.5q18 31 24 36q1 1 10.5 9t12.5 10.5t12 9t14 9.5t13 8t13.5 7t12.5 4t13 2q47 0 47 -50q0 -28 -48 -101q-34 -50 -101.5 -149.5
t-101.5 -149.5q-39 -60 -39 -91q0 -14 8 -22t22 -8q37 0 76 22t59 55q1 2 6.5 12t10 17.5t11.5 14t14 6.5q22 0 22 -35q0 -21 -29.5 -55.5t-58.5 -54.5q-15 -10 -32 -17t-44.5 -16t-36.5 -12zM171 288q-23 0 -37 10.5t-14 27.5q0 18 20.5 38t39.5 20q20 0 33 -16t13 -37
q0 -43 -55 -43z" />
    <glyph glyph-name="Agrave" unicode="&#xc0;" horiz-adv-x="446" 
d="M416 674q-26 -140 -37 -211q-4 -15 -4.5 -57t-6.5 -52q-16 -30 -23 -64.5t-10 -78.5t-7 -67q0 -6 14 -22t14 -26q0 -35 -24.5 -78t-52.5 -43q-17 0 -26.5 30t-9.5 61q0 34 5 72.5t12.5 84.5t10.5 71v2q0 6 -7.5 15t-12.5 9q-26 -2 -41 -6t-31.5 -17.5t-26.5 -37.5
q-17 -41 -53.5 -117.5t-45.5 -95.5q-11 -23 -24 -33q-3 -3 -13.5 -6t-13.5 -4q0 4 -1 11.5t-1 10.5q0 7 2 10l98 211q4 8 4 16q0 6 -1.5 10t-5.5 6t-6.5 2.5t-10 1t-10.5 0.5t-10 -1t-10 -1q-13 0 -28 26q17 15 73 30t70 43q16 29 67 126t79 149q42 89 73 89q9 0 19 -18.5
t10 -28.5q0 -4 -0.5 -11t-0.5 -11h4zM250 373h4q30 -1 38 37q2 12 8.5 35.5t10 43t3.5 35.5q0 4 -5 26q-2 -2 -11.5 -9.5t-12.5 -12.5q-21 -39 -61 -121q-7 -16 -7 -21q0 -13 33 -13zM400 833l-4 -8t-5.5 -10t-7 -8t-9.5 -4q-12 0 -22 5.5t-18.5 18.5t-14.5 23.5t-12 30.5
t-8.5 29t-7.5 30t-6 23q0 1 -0.5 1t-0.5 1q0 11 15.5 22t24.5 11q21 0 43 -55.5t33 -109.5z" />
    <glyph glyph-name="Aacute" unicode="&#xc1;" horiz-adv-x="442" 
d="M416 674q-26 -140 -37 -211q-4 -15 -4.5 -57t-6.5 -52q-16 -30 -23 -64.5t-10 -78.5t-7 -67q0 -6 14 -22t14 -26q0 -35 -24.5 -78t-52.5 -43q-17 0 -26.5 30t-9.5 61q0 34 5 72.5t12.5 84.5t10.5 71v2q0 6 -7.5 15t-12.5 9q-26 -2 -41 -6t-31.5 -17.5t-26.5 -37.5
q-17 -41 -53.5 -117.5t-45.5 -95.5q-11 -23 -24 -33q-3 -3 -13.5 -6t-13.5 -4q0 4 -1 11.5t-1 10.5q0 7 2 10l98 211q4 8 4 16q0 6 -1.5 10t-5.5 6t-6.5 2.5t-10 1t-10.5 0.5t-10 -1t-10 -1q-13 0 -28 26q17 15 73 30t70 43q16 29 67 126t79 149q42 89 73 89q9 0 19 -18.5
t10 -28.5q0 -4 -0.5 -11t-0.5 -11h4zM250 373h4q30 -1 38 37q2 12 8.5 35.5t10 43t3.5 35.5q0 4 -5 26q-2 -2 -11.5 -9.5t-12.5 -12.5q-21 -39 -61 -121q-7 -16 -7 -21q0 -13 33 -13zM404 826q-4 3 -17 10.5t-18 13.5t-5 15q0 14 28 25q197 80 228 91q2 1 8 1q24 0 24 -19
q0 -15 -5 -18q-20 -19 -53.5 -38t-55 -28.5t-72 -28.5t-62.5 -24z" />
    <glyph glyph-name="Acircumflex" unicode="&#xc2;" horiz-adv-x="445" 
d="M416 674q-26 -140 -37 -211q-4 -15 -4.5 -57t-6.5 -52q-16 -30 -23 -64.5t-10 -78.5t-7 -67q0 -6 14 -22t14 -26q0 -35 -24.5 -78t-52.5 -43q-17 0 -26.5 30t-9.5 61q0 34 5 72.5t12.5 84.5t10.5 71v2q0 6 -7.5 15t-12.5 9q-26 -2 -41 -6t-31.5 -17.5t-26.5 -37.5
q-17 -41 -53.5 -117.5t-45.5 -95.5q-11 -23 -24 -33q-3 -3 -13.5 -6t-13.5 -4q0 4 -1 11.5t-1 10.5q0 7 2 10l98 211q4 8 4 16q0 6 -1.5 10t-5.5 6t-6.5 2.5t-10 1t-10.5 0.5t-10 -1t-10 -1q-13 0 -28 26q17 15 73 30t70 43q16 29 67 126t79 149q42 89 73 89q9 0 19 -18.5
t10 -28.5q0 -4 -0.5 -11t-0.5 -11h4zM250 373h4q30 -1 38 37q2 12 8.5 35.5t10 43t3.5 35.5q0 4 -5 26q-2 -2 -11.5 -9.5t-12.5 -12.5q-21 -39 -61 -121q-7 -16 -7 -21q0 -13 33 -13zM510 952q-9 -84 -14 -116q-1 -4 -5.5 -9t-11 -10.5t-9.5 -8.5q-19 15 -28 31t-9 25.5
t-2.5 15.5t-10.5 6t-43 -27q-2 -1 -4.5 -4.5t-5 -5.5t-4.5 -2q-1 0 -34 3q1 4 2 11.5t2.5 12.5t4.5 9q15 17 90 94q8 8 14 20.5t11.5 19.5t15.5 7q8 0 14 -2t10 -4t7 -7.5t4.5 -9t2.5 -11.5t1.5 -11.5t1 -13.5t0.5 -13z" />
    <glyph glyph-name="Atilde" unicode="&#xc3;" horiz-adv-x="453" 
d="M416 674q-26 -140 -37 -211q-4 -15 -4.5 -57t-6.5 -52q-16 -30 -23 -64.5t-10 -78.5t-7 -67q0 -6 14 -22t14 -26q0 -35 -24.5 -78t-52.5 -43q-17 0 -26.5 30t-9.5 61q0 34 5 72.5t12.5 84.5t10.5 71v2q0 6 -7.5 15t-12.5 9q-26 -2 -41 -6t-31.5 -17.5t-26.5 -37.5
q-17 -41 -53.5 -117.5t-45.5 -95.5q-11 -23 -24 -33q-3 -3 -13.5 -6t-13.5 -4q0 4 -1 11.5t-1 10.5q0 7 2 10l98 211q4 8 4 16q0 6 -1.5 10t-5.5 6t-6.5 2.5t-10 1t-10.5 0.5t-10 -1t-10 -1q-13 0 -28 26q17 15 73 30t70 43q16 29 67 126t79 149q42 89 73 89q9 0 19 -18.5
t10 -28.5q0 -4 -0.5 -11t-0.5 -11h4zM250 373h4q30 -1 38 37q2 12 8.5 35.5t10 43t3.5 35.5q0 4 -5 26q-2 -2 -11.5 -9.5t-12.5 -12.5q-21 -39 -61 -121q-7 -16 -7 -21q0 -13 33 -13zM463 817q-11 0 -20 1t-16 4.5t-12 5.5t-10.5 9.5t-8 10.5t-7 14t-5.5 14.5t-6 18.5t-6 19
q-32 -14 -40 -19q-3 -2 -17 -20t-25 -18q-19 0 -19 22q0 31 33 59.5t69 28.5q23 0 38 -14.5t21 -32t15.5 -32t22.5 -14.5q9 0 38 14t45 14q20 0 20 -12q0 -10 -6 -16q-37 -53 -104 -57z" />
    <glyph glyph-name="Adieresis" unicode="&#xc4;" horiz-adv-x="447" 
d="M416 674q-26 -140 -37 -211q-4 -15 -4.5 -57t-6.5 -52q-16 -30 -23 -64.5t-10 -78.5t-7 -67q0 -6 14 -22t14 -26q0 -35 -24.5 -78t-52.5 -43q-17 0 -26.5 30t-9.5 61q0 34 5 72.5t12.5 84.5t10.5 71v2q0 6 -7.5 15t-12.5 9q-26 -2 -41 -6t-31.5 -17.5t-26.5 -37.5
q-17 -41 -53.5 -117.5t-45.5 -95.5q-11 -23 -24 -33q-3 -3 -13.5 -6t-13.5 -4q0 4 -1 11.5t-1 10.5q0 7 2 10l98 211q4 8 4 16q0 6 -1.5 10t-5.5 6t-6.5 2.5t-10 1t-10.5 0.5t-10 -1t-10 -1q-13 0 -28 26q17 15 73 30t70 43q16 29 67 126t79 149q42 89 73 89q9 0 19 -18.5
t10 -28.5q0 -4 -0.5 -11t-0.5 -11h4zM250 373h4q30 -1 38 37q2 12 8.5 35.5t10 43t3.5 35.5q0 4 -5 26q-2 -2 -11.5 -9.5t-12.5 -12.5q-21 -39 -61 -121q-7 -16 -7 -21q0 -13 33 -13zM488 957h4q20 0 32.5 -12.5t12.5 -31.5q0 -15 -16.5 -34.5t-31.5 -19.5q-16 0 -32.5 18.5
t-16.5 37.5q0 17 14 29.5t34 12.5zM319 970h4q15 0 25 -7.5t10 -19.5q0 -13 -19.5 -36.5t-37.5 -23.5q-13 0 -25.5 15t-12.5 29q0 19 16 31t40 12z" />
    <glyph glyph-name="Aring" unicode="&#xc5;" horiz-adv-x="454" 
d="M403 891q39 0 65 -27t26 -61q0 -28 -25 -64t-57 -57v-8h4q-26 -140 -37 -211q-4 -15 -4.5 -57t-6.5 -52q-16 -30 -23 -64.5t-10 -78.5t-7 -67q0 -6 14 -22t14 -26q0 -35 -24.5 -78t-52.5 -43q-17 0 -26.5 30t-9.5 61q0 34 5 72.5t12.5 84.5t10.5 71v2q0 6 -7.5 15
t-12.5 9q-26 -2 -41 -6t-31.5 -17.5t-26.5 -37.5q-17 -41 -53.5 -117.5t-45.5 -95.5q-11 -23 -24 -33q-3 -3 -13.5 -6t-13.5 -4q0 4 -1 11.5t-1 10.5q0 7 2 10l98 211q4 8 4 16q0 6 -1.5 10t-5.5 6t-6.5 2.5t-10 1t-10.5 0.5t-10 -1t-10 -1q-13 0 -28 26q17 15 73 30t70 43
q16 29 67 126t79 149q1 2 5.5 12t7.5 15q-23 20 -23 52q0 73 61 124zM250 373h4q30 -1 38 37q2 12 8.5 35.5t10 43t3.5 35.5q0 4 -5 26q-2 -2 -11.5 -9.5t-12.5 -12.5q-21 -39 -61 -121q-7 -16 -7 -21q0 -13 33 -13zM436 810q0 1 -1.5 4l-2 4t-2 3.5t-2.5 3.5t-3 2.5t-4 2
t-5 0.5q-16 0 -22 -8q-35 -57 -35 -74q0 -10 5 -14q9 9 20 9q4 0 11 -7q16 9 27.5 31t13.5 43z" />
    <glyph glyph-name="AE" unicode="&#xc6;" horiz-adv-x="808" 
d="M399 -71q-6 -1 -18 -1q-44 0 -120 41q-35 17 -35 67q0 7 2 23q8 66 29 217q2 14 2 18q0 21 -25 21q-72 0 -97 -65q-24 -60 -104 -220q-3 -6 -8.5 -11.5t-13 -11.5t-11.5 -10v26q0 14 2 20q52 120 77 180q13 28 13 41q0 16 -16 16q-4 0 -15 -3t-16 -3q-6 0 -36 21l7.5 7.5
t10.5 9.5t9 5q9 3 37.5 10t46.5 15.5t27 22.5q26 47 76 142.5t75 142.5q34 64 53 78q11 8 21 8q9 0 18 -15t9 -25q-6 -82 -12 -122q-3 -16 -17 -75t-15 -91q-3 -60 -20 -104q-2 -8 -2 -13q0 -1 6 -40l15 14q14 14 32 30.5t40 39.5t40 42.5t30 36.5t12 25q0 9 -11 25
q-33 40 -33 87q0 63 44 124t108 61q37 0 59.5 -32.5t22.5 -71.5q0 -7 -1 -12.5t-2.5 -9t-5 -7.5t-5 -5.5t-7 -5.5t-7.5 -5q-1 4 -4.5 12.5t-4.5 11.5q-1 5 -4.5 19.5t-6 21.5t-7.5 16.5t-12.5 14t-17.5 4.5q-36 0 -64.5 -47t-28.5 -94q0 -41 20.5 -55t64 -18t65.5 -14
q-2 -4 -6 -11.5t-7 -12.5t-7 -8q-6 -6 -19 -11.5t-17 -7.5q-102 -46 -185 -179q-55 -85 -86 -156q-6 -15 -6 -26q0 -44 70 -44q55 0 139 40q35 17 107 53.5t129 62.5t111 44h2q1 0 6 -1t7 -1q-6 -18 -10 -24.5t-15 -13.5q-7 -5 -44 -31t-48 -33.5t-43 -29t-49.5 -31
t-45 -25.5t-52 -27t-49.5 -21q-38 -14 -151 -43zM307 524q-2 4 -4.5 11t-3.5 10q-18 -8 -20 -12q-35 -65 -74 -144q0 -24 21 -24q16 0 31.5 8.5t18.5 20.5q7 25 17 69t14 61z" />
    <glyph glyph-name="Ccedilla" unicode="&#xc7;" horiz-adv-x="443" 
d="M49 -270q4 4 30 27t49 44.5t29 27.5q5 7 5 16t-18 9q-2 0 -7 -0.5t-8 -0.5q-43 0 -43 35q0 7 5.5 27t5.5 28q0 21 -24 38q-53 38 -53 115q2 167 72 323t192 236q52 34 94 34q10 0 16.5 -7t6.5 -18q0 -26 -35 -118q-1 -5 -5 -9.5t-11.5 -10.5t-9.5 -7q-17 43 -24 68
q-29 -12 -34 -17q-138 -134 -179 -364q-10 -58 -10 -143q0 -17 18.5 -30t41.5 -13q14 0 23 4q36 14 77 37t67 40t73.5 50t65.5 45q2 1 16 4l8 -7q-3 -3 -29.5 -33t-32.5 -36.5t-30.5 -31.5t-35 -33.5t-33 -28t-38.5 -28.5t-38 -20t-43 -18q-7 -3 -15 -14.5t-8 -18.5
q0 -8 26 -27.5t26 -34.5q0 -24 -62 -92l-54 -59q-24 -35 -42 -35q-19 0 -25 47z" />
    <glyph glyph-name="Egrave" unicode="&#xc8;" 
d="M137 5q120 44 164 64q13 6 273 130q10 5 29.5 6t25.5 2q-23 -34 -32 -40q-2 -2 -37 -26t-40.5 -28t-37 -25t-42 -27t-37.5 -23t-43 -24t-40 -19.5t-45.5 -20.5t-44.5 -15q-66 -22 -112 -22q-67 0 -107.5 33.5t-40.5 80.5q0 29 15 60q60 128 174 260q10 11 29.5 27.5
t31 28.5t11.5 22q0 12 -12 24q-33 33 -33 88q0 64 43.5 124t104.5 60q37 0 62 -31t25 -66q0 -11 -3 -19t-5.5 -11.5t-9.5 -10t-10 -9.5q-13 24 -13 38q0 2 0.5 6.5t0.5 6.5q0 20 -15 32.5t-29 12.5q-43 0 -69 -46t-26 -92q0 -21 7 -34.5t20.5 -19.5t26 -8.5t32.5 -5t30 -4.5
q5 -1 16 -5.5t16 -5.5q-2 -4 -4.5 -12t-5 -13.5t-6.5 -8.5q-3 -2 -56 -30q-86 -44 -162 -159q-99 -151 -99 -196q0 -42 69 -42q2 0 4 0.5t3 0.5zM342 833l-4 -8t-5.5 -10t-7 -8t-9.5 -4q-12 0 -22 5.5t-18.5 18.5t-14.5 23.5t-12 30.5t-8.5 29t-7.5 30t-6 23q0 1 -0.5 1
t-0.5 1q0 11 15.5 22t24.5 11q21 0 43 -55.5t33 -109.5z" />
    <glyph glyph-name="Eacute" unicode="&#xc9;" 
d="M137 5q120 44 164 64q13 6 273 130q10 5 29.5 6t25.5 2q-23 -34 -32 -40q-2 -2 -37 -26t-40.5 -28t-37 -25t-42 -27t-37.5 -23t-43 -24t-40 -19.5t-45.5 -20.5t-44.5 -15q-66 -22 -112 -22q-67 0 -107.5 33.5t-40.5 80.5q0 29 15 60q60 128 174 260q10 11 29.5 27.5
t31 28.5t11.5 22q0 12 -12 24q-33 33 -33 88q0 64 43.5 124t104.5 60q37 0 62 -31t25 -66q0 -11 -3 -19t-5.5 -11.5t-9.5 -10t-10 -9.5q-13 24 -13 38q0 2 0.5 6.5t0.5 6.5q0 20 -15 32.5t-29 12.5q-43 0 -69 -46t-26 -92q0 -21 7 -34.5t20.5 -19.5t26 -8.5t32.5 -5t30 -4.5
q5 -1 16 -5.5t16 -5.5q-2 -4 -4.5 -12t-5 -13.5t-6.5 -8.5q-3 -2 -56 -30q-86 -44 -162 -159q-99 -151 -99 -196q0 -42 69 -42q2 0 4 0.5t3 0.5zM314 843q-4 3 -17 10.5t-18 13.5t-5 15q0 14 28 25q198 80 228 91q2 1 8 1q24 0 24 -19q0 -15 -5 -18q-20 -19 -53.5 -38
t-55 -28.5t-72 -28.5t-62.5 -24z" />
    <glyph glyph-name="Ecircumflex" unicode="&#xca;" 
d="M137 5q120 44 164 64q13 6 273 130q10 5 29.5 6t25.5 2q-23 -34 -32 -40q-2 -2 -37 -26t-40.5 -28t-37 -25t-42 -27t-37.5 -23t-43 -24t-40 -19.5t-45.5 -20.5t-44.5 -15q-66 -22 -112 -22q-67 0 -107.5 33.5t-40.5 80.5q0 29 15 60q60 128 174 260q10 11 29.5 27.5
t31 28.5t11.5 22q0 12 -12 24q-33 33 -33 88q0 64 43.5 124t104.5 60q37 0 62 -31t25 -66q0 -11 -3 -19t-5.5 -11.5t-9.5 -10t-10 -9.5q-13 24 -13 38q0 2 0.5 6.5t0.5 6.5q0 20 -15 32.5t-29 12.5q-43 0 -69 -46t-26 -92q0 -21 7 -34.5t20.5 -19.5t26 -8.5t32.5 -5t30 -4.5
q5 -1 16 -5.5t16 -5.5q-2 -4 -4.5 -12t-5 -13.5t-6.5 -8.5q-3 -2 -56 -30q-86 -44 -162 -159q-99 -151 -99 -196q0 -42 69 -42q2 0 4 0.5t3 0.5zM441 973q-9 -84 -14 -116q-1 -4 -5.5 -9t-11 -10.5t-9.5 -8.5q-19 15 -28 31t-9 25.5t-2.5 15.5t-10.5 6t-43 -27
q-2 -1 -4.5 -4.5t-5 -5.5t-4.5 -2q-1 0 -34 3q1 4 2 11.5t2.5 12.5t4.5 9q15 17 90 94q8 8 14 20.5t11.5 19.5t15.5 7q8 0 14 -2t10 -4t7 -7.5t4.5 -9t2.5 -11.5t1.5 -11.5t1 -13.5t0.5 -13z" />
    <glyph glyph-name="Edieresis" unicode="&#xcb;" 
d="M137 5q120 44 164 64q13 6 273 130q10 5 29.5 6t25.5 2q-23 -34 -32 -40q-2 -2 -37 -26t-40.5 -28t-37 -25t-42 -27t-37.5 -23t-43 -24t-40 -19.5t-45.5 -20.5t-44.5 -15q-66 -22 -112 -22q-67 0 -107.5 33.5t-40.5 80.5q0 29 15 60q60 128 174 260q10 11 29.5 27.5
t31 28.5t11.5 22q0 12 -12 24q-33 33 -33 88q0 64 43.5 124t104.5 60q37 0 62 -31t25 -66q0 -11 -3 -19t-5.5 -11.5t-9.5 -10t-10 -9.5q-13 24 -13 38q0 2 0.5 6.5t0.5 6.5q0 20 -15 32.5t-29 12.5q-43 0 -69 -46t-26 -92q0 -21 7 -34.5t20.5 -19.5t26 -8.5t32.5 -5t30 -4.5
q5 -1 16 -5.5t16 -5.5q-2 -4 -4.5 -12t-5 -13.5t-6.5 -8.5q-3 -2 -56 -30q-86 -44 -162 -159q-99 -151 -99 -196q0 -42 69 -42q2 0 4 0.5t3 0.5zM440 934h4q20 0 32.5 -12.5t12.5 -31.5q0 -15 -16.5 -34.5t-31.5 -19.5q-16 0 -32.5 18.5t-16.5 37.5q0 17 14 29.5t34 12.5z
M271 947h4q15 0 25 -7.5t10 -19.5q0 -13 -19.5 -36.5t-37.5 -23.5q-13 0 -25.5 15t-12.5 29q0 19 16 31t40 12z" />
    <glyph glyph-name="Igrave" unicode="&#xcc;" horiz-adv-x="301" 
d="M84 141q20 157 72 436q0 1 0.5 3.5t0.5 3.5q0 12 -14.5 24.5t-31.5 21t-31.5 20.5t-14.5 25q0 14 19 14q21 0 53.5 -12t46.5 -12q26 0 75 24.5t76 24.5q16 0 16 -11q0 -14 -6 -18q-11 -10 -35.5 -27.5t-40 -33t-19.5 -32.5q-29 -132 -81 -483q-1 -4 -1 -11q0 -26 30 -26
q2 0 5.5 1t5.5 1q4 0 9.5 -3.5t11.5 -8t9 -5.5q-15 -20 -19 -21q-15 -4 -47 -10.5t-47 -11.5q-9 -3 -29 -11t-36.5 -13t-29.5 -5q-6 0 -17 2t-14 2q2 4 4.5 13t5.5 15t8 8q21 16 52 41.5t31 28.5h-1q-2 0 -8 18.5t-6 27.5h-2zM248 823l-4 -8t-5.5 -10t-7 -8t-9.5 -4
q-12 0 -22 5.5t-18.5 18.5t-14.5 23.5t-12 30.5t-8.5 29t-7.5 30t-6 23q0 1 -0.5 1t-0.5 1q0 11 15.5 22t24.5 11q21 0 43 -55.5t33 -109.5z" />
    <glyph glyph-name="Iacute" unicode="&#xcd;" horiz-adv-x="301" 
d="M84 141q20 157 72 436q0 1 0.5 3.5t0.5 3.5q0 12 -14.5 24.5t-31.5 21t-31.5 20.5t-14.5 25q0 14 19 14q21 0 53.5 -12t46.5 -12q26 0 75 24.5t76 24.5q16 0 16 -11q0 -14 -6 -18q-11 -10 -35.5 -27.5t-40 -33t-19.5 -32.5q-29 -132 -81 -483q-1 -4 -1 -11q0 -26 30 -26
q2 0 5.5 1t5.5 1q4 0 9.5 -3.5t11.5 -8t9 -5.5q-15 -20 -19 -21q-15 -4 -47 -10.5t-47 -11.5q-9 -3 -29 -11t-36.5 -13t-29.5 -5q-6 0 -17 2t-14 2q2 4 4.5 13t5.5 15t8 8q21 16 52 41.5t31 28.5h-1q-2 0 -8 18.5t-6 27.5h-2zM208 818q-4 3 -17 10.5t-18 13.5t-5 15
q0 14 28 25q197 80 228 91q2 1 8 1q24 0 24 -19q0 -15 -5 -18q-20 -19 -53.5 -38t-55 -28.5t-72 -28.5t-62.5 -24z" />
    <glyph glyph-name="Icircumflex" unicode="&#xce;" horiz-adv-x="301" 
d="M84 141q20 157 72 436q0 1 0.5 3.5t0.5 3.5q0 12 -14.5 24.5t-31.5 21t-31.5 20.5t-14.5 25q0 14 19 14q21 0 53.5 -12t46.5 -12q26 0 75 24.5t76 24.5q16 0 16 -11q0 -14 -6 -18q-11 -10 -35.5 -27.5t-40 -33t-19.5 -32.5q-29 -132 -81 -483q-1 -4 -1 -11q0 -26 30 -26
q2 0 5.5 1t5.5 1q4 0 9.5 -3.5t11.5 -8t9 -5.5q-15 -20 -19 -21q-15 -4 -47 -10.5t-47 -11.5q-9 -3 -29 -11t-36.5 -13t-29.5 -5q-6 0 -17 2t-14 2q2 4 4.5 13t5.5 15t8 8q21 16 52 41.5t31 28.5h-1q-2 0 -8 18.5t-6 27.5h-2zM321 923q-9 -84 -14 -116q-1 -4 -5.5 -9
t-11 -10.5t-9.5 -8.5q-19 15 -28 31t-9 25.5t-2.5 15.5t-10.5 6t-43 -27q-2 -1 -4.5 -4.5t-5 -5.5t-4.5 -2q-1 0 -34 3q1 4 2 11.5t2.5 12.5t4.5 9q15 17 90 94q8 8 14 20.5t11.5 19.5t15.5 7q8 0 14 -2t10 -4t7 -7.5t4.5 -9t2.5 -11.5t1.5 -11.5t1 -13.5t0.5 -13z" />
    <glyph glyph-name="Idieresis" unicode="&#xcf;" horiz-adv-x="301" 
d="M84 141q20 157 72 436q0 1 0.5 3.5t0.5 3.5q0 12 -14.5 24.5t-31.5 21t-31.5 20.5t-14.5 25q0 14 19 14q21 0 53.5 -12t46.5 -12q26 0 75 24.5t76 24.5q16 0 16 -11q0 -14 -6 -18q-11 -10 -35.5 -27.5t-40 -33t-19.5 -32.5q-29 -132 -81 -483q-1 -4 -1 -11q0 -26 30 -26
q2 0 5.5 1t5.5 1q4 0 9.5 -3.5t11.5 -8t9 -5.5q-15 -20 -19 -21q-15 -4 -47 -10.5t-47 -11.5q-9 -3 -29 -11t-36.5 -13t-29.5 -5q-6 0 -17 2t-14 2q2 4 4.5 13t5.5 15t8 8q21 16 52 41.5t31 28.5h-1q-2 0 -8 18.5t-6 27.5h-2zM300 878h4q20 0 32.5 -12.5t12.5 -31.5
q0 -15 -16.5 -34.5t-31.5 -19.5q-16 0 -32.5 18.5t-16.5 37.5q0 17 14 29.5t34 12.5zM131 891h4q15 0 25 -7.5t10 -19.5q0 -13 -19.5 -36.5t-37.5 -23.5q-13 0 -25.5 15t-12.5 29q0 19 16 31t40 12z" />
    <glyph glyph-name="Eth" unicode="&#xd0;" horiz-adv-x="656" 
d="M443 701q12 -1 35.5 -0.5t42.5 -0.5t35 -5q47 -11 73.5 -56t26.5 -96q0 -25 -8 -49q-46 -128 -145 -236q-141 -153 -254 -262q-68 -66 -139 -66q-35 0 -50 27q18 22 53 36t58 31t26 54q5 63 29 222q3 15 3 24q0 12 -7.5 16.5t-30.5 6.5q-150 14 -180 37q-11 8 -11 18
q0 30 30 30q29 0 85 -5t83 -5q55 0 55 38q0 7 -4 25.5t-4 27.5q0 34 15 64.5t40 30.5q20 0 29.5 -11.5t9.5 -28.5q0 -15 -3.5 -47.5t-3.5 -49.5q0 -37 39 -37q5 0 16 1t16 1q24 0 50 -6t26 -17q-8 -32 -121 -50q-13 -1 -23 -7.5t-15.5 -13t-10 -21t-6 -21.5t-4.5 -27t-4 -26
t-8 -35.5t-7 -44.5q0 -5 1.5 -15.5t1.5 -15.5q4 2 11.5 4.5t13.5 5.5t10 7q75 78 85 90q8 11 45 55t52 65.5t39.5 60t34.5 72.5t10 69q0 22 -6 38t-22 26t-28.5 15.5t-41.5 8t-43 2.5h-51h-23q-86 0 -143 -28q-1 -1 -4 -1q-5 0 -20 5q3 23 7 26q30 22 48 25q35 5 100.5 12.5
t85.5 10.5v-4z" />
    <glyph glyph-name="Ntilde" unicode="&#xd1;" horiz-adv-x="533" 
d="M430 729q-11 0 -20 1t-16 4.5t-12 5.5t-10.5 9.5t-8 10.5t-7 14t-5.5 14.5t-6 18.5t-6 19q-32 -14 -40 -19q-3 -2 -17 -20t-25 -18q-19 0 -19 22q0 31 33 59.5t69 28.5q23 0 38 -14.5t21 -32t15.5 -32t22.5 -14.5q9 0 38 14t45 14q20 0 20 -12q0 -10 -6 -16
q19 -11 19 -47q0 -24 -11.5 -62t-27 -77t-16.5 -42t-31 -120q-15 -59 -40.5 -142t-41.5 -151q-3 -12 -7 -37.5t-8 -41t-10.5 -33.5t-18 -27t-27.5 -9q-9 0 -16 5t-12.5 16t-9 21.5t-6.5 27.5t-5 28.5t-4 29.5t-3 26l-38 292q-4 36 -12 75q-8 0 -12 2q-2 -8 -10 -28t-10 -32
q-13 -65 -37 -198t-37 -200q-5 -23 -24 -52q-4 -4 -9.5 -7t-13 -5.5t-11.5 -4.5q0 1 -6.5 15.5t-6.5 21.5q0 11 1.5 22t5 25.5t4.5 21.5q8 44 23 128.5t23 125.5l41 193q2 11 5 37t5.5 41.5t12.5 29t26 13.5q29 0 35 -29q35 -167 65 -326q3 -15 6.5 -53.5t9 -66t15.5 -37.5
q14 11 15 17q7 31 16.5 48.5t17.5 49.5q16 66 60 225t63 246q-25 -11 -51 -12z" />
    <glyph glyph-name="Ograve" unicode="&#xd2;" horiz-adv-x="567" 
d="M547 457q-4 -93 -53.5 -196t-142.5 -196q-83 -83 -169 -83q-79 0 -120.5 50.5t-41.5 109.5q0 23 11 66.5t13 55.5q1 7 5.5 54t13.5 70q30 99 77 171q23 37 114 123q25 24 64.5 40t71.5 16q75 0 116 -71t41 -210zM466 520q-2 7 -6 32.5t-8.5 43t-12.5 38.5t-21 32.5
t-30 11.5q-90 0 -211 -195l-6 -9q-3 -4 -3 -11q0 -17 23.5 -36t23.5 -32q0 -4 -3 -13.5t-3 -14.5q0 -28 46 -28q1 0 5 0.5t6 0.5q7 0 7 -6q0 -13 -15.5 -22t-34 -13t-35.5 -12.5t-20 -21.5q-2 -9 -10 -43t-11.5 -57.5t-3.5 -43.5q0 -29 11.5 -47t33.5 -18q27 2 42 13
q115 79 167 192.5t69 258.5zM417 844l-4 -8t-5.5 -10t-7 -8t-9.5 -4q-12 0 -22 5.5t-18.5 18.5t-14.5 23.5t-12 30.5t-8.5 29t-7.5 30t-6 23v1l-1 1q0 11 15.5 22t24.5 11q21 0 43 -55.5t33 -109.5z" />
    <glyph glyph-name="Oacute" unicode="&#xd3;" horiz-adv-x="565" 
d="M547 457q-4 -93 -53.5 -196t-142.5 -196q-83 -83 -169 -83q-79 0 -120.5 50.5t-41.5 109.5q0 23 11 66.5t13 55.5q1 7 5.5 54t13.5 70q30 99 77 171q23 37 114 123q25 24 64.5 40t71.5 16q75 0 116 -71t41 -210zM466 520q-2 7 -6 32.5t-8.5 43t-12.5 38.5t-21 32.5
t-30 11.5q-90 0 -211 -195l-6 -9q-3 -4 -3 -11q0 -17 23.5 -36t23.5 -32q0 -4 -3 -13.5t-3 -14.5q0 -28 46 -28q1 0 5 0.5t6 0.5q7 0 7 -6q0 -13 -15.5 -22t-34 -13t-35.5 -12.5t-20 -21.5q-2 -9 -10 -43t-11.5 -57.5t-3.5 -43.5q0 -29 11.5 -47t33.5 -18q27 2 42 13
q115 79 167 192.5t69 258.5zM377 843q-4 3 -17 10.5t-18 13.5t-5 15q0 14 28 25q197 80 228 91q2 1 8 1q24 0 24 -19q0 -15 -5 -18q-20 -19 -53.5 -38t-55 -28.5t-72 -28.5t-62.5 -24z" />
    <glyph glyph-name="Ocircumflex" unicode="&#xd4;" horiz-adv-x="567" 
d="M547 457q-4 -93 -53.5 -196t-142.5 -196q-83 -83 -169 -83q-79 0 -120.5 50.5t-41.5 109.5q0 23 11 66.5t13 55.5q1 7 5.5 54t13.5 70q30 99 77 171q23 37 114 123q25 24 64.5 40t71.5 16q75 0 116 -71t41 -210zM466 520q-2 7 -6 32.5t-8.5 43t-12.5 38.5t-21 32.5
t-30 11.5q-90 0 -211 -195l-6 -9q-3 -4 -3 -11q0 -17 23.5 -36t23.5 -32q0 -4 -3 -13.5t-3 -14.5q0 -28 46 -28q1 0 5 0.5t6 0.5q7 0 7 -6q0 -13 -15.5 -22t-34 -13t-35.5 -12.5t-20 -21.5q-2 -9 -10 -43t-11.5 -57.5t-3.5 -43.5q0 -29 11.5 -47t33.5 -18q27 2 42 13
q115 79 167 192.5t69 258.5zM491 943q-9 -84 -14 -116q-1 -4 -5.5 -9t-11 -10.5t-9.5 -8.5q-19 15 -28 31t-9 25.5t-2.5 15.5t-10.5 6t-43 -27q-2 -1 -4.5 -4.5t-5 -5.5t-4.5 -2q-1 0 -34 3q1 4 2 11.5t2.5 12.5t4.5 9q15 17 90 94q8 8 14 20.5t11.5 19.5t15.5 7q8 0 14 -2
t10 -4t7 -7.5t4.5 -9t2.5 -11.5t1.5 -11.5t1 -13.5t0.5 -13z" />
    <glyph glyph-name="Otilde" unicode="&#xd5;" horiz-adv-x="564" 
d="M547 457q-4 -93 -53.5 -196t-142.5 -196q-83 -83 -169 -83q-79 0 -120.5 50.5t-41.5 109.5q0 23 11 66.5t13 55.5q1 7 5.5 54t13.5 70q30 99 77 171q23 37 114 123q25 24 64.5 40t71.5 16q75 0 116 -71t41 -210zM466 520q-2 7 -6 32.5t-8.5 43t-12.5 38.5t-21 32.5
t-30 11.5q-90 0 -211 -195l-6 -9q-3 -4 -3 -11q0 -17 23.5 -36t23.5 -32q0 -4 -3 -13.5t-3 -14.5q0 -28 46 -28q1 0 5 0.5t6 0.5q7 0 7 -6q0 -13 -15.5 -22t-34 -13t-35.5 -12.5t-20 -21.5q-2 -9 -10 -43t-11.5 -57.5t-3.5 -43.5q0 -29 11.5 -47t33.5 -18q27 2 42 13
q115 79 167 192.5t69 258.5zM484 824q-11 0 -20 1t-16 4.5t-12 5.5t-10.5 9.5t-8 10.5t-7 14t-5.5 14.5t-6 18.5t-6 19q-32 -14 -40 -19q-3 -2 -17 -20t-25 -18q-19 0 -19 22q0 31 33 59.5t69 28.5q23 0 38 -14.5t21 -32t15.5 -32t22.5 -14.5q9 0 38 14t45 14q20 0 20 -12
q0 -10 -6 -16q-37 -53 -104 -57z" />
    <glyph glyph-name="Odieresis" unicode="&#xd6;" horiz-adv-x="567" 
d="M547 457q-4 -93 -53.5 -196t-142.5 -196q-83 -83 -169 -83q-79 0 -120.5 50.5t-41.5 109.5q0 23 11 66.5t13 55.5q1 7 5.5 54t13.5 70q30 99 77 171q23 37 114 123q25 24 64.5 40t71.5 16q75 0 116 -71t41 -210zM466 520q-2 7 -6 32.5t-8.5 43t-12.5 38.5t-21 32.5
t-30 11.5q-90 0 -211 -195l-6 -9q-3 -4 -3 -11q0 -17 23.5 -36t23.5 -32q0 -4 -3 -13.5t-3 -14.5q0 -28 46 -28q1 0 5 0.5t6 0.5q7 0 7 -6q0 -13 -15.5 -22t-34 -13t-35.5 -12.5t-20 -21.5q-2 -9 -10 -43t-11.5 -57.5t-3.5 -43.5q0 -29 11.5 -47t33.5 -18q27 2 42 13
q115 79 167 192.5t69 258.5zM470 936h4q20 0 32.5 -12.5t12.5 -31.5q0 -15 -16.5 -34.5t-31.5 -19.5q-16 0 -32.5 18.5t-16.5 37.5q0 17 14 29.5t34 12.5zM301 949h4q15 0 25 -7.5t10 -19.5q0 -13 -19.5 -36.5t-37.5 -23.5q-13 0 -25.5 15t-12.5 29q0 19 16 31t40 12z" />
    <glyph glyph-name="multiply" unicode="&#xd7;" horiz-adv-x="396" 
d="M143 417q42 -4 54 -37q13 -36 20.5 -49t15.5 -13q2 0 4.5 0.5t5.5 3t6 4.5t7.5 6.5t8 8.5t9.5 10.5t11 11.5q4 4 16.5 18t19 20.5t18 13t22.5 6.5q5 0 11 -1t13 -2.5t11 -2.5q-1 -4 -2.5 -12.5t-3.5 -15t-6 -10.5q-13 -18 -47 -57t-52.5 -65.5t-18.5 -43.5t27.5 -85.5
t35.5 -96.5q0 -1 0.5 -3t0.5 -3q0 -9 -8.5 -28.5t-9.5 -23.5q-5 3 -15 8.5t-18 11t-12 12.5q-10 15 -30 53t-35.5 62t-23.5 24q-9 0 -33 -24t-57.5 -63.5t-44.5 -51.5q-5 -4 -12.5 -8t-17 -8.5t-13.5 -6.5v22q0 16 5 25q74 111 122 168q22 25 22 47q0 12 -22.5 67t-22.5 72
q0 16 10.5 26t28.5 10z" />
    <glyph glyph-name="Oslash" unicode="&#xd8;" horiz-adv-x="420" 
d="M30 -119q4 20 14.5 57t17.5 65.5t7 46.5q0 19 -14 65.5t-14 72.5q0 29 16 123q4 21 6.5 62t5.5 59q9 60 31.5 125t67.5 131t101 90q17 9 30 43.5t26.5 95.5t17.5 74q9 32 37 32q20 0 30 -9.5t10 -22.5q0 -11 -5 -26q-7 -24 -19.5 -71t-18.5 -67q0 -7 -2 -8
q-20 -24 -20 -51q0 -20 21 -72q27 -69 27 -155q0 -199 -103 -381q-29 -51 -59.5 -84t-75.5 -52q-15 -6 -28 -34.5t-27 -73.5t-20 -61q-3 -8 -9 -15t-15 -16.5t-13 -13.5q-3 8 -8 27t-8.5 31t-6.5 13zM345 565q-2 10 -5 34t-6 43t-8 40t-14.5 32.5t-21.5 11.5
q-14 0 -29 -10.5t-30 -31.5t-26.5 -39.5t-26 -49t-20.5 -44t-17 -39.5l-1 -2v-2q0 -17 17.5 -37t17.5 -33q0 -4 -1.5 -13t-1.5 -14q0 -29 31 -29q7 0 26.5 6.5t28.5 6.5q11 0 20 -3q-2 -2 -6 -11t-7 -11q-6 -2 -23.5 -9.5t-29.5 -11.5t-24 -6q-23 -4 -34.5 -14.5
t-12.5 -31.5q-16 -98 -16 -126q0 -72 30 -72q27 0 67 56q103 147 123 410z" />
    <glyph glyph-name="Ugrave" unicode="&#xd9;" horiz-adv-x="547" 
d="M30 192q2 25 6 92t6 96.5t7.5 86t11.5 93t16 83t23 87.5q1 1 1 4.5t2 5.5l40 45q0 -2 1.5 -17t1.5 -23q0 -3 -0.5 -8t-0.5 -7q-5 -29 -19 -117.5t-20.5 -132.5t-13 -114t-6.5 -128q0 -182 50 -182q18 -1 30 17q77 115 116 202q29 66 79 192t59 147q15 38 62 38
q35 0 35 -42q0 -11 -1 -17q-6 -54 -22.5 -153.5t-21.5 -140.5q-15 -112 -15 -130q0 -17 16.5 -47t16.5 -45q0 -22 -23.5 -58.5t-52.5 -36.5q-26 0 -44 31.5t-18 64.5q0 27 8.5 84t8.5 87q0 5 -5 15.5t-6 13.5q-17 -19 -21 -26q-17 -27 -60 -101.5t-68 -113.5
q-24 -38 -69 -38q-25 0 -44 11t-29 25t-18 39.5t-10 41t-5 43t-4 33.5zM351 833l-4 -8t-5.5 -10t-7 -8t-9.5 -4q-12 0 -22 5.5t-18.5 18.5t-14.5 23.5t-12 30.5t-8.5 29t-7.5 30t-6 23q0 1 -0.5 1t-0.5 1q0 11 15.5 22t24.5 11q21 0 43 -55.5t33 -109.5z" />
    <glyph glyph-name="Uacute" unicode="&#xda;" horiz-adv-x="546" 
d="M30 192q2 25 6 92t6 96.5t7.5 86t11.5 93t16 83t23 87.5q1 1 1 4.5t2 5.5l40 45q0 -2 1.5 -17t1.5 -23q0 -3 -0.5 -8t-0.5 -7q-5 -29 -19 -117.5t-20.5 -132.5t-13 -114t-6.5 -128q0 -182 50 -182q18 -1 30 17q77 115 116 202q29 66 79 192t59 147q15 38 62 38
q35 0 35 -42q0 -11 -1 -17q-6 -54 -22.5 -153.5t-21.5 -140.5q-15 -112 -15 -130q0 -17 16.5 -47t16.5 -45q0 -22 -23.5 -58.5t-52.5 -36.5q-26 0 -44 31.5t-18 64.5q0 27 8.5 84t8.5 87q0 5 -5 15.5t-6 13.5q-17 -19 -21 -26q-17 -27 -60 -101.5t-68 -113.5
q-24 -38 -69 -38q-25 0 -44 11t-29 25t-18 39.5t-10 41t-5 43t-4 33.5zM318 830q-4 3 -17 10.5t-18 13.5t-5 15q0 14 28 25q198 80 228 91q2 1 8 1q24 0 24 -19q0 -15 -5 -18q-20 -19 -53.5 -38t-55 -28.5t-72 -28.5t-62.5 -24z" />
    <glyph glyph-name="Ucircumflex" unicode="&#xdb;" horiz-adv-x="547" 
d="M30 192q2 25 6 92t6 96.5t7.5 86t11.5 93t16 83t23 87.5q1 1 1 4.5t2 5.5l40 45q0 -2 1.5 -17t1.5 -23q0 -3 -0.5 -8t-0.5 -7q-5 -29 -19 -117.5t-20.5 -132.5t-13 -114t-6.5 -128q0 -182 50 -182q18 -1 30 17q77 115 116 202q29 66 79 192t59 147q15 38 62 38
q35 0 35 -42q0 -11 -1 -17q-6 -54 -22.5 -153.5t-21.5 -140.5q-15 -112 -15 -130q0 -17 16.5 -47t16.5 -45q0 -22 -23.5 -58.5t-52.5 -36.5q-26 0 -44 31.5t-18 64.5q0 27 8.5 84t8.5 87q0 5 -5 15.5t-6 13.5q-17 -19 -21 -26q-17 -27 -60 -101.5t-68 -113.5
q-24 -38 -69 -38q-25 0 -44 11t-29 25t-18 39.5t-10 41t-5 43t-4 33.5zM413 912q-9 -84 -14 -116q-1 -4 -5.5 -9t-11 -10.5t-9.5 -8.5q-19 15 -28 31t-9 25.5t-2.5 15.5t-10.5 6t-43 -27q-2 -1 -4.5 -4.5t-5 -5.5t-4.5 -2q-1 0 -34 3q1 4 2 11.5t2.5 12.5t4.5 9q15 17 90 94
q8 8 14 20.5t11.5 19.5t15.5 7q8 0 14 -2t10 -4t7 -7.5t4.5 -9t2.5 -11.5t1.5 -11.5t1 -13.5t0.5 -13z" />
    <glyph glyph-name="Udieresis" unicode="&#xdc;" horiz-adv-x="547" 
d="M30 192q2 25 6 92t6 96.5t7.5 86t11.5 93t16 83t23 87.5q1 1 1 4.5t2 5.5l40 45q0 -2 1.5 -17t1.5 -23q0 -3 -0.5 -8t-0.5 -7q-5 -29 -19 -117.5t-20.5 -132.5t-13 -114t-6.5 -128q0 -182 50 -182q18 -1 30 17q77 115 116 202q29 66 79 192t59 147q15 38 62 38
q35 0 35 -42q0 -11 -1 -17q-6 -54 -22.5 -153.5t-21.5 -140.5q-15 -112 -15 -130q0 -17 16.5 -47t16.5 -45q0 -22 -23.5 -58.5t-52.5 -36.5q-26 0 -44 31.5t-18 64.5q0 27 8.5 84t8.5 87q0 5 -5 15.5t-6 13.5q-17 -19 -21 -26q-17 -27 -60 -101.5t-68 -113.5
q-24 -38 -69 -38q-25 0 -44 11t-29 25t-18 39.5t-10 41t-5 43t-4 33.5zM424 922h4q20 0 32.5 -12.5t12.5 -31.5q0 -15 -16.5 -34.5t-31.5 -19.5q-16 0 -32.5 18.5t-16.5 37.5q0 17 14 29.5t34 12.5zM255 935h4q15 0 25 -7.5t10 -19.5q0 -13 -19.5 -36.5t-37.5 -23.5
q-13 0 -25.5 15t-12.5 29q0 19 16 31t40 12z" />
    <glyph glyph-name="Yacute" unicode="&#xdd;" horiz-adv-x="445" 
d="M491 714q5 -3 5 -17q0 -12 -4 -26q-116 -347 -246 -678q-6 -14 -21.5 -28t-27.5 -14q-10 0 -17.5 5t-12.5 16t-8.5 20t-5.5 27.5t-2.5 27.5t-1.5 30t-1 25t3 9t8 11t7 10l22 -23q3 -4 10 -11.5t9 -9.5q10 18 20 41.5t15 37.5t15.5 46t13.5 40q-39 33 -101 171
q-42 90 -64 171q0 1 -3 12t-6 19.5t-7 19t-8.5 16.5t-8.5 6q-3 0 -10 -6.5t-10 -6.5q-10 0 -16.5 21t-6.5 47q0 34 14 50t28 16q13 0 25.5 -13t23 -36.5t17 -41.5t13.5 -42.5t8 -26.5q20 -59 69.5 -166t76.5 -107l71 239q0 25 22.5 69.5t43.5 51.5q9 4 24 4q14 0 25 -6z
M277 845q-4 3 -17 10.5t-18 13.5t-5 15q0 14 28 25q198 80 228 91q2 1 8 1q24 0 24 -19q0 -15 -5 -18q-20 -19 -53.5 -38t-55 -28.5t-72 -28.5t-62.5 -24z" />
    <glyph glyph-name="Thorn" unicode="&#xde;" horiz-adv-x="499" 
d="M216 224q-12 2 -16 2q-38 0 -54 -49q-13 -40 -67 -177q-27 -64 -48 -77q-8 -5 -16 -5q-5 1 -10 9.5t-5 15.5q1 9 1.5 36t3 45.5t8.5 35.5q30 87 87.5 245.5t75.5 210.5q3 8 11.5 30t12.5 34t8 30.5t4 35.5q0 5 -1 13.5t-1 12.5q0 37 29.5 66t53.5 29q29 0 29 -33
q0 -19 -3.5 -40t-10.5 -48t-9 -40q-13 -41 -13 -60q0 -21 27 -21q9 0 29 0.5t30 0.5q8 0 25 -0.5t26 -0.5q40 0 73 -34.5t33 -69.5q0 -24 -17 -49q-107 -145 -296 -148zM351 469v-2h-25q-47 0 -62 -11.5t-33 -56.5l-30 -78q-5 -12 -5 -19q0 -16 19 -16q34 0 75 24
q6 4 34 18.5t44 24t37 24t31.5 27.5t10.5 25q0 11 -5.5 18.5t-18.5 11.5t-21 5.5t-27.5 3t-23.5 1.5z" />
    <glyph glyph-name="germandbls" unicode="&#xdf;" horiz-adv-x="470" 
d="M-132 -99q-1 3 -1 9q0 16 11.5 26.5t32.5 10.5q15 0 26 -20.5t15 -20.5q16 0 25 17q29 70 63.5 205t54.5 190q6 17 20 59t22.5 66t25 63.5t31 63.5t37 53.5t45.5 46t54 28t66 11.5q29 0 51.5 -36t22.5 -68q0 -19 -7 -40q-35 -106 -102 -197q-13 -18 -13 -26q0 -13 28 -23
q54 -20 54 -71q0 -12 -5 -27q-36 -111 -133 -182q-2 -1 -5.5 -3.5t-6 -4t-4.5 -1.5q-1 0 -6 0.5t-7 0.5t-6.5 0.5t-6.5 2t-5 3.5t-4 4.5t-1 6.5q0 12 13 29.5t35.5 40.5t29.5 32q48 61 48 88q0 19 -26 19q-14 0 -41.5 -6t-39.5 -6q-14 0 -27.5 10t-13.5 28q0 14 22 47.5
t55 78.5t47 68q39 68 39 105q0 6 -3.5 19t-3.5 14q-2 -1 -17 -4t-21 -7q-44 -25 -76 -104q-84 -209 -133 -410q-19 -78 -92 -268q-9 -24 -37.5 -51.5t-45.5 -27.5q-13 0 -24.5 9.5t-22.5 31.5t-16.5 34.5t-16.5 44.5t-12 36z" />
    <glyph glyph-name="agrave" unicode="&#xe0;" horiz-adv-x="275" 
d="M181 338q64 -7 64 -60q0 -6 -2 -18q-13 -84 -24 -175q-2 -18 -3.5 -28t-5 -23t-9.5 -19.5t-15 -6.5q-12 0 -26 19q-12 14 -15 30.5t-4 24.5t-8 8q-2 0 -13.5 -7.5t-28.5 -15t-32 -7.5q-22 0 -35.5 16t-13.5 40q0 53 27 104.5t70 83.5q12 9 39.5 20t34.5 14zM181 251
q-2 3 -4.5 7.5t-3.5 6t-3 4t-3 3.5t-3 2t-4 1.5t-5 0.5q-16 0 -23 -7q-71 -98 -71 -124q0 -6 4.5 -14.5t12.5 -8.5q9 0 19.5 8t23 25t20.5 29.5t22 36t18 30.5zM219 477l-4 -8t-5.5 -10t-7 -8t-9.5 -4q-12 0 -22 5.5t-18.5 18.5t-14.5 23.5t-12 30.5t-8.5 29t-7.5 30t-6 23
q0 1 -0.5 1t-0.5 1q0 11 15.5 22t24.5 11q21 0 43 -55.5t33 -109.5z" />
    <glyph glyph-name="aacute" unicode="&#xe1;" horiz-adv-x="279" 
d="M181 338q64 -7 64 -60q0 -6 -2 -18q-13 -84 -24 -175q-2 -18 -3.5 -28t-5 -23t-9.5 -19.5t-15 -6.5q-12 0 -26 19q-12 14 -15 30.5t-4 24.5t-8 8q-2 0 -13.5 -7.5t-28.5 -15t-32 -7.5q-22 0 -35.5 16t-13.5 40q0 53 27 104.5t70 83.5q12 9 39.5 20t34.5 14zM181 251
q-2 3 -4.5 7.5t-3.5 6t-3 4t-3 3.5t-3 2t-4 1.5t-5 0.5q-16 0 -23 -7q-71 -98 -71 -124q0 -6 4.5 -14.5t12.5 -8.5q9 0 19.5 8t23 25t20.5 29.5t22 36t18 30.5zM131 474q-4 3 -17 10.5t-18 13.5t-5 15q0 14 28 25q198 80 228 91q2 1 8 1q24 0 24 -19q0 -15 -5 -18
q-20 -19 -53.5 -38t-55 -28.5t-72 -28.5t-62.5 -24z" />
    <glyph glyph-name="acircumflex" unicode="&#xe2;" horiz-adv-x="281" 
d="M181 338q64 -7 64 -60q0 -6 -2 -18q-13 -84 -24 -175q-2 -18 -3.5 -28t-5 -23t-9.5 -19.5t-15 -6.5q-12 0 -26 19q-12 14 -15 30.5t-4 24.5t-8 8q-2 0 -13.5 -7.5t-28.5 -15t-32 -7.5q-22 0 -35.5 16t-13.5 40q0 53 27 104.5t70 83.5q12 9 39.5 20t34.5 14zM181 251
q-2 3 -4.5 7.5t-3.5 6t-3 4t-3 3.5t-3 2t-4 1.5t-5 0.5q-16 0 -23 -7q-71 -98 -71 -124q0 -6 4.5 -14.5t12.5 -8.5q9 0 19.5 8t23 25t20.5 29.5t22 36t18 30.5zM291 543q-9 -84 -14 -116q-1 -4 -5.5 -9t-11 -10.5t-9.5 -8.5q-19 15 -28 31t-9 25.5t-2.5 15.5t-10.5 6
t-43 -27q-2 -1 -4.5 -4.5t-5 -5.5t-4.5 -2q-1 0 -34 3q1 4 2 11.5t2.5 12.5t4.5 9q15 17 90 94q8 8 14 20.5t11.5 19.5t15.5 7q8 0 14 -2t10 -4t7 -7.5t4.5 -9t2.5 -11.5t1.5 -11.5t1 -13.5t0.5 -13z" />
    <glyph glyph-name="atilde" unicode="&#xe3;" horiz-adv-x="280" 
d="M181 338q64 -7 64 -60q0 -6 -2 -18q-13 -84 -24 -175q-2 -18 -3.5 -28t-5 -23t-9.5 -19.5t-15 -6.5q-12 0 -26 19q-12 14 -15 30.5t-4 24.5t-8 8q-2 0 -13.5 -7.5t-28.5 -15t-32 -7.5q-22 0 -35.5 16t-13.5 40q0 53 27 104.5t70 83.5q12 9 39.5 20t34.5 14zM181 251
q-2 3 -4.5 7.5t-3.5 6t-3 4t-3 3.5t-3 2t-4 1.5t-5 0.5q-16 0 -23 -7q-71 -98 -71 -124q0 -6 4.5 -14.5t12.5 -8.5q9 0 19.5 8t23 25t20.5 29.5t22 36t18 30.5zM240 437q-11 0 -20 1t-16 4.5t-12 5.5t-10.5 9.5t-8 10.5t-7 14t-5.5 14.5t-6 18.5t-6 19q-32 -14 -40 -19
q-3 -2 -17 -20t-25 -18q-19 0 -19 22q0 31 33 59.5t69 28.5q23 0 38 -14.5t21 -32t15.5 -32t22.5 -14.5q9 0 38 14t45 14q20 0 20 -12q0 -10 -6 -16q-37 -53 -104 -57z" />
    <glyph glyph-name="adieresis" unicode="&#xe4;" horiz-adv-x="278" 
d="M181 338q64 -7 64 -60q0 -6 -2 -18q-13 -84 -24 -175q-2 -18 -3.5 -28t-5 -23t-9.5 -19.5t-15 -6.5q-12 0 -26 19q-12 14 -15 30.5t-4 24.5t-8 8q-2 0 -13.5 -7.5t-28.5 -15t-32 -7.5q-22 0 -35.5 16t-13.5 40q0 53 27 104.5t70 83.5q12 9 39.5 20t34.5 14zM181 251
q-2 3 -4.5 7.5t-3.5 6t-3 4t-3 3.5t-3 2t-4 1.5t-5 0.5q-16 0 -23 -7q-71 -98 -71 -124q0 -6 4.5 -14.5t12.5 -8.5q9 0 19.5 8t23 25t20.5 29.5t22 36t18 30.5zM269 565h4q20 0 32.5 -12.5t12.5 -31.5q0 -15 -16.5 -34.5t-31.5 -19.5q-16 0 -32.5 18.5t-16.5 37.5
q0 17 14 29.5t34 12.5zM100 578h4q15 0 25 -7.5t10 -19.5q0 -13 -19.5 -36.5t-37.5 -23.5q-13 0 -25.5 15t-12.5 29q0 19 16 31t40 12z" />
    <glyph glyph-name="aring" unicode="&#xe5;" horiz-adv-x="282" 
d="M181 338q64 -7 64 -60q0 -6 -2 -18q-13 -84 -24 -175q-2 -18 -3.5 -28t-5 -23t-9.5 -19.5t-15 -6.5q-12 0 -26 19q-12 14 -15 30.5t-4 24.5t-8 8q-2 0 -13.5 -7.5t-28.5 -15t-32 -7.5q-22 0 -35.5 16t-13.5 40q0 53 27 104.5t70 83.5q12 9 39.5 20t34.5 14zM181 251
q-2 3 -4.5 7.5t-3.5 6t-3 4t-3 3.5t-3 2t-4 1.5t-5 0.5q-16 0 -23 -7q-71 -98 -71 -124q0 -6 4.5 -14.5t12.5 -8.5q9 0 19.5 8t23 25t20.5 29.5t22 36t18 30.5zM231 649q39 0 65 -27t26 -61q0 -39 -44 -88t-81 -49q-30 0 -49 20t-19 47q0 73 61 124zM264 568q0 1 -1.5 4
l-2 4t-2 3.5t-2.5 3.5t-3 2.5t-4 2t-5 0.5q-16 0 -22 -8q-35 -57 -35 -74t19 -17q21 0 38.5 26t19.5 53z" />
    <glyph glyph-name="ae" unicode="&#xe6;" horiz-adv-x="430" 
d="M269 21q-12 0 -29 6.5t-24 6.5q-12 0 -31 -18.5t-27 -18.5q-14 0 -21.5 14t-9 31t-6 31t-13.5 14q-8 0 -31 -15.5t-36 -15.5q-16 0 -28.5 15t-12.5 32q0 43 100 184l6 9q6 8 27.5 15t37.5 7q3 0 11.5 -1.5t12.5 -1.5h7q35 0 35 -31v-9q0 -4 2.5 -11.5t3.5 -9.5
q26 9 41.5 25.5t26.5 27t32 10.5q22 0 39.5 -14t17.5 -35q0 -19 -17.5 -41.5t-53 -54t-43.5 -39.5q-1 -1 -13 -37q1 0 12 -2t16 -2q11 0 39.5 15.5t38.5 15.5q15 0 15 -9q0 -29 -46 -61t-79 -32zM71 121q13 10 25.5 25t18.5 25.5t18.5 33.5t16.5 29q1 2 1 7q0 3 -0.5 8
t-0.5 8q-2 -1 -8 -2.5t-10 -3t-6 -4.5q-40 -64 -58 -98q-1 -2 -1 -5t4 -23zM316 222q5 -2 5 -3q4 6 12 16.5t11 14.5q-1 1 -9 7q-7 -17 -19 -35z" />
    <glyph glyph-name="ccedilla" unicode="&#xe7;" horiz-adv-x="220" 
d="M188 292q0 -21 -13 -48q-11 9 -17.5 21t-14.5 12q-15 0 -35 -58t-20 -92q0 -13 9.5 -21t23.5 -8q11 0 31.5 11.5t30.5 11.5q2 0 8 -0.5t9 -0.5q-1 -1 -3 -10t-5 -11q-9 -10 -30.5 -27.5t-34.5 -31t-13 -21.5q0 -6 20 -21.5t20 -26.5q0 -9 -47.5 -64.5t-67.5 -55.5
q-3 0 -7.5 0.5t-7.5 0.5h-4q2 3 6 13t7 14q2 2 16.5 15t18 17.5t12 16t15.5 25.5q-19 3 -28.5 5t-18.5 9t-9 18q0 6 5 22.5t5 23.5q0 15 -11.5 52t-11.5 62q0 43 11.5 84t42.5 74.5t78 33.5q32 0 32 -29q0 -6 -2 -16z" />
    <glyph glyph-name="egrave" unicode="&#xe8;" horiz-adv-x="249" 
d="M20 104q1 58 16.5 121t50.5 114.5t81 51.5q26 0 43.5 -15.5t17.5 -41.5q0 -10 -3.5 -22t-10.5 -25.5t-12.5 -23t-15 -25t-12.5 -20.5q-9 -14 -29 -31t-33 -34t-13 -39v-4q0 -13 1 -20.5t8 -15t21 -7.5q10 0 29 5.5t29 5.5q17 0 17 -15q0 -29 -34 -51t-66 -22
q-22 0 -38 8.5t-24 18t-13.5 28.5t-6.5 28.5t-3 30.5zM191 312q-2 3 -6 9.5t-7 10t-6 3.5q-6 0 -12 -5.5t-11 -16.5t-8 -19.5t-7.5 -22l-5.5 -16.5q0 -1 -0.5 -1t-0.5 -1q0 -3 4 -8t8 -5q7 0 15.5 11.5t20.5 33.5t16 27zM196 511l-4 -8t-5.5 -10t-7 -8t-9.5 -4
q-12 0 -22 5.5t-18.5 18.5t-14.5 23.5t-12 30.5t-8.5 29t-7.5 30t-6 23q0 1 -0.5 1t-0.5 1q0 11 15.5 22t24.5 11q21 0 43 -55.5t33 -109.5z" />
    <glyph glyph-name="eacute" unicode="&#xe9;" horiz-adv-x="248" 
d="M20 104q1 58 16.5 121t50.5 114.5t81 51.5q26 0 43.5 -15.5t17.5 -41.5q0 -10 -3.5 -22t-10.5 -25.5t-12.5 -23t-15 -25t-12.5 -20.5q-9 -14 -29 -31t-33 -34t-13 -39v-4q0 -13 1 -20.5t8 -15t21 -7.5q10 0 29 5.5t29 5.5q17 0 17 -15q0 -29 -34 -51t-66 -22
q-22 0 -38 8.5t-24 18t-13.5 28.5t-6.5 28.5t-3 30.5zM191 312q-2 3 -6 9.5t-7 10t-6 3.5q-6 0 -12 -5.5t-11 -16.5t-8 -19.5t-7.5 -22l-5.5 -16.5q0 -1 -0.5 -1t-0.5 -1q0 -3 4 -8t8 -5q7 0 15.5 11.5t20.5 33.5t16 27zM150 503q-4 3 -17 10.5t-18 13.5t-5 15q0 14 28 25
q198 80 228 91q2 1 8 1q24 0 24 -19q0 -15 -5 -18q-20 -19 -53.5 -38t-55 -28.5t-72 -28.5t-62.5 -24z" />
    <glyph glyph-name="ecircumflex" unicode="&#xea;" horiz-adv-x="245" 
d="M20 104q1 58 16.5 121t50.5 114.5t81 51.5q26 0 43.5 -15.5t17.5 -41.5q0 -10 -3.5 -22t-10.5 -25.5t-12.5 -23t-15 -25t-12.5 -20.5q-9 -14 -29 -31t-33 -34t-13 -39v-4q0 -13 1 -20.5t8 -15t21 -7.5q10 0 29 5.5t29 5.5q17 0 17 -15q0 -29 -34 -51t-66 -22
q-22 0 -38 8.5t-24 18t-13.5 28.5t-6.5 28.5t-3 30.5zM191 312q-2 3 -6 9.5t-7 10t-6 3.5q-6 0 -12 -5.5t-11 -16.5t-8 -19.5t-7.5 -22l-5.5 -16.5q0 -1 -0.5 -1t-0.5 -1q0 -3 4 -8t8 -5q7 0 15.5 11.5t20.5 33.5t16 27zM275 610q-9 -84 -14 -116q-1 -4 -5.5 -9t-11 -10.5
t-9.5 -8.5q-19 15 -28 31t-9 25.5t-2.5 15.5t-10.5 6t-43 -27q-2 -1 -4.5 -4.5t-5 -5.5t-4.5 -2q-1 0 -34 3q1 4 2 11.5t2.5 12.5t4.5 9q15 17 90 94q8 8 14 20.5t11.5 19.5t15.5 7q8 0 14 -2t10 -4t7 -7.5t4.5 -9t2.5 -11.5t1.5 -11.5t1 -13.5t0.5 -13z" />
    <glyph glyph-name="edieresis" unicode="&#xeb;" horiz-adv-x="246" 
d="M20 104q1 58 16.5 121t50.5 114.5t81 51.5q26 0 43.5 -15.5t17.5 -41.5q0 -10 -3.5 -22t-10.5 -25.5t-12.5 -23t-15 -25t-12.5 -20.5q-9 -14 -29 -31t-33 -34t-13 -39v-4q0 -13 1 -20.5t8 -15t21 -7.5q10 0 29 5.5t29 5.5q17 0 17 -15q0 -29 -34 -51t-66 -22
q-22 0 -38 8.5t-24 18t-13.5 28.5t-6.5 28.5t-3 30.5zM191 312q-2 3 -6 9.5t-7 10t-6 3.5q-6 0 -12 -5.5t-11 -16.5t-8 -19.5t-7.5 -22l-5.5 -16.5q0 -1 -0.5 -1t-0.5 -1q0 -3 4 -8t8 -5q7 0 15.5 11.5t20.5 33.5t16 27zM277 596h4q20 0 32.5 -12.5t12.5 -31.5
q0 -15 -16.5 -34.5t-31.5 -19.5q-16 0 -32.5 18.5t-16.5 37.5q0 17 14 29.5t34 12.5zM108 609h4q15 0 25 -7.5t10 -19.5q0 -13 -19.5 -36.5t-37.5 -23.5q-13 0 -25.5 15t-12.5 29q0 19 16 31t40 12z" />
    <glyph glyph-name="igrave" unicode="&#xec;" horiz-adv-x="162" 
d="M0 56q6 30 27 140q2 11 3.5 34.5t4 41.5t8 37t18 29.5t31.5 10.5q17 0 28.5 -12t11.5 -29v-5q-24 -108 -64 -264q-5 -19 -41 -37q-24 35 -24 45v7q-1 2 -3 2zM142 493l-4 -8t-5.5 -10t-7 -8t-9.5 -4q-12 0 -22 5.5t-18.5 18.5t-14.5 23.5t-12 30.5t-8.5 29t-7.5 30t-6 23
q0 1 -0.5 1t-0.5 1q0 11 15.5 22t24.5 11q21 0 43 -55.5t33 -109.5z" />
    <glyph glyph-name="iacute" unicode="&#xed;" horiz-adv-x="174" 
d="M0 56q6 30 27 140q2 11 3.5 34.5t4 41.5t8 37t18 29.5t31.5 10.5q17 0 28.5 -12t11.5 -29v-5q-24 -108 -64 -264q-5 -19 -41 -37q-24 35 -24 45v7q-1 2 -3 2zM66 475q-4 3 -17 10.5t-18 13.5t-5 15q0 14 28 25q197 80 228 91q2 1 8 1q24 0 24 -19q0 -15 -5 -18
q-20 -19 -53.5 -38t-55 -28.5t-72 -28.5t-62.5 -24z" />
    <glyph glyph-name="icircumflex" unicode="&#xee;" horiz-adv-x="174" 
d="M0 56q6 30 27 140q2 11 3.5 34.5t4 41.5t8 37t18 29.5t31.5 10.5q17 0 28.5 -12t11.5 -29v-5q-24 -108 -64 -264q-5 -19 -41 -37q-24 35 -24 45v7q-1 2 -3 2zM214 611q-9 -84 -14 -116q-1 -4 -5.5 -9t-11 -10.5t-9.5 -8.5q-19 15 -28 31t-9 25.5t-2.5 15.5t-10.5 6
t-43 -27q-2 -1 -4.5 -4.5t-5 -5.5t-4.5 -2q-1 0 -34 3q1 4 2 11.5t2.5 12.5t4.5 9q15 17 90 94q8 8 14 20.5t11.5 19.5t15.5 7q8 0 14 -2t10 -4t7 -7.5t4.5 -9t2.5 -11.5t1.5 -11.5t1 -13.5t0.5 -13z" />
    <glyph glyph-name="idieresis" unicode="&#xef;" horiz-adv-x="164" 
d="M-12 56q6 30 27 140q2 11 3.5 34.5t4 41.5t8 37t18 29.5t31.5 10.5q17 0 28.5 -12t11.5 -29v-5q-24 -108 -64 -264q-5 -19 -41 -37q-24 35 -24 45v7q-1 2 -3 2zM195 593h4q20 0 32.5 -12.5t12.5 -31.5q0 -15 -16.5 -34.5t-31.5 -19.5q-16 0 -32.5 18.5t-16.5 37.5
q0 17 14 29.5t34 12.5zM26 606h4q15 0 25 -7.5t10 -19.5q0 -13 -19.5 -36.5t-37.5 -23.5q-13 0 -25.5 15t-12.5 29q0 19 16 31t40 12z" />
    <glyph glyph-name="eth" unicode="&#xf0;" horiz-adv-x="339" 
d="M301 572l-72 -65q72 -133 74 -273q1 -77 -54 -148t-122 -71q-51 0 -79 34t-28 97q3 20 12.5 48.5t25.5 61t43 55t57 22.5q45 0 45 -26q0 -12 -6 -15q-22 -19 -38 -40.5t-26.5 -48.5t-15 -44t-11.5 -50v-3q0 -7 4.5 -14.5t11 -16.5t9.5 -14q5 2 19.5 7t23 9.5t11.5 9.5
q65 113 65 173q0 107 -54 217l-69 -60q-12 -10 -22 -5t-16 11l9 52l66 58q-15 24 -35 49.5t-29.5 39t-9.5 18.5q0 16 24 28q2 -2 11 -9t11 -11q2 -6 10 -17t23 -31.5t27 -38.5q24 21 60 52q9 8 18 10.5t14 1t15 -5.5t16 -6q-2 -4 -5 -15t-5 -15q-3 -7 -8 -11z" />
    <glyph glyph-name="ntilde" unicode="&#xf1;" horiz-adv-x="290" 
d="M207 269q-22 -29 -34 -49q-7 -12 -20 -38.5t-23.5 -45.5t-24 -39.5t-27.5 -31.5t-28 -11q-30 0 -30 39q0 17 11 165l6 50q5 34 37 34t32 -37q0 -12 -2.5 -37t-2.5 -37q0 -5 2.5 -14t2.5 -12q20 14 22 18l39 67q12 15 31 27.5t34 12.5q25 0 25 -35q0 -8 -2 -24
q-22 -179 -37 -287q-1 -9 -14 -26q-1 3 -4 9t-4.5 11t-1.5 10q9 208 20 277q-1 0 -7 4zM220 460q-11 0 -20 1t-16 4.5t-12 5.5t-10.5 9.5t-8 10.5t-7 14t-5.5 14.5t-6 18.5t-6 19q-32 -14 -40 -19q-3 -2 -17 -20t-25 -18q-19 0 -19 22q0 31 33 59.5t69 28.5q23 0 38 -14.5
t21 -32t15.5 -32t22.5 -14.5q9 0 38 14t45 14q20 0 20 -12q0 -10 -6 -16q-37 -53 -104 -57z" />
    <glyph glyph-name="ograve" unicode="&#xf2;" horiz-adv-x="249" 
d="M20 142q3 29 13.5 70t34 79.5t51.5 38.5q11 0 20.5 -7t9.5 -19q0 -11 -5 -16q-29 -35 -46 -87t-17 -99q0 -6 3 -13.5t8 -17.5l7 -14q4 3 13.5 8t15 9t7.5 9q46 103 46 173q0 10 -5 32t-5 34q0 6 1.5 9.5t3 5.5t5.5 5.5t7 6.5q31 -31 31 -117q0 -77 -38.5 -149.5
t-87.5 -72.5q-33 0 -53 35t-20 97zM183 483l-4 -8t-5.5 -10t-7 -8t-9.5 -4q-12 0 -22 5.5t-18.5 18.5t-14.5 23.5t-12 30.5t-8.5 29t-7.5 30t-6 23q0 1 -0.5 1t-0.5 1q0 11 15.5 22t24.5 11q21 0 43 -55.5t33 -109.5z" />
    <glyph glyph-name="oacute" unicode="&#xf3;" horiz-adv-x="250" 
d="M20 142q3 29 13.5 70t34 79.5t51.5 38.5q11 0 20.5 -7t9.5 -19q0 -11 -5 -16q-29 -35 -46 -87t-17 -99q0 -6 3 -13.5t8 -17.5l7 -14q4 3 13.5 8t15 9t7.5 9q46 103 46 173q0 10 -5 32t-5 34q0 6 1.5 9.5t3 5.5t5.5 5.5t7 6.5q31 -31 31 -117q0 -77 -38.5 -149.5
t-87.5 -72.5q-33 0 -53 35t-20 97zM112 470q-4 3 -17 10.5t-18 13.5t-5 15q0 14 28 25q198 80 228 91q2 1 8 1q24 0 24 -19q0 -15 -5 -18q-20 -19 -53.5 -38t-55 -28.5t-72 -28.5t-62.5 -24z" />
    <glyph glyph-name="ocircumflex" unicode="&#xf4;" horiz-adv-x="248" 
d="M20 142q3 29 13.5 70t34 79.5t51.5 38.5q11 0 20.5 -7t9.5 -19q0 -11 -5 -16q-29 -35 -46 -87t-17 -99q0 -6 3 -13.5t8 -17.5l7 -14q4 3 13.5 8t15 9t7.5 9q46 103 46 173q0 10 -5 32t-5 34q0 6 1.5 9.5t3 5.5t5.5 5.5t7 6.5q31 -31 31 -117q0 -77 -38.5 -149.5
t-87.5 -72.5q-33 0 -53 35t-20 97zM268 575q-9 -84 -14 -116q-1 -4 -5.5 -9t-11 -10.5t-9.5 -8.5q-19 15 -28 31t-9 25.5t-2.5 15.5t-10.5 6t-43 -27q-2 -1 -4.5 -4.5t-5 -5.5t-4.5 -2q-1 0 -34 3q1 4 2 11.5t2.5 12.5t4.5 9q15 17 90 94q8 8 14 20.5t11.5 19.5t15.5 7
q8 0 14 -2t10 -4t7 -7.5t4.5 -9t2.5 -11.5t1.5 -11.5t1 -13.5t0.5 -13z" />
    <glyph glyph-name="otilde" unicode="&#xf5;" horiz-adv-x="256" 
d="M20 142q3 29 13.5 70t34 79.5t51.5 38.5q11 0 20.5 -7t9.5 -19q0 -11 -5 -16q-29 -35 -46 -87t-17 -99q0 -6 3 -13.5t8 -17.5l7 -14q4 3 13.5 8t15 9t7.5 9q46 103 46 173q0 10 -5 32t-5 34q0 6 1.5 9.5t3 5.5t5.5 5.5t7 6.5q31 -31 31 -117q0 -77 -38.5 -149.5
t-87.5 -72.5q-33 0 -53 35t-20 97zM236 421q-11 0 -20 1t-16 4.5t-12 5.5t-10.5 9.5t-8 10.5t-7 14t-5.5 14.5t-6 18.5t-6 19q-32 -14 -40 -19q-3 -2 -17 -20t-25 -18q-19 0 -19 22q0 31 33 59.5t69 28.5q23 0 38 -14.5t21 -32t15.5 -32t22.5 -14.5q9 0 38 14t45 14
q20 0 20 -12q0 -10 -6 -16q-37 -53 -104 -57z" />
    <glyph glyph-name="odieresis" unicode="&#xf6;" horiz-adv-x="244" 
d="M6 142q3 29 13.5 70t34 79.5t51.5 38.5q11 0 20.5 -7t9.5 -19q0 -11 -5 -16q-29 -35 -46 -87t-17 -99q0 -6 3 -13.5t8 -17.5l7 -14q4 3 13.5 8t15 9t7.5 9q46 103 46 173q0 10 -5 32t-5 34q0 6 1.5 9.5t3 5.5t5.5 5.5t7 6.5q31 -31 31 -117q0 -77 -38.5 -149.5
t-87.5 -72.5q-33 0 -53 35t-20 97zM225 590h4q20 0 32.5 -12.5t12.5 -31.5q0 -15 -16.5 -34.5t-31.5 -19.5q-16 0 -32.5 18.5t-16.5 37.5q0 17 14 29.5t34 12.5zM56 603h4q15 0 25 -7.5t10 -19.5q0 -13 -19.5 -36.5t-37.5 -23.5q-13 0 -25.5 15t-12.5 29q0 19 16 31t40 12z
" />
    <glyph glyph-name="divide" unicode="&#xf7;" horiz-adv-x="438" 
d="M271 150l-222 23q-15 3 -27 12t-12 22q0 24 96 24h7q41 -1 123 -4.5t123 -4.5q55 0 59 -24q0 -21 -36.5 -33t-70.5 -12q-7 0 -20 0.5t-20 0.5v-4zM282 330h-4q-25 0 -41 15.5t-16 37.5t22 38.5t49 16.5q17 0 32 -9.5t15 -23.5q0 -16 -14 -46t-34 -30q-6 0 -9 1zM201 93h8
q45 0 50 -39q0 -21 -21.5 -44.5t-41.5 -23.5q-19 0 -36.5 15t-20.5 35q0 50 62 57z" />
    <glyph glyph-name="oslash" unicode="&#xf8;" horiz-adv-x="255" 
d="M29 -28q11 46 11 56q0 14 -5 20q-25 36 -25 80q0 53 24.5 116.5t64.5 107.5q55 58 93 80q1 -3 5.5 -14.5t4.5 -15.5q0 -3 -1 -4q-20 -33 -20 -64q0 -20 22 -64.5t22 -66.5q0 -45 -41 -101q-11 -15 -36.5 -37t-34.5 -32q-5 -5 -26.5 -36t-40.5 -45zM167 238q0 2 0.5 6.5
t0.5 7.5q0 8 -4 16t-11.5 18.5t-10.5 15.5q-4 -5 -14 -13.5t-14 -14.5q-23 -31 -41 -141v-3q0 -10 6.5 -21.5t14.5 -11.5q30 0 51.5 48t21.5 93z" />
    <glyph glyph-name="ugrave" unicode="&#xf9;" horiz-adv-x="315" 
d="M20 111q18 122 36 221q5 28 27 28q24 0 24 -17q0 -3 -1.5 -11t-1.5 -11q-19 -116 -28 -188q0 -6 5.5 -19.5t6.5 -16.5q3 3 9 7t10.5 8t6.5 8q26 45 117 207q13 26 27 26q16 0 26.5 -11t10.5 -25q0 -3 -2 -13q-34 -142 -49 -213q-2 -7 -2 -20t5.5 -32.5t5.5 -24.5
q0 -12 -15 -23t-28 -11q-14 0 -23.5 16t-19.5 51.5t-10 36.5q-21 -9 -47.5 -34t-42.5 -25q-29 0 -39 36q-2 7 -3.5 24t-4.5 26zM215 493l-4 -8t-5.5 -10t-7 -8t-9.5 -4q-12 0 -22 5.5t-18.5 18.5t-14.5 23.5t-12 30.5t-8.5 29t-7.5 30t-6 23q0 1 -0.5 1t-0.5 1q0 11 15.5 22
t24.5 11q21 0 43 -55.5t33 -109.5z" />
    <glyph glyph-name="uacute" unicode="&#xfa;" horiz-adv-x="314" 
d="M20 111q18 122 36 221q5 28 27 28q24 0 24 -17q0 -3 -1.5 -11t-1.5 -11q-19 -116 -28 -188q0 -6 5.5 -19.5t6.5 -16.5q3 3 9 7t10.5 8t6.5 8q26 45 117 207q13 26 27 26q16 0 26.5 -11t10.5 -25q0 -3 -2 -13q-34 -142 -49 -213q-2 -7 -2 -20t5.5 -32.5t5.5 -24.5
q0 -12 -15 -23t-28 -11q-14 0 -23.5 16t-19.5 51.5t-10 36.5q-21 -9 -47.5 -34t-42.5 -25q-29 0 -39 36q-2 7 -3.5 24t-4.5 26zM186 508q-4 3 -17 10.5t-18 13.5t-5 15q0 14 28 25q197 80 228 91q2 1 8 1q24 0 24 -19q0 -15 -5 -18q-20 -19 -53.5 -38t-55 -28.5t-72 -28.5
t-62.5 -24z" />
    <glyph glyph-name="ucircumflex" unicode="&#xfb;" horiz-adv-x="318" 
d="M20 111q18 122 36 221q5 28 27 28q24 0 24 -17q0 -3 -1.5 -11t-1.5 -11q-19 -116 -28 -188q0 -6 5.5 -19.5t6.5 -16.5q3 3 9 7t10.5 8t6.5 8q26 45 117 207q13 26 27 26q16 0 26.5 -11t10.5 -25q0 -3 -2 -13q-34 -142 -49 -213q-2 -7 -2 -20t5.5 -32.5t5.5 -24.5
q0 -12 -15 -23t-28 -11q-14 0 -23.5 16t-19.5 51.5t-10 36.5q-21 -9 -47.5 -34t-42.5 -25q-29 0 -39 36q-2 7 -3.5 24t-4.5 26zM298 602q-9 -84 -14 -116q-1 -4 -5.5 -9t-11 -10.5t-9.5 -8.5q-19 15 -28 31t-9 25.5t-2.5 15.5t-10.5 6t-43 -27q-2 -1 -4.5 -4.5t-5 -5.5
t-4.5 -2q-1 0 -34 3q1 4 2 11.5t2.5 12.5t4.5 9q15 17 90 94q8 8 14 20.5t11.5 19.5t15.5 7q8 0 14 -2t10 -4t7 -7.5t4.5 -9t2.5 -11.5t1.5 -11.5t1 -13.5t0.5 -13z" />
    <glyph glyph-name="udieresis" unicode="&#xfc;" horiz-adv-x="314" 
d="M20 111q18 122 36 221q5 28 27 28q24 0 24 -17q0 -3 -1.5 -11t-1.5 -11q-19 -116 -28 -188q0 -6 5.5 -19.5t6.5 -16.5q3 3 9 7t10.5 8t6.5 8q26 45 117 207q13 26 27 26q16 0 26.5 -11t10.5 -25q0 -3 -2 -13q-34 -142 -49 -213q-2 -7 -2 -20t5.5 -32.5t5.5 -24.5
q0 -12 -15 -23t-28 -11q-14 0 -23.5 16t-19.5 51.5t-10 36.5q-21 -9 -47.5 -34t-42.5 -25q-29 0 -39 36q-2 7 -3.5 24t-4.5 26zM275 576h4q20 0 32.5 -12.5t12.5 -31.5q0 -15 -16.5 -34.5t-31.5 -19.5q-16 0 -32.5 18.5t-16.5 37.5q0 17 14 29.5t34 12.5zM106 589h4
q15 0 25 -7.5t10 -19.5q0 -13 -19.5 -36.5t-37.5 -23.5q-13 0 -25.5 15t-12.5 29q0 19 16 31t40 12z" />
    <glyph glyph-name="yacute" unicode="&#xfd;" horiz-adv-x="290" 
d="M-54 -461q-7 -1 -20 -1q-41 0 -78.5 18t-58 36.5t-54.5 55.5q-3 3 -5 28l26 -3q136 -55 179 -55q87 0 128 108q15 40 28 84.5t28 102t23 85.5q21 73 21 95q0 5 -2.5 13.5t-2.5 12.5q-11 -5 -22.5 -12t-19 -10.5t-16.5 -3.5q-57 0 -69 126l-12 125v13q0 7 3 14t6.5 11.5
t9.5 11t8 8.5q2 -3 8 -8.5t9 -9t6.5 -8.5t3.5 -10q2 -28 5.5 -85.5t6.5 -86.5q1 -9 8.5 -24l8.5 -17q3 3 12 10t14 12.5t8 11.5q28 65 51 130q10 32 44 32q38 0 38 -47q-1 -9 -8 -86t-15 -117q-44 -222 -87 -363q-22 -73 -76.5 -136.5t-111.5 -63.5q-13 0 -25 3zM162 520
q-4 3 -17 10.5t-18 13.5t-5 15q0 14 28 25q198 80 228 91q2 1 8 1q24 0 24 -19q0 -15 -5 -18q-20 -19 -53.5 -38t-55 -28.5t-72 -28.5t-62.5 -24z" />
    <glyph glyph-name="thorn" unicode="&#xfe;" horiz-adv-x="421" 
d="M-100 -235q5 18 16.5 59.5t21 72t20.5 58.5q14 37 50.5 130t56 142.5t45.5 126.5t44 142q6 21 11.5 33.5t21 23t39.5 10.5q32 0 32 -32q-2 -28 -20 -82.5t-18 -80.5q0 -18 17 -18q10 0 33.5 7.5t34.5 7.5q36 0 61 -36t25 -85q0 -40 -29 -97.5t-81 -104.5t-105 -47
q-15 0 -43.5 7.5t-33.5 7.5q-7 0 -12 -4.5t-8 -10.5t-10 -23q-48 -114 -103 -234q-6 -14 -42 -34l-15 43q0 1 -0.5 2.5t-0.5 2.5t0.5 5t0.5 6zM316 236q0 59 -31 59q-56 0 -100 -54.5t-44 -114.5q0 -53 36 -53q13 0 25 8q100 56 114 155z" />
    <glyph glyph-name="ydieresis" unicode="&#xff;" horiz-adv-x="282" 
d="M-54 -461q-7 -1 -20 -1q-41 0 -78.5 18t-58 36.5t-54.5 55.5q-3 3 -5 28l26 -3q136 -55 179 -55q87 0 128 108q15 40 28 84.5t28 102t23 85.5q21 73 21 95q0 5 -2.5 13.5t-2.5 12.5q-11 -5 -22.5 -12t-19 -10.5t-16.5 -3.5q-57 0 -69 126l-12 125v13q0 7 3 14t6.5 11.5
t9.5 11t8 8.5q2 -3 8 -8.5t9 -9t6.5 -8.5t3.5 -10q2 -28 5.5 -85.5t6.5 -86.5q1 -9 8.5 -24l8.5 -17q3 3 12 10t14 12.5t8 11.5q28 65 51 130q10 32 44 32q38 0 38 -47q-1 -9 -8 -86t-15 -117q-44 -222 -87 -363q-22 -73 -76.5 -136.5t-111.5 -63.5q-13 0 -25 3zM253 613h4
q20 0 32.5 -12.5t12.5 -31.5q0 -15 -16.5 -34.5t-31.5 -19.5q-16 0 -32.5 18.5t-16.5 37.5q0 17 14 29.5t34 12.5zM84 626h4q15 0 25 -7.5t10 -19.5q0 -13 -19.5 -36.5t-37.5 -23.5q-13 0 -25.5 15t-12.5 29q0 19 16 31t40 12z" />
    <glyph glyph-name="Amacron" unicode="&#x100;" horiz-adv-x="443" 
d="M416 674q-26 -140 -37 -211q-4 -15 -4.5 -57t-6.5 -52q-16 -30 -23 -64.5t-10 -78.5t-7 -67q0 -6 14 -22t14 -26q0 -35 -24.5 -78t-52.5 -43q-17 0 -26.5 30t-9.5 61q0 34 5 72.5t12.5 84.5t10.5 71v2q0 6 -7.5 15t-12.5 9q-26 -2 -41 -6t-31.5 -17.5t-26.5 -37.5
q-17 -41 -53.5 -117.5t-45.5 -95.5q-11 -23 -24 -33q-3 -3 -13.5 -6t-13.5 -4q0 4 -1 11.5t-1 10.5q0 7 2 10l98 211q4 8 4 16q0 6 -1.5 10t-5.5 6t-6.5 2.5t-10 1t-10.5 0.5t-10 -1t-10 -1q-13 0 -28 26q17 15 73 30t70 43q16 29 67 126t79 149q42 89 73 89q9 0 19 -18.5
t10 -28.5q0 -4 -0.5 -11t-0.5 -11h4zM250 373h4q30 -1 38 37q2 12 8.5 35.5t10 43t3.5 35.5q0 4 -5 26q-2 -2 -11.5 -9.5t-12.5 -12.5q-21 -39 -61 -121q-7 -16 -7 -21q0 -13 33 -13zM406 867q-5 5 -32.5 2t-60 3.5t-32.5 24.5q0 12 20 18t43 6q179 0 179 -24q0 -30 -90 -30
h-27z" />
    <glyph glyph-name="amacron" unicode="&#x101;" horiz-adv-x="280" 
d="M181 338q64 -7 64 -60q0 -6 -2 -18q-13 -84 -24 -175q-2 -18 -3.5 -28t-5 -23t-9.5 -19.5t-15 -6.5q-12 0 -26 19q-12 14 -15 30.5t-4 24.5t-8 8q-2 0 -13.5 -7.5t-28.5 -15t-32 -7.5q-22 0 -35.5 16t-13.5 40q0 53 27 104.5t70 83.5q12 9 39.5 20t34.5 14zM181 251
q-2 3 -4.5 7.5t-3.5 6t-3 4t-3 3.5t-3 2t-4 1.5t-5 0.5q-16 0 -23 -7q-71 -98 -71 -124q0 -6 4.5 -14.5t12.5 -8.5q9 0 19.5 8t23 25t20.5 29.5t22 36t18 30.5zM183 472q-5 5 -32.5 2t-60 3.5t-32.5 24.5q0 12 20 18t43 6q179 0 179 -24q0 -30 -90 -30h-27z" />
    <glyph glyph-name="Abreve" unicode="&#x102;" horiz-adv-x="440" 
d="M416 674q-26 -140 -37 -211q-4 -15 -4.5 -57t-6.5 -52q-16 -30 -23 -64.5t-10 -78.5t-7 -67q0 -6 14 -22t14 -26q0 -35 -24.5 -78t-52.5 -43q-17 0 -26.5 30t-9.5 61q0 34 5 72.5t12.5 84.5t10.5 71v2q0 6 -7.5 15t-12.5 9q-26 -2 -41 -6t-31.5 -17.5t-26.5 -37.5
q-17 -41 -53.5 -117.5t-45.5 -95.5q-11 -23 -24 -33q-3 -3 -13.5 -6t-13.5 -4q0 4 -1 11.5t-1 10.5q0 7 2 10l98 211q4 8 4 16q0 6 -1.5 10t-5.5 6t-6.5 2.5t-10 1t-10.5 0.5t-10 -1t-10 -1q-13 0 -28 26q17 15 73 30t70 43q16 29 67 126t79 149q42 89 73 89q9 0 19 -18.5
t10 -28.5q0 -4 -0.5 -11t-0.5 -11h4zM250 373h4q30 -1 38 37q2 12 8.5 35.5t10 43t3.5 35.5q0 4 -5 26q-2 -2 -11.5 -9.5t-12.5 -12.5q-21 -39 -61 -121q-7 -16 -7 -21q0 -13 33 -13zM289 850q-13 6 -18 14q0 24 34 37q14 5 60.5 23.5t72.5 27.5q1 0 5 2t5 2q5 0 10.5 -1
t11.5 -2.5l10 -2.5q-2 -3 -4.5 -10.5t-5 -12t-5.5 -6.5q-69 -31 -160 -69q-1 0 -16 -2z" />
    <glyph glyph-name="abreve" unicode="&#x103;" horiz-adv-x="273" 
d="M181 338q64 -7 64 -60q0 -6 -2 -18q-13 -84 -24 -175q-2 -18 -3.5 -28t-5 -23t-9.5 -19.5t-15 -6.5q-12 0 -26 19q-12 14 -15 30.5t-4 24.5t-8 8q-2 0 -13.5 -7.5t-28.5 -15t-32 -7.5q-22 0 -35.5 16t-13.5 40q0 53 27 104.5t70 83.5q12 9 39.5 20t34.5 14zM181 251
q-2 3 -4.5 7.5t-3.5 6t-3 4t-3 3.5t-3 2t-4 1.5t-5 0.5q-16 0 -23 -7q-71 -98 -71 -124q0 -6 4.5 -14.5t12.5 -8.5q9 0 19.5 8t23 25t20.5 29.5t22 36t18 30.5zM92 506q-13 6 -18 14q0 24 34 37q14 5 60.5 23.5t72.5 27.5q1 0 5 2t5 2q5 0 10.5 -1t11.5 -2.5l10 -2.5
q-2 -3 -4.5 -10.5t-5 -12t-5.5 -6.5q-68 -31 -160 -69q-1 0 -16 -2z" />
    <glyph glyph-name="Aogonek" unicode="&#x104;" horiz-adv-x="446" 
d="M416 674q-26 -140 -37 -211q-4 -15 -4.5 -57t-6.5 -52q-16 -30 -23 -64.5t-10 -78.5t-7 -67q0 -6 14 -22t14 -26q0 -41 -28 -84q-2 -27 -11.5 -51.5t-27 -55t-23.5 -44.5q30 0 120 26h2q12 0 12 -34q0 -30 -14 -34q-7 -2 -28 -8.5t-31.5 -9t-27.5 -5.5t-31 -3
q-42 0 -42 48q0 22 8 43t26 51t23 40h-4q-17 0 -26.5 30t-9.5 61q0 34 5 72.5t12.5 84.5t10.5 71v2q0 6 -7.5 15t-12.5 9q-26 -2 -41 -6t-31.5 -17.5t-26.5 -37.5q-17 -41 -53.5 -117.5t-45.5 -95.5q-11 -23 -24 -33q-3 -3 -13.5 -6t-13.5 -4q0 4 -1 11.5t-1 10.5q0 7 2 10
l98 211q4 8 4 16q0 6 -1.5 10t-5.5 6t-6.5 2.5t-10 1t-10.5 0.5t-10 -1t-10 -1q-13 0 -28 26q17 15 73 30t70 43q16 29 67 126t79 149q42 89 73 89q9 0 19 -18.5t10 -28.5q0 -4 -0.5 -11t-0.5 -11h4zM250 373h4q30 -1 38 37q2 12 8.5 35.5t10 43t3.5 35.5q0 4 -5 26
q-2 -2 -11.5 -9.5t-12.5 -12.5q-21 -39 -61 -121q-7 -16 -7 -21q0 -13 33 -13z" />
    <glyph glyph-name="aogonek" unicode="&#x105;" horiz-adv-x="283" 
d="M181 338q64 -7 64 -60q0 -6 -2 -18q-13 -84 -24 -175q-4 -38 -9 -53q-3 -24 -13.5 -47.5t-25.5 -50t-22 -41.5q30 0 120 26h2q12 0 12 -34q0 -30 -14 -34q-7 -2 -28 -8.5t-31.5 -9t-27.5 -5.5t-31 -3q-42 0 -42 48q0 23 9.5 46.5t26.5 52.5t24 44q-6 6 -9 11
q-12 14 -15 30.5t-4 24.5t-8 8q-2 0 -13.5 -7.5t-28.5 -15t-32 -7.5q-22 0 -35.5 16t-13.5 40q0 53 27 104.5t70 83.5q12 9 39.5 20t34.5 14zM181 251q-2 3 -4.5 7.5t-3.5 6t-3 4t-3 3.5t-3 2t-4 1.5t-5 0.5q-16 0 -23 -7q-71 -98 -71 -124q0 -6 4.5 -14.5t12.5 -8.5
q9 0 19.5 8t23 25t20.5 29.5t22 36t18 30.5z" />
    <glyph glyph-name="Cacute" unicode="&#x106;" horiz-adv-x="499" 
d="M462 613q2 -6 2 -20q0 -23 -8.5 -45.5t-18.5 -22.5q-11 0 -18 24v-1q-1 0 -10.5 22t-26.5 44.5t-36 22.5q-20 0 -42 -16.5t-30.5 -27t-29.5 -38.5q-87 -113 -143 -272q-30 -87 -30 -119q0 -48 36.5 -69t85.5 -21q137 0 288 109q4 3 8 3q9 0 9 -16t-8 -35.5t-21 -28.5
q-7 -5 -49.5 -37t-60.5 -43.5t-53.5 -32.5t-65.5 -29t-60 -8q-58 0 -95.5 31t-51 73.5t-13.5 95.5q0 81 28 165q70 215 170 338q70 85 121 85q46 0 77 -39.5t46 -91.5zM301 842q-4 3 -17 10.5t-18 13.5t-5 15q0 14 28 25q198 80 228 91q2 1 8 1q24 0 24 -19q0 -15 -5 -18
q-20 -19 -53.5 -38t-55 -28.5t-72 -28.5t-62.5 -24z" />
    <glyph glyph-name="cacute" unicode="&#x107;" horiz-adv-x="227" 
d="M185 287q0 -9 -13 -46q-2 3 -5.5 8t-5 7.5t-4 6t-4.5 5t-3.5 3.5t-3.5 2.5t-4 0.5q-8 0 -17 -11q-39 -53 -39 -137q0 -14 10 -22.5t24 -8.5q10 0 32.5 12t31.5 12q13 0 13 -12q0 -23 -37.5 -44.5t-67.5 -21.5q-72 0 -72 112q0 103 80 163q23 20 54 20t31 -40v-9zM129 458
q-4 3 -17 10.5t-18 13.5t-5 15q0 14 28 25q197 80 228 91q2 1 8 1q24 0 24 -19q0 -15 -5 -18q-20 -19 -53.5 -38t-55 -28.5t-72 -28.5t-62.5 -24z" />
    <glyph glyph-name="Ccircumflex" unicode="&#x108;" horiz-adv-x="498" 
d="M462 613q2 -6 2 -20q0 -23 -8.5 -45.5t-18.5 -22.5q-11 0 -18 24v-1q-1 0 -10.5 22t-26.5 44.5t-36 22.5q-20 0 -42 -16.5t-30.5 -27t-29.5 -38.5q-87 -113 -143 -272q-30 -87 -30 -119q0 -48 36.5 -69t85.5 -21q137 0 288 109q4 3 8 3q9 0 9 -16t-8 -35.5t-21 -28.5
q-7 -5 -49.5 -37t-60.5 -43.5t-53.5 -32.5t-65.5 -29t-60 -8q-58 0 -95.5 31t-51 73.5t-13.5 95.5q0 81 28 165q70 215 170 338q70 85 121 85q46 0 77 -39.5t46 -91.5zM465 951q-9 -84 -14 -116q-1 -4 -5.5 -9t-11 -10.5t-9.5 -8.5q-19 15 -28 31t-9 25.5t-2.5 15.5t-10.5 6
t-43 -27q-2 -1 -4.5 -4.5t-5 -5.5t-4.5 -2q-1 0 -34 3q1 4 2 11.5t2.5 12.5t4.5 9q15 17 90 94q8 8 14 20.5t11.5 19.5t15.5 7q8 0 14 -2t10 -4t7 -7.5t4.5 -9t2.5 -11.5t1.5 -11.5t1 -13.5t0.5 -13z" />
    <glyph glyph-name="ccircumflex" unicode="&#x109;" horiz-adv-x="226" 
d="M185 287q0 -9 -13 -46q-2 3 -5.5 8t-5 7.5t-4 6t-4.5 5t-3.5 3.5t-3.5 2.5t-4 0.5q-8 0 -17 -11q-39 -53 -39 -137q0 -14 10 -22.5t24 -8.5q10 0 32.5 12t31.5 12q13 0 13 -12q0 -23 -37.5 -44.5t-67.5 -21.5q-72 0 -72 112q0 103 80 163q23 20 54 20t31 -40v-9zM246 540
q-9 -84 -14 -116q-1 -4 -5.5 -9t-11 -10.5t-9.5 -8.5q-19 15 -28 31t-9 25.5t-2.5 15.5t-10.5 6t-43 -27q-2 -1 -4.5 -4.5t-5 -5.5t-4.5 -2q-1 0 -34 3q1 4 2 11.5t2.5 12.5t4.5 9q15 17 90 94q8 8 14 20.5t11.5 19.5t15.5 7q8 0 14 -2t10 -4t7 -7.5t4.5 -9t2.5 -11.5
t1.5 -11.5t1 -13.5t0.5 -13z" />
    <glyph glyph-name="Ccaron" unicode="&#x10c;" horiz-adv-x="498" 
d="M462 613q2 -6 2 -20q0 -23 -8.5 -45.5t-18.5 -22.5q-11 0 -18 24v-1q-1 0 -10.5 22t-26.5 44.5t-36 22.5q-20 0 -42 -16.5t-30.5 -27t-29.5 -38.5q-87 -113 -143 -272q-30 -87 -30 -119q0 -48 36.5 -69t85.5 -21q137 0 288 109q4 3 8 3q9 0 9 -16t-8 -35.5t-21 -28.5
q-7 -5 -49.5 -37t-60.5 -43.5t-53.5 -32.5t-65.5 -29t-60 -8q-58 0 -95.5 31t-51 73.5t-13.5 95.5q0 81 28 165q70 215 170 338q70 85 121 85q46 0 77 -39.5t46 -91.5zM314 902q9 84 14 116q1 4 5.5 9t11 10.5t9.5 8.5q19 -15 28 -31t9 -25.5t2.5 -15.5t10.5 -6t43 27
q2 1 4.5 4.5t5 5.5t4.5 2q1 0 34 -3q-1 -4 -2 -11.5t-2.5 -12.5t-4.5 -9q-14 -16 -90 -94q-8 -8 -14.5 -21t-11.5 -20t-15 -7q-8 0 -14 2t-10 4t-7 8l-4.5 9t-2.5 11.5t-1.5 11.5t-1 13.5t-0.5 13.5z" />
    <glyph glyph-name="ccaron" unicode="&#x10d;" horiz-adv-x="223" 
d="M185 287q0 -9 -13 -46q-2 3 -5.5 8t-5 7.5t-4 6t-4.5 5t-3.5 3.5t-3.5 2.5t-4 0.5q-8 0 -17 -11q-39 -53 -39 -137q0 -14 10 -22.5t24 -8.5q10 0 32.5 12t31.5 12q13 0 13 -12q0 -23 -37.5 -44.5t-67.5 -21.5q-72 0 -72 112q0 103 80 163q23 20 54 20t31 -40v-9zM102 517
q9 84 14 116q1 4 5.5 9t11 10.5t9.5 8.5q19 -15 28 -31t9 -25.5t2.5 -15.5t10.5 -6t43 27q2 1 4.5 4.5t5 5.5t4.5 2q1 0 34 -3q-1 -4 -2 -11.5t-2.5 -12.5t-4.5 -9q-14 -16 -90 -94q-8 -8 -14.5 -21t-11.5 -20t-15 -7q-8 0 -14 2t-10 4t-7 8l-4.5 9t-2.5 11.5t-1.5 11.5
t-1 13.5t-0.5 13.5z" />
    <glyph glyph-name="Dcaron" unicode="&#x10e;" horiz-adv-x="546" 
d="M297 722h12q92 0 159.5 -60t67.5 -165q0 -107 -43 -201q-84 -185 -228 -301q-15 -13 -38 -23t-40 -10t-45.5 22.5t-44.5 22.5q-4 0 -10.5 -1t-9.5 -1q-26 0 -28 24q-9 72 -9 99q0 20 3 41q9 53 30.5 150.5t27.5 128.5q2 10 2 31v18q0 27 5 52.5t20.5 48t39.5 22.5
q22 0 36 -13.5t14 -39.5q-5 -62 -15 -104q-12 -52 -35 -150.5t-33 -144.5q-2 -8 -2 -15q1 -5 4 -12.5t4 -9.5q17 8 19 12q28 33 58 33q13 0 13 -10q0 -6 -26 -41.5t-26 -57.5q0 -6 3 -18.5t4 -16.5q35 5 39 10q51 47 89.5 88.5t83.5 100.5t70 122.5t25 125.5
q0 106 -57.5 153.5t-149.5 47.5q-117 0 -219 -60q-3 -2 -37 -5q2 4 5 13.5t6 16t7 8.5q84 38 151 57q13 4 29.5 6t37 3.5t31.5 2.5zM273 877q9 84 14 116q1 4 5.5 9t11 10.5t9.5 8.5q19 -15 28 -31t9 -25.5t2.5 -15.5t10.5 -6t43 27q2 1 4.5 4.5t5 5.5t4.5 2q1 0 34 -3
q-1 -4 -2 -11.5t-2.5 -12.5t-4.5 -9q-14 -16 -90 -94q-8 -8 -14.5 -21t-11.5 -20t-15 -7q-8 0 -14 2t-10 4t-7 8l-4.5 9t-2.5 11.5t-1.5 11.5t-1 13.5t-0.5 13.5z" />
    <glyph glyph-name="dcaron" unicode="&#x10f;" horiz-adv-x="410" 
d="M22 152v14q0 77 27.5 147t71.5 70q4 0 8.5 -1t9 -4t7.5 -6l8 -8t7.5 -8t8 -9t7.5 -9q14 16 16 22q16 45 49 133.5t53 142.5q10 25 33 25q36 0 36 -25q0 -1 -3 -22q-9 -41 -20 -97.5t-21 -98.5q-10 -45 -33 -125.5t-30 -108.5q-4 -18 -11.5 -56t-14 -64t-16 -55t-23 -44.5
t-29.5 -15.5q-27 0 -27 50q0 11 5 64q0 10 -4 34q-2 -1 -14.5 -5.5t-17.5 -9.5q-22 -22 -38 -22q-19 0 -33 25t-14 44q0 6 1 13.5t1 9.5zM56 150q2 -4 5 -13t5 -13.5t5 -5.5q12 0 28 12q8 5 35 67.5t27 77.5q0 14 -19 31.5t-30 17.5q-5 0 -11.5 -12.5t-13 -35t-11.5 -43
t-11 -47t-9 -36.5zM389 516q6 14 23.5 59.5t27.5 68.5q3 4 9.5 6.5t18.5 5t15 3.5q0 -5 3.5 -17t3.5 -18q0 -5 -1 -7q-10 -29 -14.5 -41t-16 -37.5t-23 -36.5t-23.5 -11q-3 1 -6 5t-8 10t-9 10z" />
    <glyph glyph-name="Dcroat" unicode="&#x110;" horiz-adv-x="656" 
d="M443 701q12 -1 35.5 -0.5t42.5 -0.5t35 -5q47 -11 73.5 -56t26.5 -96q0 -25 -8 -49q-46 -128 -145 -236q-141 -153 -254 -262q-68 -66 -139 -66q-35 0 -50 27q18 22 53 36t58 31t26 54q5 63 29 222q3 15 3 24q0 12 -7.5 16.5t-30.5 6.5q-150 14 -180 37q-11 8 -11 18
q0 30 30 30q29 0 85 -5t83 -5q55 0 55 38q0 7 -4 25.5t-4 27.5q0 34 15 64.5t40 30.5q20 0 29.5 -11.5t9.5 -28.5q0 -15 -3.5 -47.5t-3.5 -49.5q0 -37 39 -37q5 0 16 1t16 1q24 0 50 -6t26 -17q-8 -32 -121 -50q-13 -1 -23 -7.5t-15.5 -13t-10 -21t-6 -21.5t-4.5 -27t-4 -26
t-8 -35.5t-7 -44.5q0 -5 1.5 -15.5t1.5 -15.5q4 2 11.5 4.5t13.5 5.5t10 7q75 78 85 90q8 11 45 55t52 65.5t39.5 60t34.5 72.5t10 69q0 22 -6 38t-22 26t-28.5 15.5t-41.5 8t-43 2.5h-51h-23q-86 0 -143 -28q-1 -1 -4 -1q-5 0 -20 5q3 23 7 26q30 22 48 25q35 5 100.5 12.5
t85.5 10.5v-4z" />
    <glyph glyph-name="dcroat" unicode="&#x111;" horiz-adv-x="314" 
d="M345 433q3 0 11 0.5t12 0.5q7 0 14 -3t17.5 -9t14.5 -8q-24 -22 -31 -23q-26 -6 -51.5 -8t-37 -2t-22.5 -3.5t-16 -14t-9 -32.5l-54 -281q-6 -21 -18.5 -39.5t-27.5 -18.5q-6 0 -10.5 4.5t-10.5 16t-7 13.5q-4 7 -5 16.5t-1 15.5t-3.5 10.5t-12.5 4.5q-6 0 -25.5 -5
t-26.5 -5q-45 0 -45 59q0 122 64 190q16 18 38 18q9 0 24.5 -8.5t19.5 -8.5q8 0 17.5 18t9.5 33q0 14 -10.5 20t-32.5 9t-30 6q-2 0 -30 21q5 2 13 7.5t15.5 8.5t16.5 3h13q44 0 55 7t30 49q7 16 23.5 26.5t29.5 10.5q22 0 22 -27q0 -7 -3.5 -27t-3.5 -27q0 -8 11 -12
t29.5 -6t21.5 -3l1 1q1 1 1 2zM46 143q1 -3 3.5 -8t4 -7.5t4.5 -5t7 -2.5q8 0 16 6q2 3 11.5 14t15.5 18.5t13 18t11 19t4 15.5q0 15 -11 34.5t-22 19.5q-13 0 -20 -7q-26 -76 -37 -115z" />
    <glyph glyph-name="Emacron" unicode="&#x112;" 
d="M137 5q120 44 164 64q13 6 273 130q10 5 29.5 6t25.5 2q-23 -34 -32 -40q-2 -2 -37 -26t-40.5 -28t-37 -25t-42 -27t-37.5 -23t-43 -24t-40 -19.5t-45.5 -20.5t-44.5 -15q-66 -22 -112 -22q-67 0 -107.5 33.5t-40.5 80.5q0 29 15 60q60 128 174 260q10 11 29.5 27.5
t31 28.5t11.5 22q0 12 -12 24q-33 33 -33 88q0 64 43.5 124t104.5 60q37 0 62 -31t25 -66q0 -11 -3 -19t-5.5 -11.5t-9.5 -10t-10 -9.5q-13 24 -13 38q0 2 0.5 6.5t0.5 6.5q0 20 -15 32.5t-29 12.5q-43 0 -69 -46t-26 -92q0 -21 7 -34.5t20.5 -19.5t26 -8.5t32.5 -5t30 -4.5
q5 -1 16 -5.5t16 -5.5q-2 -4 -4.5 -12t-5 -13.5t-6.5 -8.5q-3 -2 -56 -30q-86 -44 -162 -159q-99 -151 -99 -196q0 -42 69 -42q2 0 4 0.5t3 0.5zM285 858q-5 5 -32.5 2t-60 3.5t-32.5 24.5q0 12 20 18t43 6q179 0 179 -24q0 -30 -90 -30h-27z" />
    <glyph glyph-name="emacron" unicode="&#x113;" horiz-adv-x="249" 
d="M20 104q1 58 16.5 121t50.5 114.5t81 51.5q26 0 43.5 -15.5t17.5 -41.5q0 -10 -3.5 -22t-10.5 -25.5t-12.5 -23t-15 -25t-12.5 -20.5q-9 -14 -29 -31t-33 -34t-13 -39v-4q0 -13 1 -20.5t8 -15t21 -7.5q10 0 29 5.5t29 5.5q17 0 17 -15q0 -29 -34 -51t-66 -22
q-22 0 -38 8.5t-24 18t-13.5 28.5t-6.5 28.5t-3 30.5zM191 312q-2 3 -6 9.5t-7 10t-6 3.5q-6 0 -12 -5.5t-11 -16.5t-8 -19.5t-7.5 -22l-5.5 -16.5q0 -1 -0.5 -1t-0.5 -1q0 -3 4 -8t8 -5q7 0 15.5 11.5t20.5 33.5t16 27zM162 536q-5 5 -32.5 2t-60 3.5t-32.5 24.5
q0 12 20 18t43 6q179 0 179 -24q0 -30 -90 -30h-27z" />
    <glyph glyph-name="Edotaccent" unicode="&#x116;" 
d="M137 5q120 44 164 64q13 6 273 130q10 5 29.5 6t25.5 2q-23 -34 -32 -40q-2 -2 -37 -26t-40.5 -28t-37 -25t-42 -27t-37.5 -23t-43 -24t-40 -19.5t-45.5 -20.5t-44.5 -15q-66 -22 -112 -22q-67 0 -107.5 33.5t-40.5 80.5q0 29 15 60q60 128 174 260q10 11 29.5 27.5
t31 28.5t11.5 22q0 12 -12 24q-33 33 -33 88q0 64 43.5 124t104.5 60q37 0 62 -31t25 -66q0 -11 -3 -19t-5.5 -11.5t-9.5 -10t-10 -9.5q-13 24 -13 38q0 2 0.5 6.5t0.5 6.5q0 20 -15 32.5t-29 12.5q-43 0 -69 -46t-26 -92q0 -21 7 -34.5t20.5 -19.5t26 -8.5t32.5 -5t30 -4.5
q5 -1 16 -5.5t16 -5.5q-2 -4 -4.5 -12t-5 -13.5t-6.5 -8.5q-3 -2 -56 -30q-86 -44 -162 -159q-99 -151 -99 -196q0 -42 69 -42q2 0 4 0.5t3 0.5zM350 924h4q20 0 32.5 -12.5t12.5 -31.5q0 -15 -16.5 -34.5t-31.5 -19.5q-16 0 -32.5 18.5t-16.5 37.5q0 17 14 29.5t34 12.5z
" />
    <glyph glyph-name="edotaccent" unicode="&#x117;" horiz-adv-x="249" 
d="M20 104q1 58 16.5 121t50.5 114.5t81 51.5q26 0 43.5 -15.5t17.5 -41.5q0 -10 -3.5 -22t-10.5 -25.5t-12.5 -23t-15 -25t-12.5 -20.5q-9 -14 -29 -31t-33 -34t-13 -39v-4q0 -13 1 -20.5t8 -15t21 -7.5q10 0 29 5.5t29 5.5q17 0 17 -15q0 -29 -34 -51t-66 -22
q-22 0 -38 8.5t-24 18t-13.5 28.5t-6.5 28.5t-3 30.5zM191 312q-2 3 -6 9.5t-7 10t-6 3.5q-6 0 -12 -5.5t-11 -16.5t-8 -19.5t-7.5 -22l-5.5 -16.5q0 -1 -0.5 -1t-0.5 -1q0 -3 4 -8t8 -5q7 0 15.5 11.5t20.5 33.5t16 27zM177 608h4q20 0 32.5 -12.5t12.5 -31.5
q0 -15 -16.5 -34.5t-31.5 -19.5q-16 0 -32.5 18.5t-16.5 37.5q0 17 14 29.5t34 12.5z" />
    <glyph glyph-name="Eogonek" unicode="&#x118;" 
d="M137 5q120 44 164 64q13 6 273 130q10 5 29.5 6t25.5 2q-23 -34 -32 -40q-7 -5 -39.5 -27.5t-42 -29t-38.5 -26t-43 -27.5t-40.5 -23.5t-44.5 -24.5t-42 -20t-47 -19q-1 -28 -10.5 -54t-27.5 -57.5t-24 -45.5q30 0 120 26h2q12 0 12 -34q0 -30 -14 -34q-7 -2 -28 -8.5
t-31.5 -9t-27.5 -5.5t-31 -3q-42 0 -42 48q0 34 31.5 89.5t37.5 75.5q-67 -21 -109 -21q-67 0 -107.5 33.5t-40.5 80.5q0 29 15 60q60 128 174 260q10 11 29.5 27.5t31 28.5t11.5 22q0 12 -12 24q-33 33 -33 88q0 64 43.5 124t104.5 60q37 0 62 -31t25 -66q0 -11 -3 -19
t-5.5 -11.5t-9.5 -10t-10 -9.5q-13 24 -13 38q0 2 0.5 6.5t0.5 6.5q0 20 -15 32.5t-29 12.5q-43 0 -69 -46t-26 -92q0 -21 7 -34.5t20.5 -19.5t26 -8.5t32.5 -5t30 -4.5q5 -1 16 -5.5t16 -5.5q-2 -4 -4.5 -12t-5 -13.5t-6.5 -8.5q-3 -2 -56 -30q-86 -44 -162 -159
q-99 -151 -99 -196q0 -42 69 -42q2 0 4 0.5t3 0.5z" />
    <glyph glyph-name="eogonek" unicode="&#x119;" horiz-adv-x="249" 
d="M20 104q1 58 16.5 121t50.5 114.5t81 51.5q26 0 43.5 -15.5t17.5 -41.5q0 -10 -3.5 -22t-10.5 -25.5t-12.5 -23t-15 -25t-12.5 -20.5q-9 -14 -29 -31t-33 -34t-13 -39v-4q0 -13 1 -20.5t8 -15t21 -7.5q10 0 29 5.5t29 5.5q17 0 17 -15q0 -20 -18 -37.5t-43 -26.5
q-2 -26 -12 -50t-26.5 -53t-22.5 -43q30 0 120 26h2q12 0 12 -34q0 -30 -14 -34q-7 -2 -28 -8.5t-31.5 -9t-27.5 -5.5t-31 -3q-42 0 -42 48q0 33 31 87.5t36 69.5h-5q-22 0 -38 8.5t-24 18t-13.5 28.5t-6.5 28.5t-3 30.5zM191 312q-2 3 -6 9.5t-7 10t-6 3.5q-6 0 -12 -5.5
t-11 -16.5t-8 -19.5t-7.5 -22l-5.5 -16.5q0 -1 -0.5 -1t-0.5 -1q0 -3 4 -8t8 -5q7 0 15.5 11.5t20.5 33.5t16 27z" />
    <glyph glyph-name="Ecaron" unicode="&#x11a;" 
d="M137 5q120 44 164 64q13 6 273 130q10 5 29.5 6t25.5 2q-23 -34 -32 -40q-2 -2 -37 -26t-40.5 -28t-37 -25t-42 -27t-37.5 -23t-43 -24t-40 -19.5t-45.5 -20.5t-44.5 -15q-66 -22 -112 -22q-67 0 -107.5 33.5t-40.5 80.5q0 29 15 60q60 128 174 260q10 11 29.5 27.5
t31 28.5t11.5 22q0 12 -12 24q-33 33 -33 88q0 64 43.5 124t104.5 60q37 0 62 -31t25 -66q0 -11 -3 -19t-5.5 -11.5t-9.5 -10t-10 -9.5q-13 24 -13 38q0 2 0.5 6.5t0.5 6.5q0 20 -15 32.5t-29 12.5q-43 0 -69 -46t-26 -92q0 -21 7 -34.5t20.5 -19.5t26 -8.5t32.5 -5t30 -4.5
q5 -1 16 -5.5t16 -5.5q-2 -4 -4.5 -12t-5 -13.5t-6.5 -8.5q-3 -2 -56 -30q-86 -44 -162 -159q-99 -151 -99 -196q0 -42 69 -42q2 0 4 0.5t3 0.5zM300 899q9 84 14 116q1 4 5.5 9t11 10.5t9.5 8.5q19 -15 28 -31t9 -25.5t2.5 -15.5t10.5 -6t43 27q2 1 4.5 4.5t5 5.5t4.5 2
q1 0 34 -3q-1 -4 -2 -11.5t-2.5 -12.5t-4.5 -9q-14 -16 -90 -94q-8 -8 -14.5 -21t-11.5 -20t-15 -7q-8 0 -14 2t-10 4t-7 8l-4.5 9t-2.5 11.5t-1.5 11.5t-1 13.5t-0.5 13.5z" />
    <glyph glyph-name="ecaron" unicode="&#x11b;" horiz-adv-x="243" 
d="M20 104q1 58 16.5 121t50.5 114.5t81 51.5q26 0 43.5 -15.5t17.5 -41.5q0 -10 -3.5 -22t-10.5 -25.5t-12.5 -23t-15 -25t-12.5 -20.5q-9 -14 -29 -31t-33 -34t-13 -39v-4q0 -13 1 -20.5t8 -15t21 -7.5q10 0 29 5.5t29 5.5q17 0 17 -15q0 -29 -34 -51t-66 -22
q-22 0 -38 8.5t-24 18t-13.5 28.5t-6.5 28.5t-3 30.5zM191 312q-2 3 -6 9.5t-7 10t-6 3.5q-6 0 -12 -5.5t-11 -16.5t-8 -19.5t-7.5 -22l-5.5 -16.5q0 -1 -0.5 -1t-0.5 -1q0 -3 4 -8t8 -5q7 0 15.5 11.5t20.5 33.5t16 27zM122 562q9 84 14 116q1 4 5.5 9t11 10.5t9.5 8.5
q19 -15 28 -31t9 -25.5t2.5 -15.5t10.5 -6t43 27q2 1 4.5 4.5t5 5.5t4.5 2q1 0 34 -3q-1 -4 -2 -11.5t-2.5 -12.5t-4.5 -9q-14 -16 -90 -94q-8 -8 -14.5 -21t-11.5 -20t-15 -7q-8 0 -14 2t-10 4t-7 8l-4.5 9t-2.5 11.5t-1.5 11.5t-1 13.5t-0.5 13.5z" />
    <glyph glyph-name="Gbreve" unicode="&#x11e;" horiz-adv-x="507" 
d="M455 425q17 -13 17 -39v-6q-7 -37 -22 -107.5t-21 -105.5q0 -6 -7 -27q-1 -11 -6 -33t-5 -34q0 -30 23 -50q9 -9 9 -20q0 -17 -21 -40t-46 -23q-38 0 -51 83q-84 -69 -147 -69q-45 0 -80 39.5t-51.5 95.5t-16.5 114q0 167 105 341q161 273 252 273q26 0 45 -19.5
t27.5 -49.5t12.5 -57t4 -52q0 -60 -26 -60t-26 60q1 4 0.5 16t-10 25.5t-28.5 13.5q-10 0 -21.5 -4.5t-23 -13.5t-22.5 -18.5t-23 -24t-21 -25t-20 -26t-16.5 -23.5t-13.5 -20.5t-9 -13.5q-137 -205 -137 -317q0 -53 32 -94.5t77 -41.5q77 0 173 118q1 26 4 57t5.5 52
t2.5 26q0 11 -18.5 21.5t-19.5 12.5q-5 5 -25 32q16 6 36 17q4 -3 6 -9q11 4 30.5 12t34 12t27.5 4q5 0 11 -2zM296 913q-13 6 -18 14q0 24 34 37q14 5 60.5 23.5t72.5 27.5q1 0 5 2t5 2q5 0 10.5 -1t11.5 -2.5l10 -2.5q-2 -3 -4.5 -10.5t-5 -12t-5.5 -6.5q-68 -31 -160 -69
q-1 0 -16 -2z" />
    <glyph glyph-name="gbreve" unicode="&#x11f;" horiz-adv-x="267" 
d="M-52 -303q-29 5 -53.5 26t-24.5 47q0 15 15 15q10 0 27 -3t23 -3q24 0 41 12.5t36 44.5q69 117 103 255q14 53 14 61q0 14 -13 14q-5 0 -18 -2.5t-18 -2.5q-48 0 -48 60q0 53 38 95t92 48q9 0 26 5.5t30 5.5h4.5h5h4.5t4.5 -0.5t4 -1.5t3.5 -2.5t2.5 -3.5t2.5 -5
t1.5 -6.5t0.5 -8.5q0 -6 -2 -12q-62 -279 -83 -350q-53 -182 -159 -262q-10 -6 -31.5 -14.5t-27.5 -11.5zM72 226q1 -1 2 -4.5t2 -5t2.5 -3.5t4 -2.5t6.5 -0.5q14 0 21 7q2 3 11.5 13.5t15.5 18t14 18t12 19t4 14.5q0 2 -0.5 8t-0.5 10v4q-4 0 -12 1t-11 1q-25 0 -44 -32
t-27 -66zM76 512q-13 6 -18 14q0 24 34 37q14 5 60.5 23.5t72.5 27.5q1 0 5 2t5 2q5 0 10.5 -1t11.5 -2.5l10 -2.5q-2 -3 -4.5 -10.5t-5 -12t-5.5 -6.5q-69 -31 -160 -69q-1 0 -16 -2z" />
    <glyph glyph-name="Gcommaaccent" unicode="&#x122;" horiz-adv-x="506" 
d="M455 425q17 -13 17 -39v-6q-7 -37 -22 -107.5t-21 -105.5q0 -6 -7 -27q-1 -11 -6 -33t-5 -34q0 -30 23 -50q9 -9 9 -20q0 -17 -21 -40t-46 -23q-38 0 -51 83q-84 -69 -147 -69q-45 0 -80 39.5t-51.5 95.5t-16.5 114q0 167 105 341q161 273 252 273q26 0 45 -19.5
t27.5 -49.5t12.5 -57t4 -52q0 -60 -26 -60t-26 60q1 4 0.5 16t-10 25.5t-28.5 13.5q-10 0 -21.5 -4.5t-23 -13.5t-22.5 -18.5t-23 -24t-21 -25t-20 -26t-16.5 -23.5t-13.5 -20.5t-9 -13.5q-137 -205 -137 -317q0 -53 32 -94.5t77 -41.5q77 0 173 118q1 26 4 57t5.5 52
t2.5 26q0 11 -18.5 21.5t-19.5 12.5q-5 5 -25 32q16 6 36 17q4 -3 6 -9q11 4 30.5 12t34 12t27.5 4q5 0 11 -2zM139 -280q6 14 23.5 59.5t27.5 68.5q3 4 9.5 6.5t18.5 5t15 3.5q0 -5 3.5 -17t3.5 -18q0 -5 -1 -7q-10 -29 -14.5 -41t-16 -37.5t-23 -36.5t-23.5 -11q-3 1 -6 5
t-8 10t-9 10z" />
    <glyph glyph-name="gcommaaccent" unicode="&#x123;" horiz-adv-x="271" 
d="M245 651q-6 -14 -23.5 -59.5t-27.5 -68.5q-3 -4 -9.5 -6.5t-18.5 -5t-15 -3.5q0 3 -3.5 15.5t-3.5 18.5t1 8q9 27 14 40.5t16 38t22.5 36t24.5 11.5q3 -1 6 -5t8 -10t9 -10zM-52 -303q-29 5 -53.5 26t-24.5 47q0 15 15 15q10 0 27 -3t23 -3q24 0 41 12.5t36 44.5
q69 117 103 255q14 53 14 61q0 14 -13 14q-5 0 -18 -2.5t-18 -2.5q-48 0 -48 60q0 53 38 95t92 48q9 0 26 5.5t30 5.5h4.5h5h4.5t4.5 -0.5t4 -1.5t3.5 -2.5t2.5 -3.5t2.5 -5t1.5 -6.5t0.5 -8.5q0 -6 -2 -12q-62 -279 -83 -350q-53 -182 -159 -262q-10 -6 -31.5 -14.5
t-27.5 -11.5zM72 226q1 -1 2 -4.5t2 -5t2.5 -3.5t4 -2.5t6.5 -0.5q14 0 21 7q2 3 11.5 13.5t15.5 18t14 18t12 19t4 14.5q0 2 -0.5 8t-0.5 10v4q-4 0 -12 1t-11 1q-25 0 -44 -32t-27 -66z" />
    <glyph glyph-name="Imacron" unicode="&#x12a;" horiz-adv-x="301" 
d="M84 141q20 157 72 436q0 1 0.5 3.5t0.5 3.5q0 12 -14.5 24.5t-31.5 21t-31.5 20.5t-14.5 25q0 14 19 14q21 0 53.5 -12t46.5 -12q26 0 75 24.5t76 24.5q16 0 16 -11q0 -14 -6 -18q-11 -10 -35.5 -27.5t-40 -33t-19.5 -32.5q-29 -132 -81 -483q-1 -4 -1 -11q0 -26 30 -26
q2 0 5.5 1t5.5 1q4 0 9.5 -3.5t11.5 -8t9 -5.5q-15 -20 -19 -21q-15 -4 -47 -10.5t-47 -11.5q-9 -3 -29 -11t-36.5 -13t-29.5 -5q-6 0 -17 2t-14 2q2 4 4.5 13t5.5 15t8 8q21 16 52 41.5t31 28.5h-1q-2 0 -8 18.5t-6 27.5h-2zM231 821q-5 5 -32.5 2t-60 3.5t-32.5 24.5
q0 12 20 18t43 6q179 0 179 -24q0 -30 -90 -30h-27z" />
    <glyph glyph-name="imacron" unicode="&#x12b;" horiz-adv-x="182" 
d="M2 56q6 30 27 140q2 11 3.5 34.5t4 41.5t8 37t18 29.5t31.5 10.5q17 0 28.5 -12t11.5 -29v-5q-24 -108 -64 -264q-5 -19 -41 -37q-24 35 -24 45v7q-1 2 -3 2zM115 523q-5 5 -32.5 2t-60 3.5t-32.5 24.5q0 12 20 18t43 6q179 0 179 -24q0 -30 -90 -30h-27z" />
    <glyph glyph-name="Iogonek" unicode="&#x12e;" horiz-adv-x="301" 
d="M84 141q20 157 72 436q0 1 0.5 3.5t0.5 3.5q0 12 -14.5 24.5t-31.5 21t-31.5 20.5t-14.5 25q0 14 19 14q21 0 53.5 -12t46.5 -12q26 0 75 24.5t76 24.5q16 0 16 -11q0 -14 -6 -18q-11 -10 -35.5 -27.5t-40 -33t-19.5 -32.5q-29 -132 -81 -483q-1 -4 -1 -11q0 -26 30 -26
q2 0 5.5 1t5.5 1q4 0 9.5 -3.5t11.5 -8t9 -5.5q-15 -20 -19 -21l-66 -15v-1q0 -29 -9.5 -55t-28 -59t-24.5 -46q30 0 120 26h2q12 0 12 -34q0 -30 -14 -34q-7 -2 -28 -8.5t-31.5 -9t-27.5 -5.5t-31 -3q-42 0 -42 48q0 34 32.5 91.5t38.5 81.5q-8 -3 -28 -11t-35.5 -12.5
t-28.5 -4.5q-6 0 -17 2t-14 2q2 4 4.5 13t5.5 15t8 8q21 16 52 41.5t31 28.5h-1q-2 0 -8 18.5t-6 27.5h-2zM127 14l1 -1v-1l2 3q-2 0 -3 -1z" />
    <glyph glyph-name="iogonek" unicode="&#x12f;" horiz-adv-x="167" 
d="M-1 56q6 30 27 140q2 11 3.5 34.5t4 41.5t8 37t18 29.5t31.5 10.5q17 0 28.5 -12t11.5 -29v-5q-24 -108 -64 -264q-1 -5 -6 -12q-2 -26 -12 -50.5t-26 -53t-23 -43.5q30 0 120 26h2q12 0 12 -34q0 -30 -14 -34q-7 -2 -28 -8.5t-31.5 -9t-27.5 -5.5t-31 -3q-42 0 -42 48
q0 24 10 48t27.5 53.5t24.5 45.5q-20 27 -20 40v7q-1 2 -3 2zM92 487q1 50 42 50q33 0 33 -23l-2 -5q-22 -48 -42 -48q-3 0 -9 5t-13 12.5t-9 8.5z" />
    <glyph glyph-name="Idotaccent" unicode="&#x130;" horiz-adv-x="301" 
d="M84 141q20 157 72 436q0 1 0.5 3.5t0.5 3.5q0 12 -14.5 24.5t-31.5 21t-31.5 20.5t-14.5 25q0 14 19 14q21 0 53.5 -12t46.5 -12q26 0 75 24.5t76 24.5q16 0 16 -11q0 -14 -6 -18q-11 -10 -35.5 -27.5t-40 -33t-19.5 -32.5q-29 -132 -81 -483q-1 -4 -1 -11q0 -26 30 -26
q2 0 5.5 1t5.5 1q4 0 9.5 -3.5t11.5 -8t9 -5.5q-15 -20 -19 -21q-15 -4 -47 -10.5t-47 -11.5q-9 -3 -29 -11t-36.5 -13t-29.5 -5q-6 0 -17 2t-14 2q2 4 4.5 13t5.5 15t8 8q21 16 52 41.5t31 28.5h-1q-2 0 -8 18.5t-6 27.5h-2zM212 868h4q20 0 32.5 -12.5t12.5 -31.5
q0 -15 -16.5 -34.5t-31.5 -19.5q-16 0 -32.5 18.5t-16.5 37.5q0 17 14 29.5t34 12.5z" />
    <glyph glyph-name="dotlessi" unicode="&#x131;" horiz-adv-x="172" 
d="M0 56q6 30 27 140q2 11 3.5 34.5t4 41.5t8 37t18 29.5t31.5 10.5q17 0 28.5 -12t11.5 -29v-5q-24 -108 -64 -264q-5 -19 -41 -37q-24 35 -24 45v7q-1 2 -3 2z" />
    <glyph glyph-name="Kcommaaccent" unicode="&#x136;" horiz-adv-x="436" 
d="M426 -133q60 -89 60 -117q0 -12 -11 -12q-5 0 -11.5 2t-11.5 4l-4 3q-22 21 -41.5 43t-37.5 51t-30.5 47t-29.5 56t-24 52t-23.5 59.5t-19.5 53t-20.5 60t-18.5 54.5q-17 45 -32 45q-12 -1 -16.5 -7.5t-5.5 -24t-1 -18.5q-2 -12 -8 -50.5t-10.5 -61t-13 -51t-21.5 -42.5
t-30 -14q-19 0 -27 9t-8 32q0 19 5 48t11 52t12 45t7 24q21 118 78 406q1 7 2 27t3 32.5t6 17.5q3 2 12 9t14.5 10t12.5 6.5t13 3.5q13 0 20 -11.5t7 -26.5q0 -10 -1 -15q-33 -166 -37 -185q0 -2 -1 -6t-1 -6q0 -3 6 -39q25 14 31 21l176 241q4 7 9 11t12.5 5.5t11.5 2t14 0
t12 -0.5q-1 -3 -1.5 -9t-1 -10.5t-2 -9.5t-3.5 -8q-171 -240 -203 -282q-22 -30 -22 -53q0 -16 11 -40q17 -36 43.5 -105.5t34.5 -88.5q31 -77 105 -239zM121 -245q6 14 23.5 59.5t27.5 68.5q3 4 9.5 6.5t18.5 5t15 3.5q0 -5 3.5 -17t3.5 -18q0 -5 -1 -7q-10 -29 -14.5 -41
t-16 -37.5t-23 -36.5t-23.5 -11q-3 1 -6 5t-8 10t-9 10z" />
    <glyph glyph-name="kcommaaccent" unicode="&#x137;" horiz-adv-x="306" 
d="M20 24q33 177 117 569q2 11 6 35t7 41t8.5 35.5t13 28.5t18.5 10q36 0 36 -31q0 -2 -0.5 -5t-0.5 -4q-48 -307 -54 -343q0 -2 -2 -7t-2 -8q6 -26 7 -30q19 16 21 21q6 12 21.5 53t28 63t24.5 22q19 0 28 -10.5t9 -25.5q0 -90 -78 -181q-31 -36 -31 -64q0 -7 4.5 -25
t4.5 -29t-3 -34t-3 -33q0 -18 23 -30.5t23 -18.5q-2 -12 -10.5 -20t-17.5 -8q-21 0 -36.5 25t-15.5 49q0 6 1.5 18.5t1.5 18.5q0 8 -1 25t-1 26q0 2 -17 24q-14 -12 -20.5 -27.5t-10.5 -36.5t-8 -32q-17 -57 -46 -128q-1 -4 -19 -15q-2 4 -7 11t-7 11q-1 4 -2.5 19.5
t-3.5 27t-6 13.5zM65 -252q6 14 23.5 59.5t27.5 68.5q3 4 9.5 6.5t18.5 5t15 3.5q0 -5 3.5 -17t3.5 -18q0 -5 -1 -7q-10 -29 -14.5 -41t-16 -37.5t-23 -36.5t-23.5 -11q-3 1 -6 5t-8 10t-9 10z" />
    <glyph glyph-name="Lacute" unicode="&#x139;" horiz-adv-x="443" 
d="M226 672q-9 -54 -24.5 -151.5t-28.5 -179t-26 -153.5q-1 -4 -6.5 -41.5t-10.5 -56.5q-2 -7 -2 -19q0 -24 28 -24q26 0 79 6t79 6q11 0 21.5 -1t21.5 -3t18.5 -3.5t20 -5.5t18 -6t20.5 -7t20 -7q4 -2 7 -7t6.5 -12.5t5.5 -10.5q-13 -3 -25 -3q-7 0 -11 1q-69 20 -144 20
q-92 0 -217 -33q-2 -1 -4.5 -2t-4.5 -2t-3 -1q-9 0 -34 14q3 7 19.5 33.5t16.5 37.5q-2 30 -2 46q0 50 7 103.5t19.5 123.5t17.5 103q31 222 35 261q5 48 34 48q18 0 31.5 -10t13.5 -34q0 -4 -0.5 -14t-0.5 -14q1 -2 5 -2zM200 841q-4 3 -17 10.5t-18 13.5t-5 15q0 14 28 25
q198 80 228 91q2 1 8 1q24 0 24 -19q0 -15 -5 -18q-20 -19 -53.5 -38t-55 -28.5t-72 -28.5t-62.5 -24z" />
    <glyph glyph-name="lacute" unicode="&#x13a;" horiz-adv-x="198" 
d="M20 74q5 50 12.5 100.5t18.5 109.5t18.5 96.5t22.5 109.5t21 99q1 5 4.5 26.5t6.5 33t8.5 27.5t13.5 23.5t19 7.5q32 -4 32 -56q-76 -397 -87 -467q-3 -18 -3 -19q0 -13 11 -13q6 0 15 3q2 1 9.5 -6t7.5 -12q0 -37 -29 -84t-62 -47q-29 0 -39 68zM170 798q-4 3 -17 10.5
t-18 13.5t-5 15q0 14 28 25q197 80 228 91q2 1 8 1q24 0 24 -19q0 -15 -5 -18q-20 -19 -53.5 -38t-55 -28.5t-72 -28.5t-62.5 -24z" />
    <glyph glyph-name="Lcommaaccent" unicode="&#x13b;" horiz-adv-x="443" 
d="M226 672q-9 -54 -24.5 -151.5t-28.5 -179t-26 -153.5q-1 -4 -6.5 -41.5t-10.5 -56.5q-2 -7 -2 -19q0 -24 28 -24q26 0 79 6t79 6q11 0 21.5 -1t21.5 -3t18.5 -3.5t20 -5.5t18 -6t20.5 -7t20 -7q4 -2 7 -7t6.5 -12.5t5.5 -10.5q-13 -3 -25 -3q-7 0 -11 1q-69 20 -144 20
q-92 0 -217 -33q-2 -1 -4.5 -2t-4.5 -2t-3 -1q-9 0 -34 14q3 7 19.5 33.5t16.5 37.5q-2 30 -2 46q0 50 7 103.5t19.5 123.5t17.5 103q31 222 35 261q5 48 34 48q18 0 31.5 -10t13.5 -34q0 -4 -0.5 -14t-0.5 -14q1 -2 5 -2zM171 -248q6 14 23.5 59.5t27.5 68.5q3 4 9.5 6.5
t18.5 5t15 3.5q0 -5 3.5 -17t3.5 -18q0 -5 -1 -7q-10 -29 -14.5 -41t-16 -37.5t-23 -36.5t-23.5 -11q-3 1 -6 5t-8 10t-9 10z" />
    <glyph glyph-name="lcommaaccent" unicode="&#x13c;" horiz-adv-x="199" 
d="M22 74q5 50 12.5 100.5t18.5 109.5t18.5 96.5t22.5 109.5t21 99q1 5 4.5 26.5t6.5 33t8.5 27.5t13.5 23.5t19 7.5q32 -4 32 -56q-76 -397 -87 -467q-3 -18 -3 -19q0 -13 11 -13q6 0 15 3q2 1 9.5 -6t7.5 -12q0 -37 -29 -84t-62 -47q-29 0 -39 68zM-30 -238
q6 14 23.5 59.5t27.5 68.5q3 4 9.5 6.5t18.5 5t15 3.5q0 -5 3.5 -17t3.5 -18q0 -5 -1 -7q-10 -29 -14.5 -41t-16 -37.5t-23 -36.5t-23.5 -11q-3 1 -6 5t-8 10t-9 10z" />
    <glyph glyph-name="Lcaron" unicode="&#x13d;" horiz-adv-x="443" 
d="M226 672q-9 -54 -24.5 -151.5t-28.5 -179t-26 -153.5q-1 -4 -6.5 -41.5t-10.5 -56.5q-2 -7 -2 -19q0 -24 28 -24q26 0 79 6t79 6q11 0 21.5 -1t21.5 -3t18.5 -3.5t20 -5.5t18 -6t20.5 -7t20 -7q4 -2 7 -7t6.5 -12.5t5.5 -10.5q-13 -3 -25 -3q-7 0 -11 1q-69 20 -144 20
q-92 0 -217 -33q-2 -1 -4.5 -2t-4.5 -2t-3 -1q-9 0 -34 14q3 7 19.5 33.5t16.5 37.5q-2 30 -2 46q0 50 7 103.5t19.5 123.5t17.5 103q31 222 35 261q5 48 34 48q18 0 31.5 -10t13.5 -34q0 -4 -0.5 -14t-0.5 -14q1 -2 5 -2zM276 565q6 14 23.5 59.5t27.5 68.5q3 4 9.5 6.5
t18.5 5t15 3.5q0 -5 3.5 -17t3.5 -18q0 -5 -1 -7q-10 -29 -14.5 -41t-16 -37.5t-23 -36.5t-23.5 -11q-3 1 -6 5t-8 10t-9 10z" />
    <glyph glyph-name="lcaron" unicode="&#x13e;" horiz-adv-x="280" 
d="M20 74q5 50 12.5 100.5t18.5 109.5t18.5 96.5t22.5 109.5t21 99q1 5 4.5 26.5t6.5 33t8.5 27.5t13.5 23.5t19 7.5q32 -4 32 -56q-76 -397 -87 -467q-3 -18 -3 -19q0 -13 11 -13q6 0 15 3q2 1 9.5 -6t7.5 -12q0 -37 -29 -84t-62 -47q-29 0 -39 68zM249 555q6 14 23.5 59.5
t27.5 68.5q3 4 9.5 6.5t18.5 5t15 3.5q0 -5 3.5 -17t3.5 -18q0 -5 -1 -7q-10 -29 -14.5 -41t-16 -37.5t-23 -36.5t-23.5 -11q-3 1 -6 5t-8 10t-9 10z" />
    <glyph glyph-name="Lslash" unicode="&#x141;" horiz-adv-x="452" 
d="M235 672l-35 -222q139 58 149 38q11 -22 -19 -45.5t-72 -43.5l-34 -16l-2 5l-35 -17q-20 -122 -31 -183q-1 -4 -6.5 -41.5t-10.5 -56.5q-2 -7 -2 -19q0 -24 28 -24q27 0 79 6t79 6q11 0 21.5 -1t21.5 -3t18.5 -3.5t20 -5.5t18 -6t20.5 -7t20 -7q4 -2 7 -7t6.5 -12.5
t5.5 -10.5q-14 -3 -25 -3q-7 0 -11 1q-69 20 -144 20q-92 0 -217 -33q-2 -1 -4.5 -2t-4.5 -2t-3 -1q-9 0 -34 14q3 7 19.5 33.5t16.5 37.5q-2 30 -2 46q0 75 26 223l-61 -29q-45 -11 -56 11q-7 15 14 34t49 33q62 29 68 32l4 26q31 222 35 261q4 48 34 48q18 0 31.5 -10
t13.5 -34q0 -4 -0.5 -14t-0.5 -14q1 -2 5 -2z" />
    <glyph glyph-name="lslash" unicode="&#x142;" horiz-adv-x="230" 
d="M30 74q11 113 37 244l-27 -18q-45 -14 -57 7q-8 14 11 34.5t46 36.5l44 26l39 185q1 5 4.5 26.5t6.5 33t8.5 27.5t13.5 23.5t19 7.5q32 -4 32 -56l-39 -198q76 42 88 22q21 -35 -84 -96l-20 -12q-12 -61 -32 -183q-3 -18 -3 -19q0 -13 11 -13q6 0 15 3q2 1 9.5 -6
t7.5 -12q0 -37 -29 -84t-62 -47q-29 0 -39 68z" />
    <glyph glyph-name="Nacute" unicode="&#x143;" horiz-adv-x="529" 
d="M196 520q-2 -8 -10 -28t-10 -32q-13 -65 -37 -198t-37 -200q-5 -23 -24 -52q-4 -4 -9.5 -7t-13 -5.5t-11.5 -4.5q0 1 -6.5 15.5t-6.5 21.5q0 11 1.5 22t5 25.5t4.5 21.5q8 44 23 128.5t23 125.5l41 193q2 11 5 37t5.5 41.5t12.5 29t26 13.5q29 0 35 -29q35 -167 65 -326
q3 -15 6.5 -53.5t9 -66t15.5 -37.5q14 11 15 17q7 31 16.5 48.5t17.5 49.5q15 62 60 225.5t65 254.5q4 20 12 29.5t25 9.5q33 0 33 -50q0 -24 -11.5 -62t-27 -77t-16.5 -42t-31 -120q-15 -59 -40.5 -142t-41.5 -151q-3 -12 -7 -37.5t-8 -41t-10.5 -33.5t-18 -27t-27.5 -9
q-9 0 -16 5t-12.5 16t-9 21.5t-6.5 27.5t-5 28.5t-4 29.5t-3 26l-38 292q-4 36 -12 75q-8 0 -12 2zM341 842q-4 3 -17 10.5t-18 13.5t-5 15q0 14 28 25q198 80 228 91q2 1 8 1q24 0 24 -19q0 -15 -5 -18q-20 -19 -53.5 -38t-55 -28.5t-72 -28.5t-62.5 -24z" />
    <glyph glyph-name="nacute" unicode="&#x144;" horiz-adv-x="284" 
d="M207 269q-22 -29 -34 -49q-7 -12 -20 -38.5t-23.5 -45.5t-24 -39.5t-27.5 -31.5t-28 -11q-30 0 -30 39q0 17 11 165l6 50q5 34 37 34t32 -37q0 -12 -2.5 -37t-2.5 -37q0 -5 2.5 -14t2.5 -12q20 14 22 18l39 67q12 15 31 27.5t34 12.5q25 0 25 -35q0 -8 -2 -24
q-22 -179 -37 -287q-1 -9 -14 -26q-1 3 -4 9t-4.5 11t-1.5 10q9 208 20 277q-1 0 -7 4zM146 467q-4 3 -17 10.5t-18 13.5t-5 15q0 14 28 25q197 80 228 91q2 1 8 1q24 0 24 -19q0 -15 -5 -18q-20 -19 -53.5 -38t-55 -28.5t-72 -28.5t-62.5 -24z" />
    <glyph glyph-name="Ncommaaccent" unicode="&#x145;" horiz-adv-x="533" 
d="M196 520q-2 -8 -10 -28t-10 -32q-13 -65 -37 -198t-37 -200q-5 -23 -24 -52q-4 -4 -9.5 -7t-13 -5.5t-11.5 -4.5q0 1 -6.5 15.5t-6.5 21.5q0 11 1.5 22t5 25.5t4.5 21.5q8 44 23 128.5t23 125.5l41 193q2 11 5 37t5.5 41.5t12.5 29t26 13.5q29 0 35 -29q35 -167 65 -326
q3 -15 6.5 -53.5t9 -66t15.5 -37.5q14 11 15 17q7 31 16.5 48.5t17.5 49.5q15 62 60 225.5t65 254.5q4 20 12 29.5t25 9.5q33 0 33 -50q0 -24 -11.5 -62t-27 -77t-16.5 -42t-31 -120q-15 -59 -40.5 -142t-41.5 -151q-3 -12 -7 -37.5t-8 -41t-10.5 -33.5t-18 -27t-27.5 -9
q-9 0 -16 5t-12.5 16t-9 21.5t-6.5 27.5t-5 28.5t-4 29.5t-3 26l-38 292q-4 36 -12 75q-8 0 -12 2zM121 -207q6 14 23.5 59.5t27.5 68.5q3 4 9.5 6.5t18.5 5t15 3.5q0 -5 3.5 -17t3.5 -18q0 -5 -1 -7q-10 -29 -14.5 -41t-16 -37.5t-23 -36.5t-23.5 -11q-3 1 -6 5t-8 10
t-9 10z" />
    <glyph glyph-name="ncommaaccent" unicode="&#x146;" horiz-adv-x="277" 
d="M207 269q-22 -29 -34 -49q-7 -12 -20 -38.5t-23.5 -45.5t-24 -39.5t-27.5 -31.5t-28 -11q-30 0 -30 39q0 17 11 165l6 50q5 34 37 34t32 -37q0 -12 -2.5 -37t-2.5 -37q0 -5 2.5 -14t2.5 -12q20 14 22 18l39 67q12 15 31 27.5t34 12.5q25 0 25 -35q0 -8 -2 -24
q-22 -179 -37 -287q-1 -9 -14 -26q-1 3 -4 9t-4.5 11t-1.5 10q9 208 20 277q-1 0 -7 4zM54 -207q6 14 23.5 59.5t27.5 68.5q3 4 9.5 6.5t18.5 5t15 3.5q0 -5 3.5 -17t3.5 -18q0 -5 -1 -7q-10 -29 -14.5 -41t-16 -37.5t-23 -36.5t-23.5 -11q-3 1 -6 5t-8 10t-9 10z" />
    <glyph glyph-name="Ncaron" unicode="&#x147;" horiz-adv-x="533" 
d="M196 520q-2 -8 -10 -28t-10 -32q-13 -65 -37 -198t-37 -200q-5 -23 -24 -52q-4 -4 -9.5 -7t-13 -5.5t-11.5 -4.5q0 1 -6.5 15.5t-6.5 21.5q0 11 1.5 22t5 25.5t4.5 21.5q8 44 23 128.5t23 125.5l41 193q2 11 5 37t5.5 41.5t12.5 29t26 13.5q29 0 35 -29q35 -167 65 -326
q3 -15 6.5 -53.5t9 -66t15.5 -37.5q14 11 15 17q7 31 16.5 48.5t17.5 49.5q15 62 60 225.5t65 254.5q4 20 12 29.5t25 9.5q33 0 33 -50q0 -24 -11.5 -62t-27 -77t-16.5 -42t-31 -120q-15 -59 -40.5 -142t-41.5 -151q-3 -12 -7 -37.5t-8 -41t-10.5 -33.5t-18 -27t-27.5 -9
q-9 0 -16 5t-12.5 16t-9 21.5t-6.5 27.5t-5 28.5t-4 29.5t-3 26l-38 292q-4 36 -12 75q-8 0 -12 2zM293 849q9 84 14 116q1 4 5.5 9t11 10.5t9.5 8.5q19 -15 28 -31t9 -25.5t2.5 -15.5t10.5 -6t43 27q2 1 4.5 4.5t5 5.5t4.5 2q1 0 34 -3q-1 -4 -2 -11.5t-2.5 -12.5t-4.5 -9
q-14 -16 -90 -94q-8 -8 -14.5 -21t-11.5 -20t-15 -7q-8 0 -14 2t-10 4t-7 8l-4.5 9t-2.5 11.5t-1.5 11.5t-1 13.5t-0.5 13.5z" />
    <glyph glyph-name="ncaron" unicode="&#x148;" horiz-adv-x="290" 
d="M207 269q-22 -29 -34 -49q-7 -12 -20 -38.5t-23.5 -45.5t-24 -39.5t-27.5 -31.5t-28 -11q-30 0 -30 39q0 17 11 165l6 50q5 34 37 34t32 -37q0 -12 -2.5 -37t-2.5 -37q0 -5 2.5 -14t2.5 -12q20 14 22 18l39 67q12 15 31 27.5t34 12.5q25 0 25 -35q0 -8 -2 -24
q-22 -179 -37 -287q-1 -9 -14 -26q-1 3 -4 9t-4.5 11t-1.5 10q9 208 20 277q-1 0 -7 4zM129 514q9 84 14 116q1 4 5.5 9t11 10.5t9.5 8.5q19 -15 28 -31t9 -25.5t2.5 -15.5t10.5 -6t43 27q2 1 4.5 4.5t5 5.5t4.5 2q1 0 34 -3q-1 -4 -2 -11.5t-2.5 -12.5t-4.5 -9
q-14 -16 -90 -94q-8 -8 -14.5 -21t-11.5 -20t-15 -7q-8 0 -14 2t-10 4t-7 8l-4.5 9t-2.5 11.5t-1.5 11.5t-1 13.5t-0.5 13.5z" />
    <glyph glyph-name="Omacron" unicode="&#x14c;" horiz-adv-x="567" 
d="M547 457q-4 -93 -53.5 -196t-142.5 -196q-83 -83 -169 -83q-79 0 -120.5 50.5t-41.5 109.5q0 23 11 66.5t13 55.5q1 7 5.5 54t13.5 70q30 99 77 171q23 37 114 123q25 24 64.5 40t71.5 16q75 0 116 -71t41 -210zM466 520q-2 7 -6 32.5t-8.5 43t-12.5 38.5t-21 32.5
t-30 11.5q-90 0 -211 -195l-6 -9q-3 -4 -3 -11q0 -17 23.5 -36t23.5 -32q0 -4 -3 -13.5t-3 -14.5q0 -28 46 -28q1 0 5 0.5t6 0.5q7 0 7 -6q0 -13 -15.5 -22t-34 -13t-35.5 -12.5t-20 -21.5q-2 -9 -10 -43t-11.5 -57.5t-3.5 -43.5q0 -29 11.5 -47t33.5 -18q27 2 42 13
q115 79 167 192.5t69 258.5zM392 863q-5 5 -32.5 2t-60 3.5t-32.5 24.5q0 12 20 18t43 6q179 0 179 -24q0 -30 -90 -30h-27z" />
    <glyph glyph-name="omacron" unicode="&#x14d;" horiz-adv-x="252" 
d="M20 142q3 29 13.5 70t34 79.5t51.5 38.5q11 0 20.5 -7t9.5 -19q0 -11 -5 -16q-29 -35 -46 -87t-17 -99q0 -6 3 -13.5t8 -17.5l7 -14q4 3 13.5 8t15 9t7.5 9q46 103 46 173q0 10 -5 32t-5 34q0 6 1.5 9.5t3 5.5t5.5 5.5t7 6.5q31 -31 31 -117q0 -77 -38.5 -149.5
t-87.5 -72.5q-33 0 -53 35t-20 97zM165 486q-5 5 -32.5 2t-60 3.5t-32.5 24.5q0 12 20 18t43 6q179 0 179 -24q0 -30 -90 -30h-27z" />
    <glyph glyph-name="Ohungarumlaut" unicode="&#x150;" horiz-adv-x="564" 
d="M547 457q-4 -93 -53.5 -196t-142.5 -196q-83 -83 -169 -83q-79 0 -120.5 50.5t-41.5 109.5q0 23 11 66.5t13 55.5q1 7 5.5 54t13.5 70q30 99 77 171q23 37 114 123q25 24 64.5 40t71.5 16q75 0 116 -71t41 -210zM466 520q-2 7 -6 32.5t-8.5 43t-12.5 38.5t-21 32.5
t-30 11.5q-90 0 -211 -195l-6 -9q-3 -4 -3 -11q0 -17 23.5 -36t23.5 -32q0 -4 -3 -13.5t-3 -14.5q0 -28 46 -28q1 0 5 0.5t6 0.5q7 0 7 -6q0 -13 -15.5 -22t-34 -13t-35.5 -12.5t-20 -21.5q-2 -9 -10 -43t-11.5 -57.5t-3.5 -43.5q0 -29 11.5 -47t33.5 -18q27 2 42 13
q115 79 167 192.5t69 258.5zM514 826q-5 1 -14.5 2.5t-15 2.5t-11.5 3.5t-9 7t-3 11.5q0 12 17 27q86 89 125 126q8 8 22 8q19 0 19 -26q0 -22 -39 -67q-71 -76 -91 -95zM357 829q-7 2 -19.5 4t-18 3.5t-10.5 6.5t-5 13q0 12 17 27q123 125 125 127q9 7 21 7q19 0 19 -25
t-39 -67q-66 -72 -90 -96z" />
    <glyph glyph-name="ohungarumlaut" unicode="&#x151;" horiz-adv-x="250" 
d="M20 142q3 29 13.5 70t34 79.5t51.5 38.5q11 0 20.5 -7t9.5 -19q0 -11 -5 -16q-29 -35 -46 -87t-17 -99q0 -6 3 -13.5t8 -17.5l7 -14q4 3 13.5 8t15 9t7.5 9q46 103 46 173q0 10 -5 32t-5 34q0 6 1.5 9.5t3 5.5t5.5 5.5t7 6.5q31 -31 31 -117q0 -77 -38.5 -149.5
t-87.5 -72.5q-33 0 -53 35t-20 97zM240 462q-5 1 -14.5 2.5t-15 2.5t-11.5 3.5t-9 7t-3 11.5q0 12 17 27q86 89 125 126q8 8 22 8q19 0 19 -26q0 -22 -39 -67q-71 -76 -91 -95zM83 465q-7 2 -19.5 4t-18 3.5t-10.5 6.5t-5 13q0 12 17 27q123 125 125 127q9 7 21 7
q19 0 19 -25t-39 -67q-66 -72 -90 -96z" />
    <glyph glyph-name="OE" unicode="&#x152;" horiz-adv-x="796" 
d="M474 12q120 44 164 64q13 6 273 130q10 5 29.5 6t25.5 2q-23 -34 -32 -40q-2 -2 -37 -26t-40.5 -28t-37 -25t-42 -27t-37.5 -23t-43 -24t-40 -19.5t-45.5 -20.5t-44.5 -15q-66 -22 -112 -22q-56 0 -94.5 24.5t-49.5 61.5q-68 -48 -129 -48q-79 0 -120.5 50.5t-41.5 109.5
q0 23 11 66.5t13 55.5q1 7 5.5 54t13.5 70q30 99 77 171q23 37 114 123q25 24 64.5 40t71.5 16q102 0 138 -127q14 56 53.5 98.5t89.5 42.5q37 0 62 -31t25 -66q0 -11 -3 -19t-5.5 -11.5t-9.5 -10t-10 -9.5q-13 24 -13 38q0 2 0.5 6.5t0.5 6.5q0 20 -15 32.5t-29 12.5
q-43 0 -69 -46t-26 -92q0 -21 7 -34.5t20.5 -19.5t26 -8.5t32.5 -5t30 -4.5q5 -1 16 -5.5t16 -5.5q-2 -4 -4.5 -12t-5 -13.5t-6.5 -8.5q-3 -2 -56 -30q-86 -44 -162 -159l-6 -8q-20 -41 -52 -86q-41 -71 -41 -102q0 -42 69 -42q2 0 4 0.5t3 0.5zM466 520q-2 7 -6 32.5
t-8.5 43t-12.5 38.5t-21 32.5t-30 11.5q-90 0 -211 -195l-6 -9q-3 -4 -3 -11q0 -17 23.5 -36t23.5 -32q0 -4 -3 -13.5t-3 -14.5q0 -28 46 -28q1 0 5 0.5t6 0.5q7 0 7 -6q0 -13 -15.5 -22t-34 -13t-35.5 -12.5t-20 -21.5q-2 -9 -10 -43t-11.5 -57.5t-3.5 -43.5
q0 -29 11.5 -47t33.5 -18q27 2 42 13q115 79 167 192.5t69 258.5zM547 457l-3 -35q24 22 24 34t-12 24q-4 3 -10 11q0 -5 0.5 -16.5t0.5 -17.5z" />
    <glyph glyph-name="oe" unicode="&#x153;" horiz-adv-x="372" 
d="M0 142q3 29 13.5 70t34 79.5t51.5 38.5q11 0 20.5 -7t9.5 -19q0 -11 -5 -16q-29 -35 -46 -87t-17 -99q0 -6 3 -13.5t8 -17.5l7 -14q4 3 13.5 8t15 9t7.5 9q46 103 46 173q0 10 -5 32t-5 34q0 6 1.5 9.5t3 5.5t5.5 5.5t7 6.5q19 -20 25 -52q42 78 98 78q26 0 43.5 -15.5
t17.5 -41.5q0 -10 -3.5 -22t-10.5 -25.5t-12.5 -23t-15 -25t-12.5 -20.5q-9 -14 -29 -31t-33 -34t-13 -39v-4q0 -13 1 -20.5t8 -15t21 -7.5q10 0 29 5.5t29 5.5q17 0 17 -15q0 -29 -34 -51t-66 -22q-72 0 -82 85q-34 -49 -73 -49q-33 0 -53 35t-20 97zM314 296q-2 3 -6 9.5
t-7 10t-6 3.5q-6 0 -12 -5.5t-11 -16.5t-8 -19.5t-7.5 -22l-5.5 -16.5q0 -1 -0.5 -1t-0.5 -1q0 -3 4 -8t8 -5q7 0 15.5 11.5t20.5 33.5t16 27z" />
    <glyph glyph-name="Racute" unicode="&#x154;" horiz-adv-x="497" 
d="M479 -115q2 9 6.5 35.5t8 43t10.5 35t16 25.5q11 -13 11 -16q16 -112 16 -169q0 -21 -4 -59q-3 -21 -22 -42t-35 -21q-14 0 -30.5 8.5t-23.5 18.5q-85 120 -120 192q-24 48 -62.5 141t-48.5 115q-1 4 -4 7t-8 7t-8 7q-1 -2 -8.5 -11t-8.5 -14q-6 -41 -19 -142
q-6 -53 -38 -59q-4 0 -15.5 19.5t-13.5 35.5q-3 28 -3 59q0 13 2.5 41t2.5 42q0 15 -4.5 23t-20 22t-25.5 26q4 0 13.5 3.5t14.5 3.5h11q25 0 29 24q13 76 41 228v10q11 65 53 65q39 0 39 -46q0 -13 -3 -31q-6 -36 -19.5 -102.5t-16.5 -81.5q-1 -2 -1 -5q0 -7 5 -25
q30 8 31 9q74 60 129.5 135t55.5 143q0 54 -25 83t-72 29q-90 0 -166 -50q-6 -4 -20 -4.5t-16 -0.5q2 4 4.5 12.5t5 14t6.5 7.5q82 61 175 61q30 0 60 -6q40 -7 68.5 -52t28.5 -97q0 -86 -94 -203q-11 -14 -41 -43.5t-49 -52t-19 -36.5q0 -15 19 -47q8 -14 16 -31
t17.5 -39.5t14.5 -33.5q80 -180 120 -249q2 -4 6.5 -7.5t12.5 -7.5l10 -5q13 29 13 43l-3 15h-5zM292 845q-4 3 -17 10.5t-18 13.5t-5 15q0 14 28 25q198 80 228 91q2 1 8 1q24 0 24 -19q0 -15 -5 -18q-20 -19 -53.5 -38t-55 -28.5t-72 -28.5t-62.5 -24z" />
    <glyph glyph-name="racute" unicode="&#x155;" horiz-adv-x="263" 
d="M313 400q-2 -7 -5 -22t-5 -22.5t-5.5 -17.5t-7.5 -14t-9 -4q-8 0 -18.5 15t-16.5 15q-11 0 -44.5 -53.5t-56.5 -99.5q-14 -29 -34 -85t-28 -74q-4 -10 -8.5 -17.5t-10.5 -13t-9.5 -8t-12.5 -7t-12 -6.5q-2 4 -8 13t-9 15.5t-3 12.5q1 20 20 163q1 7 3 37.5t5 52t9.5 47.5
t19.5 40t31 14q31 0 45 -77q24 22 34 34q7 8 22 30t25 34.5t26 24t31 11.5q9 0 14 -5t9.5 -16.5t8.5 -16.5zM155 532q-4 3 -17 10.5t-18 13.5t-5 15q0 14 28 25q197 80 228 91q2 1 8 1q24 0 24 -19q0 -15 -5 -18q-20 -19 -53.5 -38t-55 -28.5t-72 -28.5t-62.5 -24z" />
    <glyph glyph-name="Rcommaaccent" unicode="&#x156;" horiz-adv-x="497" 
d="M479 -115q2 9 6.5 35.5t8 43t10.5 35t16 25.5q11 -13 11 -16q16 -112 16 -169q0 -21 -4 -59q-3 -21 -22 -42t-35 -21q-14 0 -30.5 8.5t-23.5 18.5q-85 120 -120 192q-24 48 -62.5 141t-48.5 115q-1 4 -4 7t-8 7t-8 7q-1 -2 -8.5 -11t-8.5 -14q-6 -41 -19 -142
q-6 -53 -38 -59q-4 0 -15.5 19.5t-13.5 35.5q-3 28 -3 59q0 13 2.5 41t2.5 42q0 15 -4.5 23t-20 22t-25.5 26q4 0 13.5 3.5t14.5 3.5h11q25 0 29 24q13 76 41 228v10q11 65 53 65q39 0 39 -46q0 -13 -3 -31q-6 -36 -19.5 -102.5t-16.5 -81.5q-1 -2 -1 -5q0 -7 5 -25
q30 8 31 9q74 60 129.5 135t55.5 143q0 54 -25 83t-72 29q-90 0 -166 -50q-6 -4 -20 -4.5t-16 -0.5q2 4 4.5 12.5t5 14t6.5 7.5q82 61 175 61q30 0 60 -6q40 -7 68.5 -52t28.5 -97q0 -86 -94 -203q-11 -14 -41 -43.5t-49 -52t-19 -36.5q0 -15 19 -47q8 -14 16 -31
t17.5 -39.5t14.5 -33.5q80 -180 120 -249q2 -4 6.5 -7.5t12.5 -7.5l10 -5q13 29 13 43l-3 15h-5zM158 -238q6 14 23.5 59.5t27.5 68.5q3 4 9.5 6.5t18.5 5t15 3.5q0 -5 3.5 -17t3.5 -18q0 -5 -1 -7q-10 -29 -14.5 -41t-16 -37.5t-23 -36.5t-23.5 -11q-3 1 -6 5t-8 10t-9 10z
" />
    <glyph glyph-name="rcommaaccent" unicode="&#x157;" horiz-adv-x="265" 
d="M315 400q-2 -7 -5 -22t-5 -22.5t-5.5 -17.5t-7.5 -14t-9 -4q-8 0 -18.5 15t-16.5 15q-11 0 -44.5 -53.5t-56.5 -99.5q-14 -29 -34 -85t-28 -74q-4 -10 -8.5 -17.5t-10.5 -13t-9.5 -8t-12.5 -7t-12 -6.5q-2 4 -8 13t-9 15.5t-3 12.5q1 20 20 163q1 7 3 37.5t5 52t9.5 47.5
t19.5 40t31 14q31 0 45 -77q24 22 34 34q7 8 22 30t25 34.5t26 24t31 11.5q9 0 14 -5t9.5 -16.5t8.5 -16.5zM-50 -228q6 14 23.5 59.5t27.5 68.5q3 4 9.5 6.5t18.5 5t15 3.5q0 -5 3.5 -17t3.5 -18q0 -5 -1 -7q-10 -29 -14.5 -41t-16 -37.5t-23 -36.5t-23.5 -11q-3 1 -6 5
t-8 10t-9 10z" />
    <glyph glyph-name="Rcaron" unicode="&#x158;" horiz-adv-x="497" 
d="M479 -115q2 9 6.5 35.5t8 43t10.5 35t16 25.5q11 -13 11 -16q16 -112 16 -169q0 -21 -4 -59q-3 -21 -22 -42t-35 -21q-14 0 -30.5 8.5t-23.5 18.5q-85 120 -120 192q-24 48 -62.5 141t-48.5 115q-1 4 -4 7t-8 7t-8 7q-1 -2 -8.5 -11t-8.5 -14q-6 -41 -19 -142
q-6 -53 -38 -59q-4 0 -15.5 19.5t-13.5 35.5q-3 28 -3 59q0 13 2.5 41t2.5 42q0 15 -4.5 23t-20 22t-25.5 26q4 0 13.5 3.5t14.5 3.5h11q25 0 29 24q13 76 41 228v10q11 65 53 65q39 0 39 -46q0 -13 -3 -31q-6 -36 -19.5 -102.5t-16.5 -81.5q-1 -2 -1 -5q0 -7 5 -25
q30 8 31 9q74 60 129.5 135t55.5 143q0 54 -25 83t-72 29q-90 0 -166 -50q-6 -4 -20 -4.5t-16 -0.5q2 4 4.5 12.5t5 14t6.5 7.5q82 61 175 61q30 0 60 -6q40 -7 68.5 -52t28.5 -97q0 -86 -94 -203q-11 -14 -41 -43.5t-49 -52t-19 -36.5q0 -15 19 -47q8 -14 16 -31
t17.5 -39.5t14.5 -33.5q80 -180 120 -249q2 -4 6.5 -7.5t12.5 -7.5l10 -5q13 29 13 43l-3 15h-5zM260 890q9 84 14 116q1 4 5.5 9t11 10.5t9.5 8.5q19 -15 28 -31t9 -25.5t2.5 -15.5t10.5 -6t43 27q2 1 4.5 4.5t5 5.5t4.5 2q1 0 34 -3q-1 -4 -2 -11.5t-2.5 -12.5t-4.5 -9
q-14 -16 -90 -94q-8 -8 -14.5 -21t-11.5 -20t-15 -7q-8 0 -14 2t-10 4t-7 8l-4.5 9t-2.5 11.5t-1.5 11.5t-1 13.5t-0.5 13.5z" />
    <glyph glyph-name="rcaron" unicode="&#x159;" horiz-adv-x="265" 
d="M313 400q-2 -7 -5 -22t-5 -22.5t-5.5 -17.5t-7.5 -14t-9 -4q-8 0 -18.5 15t-16.5 15q-11 0 -44.5 -53.5t-56.5 -99.5q-14 -29 -34 -85t-28 -74q-4 -10 -8.5 -17.5t-10.5 -13t-9.5 -8t-12.5 -7t-12 -6.5q-2 4 -8 13t-9 15.5t-3 12.5q1 20 20 163q1 7 3 37.5t5 52t9.5 47.5
t19.5 40t31 14q31 0 45 -77q24 22 34 34q7 8 22 30t25 34.5t26 24t31 11.5q9 0 14 -5t9.5 -16.5t8.5 -16.5zM144 577q9 84 14 116q1 4 5.5 9t11 10.5t9.5 8.5q19 -15 28 -31t9 -25.5t2.5 -15.5t10.5 -6t43 27q2 1 4.5 4.5t5 5.5t4.5 2q1 0 34 -3q-1 -4 -2 -11.5t-2.5 -12.5
t-4.5 -9q-14 -16 -90 -94q-8 -8 -14.5 -21t-11.5 -20t-15 -7q-8 0 -14 2t-10 4t-7 8l-4.5 9t-2.5 11.5t-1.5 11.5t-1 13.5t-0.5 13.5z" />
    <glyph glyph-name="Sacute" unicode="&#x15a;" horiz-adv-x="481" 
d="M378 477q42 -5 62.5 -32.5t20.5 -70.5q1 -120 -138 -261q-79 -79 -118 -105q-55 -38 -100 -38q-52 0 -52 76q0 34 8 62.5t16 28.5t14.5 -18t6.5 -35q0 -4 -1 -11.5t-1 -10.5q2 0 8 -0.5t9 -0.5q12 0 56 22q148 91 220 214q11 16 23 40.5t12 33.5q0 6 -25.5 12.5
t-43.5 6.5q-37 0 -129 -21q-10 -2 -37 -11t-51.5 -14.5t-44.5 -5.5q-31 0 -47 14.5t-16 37.5q0 25 14 54t30 48q146 165 278 245q17 10 31 10q32 0 32 -49q0 -14 -3 -29q-4 -19 -20.5 -51t-23.5 -32q-8 0 -13 18t-5 39q-13 -8 -27 -19t-23.5 -19t-26 -22t-23.5 -20
q-112 -98 -141 -130q29 3 113 24t131 21q17 0 25 -1zM233 854q-4 3 -17 10.5t-18 13.5t-5 15q0 14 28 25q197 80 228 91q2 1 8 1q24 0 24 -19q0 -15 -5 -18q-20 -19 -53.5 -38t-55 -28.5t-72 -28.5t-62.5 -24z" />
    <glyph glyph-name="sacute" unicode="&#x15b;" horiz-adv-x="277" 
d="M112 221q-71 2 -85 20q-6 7 -6 16t5 16q45 76 99 149q8 11 30 11q13 0 20 -8t7 -30q0 -25 -8.5 -50.5t-20.5 -25.5q-5 0 -16.5 13t-16.5 13q-13 0 -28 -68q43 -9 55 -9h10q42 0 67 -21.5t25 -56.5q0 -93 -146 -213q-71 -58 -126 -58q-21 0 -34 12t-13 30q0 33 35 71.5
t75 63.5q2 2 9 2h11q0 -15 -4 -21q-2 -4 -12 -17.5t-16.5 -25t-6.5 -17.5q0 -8 2.5 -10t10.5 -2q9 0 33.5 19t35.5 32q25 29 37 43.5t28 42t16 45.5t-15.5 27.5t-40.5 9.5q-2 0 -8 -1.5t-8 -1.5zM119 535q-4 3 -17 10.5t-18 13.5t-5 15q0 14 28 25q197 80 228 91q2 1 8 1
q24 0 24 -19q0 -15 -5 -18q-20 -19 -53.5 -38t-55 -28.5t-72 -28.5t-62.5 -24z" />
    <glyph glyph-name="Scedilla" unicode="&#x15e;" horiz-adv-x="482" 
d="M378 477q42 -5 62.5 -32.5t20.5 -70.5q1 -120 -138 -261q-79 -79 -118 -106q-15 -15 -15 -27q0 -8 26 -28t26 -34q0 -24 -62 -92l-54 -59q-24 -35 -42 -35q-19 0 -25 47q4 4 30 27t49 44.5t29 27.5q5 7 5 16t-18 9q-2 0 -7 -0.5t-8 -0.5q-43 0 -43 35q0 21 8 33
q-51 1 -51 76q0 34 8 62.5t16 28.5t14.5 -18t6.5 -35q0 -4 -1 -11.5t-1 -10.5q2 0 8 -0.5t9 -0.5q12 0 56 22q148 91 220 214q11 16 23 40.5t12 33.5q0 6 -25.5 12.5t-43.5 6.5q-37 0 -129 -21q-10 -2 -37 -11t-51.5 -14.5t-44.5 -5.5q-31 0 -47 14.5t-16 37.5q0 25 14 54
t30 48q146 165 278 245q17 10 31 10q32 0 32 -49q0 -14 -3 -29q-4 -19 -20.5 -51t-23.5 -32q-8 0 -13 18t-5 39q-13 -8 -27 -19t-23.5 -19t-26 -22t-23.5 -20q-112 -98 -141 -130q29 3 113 24t131 21q17 0 25 -1z" />
    <glyph glyph-name="scedilla" unicode="&#x15f;" horiz-adv-x="269" 
d="M112 221q-71 2 -85 20q-6 7 -6 16t5 16q45 76 99 149q8 11 30 11q13 0 20 -8t7 -30q0 -25 -8.5 -50.5t-20.5 -25.5q-5 0 -16.5 13t-16.5 13q-13 0 -28 -68q43 -9 55 -9h10q42 0 67 -21.5t25 -56.5q0 -93 -146 -213l-24 -19q-10 -12 -10 -21t26 -28t26 -34q0 -24 -62 -92
l-54 -59q-24 -35 -42 -35q-19 0 -25 47q4 4 30 27t49 44.5t29 27.5q5 7 5 16t-18 9q-3 0 -8 -0.5t-7 -0.5q-43 0 -43 35q0 13 5 25h-3q-21 0 -34 12t-13 30q0 33 35 71.5t75 63.5q2 2 9 2h11q0 -15 -4 -21q-2 -4 -12 -17.5t-16.5 -25t-6.5 -17.5q0 -8 2.5 -10t10.5 -2
q9 0 33.5 19t35.5 32q25 29 37 43.5t28 42t16 45.5t-15.5 27.5t-40.5 9.5q-2 0 -8 -1.5t-8 -1.5z" />
    <glyph glyph-name="Scaron" unicode="&#x160;" horiz-adv-x="482" 
d="M378 477q42 -5 62.5 -32.5t20.5 -70.5q1 -120 -138 -261q-79 -79 -118 -105q-55 -38 -100 -38q-52 0 -52 76q0 34 8 62.5t16 28.5t14.5 -18t6.5 -35q0 -4 -1 -11.5t-1 -10.5q2 0 8 -0.5t9 -0.5q12 0 56 22q148 91 220 214q11 16 23 40.5t12 33.5q0 6 -25.5 12.5
t-43.5 6.5q-37 0 -129 -21q-10 -2 -37 -11t-51.5 -14.5t-44.5 -5.5q-31 0 -47 14.5t-16 37.5q0 25 14 54t30 48q146 165 278 245q17 10 31 10q32 0 32 -49q0 -14 -3 -29q-4 -19 -20.5 -51t-23.5 -32q-8 0 -13 18t-5 39q-13 -8 -27 -19t-23.5 -19t-26 -22t-23.5 -20
q-112 -98 -141 -130q29 3 113 24t131 21q17 0 25 -1zM229 870q9 84 14 116q1 4 5.5 9t11 10.5t9.5 8.5q19 -15 28 -31t9 -25.5t2.5 -15.5t10.5 -6t43 27q2 1 4.5 4.5t5 5.5t4.5 2q1 0 34 -3q-1 -4 -2 -11.5t-2.5 -12.5t-4.5 -9q-14 -16 -90 -94q-8 -8 -14.5 -21t-11.5 -20
t-15 -7q-8 0 -14 2t-10 4t-7 8l-4.5 9t-2.5 11.5t-1.5 11.5t-1 13.5t-0.5 13.5z" />
    <glyph glyph-name="scaron" unicode="&#x161;" horiz-adv-x="268" 
d="M112 221q-71 2 -85 20q-6 7 -6 16t5 16q45 76 99 149q8 11 30 11q13 0 20 -8t7 -30q0 -25 -8.5 -50.5t-20.5 -25.5q-5 0 -16.5 13t-16.5 13q-13 0 -28 -68q43 -9 55 -9h10q42 0 67 -21.5t25 -56.5q0 -93 -146 -213q-71 -58 -126 -58q-21 0 -34 12t-13 30q0 33 35 71.5
t75 63.5q2 2 9 2h11q0 -15 -4 -21q-2 -4 -12 -17.5t-16.5 -25t-6.5 -17.5q0 -8 2.5 -10t10.5 -2q9 0 33.5 19t35.5 32q25 29 37 43.5t28 42t16 45.5t-15.5 27.5t-40.5 9.5q-2 0 -8 -1.5t-8 -1.5zM97 577q9 84 14 116q1 4 5.5 9t11 10.5t9.5 8.5q19 -15 28 -31t9 -25.5
t2.5 -15.5t10.5 -6t43 27q2 1 4.5 4.5t5 5.5t4.5 2q1 0 34 -3q-1 -4 -2 -11.5t-2.5 -12.5t-4.5 -9q-14 -16 -90 -94q-8 -8 -14.5 -21t-11.5 -20t-15 -7q-8 0 -14 2t-10 4t-7 8l-4.5 9t-2.5 11.5t-1.5 11.5t-1 13.5t-0.5 13.5z" />
    <glyph glyph-name="Tcommaaccent" unicode="&#x162;" horiz-adv-x="645" 
d="M85 583q-30 0 -42.5 10t-12.5 35q0 41 22.5 69t54.5 28q19 0 24 -29.5t20 -29.5q7 0 16 3q211 46 409 50q69 0 157 -5q5 0 10.5 -3t12 -9t9.5 -8q-1 -1 -13 -12t-19 -12q-188 -23 -269 -30q-23 -2 -32.5 -12t-13.5 -33q-13 -80 -31 -175t-31.5 -163.5t-36 -178
t-33.5 -165.5q-14 -68 -40 -68q-16 0 -26.5 11t-10.5 27q0 41 9 113l46 235q7 36 30 153.5t36 182.5q3 12 3 22q0 33 -34 33q-11 0 -25 -3q-33 -7 -96.5 -18.5t-92.5 -17.5zM160 -383q6 14 23.5 59.5t27.5 68.5q3 4 9.5 6.5t18.5 5t15 3.5q0 -5 3.5 -17t3.5 -18q0 -5 -1 -7
q-10 -29 -14.5 -41t-16 -37.5t-23 -36.5t-23.5 -11q-3 1 -6 5t-8 10t-9 10z" />
    <glyph glyph-name="tcommaaccent" unicode="&#x163;" horiz-adv-x="247" 
d="M64 74q8 39 22.5 171.5t21.5 172.5q0 2 3.5 16t3.5 22q0 27 -27 27q-6 0 -21 -3t-23 -3t-15.5 6t-8.5 15q0 6 3 10t10 7t11 4.5t15 4t13 2.5q39 7 54.5 24.5t15.5 54.5q0 4 -0.5 14.5t-0.5 15.5q0 35 15 61.5t47 26.5q22 0 22 -33q0 -10 -2.5 -38t-2.5 -38q0 -24 18 -24
q10 0 41.5 15t48.5 15q1 0 19 -3q-2 -2 -6 -9.5t-7 -9.5q-10 -7 -39 -25t-45 -29t-33 -28.5t-20 -33.5q-8 -34 -21.5 -155.5t-20.5 -155.5q-2 -10 -2 -13q0 -13 14 -13q5 0 8 1q3 0 10.5 -7t7.5 -10q-4 -11 -11.5 -41.5t-17.5 -50t-28 -32.5q-18 -16 -33 -16q-16 0 -25 21
t-9 37q0 5 0.5 13.5t0.5 12.5q-1 0 -3 0.5t-3 0.5zM43 -248q6 14 23.5 59.5t27.5 68.5q3 4 9.5 6.5t18.5 5t15 3.5q0 -5 3.5 -17t3.5 -18q0 -5 -1 -7q-10 -29 -14.5 -41t-16 -37.5t-23 -36.5t-23.5 -11q-3 1 -6 5t-8 10t-9 10z" />
    <glyph glyph-name="Tcaron" unicode="&#x164;" horiz-adv-x="645" 
d="M85 583q-30 0 -42.5 10t-12.5 35q0 41 22.5 69t54.5 28q19 0 24 -29.5t20 -29.5q7 0 16 3q211 46 409 50q69 0 157 -5q5 0 10.5 -3t12 -9t9.5 -8q-1 -1 -13 -12t-19 -12q-188 -23 -269 -30q-23 -2 -32.5 -12t-13.5 -33q-13 -80 -31 -175t-31.5 -163.5t-36 -178
t-33.5 -165.5q-14 -68 -40 -68q-16 0 -26.5 11t-10.5 27q0 41 9 113l46 235q7 36 30 153.5t36 182.5q3 12 3 22q0 33 -34 33q-11 0 -25 -3q-33 -7 -96.5 -18.5t-92.5 -17.5zM334 875q9 84 14 116q1 4 5.5 9t11 10.5t9.5 8.5q19 -15 28 -31t9 -25.5t2.5 -15.5t10.5 -6t43 27
q2 1 4.5 4.5t5 5.5t4.5 2q1 0 34 -3q-1 -4 -2 -11.5t-2.5 -12.5t-4.5 -9q-14 -16 -90 -94q-8 -8 -14.5 -21t-11.5 -20t-15 -7q-8 0 -14 2t-10 4t-7 8l-4.5 9t-2.5 11.5t-1.5 11.5t-1 13.5t-0.5 13.5z" />
    <glyph glyph-name="tcaron" unicode="&#x165;" horiz-adv-x="368" 
d="M64 74q8 39 22.5 171.5t21.5 172.5q0 2 3.5 16t3.5 22q0 27 -27 27q-6 0 -21 -3t-23 -3t-15.5 6t-8.5 15q0 6 3 10t10 7t11 4.5t15 4t13 2.5q39 7 54.5 24.5t15.5 54.5q0 4 -0.5 14.5t-0.5 15.5q0 35 15 61.5t47 26.5q22 0 22 -33q0 -10 -2.5 -38t-2.5 -38q0 -24 18 -24
q10 0 41.5 15t48.5 15q1 0 19 -3q-2 -2 -6 -9.5t-7 -9.5q-10 -7 -39 -25t-45 -29t-33 -28.5t-20 -33.5q-8 -34 -21.5 -155.5t-20.5 -155.5q-2 -10 -2 -13q0 -13 14 -13q5 0 8 1q3 0 10.5 -7t7.5 -10q-4 -11 -11.5 -41.5t-17.5 -50t-28 -32.5q-18 -16 -33 -16q-16 0 -25 21
t-9 37q0 5 0.5 13.5t0.5 12.5q-1 0 -3 0.5t-3 0.5zM317 557q6 14 23.5 59.5t27.5 68.5q3 4 9.5 6.5t18.5 5t15 3.5q0 -5 3.5 -17t3.5 -18q0 -5 -1 -7q-10 -29 -14.5 -41t-16 -37.5t-23 -36.5t-23.5 -11q-3 1 -6 5t-8 10t-9 10z" />
    <glyph glyph-name="Umacron" unicode="&#x16a;" horiz-adv-x="547" 
d="M30 192q2 25 6 92t6 96.5t7.5 86t11.5 93t16 83t23 87.5q1 1 1 4.5t2 5.5l40 45q0 -2 1.5 -17t1.5 -23q0 -3 -0.5 -8t-0.5 -7q-5 -29 -19 -117.5t-20.5 -132.5t-13 -114t-6.5 -128q0 -182 50 -182q18 -1 30 17q77 115 116 202q29 66 79 192t59 147q15 38 62 38
q35 0 35 -42q0 -11 -1 -17q-6 -54 -22.5 -153.5t-21.5 -140.5q-15 -112 -15 -130q0 -17 16.5 -47t16.5 -45q0 -22 -23.5 -58.5t-52.5 -36.5q-26 0 -44 31.5t-18 64.5q0 27 8.5 84t8.5 87q0 5 -5 15.5t-6 13.5q-17 -19 -21 -26q-17 -27 -60 -101.5t-68 -113.5
q-24 -38 -69 -38q-25 0 -44 11t-29 25t-18 39.5t-10 41t-5 43t-4 33.5zM327 863q-5 5 -32.5 2t-60 3.5t-32.5 24.5q0 12 20 18t43 6q179 0 179 -24q0 -30 -90 -30h-27z" />
    <glyph glyph-name="umacron" unicode="&#x16b;" horiz-adv-x="312" 
d="M20 111q18 122 36 221q5 28 27 28q24 0 24 -17q0 -3 -1.5 -11t-1.5 -11q-19 -116 -28 -188q0 -6 5.5 -19.5t6.5 -16.5q3 3 9 7t10.5 8t6.5 8q26 45 117 207q13 26 27 26q16 0 26.5 -11t10.5 -25q0 -3 -2 -13q-34 -142 -49 -213q-2 -7 -2 -20t5.5 -32.5t5.5 -24.5
q0 -12 -15 -23t-28 -11q-14 0 -23.5 16t-19.5 51.5t-10 36.5q-21 -9 -47.5 -34t-42.5 -25q-29 0 -39 36q-2 7 -3.5 24t-4.5 26zM195 523q-5 5 -32.5 2t-60 3.5t-32.5 24.5q0 12 20 18t43 6q179 0 179 -24q0 -30 -90 -30h-27z" />
    <glyph glyph-name="Uring" unicode="&#x16e;" horiz-adv-x="547" 
d="M30 192q2 25 6 92t6 96.5t7.5 86t11.5 93t16 83t23 87.5q1 1 1 4.5t2 5.5l40 45q0 -2 1.5 -17t1.5 -23q0 -3 -0.5 -8t-0.5 -7q-5 -29 -19 -117.5t-20.5 -132.5t-13 -114t-6.5 -128q0 -182 50 -182q18 -1 30 17q77 115 116 202q29 66 79 192t59 147q15 38 62 38
q35 0 35 -42q0 -11 -1 -17q-6 -54 -22.5 -153.5t-21.5 -140.5q-15 -112 -15 -130q0 -17 16.5 -47t16.5 -45q0 -22 -23.5 -58.5t-52.5 -36.5q-26 0 -44 31.5t-18 64.5q0 27 8.5 84t8.5 87q0 5 -5 15.5t-6 13.5q-17 -19 -21 -26q-17 -27 -60 -101.5t-68 -113.5
q-24 -38 -69 -38q-25 0 -44 11t-29 25t-18 39.5t-10 41t-5 43t-4 33.5zM336 1001q38 0 64.5 -27t26.5 -61q0 -39 -44 -88t-81 -49q-30 0 -49 20t-19 47q0 73 61 124zM369 920q0 1 -1.5 4l-2 4t-2 3.5t-2.5 3.5t-3 2.5t-4 2t-5 0.5q-16 0 -22 -8q-35 -57 -35 -74t19 -17
q21 0 38.5 26t19.5 53z" />
    <glyph glyph-name="uring" unicode="&#x16f;" horiz-adv-x="317" 
d="M20 111q18 122 36 221q5 28 27 28q24 0 24 -17q0 -3 -1.5 -11t-1.5 -11q-19 -116 -28 -188q0 -6 5.5 -19.5t6.5 -16.5q3 3 9 7t10.5 8t6.5 8q26 45 117 207q13 26 27 26q16 0 26.5 -11t10.5 -25q0 -3 -2 -13q-34 -142 -49 -213q-2 -7 -2 -20t5.5 -32.5t5.5 -24.5
q0 -12 -15 -23t-28 -11q-14 0 -23.5 16t-19.5 51.5t-10 36.5q-21 -9 -47.5 -34t-42.5 -25q-29 0 -39 36q-2 7 -3.5 24t-4.5 26zM216 656q38 0 64.5 -27t26.5 -61q0 -39 -44 -88t-81 -49q-30 0 -49 20t-19 47q0 73 61 124zM249 575q0 1 -1.5 4l-2 4t-2 3.5t-2.5 3.5t-3 2.5
t-4 2t-5 0.5q-16 0 -22 -8q-35 -57 -35 -74t19 -17q21 0 38.5 26t19.5 53z" />
    <glyph glyph-name="Uhungarumlaut" unicode="&#x170;" horiz-adv-x="544" 
d="M30 192q2 25 6 92t6 96.5t7.5 86t11.5 93t16 83t23 87.5q1 1 1 4.5t2 5.5l40 45q0 -2 1.5 -17t1.5 -23q0 -3 -0.5 -8t-0.5 -7q-5 -29 -19 -117.5t-20.5 -132.5t-13 -114t-6.5 -128q0 -182 50 -182q18 -1 30 17q77 115 116 202q29 66 79 192t59 147q15 38 62 38
q35 0 35 -42q0 -11 -1 -17q-6 -54 -22.5 -153.5t-21.5 -140.5q-15 -112 -15 -130q0 -17 16.5 -47t16.5 -45q0 -22 -23.5 -58.5t-52.5 -36.5q-26 0 -44 31.5t-18 64.5q0 27 8.5 84t8.5 87q0 5 -5 15.5t-6 13.5q-17 -19 -21 -26q-17 -27 -60 -101.5t-68 -113.5
q-24 -38 -69 -38q-25 0 -44 11t-29 25t-18 39.5t-10 41t-5 43t-4 33.5zM424 801q-5 1 -14.5 2.5t-15 2.5t-11.5 3.5t-9 7t-3 11.5q0 12 17 27q86 89 125 126q8 8 22 8q19 0 19 -26q0 -21 -39 -67q-71 -76 -91 -95zM267 804q-7 2 -19.5 4t-18 3.5t-10.5 6.5t-5 13q0 12 17 27
q123 125 125 127q9 7 21 7q19 0 19 -25t-39 -67q-66 -72 -90 -96z" />
    <glyph glyph-name="uhungarumlaut" unicode="&#x171;" horiz-adv-x="314" 
d="M20 111q18 122 36 221q5 28 27 28q24 0 24 -17q0 -3 -1.5 -11t-1.5 -11q-19 -116 -28 -188q0 -6 5.5 -19.5t6.5 -16.5q3 3 9 7t10.5 8t6.5 8q26 45 117 207q13 26 27 26q16 0 26.5 -11t10.5 -25q0 -3 -2 -13q-34 -142 -49 -213q-2 -7 -2 -20t5.5 -32.5t5.5 -24.5
q0 -12 -15 -23t-28 -11q-14 0 -23.5 16t-19.5 51.5t-10 36.5q-21 -9 -47.5 -34t-42.5 -25q-29 0 -39 36q-2 7 -3.5 24t-4.5 26zM284 455q-5 1 -14.5 2.5t-15 2.5t-11.5 3.5t-9 7t-3 11.5q0 12 17 27q86 89 125 126q8 8 22 8q19 0 19 -26q0 -21 -39 -67q-71 -76 -91 -95z
M127 458q-7 2 -19.5 4t-18 3.5t-10.5 6.5t-5 13q0 12 17 27q123 125 125 127q9 7 21 7q19 0 19 -25t-39 -67q-66 -72 -90 -96z" />
    <glyph glyph-name="Uogonek" unicode="&#x172;" horiz-adv-x="546" 
d="M30 192q2 25 6 92t6 96.5t7.5 86t11.5 93t16 83t23 87.5q1 1 1 4.5t2 5.5l40 45q0 -2 1.5 -17t1.5 -23q0 -3 -0.5 -8t-0.5 -7q-5 -29 -19 -117.5t-20.5 -132.5t-13 -114t-6.5 -128q0 -182 50 -182q18 -1 30 17q77 115 116 202q29 66 79 192t59 147q15 38 62 38
q35 0 35 -42q0 -11 -1 -17q-6 -54 -22.5 -153.5t-21.5 -140.5q-15 -112 -15 -130q0 -17 16.5 -47t16.5 -45q0 -13 -10.5 -35.5t-25.5 -38.5q-1 -28 -10.5 -53.5t-27.5 -56t-24 -45.5q30 0 120 26h2q12 0 12 -34q0 -30 -14 -34q-7 -2 -28 -8.5t-31.5 -9t-27.5 -5.5t-31 -3
q-42 0 -42 48q0 33 30.5 89t34.5 65h-3q-26 0 -44 31.5t-18 64.5q0 27 8.5 84t8.5 87q0 5 -5 15.5t-6 13.5q-17 -19 -21 -26q-17 -27 -60 -101.5t-68 -113.5q-24 -38 -69 -38q-25 0 -44 11t-29 25t-18 39.5t-10 41t-5 43t-4 33.5z" />
    <glyph glyph-name="uogonek" unicode="&#x173;" horiz-adv-x="306" 
d="M20 111q18 122 36 221q5 28 27 28q24 0 24 -17q0 -3 -1.5 -11t-1.5 -11q-19 -116 -28 -188q0 -6 5.5 -19.5t6.5 -16.5q3 3 9 7t10.5 8t6.5 8q26 45 117 207q13 26 27 26q16 0 26.5 -11t10.5 -25q0 -3 -2 -13q-34 -142 -49 -213q-2 -7 -2 -20t5.5 -32.5t5.5 -24.5
q0 -9 -10 -19q-3 -24 -13.5 -47.5t-25.5 -50t-22 -41.5q30 0 120 26h2q12 0 12 -34q0 -30 -14 -34q-7 -2 -28 -8.5t-31.5 -9t-27.5 -5.5t-31 -3q-42 0 -42 48q0 23 10 47t27 53.5t24 44.5q-12 4 -20 21t-16.5 48t-9.5 34q-21 -9 -47.5 -34t-42.5 -25q-29 0 -39 36
q-2 7 -3.5 24t-4.5 26z" />
    <glyph glyph-name="Ydieresis" unicode="&#x178;" horiz-adv-x="446" 
d="M491 714q5 -3 5 -17q0 -12 -4 -26q-116 -347 -246 -678q-6 -14 -21.5 -28t-27.5 -14q-10 0 -17.5 5t-12.5 16t-8.5 20t-5.5 27.5t-2.5 27.5t-1.5 30t-1 25t3 9t8 11t7 10l22 -23q3 -4 10 -11.5t9 -9.5q10 18 20 41.5t15 37.5t15.5 46t13.5 40q-39 33 -101 171
q-42 90 -64 171q0 1 -3 12t-6 19.5t-7 19t-8.5 16.5t-8.5 6q-3 0 -10 -6.5t-10 -6.5q-10 0 -16.5 21t-6.5 47q0 34 14 50t28 16q13 0 25.5 -13t23 -36.5t17 -41.5t13.5 -42.5t8 -26.5q20 -59 69.5 -166t76.5 -107l71 239q0 25 22.5 69.5t43.5 51.5q9 4 24 4q14 0 25 -6z
M384 957h4q20 0 32.5 -12.5t12.5 -31.5q0 -15 -16.5 -34.5t-31.5 -19.5q-16 0 -32.5 18.5t-16.5 37.5q0 17 14 29.5t34 12.5zM215 970h4q15 0 25 -7.5t10 -19.5q0 -13 -19.5 -36.5t-37.5 -23.5q-13 0 -25.5 15t-12.5 29q0 19 16 31t40 12z" />
    <glyph glyph-name="Zacute" unicode="&#x179;" horiz-adv-x="393" 
d="M191 142q8 1 28 1q90 0 134 -30q5 -5 12 -18t11 -18q-5 0 -16.5 -2.5t-16.5 -2.5q-6 0 -9 1q-31 12 -84 12q-81 -1 -135.5 -16t-96.5 -52q-21 -19 -36 -19q-13 0 -22.5 10t-9.5 23t6 22q26 34 52 69t53.5 76t47.5 70t51.5 78t45.5 71t49.5 78.5t46.5 73.5q3 5 3 8
q0 8 -11 15t-30.5 12t-36 8t-39.5 6.5t-29 4.5q-21 4 -70 31q-3 1 -4.5 5.5t-2.5 11t-2 9.5h14q19 0 43.5 -12t50.5 -12q49 0 108.5 8.5t75.5 21.5l4.5 4.5l4 4t4 3t4.5 2.5t5.5 1.5t8.5 0.5q32 0 37 -10q2 -4 2 -9q0 -14 -5 -22q-40 -73 -92.5 -154.5t-118 -179
t-100.5 -153.5q-7 -9 -7 -19q0 -12 26 -16q1 0 46 3zM245 805q-4 3 -17 10.5t-18 13.5t-5 15q0 14 28 25q197 80 228 91q2 1 8 1q24 0 24 -19q0 -15 -5 -18q-20 -19 -53.5 -38t-55 -28.5t-72 -28.5t-62.5 -24z" />
    <glyph glyph-name="zacute" unicode="&#x17a;" horiz-adv-x="229" 
d="M156 89q0 38 -28 38q-16 0 -52 -23t-47 -23q-13 0 -23.5 12t-10.5 23q0 13 39.5 73.5t39.5 77.5q0 7 -5 11.5t-16 13t-20 21.5q3 1 8 4.5t9 6t8 2.5h10q35 -1 67 23q5 4 13 5.5t21.5 1.5h16.5v-22q0 -21 -27.5 -66t-27.5 -63q0 -10 20.5 -18t40.5 -22.5t20 -41.5
q0 -1 -0.5 -4.5t-0.5 -5.5q-9 -89 -56.5 -176.5t-117.5 -158.5q-18 -19 -50.5 -42.5t-48.5 -23.5q-4 0 -14 2.5t-14 2.5q2 3 6 8t7.5 9t6.5 6q149 118 226 349zM81 485q-4 3 -17 10.5t-18 13.5t-5 15q0 14 28 25q197 80 228 91q2 1 8 1q24 0 24 -19q0 -15 -5 -18
q-20 -19 -53.5 -38t-55 -28.5t-72 -28.5t-62.5 -24z" />
    <glyph glyph-name="Zdotaccent" unicode="&#x17b;" horiz-adv-x="392" 
d="M191 142q8 1 28 1q90 0 134 -30q5 -5 12 -18t11 -18q-5 0 -16.5 -2.5t-16.5 -2.5q-6 0 -9 1q-31 12 -84 12q-81 -1 -135.5 -16t-96.5 -52q-21 -19 -36 -19q-13 0 -22.5 10t-9.5 23t6 22q26 34 52 69t53.5 76t47.5 70t51.5 78t45.5 71t49.5 78.5t46.5 73.5q3 5 3 8
q0 8 -11 15t-30.5 12t-36 8t-39.5 6.5t-29 4.5q-21 4 -70 31q-3 1 -4.5 5.5t-2.5 11t-2 9.5h14q19 0 43.5 -12t50.5 -12q49 0 108.5 8.5t75.5 21.5l4.5 4.5l4 4t4 3t4.5 2.5t5.5 1.5t8.5 0.5q32 0 37 -10q2 -4 2 -9q0 -14 -5 -22q-40 -73 -92.5 -154.5t-118 -179
t-100.5 -153.5q-7 -9 -7 -19q0 -12 26 -16q1 0 46 3zM266 890h4q20 0 32.5 -12.5t12.5 -31.5q0 -15 -16.5 -34.5t-31.5 -19.5q-16 0 -32.5 18.5t-16.5 37.5q0 17 14 29.5t34 12.5z" />
    <glyph glyph-name="zdotaccent" unicode="&#x17c;" horiz-adv-x="232" 
d="M156 89q0 38 -28 38q-16 0 -52 -23t-47 -23q-13 0 -23.5 12t-10.5 23q0 13 39.5 73.5t39.5 77.5q0 7 -5 11.5t-16 13t-20 21.5q3 1 8 4.5t9 6t8 2.5h10q35 -1 67 23q5 4 13 5.5t21.5 1.5h16.5v-22q0 -21 -27.5 -66t-27.5 -63q0 -10 20.5 -18t40.5 -22.5t20 -41.5
q0 -1 -0.5 -4.5t-0.5 -5.5q-9 -89 -56.5 -176.5t-117.5 -158.5q-18 -19 -50.5 -42.5t-48.5 -23.5q-4 0 -14 2.5t-14 2.5q2 3 6 8t7.5 9t6.5 6q149 118 226 349zM126 573h4q20 0 32.5 -12.5t12.5 -31.5q0 -15 -16.5 -34.5t-31.5 -19.5q-16 0 -32.5 18.5t-16.5 37.5
q0 17 14 29.5t34 12.5z" />
    <glyph glyph-name="Zcaron" unicode="&#x17d;" horiz-adv-x="392" 
d="M191 142q8 1 28 1q90 0 134 -30q5 -5 12 -18t11 -18q-5 0 -16.5 -2.5t-16.5 -2.5q-6 0 -9 1q-31 12 -84 12q-81 -1 -135.5 -16t-96.5 -52q-21 -19 -36 -19q-13 0 -22.5 10t-9.5 23t6 22q26 34 52 69t53.5 76t47.5 70t51.5 78t45.5 71t49.5 78.5t46.5 73.5q3 5 3 8
q0 8 -11 15t-30.5 12t-36 8t-39.5 6.5t-29 4.5q-21 4 -70 31q-3 1 -4.5 5.5t-2.5 11t-2 9.5h14q19 0 43.5 -12t50.5 -12q49 0 108.5 8.5t75.5 21.5l4.5 4.5l4 4t4 3t4.5 2.5t5.5 1.5t8.5 0.5q32 0 37 -10q2 -4 2 -9q0 -14 -5 -22q-40 -73 -92.5 -154.5t-118 -179
t-100.5 -153.5q-7 -9 -7 -19q0 -12 26 -16q1 0 46 3zM216 869q9 84 14 116q1 4 5.5 9t11 10.5t9.5 8.5q19 -15 28 -31t9 -25.5t2.5 -15.5t10.5 -6t43 27q2 1 4.5 4.5t5 5.5t4.5 2q1 0 34 -3q-1 -4 -2 -11.5t-2.5 -12.5t-4.5 -9q-14 -16 -90 -94q-8 -8 -14.5 -21t-11.5 -20
t-15 -7q-8 0 -14 2t-10 4t-7 8l-4.5 9t-2.5 11.5t-1.5 11.5t-1 13.5t-0.5 13.5z" />
    <glyph glyph-name="zcaron" unicode="&#x17e;" horiz-adv-x="238" 
d="M156 89q0 38 -28 38q-16 0 -52 -23t-47 -23q-13 0 -23.5 12t-10.5 23q0 13 39.5 73.5t39.5 77.5q0 7 -5 11.5t-16 13t-20 21.5q3 1 8 4.5t9 6t8 2.5h10q35 -1 67 23q5 4 13 5.5t21.5 1.5h16.5v-22q0 -21 -27.5 -66t-27.5 -63q0 -10 20.5 -18t40.5 -22.5t20 -41.5
q0 -1 -0.5 -4.5t-0.5 -5.5q-9 -89 -56.5 -176.5t-117.5 -158.5q-18 -19 -50.5 -42.5t-48.5 -23.5q-4 0 -14 2.5t-14 2.5q2 3 6 8t7.5 9t6.5 6q149 118 226 349zM97 517q9 84 14 116q1 4 5.5 9t11 10.5t9.5 8.5q19 -15 28 -31t9 -25.5t2.5 -15.5t10.5 -6t43 27q2 1 4.5 4.5
t5 5.5t4.5 2q1 0 34 -3q-1 -4 -2 -11.5t-2.5 -12.5t-4.5 -9q-14 -16 -90 -94q-8 -8 -14.5 -21t-11.5 -20t-15 -7q-8 0 -14 2t-10 4t-7 8l-4.5 9t-2.5 11.5t-1.5 11.5t-1 13.5t-0.5 13.5z" />
    <glyph glyph-name="florin" unicode="&#x192;" horiz-adv-x="271" 
d="M-72 -259q1 -3 7.5 -15t9.5 -18t8.5 -14.5t10 -12.5t8.5 -4q6 0 11.5 7.5t9.5 23.5t6 26t5.5 30.5t3.5 21.5l59 390q8 39 34 180q4 13 4 24q0 12 -11 17t-29 11.5t-30 18.5q1 0 11.5 7.5t14.5 7.5q3 0 12 -1.5t13 -1.5q26 0 34 33q1 5 7 32t8.5 37.5t9.5 36.5t13 38.5
t15 33.5t18.5 31.5t22 23t27.5 17.5t32 5q22 0 37 -23t15 -55q0 -52 -38 -60q-10 0 -20 18.5t-15 18.5q-11 0 -29.5 -58t-18.5 -89q0 -15 18 -15q10 0 20 5q112 84 119 90q-12 -42 -17 -50q-47 -65 -122 -92q-28 -10 -36 -42l-15 -90q-1 -23 -6 -45l-9 -43
q-8 -41 -24.5 -156t-66.5 -332q-11 -47 -33 -88t-49 -41q-18 0 -32 16t-20 44l-11 98q1 0 4 1.5t4 1.5z" />
    <glyph glyph-name="Scommaaccent" unicode="&#x218;" horiz-adv-x="482" 
d="M378 477q42 -5 62.5 -32.5t20.5 -70.5q1 -120 -138 -261q-79 -79 -118 -105q-55 -38 -100 -38q-52 0 -52 76q0 34 8 62.5t16 28.5t14.5 -18t6.5 -35q0 -4 -1 -11.5t-1 -10.5q2 0 8 -0.5t9 -0.5q12 0 56 22q148 91 220 214q11 16 23 40.5t12 33.5q0 6 -25.5 12.5
t-43.5 6.5q-37 0 -129 -21q-10 -2 -37 -11t-51.5 -14.5t-44.5 -5.5q-31 0 -47 14.5t-16 37.5q0 25 14 54t30 48q146 165 278 245q17 10 31 10q32 0 32 -49q0 -14 -3 -29q-4 -19 -20.5 -51t-23.5 -32q-8 0 -13 18t-5 39q-13 -8 -27 -19t-23.5 -19t-26 -22t-23.5 -20
q-112 -98 -141 -130q29 3 113 24t131 21q17 0 25 -1zM158 -238q6 14 23.5 59.5t27.5 68.5q3 4 9.5 6.5t18.5 5t15 3.5q0 -5 3.5 -17t3.5 -18q0 -5 -1 -7q-10 -29 -14.5 -41t-16 -37.5t-23 -36.5t-23.5 -11q-3 1 -6 5t-8 10t-9 10z" />
    <glyph glyph-name="scommaaccent" unicode="&#x219;" horiz-adv-x="269" 
d="M112 221q-71 2 -85 20q-6 7 -6 16t5 16q45 76 99 149q8 11 30 11q13 0 20 -8t7 -30q0 -25 -8.5 -50.5t-20.5 -25.5q-5 0 -16.5 13t-16.5 13q-13 0 -28 -68q43 -9 55 -9h10q42 0 67 -21.5t25 -56.5q0 -93 -146 -213q-71 -58 -126 -58q-21 0 -34 12t-13 30q0 33 35 71.5
t75 63.5q2 2 9 2h11q0 -15 -4 -21q-2 -4 -12 -17.5t-16.5 -25t-6.5 -17.5q0 -8 2.5 -10t10.5 -2q9 0 33.5 19t35.5 32q25 29 37 43.5t28 42t16 45.5t-15.5 27.5t-40.5 9.5q-2 0 -8 -1.5t-8 -1.5zM-46 -305q6 14 23.5 59.5t27.5 68.5q3 4 9.5 6.5t18.5 5t15 3.5q0 -5 3.5 -17
t3.5 -18q0 -5 -1 -7q-10 -29 -14.5 -41t-16 -37.5t-23 -36.5t-23.5 -11q-3 1 -6 5t-8 10t-9 10z" />
    <glyph glyph-name="afii57929" unicode="&#x2bc;" horiz-adv-x="121" 
d="M70 559q6 14 23.5 59.5t27.5 68.5q3 4 9.5 6.5t18.5 5t15 3.5q0 -5 3.5 -17t3.5 -18q0 -5 -1 -7q-10 -29 -14.5 -41t-16 -37.5t-23 -36.5t-23.5 -11q-3 1 -6 5t-8 10t-9 10z" />
    <glyph glyph-name="circumflex" unicode="&#x2c6;" horiz-adv-x="201" 
d="M251 622q-9 -84 -14 -116q-1 -4 -5.5 -9t-11 -10.5t-9.5 -8.5q-19 15 -28 31t-9 25.5t-2.5 15.5t-10.5 6t-43 -27q-2 -1 -4.5 -4.5t-5 -5.5t-4.5 -2q-1 0 -34 3q1 4 2 11.5t2.5 12.5t4.5 9q15 17 90 94q8 8 14 20.5t11.5 19.5t15.5 7q8 0 14 -2t10 -4t7 -7.5t4.5 -9
t2.5 -11.5t1.5 -11.5t1 -13.5t0.5 -13z" />
    <glyph glyph-name="caron" unicode="&#x2c7;" horiz-adv-x="201" 
d="M70 551q9 84 14 116q1 4 5.5 9t11 10.5t9.5 8.5q19 -15 28 -31t9 -25.5t2.5 -15.5t10.5 -6t43 27q2 1 4.5 4.5t5 5.5t4.5 2q1 0 34 -3q-1 -4 -2 -11.5t-2.5 -12.5t-4.5 -9q-14 -16 -90 -94q-8 -8 -14.5 -21t-11.5 -20t-15 -7q-8 0 -14 2t-10 4t-7 8l-4.5 9t-2.5 11.5
t-1.5 11.5t-1 13.5t-0.5 13.5z" />
    <glyph glyph-name="breve" unicode="&#x2d8;" horiz-adv-x="229" 
d="M88 594q-13 6 -18 14q0 24 34 37q14 5 60.5 23.5t72.5 27.5q1 0 5 2t5 2q5 0 10.5 -1t11.5 -2.5l10 -2.5q-2 -3 -4.5 -10.5t-5 -12t-5.5 -6.5q-69 -31 -160 -69q-1 0 -16 -2z" />
    <glyph glyph-name="dotaccent" unicode="&#x2d9;" horiz-adv-x="117" 
d="M118 693h4q20 0 32.5 -12.5t12.5 -31.5q0 -15 -16.5 -34.5t-31.5 -19.5q-16 0 -32.5 18.5t-16.5 37.5q0 17 14 29.5t34 12.5z" />
    <glyph glyph-name="ring" unicode="&#x2da;" horiz-adv-x="213" 
d="M172 696q39 0 65 -27t26 -61q0 -39 -44 -88t-81 -49q-30 0 -49 20t-19 47q0 73 61 124zM205 615q0 1 -1.5 4l-2 4t-2 3.5t-2.5 3.5t-3 2.5t-4 2t-5 0.5q-16 0 -22 -8q-35 -57 -35 -74t19 -17q21 0 38.5 26t19.5 53z" />
    <glyph glyph-name="ogonek" unicode="&#x2db;" horiz-adv-x="174" 
d="M72 -30l2 6l2 -10q14 22 21 22q5 0 5 -14q0 -29 -9.5 -55t-28 -59t-24.5 -46q30 0 120 26h2q12 0 12 -34q0 -30 -14 -34q-7 -2 -28 -8.5t-31.5 -9t-27.5 -5.5t-31 -3q-42 0 -42 48q0 34 33 92t39 84z" />
    <glyph glyph-name="tilde" unicode="&#x2dc;" horiz-adv-x="322" 
d="M262 555q-11 0 -20 1t-16 4.5t-12 5.5t-10.5 9.5t-8 10.5t-7 14t-5.5 14.5t-6 18.5t-6 19q-32 -14 -40 -19q-3 -2 -17 -20t-25 -18q-19 0 -19 22q0 31 33 59.5t69 28.5q23 0 38 -14.5t21 -32t15.5 -32t22.5 -14.5q9 0 38 14t45 14q20 0 20 -12q0 -10 -6 -16
q-37 -53 -104 -57z" />
    <glyph glyph-name="hungarumlaut" unicode="&#x2dd;" horiz-adv-x="360" 
d="M280 513q-5 1 -14.5 2.5t-15 2.5t-11.5 3.5t-9 7t-3 11.5q0 12 17 27q86 89 125 126q8 8 22 8q19 0 19 -26q0 -21 -39 -67q-71 -76 -91 -95zM123 516q-7 2 -19.5 4t-18 3.5t-10.5 6.5t-5 13q0 12 17 27q123 125 125 127q9 7 21 7q19 0 19 -25t-39 -67q-66 -72 -90 -96z
" />
    <glyph glyph-name="afii10023" unicode="&#x401;" horiz-adv-x="574" 
d="M382 648q1 5 1 15q0 24 -11.5 38.5t-30.5 14.5q-47 0 -72 -43t-25 -88q0 -32 13.5 -48t32 -18.5t49.5 -9t54 -18.5q-19 -30 -23 -33q-15 -10 -47.5 -26.5t-47.5 -26.5q-12 -7 -23 -16.5t-19.5 -17.5t-19.5 -21.5t-17 -20.5t-17.5 -23t-15 -22t-15.5 -24.5t-15 -22.5
q-78 -118 -78 -160q0 -39 85 -39q14 0 28 3q36 10 77.5 27t66 28.5t76.5 38.5t67 34q35 20 155 65h2q4 0 11 -1.5t11 -1.5q-9 -20 -15 -23q-161 -112 -260 -169q-131 -77 -236 -77q-59 0 -106 30t-47 81q0 29 17 60q70 125 130 208q11 15 41 44t52 53t22 34t-10 21
q-35 36 -35 92q0 65 43.5 124t99.5 59q41 0 66.5 -27.5t25.5 -66.5q0 -10 -3 -18.5t-4.5 -11t-10 -12t-9.5 -11.5q-13 25 -13 27zM462 919q16 0 33.5 -14.5t17.5 -28.5t-19 -32.5t-35 -18.5q-19 0 -32 15t-13 37q0 19 13.5 30.5t34.5 11.5zM234 889q0 19 16 32t39 13
q43 0 43 -37q0 -15 -18 -35t-30 -20q-19 0 -34.5 15t-15.5 32z" />
    <glyph glyph-name="afii10051" unicode="&#x402;" horiz-adv-x="585" 
d="M3 677q-29 0 -41 10t-12 35q0 41 21 69t56 28q23 0 23 -26v-10q0 -22 19 -22q8 0 17 3q216 45 410 49q53 0 155 -4q5 0 10.5 -3t12.5 -9.5t11 -8.5q-4 -2 -16 -12.5t-18 -11.5q-131 -16 -269 -30q-23 -2 -32.5 -12t-13.5 -33q-8 -45 -18 -136.5t-18 -136.5v-4
q-4 -27 -21 -85t-20 -88q2 -4 8 -4q17 14 53 55t68 66.5t63 25.5q41 0 65.5 -39.5t24.5 -108.5q0 -98 -37 -194.5t-105 -160.5q-18 -17 -48 -31t-51 -14q-30 0 -65 35t-35 85q0 24 10.5 46.5t25.5 22.5q4 0 7.5 -6.5t3.5 -11.5q0 -9 -1.5 -25.5t-1.5 -24.5q0 -35 16.5 -55
t44.5 -20q29 0 54 15t44.5 44.5t30 48.5t24.5 51q44 102 44 201q0 45 -15 75t-41 30q-9 0 -22 -8t-30 -24t-29.5 -29t-31.5 -34t-26 -28q-7 -8 -26 -29.5t-31 -34.5t-27 -24.5t-25 -11.5q-18 0 -33 9.5t-15 23.5q0 9 6 31l55 202l33 239q2 35 7 61q-3 29 -32 29q-7 0 -27 -4
q-36 -8 -103.5 -20.5t-85.5 -15.5z" />
    <glyph glyph-name="afii10052" unicode="&#x403;" horiz-adv-x="450" 
d="M538 702q6 2 11 2q3 0 11.5 -1t12.5 -1q-3 -4 -8.5 -17t-10.5 -16q-89 -33 -137 -33q-26 0 -77 5.5t-76 5.5q-15 0 -25 -9.5t-13 -19.5l-2 -9l-13 -75q-8 -42 -22.5 -121t-16.5 -90l-52 -272q-2 1 -5 1q-1 -3 -8.5 -22.5t-14 -27t-17.5 -7.5q-45 0 -45 33q0 14 4 27
q33 142 55 258q8 36 19.5 106t23.5 125t30 103q-2 6 -9.5 16.5t-9.5 15.5l-13 27q26 13 33 13q2 0 7 -2t7 -2q125 -33 218 -33q74 0 143 20zM362 796q-4 3 -17 10.5t-18 13.5t-5 15q0 14 28 25q197 80 228 91q2 1 8 1q24 0 24 -19q0 -15 -5 -18q-20 -19 -53.5 -38t-55 -28.5
t-72 -28.5t-62.5 -24z" />
    <glyph glyph-name="afii10053" unicode="&#x404;" horiz-adv-x="498" 
d="M254 293h-152v-3l-1 -2q-30 -79 -30 -117q0 -48 36.5 -70t85.5 -22q137 0 288 109q4 3 8 3q9 0 9 -16t-7.5 -35.5t-20.5 -28.5q-7 -5 -50 -37t-61 -43.5t-54 -32t-66 -28.5t-60 -8q-84 0 -121.5 58t-37.5 141q0 81 28 165q69 212 170 339q23 26 34.5 38t37.5 29t49 17
q47 0 86 -52t39 -99q0 -23 -8.5 -45.5t-18.5 -22.5q-11 0 -18 24v-1q-2 0 -10.5 22.5t-25.5 44.5t-38 22q-15 0 -29 -7t-29 -22.5t-22 -24t-21 -27.5q-69 -91 -115 -202h45t53.5 -0.5t52 -1.5t52 -3t40 -5t30.5 -8.5t10 -12.5q0 -41 -121 -41h-37v6z" />
    <glyph glyph-name="afii10054" unicode="&#x405;" horiz-adv-x="482" 
d="M378 477q42 -5 62.5 -32.5t20.5 -70.5q1 -120 -138 -261q-79 -79 -118 -105q-55 -38 -100 -38q-52 0 -52 76q0 34 8 62.5t16 28.5t14.5 -18t6.5 -35q0 -4 -1 -11.5t-1 -10.5q2 0 8 -0.5t9 -0.5q12 0 56 22q148 91 220 214q11 16 23 40.5t12 33.5q0 6 -25.5 12.5
t-43.5 6.5q-37 0 -129 -21q-10 -2 -37 -11t-51.5 -14.5t-44.5 -5.5q-31 0 -47 14.5t-16 37.5q0 25 14 54t30 48q146 165 278 245q17 10 31 10q32 0 32 -49q0 -14 -3 -29q-4 -19 -20.5 -51t-23.5 -32q-8 0 -13 18t-5 39q-13 -8 -27 -19t-23.5 -19t-26 -22t-23.5 -20
q-112 -98 -141 -130q29 3 113 24t131 21q17 0 25 -1z" />
    <glyph glyph-name="afii10055" unicode="&#x406;" horiz-adv-x="311" 
d="M84 141q20 157 72 436q0 1 0.5 3.5t0.5 3.5q0 12 -14.5 24.5t-31.5 21t-31.5 20.5t-14.5 25q0 14 19 14q21 0 53.5 -12t46.5 -12q26 0 75 24.5t76 24.5q16 0 16 -11q0 -14 -6 -18q-11 -10 -35.5 -27.5t-40 -33t-19.5 -32.5q-29 -132 -81 -483q-1 -4 -1 -11q0 -26 30 -26
q2 0 5.5 1t5.5 1q4 0 9.5 -3.5t11.5 -8t9 -5.5q-15 -20 -19 -21q-15 -4 -47 -10.5t-47 -11.5q-9 -3 -29 -11t-36.5 -13t-29.5 -5q-6 0 -17 2t-14 2q2 4 4.5 13t5.5 15t8 8q21 16 52 41.5t31 28.5h-1q-2 0 -8 18.5t-6 27.5h-2z" />
    <glyph glyph-name="afii10056" unicode="&#x407;" horiz-adv-x="303" 
d="M84 141q20 157 72 436q0 1 0.5 3.5t0.5 3.5q0 12 -14.5 24.5t-31.5 21t-31.5 20.5t-14.5 25q0 14 19 14q21 0 53.5 -12t46.5 -12q26 0 75 24.5t76 24.5q16 0 16 -11q0 -14 -6 -18q-11 -10 -35.5 -27.5t-40 -33t-19.5 -32.5q-29 -132 -81 -483q-1 -4 -1 -11q0 -26 30 -26
q2 0 5.5 1t5.5 1q4 0 9.5 -3.5t11.5 -8t9 -5.5q-15 -20 -19 -21q-15 -4 -47 -10.5t-47 -11.5q-9 -3 -29 -11t-36.5 -13t-29.5 -5q-6 0 -17 2t-14 2q2 4 4.5 13t5.5 15t8 8q21 16 52 41.5t31 28.5h-1q-2 0 -8 18.5t-6 27.5h-2zM304 913h4q20 0 32.5 -12.5t12.5 -31.5
q0 -15 -16.5 -34.5t-31.5 -19.5q-16 0 -32.5 18.5t-16.5 37.5q0 17 14 29.5t34 12.5zM135 926h4q15 0 25 -7.5t10 -19.5q0 -13 -19.5 -36.5t-37.5 -23.5q-13 0 -25.5 15t-12.5 29q0 19 16 31t40 12z" />
    <glyph glyph-name="afii10057" unicode="&#x408;" horiz-adv-x="347" 
d="M14 245q0 1 -0.5 4t-0.5 5q0 6 12 25q2 -2 8.5 -7t8.5 -8q5 -13 13.5 -37.5t14 -39t14.5 -34t20 -36.5q1 2 9 14.5t9 19.5q6 32 32 193.5t46 246.5q2 10 2 14q0 14 -12.5 24t-27.5 15.5t-27.5 16.5t-12.5 26t22 15q14 0 47 -13t52 -13q22 0 66.5 20t68.5 20
q5 0 15.5 -3.5l13.5 -4.5q-10 -29 -14 -31q-18 -12 -50.5 -25t-47.5 -27t-19 -45q-48 -292 -88 -508q-8 -36 -28.5 -68.5t-43.5 -32.5q-14 0 -26.5 10.5t-22 31t-17 41t-14.5 51.5t-10.5 50t-9 49.5t-6.5 38.5q1 0 2 1t2 1z" />
    <glyph glyph-name="afii10058" unicode="&#x409;" horiz-adv-x="762" 
d="M478 305q17 14 53 55t68 66.5t63 25.5q41 0 65.5 -39.5t24.5 -108.5q0 -98 -37 -194.5t-105 -160.5q-18 -18 -48 -31.5t-51 -13.5q-35 0 -63 34q-7 -7 -18 -8q-17 0 -25.5 1t-17 9t-9.5 24q-17 218 -51 501q-1 12 -2 36t-3 36q-1 6 -4 17t-4 13q-22 -16 -24 -19
q-10 -19 -87 -179q-103 -209 -260 -342q-11 -7 -15 -8q-1 0 -8 5q1 1 15 24.5t22 34.5q149 185 218 331q75 165 130 279q8 21 25.5 38t30.5 17q34 0 45 -117q5 -63 13 -187t12 -184l18 18t20 19.5t9 7.5zM438 190q0 -3 8 -97h1q3 0 7 -6.5t4 -11.5q0 -9 -1.5 -25.5
t-1.5 -24.5q0 -35 16.5 -55t44.5 -20q29 0 54 15t44.5 44.5t30 48.5t24.5 51q44 102 44 201q0 45 -15 75t-41 30q-20 -2 -32 -14q-135 -133 -184 -194l-5 -4z" />
    <glyph glyph-name="afii10059" unicode="&#x40a;" horiz-adv-x="698" 
d="M347 307q1 8 1 20q0 22 -20 22q-18 0 -60 -9t-59 -10q-47 -4 -57 -51q-42 -208 -62 -254q-11 -23 -20 -23q-18 5 -18 23q0 5 5 28q22 140 34 211q2 16 2 20q0 13 -8 17t-30 6q-3 0 -11.5 -1t-12.5 -1q-21 0 -21 23q0 7 2.5 11t8.5 6.5t9.5 3t13 1.5t10.5 1
q38 4 48.5 13.5t17.5 47.5q2 15 6.5 53t9 68t11.5 62.5t19 51t28 18.5q8 0 16.5 -10.5t8.5 -19.5q-2 -38 -22 -118t-20 -118q0 -21 22 -21q52 0 107 10.5t62 35.5q39 196 50 262q0 2 1 8t1.5 7.5t1.5 6.5t2.5 7t4 5.5t6 5t8 3.5t10.5 2.5t13 0.5q33 0 33 -38q0 -2 -0.5 -6
t-0.5 -7q-4 -35 -10.5 -73t-15.5 -84.5t-13 -71.5q0 -2 -1.5 -5t-1.5 -4q4 -20 4 -26q15 13 48 50t59 56t52 19q35 0 57 -33.5t22 -92.5q0 -87 -32 -171.5t-92 -140.5q-12 -11 -40 -21t-49.5 -15t-25.5 -5q-28 0 -58.5 30.5t-30.5 74.5q0 22 9.5 41.5t24.5 19.5q7 0 7 -17
q0 -6 -0.5 -19t-0.5 -20q0 -33 14.5 -51.5t39.5 -18.5q21 2 38 11q82 46 121 125.5t39 171.5q0 99 -47 99q-9 0 -21 -7.5t-26.5 -21.5t-26.5 -26.5t-27.5 -29t-21.5 -23.5l-50 -51q-2 -6 -8.5 -30t-15 -36.5t-21.5 -12.5q-23 0 -50 35z" />
    <glyph glyph-name="afii10060" unicode="&#x40b;" horiz-adv-x="605" 
d="M3 677q-29 0 -41 10t-12 35q0 41 21 69t56 28q23 0 23 -26v-10q0 -22 19 -22q8 0 17 3q216 45 410 49q53 0 155 -4q5 0 10.5 -3t12.5 -9.5t11 -8.5q-4 -2 -16 -12.5t-18 -11.5q-131 -16 -269 -30q-23 -2 -32.5 -12t-13.5 -33q-8 -45 -18 -136.5t-18 -136.5v-4
q-4 -27 -21 -85t-20 -88q2 -4 8 -4q17 14 53 55t68 66.5t63 25.5q41 0 65.5 -39.5t24.5 -108.5q0 -21 -4 -61l-1 1q-13 -105 -27 -164q-3 -13 -24.5 -37.5t-32.5 -24.5q-36 0 -36 38q0 6 1 9q6 32 37 140.5t38 169.5l-6 14q-17 26 -40 26q-9 0 -22.5 -8.5t-29.5 -24
t-29.5 -29.5t-31.5 -33.5t-26 -27.5q-7 -8 -26 -29.5t-31 -34.5t-27 -24.5t-25 -11.5q-18 0 -33 9.5t-15 23.5q0 9 6 31l55 202l33 239q2 35 7 61q-3 29 -32 29q-7 0 -27 -4q-36 -8 -103.5 -20.5t-85.5 -15.5z" />
    <glyph glyph-name="afii10061" unicode="&#x40c;" horiz-adv-x="461" 
d="M507 -165v-16q0 -28 -13.5 -45.5t-34.5 -17.5q-19 0 -34 14q-23 19 -44 45t-36.5 46.5t-34 58.5t-27.5 55t-26.5 65t-21.5 58t-22.5 65t-19.5 58q-5 14 -14.5 27.5t-15.5 13.5q-9 0 -14 -5.5t-6 -11t-1.5 -16t-1.5 -14.5q-2 -12 -7 -47t-9.5 -57t-12.5 -49t-20.5 -40.5
t-28.5 -13.5q-17 0 -24.5 7t-7.5 29q0 56 33 163q37 210 73 385q2 29 6 43q0 6 21.5 31.5t32.5 25.5q26 0 26 -36q0 -9 -1 -13q-7 -29 -36 -177q0 -1 -1 -5t-1 -6q0 -3 6 -36q24 12 28 20q23 30 168 228q6 6 11 9.5t12 5t9.5 2t11.5 0t11 -0.5q-1 -4 -1 -11.5t-1 -12.5
t-4 -9q-101 -146 -193 -269q-20 -28 -20 -50q0 -18 10 -38q16 -33 40 -97t33 -86q22 -54 100 -226q2 -4 7 -8t13.5 -8t12.5 -7q18 33 19 67t12 52q1 -1 7.5 -9.5t7.5 -13.5q7 -25 28 -122h-4zM298 792q-4 3 -17 10.5t-18 13.5t-5 15q0 14 28 25q197 80 228 91q2 1 8 1
q24 0 24 -19q0 -15 -5 -18q-20 -19 -53.5 -38t-55 -28.5t-72 -28.5t-62.5 -24z" />
    <glyph glyph-name="afii10062" unicode="&#x40e;" horiz-adv-x="466" 
d="M492 683q4 -3 4 -18q0 -17 -4 -25q-134 -403 -246 -678q-6 -14 -21.5 -28.5t-27.5 -14.5q-47 0 -47 154q0 4 2.5 8t7 10.5t6.5 9.5q3 -4 7 -7.5t8.5 -8l6.5 -6.5l19 -23q15 20 16 23l50 143q-14 11 -27.5 29t-25.5 41t-20 39.5t-17.5 38t-10.5 23.5q-39 83 -65 171
q0 1 -3.5 11.5l-6.5 19.5t-7 19.5t-8.5 16.5t-9.5 6q-2 0 -8.5 -6.5t-9.5 -6.5q-10 0 -17 22t-7 48q0 32 14 48t28 16q13 0 25.5 -13.5t23 -36t17.5 -42t14 -43t8 -26.5q10 -29 33 -85t58 -121.5t54 -65.5l73 239q0 25 22 69.5t42 51.5q9 4 24 4t26 -6zM199 838
q-13 6 -18 14q0 24 34 37q14 5 60.5 23.5t72.5 27.5q1 0 5 2t5 2q5 0 10.5 -1t11.5 -2.5l10 -2.5q-2 -3 -4.5 -10.5t-5 -12t-5.5 -6.5q-69 -31 -160 -69q-1 0 -16 -2z" />
    <glyph glyph-name="afii10145" unicode="&#x40f;" horiz-adv-x="606" 
d="M117 -27q-27 -17 -51 -17q-36 0 -36 50v6q3 8 19 52t28 65q30 52 45 150q12 81 32 207q1 8 5 45t9 55q14 68 33 68q4 0 8 -4t9 -14.5t9 -25t6.5 -37.5t2.5 -51q0 -29 -5 -66q-35 -213 -64 -347l-12 -43q24 9 67 9q25 0 74.5 -5.5t74.5 -5.5q15 0 25.5 10t13.5 20l3 9
l13 74q25 147 38 211l52 272l4 -2q1 2 5 14t6 16.5t6.5 12.5t10 11.5t12.5 3.5q46 0 46 -35q0 -11 -3 -24q-30 -125 -57 -259q-6 -29 -18.5 -104.5t-24 -128t-29.5 -101.5q2 -6 9 -16.5t9 -14.5l14 -28q-29 -13 -34 -13q-2 0 -6.5 2t-6.5 2q-82 20 -145 28
q-25 -136 -34 -163q-2 -6 -11 -11.5t-16 -5.5q-32 4 -32 56q9 49 18 78t14 50h-14q-54 0 -101 -10q-18 -45 -21 -45z" />
    <glyph glyph-name="afii10017" unicode="&#x410;" horiz-adv-x="448" 
d="M418 663q-24 -128 -38 -211q-2 -12 -3 -38t-2.5 -45.5t-4.5 -24.5q-17 -29 -24 -64.5t-10 -80t-8 -67.5q0 -6 15 -23t15 -25q0 -33 -25.5 -77t-52.5 -44q-18 0 -27 31t-9 65q0 44 14 128.5t15 96.5v1q0 6 -8 15t-12 9q-38 -3 -61.5 -14.5t-38.5 -46.5q-6 -14 -99 -214
q-15 -34 -52 -42q-2 14 -2 21q0 8 2 12q81 172 98 209q4 7 4 20q0 11 -4.5 14t-18.5 3q-6 0 -15.5 -1t-13.5 -1q-5 0 -9.5 2.5t-7.5 6t-7 8.5t-7 8q4 2 11.5 9t12.5 9q4 1 31 7.5t38 10t27.5 14.5t24.5 25q2 3 145 275q47 88 72 88q10 0 21 -19t11 -28q0 -3 -1 -10t-1 -11
q2 -1 5 -1zM249 361q1 0 3.5 -0.5t3.5 -0.5q30 0 38 39q2 12 8 35.5t9.5 43t3.5 35.5q0 9 -6 25q-1 -1 -10 -8t-13 -14q-4 -8 -24.5 -45t-32 -61t-11.5 -35q0 -14 31 -14z" />
    <glyph glyph-name="afii10018" unicode="&#x411;" horiz-adv-x="517" 
d="M483 655q4 1 11 1q4 0 12 -0.5t11 -0.5q-12 -29 -19 -32q-3 -1 -17.5 -6.5t-18 -6.5t-16 -5t-17.5 -5.5t-16 -4t-18.5 -3t-18 -1.5t-21.5 -1q-25 0 -77 5.5t-78 5.5q-27 0 -27 -23q0 -8 3 -20l-9 5q-34 -153 -38 -176q41 19 134 48q98 30 136 30q40 0 64 -19t24 -53
q0 -13 -4 -28.5t-8 -27.5t-13 -29.5t-12.5 -24.5t-14 -24t-10.5 -18q-2 -4 -15.5 -27.5t-19 -32t-19 -31t-22.5 -33t-23.5 -28.5t-26.5 -27.5t-27.5 -19.5t-31.5 -14.5t-33 -4.5q-56 0 -56 35q0 31 14 31q7 0 21 -4t21 -4q25 0 50 13.5t43.5 30.5t40 47.5t33 50.5t30 53
t23.5 42q1 1 8 12t10.5 17t7.5 16t4 17q0 24 -52 24q-103 0 -288 -83q-36 -162 -36 -228q0 -10 2 -28t2 -27q0 -22 -10 -40.5t-21 -18.5q-24 0 -24 104q0 35 4.5 77t9 70t14 78.5t12.5 69.5l42 211q0 7 -6.5 19.5t-18 30t-13.5 20.5q4 1 11.5 4.5t13.5 6t10 2.5q7 0 31 -9
q4 2 7 2q6 0 12 -6q96 -24 180 -24q75 0 144 20z" />
    <glyph glyph-name="afii10019" unicode="&#x412;" horiz-adv-x="462" 
d="M145 -80q-13 23 -13 45q0 17 11.5 34.5t22.5 17.5q4 0 16.5 -24t29.5 -24q12 0 38 29q100 115 127 211q4 18 4 25q0 22 -15.5 42t-37.5 20q-32 0 -70.5 -19.5t-59.5 -50.5q-5 -7 -8 -8q-39 -25 -56.5 -63t-27.5 -94q0 -10 -4 -18.5t-8 -13t-13.5 -13t-12.5 -11.5
q-3 4 -10.5 12.5t-12.5 15.5t-5 13q-5 40 -5 73q0 24 3 48q18 125 57 331q6 36 17 53.5t32 17.5q28 0 37 -8t9 -27v-8q-10 -79 -37 -210q0 -24 13 -24q13 -1 32 15.5t29 35.5q22 38 73 122.5t77 130.5q12 22 12 55q0 31 -18 49.5t-49 18.5q-16 0 -31 -4q-119 -31 -215 -120
q-2 -2 -6 -4.5t-5.5 -3.5t-4 -2.5t-4 -2t-3.5 -1.5t-3.5 -1.5t-3.5 -1l-4 -1t-4.5 -1t-5.5 -0.5q0 4 -1 12t-1 11q0 5 2 9q44 56 131 103t167 47q44 0 71 -25t31 -72v-23q0 -60 -49 -145q-8 -13 -30 -44.5t-36.5 -55.5t-14.5 -34q0 -14 26 -16q48 -4 81 -41t33 -85
q0 -25 -8 -44q-24 -60 -61 -120.5t-87 -108t-93 -47.5q-25 0 -48 23z" />
    <glyph glyph-name="afii10020" unicode="&#x413;" horiz-adv-x="453" 
d="M538 702q6 2 11 2q3 0 11.5 -1t12.5 -1q-3 -4 -8.5 -17t-10.5 -16q-89 -33 -137 -33q-26 0 -77 5.5t-76 5.5q-15 0 -25 -9.5t-13 -19.5l-2 -9l-13 -75q-8 -42 -22.5 -121t-16.5 -90l-52 -272q-2 1 -5 1q-1 -3 -8.5 -22.5t-14 -27t-17.5 -7.5q-45 0 -45 33q0 14 4 27
q33 142 55 258q8 36 19.5 106t23.5 125t30 103q-2 6 -9.5 16.5t-9.5 15.5l-13 27q26 13 33 13q2 0 7 -2t7 -2q125 -33 218 -33q74 0 143 20z" />
    <glyph glyph-name="afii10021" unicode="&#x414;" horiz-adv-x="537" 
d="M296 725q98 0 169.5 -57t71.5 -165q0 -16 -4 -46q-18 -134 -88.5 -253t-178.5 -204q-15 -14 -39 -24t-41 -10q-16 0 -44.5 22t-44.5 22q-4 0 -11 -1.5t-10 -1.5q-25 0 -27 25q-10 88 -10 104q0 18 3 36q9 55 31.5 153t28.5 127q1 7 1 21v29q0 43 15.5 82.5t50.5 39.5
q21 0 34 -13.5t13 -39.5q0 -42 -13 -105q-12 -57 -35.5 -159.5t-31.5 -136.5q-4 -8 -4 -14q3 -9 10 -22q13 8 29 20.5t26.5 19t21.5 6.5t11 -9q0 -5 -25 -42t-25 -60q0 -6 3 -18.5t4 -16.5q5 1 13.5 2.5t14.5 3.5t10 5q52 49 90 89.5t83.5 100t70 123t24.5 125.5
q0 200 -216 200q-113 0 -210 -61q-6 -4 -20 -4h-17q2 4 5 14t6 16t7 8q96 42 150 56q11 4 24.5 6.5t23.5 3t26 1.5t24 2z" />
    <glyph glyph-name="afii10022" unicode="&#x415;" 
d="M135 1q69 25 135 53.5t171.5 79t131.5 62.5q9 4 30 5t26 2q-26 -34 -34 -39q-12 -8 -48.5 -33.5t-52 -36t-47.5 -32t-53.5 -33t-50.5 -27t-57 -27t-56 -20.5q-63 -21 -112 -21q-66 0 -107 33t-41 79q0 28 15 61q62 132 173 261q8 10 27.5 26t32 28.5t12.5 22.5
q0 12 -12 24q-33 33 -33 88q0 65 43.5 124.5t103.5 59.5q38 0 62.5 -30t24.5 -66q0 -13 -4 -22.5t-7 -12.5l-16 -16q-1 4 -5.5 13.5t-6.5 16.5t-2 17q0 23 -13 36t-29 13q-44 0 -70 -47t-26 -93q0 -20 6.5 -33t20.5 -19t26 -8.5t32.5 -5t31.5 -4.5q5 -2 15.5 -6.5t15.5 -6.5
q-1 -3 -4 -11t-6 -13t-7 -8q-9 -7 -28.5 -17t-25.5 -13q-89 -44 -162 -158q-100 -153 -100 -196q0 -39 65 -41q2 -1 4.5 -1.5t4 -0.5t3.5 -1.5t3 -5.5z" />
    <glyph glyph-name="afii10024" unicode="&#x416;" horiz-adv-x="464" 
d="M573 806q11 -5 11 -27q0 -19 -21.5 -62t-34.5 -43q-4 0 -10.5 4.5t-9.5 4.5q-11 0 -26 -23q-61 -98 -132 -217q-2 -2 -5 -8.5t-6 -8.5q-44 -48 -44 -111q0 -34 16 -89q8 -26 15.5 -55.5t16 -65.5t13.5 -56q2 -9 2 -26q-6 -23 -22 -23q-9 0 -18 12q-27 36 -48.5 111
t-30.5 96l-9 -66q-2 -10 -13 -100q-1 -2 -1 -5.5t-1 -5.5q-14 -78 -33 -78q-6 0 -13.5 13t-14.5 49t-7 86q0 55 13 122q-30 -61 -88 -156.5t-59 -98.5q-10 -30 -25 -30q-8 0 -18 19q14 46 38.5 97t58 112.5t49.5 95.5q6 12 6 35v14q-26 143 -35 193l-6 27t-6 31.5t-2 25.5
q0 16 9 27.5t28 11.5q16 0 27.5 -30.5t22.5 -92.5t13 -72t15 -30q4 27 29 162q4 22 16 59.5t22 64.5t12 28q27 19 50 19q37 0 37 -57v-7q-5 -14 -14 -41.5t-17.5 -49t-17.5 -39.5q-6 -11 -10.5 -22t-8.5 -24.5t-6.5 -22.5t-5.5 -25.5t-4 -22.5t-4 -26t-4 -24v-4q2 7 19 45
q2 2 9 7t11 9.5t6 8.5l194 305q34 53 61 52q8 0 11 -2z" />
    <glyph glyph-name="afii10025" unicode="&#x417;" horiz-adv-x="388" 
d="M306 405v20q0 18 -10 28t-24 10q-19 0 -51.5 -24t-48.5 -24q-14 0 -24.5 10t-10.5 22q0 11 9 23l96 131q24 31 24 45q0 8 -18.5 13t-40.5 8t-40.5 15.5t-18.5 32.5v12q3 0 10 1t11 1q5 0 9 -2q35 -23 69 -23q36 0 76 27q10 8 22 8q3 0 11.5 -0.5t12.5 -1.5t9.5 -3
t7.5 -6.5t2 -11.5q0 -13 -10.5 -35.5t-21.5 -39t-31 -46t-25 -36.5q-11 -14 -11 -23q0 -12 21 -25q51 -35 51 -97q0 -40 -18.5 -89.5t-37.5 -83t-50 -83.5q-6 -9 -9 -14q-29 -40 -43 -58.5t-44 -51t-59 -47.5t-59 -15t-50.5 26.5t-20.5 64.5q0 25 16 58t32.5 55.5t49 62
t42.5 53.5q14 17 38 17v-8q0 -8 -12.5 -25.5t-30.5 -38t-23 -28.5q-67 -99 -67 -144q0 -51 33 -51q21 0 62 39t61 71q35 53 122 221q8 16 18 60h-5z" />
    <glyph glyph-name="afii10026" unicode="&#x418;" horiz-adv-x="523" 
d="M40 184q0 5 2.5 50t3.5 53t3.5 47t4 52t5 46t7 51t8.5 45t11.5 49.5t13.5 45.5l4.5 13.5t6.5 14.5q3 3 27 17q0 -1 3.5 -11t3.5 -15q0 -17 -9 -50t-11 -45q-6 -41 -15.5 -123t-14.5 -121q-4 -31 -4 -70q0 -3 -0.5 -23.5t0 -30l1.5 -28.5t4 -29.5t8 -22.5t13.5 -17.5
t19.5 -5.5q21 0 36 27q60 99 114 209q15 32 37.5 84t48.5 115.5t36 86.5q11 27 40 27q26 0 35.5 -7.5t9.5 -23.5q0 -8 -2 -20q-8 -51 -44.5 -208t-36.5 -212q0 -13 16 -28t16 -31q0 -19 -20.5 -49t-47.5 -30q-23 0 -39 25.5t-16 51.5q0 21 7.5 68.5t7.5 72.5q0 1 -9 22
q-10 -10 -15 -19q-19 -29 -54.5 -84.5t-51.5 -79.5q-29 -43 -71 -43q-39 0 -59.5 24.5t-24.5 59.5z" />
    <glyph glyph-name="afii10027" unicode="&#x419;" horiz-adv-x="496" 
d="M40 190q2 24 6 88.5t7 95t9.5 81t16 91t22.5 80.5q0 4 4.5 10.5t9.5 11.5t13 12.5t11 10.5q0 -5 0.5 -15.5t0.5 -15.5q0 -9 -1 -14q-3 -20 -12.5 -75t-13.5 -82.5t-10.5 -72t-10 -82.5t-4.5 -76q0 -159 45 -159q22 0 61 60t67 118q25 52 67 150.5t54 125.5q13 31 54 31
q30 0 30 -33q0 -9 -1 -15q-5 -42 -26.5 -161.5t-24.5 -183.5q0 -13 14.5 -35.5t14.5 -37.5q0 -19 -21 -49t-47 -30q-22 0 -38 26t-16 53q0 24 8 74.5t9 59.5q0 3 -11 28q-30 -34 -74 -106.5t-56 -89.5q-22 -31 -64 -31q-21 0 -37.5 9.5t-25 21.5t-15.5 33.5t-8.5 33t-4 35
t-2.5 24.5zM426 703q-34 9 -115.5 68t-81.5 90q0 17 22 17q26 0 114.5 -60.5t88.5 -87.5q0 -14 -28 -27z" />
    <glyph glyph-name="afii10028" unicode="&#x41a;" horiz-adv-x="461" 
d="M507 -165v-16q0 -28 -13.5 -45.5t-34.5 -17.5q-19 0 -34 14q-23 19 -44 45t-36.5 46.5t-34 58.5t-27.5 55t-26.5 65t-21.5 58t-22.5 65t-19.5 58q-5 14 -14.5 27.5t-15.5 13.5q-9 0 -14 -5.5t-6 -11t-1.5 -16t-1.5 -14.5q-2 -12 -7 -47t-9.5 -57t-12.5 -49t-20.5 -40.5
t-28.5 -13.5q-17 0 -24.5 7t-7.5 29q0 56 33 163q37 210 73 385q2 29 6 43q0 6 21.5 31.5t32.5 25.5q26 0 26 -36q0 -9 -1 -13q-7 -29 -36 -177q0 -1 -1 -5t-1 -6q0 -3 6 -36q24 12 28 20q23 30 168 228q6 6 11 9.5t12 5t9.5 2t11.5 0t11 -0.5q-1 -4 -1 -11.5t-1 -12.5
t-4 -9q-101 -146 -193 -269q-20 -28 -20 -50q0 -18 10 -38q16 -33 40 -97t33 -86q22 -54 100 -226q2 -4 7 -8t13.5 -8t12.5 -7q18 33 19 67t12 52q1 -1 7.5 -9.5t7.5 -13.5q7 -25 28 -122h-4z" />
    <glyph glyph-name="afii10029" unicode="&#x41b;" horiz-adv-x="469" 
d="M-80 -46q1 1 15 24.5t22 34.5q149 185 218 331q75 165 130 279q8 21 25.5 38t30.5 17q16 0 27 -26.5t16.5 -75.5t8.5 -91t5.5 -100t3.5 -76q1 -16 9 -100t8 -129q0 -39 -25 -39q-17 0 -25.5 1t-17 9t-9.5 24q-9 108 -35 320q-1 12 -2 36t-3 36q-1 6 -4 17t-4 13
q-22 -16 -24 -19q-10 -19 -87 -179q-103 -209 -260 -342q-11 -7 -15 -8q-1 0 -8 5z" />
    <glyph glyph-name="afii10030" unicode="&#x41c;" horiz-adv-x="550" 
d="M345 32l42 222q7 40 7 51q0 3 -3 9l-4 8q-2 -2 -6 -4t-6.5 -4t-3.5 -5q-19 -40 -49 -114.5t-45 -107.5q-2 -6 -13 -15.5t-13 -11.5q-3 4 -9 10.5t-10 11.5t-4 10q-3 16 -21.5 130.5t-33.5 173.5q-2 -5 -8.5 -22.5t-7.5 -26.5l-32 -253q-7 -56 -31 -62q-21 0 -32.5 33
t-11.5 67q0 9 1 14q4 43 40 287l20 123q3 45 44 45q49 0 55 -43q3 -22 10 -130q7 -65 22 -217q0 -1 16 -30q3 3 9 8t10 9t6 8q32 63 67 133.5t77 157t65 133.5q10 22 34 22q44 0 44 -30q0 -15 -10 -43.5t-12 -37.5q-28 -111 -110 -456q-3 -10 -6.5 -32t-7 -37t-9 -31.5
t-15.5 -25t-23 -8.5t-19.5 17.5t-6.5 33.5q0 4 0.5 14t0.5 14q-5 0 -7 2z" />
    <glyph glyph-name="afii10031" unicode="&#x41d;" horiz-adv-x="509" 
d="M309 70q22 153 38 237q1 8 1 20q0 22 -20 22q-18 0 -60 -9t-59 -10q-47 -4 -57 -51q-42 -208 -62 -254q-11 -23 -20 -23q-18 5 -18 23q0 5 5 28q22 140 34 211q2 16 2 20q0 13 -8 17t-30 6q-3 0 -11.5 -1t-12.5 -1q-21 0 -21 23q0 7 2.5 11t8.5 6.5t9.5 3t13 1.5t10.5 1
q38 4 48.5 13.5t17.5 47.5q2 15 6.5 53t9 68t11.5 62.5t19 51t28 18.5q8 0 16.5 -10.5t8.5 -19.5q-2 -38 -22 -118t-20 -118q0 -21 22 -21q52 0 107 10.5t62 35.5q39 196 50 262q0 2 1 8t1.5 7.5t1.5 6.5t2.5 7t4 5.5t6 5t8 3.5t10.5 2.5t13 0.5q33 0 33 -38q0 -2 -0.5 -6
t-0.5 -7q-4 -35 -10.5 -73t-15.5 -84.5t-13 -71.5q0 -2 -1.5 -5t-1.5 -4q4 -20 4 -27q0 -26 -18.5 -72t-20.5 -68q-2 -26 -7 -54.5t-12 -66t-10 -55.5q-2 -10 -10.5 -60t-13.5 -77q0 -4 -19 -25q-2 2 -8 6t-10 7.5t-5 7.5q-9 47 -17 111z" />
    <glyph glyph-name="afii10032" unicode="&#x41e;" horiz-adv-x="554" 
d="M534 437q-2 -92 -50 -195t-140 -197q-32 -33 -76 -58t-87 -25q-79 0 -120 51.5t-41 111.5q0 24 11 67.5t12 51.5q2 10 6 55.5t12 68.5q33 102 77 171q9 15 24 32.5t26.5 29.5t31.5 32l29 29q25 25 63.5 40t69.5 15q73 0 112.5 -70t39.5 -210zM457 500q-2 8 -6.5 32
t-9 42.5t-12 39.5t-19.5 32.5t-28 11.5q-20 0 -39 -7t-38 -22.5t-33 -29t-32.5 -38t-27 -37t-25.5 -39t-20 -31.5q-2 -3 -2 -10q0 -17 23 -36.5t23 -32.5q0 -5 -2.5 -15t-2.5 -14q0 -27 44 -27q14 0 38 6t38 6q5 0 15.5 -1t15.5 -1q-14 -21 -21 -24q-73 -22 -115 -28
q-51 -7 -56 -32q-2 -7 -10 -41t-11.5 -56.5t-3.5 -43.5q0 -30 12 -48.5t34 -18.5q20 0 39 12q193 127 232 451z" />
    <glyph glyph-name="afii10033" unicode="&#x41f;" horiz-adv-x="606" 
d="M519 700q27 17 51 17q36 0 36 -50v-6q-2 -5 -18.5 -50.5t-28.5 -66.5q-30 -49 -45 -150q-19 -119 -32 -207q-1 -8 -5 -45.5t-9 -54.5q-14 -68 -34 -68q-7 0 -14.5 11.5t-14 43t-6.5 77.5q0 33 6 66q29 184 64 347l12 43q-24 -9 -67 -9q-25 0 -74.5 5.5t-74.5 5.5
q-15 0 -25.5 -9.5t-13.5 -19.5l-3 -10l-13 -74l-38 -211l-52 -272l-4 2q-2 -4 -5.5 -14t-6 -16t-6.5 -13.5t-9.5 -11t-12.5 -3.5q-46 0 -46 34q0 10 3 25q30 125 57 259q6 29 18.5 104.5t24 128t29.5 101.5q-2 6 -9 16.5t-9 14.5l-14 28q29 13 33 13q3 0 7.5 -2t6.5 -2
q121 -32 216 -32q55 0 105 10q18 45 21 45z" />
    <glyph glyph-name="afii10034" unicode="&#x420;" horiz-adv-x="440" 
d="M254 698h-10q-67 0 -136 -38q-7 -4 -17 -4q-2 0 -6.5 0.5t-7.5 0.5l5 15t8 15q67 48 182 48q84 0 136 -38t52 -99q0 -73 -72 -179q-23 -33 -37.5 -52t-41 -49t-53 -45t-52.5 -15q-6 0 -15.5 2.5t-13.5 2.5q-20 0 -25 -29q-4 -27 -15.5 -95t-16.5 -105q-1 -11 -7 -21
t-10 -14.5t-16.5 -14t-14.5 -11.5q-1 -1 -3 -1q-17 0 -27 16.5t-10 43.5q0 31 9.5 74t20 78t10.5 36q8 36 20 105t15 85l38 197q12 37 44 37q11 0 18 -10.5t7 -23.5q-3 -23 -11 -66.5t-11 -66.5q-1 -3 -1 -9q0 -4 1 -13t1 -13q38 19 40 19q10 0 10 -19q0 -14 -21 -50
t-21 -57q0 -23 17 -23q12 0 19 7q68 58 125 131.5t57 138.5q0 46 -21 68.5t-72 32.5q-13 3 -37 4.5t-33 3.5z" />
    <glyph glyph-name="afii10035" unicode="&#x421;" horiz-adv-x="498" 
d="M462 618q2 -6 2 -20q0 -23 -8.5 -45.5t-18.5 -22.5q-11 0 -18 24v-1q-2 0 -10.5 22.5t-25.5 44.5t-38 22q-15 0 -29 -7t-29 -22.5t-22 -24t-21 -27.5q-87 -116 -143 -273q-30 -87 -30 -117q0 -48 36.5 -70t85.5 -22q137 0 288 109q4 3 8 3q9 0 9 -16t-7.5 -35.5
t-20.5 -28.5q-7 -5 -50 -37t-61 -43.5t-54 -32t-66 -28.5t-60 -8q-84 0 -121.5 58t-37.5 141q0 81 28 165q69 212 170 339q23 26 34.5 38t37.5 29t49 17q46 0 77 -39.5t46 -91.5z" />
    <glyph glyph-name="afii10036" unicode="&#x422;" horiz-adv-x="615" 
d="M83 593q-29 0 -41 10t-12 35q0 41 21 69t56 28q23 0 23 -26v-10q0 -22 19 -22q8 0 17 3q216 45 410 49q53 0 155 -4q5 0 10.5 -3t12.5 -9.5t11 -8.5q-4 -2 -16 -12.5t-18 -11.5q-131 -16 -269 -30q-23 -2 -32.5 -12t-13.5 -33q-10 -63 -55 -297l-76 -385q-5 -24 -16 -46
t-24 -22q-17 0 -28 12t-11 30q4 53 12.5 106t24.5 134t20 104l66 335q2 16 2 22q0 35 -32 35q-7 0 -27 -4q-36 -8 -103.5 -20.5t-85.5 -15.5z" />
    <glyph glyph-name="afii10037" unicode="&#x423;" horiz-adv-x="466" 
d="M492 683q4 -3 4 -18q0 -17 -4 -25q-134 -403 -246 -678q-6 -14 -21.5 -28.5t-27.5 -14.5q-47 0 -47 154q0 4 2.5 8t7 10.5t6.5 9.5q3 -4 7 -7.5t8.5 -8l6.5 -6.5l19 -23q15 20 16 23l50 143q-14 11 -27.5 29t-25.5 41t-20 39.5t-17.5 38t-10.5 23.5q-39 83 -65 171
q0 1 -3.5 11.5l-6.5 19.5t-7 19.5t-8.5 16.5t-9.5 6q-2 0 -8.5 -6.5t-9.5 -6.5q-10 0 -17 22t-7 48q0 32 14 48t28 16q13 0 25.5 -13.5t23 -36t17.5 -42t14 -43t8 -26.5q10 -29 33 -85t58 -121.5t54 -65.5l73 239q0 25 22 69.5t42 51.5q9 4 24 4t26 -6z" />
    </font>
</defs>
</svg>
