<?xml version="1.0" standalone="no"?>
<!DOCTYPE svg PUBLIC "-//W3C//DTD SVG 1.1//EN" "http://www.w3.org/Graphics/SVG/1.1/DTD/svg11.dtd" >
<svg xmlns="http://www.w3.org/2000/svg" xmlns:xlink="http://www.w3.org/1999/xlink" version="1.1">
<metadata>
Created by FontForge 20170924 at Tue Dec 31 23:11:16 2019
 By www-data
Copyright 1990-1993 Bitstream Inc.  All rights reserved.
</metadata>
<defs>
<font id="Freehand575BT-RegularB" horiz-adv-x="1024" >
  <font-face 
    font-family="Freehand575 BT"
    font-weight="400"
    font-style="italic"
    font-stretch="normal"
    units-per-em="2048"
    panose-1="3 8 7 2 3 3 6 6 2 4"
    ascent="1638"
    descent="-410"
    x-height="549"
    cap-height="1302"
    bbox="-551 -502 1948 1653"
    underline-thickness="131"
    underline-position="-315"
    slope="-15"
    unicode-range="U+0020-F002"
  />
<missing-glyph horiz-adv-x="1229" 
d="M102 -362v1806h1024v-1806h-1024zM217 -248h795v1577h-795v-1577z" />
    <glyph glyph-name=".notdef" horiz-adv-x="1229" 
d="M102 -362v1806h1024v-1806h-1024zM217 -248h795v1577h-795v-1577z" />
    <glyph glyph-name="NULL" horiz-adv-x="0" 
 />
    <glyph glyph-name="nonmarkingreturn" horiz-adv-x="508" 
 />
    <glyph glyph-name="space" unicode=" " horiz-adv-x="508" 
 />
    <glyph glyph-name="exclam" unicode="!" horiz-adv-x="522" 
d="M242 343q-2 -45 -16.5 -61t-51.5 -16q-28 0 -41.5 7.5t-13.5 23.5q0 76 64.5 338.5t166.5 535.5l4 10q60 158 127 158q33 0 56.5 -20.5t23.5 -42.5q0 -7 -5 -17.5t-19 -31.5q-38 -104 -118 -343.5t-177 -540.5zM90 -18q-44 0 -68 16.5t-24 46.5q0 53 48 99t93 46
q29 0 44.5 -21t15.5 -60q0 -51 -32.5 -89t-76.5 -38z" />
    <glyph glyph-name="quotedbl" unicode="&#x22;" horiz-adv-x="590" 
d="M496 1434v-553h-119v553h119zM211 1434v-553h-117v553h117z" />
    <glyph glyph-name="numbersign" unicode="#" horiz-adv-x="1575" 
d="M973 862h-264l-95 -272h263zM922 1456l-166 -471h260l168 471h143l-164 -471h307l-43 -123h-311l-94 -272h330l-43 -123h-332l-166 -469h-145l168 469h-265l-168 -469h-143l166 469h-320l43 123h320l96 272h-342l43 123h344l168 471h146z" />
    <glyph glyph-name="dollar" unicode="$" horiz-adv-x="1014" 
d="M678 1241q48 207 89 296t87 89q20 0 30.5 -12t10.5 -35q0 -15 -11 -50q-1 -4 -1 -5q-9 -54 -35 -128t-69 -172q7 -4 30 -33t61 -83q83 -50 112.5 -82.5t29.5 -69.5q0 -18 -23.5 -33.5t-46.5 -15.5q-24 0 -44.5 22t-53.5 89q-1 2 -3 5q-32 64 -79 64q-39 0 -83.5 -27
t-90.5 -79q-78 -86 -124 -188.5t-46 -184.5q0 -74 42 -145t130 -146q15 -12 44 -35q95 -75 95 -130q0 -70 -79.5 -121t-194.5 -51q-1 0 -4 -1q-13 -2 -25 -2q-40 -97 -81 -231q-41 -133 -79 -133q-26 0 -44.5 20t-18.5 50q0 33 23.5 108t76.5 209q-110 35 -191 120t-81 146
q0 27 19.5 48.5t43.5 21.5q20 0 36 -40q7 -17 11 -26q43 -87 121.5 -132.5t186.5 -45.5q51 0 83.5 21t42.5 61q-9 40 -42 82.5t-121 120.5q-93 82 -124.5 138.5t-31.5 123.5q0 80 56.5 204t148.5 236q54 65 110.5 107t106.5 55z" />
    <glyph glyph-name="percent" unicode="%" horiz-adv-x="977" 
d="M954 1034l-462 -516q-137 -152 -294 -338t-175 -186q-25 0 -43.5 24.5t-18.5 57.5q0 22 114 148l7 7l659 734l21 22q233 260 317 260q15 0 25 -13t10 -32q0 -24 -61 -74.5t-99 -93.5zM508 59q0 -10 10 -18t23 -8q46 0 96.5 79t50.5 154q0 42 -11 64t-32 22
q-34 0 -85.5 -103t-51.5 -190zM590 446q20 11 40 16t38 5q54 0 90.5 -53t36.5 -135q0 -130 -70.5 -220t-167.5 -90q-114 0 -150 24t-36 83q0 64 35.5 162t85.5 161q15 20 33.5 30t64.5 17zM313 850q0 -28 11 -43.5t30 -15.5q41 0 90.5 88.5t49.5 173.5q0 26 -11 43.5
t-26 17.5q-35 0 -89.5 -96t-54.5 -168zM482 1200q55 -1 84.5 -34.5t29.5 -96.5q0 -130 -82.5 -239t-196.5 -109q-65 0 -99 36t-34 105q0 48 25.5 120.5t69.5 143.5q24 42 66 68.5t81 26.5q12 0 26 -5t30 -16z" />
    <glyph glyph-name="ampersand" unicode="&#x26;" horiz-adv-x="1063" 
d="M500 717q59 75 94 147.5t35 116.5q0 13 -5 22t-12 9q-13 0 -32 -21t-35 -55q-24 -48 -35.5 -95.5t-11.5 -92.5q0 -6 1 -16t1 -15zM395 510l-8 -8q-254 -241 -254 -320q0 -49 38.5 -74.5t113.5 -25.5q67 0 137 18t133 52q-48 77 -87.5 166t-72.5 192zM631 66
q-80 -43 -160.5 -63.5t-163.5 -20.5q-152 0 -251 62.5t-99 154.5q0 129 408 415l9 6q-9 43 -13.5 86t-4.5 91q0 134 61 211t163 77q8 0 18.5 -2.5t24.5 -7.5q46 -6 78 -45.5t32 -91.5q0 -64 -54 -147.5t-163 -188.5q31 -130 65 -222.5t76 -158.5q46 37 70.5 72.5t24.5 66.5
q0 2 -1 7.5t-2 7.5q-19 -3 -33.5 -4.5t-19.5 -1.5q-29 0 -58.5 31t-29.5 55q0 29 97 52t235 23q46 0 63 -11.5t17 -43.5q0 -46 -81 -57q-78 -11 -138 -27q17 -14 26 -28t9 -29q0 -43 -31 -96t-84 -103q25 -27 61.5 -55.5t36.5 -40.5q0 -9 -25 -21t-46 -12q-18 0 -40.5 10.5
t-76.5 49.5z" />
    <glyph glyph-name="quotesingle" unicode="'" horiz-adv-x="305" 
d="M211 1434v-553h-117v553h117z" />
    <glyph glyph-name="parenleft" unicode="(" horiz-adv-x="606" 
d="M342 -286q-2 -11 -12 -18t-21 -7q-70 0 -148.5 151t-78.5 344q0 196 79 431.5t212 428.5q76 112 165 171t181 59q43 0 75.5 -16t32.5 -35q0 -27 -53 -31.5t-88 -20.5q-83 -34 -155 -122.5t-136 -235.5q-83 -193 -126.5 -363.5t-43.5 -304.5q0 -123 29 -229.5t88 -201.5z
" />
    <glyph glyph-name="parenright" unicode=")" horiz-adv-x="606" 
d="M234 1249q1 10 10.5 17.5t19.5 7.5q71 0 150.5 -151t79.5 -345q0 -195 -79.5 -428.5t-213.5 -429.5q-77 -112 -166 -171.5t-180 -59.5q-44 0 -76.5 15.5t-32.5 35.5q0 27 53 31.5t88 19.5q84 35 155.5 123.5t135.5 235.5q84 192 127 361.5t43 305.5q0 125 -28 231.5
t-86 200.5z" />
    <glyph glyph-name="asterisk" unicode="*" horiz-adv-x="508" 
d="M399 1170q5 13 13 37q32 93 67 93q13 0 21 -8.5t8 -21.5q0 -9 -18 -51q-10 -23 -15 -35q50 30 69.5 38.5t33.5 8.5q10 0 17 -2.5t7 -5.5q0 -10 -70 -58q-40 -27 -65 -45q27 -20 58.5 -39t31.5 -22q0 -9 -12 -26t-23 -17q-6 0 -51 29q-25 16 -41 26q-9 -26 -20 -67
q-21 -74 -50 -74q-8 0 -14 5t-6 11q0 15 6 41.5t19 65.5q-59 -40 -92.5 -60t-43.5 -20q-7 0 -12.5 5t-5.5 11q0 24 100 92q28 19 45 31q-44 24 -65 41t-21 31q0 13 9 21.5t22 8.5q14 0 40 -11.5t58 -32.5z" />
    <glyph glyph-name="plus" unicode="+" horiz-adv-x="1706" 
d="M913 1221v-551h539v-117h-539v-553h-118v553h-541v117h541v551h118z" />
    <glyph glyph-name="comma" unicode="," horiz-adv-x="508" 
d="M6 -186q-13 0 -21 10t-8 26q0 23 83 172l1 2q4 7 11 20q52 97 84 97q17 0 33 -16t16 -31q0 -14 -54 -93q-48 -71 -80 -121q-1 -2 -6 -10q-35 -56 -59 -56z" />
    <glyph glyph-name="hyphen" unicode="-" horiz-adv-x="702" 
d="M84 332q37 14 118.5 22t184.5 8q92 0 125 -19t33 -67q-1 -19 -8 -26t-27 -10q-101 -12 -197.5 -18.5t-144.5 -6.5q-59 0 -71.5 17t-12.5 100z" />
    <glyph glyph-name="period" unicode="." horiz-adv-x="508" 
d="M133 -31q-45 0 -67.5 18.5t-22.5 55.5q0 52 41.5 90.5t93.5 38.5q29 0 48.5 -17.5t19.5 -43.5q0 -45 -41.5 -93.5t-71.5 -48.5z" />
    <glyph glyph-name="slash" unicode="/" horiz-adv-x="606" 
d="M707 1214q-231 -437 -443 -920.5t-241 -483.5q-27 0 -47.5 19t-20.5 48q0 40 116 303.5t322 689.5l6 12q204 421 277 421q22 0 34.5 -14t12.5 -40q0 -13 -3.5 -20.5t-12.5 -14.5z" />
    <glyph glyph-name="zero" unicode="0" horiz-adv-x="1014" 
d="M332 66q65 0 132.5 37.5t125.5 107.5q122 151 201 359t79 370q0 106 -30.5 150.5t-102.5 44.5q-51 0 -110.5 -28.5t-112.5 -78.5q-157 -150 -256.5 -360.5t-99.5 -386.5q0 -106 44 -160.5t130 -54.5zM342 -43q-137 0 -232.5 105t-95.5 262q0 80 31.5 191t89.5 235
q57 118 121.5 215.5t130.5 164.5q71 73 131.5 104.5t126.5 31.5q62 0 134.5 -27.5t131.5 -73.5q43 -33 66.5 -103t23.5 -165q0 -140 -49.5 -301t-136.5 -301q-101 -164 -222.5 -251t-250.5 -87z" />
    <glyph glyph-name="one" unicode="1" horiz-adv-x="541" 
d="M66 148q26 131 106 383.5t203 594.5q-18 -2 -35.5 -3t-40.5 -1q-49 0 -68.5 10.5t-19.5 34.5q0 55 68 79t227 24q39 0 64.5 -17t25.5 -41q0 -12 -47 -122q-198 -464 -334 -930h8q48 0 79.5 -18t31.5 -44q0 -44 -73 -55q-17 -2 -27 -4q-81 -13 -178 -30t-103 -17
q-31 0 -56.5 25t-25.5 59q0 46 158 67q24 3 37 5z" />
    <glyph glyph-name="two" unicode="2" horiz-adv-x="1014" 
d="M338 164q20 1 57 3q101 7 150 7q126 0 167.5 -16.5t41.5 -65.5q0 -24 -13 -39t-41 -22q-40 2 -73 3t-62 1q-189 0 -418 -41q-61 -10 -75 -10q-29 0 -45.5 30t-16.5 80q0 35 59 47q50 11 89 23q104 47 239.5 186t288.5 359q73 104 115.5 199.5t42.5 148.5q0 28 -17 44.5
t-47 16.5q-43 0 -101.5 -28.5t-121.5 -81.5q-92 -78 -172 -162t-135 -162q-9 -12 -24 -35q-31 -47 -52 -47q-25 0 -48.5 25t-23.5 49q0 22 50 100t131 178q131 163 241.5 248.5t188.5 85.5q44 0 81 -23.5t48 -58.5q78 -30 120 -78.5t42 -109.5q0 -142 -186.5 -389
t-479.5 -465z" />
    <glyph glyph-name="three" unicode="3" horiz-adv-x="1014" 
d="M606 610q93 -27 146 -88.5t55 -142.5l3 -22.5t1 -14.5q0 -57 -51 -124t-139 -124q-103 -65 -197.5 -99t-175.5 -34q-108 0 -184 56.5t-76 127.5q0 40 24.5 73.5t48.5 33.5q30 0 52 -61q9 -26 16 -42q15 -31 41 -49t57 -18q32 0 109 33t160 86q84 53 128 102t44 90
q0 61 -55.5 93t-161.5 32q-70 0 -137 -3q-11 -1 -13 -1q-15 0 -22 8.5t-7 28.5q0 90 137 110q12 2 17 3q63 12 153 55.5t162 97.5q74 57 116 114t42 99q0 36 -25.5 54t-78.5 18q-92 0 -228.5 -59t-265.5 -158q-25 -19 -55.5 -46.5t-38.5 -27.5q-18 0 -36.5 17t-18.5 34
q0 23 48 76t126 113q128 99 251.5 158t194.5 59q38 0 68.5 -21t42.5 -55q75 -35 113 -84t38 -111q0 -98 -112 -200t-316 -187z" />
    <glyph glyph-name="four" unicode="4" horiz-adv-x="1014" 
d="M516 268q-148 -5 -292.5 -21t-145.5 -16q-33 0 -54.5 28t-21.5 69q0 46 113 186.5t508 566.5q85 93 150.5 146t92.5 53q57 0 101.5 -20.5t44.5 -42.5q0 -4 -20 -51q-150 -348 -281 -773q6 0 18 -1t19 -1q83 0 117 -19.5t34 -66.5q0 -8 -2 -18.5t-2 -12.5q-6 1 -15 1
q-45 4 -65 4q-21 0 -58.5 -2t-88.5 -5q-33 -84 -66 -199q-33 -114 -70 -114q-31 0 -49 19t-18 53q0 39 48 226zM559 393q56 150 142 397.5t122 344.5q-194 -214 -362.5 -407.5t-304.5 -358.5q111 10 212.5 16.5t190.5 7.5z" />
    <glyph glyph-name="five" unicode="5" horiz-adv-x="1014" 
d="M305 670q80 48 160 72t160 24q116 0 195 -77t79 -177q0 -78 -56 -170.5t-161 -183.5q-107 -95 -216 -147t-196 -52q-113 0 -187.5 59.5t-74.5 151.5q0 51 26.5 94t53.5 43q25 0 27.5 -42.5t9.5 -59.5q23 -52 69 -87.5t91 -35.5q46 0 109.5 31.5t127.5 87.5
q105 92 174.5 200t69.5 168q0 41 -27 60.5t-84 19.5q-59 0 -144 -23.5t-167 -64.5q-31 -15 -69 -38t-48 -23q-23 0 -60.5 39.5t-37.5 60.5q0 14 62 174q24 63 38 100q22 56 57 146q69 179 81 194q26 32 164.5 52t340.5 20q90 0 112 -15.5t22 -62.5q0 -54 -199 -67
q-189 -12 -324 -33q-40 -77 -84.5 -187t-93.5 -251z" />
    <glyph glyph-name="six" unicode="6" horiz-adv-x="1014" 
d="M307 557q-43 -84 -65.5 -171t-22.5 -167q0 -67 30 -104t83 -37q38 0 86.5 24t99.5 70q111 99 172.5 197.5t61.5 175.5q0 63 -41 97t-117 34q-72 0 -143 -29.5t-144 -89.5zM362 700q65 50 128.5 75.5t121.5 25.5q52 0 107 -32.5t123 -102.5q24 -28 35.5 -60t11.5 -76
q0 -104 -58 -212.5t-161 -194.5q-83 -70 -168 -104.5t-176 -34.5q-120 0 -191.5 78t-71.5 208q0 142 78 333.5t211 367.5q124 163 225 257.5t148 94.5q32 0 60 -19t28 -36q0 -15 -37 -37q-9 -5 -15 -9q-64 -40 -178 -186t-221 -336z" />
    <glyph glyph-name="seven" unicode="7" horiz-adv-x="844" 
d="M782 1141q-196 -13 -386 -44.5t-193 -31.5q-18 0 -27.5 9t-9.5 26q0 36 11 61t32 35q69 33 255 61.5t390 28.5q44 0 57.5 -5t28.5 -21q23 -26 36 -47.5t13 -32.5q0 -13 -9 -27t-30 -33q-240 -318 -448.5 -612.5t-374.5 -550.5q-10 -4 -19.5 -6t-21.5 -2q-29 0 -49.5 19
t-20.5 46q0 42 216.5 362t549.5 765z" />
    <glyph glyph-name="eight" unicode="8" horiz-adv-x="1014" 
d="M537 725q157 93 250.5 183t93.5 147q0 38 -32.5 67t-80.5 29q-51 0 -110 -31t-121 -90q-50 -46 -78.5 -94t-28.5 -82q0 -32 27.5 -65t79.5 -64zM543 586q-182 -111 -292 -222.5t-110 -179.5q0 -42 34.5 -67t92.5 -25q64 0 136.5 28t144.5 81q97 72 145.5 131.5
t48.5 105.5q0 47 -45 80.5t-155 67.5zM401 643q-72 46 -99.5 86.5t-27.5 99.5q0 67 35 139.5t99 139.5q73 78 167.5 122t188.5 44q85 0 139 -35.5t80 -108.5q17 -36 24 -61.5t7 -46.5q0 -71 -76.5 -152.5t-263.5 -205.5q99 -32 156 -99t57 -151q0 -64 -43.5 -129.5
t-128.5 -132.5q-116 -93 -226.5 -141t-205.5 -48q-110 0 -195.5 86t-85.5 187q0 83 108.5 195t290.5 212z" />
    <glyph glyph-name="nine" unicode="9" horiz-adv-x="1014" 
d="M682 590q78 126 116 224t38 175q0 76 -30.5 125t-76.5 49q-51 0 -126 -47.5t-150 -130.5q-81 -88 -130 -189.5t-49 -168.5q0 -48 38 -72.5t112 -24.5q54 0 118.5 15t139.5 45zM590 444q-63 -26 -106.5 -37.5t-77.5 -11.5q-112 0 -193.5 69t-81.5 169q0 88 62.5 226
t162.5 261q69 83 133.5 124.5t122.5 41.5q41 0 92.5 -19.5t118.5 -60.5q80 -46 119 -108t39 -144q0 -56 -16.5 -120t-46.5 -127q-89 -182 -213 -357t-263 -313q-39 -39 -68 -55.5t-73 -16.5q-37 0 -52.5 6.5t-15.5 20.5q0 3 125.5 142t231.5 310z" />
    <glyph glyph-name="colon" unicode=":" horiz-adv-x="508" 
d="M233 485q-29 0 -43 16t-14 50q0 54 44 91.5t106 37.5q22 0 38.5 -18.5t16.5 -43.5q0 -41 -50.5 -87t-97.5 -46zM164 -31q-46 0 -69 18.5t-23 55.5q0 52 42 90.5t95 38.5q29 0 47 -17.5t18 -43.5q0 -45 -40 -93.5t-70 -48.5z" />
    <glyph glyph-name="semicolon" unicode=";" horiz-adv-x="508" 
d="M250 522q-29 0 -45.5 14.5t-16.5 41.5q0 42 38 81t79 39q33 0 52.5 -20.5t19.5 -54.5q0 -42 -39 -71.5t-88 -29.5zM217 113q-23 -30 -53.5 -77.5t-71.5 -119.5q-10 -15 -19 -21t-22 -6q-16 0 -27.5 9t-11.5 20q0 15 20 54.5t62 109.5q9 14 23 39q42 74 82 74
q24 0 39.5 -10t15.5 -25q0 -14 -8 -24.5t-29 -22.5z" />
    <glyph glyph-name="less" unicode="&#x3c;" horiz-adv-x="1706" 
d="M1442 1018l-1000 -408l1000 -405v-129l-1178 483v103l1178 483v-127z" />
    <glyph glyph-name="equal" unicode="=" horiz-adv-x="1706" 
d="M1452 477v-117h-1198v117h1198zM1452 860v-117h-1198v117h1198z" />
    <glyph glyph-name="greater" unicode="&#x3e;" horiz-adv-x="1706" 
d="M1442 662v-103l-1178 -483v129l1000 405l-1000 408v127z" />
    <glyph glyph-name="question" unicode="?" horiz-adv-x="973" 
d="M246 -27q-36 0 -57 18.5t-21 49.5q0 51 51 103.5t105 52.5q30 0 54.5 -24.5t24.5 -53.5q0 -48 -50.5 -97t-106.5 -49zM766 1239q91 -40 131.5 -89t40.5 -118q0 -126 -284 -461q-152 -180 -238 -290q-12 -6 -22.5 -8.5t-31.5 -2.5q-33 0 -45 8t-12 27q0 29 127 201
q65 88 105 143q12 18 36 51q197 275 197 379q0 43 -22 66.5t-62 23.5q-80 0 -189.5 -76t-199.5 -200q-39 26 -53.5 45.5t-14.5 42.5q0 29 24.5 65t78.5 87q103 98 182.5 150t126.5 52q45 0 73.5 -22t51.5 -74z" />
    <glyph glyph-name="at" unicode="@" horiz-adv-x="2048" 
d="M1292 844l58 121h110l-141 -568q-6 -24 -9 -44t-3 -36q0 -44 27.5 -67t82.5 -23q45 0 100 24t103 64q89 76 139.5 196.5t50.5 254.5q0 266 -195.5 428t-518.5 162q-168 0 -312.5 -52t-259.5 -153q-140 -122 -211 -282.5t-71 -354.5q0 -173 60.5 -304t186.5 -230
q101 -81 240 -124.5t295 -43.5q172 0 334.5 48.5t296.5 139.5l45 -66q-147 -109 -313 -165t-347 -56q-191 0 -348 46.5t-276 138.5q-153 117 -228 272t-75 352q0 163 50.5 309t149.5 269q146 176 349.5 267t453.5 91q165 0 311 -43.5t248 -124.5q129 -99 195.5 -230
t66.5 -282q0 -169 -62.5 -308.5t-182.5 -236.5q-69 -55 -148.5 -83.5t-163.5 -28.5q-99 0 -148.5 39t-49.5 116q0 3 1 11t1 12q-51 -87 -127 -132.5t-170 -45.5q-153 0 -233.5 85t-80.5 247q0 230 137 389t332 159q91 0 153.5 -39.5t96.5 -117.5zM1202 473l60 242
q-17 90 -72 140t-135 50q-146 0 -244 -131.5t-98 -327.5q0 -110 51 -169.5t145 -59.5q102 0 183.5 70.5t109.5 185.5z" />
    <glyph glyph-name="A" unicode="A" horiz-adv-x="920" 
d="M230 416q94 9 182 14.5t167 7.5q9 208 23.5 380t36.5 315q-159 -237 -408 -714zM579 315q-102 -8 -209.5 -23t-217.5 -36q-25 -51 -58 -137q-59 -158 -135 -158q-15 0 -25 11.5t-10 29.5q0 65 133.5 347.5t339.5 633.5h1q171 293 284 293q23 0 54.5 -12t42.5 -15
q35 -9 47.5 -19.5t13.5 -29.5q0 -15 -18.5 -45t-24.5 -51q-24 -71 -49 -332.5t-25 -554.5q0 -35 2 -77.5t2 -49.5q0 -37 -20.5 -57.5t-57.5 -20.5q-65 0 -68 235q-1 45 -2 68z" />
    <glyph glyph-name="B" unicode="B" horiz-adv-x="948" 
d="M137 98q13 -13 30.5 -18.5t47.5 -5.5q77 0 190.5 58.5t221.5 156.5q40 36 61 69.5t21 63.5q0 49 -55.5 75.5t-157.5 26.5q-59 0 -118.5 -6t-115.5 -18q-37 -96 -68 -195.5t-57 -206.5zM311 641q241 56 385 157.5t144 211.5q0 44 -35.5 63t-122.5 19q-66 0 -122 -7
t-105 -20q-41 -106 -77 -212t-67 -212zM297 1081q0 1 -1 3.5t-1 5.5v24q0 67 62 100t186 33q101 0 182.5 -28.5t130.5 -79.5q50 -52 80.5 -108.5t30.5 -96.5q0 -77 -101 -160.5t-280 -152.5q107 -8 179.5 -75.5t72.5 -156.5q0 -53 -31.5 -106t-91.5 -103
q-120 -99 -262.5 -155t-274.5 -56q-77 0 -123.5 36t-46.5 87q0 69 81.5 357.5t207.5 631.5z" />
    <glyph glyph-name="C" unicode="C" horiz-adv-x="901" 
d="M750 1235q78 -22 124 -68t46 -100q0 -39 -24 -67.5t-54 -28.5q-25 0 -38 20t-22 85q-3 24 -28 41.5t-60 17.5q-63 0 -137.5 -56t-155.5 -164q-110 -145 -175.5 -319t-65.5 -313q0 -101 49 -157t135 -56q55 0 117 21t135 65q33 20 86 59t74 39q8 0 14 -8.5t6 -20.5
q0 -21 -26.5 -54.5t-75.5 -72.5q-78 -62 -158.5 -96.5t-144.5 -34.5q-165 0 -262 86.5t-97 233.5q0 130 81 329.5t224 413.5q87 129 160 195.5t127 66.5q32 0 68.5 -14.5t77.5 -42.5z" />
    <glyph glyph-name="D" unicode="D" horiz-adv-x="1053" 
d="M479 1091q-115 -309 -194.5 -574.5t-110.5 -436.5q131 36 250.5 110.5t226.5 186.5q116 121 182 251.5t66 233.5q0 115 -82.5 175.5t-241.5 60.5q-7 0 -28.5 -1.5t-67.5 -5.5zM326 1130q-9 21 -13 38t-4 32q0 40 27 52t119 12q271 0 421 -123.5t150 -343.5
q0 -140 -85 -282.5t-251 -283.5q-143 -121 -292 -192.5t-251 -71.5q-59 0 -89.5 24t-30.5 70q0 93 83 405t216 664z" />
    <glyph glyph-name="E" unicode="E" horiz-adv-x="930" 
d="M256 414q-30 -97 -50 -166t-34 -121q220 28 338.5 40.5t163.5 12.5q50 0 75 -9.5t25 -29.5q0 -41 -97 -54q-13 -2 -20 -3q-129 -21 -310 -68t-228 -47q-40 0 -71.5 32t-31.5 75q0 26 66.5 274.5t218.5 792.5q23 82 49 96t160 14q67 0 220.5 -17.5t236.5 -23.5
q17 -1 25.5 -7t8.5 -17q0 -53 -247 -71q-180 -12 -299 -27q-37 -107 -76.5 -240t-85.5 -301q131 14 229 20t172 6q54 0 78.5 -10.5t24.5 -34.5q0 -28 -11.5 -42.5t-36.5 -16.5q-81 -4 -199 -17.5t-294 -39.5z" />
    <glyph glyph-name="F" unicode="F" horiz-adv-x="807" 
d="M266 397q-41 -132 -73.5 -273.5t-34.5 -147.5q-7 -17 -27.5 -25t-52.5 -8q-36 0 -55 14.5t-19 42.5q0 27 25.5 134t74.5 286q74 269 139 479t91 268q12 26 81 35.5t351 9.5q145 0 183 -15.5t38 -57.5q0 -18 -12.5 -27.5t-34.5 -9.5q-7 0 -28.5 2t-34.5 2q-39 0 -256 -30
q-104 -15 -166 -23q-57 -176 -93.5 -303t-56.5 -219q39 0 92.5 3t69.5 3q87 0 132.5 -15.5t45.5 -44.5q0 -59 -202 -69q-108 -5 -177 -11z" />
    <glyph glyph-name="G" unicode="G" horiz-adv-x="948" 
d="M745 403q-1 1 -5 1q-31 4 -46 4q-45 0 -137 -17.5t-137 -17.5q-46 0 -71 19t-25 52q0 28 122 56t267 28q92 0 124.5 -26.5t32.5 -95.5q0 -37 -48.5 -111t-125.5 -148q-93 -90 -186.5 -134t-192.5 -44q-37 0 -71 9.5t-70 29.5q-111 56 -146.5 100.5t-35.5 116.5
q0 134 60.5 312.5t162.5 339.5q102 159 234 274t182 115q20 0 52.5 -19.5t90.5 -66.5q63 -35 111.5 -100t48.5 -99q0 -12 -10 -24.5t-21 -12.5q-19 0 -76 81t-108 81q-43 0 -105.5 -37t-123.5 -100q-54 -55 -99.5 -115.5t-87.5 -130.5q-82 -139 -125 -265t-43 -229
q0 -81 28 -117t91 -36q138 0 273.5 89.5t215.5 237.5z" />
    <glyph glyph-name="H" unicode="H" horiz-adv-x="1022" 
d="M229 368q-40 -128 -73 -291q-29 -143 -76 -143q-37 0 -58.5 16.5t-21.5 43.5q0 49 80 349t199 649l12 39q44 138 112 138q42 0 74.5 -19.5t32.5 -45.5q0 -16 -26 -44t-40 -54q-30 -59 -78 -199.5t-93 -310.5q15 -1 30 -1.5t35 -0.5q58 0 153 5t203 15l30 98
q226 758 323 758q36 0 68 -20t32 -37q0 -19 -25 -41.5t-32 -31.5q-28 -42 -59 -119.5t-77 -223.5q-54 -172 -100.5 -350.5t-85.5 -362.5q-17 -84 -31.5 -103.5t-44.5 -19.5q-35 0 -59.5 24t-24.5 60q0 30 27 134q20 75 30 120q-179 -7 -277.5 -14t-158.5 -17z" />
    <glyph glyph-name="I" unicode="I" horiz-adv-x="469" 
d="M158 57v-16v-3q2 -11 2 -20q0 -16 -13.5 -25t-37.5 -9q-52 0 -77.5 17t-25.5 52q0 44 70 287t186 598q5 15 15 46q92 292 178 292q20 0 50 -24t30 -46q0 -7 -31 -80q-205 -492 -346 -1069z" />
    <glyph glyph-name="J" unicode="J" horiz-adv-x="772" 
d="M-66 106q-2 3 -7 8q-44 40 -44 64q0 27 27 53.5t53 26.5q18 0 29.5 -19t19.5 -61q23 -38 74.5 -63t108.5 -25q140 0 295 613q70 281 118 452q13 57 42 85t77 28q33 0 57.5 -16.5t24.5 -34.5q0 -5 -18.5 -50t-32.5 -92q-58 -183 -132 -445.5t-100 -334.5
q-52 -145 -159.5 -236.5t-206.5 -91.5q-66 0 -118 31.5t-108 107.5z" />
    <glyph glyph-name="K" unicode="K" horiz-adv-x="862" 
d="M319 657q100 106 246.5 238.5t388.5 333.5q31 26 53 37.5t40 11.5q17 0 25.5 -10t8.5 -29q0 -16 -10.5 -29.5t-28.5 -19.5q-86 -73 -222 -201.5t-437 -423.5q159 -157 260.5 -305t101.5 -209q0 -34 -33 -64t-65 -30q-11 0 -18.5 6t-7.5 14q0 5 6 15t6 16q0 35 -328 421
q-28 33 -43 50q-45 -159 -86 -316.5t-43 -162.5q-8 -20 -31 -31.5t-53 -11.5q-24 0 -38.5 14.5t-14.5 38.5q0 40 80 327.5t221 754.5q0 7 -2 17v3q0 59 30 95t76 36q32 0 58 -16.5t26 -40.5q0 -19 -60 -200t-106 -329z" />
    <glyph glyph-name="L" unicode="L" horiz-adv-x="750" 
d="M162 123q116 24 219 36.5t190 12.5q56 0 79.5 -13.5t23.5 -43.5q0 -31 -68 -38q-36 -4 -59 -7q-143 -20 -297.5 -56.5t-171.5 -36.5q-35 0 -51.5 23t-16.5 70q0 54 86 364.5t213 681.5q3 8 8 22q40 115 103 115q58 0 94.5 -14t36.5 -37q0 -18 -29 -62l-2 -4
q-138 -319 -231.5 -585t-126.5 -428z" />
    <glyph glyph-name="M" unicode="M" horiz-adv-x="1190" 
d="M485 1120q-178 -372 -317 -762.5t-162 -390.5q-29 0 -53.5 21.5t-24.5 44.5q0 44 99.5 294t259.5 603q21 47 52 121q72 172 159 172q56 0 89.5 -12t33.5 -31q0 -4 -11 -35q-115 -348 -145 -838q215 426 383.5 686t224.5 260q76 0 128 -17.5t52 -41.5q0 -6 -4.5 -14
t-13.5 -17q-99 -209 -180 -457.5t-133 -504.5q-7 -33 -16 -87q-19 -116 -60 -116q-29 0 -45.5 21t-16.5 59q0 139 81 426.5t222 644.5q-99 -118 -218.5 -311.5t-268.5 -477.5q-14 -25 -35 -69q-61 -119 -108 -119q-45 0 -76 22t-31 58q0 153 35.5 381.5t99.5 486.5z" />
    <glyph glyph-name="N" unicode="N" horiz-adv-x="977" 
d="M414 1017q-109 -305 -185.5 -556t-113.5 -422q-4 -16 -8 -41q-10 -53 -27 -53q-28 0 -58 18.5t-30 40.5t18 99.5t49 185.5q73 253 152.5 479.5t138.5 355.5q21 46 70.5 70.5t120.5 24.5q27 0 43 -6.5t16 -16.5q0 -9 -7 -27.5t-20 -44.5q-14 -57 -21 -121.5t-7 -146.5
q0 -169 15.5 -324.5t47.5 -300.5q77 337 234 764l8 21q11 29 28 79q66 187 130 187q18 0 30.5 -8.5t12.5 -20.5q0 -7 -7.5 -23t-21.5 -42q-114 -314 -194.5 -571.5t-120.5 -436.5q-2 -7 -6 -24q-24 -117 -103 -117q-19 0 -51.5 25t-48.5 53q-26 43 -58 255t-32 443
q0 39 1.5 89.5t4.5 112.5z" />
    <glyph glyph-name="O" unicode="O" horiz-adv-x="1102" 
d="M176 317q0 -118 57 -183.5t160 -65.5q100 0 197.5 68t175.5 192q78 125 126 287.5t48 299.5q0 112 -41.5 170t-122.5 58q-73 0 -148.5 -45.5t-154.5 -136.5q-141 -165 -219 -334t-78 -310zM827 1219q118 -17 179 -102.5t61 -233.5q0 -115 -35 -255.5t-96 -265.5
q-91 -184 -228.5 -294.5t-271.5 -110.5q-75 0 -164.5 34t-134.5 79q-50 45 -76 116.5t-26 163.5q0 132 55 280t160 294q114 160 240 260t204 100q33 0 63 -14.5t70 -50.5z" />
    <glyph glyph-name="P" unicode="P" horiz-adv-x="862" 
d="M301 571q203 31 354.5 161.5t151.5 256.5q0 61 -68 100t-176 39q-26 0 -49.5 -3.5t-44.5 -10.5q-52 -144 -94 -281t-74 -262zM268 451q-34 -127 -58.5 -226.5t-39.5 -175.5q-6 -42 -21 -59t-47 -17q-34 0 -62 15.5t-28 34.5q0 60 87 393t223 776v12q0 43 30 60.5
t103 17.5q217 0 348 -86t131 -227q0 -175 -186.5 -322t-479.5 -196z" />
    <glyph glyph-name="Q" unicode="Q" horiz-adv-x="1071" 
d="M463 113q-28 23 -73 56q-58 44 -58 62q0 13 10 21t27 8q34 0 92 -24t114 -64q146 114 237 322.5t91 431.5q0 115 -32.5 168t-102.5 53q-79 0 -148.5 -39t-144.5 -125q-137 -158 -225 -358.5t-88 -343.5q0 -101 40 -153t117 -52q35 0 72.5 9.5t71.5 27.5zM575 33
q-58 -28 -118 -43t-115 -15q-131 0 -224 98t-93 249q0 177 102 396t283 423q72 82 126.5 118.5t102.5 36.5q34 0 66 -11.5t67 -37.5q132 -11 197 -106.5t65 -278.5q0 -219 -97.5 -428t-258.5 -332q82 -85 111.5 -122t29.5 -52q0 -32 -24 -64t-47 -32q-3 0 -49 68t-124 133z
" />
    <glyph glyph-name="R" unicode="R" horiz-adv-x="930" 
d="M306 602q205 7 363 125t158 246q0 81 -86 139.5t-206 58.5q-6 0 -23.5 -1.5t-26.5 -2.5q-62 -171 -106.5 -310t-72.5 -255zM244 414q-10 -33 -36 -135t-61 -241q-1 -24 -12.5 -38t-32.5 -14q-24 0 -53 32t-29 66q0 23 23 126t59 234q82 295 149.5 513t98.5 288
q15 35 57 49.5t128 14.5q172 0 306 -112t134 -234q0 -147 -164 -269t-446 -182q126 -140 260.5 -248l134.5 -108q0 -21 -29 -47.5t-59 -26.5q-45 0 -158.5 87.5t-269.5 244.5z" />
    <glyph glyph-name="S" unicode="S" horiz-adv-x="819" 
d="M780 1135q87 -54 115.5 -86.5t28.5 -69.5q0 -19 -24 -36t-46 -17q-24 0 -51 29.5t-49 80.5q-2 4 -4 10q-17 50 -62 50q-53 0 -114 -42t-119 -120q-60 -78 -91.5 -163t-31.5 -167q0 -67 42.5 -144t117.5 -147q16 -15 49 -42q90 -74 90 -130q0 -73 -78.5 -124.5
t-198.5 -51.5q-160 0 -291 100.5t-131 196.5q0 25 20.5 47.5t43.5 22.5q19 0 33 -37q7 -17 12 -27q43 -86 120 -131t181 -45q51 0 82.5 20t42.5 60q-10 41 -47 88t-113 115q-87 76 -114 133.5t-27 136.5q0 102 50 215.5t146 233.5q67 81 126.5 127.5t95.5 46.5q2 0 11 -3.5
t15 -4.5h6q45 0 77.5 -22.5t86.5 -102.5z" />
    <glyph glyph-name="T" unicode="T" horiz-adv-x="868" 
d="M491 1073q-79 -5 -162.5 -12.5t-88.5 -7.5q-29 0 -46.5 23t-17.5 61q0 32 185 59t448 27q132 0 183.5 -16.5t51.5 -57.5q0 -11 -6 -33q-1 -4 -2 -6q-116 -5 -207 -11t-159 -14q-113 -329 -202.5 -608t-131.5 -428q-19 -67 -35 -85.5t-47 -18.5q-32 0 -52 18t-20 47
q0 44 85 336.5t224 726.5z" />
    <glyph glyph-name="U" unicode="U" horiz-adv-x="1020" 
d="M630 247q-76 -127 -165.5 -204.5t-157.5 -77.5q-102 0 -167.5 71.5t-65.5 192.5q0 114 66 347.5t175 479.5q5 11 12 27q66 150 134 150q34 0 63 -20t29 -48q0 -15 -8 -27t-25 -22q-144 -314 -221.5 -562.5t-77.5 -395.5q0 -49 16 -78t42 -29q30 0 77.5 34.5t104.5 98.5
q73 83 124 164t72 148q100 301 161.5 480.5t84.5 237.5q15 38 34 52t52 14q60 0 94.5 -19.5t34.5 -52.5q0 -20 -7.5 -32.5t-27.5 -22.5q-150 -322 -241.5 -611.5t-91.5 -404.5q0 -40 8 -79q2 -9 2 -11q0 -12 -17.5 -26.5t-35.5 -14.5q-38 0 -60 46.5t-22 125.5
q0 15 1.5 32.5t3.5 36.5z" />
    <glyph glyph-name="V" unicode="V" horiz-adv-x="844" 
d="M297 123q164 341 330.5 626.5t304.5 464.5q7 10 20 27q47 64 95 64q28 0 41.5 -5t13.5 -16q0 -30 -56 -101q-38 -49 -59 -81q-118 -178 -284 -468.5t-341 -627.5q-22 -17 -62.5 -29t-80.5 -12q-49 0 -66.5 41t-17.5 193v100q0 185 22 385t72 459q8 36 24 53.5t40 17.5
q25 0 70 -28t45 -53q0 -16 -20 -91q-97 -380 -97 -743q0 -46 1.5 -89.5t4.5 -86.5z" />
    <glyph glyph-name="W" unicode="W" horiz-adv-x="1214" 
d="M643 846q-97 -169 -183 -344.5t-192 -423.5q-21 -51 -41 -67.5t-51 -16.5q-35 0 -63.5 27t-28.5 59q0 48 15.5 196.5t41.5 323.5q27 187 55.5 332.5t49.5 204.5q12 34 40.5 54.5t59.5 20.5q23 0 35 -12.5t12 -36.5q0 -15 -68.5 -335t-117.5 -644q165 389 306.5 626
t203.5 237q10 0 19 -3.5t20 -11.5q19 -6 29 -18t10 -31q0 -14 -12 -77q-50 -283 -50 -552q0 -60 2 -113.5t6 -103.5q114 307 222 562t215 466q29 60 55.5 82.5t64.5 22.5q27 0 43.5 -9t16.5 -22q0 -11 -57 -125q-254 -507 -443 -1024q-2 -5 -6 -17q-40 -114 -125 -114
q-67 0 -91 86t-24 369q0 108 8 216.5t23 215.5z" />
    <glyph glyph-name="X" unicode="X" horiz-adv-x="844" 
d="M326 547q-53 181 -86 331.5t-33 194.5q0 31 18 50.5t47 19.5q3 0 8.5 -1t8.5 -1q2 1 7 2q17 6 21 6q52 0 63 -10t15 -49q10 -95 25 -191.5t37 -196.5q72 87 187 231q249 312 351 312q15 0 28 -13.5t13 -27.5q0 -10 -10 -21.5t-29 -21.5q-144 -163 -267 -314.5
t-238 -307.5q60 -245 105.5 -360t92.5 -146q-9 -24 -28.5 -36.5t-45.5 -12.5q-66 0 -123 95t-128 329q-111 -142 -225.5 -318t-141.5 -176q-29 0 -47.5 20t-18.5 52q0 54 351 506z" />
    <glyph glyph-name="Y" unicode="Y" horiz-adv-x="807" 
d="M414 635q204 315 358.5 506.5t200.5 191.5q22 0 36.5 -18t14.5 -41q0 -11 -122 -162t-224 -289q-15 -19 -45 -58q-134 -172 -191 -323q-53 -142 -95 -322q-34 -143 -79 -143q-36 0 -62 27.5t-26 67.5q0 39 35 170.5t92 294.5q-50 212 -78 376.5t-28 247.5q0 39 20 59.5
t60 20.5q72 0 95 -268q18 -201 38 -338z" />
    <glyph glyph-name="Z" unicode="Z" horiz-adv-x="909" 
d="M156 115q112 20 214.5 30.5t196.5 10.5q53 0 77 -19.5t24 -60.5q0 -26 -17 -36.5t-71 -12.5q-108 -5 -248.5 -24t-321.5 -54q-35 26 -52 51.5t-17 50.5q0 61 154 239l1 1q360 411 507 565t249 238q-309 -18 -591 -89q-45 -12 -52 -12q-18 0 -40 22t-22 40q0 10 7.5 18
t23.5 14q153 70 353.5 112t377.5 42q52 0 96 -22.5t44 -49.5q0 -41 -46 -76q-25 -19 -38 -32q-227 -226 -434 -467.5t-375 -478.5z" />
    <glyph glyph-name="bracketleft" unicode="[" horiz-adv-x="606" 
d="M203 -240q28 -5 46 -6.5t27 -1.5q15 0 41 1t37 1q20 0 29.5 -5.5t9.5 -16.5q0 -25 -51 -39.5t-141 -14.5q-62 0 -88.5 26t-26.5 87q0 43 7.5 118t21.5 159q61 372 138 679.5t144 462.5q18 40 67 57t144 17q38 0 57 -6t19 -18q0 -23 -87 -41q-48 -10 -77 -17
q-128 -445 -210 -820t-107 -622z" />
    <glyph glyph-name="backslash" unicode="\" horiz-adv-x="469" 
d="M143 1227l-2 4q-6 11 -6 16q0 20 14.5 36.5t32.5 16.5q22 0 43.5 -20.5t28.5 -48.5q9 -39 16.5 -88.5t12.5 -104.5q31 -319 47 -609.5t16 -514.5q0 -59 -15 -81.5t-59 -22.5q-27 0 -37 18.5t-12 74.5q-21 591 -39.5 894t-40.5 430z" />
    <glyph glyph-name="bracketright" unicode="]" horiz-adv-x="606" 
d="M393 1202q-14 2 -40 5t-34 3q-14 0 -40 -2t-37 -2q-19 0 -28 6.5t-9 18.5q0 24 50.5 37.5t141.5 13.5q62 0 88.5 -25.5t26.5 -87.5q0 -34 -8.5 -110.5t-22.5 -163.5q-63 -382 -140 -692.5t-140 -452.5q-18 -38 -67.5 -55t-145.5 -17q-40 0 -58 5.5t-18 17.5q0 22 89 41
q45 9 75 17q128 446 210 820.5t107 622.5z" />
    <glyph glyph-name="asciicircum" unicode="^" horiz-adv-x="2048" 
d="M1104 1458l520 -557h-158l-442 438l-442 -438h-160l520 557h162z" />
    <glyph glyph-name="underscore" unicode="_" 
d="M1024 -365v-118h-1024v118h1024z" />
    <glyph glyph-name="grave" unicode="`" 
d="M530 727q-9 0 -18.5 5.5t-15.5 15.5l-4 7q-6 9 -50 67.5t-67 101.5l-6 10q-2 4 -2 8q0 7 3.5 9.5t14.5 2.5h94q9 0 16 -6.5t11 -20.5l2 -7q14 -48 34 -94t38 -72l6 -7q2 -3 3 -5.5t1 -6.5t-4 -6t-13 -2h-43z" />
    <glyph glyph-name="a" unicode="a" horiz-adv-x="537" 
d="M276 471q0 14 -8 22.5t-22 8.5q-34 0 -78 -46t-88 -128q-42 -79 -67 -149.5t-25 -106.5q1 -15 4.5 -19.5t11.5 -3.5q20 0 56.5 35t74.5 92q59 88 100 180.5t41 114.5zM211 155q-50 -91 -109 -140.5t-116 -49.5q-46 0 -74.5 34.5t-28.5 88.5q0 71 27 154t80 172
q51 92 110.5 145t110.5 53q27 0 50 -14t46 -45q20 6 32 8t23 2q36 0 59 -15.5t23 -37.5q0 -14 -27 -69q-23 -45 -36 -74q-38 -84 -60 -153t-22 -97q0 -15 4 -21t14 -6q15 0 42.5 30.5t93.5 123.5q12 17 28 42q17 27 25 27q11 0 22 -16t11 -29q0 -16 -32 -71.5t-79 -116.5
q-36 -47 -65.5 -66.5t-61.5 -19.5q-44 0 -68 31.5t-24 89.5q0 16 0.5 25t1.5 15z" />
    <glyph glyph-name="b" unicode="b" horiz-adv-x="541" 
d="M309 512q-27 0 -74.5 -37.5t-99.5 -101.5q-58 -70 -86.5 -139.5t-28.5 -141.5q0 -36 16.5 -54t49.5 -18q35 0 64.5 23.5t60.5 75.5q58 98 92.5 194t34.5 150q0 21 -8.5 35t-20.5 14zM115 451q61 77 114.5 114t102.5 37t76.5 -43t27.5 -121t-38.5 -182.5t-104.5 -200.5
q-32 -47 -81.5 -74.5t-100.5 -27.5q-30 0 -56.5 12t-58.5 41q-53 7 -68 16t-16 29q0 66 68.5 311.5t175.5 534.5q42 112 64 150t42 38q12 0 26 -8.5t29 -25.5q15 -9 23 -16.5t8 -12.5q0 -13 -22 -32t-29 -27q-25 -31 -79.5 -179.5t-102.5 -332.5z" />
    <glyph glyph-name="c" unicode="c" horiz-adv-x="451" 
d="M266 544l-8 1q-14 0 -29.5 -10t-29.5 -29q-71 -91 -118.5 -214.5t-47.5 -201.5q0 -47 16 -70.5t49 -23.5q53 0 110.5 40.5t125.5 125.5q32 40 60 89.5t34 49.5q9 0 23 -10t14 -21q0 -16 -18 -54.5t-48 -82.5q-61 -92 -136.5 -141t-153.5 -49q-84 0 -133.5 48.5
t-49.5 131.5q0 112 61.5 258t141.5 225q21 20 44 28.5t54 8.5q22 0 41.5 -7t41.5 -22q33 -6 52 -34t19 -72q0 -69 -36 -143t-75 -74q-22 0 -39.5 16.5t-17.5 36.5q0 31 23 98.5t30 101.5z" />
    <glyph glyph-name="d" unicode="d" horiz-adv-x="522" 
d="M280 445q-11 14 -21 20t-21 6q-24 0 -55 -32t-77 -103q-49 -76 -77.5 -157t-28.5 -138q0 -18 10 -31.5t23 -13.5q43 0 113.5 125t133.5 324zM211 106q-44 -91 -97 -145.5t-96 -54.5q-48 0 -82 49.5t-34 122.5q0 96 55 214.5t145 211.5q25 24 45 35.5t39 11.5
q23 0 50.5 -14.5t58.5 -42.5q35 99 88 257q99 293 143 293q33 0 54.5 -13.5t21.5 -33.5t-37 -98q-26 -55 -41 -90q-96 -222 -153.5 -418t-57.5 -280q0 -20 5.5 -30.5t15.5 -10.5q17 0 42.5 27.5t73.5 100.5q10 15 22 39q16 31 28 31q8 0 14 -5.5t6 -12.5q0 -12 -12 -40.5
t-35 -72.5q-45 -86 -83 -123t-81 -37t-68.5 33.5t-29.5 95.5z" />
    <glyph glyph-name="e" unicode="e" horiz-adv-x="408" 
d="M117 291q33 0 65.5 73t32.5 144q0 12 -7.5 21.5t-17.5 9.5q-28 0 -70 -71.5t-42 -115.5q0 -28 10.5 -44.5t28.5 -16.5zM45 256q-7 -26 -10.5 -52.5t-3.5 -56.5q0 -57 15.5 -86.5t45.5 -29.5q56 0 132.5 70t133.5 177q5 9 14 27q20 41 31 41t21 -11.5t10 -27.5
q0 -20 -24 -66t-64 -98q-74 -95 -138.5 -136.5t-137.5 -41.5q-77 0 -115.5 44.5t-38.5 133.5q0 94 44.5 225t113.5 232q22 32 47.5 49t50.5 17q13 0 26 -5t30 -16q14 -4 36 -10q60 -16 60 -72q0 -126 -71 -231t-147 -105q-16 0 -31.5 7.5t-29.5 21.5z" />
    <glyph glyph-name="f" unicode="f" horiz-adv-x="379" 
d="M190 410q-49 -142 -78 -309q-21 -126 -85 -126q-27 0 -40.5 11t-13.5 32q0 34 28.5 139.5t78.5 254.5h-6q-37 0 -58.5 13t-21.5 34q0 16 27.5 27.5t87.5 19.5q88 334 215.5 540.5t232.5 206.5q15 0 29.5 -15.5t27.5 -47.5q9 -10 23 -26q45 -50 45 -66q0 -15 -16.5 -28
t-32.5 -13q-22 0 -40 30.5t-42 30.5q-114 0 -316 -573l-12 -33q6 0 18.5 -1t18.5 -1q61 0 81.5 -9.5t20.5 -37.5q0 -31 -25 -42t-124 -11h-23z" />
    <glyph glyph-name="g" unicode="g" horiz-adv-x="502" 
d="M-37 68q0 -24 10 -36t29 -12t40 19t52 63q73 102 119.5 197.5t46.5 136.5q0 22 -12 34.5t-33 12.5q-27 0 -70.5 -47t-93.5 -133q-40 -69 -64 -135t-24 -100zM197 131q-69 -97 -112.5 -134.5t-82.5 -37.5q-51 0 -82 37.5t-31 101.5q0 86 43.5 196.5t114.5 201.5
q43 54 69 71t58 17q24 0 53.5 -15t68.5 -48q28 6 37 7.5t15 1.5q31 0 51.5 -17t20.5 -44q0 -7 -17 -44q-76 -171 -129 -393q-13 -55 -36 -177.5t-43 -165.5q-27 -59 -94.5 -93t-155.5 -34q-78 0 -126 25t-48 63q0 17 8.5 28t21.5 11q11 0 18.5 -9t16.5 -27q23 -9 46 -13.5
t48 -4.5q54 0 94 15.5t68 46.5q18 45 39.5 132t65.5 302z" />
    <glyph glyph-name="h" unicode="h" horiz-adv-x="502" 
d="M221 311q-35 -57 -89 -152q-121 -212 -185 -212q-33 0 -47.5 13.5t-14.5 43.5q0 64 74.5 288t198.5 521q8 19 22 54q103 249 172 249q14 0 24.5 -9.5t10.5 -21.5q0 -7 -37 -87q-202 -439 -360 -922q60 89 151 233q160 254 232 254q20 0 33.5 -14.5t13.5 -36.5
q0 -15 -4 -29.5t-15 -36.5q-72 -154 -102.5 -236t-30.5 -120q0 -14 4.5 -21.5t12.5 -7.5q22 0 57 39.5t94 132.5q3 5 8 13q23 37 35 37q7 0 22 -17t15 -28q0 -19 -35 -79t-84 -112q-33 -35 -64.5 -51t-66.5 -16q-44 0 -68 26.5t-24 77.5q0 37 10.5 88.5t36.5 138.5z" />
    <glyph glyph-name="i" unicode="i" horiz-adv-x="307" 
d="M135 612q-31 0 -50 16t-19 44q0 37 39 61.5t81 24.5q27 0 40.5 -13t13.5 -38q0 -36 -32.5 -65.5t-72.5 -29.5zM57 -18q-53 0 -84.5 45t-31.5 123q0 91 30 208t60 160q12 19 38 30t58 11q18 0 28.5 -8.5t10.5 -24.5q0 -6 -14 -42l-15 -40l-13 -37q-85 -232 -85 -292
q0 -23 8.5 -34t26.5 -11q26 0 75 50t97 130q6 11 17 32q17 33 26 33q12 0 24.5 -11.5t12.5 -27.5q0 -7 -35 -66q-17 -29 -27 -46q-58 -99 -106 -140.5t-101 -41.5z" />
    <glyph glyph-name="j" unicode="j" horiz-adv-x="217" 
d="M-233 -371q45 49 120 383q47 214 81 349q6 25 14 60q33 142 98 142q29 0 44 -10.5t15 -30.5q0 -13 -7 -27t-23 -32q-54 -187 -110.5 -455.5t-90.5 -322.5q-34 -55 -100.5 -96.5t-129.5 -41.5q-93 0 -161 47.5t-68 104.5q0 12 8 21.5t19 9.5q8 0 17.5 -12.5t15.5 -28.5
q42 -34 92.5 -53t99.5 -19q16 0 32.5 3t33.5 9zM203 717q0 -35 -34 -71t-75 -36q-29 0 -45 14.5t-16 39.5q0 35 31 63.5t71 28.5q42 0 55 -8.5t13 -30.5z" />
    <glyph glyph-name="k" unicode="k" horiz-adv-x="502" 
d="M25 182q-23 -64 -44 -154q-23 -96 -55 -96q-25 0 -42 15.5t-17 36.5q0 13 46 166q23 72 36 116q109 363 153.5 504t67.5 203l2 6q30 86 86 86q24 0 44 -16t20 -33q-1 -2 -5 -7q-35 -41 -69 -122q-40 -96 -83.5 -231t-90.5 -312q32 27 86 76q186 162 231 162
q33 0 46.5 -4.5t13.5 -14.5q0 -12 -92 -87.5t-169 -151.5q20 -137 47.5 -210t59.5 -73q23 0 54 37t108 166q2 4 5 9q15 29 28 30q8 0 20 -12t12 -25q0 -22 -31 -83t-77 -118q-36 -44 -74 -65t-82 -21q-58 0 -98.5 52.5t-91.5 205.5z" />
    <glyph glyph-name="l" unicode="l" horiz-adv-x="408" 
d="M150 403q128 241 210 451t82 270q0 11 -5 17t-13 6q-3 0 -13 -3q-4 -1 -5 -1q-84 -214 -148 -399t-108 -341zM16 225q-9 -2 -13 -2.5t-9 -1.5q-18 0 -30.5 18.5t-12.5 39.5q0 15 34 20t58 29q58 221 124 430t140 406q-1 4 -1.5 8t-0.5 12q0 25 34.5 49t66.5 24
q42 0 85.5 -42.5t43.5 -77.5q0 -89 -113 -341.5t-291 -519.5q-6 -34 -9 -61.5t-3 -50.5q0 -67 12.5 -95t40.5 -28q27 0 60 34t81 111q19 30 41.5 72.5t30.5 42.5q10 0 27.5 -14.5t17.5 -24.5q0 -2 -1.5 -6t-4.5 -10q-58 -114 -87 -159t-56 -73q-32 -31 -61.5 -45t-63.5 -14
q-55 0 -100.5 55t-45.5 123q0 25 1.5 47.5t4.5 44.5z" />
    <glyph glyph-name="m" unicode="m" horiz-adv-x="725" 
d="M453 63q-17 16 -25 33.5t-8 40.5q0 45 76 264l6 17q-50 -84 -119 -218q-101 -194 -154 -194q-29 0 -46 17t-17 47q0 31 38 199q8 37 13 58q-61 -95 -127 -228q-61 -124 -100 -124q-48 0 -69 21t-21 67q0 29 49 189q36 115 57 188q21 72 34.5 89.5t37.5 17.5
q28 0 52 -23.5t24 -52.5q0 -16 -22.5 -41t-32.5 -44q-14 -25 -43 -118t-58 -211q138 254 208 353.5t107 99.5q19 0 31 -15.5t16 -44.5l-16 -30q-25 -69 -44 -144t-32 -157q126 243 204 360t114 117q12 0 22.5 -10.5t20.5 -32.5q12 -11 18 -21.5t6 -19.5t-6.5 -22t-28.5 -46
q-47 -72 -80.5 -164.5t-33.5 -134.5q0 -22 7 -33.5t21 -11.5q23 0 48.5 28.5t78.5 119.5q17 28 33.5 63t20.5 35q12 0 29.5 -17.5t17.5 -31.5q0 -15 -20.5 -57.5t-53.5 -94.5q-44 -70 -81.5 -103.5t-69.5 -33.5q-20 0 -40.5 13.5t-41.5 41.5z" />
    <glyph glyph-name="n" unicode="n" horiz-adv-x="526" 
d="M242 350q-52 -85 -119 -213q-82 -155 -123 -155q-38 0 -62 23.5t-24 64.5q0 50 32.5 181t82.5 249q17 41 32.5 54t42.5 13q23 0 42.5 -13.5t19.5 -31.5q0 -4 -13 -31q-84 -172 -118 -368q133 256 207.5 366.5t113.5 110.5q32 0 60 -22t28 -50q0 -17 -20 -33t-21 -16
q-5 -7 -19 -43.5t-30 -87.5q-21 -72 -34 -138.5t-13 -98.5q0 -21 5.5 -33t15.5 -12q32 0 122 153q16 28 25 43q3 5 8 16q10 23 27 23q10 0 26.5 -14.5t16.5 -24.5q0 -20 -46.5 -105t-103.5 -143q-20 -20 -41 -30.5t-43 -10.5q-51 0 -79.5 42t-28.5 118q0 35 7.5 89t23.5 128
z" />
    <glyph glyph-name="o" unicode="o" horiz-adv-x="473" 
d="M218 514l4 1q19 3 32 3q43 0 70 -44t28 -117q53 16 97 71t57 55q15 0 24 -7.5t9 -20.5q0 -16 -9 -32t-28 -36q-37 -54 -78 -85.5t-86 -39.5q-44 -156 -114 -237.5t-161 -81.5q-68 0 -108.5 44.5t-40.5 121.5q0 67 33 161.5t88 180.5q31 49 61.5 73.5t61.5 24.5
q20 0 35.5 -9t24.5 -26zM33 98q0 -32 10.5 -47.5t32.5 -15.5q53 0 114.5 117t61.5 225q0 27 -10 42t-27 15q-50 0 -116 -115.5t-66 -220.5z" />
    <glyph glyph-name="p" unicode="p" horiz-adv-x="502" 
d="M29 120q3 -28 22.5 -46.5t44.5 -18.5q39 0 69.5 33.5t63.5 114.5q26 63 40 121.5t14 105.5q0 31 -8 47.5t-23 16.5q-36 0 -105 -109t-118 -265zM109 465q52 76 87.5 108.5t65.5 32.5q53 0 87 -51.5t34 -134.5q0 -169 -85 -308t-183 -139q-38 0 -70.5 20t-44.5 50
q-43 -188 -67.5 -312t-24.5 -157q0 -13 9 -24t9 -13q0 -16 -13 -27.5t-30 -11.5q-38 0 -58 16t-20 48q0 51 47.5 277.5t120.5 502.5q10 36 27 100q80 299 127 299q19 0 35 -12t16 -29q0 -13 -26 -91.5t-43 -143.5z" />
    <glyph glyph-name="q" unicode="q" horiz-adv-x="551" 
d="M219 133q-60 -74 -107 -108.5t-87 -34.5q-22 0 -41.5 15.5t-32.5 43.5q-18 22 -26.5 45.5t-8.5 50.5q0 85 58 194.5t169 238.5q25 26 37 33t27 7q36 0 71 -14t78 -47q15 7 26 9.5t21 2.5q25 0 48.5 -19.5t23.5 -39.5q0 -6 -13 -27.5t-22 -42.5q-85 -205 -149 -426.5
t-96 -425.5q1 -1 4 -3q18 -12 18 -23q0 -15 -34.5 -33t-63.5 -18q-21 0 -32 12t-11 35q0 10 7 35q1 3 1 4q8 85 37.5 204.5t97.5 331.5zM-4 109q0 -15 6 -23t16 -8q42 0 87 42t116 152q41 64 65.5 123t24.5 88q0 13 -9.5 23t-20.5 10q-26 0 -65 -33t-83 -92
q-64 -86 -100.5 -162t-36.5 -120z" />
    <glyph glyph-name="r" unicode="r" horiz-adv-x="436" 
d="M41 535q-19 12 -27 22t-8 23q0 32 36 63t79 31q22 0 36.5 -12.5t14.5 -30.5q0 -9 -2.5 -23t-7.5 -32l68 -20q6 11 16.5 22.5t25.5 23.5q9 3 16 4.5t11 1.5q24 0 48 -17t24 -36q0 -15 -10 -29t-33 -32q-64 -106 -96.5 -201t-32.5 -170q0 -24 8 -39.5t20 -15.5
q31 0 71.5 48t84.5 138q5 10 13 27q20 45 34 45q13 0 25 -11t12 -24q0 -15 -17 -51t-47 -84q-63 -102 -105.5 -138t-92.5 -36q-57 0 -89 35.5t-32 97.5t20.5 143.5t63.5 187.5l-55 17q-52 -144 -88 -206t-66 -62q-12 0 -19.5 8t-7.5 22q0 4 14 34q61 136 95 276z" />
    <glyph glyph-name="s" unicode="s" horiz-adv-x="342" 
d="M-63 87q35 -17 71 -30.5t76 -25.5q0 27 -18.5 113t-26.5 147q-15 -46 -40 -96.5t-62 -107.5zM-109 18l-18 -12q-35 -24 -45 -24q-14 0 -19.5 11t-5.5 40q0 4 20 31q176 246 247 569q0 4 1 12t1 10q0 26 12 41t33 15q25 0 62.5 -22.5t37.5 -37.5q0 -1 -7 -10
q-81 -101 -81 -252q0 -75 30.5 -192t30.5 -160q0 -56 -30.5 -95.5t-65.5 -39.5q-33 0 -100.5 51t-102.5 65z" />
    <glyph glyph-name="t" unicode="t" horiz-adv-x="303" 
d="M94 772q-55 -4 -99 -6t-65 -2q-43 0 -66.5 14t-23.5 39q0 23 50 35t245 27q33 105 53 133t52 28q26 0 43.5 -11t17.5 -28l-16.5 -37.5t-26.5 -78.5q51 4 97.5 6t84.5 2q94 0 132 -14t38 -48q0 -12 -12 -17t-53 -5q-46 0 -155.5 -9.5t-166.5 -13.5q-81 -215 -128.5 -398
t-47.5 -267q0 -28 9.5 -44t25.5 -16q25 0 58 33t69 94q26 45 50.5 103.5t33.5 58.5q19 0 34 -12t15 -27q0 -21 -37 -94.5t-92 -146.5q-32 -44 -72 -67t-84 -23q-50 0 -80 43.5t-30 117.5q0 88 38 250.5t109 380.5z" />
    <glyph glyph-name="u" unicode="u" horiz-adv-x="559" 
d="M240 172q-46 -94 -92 -141t-91 -47q-24 0 -43 9t-37 30q-21 21 -29.5 43t-8.5 53q0 86 35.5 212t93.5 234q12 24 26.5 34.5t32.5 10.5q28 0 48 -20.5t20 -46.5q0 -7 -4 -15t-13 -18q-62 -128 -96.5 -233t-34.5 -162q0 -30 8 -43t27 -13q40 0 98.5 110.5t145.5 348.5
q4 37 22 58.5t45 21.5t51.5 -21t24.5 -45q0 -6 -22 -51q-107 -219 -107 -377q0 -25 5 -40t13 -15q32 0 69.5 51t84.5 158q2 5 5 12q12 31 30 31q10 0 27.5 -14.5t17.5 -24.5q0 -14 -32.5 -82t-74.5 -125q-33 -46 -66 -67t-73 -21q-50 0 -81.5 40t-31.5 106q1 8 2.5 23.5
t4.5 35.5z" />
    <glyph glyph-name="v" unicode="v" horiz-adv-x="436" 
d="M61 84q178 372 254 487t129 115q31 0 44.5 -6t13.5 -21q0 -7 -28 -37q-4 -4 -7 -8q-102 -158 -186.5 -305.5t-143.5 -269.5q-18 -39 -41 -51.5t-67 -12.5q-49 0 -62.5 20.5t-13.5 121.5q0 189 36.5 323.5t80.5 134.5q24 0 55 -21t31 -38q0 -10 -8 -22t-25 -29
q-26 -63 -41.5 -160t-20.5 -221z" />
    <glyph glyph-name="w" unicode="w" horiz-adv-x="692" 
d="M211 137q-37 -90 -82.5 -141t-87.5 -51q-43 0 -80 42t-37 101q0 64 23.5 158.5t64.5 189.5q25 60 42.5 79.5t39.5 19.5q25 0 47.5 -19.5t28.5 -46.5q-9 -15 -18.5 -27.5t-18.5 -21.5q-44 -104 -70 -200t-26 -144q0 -14 3 -21.5t9 -7.5q26 0 70 81.5t162 363.5q6 6 11.5 9
t10.5 3q33 0 62.5 -17.5t29.5 -35.5q0 -3 -8 -20q-74 -140 -74 -294q0 -19 3.5 -27.5t11.5 -9.5q36 0 96.5 136t103.5 333q-2 13 -12 30.5t-10 25.5q0 10 11 17t28 7q30 0 55 -22.5t25 -46.5q0 -47 -35.5 -174.5t-87.5 -235.5q-47 -96 -88 -138t-86 -42q-10 0 -21 3t-34 15
q-31 5 -46.5 37t-15.5 92z" />
    <glyph glyph-name="x" unicode="x" horiz-adv-x="508" 
d="M110 110q-10 -13 -33 -42q-76 -96 -117 -152q-8 -3 -14 -4.5t-14 -1.5q-20 0 -35.5 13t-15.5 28q0 22 39.5 79.5t149.5 190.5q-20 70 -30.5 124t-10.5 79q0 50 40.5 87.5t73.5 37.5q30 0 39 -96q5 -57 11 -92q157 173 213 222.5t86 49.5q19 0 34 -12t15 -25
q0 -14 -15.5 -30t-52.5 -40q-44 -39 -107.5 -112t-148.5 -183q15 -79 39 -127.5t45 -48.5q15 0 53.5 48t77.5 120q10 18 25 48q25 51 37 51t32.5 -18.5t20.5 -29.5q0 -14 -35 -84.5t-80 -130.5q-35 -47 -75 -70.5t-85 -23.5q-57 0 -92 31.5t-70 113.5z" />
    <glyph glyph-name="y" unicode="y" horiz-adv-x="487" 
d="M182 170q-35 -69 -75.5 -107t-75.5 -38q-15 0 -25 6t-18 20q-22 17 -32.5 44t-10.5 65q0 145 56.5 287.5t111.5 142.5q25 0 50 -17.5t25 -35.5q0 -9 -5.5 -15.5t-18.5 -11.5q-51 -104 -81 -205.5t-30 -157.5q0 -9 3.5 -14.5t9.5 -5.5q27 0 103.5 127t127.5 282q4 14 9 42
q12 71 71 71q29 0 48 -11.5t24 -31.5q6 -6 9 -13t3 -15q-1 -12 -7.5 -20.5t-20.5 -16.5q-109 -199 -152.5 -460.5t-44.5 -265.5q-24 -86 -108 -144t-171 -58q-51 0 -88.5 22.5t-77.5 75.5q-21 15 -31 33.5t-10 42.5q0 27 10.5 38t34.5 11q23 0 35 -59q3 -15 7 -30
q30 -23 71 -36.5t90 -13.5q10 0 21 0.5t34 3.5q48 24 106 341q15 82 23 128z" />
    <glyph glyph-name="z" unicode="z" horiz-adv-x="559" 
d="M97 99q38 6 100 19q76 15 94 15q35 0 56.5 -14.5t21.5 -38.5q0 -13 -5 -19.5t-22 -9.5q-56 -8 -154 -44t-133 -36q-37 0 -71.5 33.5t-34.5 61.5q0 32 119.5 156.5t342.5 323.5q-73 -7 -162.5 -19.5t-105.5 -12.5q-17 0 -30 16.5t-17 44.5q119 38 210 56t161 18
q35 0 60.5 -22t25.5 -49q0 -33 -167.5 -190.5t-288.5 -288.5z" />
    <glyph glyph-name="braceleft" unicode="{" 
d="M858 1350q-8 0 -23 1t-22 1q-121 0 -164 -47t-43 -197v-242q0 -166 -43.5 -235.5t-154.5 -100.5q111 -30 154.5 -99.5t43.5 -235.5v-242q0 -149 43.5 -195.5t169.5 -46.5h39v-125h-35q-99 0 -159.5 12t-102.5 40q-55 36 -77.5 100t-22.5 213v244q0 152 -55 213t-189 61
q-7 0 -22 -1t-23 -1v127q8 0 23 -1t22 -1q134 0 189 61.5t55 214.5v244q0 153 22.5 215.5t77.5 97.5q42 28 102 40t160 12h35v-127z" />
    <glyph glyph-name="bar" unicode="|" 
d="M575 1565v-2048h-126v2048h126z" />
    <glyph glyph-name="braceright" unicode="}" 
d="M563 1112v-244q0 -152 55.5 -214t190.5 -62q7 0 22 1t23 1v-127q-8 0 -23 1t-22 1q-135 0 -190.5 -62t-55.5 -214v-242q0 -153 -22 -216.5t-76 -99.5q-39 -26 -97.5 -37.5t-160.5 -11.5h-41v125q8 0 23 -1t22 -1q120 0 163.5 47.5t43.5 198.5v240q0 166 43.5 235.5
t154.5 99.5q-111 31 -154.5 100.5t-43.5 235.5v242q0 149 -44 196.5t-169 47.5h-39v125h35q100 0 161 -12.5t103 -39.5q54 -35 76 -98t22 -215z" />
    <glyph glyph-name="asciitilde" unicode="~" horiz-adv-x="1706" 
d="M1530 627q-101 -72 -197.5 -108t-189.5 -36q-43 0 -90.5 9t-100.5 26q-30 10 -87 31q-202 72 -302 72q-83 0 -173.5 -37.5t-211.5 -122.5v133q105 73 202 109t185 36q56 0 116.5 -12.5t174.5 -52.5q14 -5 44 -16q158 -58 245 -58q84 0 174.5 37t210.5 121v-131z" />
    <glyph glyph-name="Adieresis" unicode="&#xc4;" horiz-adv-x="920" 
d="M230 416q94 9 182 14.5t167 7.5q9 208 23.5 380t36.5 315q-159 -237 -408 -714zM579 315q-102 -8 -209.5 -23t-217.5 -36q-25 -51 -58 -137q-59 -158 -135 -158q-15 0 -25 11.5t-10 29.5q0 65 133.5 347.5t339.5 633.5h1q171 293 284 293q23 0 54.5 -12t42.5 -15
q35 -9 47.5 -19.5t13.5 -29.5q0 -15 -18.5 -45t-24.5 -51q-24 -71 -49 -332.5t-25 -554.5q0 -35 2 -77.5t2 -49.5q0 -37 -20.5 -57.5t-57.5 -20.5q-65 0 -68 235q-1 45 -2 68zM850 1567q25 0 39.5 -14.5t14.5 -40.5q0 -42 -29 -74.5t-66 -32.5q-20 0 -34.5 16t-14.5 40
q0 41 28 73.5t62 32.5zM629 1567q25 0 38 -14.5t13 -40.5q0 -42 -27.5 -74.5t-64.5 -32.5q-21 0 -35 16t-14 40q0 41 28 73.5t62 32.5z" />
    <glyph glyph-name="Aring" unicode="&#xc5;" horiz-adv-x="920" 
d="M727 1556q-32 0 -54 -22.5t-22 -54.5q0 -31 22.5 -53.5t53.5 -22.5q33 0 55.5 22t22.5 54q0 31 -23 53.5t-55 23.5zM727 1634q64 0 110 -45t46 -108q0 -66 -45 -111t-111 -45q-65 0 -109.5 45t-44.5 111q0 63 45.5 108t108.5 45zM230 416q94 9 182 14.5t167 7.5
q9 208 23.5 380t36.5 315q-159 -237 -408 -714zM579 315q-102 -8 -209.5 -23t-217.5 -36q-25 -51 -58 -137q-59 -158 -135 -158q-15 0 -25 11.5t-10 29.5q0 65 133.5 347.5t339.5 633.5h1q171 293 284 293q23 0 54.5 -12t42.5 -15q35 -9 47.5 -19.5t13.5 -29.5
q0 -15 -18.5 -45t-24.5 -51q-24 -71 -49 -332.5t-25 -554.5q0 -35 2 -77.5t2 -49.5q0 -37 -20.5 -57.5t-57.5 -20.5q-65 0 -68 235q-1 45 -2 68z" />
    <glyph glyph-name="Ccedilla" unicode="&#xc7;" horiz-adv-x="901" 
d="M750 1235q78 -22 124 -68t46 -100q0 -39 -24 -67.5t-54 -28.5q-25 0 -38 20t-22 85q-3 24 -28 41.5t-60 17.5q-63 0 -137.5 -56t-155.5 -164q-110 -145 -175.5 -319t-65.5 -313q0 -101 49 -157t135 -56q55 0 117 21t135 65q33 20 86 59t74 39q8 0 14 -8.5t6 -20.5
q0 -21 -26.5 -54.5t-75.5 -72.5q-78 -62 -158.5 -96.5t-144.5 -34.5q-165 0 -262 86.5t-97 233.5q0 130 81 329.5t224 413.5q87 129 160 195.5t127 66.5q32 0 68.5 -14.5t77.5 -42.5zM275 0h67l-35 -117h19q62 0 94.5 -30.5t32.5 -88.5q0 -59 -43.5 -92.5t-120.5 -33.5
q-65 0 -118.5 14t-53.5 31v6v4l14 31q1 1 2 3q3 7 11 7l44.5 -13.5t90.5 -13.5q33 0 55.5 18t22.5 44q0 29 -20 45t-58 16q-5 0 -17.5 -1t-21.5 -1q-6 0 -9 2.5t-3 5.5q0 7 1 11.5t3 9.5z" />
    <glyph glyph-name="Eacute" unicode="&#xc9;" horiz-adv-x="930" 
d="M256 414q-30 -97 -50 -166t-34 -121q220 28 338.5 40.5t163.5 12.5q50 0 75 -9.5t25 -29.5q0 -41 -97 -54q-13 -2 -20 -3q-129 -21 -310 -68t-228 -47q-40 0 -71.5 32t-31.5 75q0 26 66.5 274.5t218.5 792.5q23 82 49 96t160 14q67 0 220.5 -17.5t236.5 -23.5
q17 -1 25.5 -7t8.5 -17q0 -53 -247 -71q-180 -12 -299 -27q-37 -107 -76.5 -240t-85.5 -301q131 14 229 20t172 6q54 0 78.5 -10.5t24.5 -34.5q0 -28 -11.5 -42.5t-36.5 -16.5q-81 -4 -199 -17.5t-294 -39.5zM873 1618q9 0 13.5 -3t4.5 -9q0 -3 -1.5 -6t-4.5 -6l-8 -10
q-39 -48 -85 -97t-71 -69l-8 -9q-11 -9 -20.5 -13.5t-20.5 -4.5h-45q-9 0 -12.5 3t-3.5 9q0 2 3 5t5 6l6 8q18 18 51.5 66t59.5 98l4 8q6 13 14.5 18.5t19.5 5.5h99z" />
    <glyph glyph-name="Ntilde" unicode="&#xd1;" horiz-adv-x="977" 
d="M414 1017q-109 -305 -185.5 -556t-113.5 -422q-4 -16 -8 -41q-10 -53 -27 -53q-28 0 -58 18.5t-30 40.5t18 99.5t49 185.5q73 253 152.5 479.5t138.5 355.5q21 46 70.5 70.5t120.5 24.5q27 0 43 -6.5t16 -16.5q0 -9 -7 -27.5t-20 -44.5q-14 -57 -21 -121.5t-7 -146.5
q0 -169 15.5 -324.5t47.5 -300.5q77 337 234 764l8 21q11 29 28 79q66 187 130 187q18 0 30.5 -8.5t12.5 -20.5q0 -7 -7.5 -23t-21.5 -42q-114 -314 -194.5 -571.5t-120.5 -436.5q-2 -7 -6 -24q-24 -117 -103 -117q-19 0 -51.5 25t-48.5 53q-26 43 -58 255t-32 443
q0 39 1.5 89.5t4.5 112.5zM784 1438l-65 31q-12 5 -24 7.5t-21 2.5q-31 0 -48.5 -25.5t-25.5 -25.5h-45q-3 0 -5.5 2t-2.5 4q0 47 40.5 88t94.5 41q11 0 24 -3t25 -9l61 -35q11 -6 22 -9t21 -3q25 0 43 26.5t29 26.5h45q5 0 6.5 -1t1.5 -5v-4q0 -48 -36 -85.5t-83 -37.5
q-13 0 -26 3t-31 11z" />
    <glyph glyph-name="Odieresis" unicode="&#xd6;" horiz-adv-x="1102" 
d="M176 317q0 -118 57 -183.5t160 -65.5q100 0 197.5 68t175.5 192q78 125 126 287.5t48 299.5q0 112 -41.5 170t-122.5 58q-73 0 -148.5 -45.5t-154.5 -136.5q-141 -165 -219 -334t-78 -310zM827 1219q118 -17 179 -102.5t61 -233.5q0 -115 -35 -255.5t-96 -265.5
q-91 -184 -228.5 -294.5t-271.5 -110.5q-75 0 -164.5 34t-134.5 79q-50 45 -76 116.5t-26 163.5q0 132 55 280t160 294q114 160 240 260t204 100q33 0 63 -14.5t70 -50.5zM940 1567q25 0 39.5 -14.5t14.5 -40.5q0 -42 -29 -74.5t-66 -32.5q-20 0 -34.5 16t-14.5 40
q0 41 28 73.5t62 32.5zM719 1567q25 0 38 -14.5t13 -40.5q0 -42 -27.5 -74.5t-64.5 -32.5q-21 0 -35 16t-14 40q0 41 28 73.5t62 32.5z" />
    <glyph glyph-name="Udieresis" unicode="&#xdc;" horiz-adv-x="1020" 
d="M630 247q-76 -127 -165.5 -204.5t-157.5 -77.5q-102 0 -167.5 71.5t-65.5 192.5q0 114 66 347.5t175 479.5q5 11 12 27q66 150 134 150q34 0 63 -20t29 -48q0 -15 -8 -27t-25 -22q-144 -314 -221.5 -562.5t-77.5 -395.5q0 -49 16 -78t42 -29q30 0 77.5 34.5t104.5 98.5
q73 83 124 164t72 148q100 301 161.5 480.5t84.5 237.5q15 38 34 52t52 14q60 0 94.5 -19.5t34.5 -52.5q0 -20 -7.5 -32.5t-27.5 -22.5q-150 -322 -241.5 -611.5t-91.5 -404.5q0 -40 8 -79q2 -9 2 -11q0 -12 -17.5 -26.5t-35.5 -14.5q-38 0 -60 46.5t-22 125.5
q0 15 1.5 32.5t3.5 36.5zM899 1567q25 0 39.5 -14.5t14.5 -40.5q0 -42 -29 -74.5t-66 -32.5q-20 0 -34.5 16t-14.5 40q0 41 28 73.5t62 32.5zM678 1567q25 0 38 -14.5t13 -40.5q0 -42 -27.5 -74.5t-64.5 -32.5q-21 0 -35 16t-14 40q0 41 28 73.5t62 32.5z" />
    <glyph glyph-name="aacute" unicode="&#xe1;" horiz-adv-x="537" 
d="M276 471q0 14 -8 22.5t-22 8.5q-34 0 -78 -46t-88 -128q-42 -79 -67 -149.5t-25 -106.5q1 -15 4.5 -19.5t11.5 -3.5q20 0 56.5 35t74.5 92q59 88 100 180.5t41 114.5zM211 155q-50 -91 -109 -140.5t-116 -49.5q-46 0 -74.5 34.5t-28.5 88.5q0 71 27 154t80 172
q51 92 110.5 145t110.5 53q27 0 50 -14t46 -45q20 6 32 8t23 2q36 0 59 -15.5t23 -37.5q0 -14 -27 -69q-23 -45 -36 -74q-38 -84 -60 -153t-22 -97q0 -15 4 -21t14 -6q15 0 42.5 30.5t93.5 123.5q12 17 28 42q17 27 25 27q11 0 22 -16t11 -29q0 -16 -32 -71.5t-79 -116.5
q-36 -47 -65.5 -66.5t-61.5 -19.5q-44 0 -68 31.5t-24 89.5q0 16 0.5 25t1.5 15zM465 954q9 0 13.5 -3t4.5 -9q0 -3 -1.5 -6t-4.5 -6l-8 -10q-39 -48 -85 -97t-71 -69l-8 -9q-11 -9 -20.5 -13.5t-20.5 -4.5h-45q-9 0 -12.5 3t-3.5 9q0 2 3 5t5 6l6 8q18 18 51.5 66t59.5 98
l4 8q6 13 14.5 18.5t19.5 5.5h99z" />
    <glyph glyph-name="agrave" unicode="&#xe0;" horiz-adv-x="537" 
d="M276 471q0 14 -8 22.5t-22 8.5q-34 0 -78 -46t-88 -128q-42 -79 -67 -149.5t-25 -106.5q1 -15 4.5 -19.5t11.5 -3.5q20 0 56.5 35t74.5 92q59 88 100 180.5t41 114.5zM211 155q-50 -91 -109 -140.5t-116 -49.5q-46 0 -74.5 34.5t-28.5 88.5q0 71 27 154t80 172
q51 92 110.5 145t110.5 53q27 0 50 -14t46 -45q20 6 32 8t23 2q36 0 59 -15.5t23 -37.5q0 -14 -27 -69q-23 -45 -36 -74q-38 -84 -60 -153t-22 -97q0 -15 4 -21t14 -6q15 0 42.5 30.5t93.5 123.5q12 17 28 42q17 27 25 27q11 0 22 -16t11 -29q0 -16 -32 -71.5t-79 -116.5
q-36 -47 -65.5 -66.5t-61.5 -19.5q-44 0 -68 31.5t-24 89.5q0 16 0.5 25t1.5 15zM323 727q-9 0 -18.5 5.5t-15.5 15.5l-4 7q-6 9 -50 67.5t-67 101.5l-6 10q-2 4 -2 8q0 7 3.5 9.5t14.5 2.5h94q9 0 16 -6.5t11 -20.5l2 -7q14 -48 34 -94t38 -72l6 -7q2 -3 3 -5.5t1 -6.5
t-4 -6t-13 -2h-43z" />
    <glyph glyph-name="acircumflex" unicode="&#xe2;" horiz-adv-x="537" 
d="M276 471q0 14 -8 22.5t-22 8.5q-34 0 -78 -46t-88 -128q-42 -79 -67 -149.5t-25 -106.5q1 -15 4.5 -19.5t11.5 -3.5q20 0 56.5 35t74.5 92q59 88 100 180.5t41 114.5zM211 155q-50 -91 -109 -140.5t-116 -49.5q-46 0 -74.5 34.5t-28.5 88.5q0 71 27 154t80 172
q51 92 110.5 145t110.5 53q27 0 50 -14t46 -45q20 6 32 8t23 2q36 0 59 -15.5t23 -37.5q0 -14 -27 -69q-23 -45 -36 -74q-38 -84 -60 -153t-22 -97q0 -15 4 -21t14 -6q15 0 42.5 30.5t93.5 123.5q12 17 28 42q17 27 25 27q11 0 22 -16t11 -29q0 -16 -32 -71.5t-79 -116.5
q-36 -47 -65.5 -66.5t-61.5 -19.5q-44 0 -68 31.5t-24 89.5q0 16 0.5 25t1.5 15zM280 956h91q10 0 18 -4.5t20 -21.5l5 -4q20 -31 40.5 -68.5t28.5 -58.5l4 -6q3 -6 4.5 -12t1.5 -11t-2 -7.5t-10 -6.5l-43 -21q-1 0 -4 -1q-7 -3 -10 -3q-12 1 -22 21l-1 2l-2 6q-1 2 -5 9
q-38 72 -73 118q-48 -54 -84 -91.5t-45 -43.5l-3 -2q-3 -2 -8.5 -8.5t-10.5 -6.5t-7.5 1t-7.5 5l-34 39q-3 3 -4.5 6.5t-1.5 8.5q0 3 2.5 8t7.5 8l4 4q12 8 46.5 43.5t66.5 75.5l2 7q5 7 11.5 11t14.5 4h10z" />
    <glyph glyph-name="adieresis" unicode="&#xe4;" horiz-adv-x="537" 
d="M276 471q0 14 -8 22.5t-22 8.5q-34 0 -78 -46t-88 -128q-42 -79 -67 -149.5t-25 -106.5q1 -15 4.5 -19.5t11.5 -3.5q20 0 56.5 35t74.5 92q59 88 100 180.5t41 114.5zM211 155q-50 -91 -109 -140.5t-116 -49.5q-46 0 -74.5 34.5t-28.5 88.5q0 71 27 154t80 172
q51 92 110.5 145t110.5 53q27 0 50 -14t46 -45q20 6 32 8t23 2q36 0 59 -15.5t23 -37.5q0 -14 -27 -69q-23 -45 -36 -74q-38 -84 -60 -153t-22 -97q0 -15 4 -21t14 -6q15 0 42.5 30.5t93.5 123.5q12 17 28 42q17 27 25 27q11 0 22 -16t11 -29q0 -16 -32 -71.5t-79 -116.5
q-36 -47 -65.5 -66.5t-61.5 -19.5q-44 0 -68 31.5t-24 89.5q0 16 0.5 25t1.5 15zM446 903q25 0 39.5 -14.5t14.5 -40.5q0 -42 -29 -74.5t-66 -32.5q-20 0 -34.5 16t-14.5 40q0 41 28 73.5t62 32.5zM225 903q25 0 38 -14.5t13 -40.5q0 -42 -27.5 -74.5t-64.5 -32.5
q-21 0 -35 16t-14 40q0 41 28 73.5t62 32.5z" />
    <glyph glyph-name="atilde" unicode="&#xe3;" horiz-adv-x="537" 
d="M276 471q0 14 -8 22.5t-22 8.5q-34 0 -78 -46t-88 -128q-42 -79 -67 -149.5t-25 -106.5q1 -15 4.5 -19.5t11.5 -3.5q20 0 56.5 35t74.5 92q59 88 100 180.5t41 114.5zM211 155q-50 -91 -109 -140.5t-116 -49.5q-46 0 -74.5 34.5t-28.5 88.5q0 71 27 154t80 172
q51 92 110.5 145t110.5 53q27 0 50 -14t46 -45q20 6 32 8t23 2q36 0 59 -15.5t23 -37.5q0 -14 -27 -69q-23 -45 -36 -74q-38 -84 -60 -153t-22 -97q0 -15 4 -21t14 -6q15 0 42.5 30.5t93.5 123.5q12 17 28 42q17 27 25 27q11 0 22 -16t11 -29q0 -16 -32 -71.5t-79 -116.5
q-36 -47 -65.5 -66.5t-61.5 -19.5q-44 0 -68 31.5t-24 89.5q0 16 0.5 25t1.5 15zM352 774l-65 31q-12 5 -24 7.5t-21 2.5q-31 0 -48.5 -25.5t-25.5 -25.5h-45q-3 0 -5.5 2t-2.5 4q0 47 40.5 88t94.5 41q11 0 24 -3t25 -9l61 -35q11 -6 22 -9t21 -3q25 0 43 26.5t29 26.5h45
q5 0 6.5 -1t1.5 -5v-4q0 -48 -36 -85.5t-83 -37.5q-13 0 -26 3t-31 11z" />
    <glyph glyph-name="aring" unicode="&#xe5;" horiz-adv-x="537" 
d="M317 891q-32 0 -54.5 -23t-22.5 -55q0 -30 23 -53t54 -23q33 0 54.5 22t21.5 54q0 33 -22 55.5t-54 22.5zM317 969q64 0 109 -45t45 -109q0 -66 -44 -111t-110 -45q-65 0 -110 45.5t-45 110.5q0 63 46 108.5t109 45.5zM276 471q0 14 -8 22.5t-22 8.5q-34 0 -78 -46
t-88 -128q-42 -79 -67 -149.5t-25 -106.5q1 -15 4.5 -19.5t11.5 -3.5q20 0 56.5 35t74.5 92q59 88 100 180.5t41 114.5zM211 155q-50 -91 -109 -140.5t-116 -49.5q-46 0 -74.5 35t-28.5 92q0 69 27.5 151t79.5 171q51 92 110.5 145t110.5 53q27 0 50 -14t46 -45q20 6 32 8
t23 2q36 0 59 -15.5t23 -37.5q0 -14 -27 -69q-23 -45 -36 -74q-38 -84 -60 -153t-22 -97q0 -15 4 -21t14 -6q15 0 42.5 30.5t93.5 123.5q12 17 28 42q17 27 25 27q11 0 22 -16t11 -29q0 -16 -32 -71.5t-79 -116.5q-36 -47 -65.5 -66.5t-61.5 -19.5q-44 0 -68 31.5t-24 89.5
q0 16 0.5 25t1.5 15z" />
    <glyph glyph-name="ccedilla" unicode="&#xe7;" horiz-adv-x="451" 
d="M266 544l-8 1q-14 0 -29.5 -10t-29.5 -29q-71 -91 -118.5 -214.5t-47.5 -201.5q0 -47 16 -70.5t49 -23.5q53 0 110.5 40.5t125.5 125.5q32 40 60 89.5t34 49.5q9 0 23 -10t14 -21q0 -16 -18 -54.5t-48 -82.5q-61 -92 -136.5 -141t-153.5 -49q-84 0 -133.5 48.5
t-49.5 131.5q0 112 61.5 258t141.5 225q21 20 44 28.5t54 8.5q22 0 41.5 -7t41.5 -22q33 -6 52 -34t19 -72q0 -69 -36 -143t-75 -74q-22 0 -39.5 16.5t-17.5 36.5q0 31 23 98.5t30 101.5zM41 0h67l-35 -117h19q62 0 94.5 -30.5t32.5 -88.5q0 -59 -43.5 -92.5t-120.5 -33.5
q-65 0 -118.5 14t-53.5 31v6v4l14 31q1 1 2 3q3 7 11 7l44.5 -13.5t90.5 -13.5q33 0 55.5 18t22.5 44q0 29 -20 45t-58 16q-5 0 -17.5 -1t-21.5 -1q-6 0 -9 2.5t-3 5.5q0 7 1 11.5t3 9.5z" />
    <glyph glyph-name="eacute" unicode="&#xe9;" horiz-adv-x="408" 
d="M117 291q33 0 65.5 73t32.5 144q0 12 -7.5 21.5t-17.5 9.5q-28 0 -70 -71.5t-42 -115.5q0 -28 10.5 -44.5t28.5 -16.5zM45 256q-7 -26 -10.5 -52.5t-3.5 -56.5q0 -57 15.5 -86.5t45.5 -29.5q56 0 132.5 70t133.5 177q5 9 14 27q20 41 31 41t21 -11.5t10 -27.5
q0 -20 -24 -66t-64 -98q-74 -95 -138.5 -136.5t-137.5 -41.5q-77 0 -115.5 44.5t-38.5 133.5q0 94 44.5 225t113.5 232q22 32 47.5 49t50.5 17q13 0 26 -5t30 -16q14 -4 36 -10q60 -16 60 -72q0 -126 -71 -231t-147 -105q-16 0 -31.5 7.5t-29.5 21.5zM402 954q9 0 13.5 -3
t4.5 -9q0 -3 -1.5 -6t-4.5 -6l-8 -10q-39 -48 -85 -97t-71 -69l-8 -9q-11 -9 -20.5 -13.5t-20.5 -4.5h-45q-9 0 -12.5 3t-3.5 9q0 2 3 5t5 6l6 8q18 18 51.5 66t59.5 98l4 8q6 13 14.5 18.5t19.5 5.5h99z" />
    <glyph glyph-name="egrave" unicode="&#xe8;" horiz-adv-x="408" 
d="M117 291q33 0 65.5 73t32.5 144q0 12 -7.5 21.5t-17.5 9.5q-28 0 -70 -71.5t-42 -115.5q0 -28 10.5 -44.5t28.5 -16.5zM45 256q-7 -26 -10.5 -52.5t-3.5 -56.5q0 -57 15.5 -86.5t45.5 -29.5q56 0 132.5 70t133.5 177q5 9 14 27q20 41 31 41t21 -11.5t10 -27.5
q0 -20 -24 -66t-64 -98q-74 -95 -138.5 -136.5t-137.5 -41.5q-77 0 -115.5 44.5t-38.5 133.5q0 94 44.5 225t113.5 232q22 32 47.5 49t50.5 17q13 0 26 -5t30 -16q14 -4 36 -10q60 -16 60 -72q0 -126 -71 -231t-147 -105q-16 0 -31.5 7.5t-29.5 21.5zM260 727
q-9 0 -18.5 5.5t-15.5 15.5l-4 7q-6 9 -50 67.5t-67 101.5l-6 10q-2 4 -2 8q0 7 3.5 9.5t14.5 2.5h94q9 0 16 -6.5t11 -20.5l2 -7q14 -48 34 -94t38 -72l6 -7q2 -3 3 -5.5t1 -6.5t-4 -6t-13 -2h-43z" />
    <glyph glyph-name="ecircumflex" unicode="&#xea;" horiz-adv-x="408" 
d="M117 291q33 0 65.5 73t32.5 144q0 12 -7.5 21.5t-17.5 9.5q-28 0 -70 -71.5t-42 -115.5q0 -28 10.5 -44.5t28.5 -16.5zM45 256q-7 -26 -10.5 -52.5t-3.5 -56.5q0 -57 15.5 -86.5t45.5 -29.5q56 0 132.5 70t133.5 177q5 9 14 27q20 41 31 41t21 -11.5t10 -27.5
q0 -20 -24 -66t-64 -98q-74 -95 -138.5 -136.5t-137.5 -41.5q-77 0 -115.5 44.5t-38.5 133.5q0 94 44.5 225t113.5 232q22 32 47.5 49t50.5 17q13 0 26 -5t30 -16q14 -4 36 -10q60 -16 60 -72q0 -126 -71 -231t-147 -105q-16 0 -31.5 7.5t-29.5 21.5zM217 956h91
q10 0 18 -4.5t20 -21.5l5 -4q20 -31 40.5 -68.5t28.5 -58.5l4 -6q3 -6 4.5 -12t1.5 -11t-2 -7.5t-10 -6.5l-43 -21q-1 0 -4 -1q-7 -3 -10 -3q-12 1 -22 21l-1 2l-2 6q-1 2 -5 9q-38 72 -73 118q-48 -54 -84 -91.5t-45 -43.5l-3 -2q-3 -2 -8.5 -8.5t-10.5 -6.5t-7.5 1t-7.5 5
l-34 39q-3 3 -4.5 6.5t-1.5 8.5q0 3 2.5 8t7.5 8l4 4q12 8 46.5 43.5t66.5 75.5l2 7q5 7 11.5 11t14.5 4h10z" />
    <glyph glyph-name="edieresis" unicode="&#xeb;" horiz-adv-x="408" 
d="M117 291q33 0 65.5 73t32.5 144q0 12 -7.5 21.5t-17.5 9.5q-28 0 -70 -71.5t-42 -115.5q0 -28 10.5 -44.5t28.5 -16.5zM45 256q-7 -26 -10.5 -52.5t-3.5 -56.5q0 -57 15.5 -86.5t45.5 -29.5q56 0 132.5 70t133.5 177q5 9 14 27q20 41 31 41t21 -11.5t10 -27.5
q0 -20 -24 -66t-64 -98q-74 -95 -138.5 -136.5t-137.5 -41.5q-77 0 -115.5 44.5t-38.5 133.5q0 94 44.5 225t113.5 232q22 32 47.5 49t50.5 17q13 0 26 -5t30 -16q14 -4 36 -10q60 -16 60 -72q0 -126 -71 -231t-147 -105q-16 0 -31.5 7.5t-29.5 21.5zM383 903
q25 0 39.5 -14.5t14.5 -40.5q0 -42 -29 -74.5t-66 -32.5q-20 0 -34.5 16t-14.5 40q0 41 28 73.5t62 32.5zM162 903q25 0 38 -14.5t13 -40.5q0 -42 -27.5 -74.5t-64.5 -32.5q-21 0 -35 16t-14 40q0 41 28 73.5t62 32.5z" />
    <glyph glyph-name="iacute" unicode="&#xed;" horiz-adv-x="307" 
d="M57 -18q-53 0 -84.5 45t-31.5 123q0 91 30 208t60 160q12 19 38 30t58 11q18 0 28.5 -8.5t10.5 -24.5q0 -6 -14 -42l-15 -40l-13 -37q-85 -232 -85 -292q0 -23 8.5 -34t26.5 -11q26 0 75 50t97 130q6 11 17 32q17 33 26 33q12 0 24.5 -11.5t12.5 -27.5q0 -7 -35 -66
q-17 -29 -27 -46q-58 -99 -106 -140.5t-101 -41.5zM322 954q9 0 13.5 -3t4.5 -9q0 -3 -1.5 -6t-4.5 -6l-8 -10q-39 -48 -85 -97t-71 -69l-8 -9q-11 -9 -20.5 -13.5t-20.5 -4.5h-45q-9 0 -12.5 3t-3.5 9q0 2 3 5t5 6l6 8q18 18 51.5 66t59.5 98l4 8q6 13 14.5 18.5t19.5 5.5
h99z" />
    <glyph glyph-name="igrave" unicode="&#xec;" horiz-adv-x="307" 
d="M57 -18q-53 0 -84.5 45t-31.5 123q0 91 30 208t60 160q12 19 38 30t58 11q18 0 28.5 -8.5t10.5 -24.5q0 -6 -14 -42l-15 -40l-13 -37q-85 -232 -85 -292q0 -23 8.5 -34t26.5 -11q26 0 75 50t97 130q6 11 17 32q17 33 26 33q12 0 24.5 -11.5t12.5 -27.5q0 -7 -35 -66
q-17 -29 -27 -46q-58 -99 -106 -140.5t-101 -41.5zM180 727q-9 0 -18.5 5.5t-15.5 15.5l-4 7q-6 9 -50 67.5t-67 101.5l-6 10q-2 4 -2 8q0 7 3.5 9.5t14.5 2.5h94q9 0 16 -6.5t11 -20.5l2 -7q14 -48 34 -94t38 -72l6 -7q2 -3 3 -5.5t1 -6.5t-4 -6t-13 -2h-43z" />
    <glyph glyph-name="icircumflex" unicode="&#xee;" horiz-adv-x="307" 
d="M57 -18q-53 0 -84.5 45t-31.5 123q0 91 30 208t60 160q12 19 38 30t58 11q18 0 28.5 -8.5t10.5 -24.5q0 -6 -14 -42l-15 -40l-13 -37q-85 -232 -85 -292q0 -23 8.5 -34t26.5 -11q26 0 75 50t97 130q6 11 17 32q17 33 26 33q12 0 24.5 -11.5t12.5 -27.5q0 -7 -35 -66
q-17 -29 -27 -46q-58 -99 -106 -140.5t-101 -41.5zM137 956h91q10 0 18 -4.5t20 -21.5l5 -4q20 -31 40.5 -68.5t28.5 -58.5l4 -6q3 -6 4.5 -12t1.5 -11t-2 -7.5t-10 -6.5l-43 -21q-1 0 -4 -1q-7 -3 -10 -3q-12 1 -22 21l-1 2l-2 6q-1 2 -5 9q-38 72 -73 118
q-48 -54 -84 -91.5t-45 -43.5l-3 -2q-3 -2 -8.5 -8.5t-10.5 -6.5t-7.5 1t-7.5 5l-34 39q-3 3 -4.5 6.5t-1.5 8.5q0 3 2.5 8t7.5 8l4 4q12 8 46.5 43.5t66.5 75.5l2 7q5 7 11.5 11t14.5 4h10z" />
    <glyph glyph-name="idieresis" unicode="&#xef;" horiz-adv-x="307" 
d="M57 -18q-53 0 -84.5 45t-31.5 123q0 91 30 208t60 160q12 19 38 30t58 11q18 0 28.5 -8.5t10.5 -24.5q0 -6 -14 -42l-15 -40l-13 -37q-85 -232 -85 -292q0 -23 8.5 -34t26.5 -11q26 0 75 50t97 130q6 11 17 32q17 33 26 33q12 0 24.5 -11.5t12.5 -27.5q0 -7 -35 -66
q-17 -29 -27 -46q-58 -99 -106 -140.5t-101 -41.5zM303 903q25 0 39.5 -14.5t14.5 -40.5q0 -42 -29 -74.5t-66 -32.5q-20 0 -34.5 16t-14.5 40q0 41 28 73.5t62 32.5zM82 903q25 0 38 -14.5t13 -40.5q0 -42 -27.5 -74.5t-64.5 -32.5q-21 0 -35 16t-14 40q0 41 28 73.5
t62 32.5z" />
    <glyph glyph-name="ntilde" unicode="&#xf1;" horiz-adv-x="526" 
d="M242 350q-52 -85 -119 -213q-82 -155 -123 -155q-38 0 -62 23.5t-24 64.5q0 50 32.5 181t82.5 249q17 41 32.5 54t42.5 13q23 0 42.5 -13.5t19.5 -31.5q0 -4 -13 -31q-84 -172 -118 -368q133 256 207.5 366.5t113.5 110.5q32 0 60 -22t28 -50q0 -17 -20 -33t-21 -16
q-5 -7 -19 -43.5t-30 -87.5q-21 -72 -34 -138.5t-13 -98.5q0 -21 5.5 -33t15.5 -12q32 0 122 153q16 28 25 43q3 5 8 16q10 23 27 23q10 0 26.5 -14.5t16.5 -24.5q0 -20 -46.5 -105t-103.5 -143q-20 -20 -41 -30.5t-43 -10.5q-51 0 -79.5 42t-28.5 118q0 35 7.5 89t23.5 128
zM311 774l-65 31q-12 5 -24 7.5t-21 2.5q-31 0 -48.5 -25.5t-25.5 -25.5h-45q-3 0 -5.5 2t-2.5 4q0 47 40.5 88t94.5 41q11 0 24 -3t25 -9l61 -35q11 -6 22 -9t21 -3q25 0 43 26.5t29 26.5h45q5 0 6.5 -1t1.5 -5v-4q0 -48 -36 -85.5t-83 -37.5q-13 0 -26 3t-31 11z" />
    <glyph glyph-name="oacute" unicode="&#xf3;" horiz-adv-x="473" 
d="M218 514l4 1q19 3 32 3q43 0 70 -44t28 -117q53 16 97 71t57 55q15 0 24 -7.5t9 -20.5q0 -16 -9 -32t-28 -36q-37 -54 -78 -85.5t-86 -39.5q-44 -156 -114 -237.5t-161 -81.5q-68 0 -108.5 44.5t-40.5 121.5q0 67 33 161.5t88 180.5q31 49 61.5 73.5t61.5 24.5
q20 0 35.5 -9t24.5 -26zM33 98q0 -32 10.5 -47.5t32.5 -15.5q53 0 114.5 117t61.5 225q0 27 -10 42t-27 15q-50 0 -116 -115.5t-66 -220.5zM398 954q9 0 13.5 -3t4.5 -9q0 -3 -1.5 -6t-4.5 -6l-8 -10q-39 -48 -85 -97t-71 -69l-8 -9q-11 -9 -20.5 -13.5t-20.5 -4.5h-45
q-9 0 -12.5 3t-3.5 9q0 2 3 5t5 6l6 8q18 18 51.5 66t59.5 98l4 8q6 13 14.5 18.5t19.5 5.5h99z" />
    <glyph glyph-name="ograve" unicode="&#xf2;" horiz-adv-x="473" 
d="M218 514l4 1q19 3 32 3q43 0 70 -44t28 -117q53 16 97 71t57 55q15 0 24 -7.5t9 -20.5q0 -16 -9 -32t-28 -36q-37 -54 -78 -85.5t-86 -39.5q-44 -156 -114 -237.5t-161 -81.5q-68 0 -108.5 44.5t-40.5 121.5q0 67 33 161.5t88 180.5q31 49 61.5 73.5t61.5 24.5
q20 0 35.5 -9t24.5 -26zM33 98q0 -32 10.5 -47.5t32.5 -15.5q53 0 114.5 117t61.5 225q0 27 -10 42t-27 15q-50 0 -116 -115.5t-66 -220.5zM256 727q-9 0 -18.5 5.5t-15.5 15.5l-4 7q-6 9 -50 67.5t-67 101.5l-6 10q-2 4 -2 8q0 7 3.5 9.5t14.5 2.5h94q9 0 16 -6.5t11 -20.5
l2 -7q14 -48 34 -94t38 -72l6 -7q2 -3 3 -5.5t1 -6.5t-4 -6t-13 -2h-43z" />
    <glyph glyph-name="ocircumflex" unicode="&#xf4;" horiz-adv-x="473" 
d="M218 514l4 1q19 3 32 3q43 0 70 -44t28 -117q53 16 97 71t57 55q15 0 24 -7.5t9 -20.5q0 -16 -9 -32t-28 -36q-37 -54 -78 -85.5t-86 -39.5q-44 -156 -114 -237.5t-161 -81.5q-68 0 -108.5 44.5t-40.5 121.5q0 67 33 161.5t88 180.5q31 49 61.5 73.5t61.5 24.5
q20 0 35.5 -9t24.5 -26zM33 98q0 -32 10.5 -47.5t32.5 -15.5q53 0 114.5 117t61.5 225q0 27 -10 42t-27 15q-50 0 -116 -115.5t-66 -220.5zM213 956h91q10 0 18 -4.5t20 -21.5l5 -4q20 -31 40.5 -68.5t28.5 -58.5l4 -6q3 -6 4.5 -12t1.5 -11t-2 -7.5t-10 -6.5l-43 -21
q-1 0 -4 -1q-7 -3 -10 -3q-12 1 -22 21l-1 2l-2 6q-1 2 -5 9q-38 72 -73 118q-48 -54 -84 -91.5t-45 -43.5l-3 -2q-3 -2 -8.5 -8.5t-10.5 -6.5t-7.5 1t-7.5 5l-34 39q-3 3 -4.5 6.5t-1.5 8.5q0 3 2.5 8t7.5 8l4 4q12 8 46.5 43.5t66.5 75.5l2 7q5 7 11.5 11t14.5 4h10z" />
    <glyph glyph-name="odieresis" unicode="&#xf6;" horiz-adv-x="473" 
d="M218 514l4 1q19 3 32 3q43 0 70 -44t28 -117q53 16 97 71t57 55q15 0 24 -7.5t9 -20.5q0 -16 -9 -32t-28 -36q-37 -54 -78 -85.5t-86 -39.5q-44 -156 -114 -237.5t-161 -81.5q-68 0 -108.5 44.5t-40.5 121.5q0 67 33 161.5t88 180.5q31 49 61.5 73.5t61.5 24.5
q20 0 35.5 -9t24.5 -26zM33 98q0 -32 10.5 -47.5t32.5 -15.5q53 0 114.5 117t61.5 225q0 27 -10 42t-27 15q-50 0 -116 -115.5t-66 -220.5zM379 903q25 0 39.5 -14.5t14.5 -40.5q0 -42 -29 -74.5t-66 -32.5q-20 0 -34.5 16t-14.5 40q0 41 28 73.5t62 32.5zM158 903
q25 0 38 -14.5t13 -40.5q0 -42 -27.5 -74.5t-64.5 -32.5q-21 0 -35 16t-14 40q0 41 28 73.5t62 32.5z" />
    <glyph glyph-name="otilde" unicode="&#xf5;" horiz-adv-x="473" 
d="M218 514l4 1q19 3 32 3q43 0 70 -44t28 -117q53 16 97 71t57 55q15 0 24 -7.5t9 -20.5q0 -16 -9 -32t-28 -36q-37 -54 -78 -85.5t-86 -39.5q-44 -156 -114 -237.5t-161 -81.5q-68 0 -108.5 44.5t-40.5 121.5q0 67 33 161.5t88 180.5q31 49 61.5 73.5t61.5 24.5
q20 0 35.5 -9t24.5 -26zM33 98q0 -32 10.5 -47.5t32.5 -15.5q53 0 114.5 117t61.5 225q0 27 -10 42t-27 15q-50 0 -116 -115.5t-66 -220.5zM285 774l-65 31q-12 5 -24 7.5t-21 2.5q-31 0 -48.5 -25.5t-25.5 -25.5h-45q-3 0 -5.5 2t-2.5 4q0 47 40.5 88t94.5 41q11 0 24 -3
t25 -9l61 -35q11 -6 22 -9t21 -3q25 0 43 26.5t29 26.5h45q5 0 6.5 -1t1.5 -5v-4q0 -48 -36 -85.5t-83 -37.5q-13 0 -26 3t-31 11z" />
    <glyph glyph-name="uacute" unicode="&#xfa;" horiz-adv-x="559" 
d="M240 172q-46 -94 -92 -141t-91 -47q-24 0 -43 9t-37 30q-21 21 -29.5 43t-8.5 53q0 86 35.5 212t93.5 234q12 24 26.5 34.5t32.5 10.5q28 0 48 -20.5t20 -46.5q0 -7 -4 -15t-13 -18q-62 -128 -96.5 -233t-34.5 -162q0 -30 8 -43t27 -13q40 0 98.5 110.5t145.5 348.5
q4 37 22 58.5t45 21.5t51.5 -21t24.5 -45q0 -6 -22 -51q-107 -219 -107 -377q0 -25 5 -40t13 -15q32 0 69.5 51t84.5 158q2 5 5 12q12 31 30 31q10 0 27.5 -14.5t17.5 -24.5q0 -14 -32.5 -82t-74.5 -125q-33 -46 -66 -67t-73 -21q-50 0 -81.5 40t-31.5 106q1 8 2.5 23.5
t4.5 35.5zM477 954q9 0 13.5 -3t4.5 -9q0 -3 -1.5 -6t-4.5 -6l-8 -10q-39 -48 -85 -97t-71 -69l-8 -9q-11 -9 -20.5 -13.5t-20.5 -4.5h-45q-9 0 -12.5 3t-3.5 9q0 2 3 5t5 6l6 8q18 18 51.5 66t59.5 98l4 8q6 13 14.5 18.5t19.5 5.5h99z" />
    <glyph glyph-name="ugrave" unicode="&#xf9;" horiz-adv-x="559" 
d="M240 172q-46 -94 -92 -141t-91 -47q-24 0 -43 9t-37 30q-21 21 -29.5 43t-8.5 53q0 86 35.5 212t93.5 234q12 24 26.5 34.5t32.5 10.5q28 0 48 -20.5t20 -46.5q0 -7 -4 -15t-13 -18q-62 -128 -96.5 -233t-34.5 -162q0 -30 8 -43t27 -13q40 0 98.5 110.5t145.5 348.5
q4 37 22 58.5t45 21.5t51.5 -21t24.5 -45q0 -6 -22 -51q-107 -219 -107 -377q0 -25 5 -40t13 -15q32 0 69.5 51t84.5 158q2 5 5 12q12 31 30 31q10 0 27.5 -14.5t17.5 -24.5q0 -14 -32.5 -82t-74.5 -125q-33 -46 -66 -67t-73 -21q-50 0 -81.5 40t-31.5 106q1 8 2.5 23.5
t4.5 35.5zM335 727q-9 0 -18.5 5.5t-15.5 15.5l-4 7q-6 9 -50 67.5t-67 101.5l-6 10q-2 4 -2 8q0 7 3.5 9.5t14.5 2.5h94q9 0 16 -6.5t11 -20.5l2 -7q14 -48 34 -94t38 -72l6 -7q2 -3 3 -5.5t1 -6.5t-4 -6t-13 -2h-43z" />
    <glyph glyph-name="ucircumflex" unicode="&#xfb;" horiz-adv-x="559" 
d="M240 172q-46 -94 -92 -141t-91 -47q-24 0 -43 9t-37 30q-21 21 -29.5 43t-8.5 53q0 86 35.5 212t93.5 234q12 24 26.5 34.5t32.5 10.5q28 0 48 -20.5t20 -46.5q0 -7 -4 -15t-13 -18q-62 -128 -96.5 -233t-34.5 -162q0 -30 8 -43t27 -13q40 0 98.5 110.5t145.5 348.5
q4 37 22 58.5t45 21.5t51.5 -21t24.5 -45q0 -6 -22 -51q-107 -219 -107 -377q0 -25 5 -40t13 -15q32 0 69.5 51t84.5 158q2 5 5 12q12 31 30 31q10 0 27.5 -14.5t17.5 -24.5q0 -14 -32.5 -82t-74.5 -125q-33 -46 -66 -67t-73 -21q-50 0 -81.5 40t-31.5 106q1 8 2.5 23.5
t4.5 35.5zM292 956h91q10 0 18 -4.5t20 -21.5l5 -4q20 -31 40.5 -68.5t28.5 -58.5l4 -6q3 -6 4.5 -12t1.5 -11t-2 -7.5t-10 -6.5l-43 -21q-1 0 -4 -1q-7 -3 -10 -3q-12 1 -22 21l-1 2l-2 6q-1 2 -5 9q-38 72 -73 118q-48 -54 -84 -91.5t-45 -43.5l-3 -2q-3 -2 -8.5 -8.5
t-10.5 -6.5t-7.5 1t-7.5 5l-34 39q-3 3 -4.5 6.5t-1.5 8.5q0 3 2.5 8t7.5 8l4 4q12 8 46.5 43.5t66.5 75.5l2 7q5 7 11.5 11t14.5 4h10z" />
    <glyph glyph-name="udieresis" unicode="&#xfc;" horiz-adv-x="559" 
d="M240 172q-46 -94 -92 -141t-91 -47q-24 0 -43 9t-37 30q-21 21 -29.5 43t-8.5 53q0 86 35.5 212t93.5 234q12 24 26.5 34.5t32.5 10.5q28 0 48 -20.5t20 -46.5q0 -7 -4 -15t-13 -18q-62 -128 -96.5 -233t-34.5 -162q0 -30 8 -43t27 -13q40 0 98.5 110.5t145.5 348.5
q4 37 22 58.5t45 21.5t51.5 -21t24.5 -45q0 -6 -22 -51q-107 -219 -107 -377q0 -25 5 -40t13 -15q32 0 69.5 51t84.5 158q2 5 5 12q12 31 30 31q10 0 27.5 -14.5t17.5 -24.5q0 -14 -32.5 -82t-74.5 -125q-33 -46 -66 -67t-73 -21q-50 0 -81.5 40t-31.5 106q1 8 2.5 23.5
t4.5 35.5zM458 903q25 0 39.5 -14.5t14.5 -40.5q0 -42 -29 -74.5t-66 -32.5q-20 0 -34.5 16t-14.5 40q0 41 28 73.5t62 32.5zM237 903q25 0 38 -14.5t13 -40.5q0 -42 -27.5 -74.5t-64.5 -32.5q-21 0 -35 16t-14 40q0 41 28 73.5t62 32.5z" />
    <glyph glyph-name="dagger" unicode="&#x2020;" 
d="M385 -225v-15v-18q0 -38 -9.5 -49.5t-35.5 -11.5q-31 0 -51.5 23.5t-20.5 62.5q0 53 54.5 305.5t160.5 688.5q-61 -4 -136 -11t-83 -7q-13 0 -25 15t-12 33q0 20 45 31.5t229 27.5l6 20q106 428 138 428q48 0 75.5 -16.5t27.5 -46.5q0 -11 -41.5 -133.5t-73.5 -238.5
q21 0 46 0.5t71 0.5q98 0 130.5 -9.5t32.5 -39.5q0 -6 -1.5 -11t-4.5 -9q-60 -3 -160.5 -11t-136.5 -10q-79 -311 -139 -580t-86 -419z" />
    <glyph glyph-name="degree" unicode="&#xb0;" horiz-adv-x="674" 
d="M539 1171q0 84 -58.5 142.5t-142.5 58.5t-143.5 -58.5t-59.5 -142.5t59.5 -143t143.5 -59t142.5 59t58.5 143zM338 1454q117 0 200 -83t83 -200q0 -116 -83.5 -199t-201.5 -83t-199.5 82t-81.5 200q0 119 82.5 201t200.5 82z" />
    <glyph glyph-name="cent" unicode="&#xa2;" horiz-adv-x="1014" 
d="M670 999q49 -24 69.5 -48.5t20.5 -57.5q0 -73 -37.5 -132t-89.5 -59q-30 0 -48 13.5t-18 36.5q0 34 27 93.5t27 61.5q-1 4 -6 11q-1 1 -2 3l-11 3q-25 0 -51 -20t-68 -73q-81 -103 -137.5 -238t-56.5 -214q0 -44 22.5 -67t65.5 -23q99 0 196 96q25 25 31 25q8 0 25.5 -17
t17.5 -24q0 -46 -81.5 -98t-182.5 -52h-4q-35 -101 -75 -243q-44 -154 -79 -154q-32 0 -43.5 8t-11.5 31q0 37 30 141t81 234q-64 28 -93.5 76t-29.5 122q0 43 12 93.5t35 105.5q51 119 108 209.5t121 152.5q29 28 53 38.5t52 10.5h6q19 56 49 148q72 219 129 219
q21 0 31 -5.5t10 -16.5q0 -10 -2 -18.5t-6 -16.5q-19 -70 -47 -151t-68 -179z" />
    <glyph glyph-name="sterling" unicode="&#xa3;" horiz-adv-x="1014" 
d="M195 141q-56 25 -94.5 37t-59.5 12q-26 0 -50 -18t-24 -33q0 -27 52.5 -66.5t82.5 -39.5q21 0 43 26t50 82zM838 1235q78 -22 125 -68t47 -100q0 -39 -25 -67.5t-55 -28.5q-21 0 -38.5 20t-17.5 45q0 8 5.5 26.5t5.5 29.5q0 30 -33.5 51.5t-83.5 21.5q-105 0 -171.5 -123
t-137.5 -477q168 0 221 -15.5t53 -55.5q0 -10 -8 -15.5t-23 -5.5q-11 0 -30.5 2t-28.5 2q-24 0 -92.5 -2.5t-112.5 -3.5q-21 -85 -45.5 -149.5t-52.5 -114.5q111 -33 238 -78t143 -45q19 0 51 24.5t49 24.5q18 0 30.5 -8.5t12.5 -20.5q0 -11 -22.5 -55t-44.5 -67
q-16 -16 -32.5 -22.5t-41.5 -6.5q-30 0 -378 129q-42 16 -64 24q-69 -83 -110 -114t-77 -31q-66 0 -127 48t-61 100q0 50 52.5 106.5t117.5 56.5q26 0 66.5 -8t90.5 -24q18 44 31.5 96.5t26.5 124.5h-37h-25q-111 0 -141.5 12t-30.5 43q0 24 40.5 33.5t213.5 13.5
q46 334 152 531.5t231 197.5q31 0 67 -14t77 -43z" />
    <glyph glyph-name="section" unicode="&#xa7;" 
d="M559 236q83 36 121.5 78t38.5 96q0 92 -288 311q-14 11 -21 16q-70 -30 -106 -74t-36 -100q0 -90 215 -265q49 -40 76 -62zM596 190q41 -44 63.5 -93t22.5 -95q0 -130 -95 -228t-225 -98q-127 0 -239.5 89.5t-112.5 166.5q0 27 17 50.5t34 23.5q18 0 33 -33q5 -11 8 -17
q36 -77 103 -120t149 -43q87 0 145 55.5t58 133.5q0 85 -163 210q-19 15 -29 23q-115 89 -157 153t-42 142q0 98 51.5 166t157.5 110q-42 53 -63 107t-21 108q0 120 89.5 207.5t211.5 87.5q65 0 130.5 -28t119.5 -80q37 -36 60.5 -76.5t23.5 -67.5q0 -28 -19 -49.5
t-41 -21.5q-14 0 -32 41t-35 63q-37 46 -92 73.5t-109 27.5q-75 0 -127.5 -49.5t-52.5 -118.5q0 -53 40 -107t152 -143q141 -112 179 -171.5t38 -129.5q0 -85 -55.5 -150t-175.5 -119z" />
    <glyph glyph-name="bullet" unicode="&#x2022;" horiz-adv-x="1208" 
d="M307 762q0 123 87 209t210 86q122 0 208.5 -86.5t86.5 -208.5t-87.5 -209.5t-209.5 -87.5q-123 0 -209 87t-86 210z" />
    <glyph glyph-name="paragraph" unicode="&#xb6;" 
d="M948 1401h-125v-1401h-94v1401h-182v-1401h-96v782q-173 8 -274 102.5t-101 245.5q0 157 107.5 253t285.5 96h479v-78z" />
    <glyph glyph-name="germandbls" unicode="&#xdf;" horiz-adv-x="616" 
d="M475 662q-36 -38 -55 -94t-19 -126q0 -106 32 -239t32 -166q0 -56 -31 -95.5t-65 -39.5q-35 0 -97.5 49.5t-80.5 58.5q-9 4 -24 7q-20 4 -20 20q0 21 13.5 41t25.5 20q21 0 153 -59q12 -5 19 -8q-1 29 -29 172.5t-28 257.5q0 63 26 120t81 113q79 109 122 215.5t43 190.5
q0 24 -7.5 39.5t-18.5 15.5q-38 0 -80.5 -63.5t-118.5 -243.5q-65 -156 -118.5 -314.5t-92.5 -314.5q-14 -55 -28 -133q-20 -111 -82 -111q-27 0 -40.5 11t-13.5 32q0 37 51 215t134 429q93 276 200.5 433.5t198.5 157.5q15 0 29.5 -15.5t27.5 -47.5q24 -15 34.5 -39
t10.5 -64q0 -112 -47 -222t-137 -203z" />
    <glyph glyph-name="registered" unicode="&#xae;" horiz-adv-x="1706" 
d="M846 1065h-144v-291h148q123 0 175 33t52 108q0 79 -54.5 114.5t-176.5 35.5zM872 1157q178 0 264.5 -57t86.5 -174q0 -89 -53 -148.5t-144 -75.5l188 -385h-157l-176 365h-179v-365h-141v840h311zM1501 721q0 133 -48 251.5t-138 209.5q-94 93 -211.5 141.5t-251.5 48.5
q-132 0 -247 -47t-204 -137q-94 -95 -144 -214t-50 -249q0 -127 49 -244t141 -211q91 -92 208 -141t245 -49q131 0 249.5 48.5t213.5 141.5q91 90 139.5 206t48.5 245zM852 1460q150 0 284 -55.5t240 -161.5q102 -102 156.5 -235.5t54.5 -282.5q0 -151 -54.5 -283
t-158.5 -233q-109 -106 -243.5 -162.5t-278.5 -56.5q-145 0 -278.5 56t-239.5 163q-105 104 -160 237t-55 279q0 147 57 282t164 242q101 103 232 157t280 54z" />
    <glyph glyph-name="copyright" unicode="&#xa9;" horiz-adv-x="1706" 
d="M1065 911q-15 77 -70.5 120.5t-138.5 43.5q-117 0 -182.5 -92.5t-65.5 -259.5q0 -160 66.5 -252t181.5 -92q87 0 145.5 48.5t73.5 133.5h129q-11 -127 -109 -207t-245 -80q-176 0 -280.5 121t-104.5 326q0 208 107.5 332.5t287.5 124.5q137 0 230 -74.5t104 -192.5h-129z
M1501 725q0 130 -49 249t-139 210q-92 92 -210 140t-251 48q-132 0 -247.5 -47.5t-205.5 -138.5q-93 -95 -142.5 -214t-49.5 -247q0 -127 49 -244t141 -211q93 -92 209.5 -141t245.5 -49t248.5 50t214.5 142q91 90 138.5 205.5t47.5 247.5zM852 1460q151 0 285 -55t239 -160
q102 -102 156.5 -236t54.5 -284q0 -151 -54 -283t-157 -233q-109 -106 -244.5 -162.5t-279.5 -56.5q-146 0 -278 55.5t-238 161.5q-106 105 -161.5 238.5t-55.5 279.5q0 145 56.5 279.5t162.5 242.5q102 104 234 158.5t280 54.5z" />
    <glyph glyph-name="trademark" unicode="&#x2122;" horiz-adv-x="1706" 
d="M948 1456l160 -405l149 405h132v-534h-82v458l-172 -458h-54l-180 458v-458h-82v534h129zM694 1456v-67h-172v-467h-94v467h-174v67h440z" />
    <glyph glyph-name="acute" unicode="&#xb4;" 
d="M672 954q9 0 13.5 -3t4.5 -9q0 -3 -1.5 -6t-4.5 -6l-8 -10q-39 -48 -85 -97t-71 -69l-8 -9q-11 -9 -20.5 -13.5t-20.5 -4.5h-45q-9 0 -12.5 3t-3.5 9q0 2 3 5t5 6l6 8q18 18 51.5 66t59.5 98l4 8q6 13 14.5 18.5t19.5 5.5h99z" />
    <glyph glyph-name="dieresis" unicode="&#xa8;" 
d="M653 903q25 0 39.5 -14.5t14.5 -40.5q0 -42 -29 -74.5t-66 -32.5q-20 0 -34.5 16t-14.5 40q0 41 28 73.5t62 32.5zM432 903q25 0 38 -14.5t13 -40.5q0 -42 -27.5 -74.5t-64.5 -32.5q-21 0 -35 16t-14 40q0 41 28 73.5t62 32.5z" />
    <glyph glyph-name="notequal" unicode="&#x2260;" horiz-adv-x="1706" 
d="M1298 1110l-196 -250h350v-115h-424l-211 -270h635v-115h-709l-251 -319l-89 70l197 249h-346v115h420l211 270h-631v115h704l252 320z" />
    <glyph glyph-name="AE" unicode="&#xc6;" horiz-adv-x="1413" 
d="M801 1171q-126 -146 -244 -305t-257 -372q10 1 35 5q174 25 286 36q59 205 106.5 371.5t73.5 264.5zM579 399q-76 -7 -170 -21.5t-212 -37.5q-62 -89 -132 -227q-77 -152 -143 -152q-18 0 -28.5 11.5t-10.5 31.5q0 47 108 233.5t288 447.5l6 8q394 573 501 573
q16 0 31 -4.5t33 -14.5q49 3 84.5 4.5t58.5 1.5q106 0 261 -20.5t198 -20.5q14 0 23.5 -7t9.5 -17q0 -53 -247 -71q-181 -12 -300 -27q-34 -97 -73.5 -229.5t-88.5 -311.5q132 14 229.5 20t172.5 6q53 0 77.5 -10.5t24.5 -34.5q0 -28 -11.5 -42.5t-35.5 -16.5
q-82 -4 -200 -17.5t-294 -39.5q-30 -97 -50 -166t-34 -121q217 28 338 40.5t166 12.5q50 0 74 -9.5t24 -29.5q0 -41 -97 -54q-13 -2 -19 -3q-130 -21 -310.5 -68t-228.5 -47q-39 0 -69.5 31.5t-30.5 75.5q0 27 48 210q19 72 29 113z" />
    <glyph glyph-name="Oslash" unicode="&#xd8;" horiz-adv-x="1102" 
d="M193 207q160 211 332.5 430.5t365.5 458.5q-25 24 -52 35.5t-63 11.5q-89 0 -180 -66t-195 -205q-107 -143 -166 -289t-59 -268q0 -25 4 -51.5t13 -56.5zM934 995q-136 -169 -304.5 -387.5t-377.5 -494.5q28 -24 60.5 -34.5t76.5 -10.5q104 0 201.5 67t177.5 193
q78 124 125 287t47 311q0 17 -1.5 34.5t-4.5 34.5zM827 1219q40 -7 71.5 -18.5t54.5 -26.5q9 10 24 26q110 119 156 119q14 0 24 -9t10 -22q0 -18 -10.5 -39t-26.5 -31q-45 -50 -68 -76t-42 -48q24 -42 35.5 -92t11.5 -117q0 -118 -35 -258.5t-96 -264.5
q-91 -184 -228.5 -294.5t-271.5 -110.5q-53 0 -113 18t-135 56l-23 -32q-152 -204 -173 -204q-19 0 -37 13t-18 28q0 41 104 176q42 54 65 86q-37 63 -54 122.5t-17 127.5q0 133 55 280t160 294q114 161 240 261.5t204 100.5q33 0 63 -14.5t70 -50.5z" />
    <glyph glyph-name="infinity" unicode="&#x221e;" horiz-adv-x="1706" 
d="M905 559q51 -95 119 -141.5t156 -46.5q102 0 168.5 71t66.5 181q0 108 -61 179.5t-152 71.5q-85 0 -153.5 -72.5t-143.5 -242.5zM803 666q-51 95 -119 142.5t-154 47.5q-105 0 -171 -71t-66 -183q0 -108 61 -179t152 -71q85 0 152 69t145 245zM840 727q67 138 146 204
t175 66q134 0 226 -108.5t92 -272.5q0 -171 -82 -277t-213 -106q-96 0 -169 60t-149 201q-71 -138 -148 -201.5t-173 -63.5q-134 0 -226 109t-92 272q0 172 82.5 277.5t214.5 105.5q97 0 172 -63t144 -203z" />
    <glyph glyph-name="plusminus" unicode="&#xb1;" horiz-adv-x="1706" 
d="M1452 158v-117h-1198v117h1198zM913 1180v-344h539v-117h-539v-344h-118v344h-541v117h541v344h118z" />
    <glyph glyph-name="lessequal" unicode="&#x2264;" horiz-adv-x="1706" 
d="M1444 150v-117h-1182v117h1182zM1444 1067l-977 -324l977 -323v-125l-1182 399v101l1182 397v-125z" />
    <glyph glyph-name="greaterequal" unicode="&#x2265;" horiz-adv-x="1706" 
d="M1444 150v-117h-1182v117h1182zM1444 795v-101l-1182 -399v125l979 323l-979 324v125z" />
    <glyph glyph-name="yen" unicode="&#xa5;" horiz-adv-x="1014" 
d="M508 635q196 306 354 502t201 196q19 0 34 -19t15 -40q0 -11 -114 -152t-205 -262q9 -1 25 -3q173 -20 173 -56q0 -9 -2 -16.5t-6 -14.5q-86 2 -254 6l-102 -141q211 -10 264 -22.5t53 -39.5q0 -8 -2 -15.5t-6 -14.5q-37 1 -79 1.5t-124 0.5h-166q-76 -184 -121.5 -373.5
t-89.5 -189.5q-31 0 -53 26t-22 64t35 170.5t92 294.5l-2 6h-58q-90 0 -181 -2h-22q-34 0 -49.5 14.5t-15.5 46.5q0 16 70 23.5t235 9.5l-31 135h-161q-35 0 -50.5 15t-15.5 46q0 8 9 12t32 7q39 7 135 9q23 1 35 1q-19 108 -29 186.5t-10 114.5q0 39 19.5 59.5t56.5 20.5
q71 0 97 -282q18 -194 36 -324z" />
    <glyph glyph-name="mu" unicode="&#xb5;" horiz-adv-x="1128" 
d="M362 1069l-126 -595q-8 -33 -11.5 -66.5t-3.5 -71.5q0 -109 57 -168t160 -59q125 0 208 101t128 308l121 551h156l-162 -754q-12 -52 -17.5 -84t-5.5 -51q0 -32 18.5 -48.5t53.5 -16.5q9 0 17.5 0.5t17.5 1.5l-26 -125q-22 -5 -45.5 -7.5t-47.5 -2.5q-70 0 -104.5 35
t-40.5 112q-41 -70 -117 -108.5t-172 -38.5q-87 0 -152.5 34t-109.5 103l-113 -545h-156l316 1495h157z" />
    <glyph glyph-name="partialdiff" unicode="&#x2202;" horiz-adv-x="1044" 
d="M754 604q13 81 19.5 161.5t6.5 158.5q0 140 -39.5 216.5t-111.5 76.5q-53 0 -117 -63.5t-109 -63.5q-29 0 -51 21.5t-22 51.5q0 59 68 105.5t163 46.5q171 0 273 -152.5t102 -412.5q0 -335 -139 -555t-344 -220q-147 0 -241.5 106.5t-94.5 272.5q0 189 108.5 316
t266.5 127q99 0 162.5 -47t99.5 -146zM709 483q0 117 -45 180.5t-127 63.5q-113 0 -184.5 -127.5t-71.5 -333.5q0 -117 44 -178t128 -61q111 0 183.5 128t72.5 328z" />
    <glyph glyph-name="summation" unicode="&#x2211;" horiz-adv-x="1346" 
d="M51 1473h1239v-166h-989l690 -744l-719 -792h1035v-164h-1289v139l738 813l-705 758v156z" />
    <glyph glyph-name="product" unicode="&#x220f;" horiz-adv-x="1528" 
d="M160 1473h1208v-1866h-201v1693h-809v-1693h-198v1866z" />
    <glyph glyph-name="pi" unicode="&#x3c0;" horiz-adv-x="1186" 
d="M1139 930h-185l-110 -516q-14 -66 -21.5 -114.5t-7.5 -74.5q0 -57 24 -81.5t81 -24.5q21 0 46 2.5t52 7.5l-29 -129l-5 -1q-64 -15 -99 -15q-110 0 -168 51.5t-58 150.5q0 48 11.5 121t44.5 230l84 393h-348l-197 -930h-158l197 930h-39q-55 0 -84.5 -31t-40.5 -100h-145
q26 153 94 211.5t223 58.5h866z" />
    <glyph glyph-name="integral" unicode="&#x222b;" horiz-adv-x="1020" 
d="M301 -268q103 0 116 664q3 141 5 216q12 503 102 719.5t281 216.5q76 0 122 -39t46 -104q0 -48 -31 -77.5t-82 -29.5q-53 0 -85 35t-32 92q0 8 -6 15.5t-14 7.5q-105 0 -119 -634q-3 -157 -6 -245q-10 -308 -31.5 -461t-62.5 -247q-49 -114 -123 -173t-168 -59
q-73 0 -119.5 38t-46.5 97q0 53 31.5 84t83.5 31q47 0 79.5 -29t32.5 -67q0 -24 7.5 -37.5t19.5 -13.5z" />
    <glyph glyph-name="ordfeminine" unicode="&#xaa;" horiz-adv-x="403" 
d="M207 1255q0 10 -6.5 16.5t-16.5 6.5q-25 0 -57.5 -32t-67.5 -91q-31 -57 -50 -106t-19 -72q0 -9 3.5 -13t10.5 -3q15 0 42.5 24t55.5 64q44 60 74.5 125t30.5 81zM158 1034q-37 -63 -81 -98t-87 -35q-34 0 -56 24t-22 62q0 51 20.5 108.5t59.5 118.5q36 62 80.5 95.5
t85.5 33.5q28 0 43.5 -6.5t29.5 -23.5q2 0 5 1q23 7 36 7q27 0 44.5 -11.5t17.5 -27.5q0 -8 -18 -42t-29 -58q-28 -58 -45 -106t-17 -68q0 -11 3 -15t10 -4q11 0 32 21.5t70 85.5q9 12 21 30t18 19q8 0 16 -11t8 -20q0 -11 -23.5 -51t-57.5 -82q-28 -33 -50 -46t-47 -13
q-32 0 -49.5 22t-17.5 62v28z" />
    <glyph glyph-name="ordmasculine" unicode="&#xba;" horiz-adv-x="354" 
d="M164 1286q4 0 12.5 1t13.5 1q33 0 52.5 -29.5t21.5 -82.5q40 11 73 49.5t42 38.5q12 0 18 -5t6 -16t-6 -22t-20 -25q-28 -38 -58.5 -59.5t-64.5 -26.5q-34 -111 -87 -169t-120 -58q-50 0 -81.5 32.5t-31.5 85.5q0 47 25.5 113.5t67.5 126.5q24 36 47 54t45 18
q14 0 26 -7.5t19 -19.5zM25 995q0 -23 8 -34t24 -11q40 0 85.5 82t45.5 158q0 18 -7 28.5t-19 10.5q-39 0 -88 -80.5t-49 -153.5z" />
    <glyph glyph-name="Omega" unicode="&#x3a9;" horiz-adv-x="1573" 
d="M1473 156v-156h-590v150q193 111 296 279t103 374q0 251 -137 405t-359 154q-221 0 -359 -155t-138 -404q0 -205 103 -373.5t298 -279.5v-150h-590v156h332q-164 133 -242.5 285t-78.5 335q0 329 188.5 533t486.5 204q299 0 487.5 -202.5t188.5 -530.5
q0 -186 -78.5 -338.5t-242.5 -285.5h332z" />
    <glyph glyph-name="ae" unicode="&#xe6;" horiz-adv-x="682" 
d="M195 131q-48 -80 -102 -123t-107 -43q-46 0 -74.5 34.5t-28.5 90.5q0 69 27.5 152.5t79.5 171.5q51 92 110.5 145t110.5 53q32 0 57.5 -18t46.5 -57q32 67 64 98t70 31q13 0 27 -5t30 -16q14 -4 37 -10q59 -16 59 -72q0 -125 -71.5 -230.5t-147.5 -105.5q-16 0 -31.5 7.5
t-29.5 21.5q-8 -27 -11.5 -53t-3.5 -56q0 -56 16.5 -86t47.5 -30q55 0 130.5 69.5t133.5 178.5q3 6 9 17q26 50 38 50q10 0 19.5 -11.5t9.5 -27.5q0 -21 -23.5 -67t-62.5 -97q-74 -95 -139.5 -136.5t-139.5 -41.5t-112 42t-39 124zM276 471q0 14 -8 22.5t-22 8.5
q-34 0 -78 -46t-88 -128q-42 -79 -67 -149.5t-25 -106.5q1 -15 4.5 -19.5t11.5 -3.5q20 0 56.5 35t74.5 92q59 88 100 180.5t41 114.5zM393 291q33 0 66 73t33 144q0 12 -8 21.5t-17 9.5q-28 0 -70.5 -71.5t-42.5 -115.5q0 -28 11 -44.5t28 -16.5z" />
    <glyph glyph-name="oslash" unicode="&#xf8;" horiz-adv-x="473" 
d="M217 514q4 1 9.5 2.5t6.5 1.5q3 0 7 -1t6 -1q14 26 35 67q38 74 65 74q14 0 24.5 -10t10.5 -22q0 -19 -16 -52.5t-50 -85.5q20 -26 28.5 -57.5t8.5 -73.5q53 17 97 72t57 55q15 0 24 -7.5t9 -20.5q0 -16 -9 -32t-28 -36q-37 -54 -78 -85.5t-86 -39.5q-44 -157 -114 -238
t-161 -81l-9 1.5t-17 2.5q-43 -106 -61 -133t-37 -27q-16 0 -25.5 10t-9.5 27q0 16 13 45.5t54 99.5q-30 26 -43.5 59t-13.5 81q0 65 33 160t88 182q31 49 61.5 73.5t61.5 24.5q20 0 35.5 -9t23.5 -26zM33 98q0 -32 10.5 -47.5t32.5 -15.5q53 0 114.5 117t61.5 225
q0 27 -10 42t-27 15q-50 0 -116 -115.5t-66 -220.5z" />
    <glyph glyph-name="questiondown" unicode="&#xbf;" horiz-adv-x="973" 
d="M266 68q-90 39 -130 87.5t-40 118.5q0 127 286 466q149 177 235 286q10 5 21 7.5t32 2.5q33 0 45 -7.5t12 -27.5q0 -27 -131 -206q-63 -85 -100 -138q-13 -17 -36 -50q-198 -275 -198 -380q0 -43 22 -66.5t62 -23.5q79 0 189 77.5t200 201.5q40 -29 54 -48.5t14 -41.5
q0 -29 -25 -66t-78 -86q-103 -99 -182.5 -151t-126.5 -52q-45 0 -74 22.5t-51 74.5zM786 1335q37 0 58.5 -19.5t21.5 -53.5q0 -46 -51.5 -99t-101.5 -53q-33 0 -57.5 24t-24.5 54q0 48 50 97.5t105 49.5z" />
    <glyph glyph-name="exclamdown" unicode="&#xa1;" horiz-adv-x="522" 
d="M498 1339q43 0 67.5 -17t24.5 -48q0 -52 -48.5 -98t-95.5 -46q-28 0 -43.5 21.5t-15.5 60.5q0 50 33 88.5t78 38.5zM346 979q2 43 16 58.5t52 15.5q29 0 42 -7t13 -22q0 -72 -65.5 -335.5t-167.5 -538.5q-3 -7 -7 -17q-57 -151 -123 -151q-31 0 -56 20.5t-25 42.5
q0 8 18 37q5 7 8 12q36 99 117 341t178 544z" />
    <glyph glyph-name="logicalnot" unicode="&#xac;" horiz-adv-x="1706" 
d="M1452 858v-502h-115v385h-1083v117h1198z" />
    <glyph glyph-name="radical" unicode="&#x221a;" horiz-adv-x="1288" 
d="M1288 1647v-82h-119l-594 -1606h-53l-323 893l-119 -43l-23 68l262 92l265 -729l522 1407h182z" />
    <glyph glyph-name="florin" unicode="&#x192;" horiz-adv-x="645" 
d="M211 506q53 325 178 540.5t240 215.5q21 0 40.5 -18.5t35.5 -54.5q5 -5 16 -18q49 -56 49 -73q0 -15 -16.5 -28t-32.5 -13q-22 0 -40 30.5t-42 30.5q-84 0 -161.5 -157t-137.5 -449q6 0 18.5 -1t18.5 -1q61 0 81.5 -9.5t20.5 -37.5q0 -31 -25 -42t-132 -11
q-52 -412 -173 -661t-255 -249q-23 0 -42.5 28.5t-19.5 63.5q0 24 12.5 38t34.5 14q12 -1 20 -6t13 -13q92 21 156.5 201.5t121.5 585.5h-14q-38 0 -60 12t-22 33q0 17 28 29t89 20z" />
    <glyph glyph-name="approxequal" unicode="&#x2248;" horiz-adv-x="1706" 
d="M1530 453q-107 -75 -202 -110.5t-187 -35.5q-98 0 -288 69.5t-290 69.5q-82 0 -169.5 -35.5t-215.5 -123.5v131q106 73 202 109t185 36q111 0 301.5 -68.5t276.5 -68.5q85 0 173.5 35.5t213.5 122.5v-131zM1530 803q-104 -73 -200 -108.5t-187 -35.5q-100 0 -290 69
t-290 69q-83 0 -171.5 -36t-213.5 -122v131q106 73 202 109t185 36q111 0 300.5 -68.5t277.5 -68.5q87 0 175 35t212 121v-131z" />
    <glyph glyph-name="Delta" unicode="&#x2206;" horiz-adv-x="1356" 
d="M1122 158l-444 1138l-445 -1138h889zM780 1473l586 -1473h-1374l586 1473h202z" />
    <glyph glyph-name="guillemotleft" unicode="&#xab;" horiz-adv-x="606" 
d="M354 283q14 -52 39 -101t25 -53q0 -16 -21 -27.5t-51 -11.5q-13 0 -50.5 75.5t-37.5 115.5q0 14 31.5 55.5t89.5 101.5q8 9 21 24q16 19 22 19q22 0 47 -10.5t25 -24.5q0 -8 -25 -38t-115 -125zM156 283q13 -51 37 -100.5t24 -53.5q0 -16 -21 -27.5t-51 -11.5
q-13 0 -49.5 75.5t-36.5 115.5q0 14 32 55.5t89 101.5q9 10 21 24q17 19 22 19q22 0 47 -10.5t25 -24.5q0 -8 -25 -38t-114 -125z" />
    <glyph glyph-name="guillemotright" unicode="&#xbb;" horiz-adv-x="606" 
d="M371 289q-14 51 -38 100t-24 53q0 16 21 27.5t51 11.5q13 0 49.5 -76.5t36.5 -117.5q0 -11 -33.5 -54t-87.5 -100q-8 -8 -19 -21q-19 -22 -26 -22q-19 0 -44.5 11t-25.5 22q0 18 106 130zM172 289q-14 51 -38.5 100.5t-24.5 52.5q0 16 20.5 27.5t50.5 11.5
q13 0 50.5 -76.5t37.5 -117.5q0 -11 -33.5 -54t-87.5 -100q-7 -8 -19 -21q-18 -22 -26 -22q-18 0 -43.5 11t-25.5 22q0 18 106 130z" />
    <glyph glyph-name="ellipsis" unicode="&#x2026;" horiz-adv-x="2048" 
d="M221 -31q-45 0 -67.5 18.5t-22.5 55.5q0 52 41.5 90.5t93.5 38.5q29 0 48.5 -17.5t19.5 -43.5q0 -45 -41.5 -93.5t-71.5 -48.5zM903 -31q-45 0 -67.5 18.5t-22.5 55.5q0 52 41.5 90.5t93.5 38.5q29 0 48.5 -17.5t19.5 -43.5q0 -45 -41.5 -93.5t-71.5 -48.5zM1587 -31
q-45 0 -67.5 18.5t-22.5 55.5q0 52 41.5 90.5t93.5 38.5q29 0 48.5 -17.5t19.5 -43.5q0 -45 -41.5 -93.5t-71.5 -48.5z" />
    <glyph glyph-name="nonbreakingspace" unicode="&#xa0;" horiz-adv-x="1014" 
 />
    <glyph glyph-name="Agrave" unicode="&#xc0;" horiz-adv-x="920" 
d="M230 416q94 9 182 14.5t167 7.5q9 208 23.5 380t36.5 315q-159 -237 -408 -714zM579 315q-102 -8 -209.5 -23t-217.5 -36q-25 -51 -58 -137q-59 -158 -135 -158q-15 0 -25 11.5t-10 29.5q0 65 133.5 347.5t339.5 633.5h1q171 293 284 293q23 0 54.5 -12t42.5 -15
q35 -9 47.5 -19.5t13.5 -29.5q0 -15 -18.5 -45t-24.5 -51q-24 -71 -49 -332.5t-25 -554.5q0 -35 2 -77.5t2 -49.5q0 -37 -20.5 -57.5t-57.5 -20.5q-65 0 -68 235q-1 45 -2 68zM727 1391q-9 0 -18.5 5.5t-15.5 15.5l-4 7q-6 9 -50 67.5t-67 101.5l-6 10q-2 4 -2 8
q0 7 3.5 9.5t14.5 2.5h94q9 0 16 -6.5t11 -20.5l2 -7q14 -48 34 -94t38 -72l6 -7q2 -3 3 -5.5t1 -6.5t-4 -6t-13 -2h-43z" />
    <glyph glyph-name="Atilde" unicode="&#xc3;" horiz-adv-x="920" 
d="M230 416q94 9 182 14.5t167 7.5q9 208 23.5 380t36.5 315q-159 -237 -408 -714zM579 315q-102 -8 -209.5 -23t-217.5 -36q-25 -51 -58 -137q-59 -158 -135 -158q-15 0 -25 11.5t-10 29.5q0 65 133.5 347.5t339.5 633.5h1q171 293 284 293q23 0 54.5 -12t42.5 -15
q35 -9 47.5 -19.5t13.5 -29.5q0 -15 -18.5 -45t-24.5 -51q-24 -71 -49 -332.5t-25 -554.5q0 -35 2 -77.5t2 -49.5q0 -37 -20.5 -57.5t-57.5 -20.5q-65 0 -68 235q-1 45 -2 68zM756 1438l-65 31q-12 5 -24 7.5t-21 2.5q-31 0 -48.5 -25.5t-25.5 -25.5h-45q-3 0 -5.5 2t-2.5 4
q0 47 40.5 88t94.5 41q11 0 24 -3t25 -9l61 -35q11 -6 22 -9t21 -3q25 0 43 26.5t29 26.5h45q5 0 6.5 -1t1.5 -5v-4q0 -48 -36 -85.5t-83 -37.5q-13 0 -26 3t-31 11z" />
    <glyph glyph-name="Otilde" unicode="&#xd5;" horiz-adv-x="1102" 
d="M176 317q0 -118 57 -183.5t160 -65.5q100 0 197.5 68t175.5 192q78 125 126 287.5t48 299.5q0 112 -41.5 170t-122.5 58q-73 0 -148.5 -45.5t-154.5 -136.5q-141 -165 -219 -334t-78 -310zM827 1219q118 -17 179 -102.5t61 -233.5q0 -115 -35 -255.5t-96 -265.5
q-91 -184 -228.5 -294.5t-271.5 -110.5q-75 0 -164.5 34t-134.5 79q-50 45 -76 116.5t-26 163.5q0 132 55 280t160 294q114 160 240 260t204 100q33 0 63 -14.5t70 -50.5zM846 1438l-65 31q-12 5 -24 7.5t-21 2.5q-31 0 -48.5 -25.5t-25.5 -25.5h-45q-3 0 -5.5 2t-2.5 4
q0 47 40.5 88t94.5 41q11 0 24 -3t25 -9l61 -35q11 -6 22 -9t21 -3q25 0 43 26.5t29 26.5h45q5 0 6.5 -1t1.5 -5v-4q0 -48 -36 -85.5t-83 -37.5q-13 0 -26 3t-31 11z" />
    <glyph glyph-name="OE" unicode="&#x152;" horiz-adv-x="1663" 
d="M991 414q-30 -97 -50 -166t-34 -121q216 28 337 40.5t165 12.5q50 0 75 -9.5t25 -29.5q0 -38 -89 -52q-19 -3 -30 -5q-136 -22 -315.5 -68.5t-220.5 -46.5q-37 0 -64.5 31t-27.5 76q0 16 4 39.5t12 60.5q-60 -103 -150.5 -161t-191.5 -58q-74 0 -163.5 34t-135.5 79
q-50 45 -76 116.5t-26 163.5q0 132 55 280t160 294q114 160 240.5 260t203.5 100q33 0 63 -14.5t70 -50.5q85 -13 133.5 -56.5t63.5 -119.5l3 17q37 193 200 193q108 0 269 -20.5t208 -20.5q14 0 23.5 -7t9.5 -17q0 -53 -247 -71q-181 -12 -300 -27q-34 -97 -73.5 -229.5
t-88.5 -311.5q132 14 229.5 20t172.5 6q52 0 76 -10.5t24 -34.5q0 -29 -10.5 -43t-35.5 -16q-81 -4 -199 -17.5t-294 -39.5zM176 317q0 -118 57 -183.5t160 -65.5q100 0 197.5 68t175.5 192q78 125 126 287.5t48 299.5q0 112 -41.5 170t-122.5 58q-73 0 -148.5 -45.5
t-154.5 -136.5q-141 -165 -219 -334t-78 -310z" />
    <glyph glyph-name="oe" unicode="&#x153;" horiz-adv-x="702" 
d="M33 98q0 -32 10.5 -47.5t32.5 -15.5q53 0 114.5 117t61.5 225q0 27 -10 42t-27 15q-50 0 -116 -115.5t-66 -220.5zM410 291q33 0 65.5 73t32.5 144q0 12 -7.5 21.5t-17.5 9.5q-28 0 -70 -71.5t-42 -115.5q0 -28 10.5 -44.5t28.5 -16.5zM338 256q-7 -26 -10.5 -52.5
t-3.5 -56.5q0 -56 16 -86t47 -30q55 0 132 70t134 177l13 26q21 42 32 42q10 0 19.5 -11.5t9.5 -27.5q0 -21 -23.5 -67t-62.5 -97q-75 -96 -141 -137t-144 -41q-40 0 -69.5 19t-50.5 59q-51 -59 -87.5 -79.5t-85.5 -20.5q-68 0 -108.5 44.5t-40.5 121.5q0 67 33 161.5
t88 180.5q31 49 61.5 73.5t61.5 24.5q20 0 35.5 -9t24.5 -26l4 1q19 3 32 3q16 0 30.5 -7.5t28.5 -23.5q39 93 75.5 136t78.5 43q12 0 26 -5t29 -16q14 -4 37 -10q59 -16 59 -72q0 -125 -71.5 -230.5t-147.5 -105.5q-16 0 -31.5 7.5t-29.5 21.5z" />
    <glyph glyph-name="endash" unicode="&#x2013;" 
d="M104 227h-16q-135 0 -166 11.5t-31 46.5q0 28 11 47t30 26q42 -6 101.5 -9t206.5 -3h450q53 0 115 3t69 3q29 0 36.5 -8t7.5 -49v-14q0 -33 -32 -43.5t-161 -10.5h-113h-508z" />
    <glyph glyph-name="emdash" unicode="&#x2014;" horiz-adv-x="2048" 
d="M1645 346h77q53 0 114 3t69 3q29 0 36 -8t7 -49v-14q0 -33 -32 -43.5t-161 -10.5h-113h-1548q-135 0 -165.5 11.5t-30.5 46.5q0 28 10.5 47t30.5 26q41 -6 100.5 -9t206.5 -3h1399z" />
    <glyph glyph-name="quotedblleft" unicode="&#x201c;" horiz-adv-x="682" 
d="M571 1300q20 0 24.5 -6t4.5 -26q0 -144 -24.5 -227t-67.5 -83q-16 0 -27.5 13t-11.5 33q0 34 22 121t27 132q2 24 14.5 33.5t38.5 9.5zM397 1300q21 0 26 -6.5t5 -25.5q0 -142 -25.5 -226t-68.5 -84q-16 0 -26.5 13t-10.5 33q0 34 22 121t27 132q2 25 13.5 34t37.5 9z
" />
    <glyph glyph-name="quotedblright" unicode="&#x201d;" horiz-adv-x="682" 
d="M520 971q-21 0 -29 5.5t-8 20.5q0 20 16.5 79t43.5 126q23 61 39 79.5t41 18.5q18 0 29.5 -10.5t11.5 -27.5q0 -24 -36.5 -106.5t-53.5 -130.5q-2 -5 -6 -16q-13 -38 -48 -38zM346 971q-22 0 -30.5 5.5t-8.5 20.5q0 18 17 77.5t45 127.5q24 64 39 81t38 17q19 0 30 -11.5
t11 -31.5q0 -21 -35 -102t-52 -130l-6 -15q-14 -39 -48 -39z" />
    <glyph glyph-name="quoteleft" unicode="&#x2018;" horiz-adv-x="508" 
d="M397 1300q21 0 26 -6.5t5 -25.5q0 -142 -25.5 -226t-68.5 -84q-16 0 -26.5 13t-10.5 33q0 34 22 121t27 132q2 25 13.5 34t37.5 9z" />
    <glyph glyph-name="quoteright" unicode="&#x2019;" horiz-adv-x="508" 
d="M346 971q-22 0 -30.5 5.5t-8.5 20.5q0 18 17 77.5t45 127.5q24 64 39 81t38 17q19 0 30 -11t11 -29q0 -23 -35 -105.5t-52 -129.5l-6 -15q-14 -39 -48 -39z" />
    <glyph glyph-name="divide" unicode="&#xf7;" horiz-adv-x="1706" 
d="M854 365q47 0 81 -34t34 -81t-33.5 -81t-81.5 -34t-81.5 33.5t-33.5 81.5t34 81.5t81 33.5zM1452 670v-117h-1198v117h1198zM854 1085q48 0 81.5 -33.5t33.5 -80.5q0 -48 -33.5 -81.5t-81.5 -33.5q-49 0 -82 33.5t-33 81.5q0 47 34 80.5t81 33.5z" />
    <glyph glyph-name="lozenge" unicode="&#x25ca;" horiz-adv-x="1012" 
d="M506 1409l-385 -817l385 -825l385 825zM506 1653l500 -1061l-500 -1069l-500 1069z" />
    <glyph glyph-name="ydieresis" unicode="&#xff;" horiz-adv-x="487" 
d="M182 170q-35 -69 -75.5 -107t-75.5 -38q-15 0 -25 6t-18 20q-22 17 -32.5 44t-10.5 65q0 145 56.5 287.5t111.5 142.5q25 0 50 -17.5t25 -35.5q0 -9 -5.5 -15.5t-18.5 -11.5q-51 -104 -81 -205.5t-30 -157.5q0 -9 3.5 -14.5t9.5 -5.5q27 0 103.5 127t127.5 282q4 14 9 42
q12 71 71 71q29 0 48 -11.5t24 -31.5q6 -6 9 -13t3 -15q-1 -12 -7.5 -20.5t-20.5 -16.5q-109 -199 -152.5 -460.5t-44.5 -265.5q-24 -86 -108 -144t-171 -58q-51 0 -88.5 22.5t-77.5 75.5q-21 15 -31 33.5t-10 42.5q0 27 10.5 38t34.5 11q23 0 35 -59q3 -15 7 -30
q30 -23 71 -36.5t90 -13.5q10 0 21 0.5t34 3.5q48 24 106 341q15 82 23 128zM385 903q25 0 39.5 -14.5t14.5 -40.5q0 -42 -29 -74.5t-66 -32.5q-20 0 -34.5 16t-14.5 40q0 41 28 73.5t62 32.5zM164 903q25 0 38 -14.5t13 -40.5q0 -42 -27.5 -74.5t-64.5 -32.5q-21 0 -35 16
t-14 40q0 41 28 73.5t62 32.5z" />
    <glyph glyph-name="Ydieresis" unicode="&#x178;" horiz-adv-x="807" 
d="M414 635q204 315 358.5 506.5t200.5 191.5q22 0 36.5 -18t14.5 -41q0 -11 -122 -162t-224 -289q-15 -19 -45 -58q-134 -172 -191 -323q-53 -142 -95 -322q-34 -143 -79 -143q-36 0 -62 27.5t-26 67.5q0 39 35 170.5t92 294.5q-50 212 -78 376.5t-28 247.5q0 39 20 59.5
t60 20.5q72 0 95 -268q18 -201 38 -338zM792 1567q25 0 39.5 -14.5t14.5 -40.5q0 -42 -29 -74.5t-66 -32.5q-20 0 -34.5 16t-14.5 40q0 41 28 73.5t62 32.5zM571 1567q25 0 38 -14.5t13 -40.5q0 -42 -27.5 -74.5t-64.5 -32.5q-21 0 -35 16t-14 40q0 41 28 73.5t62 32.5z" />
    <glyph glyph-name="fraction" unicode="&#x2215;" horiz-adv-x="342" 
d="M702 1221q-333 -401 -631 -835.5t-321 -434.5q-19 0 -34 19.5t-15 39.5q0 15 127.5 202.5t333.5 475.5q238 332 361.5 481.5t160.5 149.5q19 0 31 -15.5t12 -39.5q0 -15 -5.5 -25t-19.5 -18z" />
    <glyph glyph-name="currency" unicode="&#xa4;" horiz-adv-x="1241" 
d="M936 887q0 129 -91.5 221t-221.5 92t-222 -92t-92 -221q0 -131 91.5 -223.5t222.5 -92.5q129 0 221 93t92 223zM365 1212q60 46 122.5 68.5t133.5 22.5t135.5 -22.5t124.5 -68.5l204 207l72 -73l-205 -205q43 -57 64.5 -121t21.5 -135t-21.5 -135.5t-64.5 -120.5
l205 -205l-72 -74l-204 207q-57 -44 -121.5 -66t-138.5 -22t-136.5 21.5t-119.5 66.5l-207 -207l-72 74l207 205q-44 58 -66 122t-22 134q0 69 22 133.5t66 122.5l-207 205l72 73z" />
    <glyph glyph-name="guilsinglleft" unicode="&#x2039;" horiz-adv-x="408" 
d="M156 283q13 -51 37 -100.5t24 -53.5q0 -16 -21 -27.5t-51 -11.5q-13 0 -49.5 75.5t-36.5 115.5q0 14 32 55.5t89 101.5q9 10 21 24q17 19 22 19q22 0 47 -10.5t25 -24.5q0 -8 -25 -38t-114 -125z" />
    <glyph glyph-name="guilsinglright" unicode="&#x203a;" horiz-adv-x="408" 
d="M172 289q-14 51 -38.5 100.5t-24.5 52.5q0 16 20.5 27.5t50.5 11.5q13 0 50.5 -76.5t37.5 -117.5q0 -11 -33.5 -54t-87.5 -100q-7 -8 -19 -21q-18 -22 -26 -22q-18 0 -43.5 11t-25.5 22q0 18 106 130z" />
    <glyph glyph-name="fi" unicode="&#xf001;" horiz-adv-x="688" 
d="M514 612q-31 0 -49.5 16t-18.5 44q0 37 39 61.5t80 24.5q27 0 40 -13t13 -38q0 -36 -32 -65.5t-72 -29.5zM80 412h-6q-37 0 -58.5 13t-21.5 34q0 16 27.5 27.5t87.5 19.5q86 332 214.5 539.5t233.5 207.5q15 0 29.5 -15.5t28.5 -48.5q5 -6 16 -18q49 -56 49 -73
q0 -15 -16.5 -28t-32.5 -13q-22 0 -39 30.5t-41 30.5q-114 0 -316 -573l-12 -33q5 0 17 -1t20 -1q78 0 157 24.5t87 24.5q19 0 30 -8.5t11 -24.5q0 -6 -14 -42l-15 -40l-13 -37q-85 -232 -85 -292q0 -23 8.5 -34t26.5 -11q27 0 76.5 50.5t97.5 129.5q10 16 21.5 40.5
t19.5 24.5q12 0 24.5 -11.5t12.5 -27.5q0 -7 -22 -48.5t-54 -92.5q-56 -85 -99.5 -119t-93.5 -34q-54 0 -85.5 44.5t-31.5 123.5q0 41 12.5 106t41.5 170q-55 -8 -100 -12t-83 -4q-49 -142 -78 -309q-21 -126 -85 -126q-27 0 -40.5 11t-13.5 32q0 34 29.5 143t77.5 251z" />
    <glyph glyph-name="fl" unicode="&#xf002;" horiz-adv-x="786" 
d="M528 403q129 241 211 451t82 270q0 11 -5 17t-13 6q-3 0 -8.5 -1.5t-8.5 -2.5q-88 -226 -152 -409t-106 -331zM109 506q86 333 214.5 541t233.5 208q15 0 29 -16t28 -49l58 -68l16 41q0 1 -1 5q-3 11 -3 16q0 25 34 48t66 23q43 0 87 -41.5t44 -76.5q0 -88 -113 -340.5
t-292 -520.5q-6 -34 -9 -61.5t-3 -50.5q0 -65 13 -94t42 -29q27 0 58.5 32.5t80.5 112.5q18 28 41 70q24 45 33 45q10 0 26.5 -14.5t16.5 -24.5q0 -4 -1 -8t-3 -8q-53 -104 -84.5 -153t-61.5 -79q-31 -31 -60.5 -45t-63.5 -14q-55 0 -100.5 55t-45.5 123q0 25 1.5 47.5
t4.5 44.5q-9 -2 -14 -3t-8 -1q-17 0 -30 19t-13 39q0 15 34 20t58 29q57 213 115.5 400.5t113.5 334.5q-7 -3 -13 -4.5t-11 -1.5q-16 0 -34 30.5t-42 30.5q-114 0 -316 -573l-12 -33q6 0 18.5 -1t18.5 -1q61 0 81.5 -9.5t20.5 -37.5q0 -31 -25 -42t-124 -11h-23
q-49 -142 -78 -309q-21 -126 -85 -126q-27 0 -40.5 11t-13.5 32q0 34 28.5 139.5t78.5 254.5h-6q-37 0 -58.5 13t-21.5 34q0 16 27.5 27.5t87.5 19.5z" />
    <glyph glyph-name="daggerdbl" unicode="&#x2021;" 
d="M385 -225v-15v-18q0 -38 -9.5 -49.5t-35.5 -11.5q-31 0 -51.5 23.5t-20.5 62.5q0 22 11 83.5t54 268.5q-74 -5 -147.5 -12t-76.5 -7q-13 0 -25 16t-12 34q0 20 46 31.5t236 27.5l14 61q66 292 115 491q-61 -4 -136 -11t-83 -7q-13 0 -25 15t-12 33q0 20 45 31.5t229 27.5
l6 20q106 428 138 428q48 0 75.5 -16.5t27.5 -46.5q0 -11 -41.5 -133.5t-73.5 -238.5q21 0 46 0.5t71 0.5q98 0 130.5 -9.5t32.5 -39.5q0 -6 -1.5 -11t-4.5 -9q-60 -3 -160.5 -11t-136.5 -10l-4 -16q-59 -236 -131 -539q13 1 36 2q61 2 83 2q94 0 129 -10t35 -39
q0 -6 -2 -12.5t-4 -9.5q-60 -3 -161 -11t-136 -10q-26 -113 -43 -202t-27 -154z" />
    <glyph glyph-name="periodcentered" unicode="&#xb7;" horiz-adv-x="508" 
d="M150 610q0 43 30.5 74t73.5 31t73.5 -31t30.5 -74q0 -42 -31 -72t-73 -30t-73 30t-31 72z" />
    <glyph glyph-name="quotesinglbase" unicode="&#x201a;" horiz-adv-x="508" 
d="M70 -158q-18 0 -25.5 6t-7.5 21q0 20 16.5 79t42.5 126q22 58 39 78t41 20q19 0 30 -11t11 -30q0 -25 -36.5 -109t-53.5 -131l-2 -6q-14 -43 -55 -43z" />
    <glyph glyph-name="quotedblbase" unicode="&#x201e;" horiz-adv-x="682" 
d="M246 -158q-18 0 -25.5 6t-7.5 21q0 20 16.5 79t42.5 126q22 58 39 78t41 20q18 0 29.5 -11t11.5 -28q0 -27 -37 -111.5t-53 -130.5l-2 -6q-14 -43 -55 -43zM70 -158q-18 0 -25.5 6t-7.5 21q0 20 16.5 79t42.5 126q22 58 39 78t41 20q19 0 30 -11.5t11 -31.5
q0 -24 -36.5 -106.5t-53.5 -131.5l-2 -6q-14 -43 -55 -43z" />
    <glyph glyph-name="perthousand" unicode="&#x2030;" horiz-adv-x="1450" 
d="M954 1034l-462 -516q-137 -152 -294 -338t-175 -186q-25 0 -43.5 24.5t-18.5 57.5q0 22 114 148l7 7l659 734l21 22q233 260 317 260q15 0 25 -13t10 -32q0 -24 -61 -74.5t-99 -93.5zM981 59q0 -10 10 -18t23 -8q47 0 98 79t51 154q0 42 -11 64t-32 22
q-34 0 -86.5 -103.5t-52.5 -189.5zM1062 446q21 11 41 16t38 5q54 0 90.5 -53t36.5 -135q0 -130 -70.5 -220t-167.5 -90q-114 0 -150 24t-36 83q0 63 36.5 161t86.5 162q15 21 33 30.5t62 16.5zM508 59q0 -10 10 -18t23 -8q46 0 96.5 79t50.5 154q0 42 -11 64t-32 22
q-34 0 -85.5 -103t-51.5 -190zM590 446q20 11 40 16t38 5q54 0 90.5 -53t36.5 -135q0 -130 -70.5 -220t-167.5 -90q-114 0 -150 24t-36 83q0 64 35.5 162t85.5 161q15 20 33.5 30t64.5 17zM313 850q0 -28 11 -43.5t30 -15.5q41 0 90.5 88.5t49.5 173.5q0 26 -11 43.5
t-26 17.5q-35 0 -89.5 -96t-54.5 -168zM482 1200q55 -1 84.5 -34.5t29.5 -96.5q0 -130 -82.5 -239t-196.5 -109q-65 0 -99 36t-34 105q0 48 25.5 120.5t69.5 143.5q24 42 66 68.5t81 26.5q12 0 26 -5t30 -16z" />
    <glyph glyph-name="Acircumflex" unicode="&#xc2;" horiz-adv-x="920" 
d="M230 416q94 9 182 14.5t167 7.5q9 208 23.5 380t36.5 315q-159 -237 -408 -714zM579 315q-102 -8 -209.5 -23t-217.5 -36q-25 -51 -58 -137q-59 -158 -135 -158q-15 0 -25 11.5t-10 29.5q0 65 133.5 347.5t339.5 633.5h1q171 293 284 293q23 0 54.5 -12t42.5 -15
q35 -9 47.5 -19.5t13.5 -29.5q0 -15 -18.5 -45t-24.5 -51q-24 -71 -49 -332.5t-25 -554.5q0 -35 2 -77.5t2 -49.5q0 -37 -20.5 -57.5t-57.5 -20.5q-65 0 -68 235q-1 45 -2 68zM684 1620h91q10 0 18 -4.5t20 -21.5l5 -4q20 -31 40.5 -68.5t28.5 -58.5l4 -6q3 -6 4.5 -12
t1.5 -11t-2 -7.5t-10 -6.5l-43 -21q-1 0 -4 -1q-7 -3 -10 -3q-12 1 -22 21l-1 2l-2 6q-1 2 -5 9q-38 72 -73 118q-48 -54 -84 -91.5t-45 -43.5l-3 -2q-3 -2 -8.5 -8.5t-10.5 -6.5t-7.5 1t-7.5 5l-34 39q-3 3 -4.5 6.5t-1.5 8.5q0 3 2.5 8t7.5 8l4 4q12 8 46.5 43.5
t66.5 75.5l2 7q5 7 11.5 11t14.5 4h10z" />
    <glyph glyph-name="Ecircumflex" unicode="&#xca;" horiz-adv-x="930" 
d="M256 414q-30 -97 -50 -166t-34 -121q220 28 338.5 40.5t163.5 12.5q50 0 75 -9.5t25 -29.5q0 -41 -97 -54q-13 -2 -20 -3q-129 -21 -310 -68t-228 -47q-40 0 -71.5 32t-31.5 75q0 26 66.5 274.5t218.5 792.5q23 82 49 96t160 14q67 0 220.5 -17.5t236.5 -23.5
q17 -1 25.5 -7t8.5 -17q0 -53 -247 -71q-180 -12 -299 -27q-37 -107 -76.5 -240t-85.5 -301q131 14 229 20t172 6q54 0 78.5 -10.5t24.5 -34.5q0 -28 -11.5 -42.5t-36.5 -16.5q-81 -4 -199 -17.5t-294 -39.5zM688 1620h91q10 0 18 -4.5t20 -21.5l5 -4q20 -31 40.5 -68.5
t28.5 -58.5l4 -6q3 -6 4.5 -12t1.5 -11t-2 -7.5t-10 -6.5l-43 -21q-1 0 -4 -1q-7 -3 -10 -3q-12 1 -22 21l-1 2l-2 6q-1 2 -5 9q-38 72 -73 118q-48 -54 -84 -91.5t-45 -43.5l-3 -2q-3 -2 -8.5 -8.5t-10.5 -6.5t-7.5 1t-7.5 5l-34 39q-3 3 -4.5 6.5t-1.5 8.5q0 3 2.5 8
t7.5 8l4 4q12 8 46.5 43.5t66.5 75.5l2 7q5 7 11.5 11t14.5 4h10z" />
    <glyph glyph-name="Aacute" unicode="&#xc1;" horiz-adv-x="920" 
d="M230 416q94 9 182 14.5t167 7.5q9 208 23.5 380t36.5 315q-159 -237 -408 -714zM579 315q-102 -8 -209.5 -23t-217.5 -36q-25 -51 -58 -137q-59 -158 -135 -158q-15 0 -25 11.5t-10 29.5q0 65 133.5 347.5t339.5 633.5h1q171 293 284 293q23 0 54.5 -12t42.5 -15
q35 -9 47.5 -19.5t13.5 -29.5q0 -15 -18.5 -45t-24.5 -51q-24 -71 -49 -332.5t-25 -554.5q0 -35 2 -77.5t2 -49.5q0 -37 -20.5 -57.5t-57.5 -20.5q-65 0 -68 235q-1 45 -2 68zM869 1618q9 0 13.5 -3t4.5 -9q0 -3 -1.5 -6t-4.5 -6l-8 -10q-39 -48 -85 -97t-71 -69l-8 -9
q-11 -9 -20.5 -13.5t-20.5 -4.5h-45q-9 0 -12.5 3t-3.5 9q0 2 3 5t5 6l6 8q18 18 51.5 66t59.5 98l4 8q6 13 14.5 18.5t19.5 5.5h99z" />
    <glyph glyph-name="Edieresis" unicode="&#xcb;" horiz-adv-x="930" 
d="M256 414q-30 -97 -50 -166t-34 -121q220 28 338.5 40.5t163.5 12.5q50 0 75 -9.5t25 -29.5q0 -41 -97 -54q-13 -2 -20 -3q-129 -21 -310 -68t-228 -47q-40 0 -71.5 32t-31.5 75q0 26 66.5 274.5t218.5 792.5q23 82 49 96t160 14q67 0 220.5 -17.5t236.5 -23.5
q17 -1 25.5 -7t8.5 -17q0 -53 -247 -71q-180 -12 -299 -27q-37 -107 -76.5 -240t-85.5 -301q131 14 229 20t172 6q54 0 78.5 -10.5t24.5 -34.5q0 -28 -11.5 -42.5t-36.5 -16.5q-81 -4 -199 -17.5t-294 -39.5zM854 1567q25 0 39.5 -14.5t14.5 -40.5q0 -42 -29 -74.5
t-66 -32.5q-20 0 -34.5 16t-14.5 40q0 41 28 73.5t62 32.5zM633 1567q25 0 38 -14.5t13 -40.5q0 -42 -27.5 -74.5t-64.5 -32.5q-21 0 -35 16t-14 40q0 41 28 73.5t62 32.5z" />
    <glyph glyph-name="Egrave" unicode="&#xc8;" horiz-adv-x="930" 
d="M256 414q-30 -97 -50 -166t-34 -121q220 28 338.5 40.5t163.5 12.5q50 0 75 -9.5t25 -29.5q0 -41 -97 -54q-13 -2 -20 -3q-129 -21 -310 -68t-228 -47q-40 0 -71.5 32t-31.5 75q0 26 66.5 274.5t218.5 792.5q23 82 49 96t160 14q67 0 220.5 -17.5t236.5 -23.5
q17 -1 25.5 -7t8.5 -17q0 -53 -247 -71q-180 -12 -299 -27q-37 -107 -76.5 -240t-85.5 -301q131 14 229 20t172 6q54 0 78.5 -10.5t24.5 -34.5q0 -28 -11.5 -42.5t-36.5 -16.5q-81 -4 -199 -17.5t-294 -39.5zM731 1391q-9 0 -18.5 5.5t-15.5 15.5l-4 7q-6 9 -50 67.5
t-67 101.5l-6 10q-2 4 -2 8q0 7 3.5 9.5t14.5 2.5h94q9 0 16 -6.5t11 -20.5l2 -7q14 -48 34 -94t38 -72l6 -7q2 -3 3 -5.5t1 -6.5t-4 -6t-13 -2h-43z" />
    <glyph glyph-name="Iacute" unicode="&#xcd;" horiz-adv-x="469" 
d="M158 57v-16v-3q2 -11 2 -20q0 -16 -13.5 -25t-37.5 -9q-52 0 -77.5 17t-25.5 52q0 44 70 287t186 598q5 15 15 46q92 292 178 292q20 0 50 -24t30 -46q0 -7 -31 -80q-205 -492 -346 -1069zM643 1618q9 0 13.5 -3t4.5 -9q0 -3 -1.5 -6t-4.5 -6l-8 -10q-39 -48 -85 -97
t-71 -69l-8 -9q-11 -9 -20.5 -13.5t-20.5 -4.5h-45q-9 0 -12.5 3t-3.5 9q0 2 3 5t5 6l6 8q18 18 51.5 66t59.5 98l4 8q6 13 14.5 18.5t19.5 5.5h99z" />
    <glyph glyph-name="Icircumflex" unicode="&#xce;" horiz-adv-x="469" 
d="M158 57v-16v-3q2 -11 2 -20q0 -16 -13.5 -25t-37.5 -9q-52 0 -77.5 17t-25.5 52q0 44 70 287t186 598q5 15 15 46q92 292 178 292q20 0 50 -24t30 -46q0 -7 -31 -80q-205 -492 -346 -1069zM458 1620h91q10 0 18 -4.5t20 -21.5l5 -4q20 -31 40.5 -68.5t28.5 -58.5l4 -6
q3 -6 4.5 -12t1.5 -11t-2 -7.5t-10 -6.5l-43 -21q-1 0 -4 -1q-7 -3 -10 -3q-12 1 -22 21l-1 2l-2 6q-1 2 -5 9q-38 72 -73 118q-48 -54 -84 -91.5t-45 -43.5l-3 -2q-3 -2 -8.5 -8.5t-10.5 -6.5t-7.5 1t-7.5 5l-34 39q-3 3 -4.5 6.5t-1.5 8.5q0 3 2.5 8t7.5 8l4 4
q12 8 46.5 43.5t66.5 75.5l2 7q5 7 11.5 11t14.5 4h10z" />
    <glyph glyph-name="Idieresis" unicode="&#xcf;" horiz-adv-x="469" 
d="M158 57v-16v-3q2 -11 2 -20q0 -16 -13.5 -25t-37.5 -9q-52 0 -77.5 17t-25.5 52q0 44 70 287t186 598q5 15 15 46q92 292 178 292q20 0 50 -24t30 -46q0 -7 -31 -80q-205 -492 -346 -1069zM624 1567q25 0 39.5 -14.5t14.5 -40.5q0 -42 -29 -74.5t-66 -32.5
q-20 0 -34.5 16t-14.5 40q0 41 28 73.5t62 32.5zM403 1567q25 0 38 -14.5t13 -40.5q0 -42 -27.5 -74.5t-64.5 -32.5q-21 0 -35 16t-14 40q0 41 28 73.5t62 32.5z" />
    <glyph glyph-name="Igrave" unicode="&#xcc;" horiz-adv-x="469" 
d="M158 57v-16v-3q2 -11 2 -20q0 -16 -13.5 -25t-37.5 -9q-52 0 -77.5 17t-25.5 52q0 44 70 287t186 598q5 15 15 46q92 292 178 292q20 0 50 -24t30 -46q0 -7 -31 -80q-205 -492 -346 -1069zM501 1391q-9 0 -18.5 5.5t-15.5 15.5l-4 7q-6 9 -50 67.5t-67 101.5l-6 10
q-2 4 -2 8q0 7 3.5 9.5t14.5 2.5h94q9 0 16 -6.5t11 -20.5l2 -7q14 -48 34 -94t38 -72l6 -7q2 -3 3 -5.5t1 -6.5t-4 -6t-13 -2h-43z" />
    <glyph glyph-name="Oacute" unicode="&#xd3;" horiz-adv-x="1102" 
d="M176 317q0 -118 57 -183.5t160 -65.5q100 0 197.5 68t175.5 192q78 125 126 287.5t48 299.5q0 112 -41.5 170t-122.5 58q-73 0 -148.5 -45.5t-154.5 -136.5q-141 -165 -219 -334t-78 -310zM827 1219q118 -17 179 -102.5t61 -233.5q0 -115 -35 -255.5t-96 -265.5
q-91 -184 -228.5 -294.5t-271.5 -110.5q-75 0 -164.5 34t-134.5 79q-50 45 -76 116.5t-26 163.5q0 132 55 280t160 294q114 160 240 260t204 100q33 0 63 -14.5t70 -50.5zM959 1618q9 0 13.5 -3t4.5 -9q0 -3 -1.5 -6t-4.5 -6l-8 -10q-39 -48 -85 -97t-71 -69l-8 -9
q-11 -9 -20.5 -13.5t-20.5 -4.5h-45q-9 0 -12.5 3t-3.5 9q0 2 3 5t5 6l6 8q18 18 51.5 66t59.5 98l4 8q6 13 14.5 18.5t19.5 5.5h99z" />
    <glyph glyph-name="Ocircumflex" unicode="&#xd4;" horiz-adv-x="1102" 
d="M176 317q0 -118 57 -183.5t160 -65.5q100 0 197.5 68t175.5 192q78 125 126 287.5t48 299.5q0 112 -41.5 170t-122.5 58q-73 0 -148.5 -45.5t-154.5 -136.5q-141 -165 -219 -334t-78 -310zM827 1219q118 -17 179 -102.5t61 -233.5q0 -115 -35 -255.5t-96 -265.5
q-91 -184 -228.5 -294.5t-271.5 -110.5q-75 0 -164.5 34t-134.5 79q-50 45 -76 116.5t-26 163.5q0 132 55 280t160 294q114 160 240 260t204 100q33 0 63 -14.5t70 -50.5zM774 1620h91q10 0 18 -4.5t20 -21.5l5 -4q20 -31 40.5 -68.5t28.5 -58.5l4 -6q3 -6 4.5 -12t1.5 -11
t-2 -7.5t-10 -6.5l-43 -21q-1 0 -4 -1q-7 -3 -10 -3q-12 1 -22 21l-1 2l-2 6q-1 2 -5 9q-38 72 -73 118q-48 -54 -84 -91.5t-45 -43.5l-3 -2q-3 -2 -8.5 -8.5t-10.5 -6.5t-7.5 1t-7.5 5l-34 39q-3 3 -4.5 6.5t-1.5 8.5q0 3 2.5 8t7.5 8l4 4q12 8 46.5 43.5t66.5 75.5l2 7
q5 7 11.5 11t14.5 4h10z" />
    <glyph glyph-name="apple" unicode="&#xf000;" horiz-adv-x="1618" 
d="M836 1216q-1 6 -1.5 14t-0.5 23q0 124 95 229.5t236 131.5q1 -10 1.5 -23t0.5 -39q0 -131 -103.5 -234.5t-203.5 -103.5h-8q-3 0 -7.5 1t-8.5 1zM1505 403q-114 -247 -205 -342.5t-204 -95.5q-50 0 -131.5 33t-122.5 33q-45 0 -131 -33t-127 -33q-64 0 -128.5 44
t-129.5 132q-102 140 -157.5 295.5t-55.5 300.5q0 219 125 356.5t323 137.5q68 0 155 -34t124 -34q34 0 121.5 35t152.5 35q110 0 198 -40t161 -124q-102 -65 -151.5 -145.5t-49.5 -182.5q0 -113 60 -200t173 -138z" />
    <glyph glyph-name="Ograve" unicode="&#xd2;" horiz-adv-x="1102" 
d="M176 317q0 -118 57 -183.5t160 -65.5q100 0 197.5 68t175.5 192q78 125 126 287.5t48 299.5q0 112 -41.5 170t-122.5 58q-73 0 -148.5 -45.5t-154.5 -136.5q-141 -165 -219 -334t-78 -310zM827 1219q118 -17 179 -102.5t61 -233.5q0 -115 -35 -255.5t-96 -265.5
q-91 -184 -228.5 -294.5t-271.5 -110.5q-75 0 -164.5 34t-134.5 79q-50 45 -76 116.5t-26 163.5q0 132 55 280t160 294q114 160 240 260t204 100q33 0 63 -14.5t70 -50.5zM817 1391q-9 0 -18.5 5.5t-15.5 15.5l-4 7q-6 9 -50 67.5t-67 101.5l-6 10q-2 4 -2 8q0 7 3.5 9.5
t14.5 2.5h94q9 0 16 -6.5t11 -20.5l2 -7q14 -48 34 -94t38 -72l6 -7q2 -3 3 -5.5t1 -6.5t-4 -6t-13 -2h-43z" />
    <glyph glyph-name="Uacute" unicode="&#xda;" horiz-adv-x="1020" 
d="M630 247q-76 -127 -165.5 -204.5t-157.5 -77.5q-102 0 -167.5 71.5t-65.5 192.5q0 114 66 347.5t175 479.5q5 11 12 27q66 150 134 150q34 0 63 -20t29 -48q0 -15 -8 -27t-25 -22q-144 -314 -221.5 -562.5t-77.5 -395.5q0 -49 16 -78t42 -29q30 0 77.5 34.5t104.5 98.5
q73 83 124 164t72 148q100 301 161.5 480.5t84.5 237.5q15 38 34 52t52 14q60 0 94.5 -19.5t34.5 -52.5q0 -20 -7.5 -32.5t-27.5 -22.5q-150 -322 -241.5 -611.5t-91.5 -404.5q0 -40 8 -79q2 -9 2 -11q0 -12 -17.5 -26.5t-35.5 -14.5q-38 0 -60 46.5t-22 125.5
q0 15 1.5 32.5t3.5 36.5zM918 1618q9 0 13.5 -3t4.5 -9q0 -3 -1.5 -6t-4.5 -6l-8 -10q-39 -48 -85 -97t-71 -69l-8 -9q-11 -9 -20.5 -13.5t-20.5 -4.5h-45q-9 0 -12.5 3t-3.5 9q0 2 3 5t5 6l6 8q18 18 51.5 66t59.5 98l4 8q6 13 14.5 18.5t19.5 5.5h99z" />
    <glyph glyph-name="Ucircumflex" unicode="&#xdb;" horiz-adv-x="1020" 
d="M630 247q-76 -127 -165.5 -204.5t-157.5 -77.5q-102 0 -167.5 71.5t-65.5 192.5q0 114 66 347.5t175 479.5q5 11 12 27q66 150 134 150q34 0 63 -20t29 -48q0 -15 -8 -27t-25 -22q-144 -314 -221.5 -562.5t-77.5 -395.5q0 -49 16 -78t42 -29q30 0 77.5 34.5t104.5 98.5
q73 83 124 164t72 148q100 301 161.5 480.5t84.5 237.5q15 38 34 52t52 14q60 0 94.5 -19.5t34.5 -52.5q0 -20 -7.5 -32.5t-27.5 -22.5q-150 -322 -241.5 -611.5t-91.5 -404.5q0 -40 8 -79q2 -9 2 -11q0 -12 -17.5 -26.5t-35.5 -14.5q-38 0 -60 46.5t-22 125.5
q0 15 1.5 32.5t3.5 36.5zM733 1620h91q10 0 18 -4.5t20 -21.5l5 -4q20 -31 40.5 -68.5t28.5 -58.5l4 -6q3 -6 4.5 -12t1.5 -11t-2 -7.5t-10 -6.5l-43 -21q-1 0 -4 -1q-7 -3 -10 -3q-12 1 -22 21l-1 2l-2 6q-1 2 -5 9q-38 72 -73 118q-48 -54 -84 -91.5t-45 -43.5l-3 -2
q-3 -2 -8.5 -8.5t-10.5 -6.5t-7.5 1t-7.5 5l-34 39q-3 3 -4.5 6.5t-1.5 8.5q0 3 2.5 8t7.5 8l4 4q12 8 46.5 43.5t66.5 75.5l2 7q5 7 11.5 11t14.5 4h10z" />
    <glyph glyph-name="Ugrave" unicode="&#xd9;" horiz-adv-x="1020" 
d="M630 247q-76 -127 -165.5 -204.5t-157.5 -77.5q-102 0 -167.5 71.5t-65.5 192.5q0 114 66 347.5t175 479.5q5 11 12 27q66 150 134 150q34 0 63 -20t29 -48q0 -15 -8 -27t-25 -22q-144 -314 -221.5 -562.5t-77.5 -395.5q0 -49 16 -78t42 -29q30 0 77.5 34.5t104.5 98.5
q73 83 124 164t72 148q100 301 161.5 480.5t84.5 237.5q15 38 34 52t52 14q60 0 94.5 -19.5t34.5 -52.5q0 -20 -7.5 -32.5t-27.5 -22.5q-150 -322 -241.5 -611.5t-91.5 -404.5q0 -40 8 -79q2 -9 2 -11q0 -12 -17.5 -26.5t-35.5 -14.5q-38 0 -60 46.5t-22 125.5
q0 15 1.5 32.5t3.5 36.5zM776 1391q-9 0 -18.5 5.5t-15.5 15.5l-4 7q-6 9 -50 67.5t-67 101.5l-6 10q-2 4 -2 8q0 7 3.5 9.5t14.5 2.5h94q9 0 16 -6.5t11 -20.5l2 -7q14 -48 34 -94t38 -72l6 -7q2 -3 3 -5.5t1 -6.5t-4 -6t-13 -2h-43z" />
    <glyph glyph-name="dotlessi" unicode="&#x131;" horiz-adv-x="307" 
d="M57 -18q-53 0 -84.5 45t-31.5 123q0 91 30 208t60 160q12 19 38 30t58 11q18 0 28.5 -8.5t10.5 -24.5q0 -6 -14 -42l-15 -40l-13 -37q-85 -232 -85 -292q0 -23 8.5 -34t26.5 -11q26 0 75 50t97 130q6 11 17 32q17 33 26 33q12 0 24.5 -11.5t12.5 -27.5q0 -7 -35 -66
q-17 -29 -27 -46q-58 -99 -106 -140.5t-101 -41.5z" />
    <glyph glyph-name="circumflex" unicode="&#x2c6;" 
d="M487 956h91q10 0 18 -4.5t20 -21.5l5 -4q20 -31 40.5 -68.5t28.5 -58.5l4 -6q3 -6 4.5 -12t1.5 -11t-2 -7.5t-10 -6.5l-43 -21q-1 0 -4 -1q-7 -3 -10 -3q-12 1 -22 21l-1 2l-2 6q-1 2 -5 9q-38 72 -73 118q-48 -54 -84 -91.5t-45 -43.5l-3 -2q-3 -2 -8.5 -8.5t-10.5 -6.5
t-7.5 1t-7.5 5l-34 39q-3 3 -4.5 6.5t-1.5 8.5q0 3 2.5 8t7.5 8l4 4q12 8 46.5 43.5t66.5 75.5l2 7q5 7 11.5 11t14.5 4h10z" />
    <glyph glyph-name="tilde" unicode="&#x2dc;" 
d="M559 774l-65 31q-12 5 -24 7.5t-21 2.5q-31 0 -48.5 -25.5t-25.5 -25.5h-45q-3 0 -5.5 2t-2.5 4q0 47 40.5 88t94.5 41q11 0 24 -3t25 -9l61 -35q11 -6 22 -9t21 -3q25 0 43 26.5t29 26.5h45q5 0 6.5 -1t1.5 -5v-4q0 -48 -36 -85.5t-83 -37.5q-13 0 -26 3t-31 11z" />
    <glyph glyph-name="macron" unicode="&#xaf;" 
d="M387 864h295q10 0 12 -2t2 -8v-8l-10 -56q-2 -11 -7 -15.5t-17 -4.5h-304q-2 0 -4 4.5t-2 9.5v4l10 57q2 10 7.5 14.5t17.5 4.5z" />
    <glyph glyph-name="breve" unicode="&#x2d8;" 
d="M672 944h59q6 0 8 -2.5t2 -13.5q0 -70 -64 -124t-155 -54q-70 0 -112.5 41.5t-42.5 107.5q0 26 3.5 35.5t12.5 9.5h59q11 0 19.5 -47t70.5 -47q74 0 105.5 47t34.5 47z" />
    <glyph glyph-name="dotaccent" unicode="&#x2d9;" 
d="M532 913q28 0 42 -16t14 -47q0 -42 -28 -75.5t-62 -33.5q-25 0 -42.5 19.5t-17.5 46.5q0 38 30 72t64 34z" />
    <glyph glyph-name="ring" unicode="&#x2da;" 
d="M532 963q-32 0 -54.5 -22t-22.5 -54q0 -31 23.5 -54.5t53.5 -23.5q32 0 54 22.5t22 55.5q0 32 -21.5 54t-54.5 22zM532 1040q64 0 109 -45t45 -108q0 -67 -44 -111.5t-110 -44.5q-65 0 -110 45t-45 111q0 62 45 107.5t106 45.5h4z" />
    <glyph glyph-name="cedilla" unicode="&#xb8;" 
d="M328 0h67l-35 -117h19q62 0 94.5 -30.5t32.5 -88.5q0 -59 -43.5 -92.5t-120.5 -33.5q-65 0 -118.5 14t-53.5 31v6v4l14 31q1 1 2 3q3 7 11 7l44.5 -13.5t90.5 -13.5q33 0 55.5 18t22.5 44q0 29 -20 45t-58 16q-5 0 -17.5 -1t-21.5 -1q-6 0 -9 2.5t-3 5.5q0 7 1 11.5
t3 9.5z" />
    <glyph glyph-name="hungarumlaut" unicode="&#x2dd;" 
d="M489 961h82q7 0 11 -4t4 -11q-2 -6 -6 -12l-5 -10q0 -1 -4 -7q-51 -76 -116 -157l-7 -7q-7 -10 -14.5 -15t-15.5 -5h-37q-3 0 -5.5 2t-2.5 4q0 4 1.5 9t4.5 10l4 6q3 3 27 54t47 108l4 10q6 14 12 19.5t16 5.5zM686 961h82q7 -1 9.5 -4t2.5 -11q0 -6 -4 -12l-4 -10
q0 -1 -5 -7q-50 -76 -116 -157l-6 -6q-8 -11 -15.5 -16t-15.5 -5h-39q-2 0 -3.5 2t-2.5 4q0 4 2 9.5t4 8.5l5 7q9 16 31 64t42 98l4 10q7 14 13 19.5t16 5.5z" />
    <glyph glyph-name="ogonek" unicode="&#x2db;" 
d="M305 0h72q-53 -53 -74.5 -91.5t-21.5 -78.5q0 -25 15.5 -39t43.5 -14q9 0 23 2.5t20 3.5h6q1 0 3 1t3 1q3 0 5.5 -2t2.5 -4v-17l-4 -36q-1 -16 -4 -24t-9 -11l-9 -2q-16 -3 -33 -4.5t-33 -1.5q-56 0 -90.5 32.5t-34.5 85.5q0 54 27.5 100.5t91.5 98.5z" />
    <glyph glyph-name="caron" unicode="&#x2c7;" 
d="M551 731h-90q-13 0 -21.5 5t-17.5 20l-4 6q-22 33 -42.5 71t-27.5 56l-4 6q0 1 -2 5q-4 10 -4 15q0 7 2.5 10.5t9.5 6.5l43 20q2 1 3 1q8 3 14 3q4 0 9 -4.5t11 -17.5l2 -6q4 -7 12 -22q34 -64 66 -105q48 53 84.5 91t44.5 44l4 2q1 1 3 4q8 10 18 10q3 0 6 -1.5t6 -4.5
l34 -38q3 -3 5 -6.5t2 -6.5q0 -5 -3.5 -10.5t-7.5 -8.5l-3 -3q-10 -7 -45.5 -44t-67.5 -77l-2 -4q-8 -10 -14 -13.5t-15 -3.5h-8z" />
    <glyph glyph-name="Lslash" unicode="&#x141;" horiz-adv-x="750" 
d="M162 123q116 24 219 36.5t190 12.5q56 0 79.5 -13.5t23.5 -43.5q0 -31 -68 -38q-36 -4 -59 -7q-143 -20 -297.5 -56.5t-171.5 -36.5q-35 0 -51.5 23t-16.5 70q0 31 25.5 133.5t70.5 255.5l-12 -6q-81 -39 -94 -39q-17 0 -38 19.5t-21 33.5q0 18 44 44t156 73l46 148
q135 436 163 487q11 18 27.5 26t42.5 8q58 0 94.5 -14t36.5 -37q0 -18 -29 -62l-2 -4q-34 -72 -80 -187.5t-114 -301.5q69 30 115.5 42.5t82.5 12.5q25 0 39.5 -11.5t14.5 -31.5q0 -18 -112 -61q-110 -41 -187 -76q-39 -103 -68.5 -204t-48.5 -195z" />
    <glyph glyph-name="lslash" unicode="&#x142;" horiz-adv-x="408" 
d="M307 1164q-1 4 -1.5 8t-0.5 12q0 27 35.5 50t73.5 23q21 0 30 -7.5t9 -24.5q0 -14 -79.5 -200.5t-140.5 -377.5q31 12 79 31q70 29 77 29t12 -7.5t5 -17.5q0 -45 -96 -81q-62 -23 -103 -42q-44 -138 -68 -246t-24 -163q0 -54 14.5 -81.5t42.5 -27.5q27 0 60 34t81 111
q19 30 41.5 72.5t30.5 42.5q10 0 27.5 -14.5t17.5 -24.5q0 -2 -1.5 -6t-4.5 -10q-58 -114 -87 -159t-56 -73q-32 -31 -61.5 -45t-63.5 -14q-55 0 -100.5 55t-45.5 123q0 79 20.5 174t61.5 211q-23 -8 -59 -23q-47 -20 -60 -20q-4 -1 -7 3.5t-5 15.5q0 57 81 84q48 15 79 28
q31 114 76 249.5t110 308.5z" />
    <glyph glyph-name="Scaron" unicode="&#x160;" horiz-adv-x="819" 
d="M780 1135q87 -54 115.5 -86.5t28.5 -69.5q0 -19 -24 -36t-46 -17q-24 0 -51 29.5t-49 80.5q-2 4 -4 10q-17 50 -62 50q-53 0 -114 -42t-119 -120q-60 -78 -91.5 -163t-31.5 -167q0 -67 42.5 -144t117.5 -147q16 -15 49 -42q90 -74 90 -130q0 -73 -78.5 -124.5
t-198.5 -51.5q-160 0 -291 100.5t-131 196.5q0 25 20.5 47.5t43.5 22.5q19 0 33 -37q7 -17 12 -27q43 -86 120 -131t181 -45q51 0 82.5 20t42.5 60q-10 41 -47 88t-113 115q-87 76 -114 133.5t-27 136.5q0 102 50 215.5t146 233.5q67 81 126.5 127.5t95.5 46.5q2 0 11 -3.5
t15 -4.5h6q45 0 77.5 -22.5t86.5 -102.5zM696 1395h-90q-13 0 -21.5 5t-17.5 20l-4 6q-22 33 -42.5 71t-27.5 56l-4 6q0 1 -2 5q-4 10 -4 15q0 7 2.5 10.5t9.5 6.5l43 20q2 1 3 1q8 3 14 3q4 0 9 -4.5t11 -17.5l2 -6q4 -7 12 -22q34 -64 66 -105q48 53 84.5 91t44.5 44l4 2
q1 1 3 4q8 10 18 10q3 0 6 -1.5t6 -4.5l34 -38q3 -3 5 -6.5t2 -6.5q0 -5 -3.5 -10.5t-7.5 -8.5l-3 -3q-10 -7 -45.5 -44t-67.5 -77l-2 -4q-8 -10 -14 -13.5t-15 -3.5h-8z" />
    <glyph glyph-name="scaron" unicode="&#x161;" horiz-adv-x="342" 
d="M-63 87q35 -17 71 -30.5t76 -25.5q0 27 -18.5 113t-26.5 147q-15 -46 -40 -96.5t-62 -107.5zM-109 18l-18 -12q-35 -24 -45 -24q-14 0 -19.5 11t-5.5 40q0 4 20 31q176 246 247 569q0 4 1 12t1 10q0 26 12 41t33 15q25 0 62.5 -22.5t37.5 -37.5q0 -1 -7 -10
q-81 -101 -81 -252q0 -75 30.5 -192t30.5 -160q0 -56 -30.5 -95.5t-65.5 -39.5q-33 0 -100.5 51t-102.5 65zM211 731h-90q-13 0 -21.5 5t-17.5 20l-4 6q-22 33 -42.5 71t-27.5 56l-4 6q0 1 -2 5q-4 10 -4 15q0 7 2.5 10.5t9.5 6.5l43 20q2 1 3 1q8 3 14 3q4 0 9 -4.5
t11 -17.5l2 -6q4 -7 12 -22q34 -64 66 -105q48 53 84.5 91t44.5 44l4 2q1 1 3 4q8 10 18 10q3 0 6 -1.5t6 -4.5l34 -38q3 -3 5 -6.5t2 -6.5q0 -5 -3.5 -10.5t-7.5 -8.5l-3 -3q-10 -7 -45.5 -44t-67.5 -77l-2 -4q-8 -10 -14 -13.5t-15 -3.5h-8z" />
    <glyph glyph-name="Zcaron" unicode="&#x17d;" horiz-adv-x="909" 
d="M156 115q112 20 214.5 30.5t196.5 10.5q53 0 77 -19.5t24 -60.5q0 -26 -17 -36.5t-71 -12.5q-108 -5 -248.5 -24t-321.5 -54q-35 26 -52 51.5t-17 50.5q0 61 154 239l1 1q360 411 507 565t249 238q-309 -18 -591 -89q-45 -12 -52 -12q-18 0 -40 22t-22 40q0 10 7.5 18
t23.5 14q153 70 353.5 112t377.5 42q52 0 96 -22.5t44 -49.5q0 -41 -46 -76q-25 -19 -38 -32q-227 -226 -434 -467.5t-375 -478.5zM741 1395h-90q-13 0 -21.5 5t-17.5 20l-4 6q-22 33 -42.5 71t-27.5 56l-4 6q0 1 -2 5q-4 10 -4 15q0 7 2.5 10.5t9.5 6.5l43 20q2 1 3 1
q8 3 14 3q4 0 9 -4.5t11 -17.5l2 -6q4 -7 12 -22q34 -64 66 -105q48 53 84.5 91t44.5 44l4 2q1 1 3 4q8 10 18 10q3 0 6 -1.5t6 -4.5l34 -38q3 -3 5 -6.5t2 -6.5q0 -5 -3.5 -10.5t-7.5 -8.5l-3 -3q-10 -7 -45.5 -44t-67.5 -77l-2 -4q-8 -10 -14 -13.5t-15 -3.5h-8z" />
    <glyph glyph-name="zcaron" unicode="&#x17e;" horiz-adv-x="559" 
d="M97 99q38 6 100 19q76 15 94 15q35 0 56.5 -14.5t21.5 -38.5q0 -13 -5 -19.5t-22 -9.5q-56 -8 -154 -44t-133 -36q-37 0 -71.5 33.5t-34.5 61.5q0 32 119.5 156.5t342.5 323.5q-73 -7 -162.5 -19.5t-105.5 -12.5q-17 0 -30 16.5t-17 44.5q119 38 210 56t161 18
q35 0 60.5 -22t25.5 -49q0 -33 -167.5 -190.5t-288.5 -288.5zM320 731h-90q-13 0 -21.5 5t-17.5 20l-4 6q-22 33 -42.5 71t-27.5 56l-4 6q0 1 -2 5q-4 10 -4 15q0 7 2.5 10.5t9.5 6.5l43 20q2 1 3 1q8 3 14 3q4 0 9 -4.5t11 -17.5l2 -6q4 -7 12 -22q34 -64 66 -105
q48 53 84.5 91t44.5 44l4 2q1 1 3 4q8 10 18 10q3 0 6 -1.5t6 -4.5l34 -38q3 -3 5 -6.5t2 -6.5q0 -5 -3.5 -10.5t-7.5 -8.5l-3 -3q-10 -7 -45.5 -44t-67.5 -77l-2 -4q-8 -10 -14 -13.5t-15 -3.5h-8z" />
    <glyph glyph-name="brokenbar" unicode="&#xa6;" 
d="M575 408v-758h-126v758h126zM575 1432v-758h-126v758h126z" />
    <glyph glyph-name="Eth" unicode="&#xd0;" horiz-adv-x="1053" 
d="M479 1091q-27 -67 -59 -160t-90 -279q124 -3 169.5 -16.5t45.5 -45.5q0 -7 -1 -14.5t-4 -22.5q-20 0 -60 -1q-130 -2 -180 -7q-52 -154 -82 -266t-44 -199q131 36 250.5 110.5t226.5 186.5q116 121 182 251.5t66 233.5q0 115 -82.5 175.5t-241.5 60.5q-7 0 -28.5 -1.5
t-67.5 -5.5zM326 1130q-9 21 -13 38t-4 32q0 40 27 52t119 12q271 0 421 -123.5t150 -343.5q0 -140 -85 -282.5t-251 -283.5q-143 -121 -292 -192.5t-251 -71.5q-59 0 -89.5 24t-30.5 70q0 38 28.5 170t75.5 303q-37 -2 -63.5 -4t-38.5 -2q-28 0 -40 16t-12 52q0 30 173 44
l10 1q43 149 86.5 277t79.5 212z" />
    <glyph glyph-name="eth" unicode="&#xf0;" horiz-adv-x="502" 
d="M338 262q-44 -156 -114 -237.5t-161 -81.5q-68 0 -108.5 44.5t-40.5 121.5q0 67 33 161.5t88 180.5q31 49 61.5 73.5t61.5 24.5q23 0 47.5 -14.5t44.5 -40.5q-8 68 -29 137.5t-57 144.5q-49 -20 -121.5 -59t-95.5 -39q-13 0 -22 8t-9 19q0 17 38 42.5t177 96.5
q-39 87 -91 152.5t-52 68.5q0 16 15.5 32.5t33.5 16.5t68.5 -62t113.5 -163q97 50 146 69t79 19q14 0 25.5 -9t11.5 -18q0 -6 -9 -13.5t-25 -14.5q-2 -1 -14 -6q-89 -36 -183 -91q53 -107 78.5 -209.5t25.5 -203.5q0 -7 -1 -26t-1 -30q53 17 97 72t57 55q15 0 24 -7.5
t9 -20.5q0 -16 -9 -32t-28 -36q-37 -54 -78 -85.5t-86 -39.5zM33 98q0 -32 10.5 -47.5t32.5 -15.5q53 0 114.5 117t61.5 225q0 27 -10 42t-27 15q-50 0 -116 -115.5t-66 -220.5z" />
    <glyph glyph-name="Yacute" unicode="&#xdd;" horiz-adv-x="807" 
d="M414 635q204 315 358.5 506.5t200.5 191.5q22 0 36.5 -18t14.5 -41q0 -11 -122 -162t-224 -289q-15 -19 -45 -58q-134 -172 -191 -323q-53 -142 -95 -322q-34 -143 -79 -143q-36 0 -62 27.5t-26 67.5q0 39 35 170.5t92 294.5q-50 212 -78 376.5t-28 247.5q0 39 20 59.5
t60 20.5q72 0 95 -268q18 -201 38 -338zM811 1618q9 0 13.5 -3t4.5 -9q0 -3 -1.5 -6t-4.5 -6l-8 -10q-39 -48 -85 -97t-71 -69l-8 -9q-11 -9 -20.5 -13.5t-20.5 -4.5h-45q-9 0 -12.5 3t-3.5 9q0 2 3 5t5 6l6 8q18 18 51.5 66t59.5 98l4 8q6 13 14.5 18.5t19.5 5.5h99z" />
    <glyph glyph-name="yacute" unicode="&#xfd;" horiz-adv-x="487" 
d="M182 170q-35 -69 -75.5 -107t-75.5 -38q-15 0 -25 6t-18 20q-22 17 -32.5 44t-10.5 65q0 145 56.5 287.5t111.5 142.5q25 0 50 -17.5t25 -35.5q0 -9 -5.5 -15.5t-18.5 -11.5q-51 -104 -81 -205.5t-30 -157.5q0 -9 3.5 -14.5t9.5 -5.5q27 0 103.5 127t127.5 282q4 14 9 42
q12 71 71 71q29 0 48 -11.5t24 -31.5q6 -6 9 -13t3 -15q-1 -12 -7.5 -20.5t-20.5 -16.5q-109 -199 -152.5 -460.5t-44.5 -265.5q-24 -86 -108 -144t-171 -58q-51 0 -88.5 22.5t-77.5 75.5q-21 15 -31 33.5t-10 42.5q0 27 10.5 38t34.5 11q23 0 35 -59q3 -15 7 -30
q30 -23 71 -36.5t90 -13.5q10 0 21 0.5t34 3.5q48 24 106 341q15 82 23 128zM404 954q9 0 13.5 -3t4.5 -9q0 -3 -1.5 -6t-4.5 -6l-8 -10q-39 -48 -85 -97t-71 -69l-8 -9q-11 -9 -20.5 -13.5t-20.5 -4.5h-45q-9 0 -12.5 3t-3.5 9q0 2 3 5t5 6l6 8q18 18 51.5 66t59.5 98l4 8
q6 13 14.5 18.5t19.5 5.5h99z" />
    <glyph glyph-name="Thorn" unicode="&#xde;" horiz-adv-x="862" 
d="M215 244q-13 -47 -24 -94.5t-21 -100.5q-6 -42 -21 -59t-47 -17q-34 0 -62 15.5t-28 34.5q0 57 87.5 398.5t217.5 758.5q23 68 47 89t64 21q48 0 82.5 -18t34.5 -41q0 -14 -37.5 -60t-52.5 -100q8 0 18 -1t12 -1q161 0 279.5 -90t118.5 -217q0 -176 -182 -319t-486 -199z
M244 365q203 28 356.5 158t153.5 257q0 61 -67.5 100.5t-176.5 39.5q-30 0 -59 -4t-54 -11q-46 -136 -84 -271t-69 -269z" />
    <glyph glyph-name="thorn" unicode="&#xfe;" horiz-adv-x="502" 
d="M109 465q52 76 87.5 108.5t65.5 32.5q53 0 87 -51.5t34 -134.5q0 -169 -85 -308t-183 -139q-38 0 -70.5 20t-44.5 50q-43 -188 -67.5 -312t-24.5 -157q0 -13 9 -24t9 -13q0 -16 -13 -27.5t-30 -11.5q-38 0 -58 16t-20 48q0 81 70.5 400.5t181.5 672.5q55 174 93 280.5
t53 129.5q6 9 20.5 14.5t34.5 5.5q24 0 44 -16t20 -33q0 -4 -14.5 -17.5t-24.5 -31.5q-31 -55 -78.5 -190.5t-95.5 -311.5zM23 120q4 -28 23 -45.5t46 -17.5q41 0 70.5 31.5t66.5 118.5q26 62 39 117.5t13 105.5q0 31 -8 47.5t-23 16.5q-37 0 -107.5 -109t-119.5 -265z" />
    <glyph glyph-name="minus" unicode="&#x2212;" horiz-adv-x="1706" 
d="M1452 670v-119h-1198v119h1198z" />
    <glyph glyph-name="multiply" unicode="&#xd7;" horiz-adv-x="1706" 
d="M858 692l475 477l82 -82l-475 -477l475 -475l-82 -82l-475 475l-477 -475l-80 82l475 475l-475 477l80 82z" />
    <glyph glyph-name="onesuperior" unicode="&#xb9;" horiz-adv-x="356" 
d="M43 578q19 82 72 235t132 352q-11 -1 -22.5 -1.5t-27.5 -0.5q-32 0 -45 6.5t-13 20.5q0 33 44.5 47t150.5 14q27 0 43 -9.5t16 -24.5q0 -8 -31 -75q-130 -277 -221 -556h6q32 0 53 -11t21 -26q0 -27 -49 -34l-18 -3q-51 -7 -115.5 -17t-69.5 -10q-21 0 -38 14.5t-17 35.5
q0 28 110 40q13 2 19 3z" />
    <glyph glyph-name="twosuperior" unicode="&#xb2;" horiz-adv-x="670" 
d="M223 588q13 0 61 3t76 3q84 0 111 -10t27 -39q0 -15 -8 -23.5t-28 -13.5q-13 1 -31.5 1.5t-57.5 0.5q-125 0 -277 -24q-40 -7 -49 -7q-19 0 -30 19t-11 49q0 20 38 27q34 6 60 14q69 27 157.5 110t191.5 217q49 65 78.5 122.5t29.5 86.5q0 16 -13 26.5t-34 10.5
q-27 0 -64.5 -17.5t-80.5 -49.5q-66 -50 -118.5 -101t-84.5 -94q-8 -9 -20 -24q-19 -25 -31 -25q-17 0 -32 15.5t-15 29.5t33 61.5t85 106.5q87 97 160 148t125 51q29 0 53.5 -14.5t30.5 -35.5q53 -18 80 -46.5t27 -65.5q0 -86 -123 -234t-316 -278z" />
    <glyph glyph-name="threesuperior" unicode="&#xb3;" horiz-adv-x="670" 
d="M399 856q62 -17 97 -54t37 -86q1 -4 1.5 -8t0.5 -14q0 -34 -33.5 -74t-91.5 -73q-68 -40 -130 -60t-116 -20q-72 0 -122 33.5t-50 77.5q0 22 16.5 42.5t32.5 20.5q19 0 34 -37q6 -16 11 -24q9 -20 26 -30.5t38 -10.5q20 0 71 19.5t107 51.5q54 31 83 61t29 54
q0 37 -36.5 56.5t-106.5 19.5q-45 0 -89 -2h-9q-11 0 -14.5 4t-4.5 16q0 56 92 67q5 0 9 1q45 10 104 35.5t104 56.5q50 35 77.5 69t27.5 60q0 22 -17.5 32.5t-52.5 10.5q-59 0 -149.5 -36t-175.5 -95q-17 -11 -37 -27t-25 -16q-13 0 -25 9.5t-12 21.5q0 13 32 45t83 67
q84 59 165.5 94t129.5 35q25 0 44.5 -12t27.5 -33q50 -21 75 -50t25 -67q0 -59 -74 -120t-209 -111z" />
    <glyph glyph-name="onehalf" unicode="&#xbd;" horiz-adv-x="1321" 
d="M895 92q13 1 58.5 3.5t72.5 2.5q79 0 105 -9.5t26 -37.5q0 -14 -8.5 -22t-26.5 -13q-27 3 -46.5 3.5t-37.5 0.5q-119 0 -263 -22q-39 -6 -48 -6q-18 0 -28.5 16.5t-10.5 44.5q1 20 37 26q34 7 57 13q67 27 153 106t179 199q47 59 73.5 112t26.5 83q0 16 -10.5 25.5
t-29.5 9.5q-27 0 -64 -16.5t-78 -45.5q-59 -45 -109 -92.5t-84 -90.5q-6 -7 -15 -19q-19 -25 -31 -25q-17 0 -31 13.5t-14 27.5q0 13 30.5 56t81.5 100q82 90 151.5 138t118.5 48q29 0 52.5 -13t30.5 -32q49 -17 75.5 -44.5t26.5 -62.5q0 -79 -117.5 -217.5t-302.5 -259.5z
M1042 1221q-333 -401 -631 -835.5t-321 -434.5q-19 0 -34 19.5t-15 39.5q0 15 127.5 202.5t333.5 475.5q238 332 361.5 481.5t160.5 149.5q19 0 31 -15.5t12 -39.5q0 -15 -6 -25t-19 -18zM41 621q16 72 65.5 211.5t128.5 336.5q-10 -1 -21 -1.5t-26 -0.5q-30 0 -42 5.5
t-13 19.5q0 31 43.5 44t142.5 13q24 0 40 -9t16 -21q0 -8 -32 -76q-123 -260 -208 -514h6q30 0 50 -10.5t20 -24.5q0 -25 -48 -31q-9 -1 -16 -2q-52 -8 -112.5 -17t-63.5 -9q-20 0 -36.5 14t-16.5 33q0 25 92 35q20 2 31 4z" />
    <glyph glyph-name="onequarter" unicode="&#xbc;" horiz-adv-x="1321" 
d="M1007 149q-94 -2 -184.5 -11t-91.5 -9q-21 0 -34 15.5t-13 39.5q0 26 72.5 106t318.5 316q52 51 93.5 81t58.5 30q36 0 64 -11.5t28 -23.5q0 -2 -13 -30q-93 -197 -176 -431q3 0 11 -1t12 -1q53 0 74.5 -11t21.5 -38q0 -4 -2 -9.5t-2 -6.5q-10 1 -20 1.5t-29 0.5
q-28 0 -49.5 -1t-44.5 -3q-20 -47 -41 -111q-20 -64 -43 -64q-20 0 -31.5 10.5t-11.5 28.5q0 16 7 44t25 89zM1034 221q35 84 89 221.5t77 192.5q-122 -119 -228 -227.5t-191 -200.5q62 5 124.5 8.5t128.5 5.5zM1042 1221q-333 -401 -631 -835.5t-321 -434.5q-19 0 -34 19.5
t-15 39.5q0 15 127.5 202.5t333.5 475.5q238 332 361.5 481.5t160.5 149.5q19 0 31 -15.5t12 -39.5q0 -15 -6 -25t-19 -18zM41 621q16 72 65.5 211.5t128.5 336.5q-10 -1 -21 -1.5t-26 -0.5q-30 0 -42 5.5t-13 19.5q0 31 43.5 44t142.5 13q24 0 40 -9t16 -21q0 -8 -32 -76
q-123 -260 -208 -514h6q30 0 50 -10.5t20 -24.5q0 -25 -48 -31q-9 -1 -16 -2q-52 -8 -112.5 -17t-63.5 -9q-20 0 -36.5 14t-16.5 33q0 25 92 35q20 2 31 4z" />
    <glyph glyph-name="threequarters" unicode="&#xbe;" horiz-adv-x="1620" 
d="M1306 149q-94 -2 -184.5 -11t-91.5 -9q-21 0 -34 15.5t-13 39.5q0 26 72.5 106t318.5 316q52 51 93.5 81t58.5 30q36 0 64 -11.5t28 -23.5q0 -2 -13 -30q-93 -197 -175 -431q2 0 10 -1t12 -1q53 0 74.5 -11t21.5 -38q0 -4 -2 -9.5t-2 -6.5q-10 1 -20 1.5t-29 0.5
q-28 0 -49.5 -1t-44.5 -3q-20 -47 -41 -111q-20 -64 -43 -64q-20 0 -31.5 10.5t-11.5 28.5q0 16 7 44t25 89zM1333 221q35 84 89 221.5t77 192.5q-122 -119 -228 -227.5t-191 -200.5q62 5 124.5 8.5t128.5 5.5zM1341 1221q-333 -401 -631 -835.5t-321 -434.5q-19 0 -34 19.5
t-15 39.5q0 15 127.5 202.5t333.5 475.5q238 332 361.5 481.5t160.5 149.5q19 0 31 -15.5t12 -39.5q0 -15 -6 -25t-19 -18zM381 881q59 -16 93 -50.5t34 -79.5q1 -4 1.5 -8t0.5 -12q0 -32 -31.5 -69.5t-87.5 -69.5q-66 -38 -125.5 -57t-109.5 -19q-68 0 -116 32.5t-48 72.5
q0 21 16 40t31 19q19 0 31 -32q7 -17 12 -25q9 -19 25 -29t36 -10q21 0 69 18.5t99 48.5q54 30 81.5 57.5t27.5 51.5q0 34 -34.5 51.5t-100.5 17.5q-46 0 -88 -1q-6 -1 -7 -1q-11 1 -14.5 5t-3.5 16q1 51 85 60q9 1 11 1q39 7 96.5 31.5t102.5 54.5q47 33 73.5 65t26.5 56
q0 20 -16.5 29.5t-50.5 9.5q-57 0 -143 -33t-167 -88q-16 -11 -35 -26t-24 -15q-11 0 -23 9.5t-12 19.5q0 12 30.5 42t78.5 62q81 56 159.5 89.5t122.5 33.5q23 0 42 -11.5t29 -31.5q46 -20 69.5 -47.5t23.5 -60.5q0 -56 -70.5 -113t-199.5 -104z" />
    <glyph glyph-name="franc" unicode="&#x20a3;" horiz-adv-x="1243" 
d="M266 397q-41 -132 -73.5 -273.5t-34.5 -147.5q-7 -17 -27.5 -25t-52.5 -8q-36 0 -55 14.5t-19 42.5q0 27 25.5 134t74.5 286q74 269 139 479t91 268q12 26 81 35.5t351 9.5q145 0 183 -15.5t38 -57.5q0 -18 -12.5 -27.5t-34.5 -9.5q-7 0 -28.5 2t-34.5 2q-39 0 -256 -30
q-104 -15 -166 -23q-57 -176 -93.5 -303t-56.5 -219q39 0 92.5 3t69.5 3q87 0 132.5 -15.5t45.5 -44.5q0 -59 -202 -69q-108 -5 -177 -11zM848 535q-19 12 -27 22t-8 23q0 32 36 63t79 31q22 0 36.5 -12.5t14.5 -30.5q0 -9 -2.5 -23t-7.5 -32l68 -20q6 11 16.5 22.5
t25.5 23.5q9 3 16 4.5t11 1.5q24 0 48 -17t24 -36q0 -15 -10 -29t-33 -32q-64 -106 -96.5 -201t-32.5 -170q0 -24 8 -39.5t20 -15.5q31 0 71.5 48t84.5 138q5 10 13 27q20 45 34 45q13 0 25 -11t12 -24q0 -15 -17 -51t-47 -84q-63 -102 -105.5 -138t-92.5 -36
q-57 0 -89 35.5t-32 97.5t20.5 143.5t63.5 187.5l-55 17q-52 -144 -88 -206t-66 -62q-12 0 -19.5 8t-7.5 22q0 4 14 34q61 136 95 276z" />
    <glyph glyph-name="Gbreve" unicode="&#x11e;" horiz-adv-x="948" 
d="M745 403q-1 1 -5 1q-31 4 -46 4q-45 0 -137 -17.5t-137 -17.5q-46 0 -71 19t-25 52q0 28 122 56t267 28q92 0 124.5 -26.5t32.5 -95.5q0 -37 -48.5 -111t-125.5 -148q-93 -90 -186.5 -134t-192.5 -44q-37 0 -71 9.5t-70 29.5q-111 56 -146.5 100.5t-35.5 116.5
q0 134 60.5 312.5t162.5 339.5q102 159 234 274t182 115q20 0 52.5 -19.5t90.5 -66.5q63 -35 111.5 -100t48.5 -99q0 -12 -10 -24.5t-21 -12.5q-19 0 -76 81t-108 81q-43 0 -105.5 -37t-123.5 -100q-54 -55 -99.5 -115.5t-87.5 -130.5q-82 -139 -125 -265t-43 -229
q0 -81 28 -117t91 -36q138 0 273.5 89.5t215.5 237.5zM883 1608h59q6 0 8 -2.5t2 -13.5q0 -70 -64 -124t-155 -54q-70 0 -112.5 41.5t-42.5 107.5q0 26 3.5 35.5t12.5 9.5h59q11 0 19.5 -47t70.5 -47q74 0 105.5 47t34.5 47z" />
    <glyph glyph-name="gbreve" unicode="&#x11f;" horiz-adv-x="502" 
d="M-37 68q0 -24 10 -36t29 -12t40 19t52 63q73 102 119.5 197.5t46.5 136.5q0 22 -12 34.5t-33 12.5q-27 0 -70.5 -47t-93.5 -133q-40 -69 -64 -135t-24 -100zM197 131q-69 -97 -112.5 -134.5t-82.5 -37.5q-51 0 -82 37.5t-31 101.5q0 86 43.5 196.5t114.5 201.5
q43 54 69 71t58 17q24 0 53.5 -15t68.5 -48q28 6 37 7.5t15 1.5q31 0 51.5 -17t20.5 -44q0 -7 -17 -44q-76 -171 -129 -393q-13 -55 -36 -177.5t-43 -165.5q-27 -59 -94.5 -93t-155.5 -34q-78 0 -126 25t-48 63q0 17 8.5 28t21.5 11q11 0 18.5 -9t16.5 -27q23 -9 46 -13.5
t48 -4.5q54 0 94 15.5t68 46.5q18 45 39.5 132t65.5 302zM412 944h59q6 0 8 -2.5t2 -13.5q0 -70 -64 -124t-155 -54q-70 0 -112.5 41.5t-42.5 107.5q0 26 3.5 35.5t12.5 9.5h59q11 0 19.5 -47t70.5 -47q74 0 105.5 47t34.5 47z" />
    <glyph glyph-name="Idotaccent" unicode="&#x130;" horiz-adv-x="469" 
d="M158 57v-16v-3q2 -11 2 -20q0 -16 -13.5 -25t-37.5 -9q-52 0 -77.5 17t-25.5 52q0 44 70 287t186 598q5 15 15 46q92 292 178 292q20 0 50 -24t30 -46q0 -7 -31 -80q-205 -492 -346 -1069zM503 1577q28 0 42 -16t14 -47q0 -42 -28 -75.5t-62 -33.5q-25 0 -42.5 19.5
t-17.5 46.5q0 38 30 72t64 34z" />
    <glyph glyph-name="Scedilla" unicode="&#x15e;" horiz-adv-x="819" 
d="M780 1135q87 -54 115.5 -86.5t28.5 -69.5q0 -19 -24 -36t-46 -17q-24 0 -51 29.5t-49 80.5q-2 4 -4 10q-17 50 -62 50q-53 0 -114 -42t-119 -120q-60 -78 -91.5 -163t-31.5 -167q0 -67 42.5 -144t117.5 -147q16 -15 49 -42q90 -74 90 -130q0 -73 -78.5 -124.5
t-198.5 -51.5q-160 0 -291 100.5t-131 196.5q0 25 20.5 47.5t43.5 22.5q19 0 33 -37q7 -17 12 -27q43 -86 120 -131t181 -45q51 0 82.5 20t42.5 60q-10 41 -47 88t-113 115q-87 76 -114 133.5t-27 136.5q0 102 50 215.5t146 233.5q67 81 126.5 127.5t95.5 46.5q2 0 11 -3.5
t15 -4.5h6q45 0 77.5 -22.5t86.5 -102.5zM234 0h67l-35 -117h19q62 0 94.5 -30.5t32.5 -88.5q0 -59 -43.5 -92.5t-120.5 -33.5q-65 0 -118.5 14t-53.5 31v6v4l14 31q1 1 2 3q3 7 11 7l44.5 -13.5t90.5 -13.5q33 0 55.5 18t22.5 44q0 29 -20 45t-58 16q-5 0 -17.5 -1
t-21.5 -1q-6 0 -9 2.5t-3 5.5q0 7 1 11.5t3 9.5z" />
    <glyph glyph-name="scedilla" unicode="&#x15f;" horiz-adv-x="342" 
d="M-63 87q35 -17 71 -30.5t76 -25.5q0 27 -18.5 113t-26.5 147q-15 -46 -40 -96.5t-62 -107.5zM-109 18l-18 -12q-35 -24 -45 -24q-14 0 -19.5 11t-5.5 40q0 4 20 31q176 246 247 569q0 4 1 12t1 10q0 26 12 41t33 15q25 0 62.5 -22.5t37.5 -37.5q0 -1 -7 -10
q-81 -101 -81 -252q0 -75 30.5 -192t30.5 -160q0 -56 -30.5 -95.5t-65.5 -39.5q-33 0 -100.5 51t-102.5 65zM-12 0h67l-35 -117h19q62 0 94.5 -30.5t32.5 -88.5q0 -59 -43.5 -92.5t-120.5 -33.5q-65 0 -118.5 14t-53.5 31v6v4l14 31q1 1 2 3q3 7 11 7l44.5 -13.5t90.5 -13.5
q33 0 55.5 18t22.5 44q0 29 -20 45t-58 16q-5 0 -17.5 -1t-21.5 -1q-6 0 -9 2.5t-3 5.5q0 7 1 11.5t3 9.5z" />
    <glyph glyph-name="Cacute" unicode="&#x106;" horiz-adv-x="901" 
d="M750 1235q78 -22 124 -68t46 -100q0 -39 -24 -67.5t-54 -28.5q-25 0 -38 20t-22 85q-3 24 -28 41.5t-60 17.5q-63 0 -137.5 -56t-155.5 -164q-110 -145 -175.5 -319t-65.5 -313q0 -101 49 -157t135 -56q55 0 117 21t135 65q33 20 86 59t74 39q8 0 14 -8.5t6 -20.5
q0 -21 -26.5 -54.5t-75.5 -72.5q-78 -62 -158.5 -96.5t-144.5 -34.5q-165 0 -262 86.5t-97 233.5q0 130 81 329.5t224 413.5q87 129 160 195.5t127 66.5q32 0 68.5 -14.5t77.5 -42.5zM858 1618q9 0 13.5 -3t4.5 -9q0 -3 -1.5 -6t-4.5 -6l-8 -10q-39 -48 -85 -97t-71 -69
l-8 -9q-11 -9 -20.5 -13.5t-20.5 -4.5h-45q-9 0 -12.5 3t-3.5 9q0 2 3 5t5 6l6 8q18 18 51.5 66t59.5 98l4 8q6 13 14.5 18.5t19.5 5.5h99z" />
    <glyph glyph-name="cacute" unicode="&#x107;" horiz-adv-x="451" 
d="M266 544l-8 1q-14 0 -29.5 -10t-29.5 -29q-71 -91 -118.5 -214.5t-47.5 -201.5q0 -47 16 -70.5t49 -23.5q53 0 110.5 40.5t125.5 125.5q32 40 60 89.5t34 49.5q9 0 23 -10t14 -21q0 -16 -18 -54.5t-48 -82.5q-61 -92 -136.5 -141t-153.5 -49q-84 0 -133.5 48.5
t-49.5 131.5q0 112 61.5 258t141.5 225q21 20 44 28.5t54 8.5q22 0 41.5 -7t41.5 -22q33 -6 52 -34t19 -72q0 -69 -36 -143t-75 -74q-22 0 -39.5 16.5t-17.5 36.5q0 31 23 98.5t30 101.5zM439 954q9 0 13.5 -3t4.5 -9q0 -3 -1.5 -6t-4.5 -6l-8 -10q-39 -48 -85 -97t-71 -69
l-8 -9q-11 -9 -20.5 -13.5t-20.5 -4.5h-45q-9 0 -12.5 3t-3.5 9q0 2 3 5t5 6l6 8q18 18 51.5 66t59.5 98l4 8q6 13 14.5 18.5t19.5 5.5h99z" />
    <glyph glyph-name="Ccaron" unicode="&#x10c;" horiz-adv-x="901" 
d="M750 1235q78 -22 124 -68t46 -100q0 -39 -24 -67.5t-54 -28.5q-25 0 -38 20t-22 85q-3 24 -28 41.5t-60 17.5q-63 0 -137.5 -56t-155.5 -164q-110 -145 -175.5 -319t-65.5 -313q0 -101 49 -157t135 -56q55 0 117 21t135 65q33 20 86 59t74 39q8 0 14 -8.5t6 -20.5
q0 -21 -26.5 -54.5t-75.5 -72.5q-78 -62 -158.5 -96.5t-144.5 -34.5q-165 0 -262 86.5t-97 233.5q0 130 81 329.5t224 413.5q87 129 160 195.5t127 66.5q32 0 68.5 -14.5t77.5 -42.5zM737 1395h-90q-13 0 -21.5 5t-17.5 20l-4 6q-22 33 -42.5 71t-27.5 56l-4 6q0 1 -2 5
q-4 10 -4 15q0 7 2.5 10.5t9.5 6.5l43 20q2 1 3 1q8 3 14 3q4 0 9 -4.5t11 -17.5l2 -6q4 -7 12 -22q34 -64 66 -105q48 53 84.5 91t44.5 44l4 2q1 1 3 4q8 10 18 10q3 0 6 -1.5t6 -4.5l34 -38q3 -3 5 -6.5t2 -6.5q0 -5 -3.5 -10.5t-7.5 -8.5l-3 -3q-10 -7 -45.5 -44
t-67.5 -77l-2 -4q-8 -10 -14 -13.5t-15 -3.5h-8z" />
    <glyph glyph-name="ccaron" unicode="&#x10d;" horiz-adv-x="451" 
d="M266 544l-8 1q-14 0 -29.5 -10t-29.5 -29q-71 -91 -118.5 -214.5t-47.5 -201.5q0 -47 16 -70.5t49 -23.5q53 0 110.5 40.5t125.5 125.5q32 40 60 89.5t34 49.5q9 0 23 -10t14 -21q0 -16 -18 -54.5t-48 -82.5q-61 -92 -136.5 -141t-153.5 -49q-84 0 -133.5 48.5
t-49.5 131.5q0 112 61.5 258t141.5 225q21 20 44 28.5t54 8.5q22 0 41.5 -7t41.5 -22q33 -6 52 -34t19 -72q0 -69 -36 -143t-75 -74q-22 0 -39.5 16.5t-17.5 36.5q0 31 23 98.5t30 101.5zM318 731h-90q-13 0 -21.5 5t-17.5 20l-4 6q-22 33 -42.5 71t-27.5 56l-4 6q0 1 -2 5
q-4 10 -4 15q0 7 2.5 10.5t9.5 6.5l43 20q2 1 3 1q8 3 14 3q4 0 9 -4.5t11 -17.5l2 -6q4 -7 12 -22q34 -64 66 -105q48 53 84.5 91t44.5 44l4 2q1 1 3 4q8 10 18 10q3 0 6 -1.5t6 -4.5l34 -38q3 -3 5 -6.5t2 -6.5q0 -5 -3.5 -10.5t-7.5 -8.5l-3 -3q-10 -7 -45.5 -44
t-67.5 -77l-2 -4q-8 -10 -14 -13.5t-15 -3.5h-8z" />
    <glyph glyph-name="dcroat" unicode="&#x111;" horiz-adv-x="522" 
d="M280 445q-11 14 -21 20t-21 6q-24 0 -55 -32t-77 -103q-49 -76 -77.5 -157t-28.5 -138q0 -18 10 -31.5t23 -13.5q43 0 113.5 125t133.5 324zM211 106q-44 -91 -97 -145.5t-96 -54.5q-48 0 -82 49.5t-34 122.5q0 96 55 214.5t145 211.5q25 24 45 35.5t39 11.5
q23 0 50.5 -14.5t58.5 -42.5q2 5 6 18q34 105 70 207h-52q-70 0 -99.5 8.5t-29.5 28.5q0 22 37 31.5t172 13.5q15 36 37 97q54 146 90 146q33 0 54.5 -13.5t21.5 -33.5q0 -19 -37 -99q-28 -61 -45 -99q10 -1 27 -1q102 -5 102 -32q0 -26 -29.5 -36.5t-103.5 -10.5h-29
q-82 -213 -128 -373t-46 -235q0 -20 5.5 -30.5t15.5 -10.5q17 0 42.5 27.5t73.5 100.5q10 15 22 39q16 31 28 31q8 0 14 -5.5t6 -12.5q0 -12 -12 -40.5t-35 -72.5q-45 -86 -83 -123t-81 -37t-68.5 33.5t-29.5 95.5z" />
    <glyph glyph-name="periodcentered" unicode="&#x2219;" horiz-adv-x="508" 
d="M150 610q0 43 30.5 74t73.5 31t73.5 -31t30.5 -74q0 -42 -31 -72t-73 -30t-73 30t-31 72z" />
    <glyph glyph-name="sfthyphen" unicode="&#xad;" horiz-adv-x="702" 
d="M84 332q37 14 118.5 22t184.5 8q92 0 125 -19t33 -67q-1 -19 -8 -26t-27 -10q-101 -12 -197.5 -18.5t-144.5 -6.5q-59 0 -71.5 17t-12.5 100z" />
    <glyph glyph-name="afii10065" unicode="&#x430;" horiz-adv-x="537" 
d="M276 471q0 14 -8 22.5t-22 8.5q-34 0 -78 -46t-88 -128q-42 -79 -67 -149.5t-25 -106.5q1 -15 4.5 -19.5t11.5 -3.5q20 0 56.5 35t74.5 92q59 88 100 180.5t41 114.5zM211 155q-50 -91 -109 -140.5t-116 -49.5q-46 0 -74.5 34.5t-28.5 88.5q0 71 27 154t80 172
q51 92 110.5 145t110.5 53q27 0 50 -14t46 -45q20 6 32 8t23 2q36 0 59 -15.5t23 -37.5q0 -14 -27 -69q-23 -45 -36 -74q-38 -84 -60 -153t-22 -97q0 -15 4 -21t14 -6q15 0 42.5 30.5t93.5 123.5q12 17 28 42q17 27 25 27q11 0 22 -16t11 -29q0 -16 -32 -71.5t-79 -116.5
q-36 -47 -65.5 -66.5t-61.5 -19.5q-44 0 -68 31.5t-24 89.5q0 16 0.5 25t1.5 15z" />
    <glyph glyph-name="afii10066" unicode="&#x431;" horiz-adv-x="473" 
d="M346 435q0 -5 -2 -13q7 -29 8 -65q53 16 97 71t57 55q15 0 24 -7.5t9 -20.5q0 -16 -9 -32t-28 -36q-37 -54 -78 -85.5t-86 -39.5q-44 -156 -114 -237.5t-161 -81.5q-68 0 -108.5 44.5t-40.5 121.5q0 67 33 161.5t88 180.5q31 49 61 73q29 23 58 25q-20 25 -39.5 53.5
t-29.5 57t-7.5 57.5t26.5 56q20 23 56.5 39.5t77.5 25t81 6.5t67 -17q18 -9 36.5 -22t37.5 -24t39 -19t42 -7q25 1 44 5t39 18q10 7 22 21.5t18 31.5t3.5 32.5t-21.5 23.5q-9 4 -18.5 5.5t-19.5 3.5l12 58q14 -2 28.5 -2t27.5 -7q38 -20 52 -49.5t10.5 -62t-21 -64.5
t-41.5 -56q-14 -14 -33.5 -23.5t-39.5 -12.5q-34 -5 -60.5 -5.5t-50.5 4t-48 15.5t-53 28q-14 9 -32.5 22.5t-37.5 13.5q-4 0 -17 -1t-24.5 -2.5t-16 -2.5t7.5 -1q5 0 10 2t10 2q4 0 1 -1t-9 -2t-13.5 -3t-11.5 -3q-21 -7 -38.5 -15t-37.5 -22q-5 -3 3.5 -17t21.5 -30.5
t25 -30.5t15 -17q22 -25 36.5 -43.5t25.5 -37.5t19.5 -41t17.5 -54zM33 98q21 -63 43 -63q53 0 114.5 117t61.5 225v4q-14 11 -23 30l-4 21q-5 2 -10 2q-50 0 -116 -115.5t-66 -220.5z" />
    <glyph glyph-name="afii10067" unicode="&#x432;" horiz-adv-x="655" 
d="M29 249q-25 -15 -46.5 -12.5t-35 16t-16 35t12.5 46.5q28 25 49.5 44.5t42.5 37t43 34.5t52 38q58 192 139 409q25 67 43 107l-4 8q-5 10 -4.5 21t7.5 19q16 19 45 25q10 8 19 8t20 -6q25 -1 51.5 -7.5t50.5 -16.5t43.5 -21.5t30.5 -23.5q16 -17 20 -43.5t1.5 -54
t-7.5 -53t-7 -38.5q-9 -63 -44.5 -117t-84.5 -102q46 -2 72 -43q28 -43 28 -121t-38.5 -182.5t-104.5 -200.5q-32 -47 -81.5 -74.5t-100.5 -27.5q-30 0 -56.5 12t-58.5 41q-53 7 -68 16t-16 29q0 57 51 247q-9 -10 -20.5 -21.5zM423 512q-27 0 -74.5 -37.5t-99.5 -101.5
q-58 -70 -86.5 -139.5t-28.5 -141.5q0 -36 16.5 -54t49.5 -18q35 0 64.5 23.5t60.5 75.5q58 98 92.5 194t34.5 150q0 21 -8.5 35t-20.5 14zM263 573q57 37 107.5 79.5t85.5 100.5q12 21 21.5 43.5t15.5 45.5q10 39 14 64.5t-0.5 43t-18.5 28t-41 18.5q-3 -3 -7 -6
q-22 -19 -29 -27q-25 -31 -80 -180z" />
    <glyph glyph-name="afii10089" unicode="&#x447;" horiz-adv-x="436" 
d="M41 535q-19 12 -27 22t-8 23q0 32 36 63t79 31q22 0 36.5 -12.5t14.5 -30.5q0 -9 -2.5 -23t-7.5 -32l68 -20q6 11 16.5 22.5t25.5 23.5q9 3 16 4.5t11 1.5q24 0 48 -17t24 -36q0 -15 -10 -29t-33 -32q-64 -106 -96.5 -201t-32.5 -170q0 -24 8 -39.5t20 -15.5
q31 0 71.5 48t84.5 138q5 10 13 27q20 45 34 45q13 0 25 -11t12 -24q0 -15 -17 -51t-47 -84q-63 -102 -105.5 -138t-92.5 -36q-57 0 -89 35.5t-32 97.5t20.5 143.5t63.5 187.5l-55 17q-52 -144 -88 -206t-66 -62q-12 0 -19.5 8t-7.5 22q0 4 14 34q61 136 95 276z" />
    <glyph glyph-name="afii10097" unicode="&#x44f;" horiz-adv-x="646" 
d="M-72 -116q-32 9 -47.5 29t-19 45.5t3 52.5t19 48.5t29 34.5t32 10.5t28.5 -24t19 -68.5l31 -50q16 21 25 53.5t17.5 67t19 65.5t30.5 49q25 22 54.5 36.5t56.5 32.5l17 11l-60 60q-19 12 -27 22t-8 23q0 32 36 63q0 21 16 38l7 16q5 8 12 19t13 17q14 15 39.5 29.5
t56.5 25t64.5 16t63.5 3t54.5 -15t36.5 -36.5q-11 -33 -14 -59t-8 -53t-17 -59.5t-40 -78.5q-53 -103 -51 -101q-8 -44 -8 -83q0 -24 8 -39.5t20 -15.5q31 0 71.5 48t84.5 138q5 10 13 27q20 45 34 45q13 0 25 -11t12 -24q0 -15 -17 -51t-47 -84q-63 -102 -105.5 -138
t-92.5 -36q-57 0 -89 35.5t-32 97.5q0 23 30 135l-10 1q-25 -49 -12 -9q-19 -11 -38.5 -20.5t-35.5 -22.5q-15 -12 -27.5 -35t-24.5 -51.5t-23.5 -60t-23.5 -59.5t-24 -50.5t-26 -32.5q-12 -10 -27.5 -17t-31.5 -11t-32 -3t-29 7q-15 -3 -31 -2zM256 380q72 -10 93 -18
l56 52q5 22 5 39t1 34q-6 0 -11.5 8t-11 17.5t-11 16.5t-10.5 6q-11 -4 -27 -17t-31.5 -28t-27.5 -29t-16 -20q1 -3 1 -6q0 -9 -2.5 -23t-7.5 -32zM231 503q8 2 6.5 2.5t-7.5 -1t-13.5 -5.5t-11.5 -11q11 10 26 15z" />
    <glyph glyph-name="afii10076" unicode="&#x43a;" horiz-adv-x="502" 
d="M25 182q-23 -64 -44 -154q-23 -96 -55 -96q-25 0 -42 15.5t-17 36.5q0 13 46 166q23 72 36 116q109 363 97 336t11 35l2 6q30 86 86 86q24 0 44 -16t20 -33q-1 -2 -5 -7q-35 -41 -69 -122q-17 -41 -25 -59q4 3 -36 -148q32 27 86 76q186 162 231 162q33 0 46.5 -4.5
t13.5 -14.5q0 -12 -92 -87.5t-169 -151.5q20 -137 47.5 -210t59.5 -73q23 0 54 37t108 166q2 4 5 9q15 29 28 30q8 0 20 -12t12 -25q0 -22 -31 -83t-77 -118q-36 -44 -74 -65t-82 -21q-58 0 -98.5 52.5t-91.5 205.5z" />
    <glyph glyph-name="afii10085" unicode="&#x443;" horiz-adv-x="487" 
d="M182 170q-35 -69 -75.5 -107t-75.5 -38q-15 0 -25 6t-18 20q-22 17 -32.5 44t-10.5 65q0 145 56.5 287.5t111.5 142.5q25 0 50 -17.5t25 -35.5q0 -9 -5.5 -15.5t-18.5 -11.5q-51 -104 -81 -205.5t-30 -157.5q0 -9 3.5 -14.5t9.5 -5.5q27 0 103.5 127t127.5 282q4 14 9 42
q12 71 71 71q29 0 48 -11.5t24 -31.5q6 -6 9 -13t3 -15q-1 -12 -7.5 -20.5t-20.5 -16.5q-109 -199 -152.5 -460.5t-44.5 -265.5q-24 -86 -108 -144t-171 -58q-51 0 -88.5 22.5t-77.5 75.5q-21 15 -31 33.5t-10 42.5q0 27 10.5 38t34.5 11q23 0 35 -59q3 -15 7 -30
q30 -23 71 -36.5t90 -13.5q10 0 21 0.5t34 3.5q48 24 106 341q15 82 23 128z" />
    <glyph glyph-name="afii10074" unicode="&#x438;" horiz-adv-x="559" 
d="M240 172q-46 -94 -92 -141t-91 -47q-24 0 -43 9t-37 30q-21 21 -29.5 43t-8.5 53q0 86 35.5 212t93.5 234q12 24 26.5 34.5t32.5 10.5q28 0 48 -20.5t20 -46.5q0 -7 -4 -15t-13 -18q-62 -128 -96.5 -233t-34.5 -162q0 -30 8 -43t27 -13q40 0 98.5 110.5t145.5 348.5
q4 37 22 58.5t45 21.5t51.5 -21t24.5 -45q0 -6 -22 -51q-107 -219 -107 -377q0 -25 5 -40t13 -15q32 0 69.5 51t84.5 158q2 5 5 12q12 31 30 31q10 0 27.5 -14.5t17.5 -24.5q0 -14 -32.5 -82t-74.5 -125q-33 -46 -66 -67t-73 -21q-50 0 -81.5 40t-31.5 106q1 8 2.5 23.5
t4.5 35.5z" />
    <glyph glyph-name="afii10080" unicode="&#x43e;" horiz-adv-x="473" 
d="M218 514l4 1q19 3 32 3q43 0 70 -44t28 -117q53 16 97 71t57 55q15 0 24 -7.5t9 -20.5q0 -16 -9 -32t-28 -36q-37 -54 -78 -85.5t-86 -39.5q-44 -156 -114 -237.5t-161 -81.5q-68 0 -108.5 44.5t-40.5 121.5q0 67 33 161.5t88 180.5q31 49 61.5 73.5t61.5 24.5
q20 0 35.5 -9t24.5 -26zM33 98q0 -32 10.5 -47.5t32.5 -15.5q53 0 114.5 117t61.5 225q0 27 -10 42t-27 15q-50 0 -116 -115.5t-66 -220.5z" />
    <glyph glyph-name="afii10068" unicode="&#x433;" horiz-adv-x="514" 
d="M119 535q66 56 265 44q122 0 -17.5 -187.5t-139.5 -262.5q0 -24 8 -39.5t20 -15.5q81 -6 121.5 42t84.5 138q5 10 13 27q20 45 34 45q13 0 25 -11t12 -24q0 -15 -17 -51t-47 -84q-63 -102 -105.5 -138t-142.5 -30q-57 0 -89 35.5t-32 97.5t152 262t-73 80
q-52 -144 -125.5 -211.5t-103.5 -67.5q-12 0 -19.5 8t-7.5 22q0 4 14 34q136 147 170 287z" />
    <glyph glyph-name="afii10069" unicode="&#x434;" horiz-adv-x="502" 
d="M-37 68q0 -24 10 -36t29 -12t40 19t52 63q73 102 119.5 197.5t46.5 136.5q0 22 -12 34.5t-33 12.5q-27 0 -70.5 -47t-93.5 -133q-40 -69 -64 -135t-24 -100zM197 131q-69 -97 -112.5 -134.5t-82.5 -37.5q-51 0 -82 37.5t-31 101.5q0 86 43.5 196.5t114.5 201.5
q43 54 69 71t58 17q24 0 53.5 -15t68.5 -48q28 6 37 7.5t15 1.5q31 0 51.5 -17t20.5 -44q0 -7 -17 -44q-76 -171 -129 -393q-13 -55 -36 -177.5t-43 -165.5q-27 -59 -94.5 -93t-155.5 -34q-78 0 -126 25t-48 63q0 17 8.5 28t21.5 11q11 0 18.5 -9t16.5 -27q23 -9 46 -13.5
t48 -4.5q54 0 94 15.5t68 46.5q18 45 39.5 132t65.5 302z" />
    <glyph glyph-name="afii10070" unicode="&#x435;" horiz-adv-x="408" 
d="M117 291q33 0 65.5 73t32.5 144q0 12 -7.5 21.5t-17.5 9.5q-28 0 -70 -71.5t-42 -115.5q0 -28 10.5 -44.5t28.5 -16.5zM45 256q-7 -26 -10.5 -52.5t-3.5 -56.5q0 -57 15.5 -86.5t45.5 -29.5q56 0 132.5 70t133.5 177q5 9 14 27q20 41 31 41t21 -11.5t10 -27.5
q0 -20 -24 -66t-64 -98q-74 -95 -138.5 -136.5t-137.5 -41.5q-77 0 -115.5 44.5t-38.5 133.5q0 94 44.5 225t113.5 232q22 32 47.5 49t50.5 17q13 0 26 -5t30 -16q14 -4 36 -10q60 -16 60 -72q0 -126 -71 -231t-147 -105q-16 0 -31.5 7.5t-29.5 21.5z" />
    <glyph glyph-name="afii10072" unicode="&#x436;" horiz-adv-x="1393" 
d="M1205 545q-14 0 -29.5 -10t-29.5 -29q-71 -91 -118.5 -214.5t-47.5 -201.5q0 -47 16 -70.5t49 -23.5q53 0 110.5 40.5t125.5 125.5q32 40 60 89.5t34 49.5q9 0 23 -10t14 -21q0 -16 -18 -54.5t-48 -82.5q-61 -92 -136.5 -141t-153.5 -49q-84 0 -133.5 48.5t-49.5 131.5
q0 64 20 139q-21 -11 -41 -23t-38 -23t-31.5 -21t-20.5 -17l-4 -4q-4 -30 -10.5 -55t-19.5 -41q-2 -7 -6 -18.5t-8 -23.5t-7.5 -21.5t-3.5 -12.5q-5 -14 -15 -20t-20 -4q-42 -31 -73 13q-9 17 -9 38.5t4.5 43.5t13 43t16.5 36q8 17 17.5 31t19.5 28q1 13 1.5 29.5t0.5 34.5
q-20 -13 -40 -25t-41 -24q-26 -15 -51 -29t-52 -23q-57 -124 -128 -194q-21 -20 -44 -28.5t-54 -8.5q-22 0 -41.5 7t-41.5 22q-33 6 -52 34t-19 72q0 69 36 143t75 74q22 0 39.5 -16.5t17.5 -36.5q0 -31 -23 -98.5t-30 -101.5l8 -1q14 0 29.5 10t29.5 29q71 91 118.5 214.5
t47.5 201.5q0 47 -16 70.5t-49 23.5q-53 0 -110.5 -40.5t-125.5 -125.5q-32 -40 -60 -89.5t-34 -49.5q-9 0 -23 10t-14 21q0 16 18 54.5t48 82.5q61 92 136.5 141t153.5 49q84 0 133.5 -48.5t49.5 -131.5q0 -64 -20 -139q21 11 41 23t38 23t31.5 21t20.5 17l4 4q3 30 10 55
t20 41q2 7 6 18.5t8 23.5t7.5 21.5t3.5 12.5q5 14 14.5 20t20.5 4q20 15 39 11.5t34 -24.5q9 -17 9 -38.5t-4.5 -43.5t-13 -43t-16.5 -36q-8 -17 -17.5 -31t-19.5 -28q-2 -14 -2 -30v-35q19 14 39.5 26t41.5 24q26 15 51 29t52 23q57 124 128 194q21 20 44 28.5t54 8.5
q22 0 41.5 -7t41.5 -22q33 -6 52 -34t19 -72q0 -69 -36 -143t-75 -74q-22 0 -39.5 16.5t-17.5 36.5q0 31 23 98.5t30 101.5z" />
    <glyph glyph-name="afii10073" unicode="&#x437;" horiz-adv-x="583" 
d="M132 165q38 6 100 19q76 15 94 15q35 0 57 -15q10 -7 15 -16h8l-3 -14q1 -4 1 -8q0 -13 -5 -20l-1 -1l-2 -9q-15 -71 -59 -236q116 8 233 3q0 -14 -0.5 -29t-1.5 -30q-63 -7 -126.5 -13t-126.5 -15q-23 -83 -41 -111q-34 -55 -100.5 -96.5t-129.5 -41.5q-93 0 -161 48
q-24 17 -40 35q-13 3 -23.5 12t-15.5 22t-3.5 29t11.5 34q7 10 13 20t14 19q13 16 39.5 28.5t56.5 21.5t59 15.5t46 9.5q45 9 89.5 16.5t90.5 12.5q44 160 58 222q-26 -8 -55 -19q-98 -36 -133 -36q-37 0 -71.5 33.5t-34.5 61.5q0 32 104 102t327 269q-73 -7 -162.5 -19.5
t-105.5 -12.5q-17 0 -30 16.5t-17 44.5q119 38 210 56t161 18q35 0 60.5 -22t25.5 -49q0 -33 -167.5 -190.5t-257.5 -179.5zM194 -225q-58 -11 -113 -27q-8 -2 -28.5 -8t-45 -14.5t-47.5 -19t-35 -20.5q-5 -4 -7.5 -10t-5.5 -13q27 -16 56 -27q50 -19 99 -19q16 0 32.5 3
t33.5 9z" />
    <glyph glyph-name="afii10075" unicode="&#x439;" horiz-adv-x="559" 
d="M243 885q25 1 42 -8t24.5 -23.5t6 -31.5t-13.5 -31q2 -7 5 -11.5t13 -7.5q28 -10 48.5 2.5t30.5 36.5l57 -18q-3 -49 -31.5 -77t-67 -35t-79.5 6.5t-68 47.5q-14 18 -20 42t-2.5 46.5t17 39.5t38.5 22zM240 172q-46 -94 -92 -141t-91 -47q-24 0 -43 9t-37 30
q-21 21 -29.5 43t-8.5 53q0 86 35.5 212t93.5 234q12 24 26.5 34.5t32.5 10.5q28 0 48 -20.5t20 -46.5q0 -7 -4 -15t-13 -18q-62 -128 -96.5 -233t-34.5 -162q0 -30 8 -43t27 -13q40 0 98.5 110.5t145.5 348.5q4 37 22 58.5t45 21.5t51.5 -21t24.5 -45q0 -6 -22 -51
q-107 -219 -107 -377q0 -25 5 -40t13 -15q32 0 69.5 51t84.5 158q2 5 5 12q12 31 30 31q10 0 27.5 -14.5t17.5 -24.5q0 -14 -32.5 -82t-74.5 -125q-33 -46 -66 -67t-73 -21q-50 0 -81.5 40t-31.5 106q1 8 2.5 23.5t4.5 35.5z" />
    <glyph glyph-name="afii10077" unicode="&#x43b;" horiz-adv-x="668" 
d="M445 558h9t9 -1q12 2 25 2q18 0 28.5 -8.5t10.5 -24.5q0 -5 -10 -32q-2 -14 -10 -25l-9 -25l-13 -37q-85 -232 -85 -292q0 -23 8.5 -34t26.5 -11q26 0 75 50t97 130q6 11 17 32q17 33 26 33q12 0 24.5 -11.5t12.5 -27.5q0 -7 -35 -66q-17 -29 -27 -46
q-58 -99 -106 -140.5t-101 -41.5t-84.5 45t-31.5 123q0 91 30 208q5 20 11 38q-6 -6 -13 -3.5t-14 5.5t-14.5 2t-14.5 -13q-28 -47 -43.5 -102t-31 -108t-36.5 -99.5t-60 -77.5q-28 -22 -59.5 -9.5t-63 44t-61.5 74t-55 79.5l55 37q7 -14 19 -32.5t26 -37t29.5 -35.5t29 -28
t24.5 -14t16 6q27 46 42.5 79.5t24.5 61.5t15.5 52.5t17.5 52t29 60.5t51 77q16 21 39 35t44 29q23 16 51.5 18.5t54.5 8.5z" />
    <glyph glyph-name="afii10078" unicode="&#x43c;" horiz-adv-x="957" 
d="M337 119q0 28 3 61q5 80 30 178q5 20 11 38q-6 -6 -13 -3.5t-14 5.5t-14.5 2t-14.5 -13q-28 -47 -43.5 -102t-31 -108t-36.5 -99.5t-60 -77.5q-28 -22 -59.5 -9.5t-63 44t-61.5 74t-55 79.5l55 37q7 -14 19 -32.5t26 -37t29.5 -35.5t29 -28t24.5 -14t16 6q27 46 42 79.5
t24.5 61.5t16 52.5t17.5 52t29 60.5t51 77q16 21 39 35t44 29q18 12 39.5 15.5t43.5 6.5l6 12q12 24 26.5 34.5t32.5 10.5q28 0 48 -20.5t20 -46.5q0 -7 -4 -15t-13 -18q-62 -128 -96.5 -233t-34.5 -162q0 -25 5 -38q8 -7 23 -7q26 0 75 50l5 5q12 19 25 44q59 111 146 349
q4 37 22 58.5t45 21.5t51.5 -21t24.5 -45q0 -6 -22 -51q-107 -219 -107 -377q0 -25 5 -40t13 -15q32 0 69.5 51t84.5 158q2 5 5 12q12 31 30 31q10 0 27.5 -14.5t17.5 -24.5q0 -14 -32.5 -82t-74.5 -125q-33 -46 -66 -67t-73 -21q-50 0 -81.5 40t-31.5 105q-40 -59 -74 -89
q-48 -41 -101 -41q-52 0 -84 43q-19 20 -27 41q-8 22 -8 53z" />
    <glyph glyph-name="afii10081" unicode="&#x43f;" horiz-adv-x="526" 
d="M242 350q-52 -85 -119 -213q-82 -155 -123 -155q-38 0 -62 23.5t-24 64.5q0 50 32.5 181t82.5 249q17 41 32.5 54t42.5 13q23 0 42.5 -13.5t19.5 -31.5q0 -4 -13 -31q-84 -172 -118 -368q133 256 207.5 366.5t113.5 110.5q32 0 60 -22t28 -50q0 -17 -20 -33t-21 -16
q-5 -7 -19 -43.5t-30 -87.5q-21 -72 -34 -138.5t-13 -98.5q0 -21 5.5 -33t15.5 -12q32 0 122 153q16 28 25 43q3 5 8 16q10 23 27 23q10 0 26.5 -14.5t16.5 -24.5q0 -20 -46.5 -105t-103.5 -143q-20 -20 -41 -30.5t-43 -10.5q-51 0 -79.5 42t-28.5 118q0 35 7.5 89t23.5 128
zM96 610q-28 4 -44 19t-18.5 33.5t9 37t38.5 28.5q35 0 69 1.5t68 10.5q23 6 43.5 13t41 12.5t93.5 18t97 11.5l8 -59l-13 -4q-117 -29 -134.5 -35t-34.5 -14q-55 -25 -109 -43.5t-114 -29.5z" />
    <glyph glyph-name="afii10082" unicode="&#x440;" horiz-adv-x="502" 
d="M29 120q3 -28 22.5 -46.5t44.5 -18.5q39 0 69.5 33.5t63.5 114.5q26 63 40 121.5t14 105.5q0 31 -8 47.5t-23 16.5q-36 0 -105 -109t-118 -265zM109 465q52 76 87.5 108.5t65.5 32.5q53 0 87 -51.5t34 -134.5q0 -169 -85 -308t-183 -139q-38 0 -70.5 20t-44.5 50
q-43 -188 -67.5 -312t-24.5 -157q0 -13 9 -24t9 -13q0 -16 -13 -27.5t-30 -11.5q-38 0 -58 16t-20 48q0 51 47.5 277.5t120.5 502.5q10 36 27 100q80 299 127 299q19 0 35 -12t16 -29q0 -13 -26 -91.5t-43 -143.5z" />
    <glyph glyph-name="afii10083" unicode="&#x441;" horiz-adv-x="451" 
d="M266 544l-8 1q-14 0 -29.5 -10t-29.5 -29q-71 -91 -118.5 -214.5t-47.5 -201.5q0 -47 16 -70.5t49 -23.5q53 0 110.5 40.5t125.5 125.5q32 40 60 89.5t34 49.5q9 0 23 -10t14 -21q0 -16 -18 -54.5t-48 -82.5q-61 -92 -136.5 -141t-153.5 -49q-84 0 -133.5 48.5
t-49.5 131.5q0 112 61.5 258t141.5 225q21 20 44 28.5t54 8.5q22 0 41.5 -7t41.5 -22q33 -6 52 -34t19 -72q0 -69 -36 -143t-75 -74q-22 0 -39.5 16.5t-17.5 36.5q0 31 23 98.5t30 101.5z" />
    <glyph glyph-name="afii10084" unicode="&#x442;" horiz-adv-x="725" 
d="M453 63q-17 16 -25 33.5t-8 40.5q0 45 76 264l6 17q-50 -84 -119 -218q-101 -194 -154 -194q-29 0 -46 17t-17 47q0 31 38 199q8 37 13 58q-61 -95 -127 -228q-61 -124 -100 -124q-48 0 -69 21t-21 67q0 29 49 189q36 115 57 188q21 72 34.5 89.5t37.5 17.5
q28 0 52 -23.5t24 -52.5q0 -16 -22.5 -41t-32.5 -44q-14 -25 -43 -118t-58 -211q138 254 208 353.5t107 99.5q19 0 31 -15.5t16 -44.5l-16 -30q-25 -69 -44 -144t-32 -157q126 243 204 360t114 117q12 0 22.5 -10.5t20.5 -32.5q12 -11 18 -21.5t6 -19.5t-6.5 -22t-28.5 -46
q-47 -72 -80.5 -164.5t-33.5 -134.5q0 -22 7 -33.5t21 -11.5q23 0 48.5 28.5t78.5 119.5q17 28 33.5 63t20.5 35q12 0 29.5 -17.5t17.5 -31.5q0 -15 -20.5 -57.5t-53.5 -94.5q-44 -70 -81.5 -103.5t-69.5 -33.5q-20 0 -40.5 13.5t-41.5 41.5zM76 575q-32 4 -47.5 22.5
t-15 39.5t17.5 38t50 19q71 -1 140 4t139 14q12 1 32 4.5t41.5 6.5t41.5 5.5t32 3.5q39 3 79 1.5t79 -3.5q0 -14 -0.5 -29t-1.5 -30q-74 -10 -147 -23.5l-146 -27t-146.5 -26t-147.5 -19.5z" />
    <glyph glyph-name="afii10087" unicode="&#x445;" horiz-adv-x="508" 
d="M110 110q-10 -13 -33 -42q-76 -96 -117 -152q-8 -3 -14 -4.5t-14 -1.5q-20 0 -35.5 13t-15.5 28q0 22 39.5 79.5t149.5 190.5q-20 70 -30.5 124t-10.5 79q0 50 40.5 87.5t73.5 37.5q30 0 39 -96q5 -57 11 -92q157 173 213 222.5t86 49.5q19 0 34 -12t15 -25
q0 -14 -15.5 -30t-52.5 -40q-44 -39 -107.5 -112t-148.5 -183q15 -79 39 -127.5t45 -48.5q15 0 53.5 48t77.5 120q10 18 25 48q25 51 37 51t32.5 -18.5t20.5 -29.5q0 -14 -35 -84.5t-80 -130.5q-35 -47 -75 -70.5t-85 -23.5q-57 0 -92 31.5t-70 113.5z" />
    <glyph glyph-name="afii10086" unicode="&#x444;" horiz-adv-x="876" 
d="M403 120q3 -28 22.5 -46.5t44.5 -18.5q39 0 69.5 33.5t63.5 114.5q26 63 40 121.5t14 105.5q0 31 -8 47.5t-23 16.5q-36 0 -105 -109t-118 -265zM570 573q36 33 66 33q53 0 87 -51.5t34 -134.5q0 -169 -85 -308t-183 -139q-25 0 -47 9q-15 -5 -30 -5q-29 0 -49 15
q-35 -154 -56 -261q-25 -124 -25 -157q0 -13 9 -24t9 -13q0 -16 -13 -27.5t-30 -11.5q-38 0 -58 16t-20 48q0 51 48 278q18 88 41 183q-24 -35 -51 -62q-53 -55 -96 -55q-48 0 -82 49.5t-34 122.5q0 96 55 214.5t145 211.5q25 24 45 35.5t39 11.5q23 0 51 -15q24 -12 50 -35
q51 177 87 223q4 13 9 27q99 293 143 293q33 0 54.5 -13.5t21.5 -33.5t-37 -98q-26 -55 -41 -90q-70 -161 -119 -309q36 49 62 73zM347 342q10 36 27 100q1 5 3 10q-8 8 -15 13q-10 6 -21 6q-24 0 -55 -32t-77 -103q-49 -76 -77.5 -157t-28.5 -138q0 -18 10 -31.5t23 -13.5
q43 0 114 125q48 86 93 206q2 7 4 15z" />
    <glyph glyph-name="afii10079" unicode="&#x43d;" horiz-adv-x="526" 
d="M46 145l29 -92q-47 -71 -75 -71q-38 0 -62 23.5t-24 64.5q0 42 23 142q-8 9 -8.5 22.5t7.5 28.5q9 9 18 14q30 117 75 223q17 41 32.5 54t42.5 13q23 0 42.5 -13.5t19.5 -31.5q0 -4 -13 -31l-53 -163q38 7 76 11.5t73 6.5q8 31 19 72q49 182 88 182q32 0 60 -22t28 -50
q0 -17 -20 -33t-21 -16q-5 -7 -19 -43.5t-30 -86.5h1l4 -39l-17 -3q-13 -50 -22 -98q-13 -66 -13 -98q0 -21 5.5 -33t15.5 -12q32 0 122 153q16 28 25 43q3 5 8 16q10 23 27 23q10 0 26.5 -14.5t16.5 -24.5q0 -20 -46.5 -105t-103.5 -143q-20 -20 -41 -30.5t-43 -10.5
q-51 0 -79.5 42t-28.5 118q0 35 7 89q1 8 16 68q-40 -8 -81.5 -17t-76.5 -21l-41 -129z" />
    <glyph glyph-name="afii10088" unicode="&#x446;" horiz-adv-x="559" 
d="M240 172q-105 -188 -183 -188q-24 0 -43 9t-37 30q-21 21 -29.5 43t-8.5 53q0 86 35.5 212t93.5 234q12 24 26.5 34.5t32.5 10.5q28 0 48 -20.5t20 -46.5q0 -7 -4 -15t-13 -18q-62 -128 -96.5 -233t-34.5 -162q0 -30 8 -43t27 -13q40 0 98.5 110.5t145.5 348.5
q4 37 22 58.5t45 21.5t51.5 -21t24.5 -45q0 -6 -22 -51q-107 -219 -107 -377q0 -25 5 -40t13 -15q32 0 69.5 51t84.5 158q2 5 5 12q12 31 30 31q10 0 27.5 -14.5t17.5 -24.5q0 -14 -32.5 -82t-74.5 -125q-33 -46 -66 -67q-10 -6 -20 -10q6 -9 12.5 -18t12.5 -19
q12 -15 9 -34q-2 -15 -3 -31t-9 -30q-10 -17 -32 -27t-47.5 -16t-50.5 -8.5t-40 -4.5q-20 -3 -40.5 -4.5t-40.5 -6.5q-17 -4 -34 -8.5t-33 -12.5q-8 -4 -12 -12t-10 -15q8 -32 11 -46t8.5 -17t18.5 0t40 4l4 -39q-13 -1 -25 -4t-23.5 -5t-23.5 -1t-24 9q-5 4 -10.5 10.5
t-7.5 12.5q-9 24 -16.5 44.5t-8.5 39.5t9.5 36t37.5 33q33 19 69 27.5t73.5 14t74 12.5t69.5 24l2 19q-14 18 -28.5 36t-29.5 36q-21 10 -37 30q-31 40 -31 106q1 8 2.5 23.5t4.5 35.5z" />
    <glyph glyph-name="afii10090" unicode="&#x448;" horiz-adv-x="935" 
d="M351 7q-18 23 -25 54q-1 3 -2 5q-9 22 -9 53q0 15 1 30q-40 -77 -81 -118q-46 -47 -91 -47q-24 0 -43 9t-37 30q-21 21 -29.5 43t-8.5 53q0 86 35.5 212t93.5 234q12 24 26.5 34.5t32.5 10.5q28 0 48 -20.5t20 -46.5q0 -7 -4 -15t-13 -18q-62 -128 -96.5 -233t-34.5 -162
q0 -30 8 -43t27 -13q40 0 98.5 110.5t145.5 348.5l-9 -34q19 41 40 81q12 24 26.5 34.5t32.5 10.5q28 0 48 -20.5t20 -46.5q0 -7 -4 -15t-13 -18q-62 -128 -96.5 -233t-34.5 -162q0 -30 8 -43t27 -13q40 0 98.5 110.5t145.5 348.5q4 37 22 58.5t45 21.5t51.5 -21t24.5 -45
q0 -6 -22 -51q-107 -219 -107 -377q0 -25 5 -40t13 -15q32 0 69.5 51t84.5 158q2 5 5 12q12 31 30 31q10 0 27.5 -14.5t17.5 -24.5q0 -14 -32.5 -82t-74.5 -125q-33 -46 -66 -67t-73 -21q-50 0 -81.5 40t-31.5 106q1 8 2.5 23.5t4.5 35.5q-46 -94 -92 -141t-91 -47
q-24 0 -43 9t-37 30l-7 7zM99 -206q-32 4 -47.5 22.5t-15 39.5t17.5 38t50 19q79 -1 157.5 4.5t157 11.5t157 9.5t157.5 -0.5q0 -14 -0.5 -29t-1.5 -30q-158 -19 -315.5 -45.5t-316.5 -39.5z" />
    <glyph glyph-name="afii10091" unicode="&#x449;" horiz-adv-x="935" 
d="M677 -64q-19 11 -24.5 26.5t1.5 29.5q-7 7 -14 15q-31 40 -31 106q1 8 2.5 23.5t4.5 35.5q-46 -94 -92 -141t-91 -47q-24 0 -43 9t-37 30l-7 7l5 -23q-18 23 -25 54q-1 3 -2 5q-9 22 -9 53q0 15 1 30q-40 -77 -81 -118q-46 -47 -91 -47q-24 0 -43 9t-37 30
q-21 21 -29.5 43t-8.5 53q0 86 35.5 212t93.5 234q12 24 26.5 34.5t32.5 10.5q28 0 48 -20.5t20 -46.5q0 -7 -4 -15t-13 -18q-62 -128 -96.5 -233t-34.5 -162q0 -30 8 -43t27 -13q40 0 98.5 110.5t145.5 348.5l-9 -34q19 41 40 81q12 24 26.5 34.5t32.5 10.5q28 0 48 -20.5
t20 -46.5q0 -7 -4 -15t-13 -18q-62 -128 -96.5 -233t-34.5 -162q0 -30 8 -43t27 -13q40 0 98.5 110.5t145.5 348.5q4 37 22 58.5t45 21.5t51.5 -21t24.5 -45q0 -6 -22 -51q-107 -219 -107 -377q0 -25 5 -40t13 -15q32 0 69.5 51t84.5 158q2 5 5 12q12 31 30 31
q10 0 27.5 -14.5t17.5 -24.5q0 -14 -32.5 -82t-74.5 -125q-33 -46 -66 -67q-15 -9 -32 -15q15 -16 26 -35t13 -37q2 -12 -3.5 -24.5t-9.5 -22.5q-4 -9 -8 -15t-15 -11q-44 -20 -89.5 -24.5t-91.5 -3.5t-93 3.5t-93 -2.5q-4 -6 -8.5 -14.5t-7 -18.5t-3 -19.5t2.5 -16.5
q6 -12 13 -17.5t11.5 -8t6 -3t-2.5 -3.5q20 -12 37.5 -17t35.5 -6t37.5 0t43.5 0q0 -10 -0.5 -19.5t-1.5 -19.5q-21 -1 -42 -4t-42 -4t-41.5 2t-40.5 14q-48 27 -65 65t2 90q5 15 14.5 30t23.5 23q9 5 25 7t33 2t32.5 -0.5t23.5 -0.5q29 0 59.5 -0.5t61 1t60 7.5t56.5 18
q1 1 1 2l-25 35q-3 2 -5.5 4.5t-6.5 4.5q-5 2 -4.5 1.5t-5.5 0.5z" />
    <glyph glyph-name="afii10094" unicode="&#x44c;" horiz-adv-x="416" 
d="M57 -18q-53 0 -84.5 45t-31.5 123q0 91 32.5 231t62.5 183q12 19 38 30t58 11q18 0 28.5 -8.5t10.5 -24.5q0 -6 -14 -42l-20 -86l-13 -37q-85 -232 -85 -292q0 -23 8.5 -34t26.5 -11q26 0 75 50q42 43 83 108q-31 5 -54 20t-31 47q-5 20 6.5 37.5t30 28.5t40 14t37.5 -5
q23 -11 32.5 -26.5t14.5 -35.5q3 -2 5 -5q9 -8 12 -18q17 2 32 5t28 8q22 9 42.5 22.5t41.5 24.5q-1 -1 -1 -3l35 -17q-5 -12 -19 -21.5t-27 -17.5q5 2 3.5 0t-6.5 -5.5t-11.5 -8.5t-11.5 -9q-14 -12 -31.5 -18.5t-35.5 -10.5q-14 -3 -30.5 -5t-33.5 -4q-4 -7 -9 -15
q-17 -29 -27 -46q-58 -99 -106 -140.5t-101 -41.5z" />
    <glyph glyph-name="afii10021" unicode="&#x414;" horiz-adv-x="1058" 
d="M-52 -100q-12 12 -17.5 25t-6.5 25q-14 23 -26 44t-16 30q-3 28 7.5 46.5t27.5 26t36 2.5t33 -24q11 2 23.5 3t26.5 3q2 2 3 5q38 49 59 81q83 119 249 409.5t341 627.5q22 17 62.5 29t80.5 12q49 0 66.5 -41t17.5 -193v-100q0 -185 -22 -385q-21 -191 -33 -378
q11 -2 21.5 -5t19.5 -6q10 -8 14.5 -14t8.5 -18q2 -25 -7.5 -43t-23.5 -33v-16.5t-2 -16.5t-5 -15.5t-5 -15.5q0 -2 -1.5 -6.5t-0.5 -2.5q7 15 7.5 11.5t-2.5 -15t-7 -25t-5 -17.5q-11 -30 -27.5 -49t-45.5 -29q-18 -3 -29.5 0t-25.5 16q-18 19 -28 48t-12.5 60t4 60.5
t23.5 51.5q-67 -3 -132.5 -12t-131 -21t-130.5 -25t-130 -25q-29 -5 -55.5 -8.5t-55.5 -6.5l-41 -4h-7q7 -15 10 -33.5t3.5 -38t0.5 -37.5v-31q0 -8 -0.5 -15.5t-0.5 -15.5q0 -6 3.5 -15t-3.5 -11q-5 0 -7 8l-35 -41q-16 8 -24.5 22.5t-13 31.5t-6.5 34.5t-5 32.5
q-1 5 -3 13t-3.5 15t-2.5 10.5t0 -1.5zM135 77l14 2q39 4 102.5 15.5t137 24t149.5 23t141 14.5q5 24 18 71q62 321 62 684q0 46 -1.5 89.5t-4.5 86.5l-197 -314z" />
    <glyph glyph-name="afii10093" unicode="&#x44b;" horiz-adv-x="736" 
d="M487 -18q-53 0 -84.5 45t-31.5 123q0 41 6 87l-13 -3q-14 -3 -30.5 -5t-33.5 -4q-4 -7 -9 -15q-17 -29 -27 -46q-58 -99 -106 -140.5t-101 -41.5t-84.5 45t-31.5 123q0 91 32.5 231t62.5 183q12 19 38 30t58 11q18 0 28.5 -8.5t10.5 -24.5q0 -6 -14 -42l-20 -86l-13 -37
q-85 -232 -85 -292q0 -23 8.5 -34t26.5 -11q26 0 75 50q42 43 83 108q-31 5 -54 20t-31 47q-5 20 6.5 37.5t30 28.5t40 14t37.5 -5q23 -11 32.5 -26.5t14.5 -35.5q3 -2 5 -5q9 -8 12 -18q17 2 32 5t28 8q1 0 2 1q6 28 14 59q30 117 60 160q12 19 38 30t58 11q18 0 28.5 -8.5
t10.5 -24.5q0 -6 -14 -42l-15 -40l-13 -37q-85 -232 -85 -292q0 -23 8.5 -34t26.5 -11q26 0 75 50t97 130q6 11 17 32q17 33 26 33q12 0 24.5 -11.5t12.5 -27.5q0 -7 -35 -66q-17 -29 -27 -46q-58 -99 -106 -140.5t-101 -41.5z" />
    <glyph glyph-name="afii10022" unicode="&#x415;" horiz-adv-x="930" 
d="M256 414q-30 -97 -50 -166t-34 -121q220 28 338.5 40.5t163.5 12.5q50 0 75 -9.5t25 -29.5q0 -41 -97 -54q-13 -2 -20 -3q-129 -21 -310 -68t-228 -47q-40 0 -71.5 32t-31.5 75q0 26 66.5 274.5t218.5 792.5q23 82 49 96t160 14q67 0 220.5 -17.5t236.5 -23.5
q17 -1 25.5 -7t8.5 -17q0 -53 -247 -71q-180 -12 -299 -27q-37 -107 -76.5 -240t-85.5 -301q131 14 229 20t172 6q54 0 78.5 -10.5t24.5 -34.5q0 -28 -11.5 -42.5t-36.5 -16.5q-81 -4 -199 -17.5t-294 -39.5z" />
    <glyph glyph-name="afii10049" unicode="&#x42f;" horiz-adv-x="1150" 
d="M103 -48q-29 -6 -49 4.5t-28 27.5t-3 37.5t26 34.5q1 2 2 2.5t1 1.5q26 49 54 89.5t59 77t66 71t77 71.5q11 11 25.5 22.5t28.5 24.5q13 18 24 39q11 8 21 12.5t19 6.5l14 13l14 12l29 27l-41 24q-11 7 -23 16.5t-23 21.5q-58 52 -58 132q0 27 8 60q6 34 15 63.5t21 58
t28 58t35 63.5q12 22 29 51.5t36 60t38.5 58t36.5 44.5q24 23 55 37t62 25q16 14 32 24q62 43 109 43q27 0 58 -9q5 -2 11 -4q25 -4 52.5 -12.5t53 -18.5t48.5 -20t40 -18q2 -2 0.5 -1t-6.5 3l-3 -12q3 -2 6 -2.5t5 -2.5q14 7 28 7q20 0 50 -24t30 -46q0 -7 -31 -80
q-205 -492 -346 -1069v-19q2 -11 2 -20q0 -16 -13.5 -25t-37.5 -9q-52 0 -77.5 17t-25.5 52q0 44 70 287q26 93 59 201q-10 -1 -29 -6q-42 -13 -79.5 -31t-77.5 -23q0 -2 -0.5 -4.5t-0.5 -4.5l-33 -3q-14 -20 -36.5 -35t-39.5 -27l-46 -35q-25 -31 -56.5 -57t-63.5 -51
l-59 -64q-6 -8 -12.5 -15t-13.5 -15q-17 -26 -35 -52.5t-39 -43.5q-18 -29 -32 -61l-4 1q-2 -5 -4 -9t-4 -9q-8 -14 -20 -26.5t-28 -17.5zM621 618q19 8 35 7t27 -8q38 17 75.5 28.5t80.5 16.5h14q41 128 90 276q5 15 15 46q34 109 68 178q-8 3 -14 10q-11 13 -19 55
q-2 16 -23.5 27.5t-50.5 11.5q-54 0 -117.5 -36.5t-131.5 -105.5q-95 -93 -150.5 -205t-55.5 -202q0 -32 10 -57q23 -24 49.5 -36t59.5 -26q20 12 38 20zM58 61l10 5q10 3 4 3.5t-14 -7.5v-1z" />
    <glyph glyph-name="afii10017" unicode="&#x410;" horiz-adv-x="920" 
d="M230 416q94 9 182 14.5t167 7.5q9 208 23.5 380t36.5 315q-159 -237 -408 -714zM579 315q-102 -8 -209.5 -23t-217.5 -36q-25 -51 -58 -137q-59 -158 -135 -158q-15 0 -25 11.5t-10 29.5q0 65 133.5 347.5t339.5 633.5h1q171 293 284 293q23 0 54.5 -12t42.5 -15
q35 -9 47.5 -19.5t13.5 -29.5q0 -15 -18.5 -45t-24.5 -51q-24 -71 -49 -332.5t-25 -554.5q0 -35 2 -77.5t2 -49.5q0 -37 -20.5 -57.5t-57.5 -20.5q-65 0 -68 235q-1 45 -2 68z" />
    <glyph glyph-name="afii10035" unicode="&#x421;" horiz-adv-x="901" 
d="M750 1235q78 -22 124 -68t46 -100q0 -39 -24 -67.5t-54 -28.5q-25 0 -38 20t-22 85q-3 24 -28 41.5t-60 17.5q-63 0 -137.5 -56t-155.5 -164q-110 -145 -175.5 -319t-65.5 -313q0 -101 49 -157t135 -56q55 0 117 21t135 65q33 20 86 59t74 39q8 0 14 -8.5t6 -20.5
q0 -21 -26.5 -54.5t-75.5 -72.5q-78 -62 -158.5 -96.5t-144.5 -34.5q-165 0 -262 86.5t-97 233.5q0 130 81 329.5t224 413.5q87 129 160 195.5t127 66.5q32 0 68.5 -14.5t77.5 -42.5z" />
    <glyph glyph-name="afii10019" unicode="&#x412;" horiz-adv-x="948" 
d="M137 98q13 -13 30.5 -18.5t47.5 -5.5q77 0 190.5 58.5t221.5 156.5q40 36 61 69.5t21 63.5q0 49 -55.5 75.5t-157.5 26.5q-59 0 -118.5 -6t-115.5 -18q-37 -96 -68 -195.5t-57 -206.5zM311 641q241 56 385 157.5t144 211.5q0 44 -35.5 63t-122.5 19q-66 0 -122 -7
t-105 -20q-41 -106 -77 -212t-67 -212zM297 1081q0 1 -1 3.5t-1 5.5v24q0 67 62 100t186 33q101 0 182.5 -28.5t130.5 -79.5q50 -52 80.5 -108.5t30.5 -96.5q0 -77 -101 -160.5t-280 -152.5q107 -8 179.5 -75.5t72.5 -156.5q0 -53 -31.5 -106t-91.5 -103
q-120 -99 -262.5 -155t-274.5 -56q-77 0 -123.5 36t-46.5 87q0 69 81.5 357.5t207.5 631.5z" />
    <glyph glyph-name="afii10045" unicode="&#x42b;" horiz-adv-x="1204" 
d="M311 641q31 106 67 212q27 79 56 158q-6 11 -5 23t11 22q0 1 2.5 3.5l5 5t4 3.5t1.5 0l12 24q10 18 19.5 36t17.5 36q11 23 14 42t6 41q-109 -3 -165 -33q-62 -33 -62 -100v-24q0 -3 1 -5.5t1 -3.5q-126 -343 -207.5 -631.5t-81.5 -357.5q0 -51 46.5 -87t123.5 -36
q132 0 274.5 56t262.5 155q60 50 91.5 103t31.5 106q0 89 -73 156q-56 52 -133 69q3 -3 -10 2.5t-49 18.5q0 2 -1 4q-155 26 -261 2zM137 98q26 107 57 206.5t68 195.5q56 12 115.5 18t118.5 6q102 0 157.5 -26.5t55.5 -75.5q0 -30 -21 -63.5t-61 -69.5
q-108 -98 -221.5 -156.5t-190.5 -58.5q-30 0 -78 24zM447 1059l-2 -4zM526 1245v2h-1q0 -2 0.5 -3t0.5 1zM969 57v-16v-3q2 -11 2 -20q0 -16 -13.5 -25t-37.5 -9q-52 0 -77.5 17t-25.5 52q0 44 70 287t186 598q5 15 15 46q92 292 178 292q20 0 50 -24t30 -46q0 -7 -31 -80
q-205 -492 -346 -1069z" />
    <glyph glyph-name="afii10018" unicode="&#x411;" horiz-adv-x="948" 
d="M311 641q106 24 261 -2q1 -2 1 -4q36 -13 49 -18.5t10 -2.5q77 -17 133 -69q73 -67 73 -156q0 -53 -31.5 -106t-91.5 -103q-120 -99 -262.5 -155t-274.5 -56q-77 0 -123.5 36t-46.5 87q0 69 81.5 357.5t207.5 631.5q0 1 -1 3.5t-1 5.5v24q0 32 14 56q19 57 41 69
q26 14 160 14q67 0 220.5 -17.5t236.5 -23.5q17 -1 25.5 -7t8.5 -17q0 -53 -247 -71q-173 -12 -290 -26l-11 -23q0 1 -1.5 0t-4 -3.5l-5 -5t-2.5 -3.5q-10 -10 -11 -22t5 -23q-29 -79 -56 -158q-36 -106 -67 -212zM137 98q48 -24 78 -24q77 0 190.5 58.5t221.5 156.5
q40 36 61 69.5t21 63.5q0 49 -55.5 75.5t-157.5 26.5q-59 0 -118.5 -6t-115.5 -18q-37 -96 -68 -195.5t-57 -206.5z" />
    <glyph glyph-name="afii10032" unicode="&#x41e;" horiz-adv-x="1102" 
d="M176 317q0 -118 57 -183.5t160 -65.5q100 0 197.5 68t175.5 192q78 125 126 287.5t48 299.5q0 112 -41.5 170t-122.5 58q-73 0 -148.5 -45.5t-154.5 -136.5q-141 -165 -219 -334t-78 -310zM827 1219q118 -17 179 -102.5t61 -233.5q0 -115 -35 -255.5t-96 -265.5
q-91 -184 -228.5 -294.5t-271.5 -110.5q-75 0 -164.5 34t-134.5 79q-50 45 -76 116.5t-26 163.5q0 132 55 280t160 294q114 160 240 260t204 100q33 0 63 -14.5t70 -50.5z" />
    <glyph glyph-name="afii10034" unicode="&#x420;" horiz-adv-x="862" 
d="M301 571q203 31 354.5 161.5t151.5 256.5q0 61 -68 100t-176 39q-26 0 -49.5 -3.5t-44.5 -10.5q-52 -144 -94 -281t-74 -262zM268 451q-34 -127 -58.5 -226.5t-39.5 -175.5q-6 -42 -21 -59t-47 -17q-34 0 -62 15.5t-28 34.5q0 60 87 393t223 776v12q0 43 30 60.5
t103 17.5q217 0 348 -86t131 -227q0 -175 -186.5 -322t-479.5 -196z" />
    <glyph glyph-name="afii10047" unicode="&#x42d;" horiz-adv-x="822" 
d="M306 685q37 14 118.5 22t184.5 8q76 0 111 -13q52 150 52 274q0 101 -49 157t-135 56q-55 0 -117 -21t-135 -65q-33 -20 -86 -59t-74 -39q-8 0 -14 8.5t-6 20.5q0 21 26.5 54.5t75.5 72.5q78 62 158.5 96.5t144.5 34.5q165 0 262 -86.5t97 -233.5q0 -130 -81 -329.5
t-224 -413.5q-87 -129 -160 -195.5t-127 -66.5q-32 0 -68.5 14.5t-77.5 42.5q-78 22 -124 68t-46 100q0 39 24 67.5t54 28.5q25 0 38 -20t22 -85q3 -24 28 -41.5t60 -17.5q63 0 137.5 56t155.5 164q85 112 144 242q-72 -7 -141 -12q-96 -6 -144 -6q-59 0 -71.5 17t-12.5 100
z" />
    <glyph glyph-name="afii10033" unicode="&#x41f;" horiz-adv-x="1004" 
d="M968 1302q10 -3 16 -8q7 2 13 2q20 0 50 -24t30 -46q0 -7 -31 -80q-205 -492 -346 -1069v-19q2 -11 2 -20q0 -16 -13.5 -25t-37.5 -9q-52 0 -77.5 17t-25.5 52q0 44 70 287t186 598q5 15 15 46q38 120 74 190l-368 -16q-8 -20 -21 -52q-205 -492 -346 -1069v-19
q2 -11 2 -20q0 -16 -13.5 -25t-37.5 -9q-52 0 -77.5 17t-25.5 52q0 44 70 287t186 598q5 15 15 46q92 292 178 292l157 2q12 3 22 9t22 7q10 1 19.5 0.5t19.5 -1.5l14 2q28 4 55.5 3.5t56.5 -2.5z" />
    <glyph glyph-name="afii10026" unicode="&#x418;" horiz-adv-x="1022" 
d="M220 278l89 135q36 55 66 95.5t58.5 78.5t58.5 79t65 97q47 74 95 153.5t99 158t106.5 152t117.5 136.5l26 -26q26 33 46 33q36 0 68 -20t32 -37q0 -19 -25 -41.5t-32 -31.5q-28 -42 -59 -119.5t-77 -223.5q-54 -172 -100.5 -350.5t-85.5 -362.5q-17 -84 -31.5 -103.5
t-44.5 -19.5q-35 0 -59.5 24t-24.5 60q0 30 27 134l20 75l69 258q118 398 201 587q-42 -63 -79.5 -129t-75.5 -129q-53 -86 -98.5 -156.5t-89.5 -137.5t-90 -137.5t-98 -157.5q-27 -45 -54 -90.5t-56 -90.5q-18 -29 -37 -57t-39 -57q-8 -12 -14.5 -24.5t-17.5 -22.5
q-11 -8 -21.5 -11.5t-24.5 -5.5q-31 5 -46.5 22t-16.5 37l-4 3q-21 16 -21 43q0 49 59 297t238 754l12 39q44 138 112 138q42 0 74.5 -19.5t32.5 -45.5q0 -16 -26 -44t-40 -54q-30 -59 -186 -497z" />
    <glyph glyph-name="afii10025" unicode="&#x417;" horiz-adv-x="948" 
d="M157 1075q0 1 -1 3.5t-1 5.5v24q0 67 62 100t186 33q241 6 322.5 -22.5t130.5 -79.5q50 -52 80.5 -108.5t30.5 -96.5q0 -77 -101 -160.5t-280 -152.5q107 -8 179.5 -75.5t72.5 -156.5q0 -53 -31.5 -106t-91.5 -103q-120 -99 -262.5 -155t-274.5 -56q-77 0 -123.5 36
t-46.5 87q0 24 129 6q13 -13 30.5 -18.5t47.5 -5.5q77 0 190.5 58.5t221.5 156.5q40 36 61 69.5t21 63.5q0 49 -55.5 75.5t-157.5 26.5q-59 0 -119 -6q-56 -6 -109 -17q6 4 13 8.5t8 12.5q3 37 10 56t15.5 30.5t17.5 19t15 21.5q216 55 349 149q144 102 144 212
q0 44 -35.5 63t-122.5 19q-66 0 -192 -10t-175 -23l-8 -20q-65 -14 -106.5 -3t-43.5 39z" />
    <glyph glyph-name="afii10071" unicode="&#x451;" horiz-adv-x="408" 
d="M117 291q33 0 65.5 73t32.5 144q0 12 -7.5 21.5t-17.5 9.5q-28 0 -70 -71.5t-42 -115.5q0 -28 10.5 -44.5t28.5 -16.5zM45 256q-7 -26 -10.5 -52.5t-3.5 -56.5q0 -57 15.5 -86.5t45.5 -29.5q56 0 132.5 70t133.5 177q5 9 14 27q20 41 31 41t21 -11.5t10 -27.5
q0 -20 -24 -66t-64 -98q-74 -95 -138.5 -136.5t-137.5 -41.5q-77 0 -115.5 44.5t-38.5 133.5q0 94 44.5 225t113.5 232q22 32 47.5 49t50.5 17q13 0 26 -5t30 -16q14 -4 36 -10q60 -16 60 -72q0 -126 -71 -231t-147 -105q-16 0 -31.5 7.5t-29.5 21.5zM383 903
q25 0 39.5 -14.5t14.5 -40.5q0 -42 -29 -74.5t-66 -32.5q-20 0 -34.5 16t-14.5 40q0 41 28 73.5t62 32.5zM162 903q25 0 38 -14.5t13 -40.5q0 -42 -27.5 -74.5t-64.5 -32.5q-21 0 -35 16t-14 40q0 41 28 73.5t62 32.5z" />
    <glyph glyph-name="afii10092" unicode="&#x44a;" horiz-adv-x="652" 
d="M293 -18q-53 0 -84.5 45t-31.5 123q0 91 33 231q17 74 33 121q-32 3 -64 10.5t-60 23.5q-2 -17 -5.5 -32.5t-9.5 -27.5t-15.5 -22t-19.5 -20t-18 -20.5t-12 -23.5l-59 8q2 29 14.5 51.5t26.5 45.5q0 2 2.5 9t2.5 11l3 36q3 25 9 49t9 49q17 28 41 28.5t43 -24.5l3 -6
l7.5 -7.5t9.5 -8.5q11 -8 23 -14.5t20 -10t10.5 -3t-4.5 8.5q-2 2 -6 2.5t-8 0.5h-6.5t-2.5 3q2 6 10 2t13 -5l23 -2h15t22 1q20 17 44 13.5t38 -24.5q13 2 26 2q18 0 28.5 -8.5t10.5 -24.5q0 -6 -14 -42l-20 -86l-13 -37q-85 -232 -85 -292q0 -23 8.5 -34t26.5 -11
q26 0 75 50q42 43 83 108q-31 5 -54 20t-31 47q-5 20 6.5 37.5t30 28.5t40 14t37.5 -5q23 -11 32.5 -26.5t14.5 -35.5q3 -2 5 -5q9 -8 12 -18q17 2 32 5t28 8q22 9 42.5 22.5t41.5 24.5q-1 -1 -1 -3l35 -17q-5 -12 -19 -21.5t-27 -17.5q5 2 3.5 0t-6.5 -5.5t-11.5 -8.5
t-11.5 -9q-14 -12 -31.5 -18.5t-35.5 -10.5q-14 -3 -30.5 -5t-33.5 -4q-4 -7 -9 -15q-17 -29 -27 -46q-58 -99 -106 -140.5t-101 -41.5zM138 639q1 -1 3 -3.5t1 -0.5z" />
    <glyph glyph-name="afii10095" unicode="&#x44d;" horiz-adv-x="539" 
d="M215 335q-31 4 -46.5 21t-16 36.5t13 37t41.5 22.5h1l2 1h6q20 13 43 16t43 6l56 10v11q0 47 -16 70.5t-49 23.5q-53 0 -110.5 -40.5t-125.5 -125.5q-32 -40 -60 -89.5t-34 -49.5q-9 0 -23 10t-14 21q0 16 18 54.5t48 82.5q61 92 136.5 141t153.5 49q84 0 133 -49
q38 -37 47 -94q53 6 99 2t63 -27l-34 -29q6 -3 5.5 -6.5t-17.5 -5.5l-1 -1q-11 -4 -22 -5t-22 -3l-71 -14q-11 -93 -59 -206q-61 -146 -141 -225q-21 -20 -44 -28.5t-54 -8.5q-22 0 -41.5 7t-41.5 22q-33 6 -52 34t-19 72q0 69 36 143t75 74q22 0 39.5 -16.5t17.5 -36.5
q0 -31 -23 -98.5t-30 -101.5l8 -1q14 0 29.5 10t29.5 29q71 91 118 214q17 44 28 82l-56 -16q-13 -13 -31 -18t-36 -7z" />
    <glyph glyph-name="afii10096" unicode="&#x44e;" horiz-adv-x="731" 
d="M482 514l4 1q19 3 32 3q43 0 70 -44t28 -117q53 16 97 71t57 55q15 0 24 -7.5t9 -20.5q0 -16 -9 -32t-28 -36q-37 -54 -78 -85.5t-86 -39.5q-44 -156 -114 -237.5t-161 -81.5q-68 0 -108.5 44.5t-40.5 121.5q0 67 33 161l6 16q-32 -6 -65 -13q-41 -9 -76 -21l-41 -129
l11 22l29 -92q-47 -71 -75 -71q-38 0 -62 23.5t-24 64.5q0 42 23 142q-8 9 -8.5 22.5t7.5 28.5q9 9 18 14q30 117 75 223q17 41 32.5 54t42.5 13q23 0 42.5 -13.5t19.5 -31.5q0 -4 -13 -31l-53 -163q38 7 76 11q33 4 65 6l16 34q5 18 11 39l7 -6q11 20 24 39
q31 49 61.5 73.5t61.5 24.5q20 0 35.5 -9t24.5 -26zM297 98q0 -32 10.5 -47.5t32.5 -15.5q53 0 114.5 117t61.5 225q0 27 -10 42t-27 15q-50 0 -116 -116l-4 -7v-1h-1q-61 -111 -61 -212z" />
    <glyph glyph-name="afii10028" unicode="&#x41a;" horiz-adv-x="862" 
d="M319 657q100 106 246.5 238.5t388.5 333.5q31 26 53 37.5t40 11.5q17 0 25.5 -10t8.5 -29q0 -16 -10.5 -29.5t-28.5 -19.5q-86 -73 -222 -201.5t-437 -423.5q159 -157 260.5 -305t101.5 -209q0 -34 -33 -64t-65 -30q-11 0 -18.5 6t-7.5 14q0 5 6 15t6 16q0 35 -328 421
q-28 33 -43 50q-45 -159 -86 -316.5t-43 -162.5q-8 -20 -31 -31.5t-53 -11.5q-24 0 -38.5 14.5t-14.5 38.5q0 40 80 327.5t221 754.5q0 7 -2 17v3q0 59 30 95t76 36q32 0 58 -16.5t26 -40.5q0 -19 -60 -200t-106 -329z" />
    <glyph glyph-name="afii10031" unicode="&#x41d;" horiz-adv-x="1022" 
d="M229 368q-40 -128 -73 -291q-29 -143 -76 -143q-37 0 -58.5 16.5t-21.5 43.5q0 49 80 349t199 649l12 39q44 138 112 138q42 0 74.5 -19.5t32.5 -45.5q0 -16 -26 -44t-40 -54q-30 -59 -78 -199.5t-93 -310.5q15 -1 30 -1.5t35 -0.5q58 0 153 5t203 15l30 98
q226 758 323 758q36 0 68 -20t32 -37q0 -19 -25 -41.5t-32 -31.5q-28 -42 -59 -119.5t-77 -223.5q-54 -172 -100.5 -350.5t-85.5 -362.5q-17 -84 -31.5 -103.5t-44.5 -19.5q-35 0 -59.5 24t-24.5 60q0 30 27 134q20 75 30 120q-179 -7 -277.5 -14t-158.5 -17z" />
    <glyph glyph-name="afii10030" unicode="&#x41c;" horiz-adv-x="1190" 
d="M485 1120q-178 -372 -317 -762.5t-162 -390.5q-29 0 -53.5 21.5t-24.5 44.5q0 44 99.5 294t259.5 603q21 47 52 121q72 172 159 172q56 0 89.5 -12t33.5 -31q0 -4 -11 -35q-115 -348 -145 -838q215 426 383.5 686t224.5 260q76 0 128 -17.5t52 -41.5q0 -6 -4.5 -14
t-13.5 -17q-99 -209 -180 -457.5t-133 -504.5q-7 -33 -16 -87q-19 -116 -60 -116q-29 0 -45.5 21t-16.5 59q0 139 81 426.5t222 644.5q-99 -118 -218.5 -311.5t-268.5 -477.5q-14 -25 -35 -69q-61 -119 -108 -119q-45 0 -76 22t-31 58q0 153 35.5 381.5t99.5 486.5z" />
    <glyph glyph-name="afii10020" unicode="&#x413;" horiz-adv-x="807" 
d="M225 265q-65 -283 -67 -289q-7 -17 -27.5 -25t-52.5 -8q-36 0 -55 14.5t-19 42.5q0 27 25.5 134t74.5 286q74 269 139 479t91 268q12 26 81 35.5t351 9.5q145 0 183 -15.5t38 -57.5q0 -18 -12.5 -27.5t-34.5 -9.5q-7 0 -28.5 2t-34.5 2q-39 0 -256 -30q-104 -15 -166 -23
q-57 -176 -93.5 -303t-136.5 -485z" />
    <glyph glyph-name="afii10040" unicode="&#x426;" horiz-adv-x="1020" 
d="M630 247q-76 -127 -165.5 -204.5t-157.5 -77.5q-102 0 -167.5 71.5t-65.5 192.5q0 114 66 347.5t175 479.5q5 11 12 27q66 150 134 150q34 0 63 -20t29 -48q0 -15 -8 -27t-25 -22q-144 -314 -221.5 -562.5t-77.5 -395.5q0 -49 16 -78t42 -29q30 0 77.5 34.5t104.5 98.5
q73 83 124 164t72 148q100 301 161.5 480.5t84.5 237.5q15 38 34 52t52 14q60 0 94.5 -19.5t34.5 -52.5q0 -20 -7.5 -32.5t-27.5 -22.5q-150 -322 -241.5 -611.5t-91.5 -404.5v-3q4 -31 13 -74t15.5 -86t8 -79.5t-9.5 -55.5q-14 -23 -38.5 -35.5t-55 -19t-64.5 -7.5
t-66.5 -1t-61 0.5t-47.5 -1.5t-37.5 -15t-32.5 -23q-4 -3 -10.5 -7.5t-13 -10t-12.5 -12t-9 -12.5q9 -5 19 -5.5t20 -2.5q0 -14 -0.5 -29t-1.5 -30q-14 1 -28.5 0t-28.5 3q-35 11 -47 29t-8.5 39.5t19.5 44t36.5 43t42 36.5t36.5 25q28 16 69.5 16.5t85 -1t82 2t60.5 24.5v4
q-2 9 -3.5 18t-3.5 17q-2 11 -5 21.5t-6 21.5q-6 21 -11 41.5t-10 41.5q-21 46 -21 123q0 15 1.5 32.5t3.5 36.5zM691 -99q0 -1 -0.5 -2t-0.5 -2q1 2 1 4v0z" />
    <glyph glyph-name="afii10037" unicode="&#x423;" horiz-adv-x="807" 
d="M414 635q204 315 358.5 506.5t200.5 191.5q22 0 36.5 -18t14.5 -41q0 -11 -122 -162t-224 -289q-15 -19 -45 -58q-134 -172 -228 -344.5t-159 -309.5q-34 -143 -79 -143q-36 0 -62 27.5t-26 67.5q0 39 46.5 149t181.5 325q-50 212 -78 376.5t-28 247.5q0 39 20 59.5
t60 20.5q72 0 95 -268q18 -201 38 -338z" />
    <glyph glyph-name="afii10036" unicode="&#x422;" horiz-adv-x="868" 
d="M491 1073q-79 -5 -162.5 -12.5t-88.5 -7.5q-29 0 -46.5 23t-17.5 61q0 32 185 59t448 27q132 0 183.5 -16.5t51.5 -57.5q0 -11 -6 -33q-1 -4 -2 -6q-116 -5 -207 -11t-159 -14q-113 -329 -202.5 -608t-131.5 -428q-19 -67 -35 -85.5t-47 -18.5q-32 0 -52 18t-20 47
q0 44 85 336.5t224 726.5z" />
    <glyph glyph-name="afii10027" unicode="&#x419;" horiz-adv-x="1022" 
d="M682 1559q25 1 42 -8t24.5 -23.5t6 -31.5t-13.5 -31q2 -7 5 -11.5t13 -7.5q28 -10 48.5 2.5t30.5 36.5l57 -18q-3 -49 -31.5 -77t-67 -35t-79.5 6.5t-68 47.5q-14 18 -20 42t-2.5 46.5t17 39.5t38.5 22zM220 278l89 135q36 55 66 95.5t58.5 78.5t58.5 79t65 97
q47 74 95 153.5t99 158t106.5 152t117.5 136.5l26 -26q26 33 46 33q36 0 68 -20t32 -37q0 -19 -25 -41.5t-32 -31.5q-28 -42 -59 -119.5t-77 -223.5q-54 -172 -100.5 -350.5t-85.5 -362.5q-17 -84 -31.5 -103.5t-44.5 -19.5q-35 0 -59.5 24t-24.5 60q0 30 27 134l20 75
l69 258q118 398 201 587q-42 -63 -79.5 -129t-75.5 -129q-53 -86 -98.5 -156.5t-89.5 -137.5t-90 -137.5t-98 -157.5q-27 -45 -54 -90.5t-56 -90.5q-18 -29 -37 -57t-39 -57q-8 -12 -14.5 -24.5t-17.5 -22.5q-11 -8 -21.5 -11.5t-24.5 -5.5q-31 5 -46.5 22t-16.5 37l-4 3
q-21 16 -21 43q0 49 59 297t238 754l12 39q44 138 112 138q42 0 74.5 -19.5t32.5 -45.5q0 -16 -26 -44t-40 -54q-30 -59 -186 -497z" />
    <glyph glyph-name="afii10029" unicode="&#x41b;" horiz-adv-x="982" 
d="M787 1149q-164 -341 -330.5 -626.5t-304.5 -464.5q-7 -10 -20 -27q-47 -64 -95 -64q-28 0 -41.5 5t-13.5 16q0 30 56 101q38 49 59 81q118 178 284 468.5t341 627.5q22 17 62.5 29t80.5 12q49 0 66.5 -41t17.5 -193v-100q0 -185 -22 -385t-72 -459q-8 -36 -24 -53.5
t-40 -17.5q-25 0 -70 28t-45 53q0 16 20 91q97 380 97 743q0 46 -1.5 89.5t-4.5 86.5z" />
    <glyph glyph-name="afii10039" unicode="&#x425;" horiz-adv-x="844" 
d="M326 547q-53 181 -86 331.5t-33 194.5q0 31 18 50.5t47 19.5q3 0 8.5 -1t8.5 -1q2 1 7 2q17 6 21 6q52 0 63 -10t15 -49q10 -95 25 -191.5t37 -196.5q72 87 187 231q249 312 351 312q15 0 28 -13.5t13 -27.5q0 -10 -10 -21.5t-29 -21.5q-144 -163 -267 -314.5
t-238 -307.5q60 -245 105.5 -360t92.5 -146q-9 -24 -28.5 -36.5t-45.5 -12.5q-66 0 -123 95t-128 329q-111 -142 -225.5 -318t-141.5 -176q-29 0 -47.5 20t-18.5 52q0 54 351 506z" />
    <glyph glyph-name="afii10046" unicode="&#x42c;" horiz-adv-x="881" 
d="M311 641q106 24 261 -2q1 -2 1 -4q36 -13 49 -18.5t10 -2.5q77 -17 133 -69q73 -67 73 -156q0 -53 -31.5 -106t-91.5 -103q-120 -99 -262.5 -155t-274.5 -56q-77 0 -123.5 36t-46.5 87q0 69 81.5 357.5t207.5 631.5q0 1 -1 3.5t-1 5.5v24q0 67 62 100q56 30 165 33
q-3 -22 -6 -41t-14 -42q-8 -18 -17.5 -36t-19.5 -36l-12 -24q0 1 -1.5 0t-4 -3.5l-5 -5t-2.5 -3.5q-10 -10 -11 -22t5 -23q-29 -79 -56 -158q-36 -106 -67 -212zM137 98q48 -24 78 -24q77 0 190.5 58.5t221.5 156.5q40 36 61 69.5t21 63.5q0 49 -55.5 75.5t-157.5 26.5
q-59 0 -118.5 -6t-115.5 -18q-37 -96 -68 -195.5t-57 -206.5zM447 1059l-2 -4zM526 1245q0 -2 -0.5 -1t-0.5 3h1v-2z" />
    <glyph glyph-name="afii10101" unicode="&#x454;" horiz-adv-x="451" 
d="M-103 271q-16 9 -22 22t-3.5 25.5t13.5 21.5t29 9q31 -6 55 -16q9 23 19 48q61 146 141 225q21 20 44 28.5t54 8.5q22 0 41.5 -7t41.5 -22q33 -6 52 -34t19 -72q0 -69 -36 -143t-75 -74q-22 0 -39.5 16.5t-17.5 36.5q0 31 23 98.5t30 101.5l-8 1q-14 0 -29.5 -10
t-29.5 -29q-71 -91 -119 -215q-3 -8 -6 -15q29 -17 58.5 -32.5t64.5 -23.5q0 -10 -0.5 -19.5t-1.5 -19.5q-25 0 -43.5 0.5t-43.5 8.5q-16 5 -29 11t-25 13q-21 -72 -21 -124q0 -47 16 -70.5t49 -23.5q53 0 110.5 40.5t125.5 125.5q32 40 60 89.5t34 49.5q9 0 23 -10t14 -21
q0 -16 -18 -54.5t-48 -82.5q-61 -92 -136.5 -141t-153.5 -49q-84 0 -133.5 48.5t-49.5 131.5q0 64 21 141q-11 2 -23.5 4t-26.5 3z" />
    <glyph glyph-name="afii10053" unicode="&#x404;" horiz-adv-x="901" 
d="M750 1235q170 -114 170 -168q0 -39 -24 -67.5t-54 -28.5q-25 0 -38 20t-22 85q-3 24 -28 41.5t-60 17.5q-63 0 -137.5 -56t-155.5 -164q-86 -114 -145 -245h3q38 2 81.5 5t87 2.5t85 -5.5t75.5 -19q5 -1 14 -1q13 -3 19.5 -11.5t6 -18t-7 -18t-19.5 -11.5h-2
q-38 -5 -80 -5.5t-85 0.5t-85.5 3.5t-80.5 4.5l-44 -3q-64 -172 -64 -310q0 -101 49 -157t135 -56q55 0 117 21t135 65q33 20 86 59t74 39q8 0 14 -8.5t6 -20.5q0 -21 -26.5 -54.5t-75.5 -72.5q-78 -62 -158.5 -96.5t-144.5 -34.5q-165 0 -262 86.5t-97 233.5
q0 130 81 329.5t224 413.5q87 129 160 195.5t127 66.5q32 0 68.5 -14.5t77.5 -42.5z" />
    <glyph glyph-name="afii10038" unicode="&#x424;" horiz-adv-x="1266" 
d="M595 149q-11 -47 -21 -100q-6 -42 -21 -59t-47 -17q-25 0 -46 8q-46 1 -79 18q-35 18 -35 41q0 14 37.5 60t52.5 100q-8 0 -18 1t-12 1q-161 0 -279.5 90t-118.5 217q0 176 182 319q181 142 483 198q10 30 18 60q5 18 9 35q11 48 21 101q6 42 21 59t47 17q24 0 45 -8
q47 -1 80 -18q35 -18 35 -41q0 -14 -37.5 -60t-52.5 -100q8 0 18 -1t12 -1q161 0 279.5 -90t118.5 -217q0 -176 -182 -319q-181 -143 -484 -199q-8 -28 -17 -57zM1004 523q154 130 154 257q0 61 -67.5 100.5t-176.5 39.5q-30 0 -59 -4q-26 -4 -49 -10q-7 -27 -15 -57
q-57 -225 -134 -483q197 30 347 157zM503 421q58 225 134 483q-197 -30 -346 -156q-154 -130 -154 -257q0 -61 67.5 -100.5t176.5 -39.5q30 0 59 4q26 3 49 9q7 27 14 57z" />
    <glyph glyph-name="afii10041" unicode="&#x427;" horiz-adv-x="1022" 
d="M279 992l12 39q44 138 112 138q42 0 74.5 -19.5t32.5 -45.5q0 -16 -26 -44t-40 -54q-30 -59 -78 -199.5t-64 -140.5q15 -1 30 -1.5t35 -0.5q58 0 153 5t203 15l30 98q197 588 294 588q36 0 68 -20t32 -37q0 -19 -25 -41.5t-32 -31.5q-28 -42 -59 -119.5t-77 -223.5
q-54 -172 -100.5 -350.5t-85.5 -362.5q-17 -84 -31.5 -103.5t-44.5 -19.5q-35 0 -59.5 24t-24.5 60q0 30 27 134q49 245 59 290q-179 -7 -385 -12t-30 435z" />
    <glyph glyph-name="afii10042" unicode="&#x428;" horiz-adv-x="1626" 
d="M1175 260q-76 -127 -165.5 -204.5t-157.5 -77.5q-70 0 -123 33q-11 -5 -22 -5q-38 0 -60 46q-22 45 -22 121q-5 27 -6 56q-72 -115 -155 -187q-89 -77 -157 -77q-102 0 -167.5 71.5t-65.5 192.5q0 114 66 347.5t175 479.5q5 11 12 27q66 150 134 150q34 0 63 -20t29 -48
q0 -15 -8 -27t-25 -22q-144 -314 -221.5 -562.5t-77.5 -395.5q0 -49 16 -78t42 -29q30 0 77.5 34.5t104.5 98.5q73 83 124 164t72 148q6 20 13 39q7 26 15 54q50 178 125 362q4 13 8 25q62 180 85 238q15 38 34 52t52 14q60 0 94.5 -19.5t34.5 -52.5q0 -20 -8 -33
q-5 -8 -16 -16l-4 -8q-6 -8 -15 -16q-145 -312 -234 -594q-31 -100 -52 -179q-23 -111 -23 -191q0 -49 16 -78t42 -29q30 0 77.5 34.5t104.5 98.5q73 83 124 164t72 148q100 301 161.5 480.5t84.5 237.5q15 38 34 52t52 14q60 0 94.5 -19.5t34.5 -52.5q0 -20 -7.5 -32.5
t-27.5 -22.5q-150 -322 -241.5 -611.5t-91.5 -404.5q0 -40 8 -79q2 -9 2 -11q0 -12 -17.5 -26.5t-35.5 -14.5q-38 0 -60 46.5t-22 125.5q0 15 1.5 32.5t3.5 36.5z" />
    <glyph glyph-name="afii10043" unicode="&#x429;" horiz-adv-x="1626" 
d="M1175 260q-255 -282 -323 -282q-70 0 -123 33q-11 -5 -22 -5q-38 0 -60 46q-22 45 -22 121q-5 27 -6 56q-72 -115 -155 -187q-89 -77 -157 -77q-102 0 -167.5 71.5t-65.5 192.5q0 114 66 347.5t175 479.5q5 11 12 27q66 150 134 150q34 0 63 -20t29 -48q0 -15 -8 -27
t-25 -22q-144 -314 -221.5 -562.5t-77.5 -395.5q0 -49 16 -78t42 -29q30 0 77.5 34.5t104.5 98.5q73 83 124 164t72 148q6 20 13 39q7 26 15 54q50 178 125 362q4 13 8 25q62 180 85 238q15 38 34 52t52 14q60 0 94.5 -19.5t34.5 -52.5q0 -20 -8 -33q-5 -8 -16 -16l-4 -8
q-6 -8 -15 -16q-145 -312 -234 -594q-31 -100 -52 -179q-23 -111 -23 -191q0 -49 16 -78t42 -29q30 0 77.5 34.5t104.5 98.5q73 83 124 164t72 148q100 301 161.5 480.5t84.5 237.5q15 38 34 52t52 14q60 0 94.5 -19.5t34.5 -52.5q0 -20 -7.5 -32.5t-27.5 -22.5
q-150 -322 -241.5 -611.5t-91.5 -404.5q0 -16 1 -33l1 -1q10 -25 36 -39.5t52.5 -29.5t44 -35t10.5 -56q-3 -17 -13.5 -32t-24.5 -28t-29 -24t-27 -20q-37 -26 -76 -42t-80.5 -24.5t-84 -11t-86.5 -2.5q-10 0 -35.5 3t-53.5 5.5t-51.5 3t-28.5 -4.5q-7 -7 -9 -15t-2 -18
q2 -22 13.5 -32.5t27.5 -14.5t34 -3.5t34 -0.5q0 -10 -0.5 -19.5t-1.5 -19.5q-32 -1 -60.5 -2.5t-56.5 16.5q-17 11 -27.5 32.5t-13.5 45t4 45t27 33.5q16 10 37 13t43 2.5t43.5 -4t39.5 -4.5q43 -3 86 -2t84 9t80 24t74 43q14 10 23 16.5t15.5 12.5t11.5 13t11 19
q1 3 -10 10.5t-25.5 15t-27.5 13t-14 6.5q-11 5 -19 10q-9 -4 -19 -4q-38 0 -60 46.5t-22 125.5q0 15 1.5 32.5t3.5 36.5z" />
    <glyph glyph-name="afii10024" unicode="&#x416;" horiz-adv-x="1356" 
d="M634 578q-100 -106 -246.5 -238.5t-388.5 -333.5q-31 -26 -53 -37.5t-40 -11.5q-17 0 -25.5 10t-8.5 29q0 16 10.5 29.5t28.5 19.5q86 73 222 201.5t437 423.5q-159 157 -260.5 305t-101.5 209q0 34 33 64t65 30q11 0 18.5 -6t7.5 -14q0 -5 -6 -15t-6 -16q0 -35 328 -421
q27 -33 42 -50l12 38l2 8l3 11l2 7q35 126 68 252q7 26 12 48q1 42 18 71q12 41 13 44q8 20 31 31.5t53 11.5q24 0 38.5 -14.5t14.5 -38.5v-1q22 -16 22 -38q0 -19 -60 -200t-106 -329q100 106 246.5 238.5t388.5 333.5q31 26 53 37.5t40 11.5q17 0 25.5 -10t8.5 -29
q0 -16 -10.5 -29.5t-28.5 -19.5q-86 -73 -222 -201.5t-437 -423.5q159 -157 260.5 -305t101.5 -209q0 -34 -33 -64t-65 -30q-11 0 -18.5 6t-7.5 14q0 5 6 15t6 16q0 35 -328 421q-28 32 -43 49l-9 -31l-2 -7q-39 -140 -75 -278q-7 -25 -12 -45v-1q-2 -43 -20 -73
q-10 -41 -11 -43q-8 -20 -31 -31.5t-53 -11.5q-24 0 -38.5 14.5t-14.5 38.5v1q-22 16 -22 38q0 19 60 200t106 329z" />
    <glyph glyph-name="afii10048" unicode="&#x42e;" horiz-adv-x="1397" 
d="M1233 1219q118 -17 179 -102.5t61 -233.5q0 -115 -35 -255.5t-96 -265.5q-91 -184 -228.5 -294.5t-271.5 -110.5q-75 0 -164.5 34t-134.5 79q-50 45 -76 116.5t-26 163.5q0 19 1 38q-30 -1 -55 -3q-98 -7 -158 -17q-40 -128 -73 -291q-29 -143 -76 -143q-37 0 -58.5 16.5
t-21.5 43.5q0 49 80 349t199 649l12 39q44 138 112 138q42 0 74.5 -19.5t32.5 -45.5q0 -16 -26 -44t-40 -54q-30 -59 -78 -199.5t-93 -310.5q15 -1 30 -1.5t35 -0.5q47 0 119 3q13 65 39 133q55 148 160 294q114 160 240 260t204 100q33 0 63 -14.5t70 -50.5zM582 317
q0 -118 57 -183.5t160 -65.5q100 0 197.5 68t175.5 192q78 125 126 287.5t48 299.5q0 112 -41.5 170t-122.5 58q-73 0 -148.5 -45.5t-154.5 -136.5q-141 -165 -219 -334q-29 -62 -47 -120q40 3 81 7q113 -146 37 -153t-66 38q-41 -2 -77 -3q-6 -41 -6 -79z" />
    <glyph glyph-name="afii10044" unicode="&#x42a;" horiz-adv-x="950" 
d="M380 641q106 24 261 -2q1 -2 1 -4q36 -13 49 -18.5t10 -2.5q77 -17 133 -69q73 -67 73 -156q0 -53 -31.5 -106t-91.5 -103q-120 -99 -262.5 -155t-274.5 -56q-77 0 -123.5 36t-46.5 87q0 69 81.5 357.5t207.5 631.5q0 1 -1 3.5t-1 5.5v24v10q-47 3 -76.5 29t-39.5 84
l-6 37q-2 -8 -3 -14.5t-3 -11.5q-11 -43 -20.5 -89.5t-31.5 -86.5q-5 -10 -15.5 -20t-22 -19.5t-20.5 -18t-11 -15.5q-9 3 -18.5 5.5t-19.5 5.5q4 15 13.5 27t20 23t20.5 23.5t15 27.5q9 29 15.5 66.5t13.5 75t16.5 71.5t25.5 56q21 19 44 2q20 -26 29 -51t13.5 -47t8 -40
t13 -29.5t28 -15.5t53.5 2q9 7 20 13q56 30 165 33q-3 -22 -6 -41t-14 -42q-8 -18 -17.5 -36t-19.5 -36l-12 -24h-2l-4 -4l-5 -5q-2 -2 -2 -3q-10 -10 -11 -22t5 -23q-29 -79 -56 -158q-36 -106 -67 -212zM206 98q48 -24 78 -24q77 0 190.5 58.5t221.5 156.5q40 36 61 69.5
t21 63.5q0 49 -55.5 75.5t-157.5 26.5q-59 0 -118.5 -6t-115.5 -18q-37 -96 -68 -195.5t-57 -206.5zM594 1244v3h1v-2z" />
    <glyph glyph-name="afii10023" unicode="&#x401;" horiz-adv-x="930" 
d="M256 414q-30 -97 -50 -166t-34 -121q220 28 338.5 40.5t163.5 12.5q50 0 75 -9.5t25 -29.5q0 -41 -97 -54q-13 -2 -20 -3q-129 -21 -310 -68t-228 -47q-40 0 -71.5 32t-31.5 75q0 26 66.5 274.5t218.5 792.5q23 82 49 96t160 14q67 0 220.5 -17.5t236.5 -23.5
q17 -1 25.5 -7t8.5 -17q0 -53 -247 -71q-180 -12 -299 -27q-37 -107 -76.5 -240t-85.5 -301q131 14 229 20t172 6q54 0 78.5 -10.5t24.5 -34.5q0 -28 -11.5 -42.5t-36.5 -16.5q-81 -4 -199 -17.5t-294 -39.5zM854 1567q25 0 39.5 -14.5t14.5 -40.5q0 -42 -29 -74.5
t-66 -32.5q-20 0 -34.5 16t-14.5 40q0 41 28 73.5t62 32.5zM633 1567q25 0 38 -14.5t13 -40.5q0 -42 -27.5 -74.5t-64.5 -32.5q-21 0 -35 16t-14 40q0 41 28 73.5t62 32.5z" />
    <glyph glyph-name="afii10056" unicode="&#x407;" horiz-adv-x="469" 
d="M158 57v-16v-3q2 -11 2 -20q0 -16 -13.5 -25t-37.5 -9q-52 0 -77.5 17t-25.5 52q0 44 70 287t186 598q5 15 15 46q92 292 178 292q20 0 50 -24t30 -46q0 -7 -31 -80q-205 -492 -346 -1069zM624 1567q25 0 39.5 -14.5t14.5 -40.5q0 -42 -29 -74.5t-66 -32.5
q-20 0 -34.5 16t-14.5 40q0 41 28 73.5t62 32.5zM403 1567q25 0 38 -14.5t13 -40.5q0 -42 -27.5 -74.5t-64.5 -32.5q-21 0 -35 16t-14 40q0 41 28 73.5t62 32.5z" />
    <glyph glyph-name="afii10055" unicode="&#x406;" horiz-adv-x="469" 
d="M158 57v-16v-3q2 -11 2 -20q0 -16 -13.5 -25t-37.5 -9q-52 0 -77.5 17t-25.5 52q0 44 70 287t186 598q5 15 15 46q92 292 178 292q20 0 50 -24t30 -46q0 -7 -31 -80q-205 -492 -346 -1069z" />
    <glyph glyph-name="afii10103" unicode="&#x456;" horiz-adv-x="307" 
d="M135 612q-31 0 -50 16t-19 44q0 37 39 61.5t81 24.5q27 0 40.5 -13t13.5 -38q0 -36 -32.5 -65.5t-72.5 -29.5zM57 -18q-53 0 -84.5 45t-31.5 123q0 91 30 208t60 160q12 19 38 30t58 11q18 0 28.5 -8.5t10.5 -24.5q0 -6 -14 -42l-15 -40l-13 -37q-85 -232 -85 -292
q0 -23 8.5 -34t26.5 -11q26 0 75 50t97 130q6 11 17 32q17 33 26 33q12 0 24.5 -11.5t12.5 -27.5q0 -7 -35 -66q-17 -29 -27 -46q-58 -99 -106 -140.5t-101 -41.5z" />
    <glyph glyph-name="afii10098" unicode="&#x491;" horiz-adv-x="514" 
d="M166 722q-8 16 -5 30t12.5 22t24 8.5t29.5 -9.5q5 -8 10 -15t7 -17q6 -38 1.5 -80.5t-12.5 -84.5q63 8 151 3q122 0 -17.5 -187.5t-139.5 -262.5q0 -24 8 -39.5t20 -15.5q81 -6 121.5 42t84.5 138q5 10 13 27q20 45 34 45q13 0 25 -11t12 -24q0 -15 -17 -51t-47 -84
q-63 -102 -105.5 -138t-142.5 -30q-57 0 -89 35.5t-32 97.5t152 262t-73 80q-52 -144 -125.5 -211.5t-103.5 -67.5q-12 0 -19.5 8t-7.5 22q0 4 14 34q136 147 170 287q23 19 62 31q-2 28 -2.5 54t-1.5 46.5t-3 35t-8 20.5z" />
    <glyph glyph-name="afii10050" unicode="&#x490;" horiz-adv-x="807" 
d="M916 1383q4 23 19 32t31 4q12 5 27 3.5t27 -7.5q20 -12 10 -33q-14 -22 -22 -44t-12 -45q0 -24 -1 -45.5t-3 -33.5v-5q0 -24 -17 -31q12 -16 12 -39q0 -18 -12.5 -27.5t-34.5 -9.5q-7 0 -28.5 2t-34.5 2q-39 0 -256 -30q-104 -15 -166 -23q-57 -176 -93.5 -303
t-136.5 -485q-65 -283 -67 -289q-7 -17 -27.5 -25t-52.5 -8q-36 0 -55 14.5t-19 42.5q0 27 25.5 134t74.5 286q74 269 139 479t91 268q12 26 81 35.5t351 9.5q115 0 162 -10q-5 21 -7 44t-3 47t-1 47t-1 43z" />
    <glyph glyph-name="afii10057" unicode="&#x408;" horiz-adv-x="772" 
d="M-66 106q-2 3 -7 8q-44 40 -44 64q0 27 27 53.5t53 26.5q18 0 29.5 -19t19.5 -61q23 -38 74.5 -63t108.5 -25q140 0 295 613q70 281 118 452q13 57 42 85t77 28q33 0 57.5 -16.5t24.5 -34.5q0 -5 -18.5 -50t-32.5 -92q-58 -183 -132 -445.5t-100 -334.5
q-52 -145 -159.5 -236.5t-206.5 -91.5q-66 0 -118 31.5t-108 107.5z" />
    <glyph glyph-name="afii10105" unicode="&#x458;" horiz-adv-x="217" 
d="M-233 -371q45 49 120 383q47 214 81 349q6 25 14 60q33 142 98 142q29 0 44 -10.5t15 -30.5q0 -13 -7 -27t-23 -32q-54 -187 -110.5 -455.5t-90.5 -322.5q-34 -55 -100.5 -96.5t-129.5 -41.5q-93 0 -161 47.5t-68 104.5q0 12 8 21.5t19 9.5q8 0 17.5 -12.5t15.5 -28.5
q42 -34 92.5 -53t99.5 -19q16 0 32.5 3t33.5 9zM203 717q0 -35 -34 -71t-75 -36q-29 0 -45 14.5t-16 39.5q0 35 31 63.5t71 28.5q42 0 55 -8.5t13 -30.5z" />
    <glyph glyph-name="afii10054" unicode="&#x405;" horiz-adv-x="819" 
d="M780 1135q87 -54 115.5 -86.5t28.5 -69.5q0 -19 -24 -36t-46 -17q-24 0 -51 29.5t-49 80.5q-2 4 -4 10q-17 50 -62 50q-53 0 -114 -42t-119 -120q-60 -78 -91.5 -163t-31.5 -167q0 -67 42.5 -144t117.5 -147q16 -15 49 -42q90 -74 90 -130q0 -73 -78.5 -124.5
t-198.5 -51.5q-160 0 -291 100.5t-131 196.5q0 25 20.5 47.5t43.5 22.5q19 0 33 -37q7 -17 12 -27q43 -86 120 -131t181 -45q51 0 82.5 20t42.5 60q-10 41 -47 88t-113 115q-87 76 -114 133.5t-27 136.5q0 102 50 215.5t146 233.5q67 81 126.5 127.5t95.5 46.5q2 0 11 -3.5
t15 -4.5h6q45 0 77.5 -22.5t86.5 -102.5z" />
    <glyph glyph-name="afii10102" unicode="&#x455;" horiz-adv-x="342" 
d="M-63 87q35 -17 71 -30.5t76 -25.5q0 27 -18.5 113t-26.5 147q-15 -46 -40 -96.5t-62 -107.5zM-109 18l-18 -12q-35 -24 -45 -24q-14 0 -19.5 11t-5.5 40q0 4 20 31q176 246 247 569q0 4 1 12t1 10q0 26 12 41t33 15q25 0 62.5 -22.5t37.5 -37.5q0 -1 -7 -10
q-81 -101 -81 -252q0 -75 30.5 -192t30.5 -160q0 -56 -30.5 -95.5t-65.5 -39.5q-33 0 -100.5 51t-102.5 65z" />
    <glyph glyph-name="afii10104" unicode="&#x457;" horiz-adv-x="307" 
d="M57 -18q-53 0 -84.5 45t-31.5 123q0 91 30 208t60 160q12 19 38 30t58 11q18 0 28.5 -8.5t10.5 -24.5q0 -6 -14 -42l-15 -40l-13 -37q-85 -232 -85 -292q0 -23 8.5 -34t26.5 -11q26 0 75 50t97 130q6 11 17 32q17 33 26 33q12 0 24.5 -11.5t12.5 -27.5q0 -7 -35 -66
q-17 -29 -27 -46q-58 -99 -106 -140.5t-101 -41.5zM303 903q25 0 39.5 -14.5t14.5 -40.5q0 -42 -29 -74.5t-66 -32.5q-20 0 -34.5 16t-14.5 40q0 41 28 73.5t62 32.5zM82 903q25 0 38 -14.5t13 -40.5q0 -42 -27.5 -74.5t-64.5 -32.5q-21 0 -35 16t-14 40q0 41 28 73.5
t62 32.5z" />
    <glyph glyph-name="afii10062" unicode="&#x40e;" horiz-adv-x="807" 
d="M414 635q204 315 358.5 506.5t200.5 191.5q22 0 36.5 -18t14.5 -41q0 -11 -122 -162t-224 -289q-15 -19 -45 -58q-134 -172 -228 -344.5t-159 -309.5q-34 -143 -79 -143q-36 0 -62 27.5t-26 67.5q0 39 46.5 149t181.5 325q-50 212 -78 376.5t-28 247.5q0 39 20 59.5
t60 20.5q72 0 95 -268q18 -201 38 -338zM732 1531h59q6 0 8 -2.5t2 -13.5q0 -70 -64 -124t-155 -54q-70 0 -112.5 41.5t-42.5 107.5q0 26 3.5 35.5t12.5 9.5h59q11 0 19.5 -47t70.5 -47q74 0 105.5 47t34.5 47z" />
    <glyph glyph-name="afii10061" unicode="&#x40c;" horiz-adv-x="862" 
d="M319 657q100 106 246.5 238.5t388.5 333.5q31 26 53 37.5t40 11.5q17 0 25.5 -10t8.5 -29q0 -16 -10.5 -29.5t-28.5 -19.5q-86 -73 -222 -201.5t-437 -423.5q159 -157 260.5 -305t101.5 -209q0 -34 -33 -64t-65 -30q-11 0 -18.5 6t-7.5 14q0 5 6 15t6 16q0 35 -328 421
q-28 33 -43 50q-45 -159 -86 -316.5t-43 -162.5q-8 -20 -31 -31.5t-53 -11.5q-24 0 -38.5 14.5t-14.5 38.5q0 40 80 327.5t221 754.5q0 7 -2 17v3q0 59 30 95t76 36q32 0 58 -16.5t26 -40.5q0 -19 -60 -200t-106 -329zM839 1546q9 0 13.5 -3t4.5 -9q0 -3 -1.5 -6t-4.5 -6
l-8 -10q-39 -48 -85 -97t-71 -69l-8 -9q-11 -9 -20.5 -13.5t-20.5 -4.5h-45q-9 0 -12.5 3t-3.5 9q0 2 3 5t5 6l6 8q18 18 51.5 66t59.5 98l4 8q6 13 14.5 18.5t19.5 5.5h99z" />
    <glyph glyph-name="afii10052" unicode="&#x403;" horiz-adv-x="807" 
d="M225 265q-65 -283 -67 -289q-7 -17 -27.5 -25t-52.5 -8q-36 0 -55 14.5t-19 42.5q0 27 25.5 134t74.5 286q74 269 139 479t91 268q12 26 81 35.5t351 9.5q145 0 183 -15.5t38 -57.5q0 -18 -12.5 -27.5t-34.5 -9.5q-7 0 -28.5 2t-34.5 2q-39 0 -256 -30q-104 -15 -166 -23
q-57 -176 -93.5 -303t-136.5 -485zM824 1548q9 0 13.5 -3t4.5 -9q0 -3 -1.5 -6t-4.5 -6l-8 -10q-39 -48 -85 -97t-71 -69l-8 -9q-11 -9 -20.5 -13.5t-20.5 -4.5h-45q-9 0 -12.5 3t-3.5 9q0 2 3 5t5 6l6 8q18 18 51.5 66t59.5 98l4 8q6 13 14.5 18.5t19.5 5.5h99z" />
    <glyph glyph-name="afii10060" unicode="&#x40b;" horiz-adv-x="989" 
d="M977 311l-12 -39q-44 -138 -112 -138q-42 0 -74.5 19.5t-32.5 45.5q0 16 26 44t40 54q30 59 78 199q47 137 63 141q-15 1 -29 1q-15 1 -35 1q-58 0 -153 -5t-203 -15l-30 -98q-75 -224 -135 -362q-19 -62 -32 -110q-19 -67 -35 -85.5t-47 -18.5q-7 0 -14 1
q-17 -13 -31 -13q-36 0 -68 20t-32 37q0 19 25 41.5t32 31.5q22 34 47 91q20 76 54 192q71 245 180 591q0 1 1 3q15 65 30 132q-73 -5 -150 -12q-83 -7 -88 -7q-29 0 -46.5 23t-17.5 61q0 32 185 59q70 10 152 17l6 9q15 20 45 20q34 0 58 -23q88 4 187 4q132 0 183.5 -16.5
t51.5 -57.5q0 -11 -6 -33q-1 -4 -2 -6q-116 -5 -207 -11t-159 -14q-47 -137 -91 -266q-13 -64 -17 -85q179 7 385 12t30 -435z" />
    <glyph glyph-name="afii10051" unicode="&#x402;" horiz-adv-x="989" 
d="M970 288q30 -3 60 -6.5t61 -5.5q0 -14 -0.5 -29t-1.5 -30q-36 0 -72 1t-71 2q-7 -45 -10.5 -71t-9.5 -47t-16.5 -44.5t-29.5 -62.5q-12 -23 -30.5 -43t-38.5 -37q-3 -3 -15 -10.5t-26.5 -16t-30 -15.5t-25.5 -8q-28 -3 -46 -3.5t-33 2.5t-31 11.5t-40 23.5
q-20 13 -29.5 36t-20.5 43q-18 32 -22.5 76.5t4.5 87t32.5 78t62.5 49.5q42 15 80.5 26t84.5 9l58 -2q30 59 76 194q47 137 63 141q-15 1 -29 1q-15 1 -35 1q-58 0 -153 -5t-203 -15l-30 -98q-75 -224 -135 -362q-19 -62 -32 -110q-19 -67 -35 -85.5t-47 -18.5q-7 0 -14 1
q-17 -13 -31 -13q-36 0 -68 20t-32 37q0 19 25 41.5t32 31.5q22 34 47 91q20 76 54 192q71 245 180 591q0 1 1 3q15 65 30 132q-73 -5 -150 -12q-83 -7 -88 -7q-29 0 -46.5 23t-17.5 61q0 32 185 59q70 10 152 17l6 9q15 20 45 20q34 0 58 -23q88 4 187 4q132 0 183.5 -16.5
t51.5 -57.5q0 -11 -6 -33q-1 -4 -2 -6q-116 -5 -207 -11t-159 -14q-47 -137 -91 -266q-13 -64 -17 -85q179 7 385 12t30 -435zM753 219q-20 -2 -39.5 -4.5t-33.5 -5.5q-23 -5 -48 -16.5t-38 -34.5t-15 -51.5t5 -55.5t21.5 -49.5t35 -33t46 -6t53.5 31.5q14 13 25.5 27
t19.5 30q23 40 32 81q0 3 1 5q-21 5 -40 16q-32 20 -32 46z" />
    <glyph glyph-name="afii10058" unicode="&#x409;" horiz-adv-x="1397" 
d="M787 1149q-164 -341 -330.5 -626.5t-304.5 -464.5q-7 -10 -20 -27q-47 -64 -95 -64q-28 0 -41.5 5t-13.5 16q0 30 56 101q38 49 59 81q118 178 284 468.5t341 627.5q22 17 62.5 29t80.5 12q49 0 66.5 -41t17.5 -193v-100q0 -125 -10 -258q7 2 14 4.5t15 5.5
q32 11 64.5 20.5t65.5 5.5q46 -5 79.5 -25.5t57.5 -51t41 -67.5t31 -75q5 -14 7.5 -30t3.5 -32.5t1 -31.5v-27q2 -34 -4.5 -70t-23.5 -66q-14 -26 -28.5 -51t-29.5 -50q-9 -15 -22 -27.5t-27.5 -23t-30 -21t-29.5 -21.5q-23 -18 -50 -26t-56 -8.5t-58 5.5t-54 16
q-17 7 -31 16.5t-27 20.5q-7 -19 -17 -30q-16 -17 -40 -17q-25 0 -70 28t-45 53q0 16 20 91q97 380 97 743q0 46 -1.5 89.5t-4.5 86.5zM863 174q81 -60 152 -49t145 98q33 40 50 87t19 98q1 30 -6.5 70t-24.5 75.5t-44.5 60.5t-66.5 27q-18 1 -39 -4.5t-42 -14t-41.5 -18.5
t-37.5 -17z" />
    <glyph glyph-name="afii10059" unicode="&#x40a;" horiz-adv-x="1264" 
d="M229 368q-40 -128 -73 -291q-29 -143 -76 -143q-37 0 -58.5 16.5t-21.5 43.5q0 49 80 349t199 649l12 39q44 138 112 138q42 0 74.5 -19.5t32.5 -45.5q0 -16 -26 -44t-40 -54q-30 -59 -78 -199.5t-93 -310.5q15 -1 30 -1.5t35 -0.5q58 0 153 5t203 15l30 98
q226 758 323 758q36 0 68 -20t32 -37q0 -19 -25 -41.5t-32 -31.5q-28 -42 -59 -119.5t-77 -223.5q-38 -122 -73 -246q28 -3 54 -9t52 -17q55 -23 97 -54.5t67.5 -72t32 -91.5t-10.5 -113q-3 -12 -9 -30.5t-14 -37.5t-18.5 -36.5t-22.5 -29.5q-23 -20 -52.5 -32t-57.5 -23
q-20 -8 -39.5 -19t-39.5 -19q-17 -7 -39 -7.5t-44.5 2t-44.5 7.5t-40 10q-2 1 1.5 0.5t8.5 -1.5t8.5 -1.5t0.5 0.5q-4 1 -13.5 2.5t-19.5 2.5l-2 -2q-14 -19 -44 -19q-35 0 -59.5 24t-24.5 60q0 30 27 134q20 75 30 120q-179 -7 -277.5 -14t-158.5 -17zM758 141
q29 -2 57.5 -4.5t56.5 -0.5v1q-3 4 5 3t13 1q13 5 23.5 15t22.5 15q27 13 59 23.5t54 30.5q18 17 24.5 41.5t11.5 47.5q15 63 -1.5 104t-52 65.5t-84 36.5t-97.5 16q-44 -174 -82 -352z" />
    <glyph glyph-name="afii10100" unicode="&#x453;" horiz-adv-x="514" 
d="M119 535q66 56 265 44q122 0 -17.5 -187.5t-139.5 -262.5q0 -24 8 -39.5t20 -15.5q81 -6 121.5 42t84.5 138q5 10 13 27q20 45 34 45q13 0 25 -11t12 -24q0 -15 -17 -51t-47 -84q-63 -102 -105.5 -138t-142.5 -30q-57 0 -89 35.5t-32 97.5t152 262t-73 80
q-52 -144 -125.5 -211.5t-103.5 -67.5q-12 0 -19.5 8t-7.5 22q0 4 14 34q136 147 170 287zM590 949q9 0 13.5 -3t4.5 -9q0 -3 -1.5 -6t-4.5 -6l-8 -10q-39 -48 -85 -97t-71 -69l-8 -9q-11 -9 -20.5 -13.5t-20.5 -4.5h-45q-9 0 -12.5 3t-3.5 9q0 2 3 5t5 6l6 8q18 18 51.5 66
t59.5 98l4 8q6 13 14.5 18.5t19.5 5.5h99z" />
    <glyph glyph-name="afii10109" unicode="&#x45c;" horiz-adv-x="502" 
d="M25 182q-23 -64 -44 -154q-23 -96 -55 -96q-25 0 -42 15.5t-17 36.5q0 13 46 166q23 72 36 116q109 363 97 336t11 35l2 6q30 86 86 86q24 0 44 -16t20 -33q-1 -2 -5 -7q-35 -41 -69 -122q-17 -41 -25 -59q4 3 -36 -148q32 27 86 76q186 162 231 162q33 0 46.5 -4.5
t13.5 -14.5q0 -12 -92 -87.5t-169 -151.5q20 -137 47.5 -210t59.5 -73q23 0 54 37t108 166q2 4 5 9q15 29 28 30q8 0 20 -12t12 -25q0 -22 -31 -83t-77 -118q-36 -44 -74 -65t-82 -21q-58 0 -98.5 52.5t-91.5 205.5zM533 916q9 0 13.5 -3t4.5 -9q0 -3 -1.5 -6t-4.5 -6
l-8 -10q-39 -48 -85 -97t-71 -69l-8 -9q-11 -9 -20.5 -13.5t-20.5 -4.5h-45q-9 0 -12.5 3t-3.5 9q0 2 3 5t5 6l6 8q18 18 51.5 66t59.5 98l4 8q6 13 14.5 18.5t19.5 5.5h99z" />
    <glyph glyph-name="afii10110" unicode="&#x45e;" horiz-adv-x="487" 
d="M182 170q-35 -69 -75.5 -107t-75.5 -38q-15 0 -25 6t-18 20q-22 17 -32.5 44t-10.5 65q0 145 56.5 287.5t111.5 142.5q25 0 50 -17.5t25 -35.5q0 -9 -5.5 -15.5t-18.5 -11.5q-51 -104 -81 -205.5t-30 -157.5q0 -9 3.5 -14.5t9.5 -5.5q27 0 103.5 127t127.5 282q4 14 9 42
q12 71 71 71q29 0 48 -11.5t24 -31.5q6 -6 9 -13t3 -15q-1 -12 -7.5 -20.5t-20.5 -16.5q-109 -199 -152.5 -460.5t-44.5 -265.5q-24 -86 -108 -144t-171 -58q-51 0 -88.5 22.5t-77.5 75.5q-21 15 -31 33.5t-10 42.5q0 27 10.5 38t34.5 11q23 0 35 -59q3 -15 7 -30
q30 -23 71 -36.5t90 -13.5q10 0 21 0.5t34 3.5q48 24 106 341q15 82 23 128zM362 944h59q6 0 8 -2.5t2 -13.5q0 -70 -64 -124t-155 -54q-70 0 -112.5 41.5t-42.5 107.5q0 26 3.5 35.5t12.5 9.5h59q11 0 19.5 -47t70.5 -47q74 0 105.5 47t34.5 47z" />
    <glyph glyph-name="afii10106" unicode="&#x459;" horiz-adv-x="773" 
d="M454 558q4 0 9 -1q12 2 25 2q18 0 28.5 -8.5t10.5 -24.5q0 -5 -10 -32q-2 -14 -10 -25l-9 -25l-13 -37q-85 -232 -85 -292q0 -23 8.5 -34t26.5 -11q26 0 75 50q31 31 61 74q-22 19 -32 52t-6.5 66t21 59.5t51.5 33.5q25 5 49.5 -8.5t42.5 -37.5t27 -54.5t3 -58.5
q26 0 50.5 0.5t50.5 -1.5q0 -14 -0.5 -29t-1.5 -30q-22 -3 -47 -8t-50.5 -9t-51.5 -5t-50 4l-2 -4q-58 -99 -106 -140.5t-101 -41.5t-84.5 45t-31.5 123q0 91 30 208q5 20 11 38q-6 -6 -13 -3.5t-14 5.5t-14.5 2t-14.5 -13q-28 -47 -43.5 -102t-31 -108t-36.5 -99.5
t-60 -77.5q-28 -22 -59.5 -9.5t-63 44t-61.5 74t-55 79.5l55 37q7 -14 19 -32.5t26 -37t29.5 -35.5t29 -28t24.5 -14t16 6q27 46 42.5 79.5t24.5 61.5t15.5 52.5t17.5 52t29 60.5t51 77q16 21 39 35t44 29q23 16 51.5 18.5t54.5 8.5h9z" />
    <glyph glyph-name="afii10107" unicode="&#x45a;" horiz-adv-x="637" 
d="M46 145l29 -92q-47 -71 -75 -71q-38 0 -62 23.5t-24 64.5q0 42 23 142q-8 9 -8.5 22.5t7.5 28.5q9 9 18 14q30 117 75 223q17 41 32.5 54t42.5 13q23 0 42.5 -13.5t19.5 -31.5q0 -4 -13 -31l-53 -163q38 7 76 11.5t73 6.5q8 31 19 72q49 182 88 182q32 0 60 -22t28 -50
q0 -17 -20 -33t-21 -16q-5 -7 -19 -43.5t-30 -86.5h1l4 -39l-17 -3q-13 -50 -22 -98q-13 -66 -13 -98q0 -21 5.5 -33t15.5 -12q30 0 113 137q-13 16 -11.5 38t21.5 42q-10 13 -13.5 30t0 33t14 28t28.5 14q46 5 70.5 -12t32.5 -45q30 -3 59.5 -5t59.5 -7q0 -14 -0.5 -29
t-1.5 -30q-30 -5 -63.5 -10t-67.5 -6q-16 -31 -44 -52q-8 -16 -19 -35q-46 -85 -103 -143q-20 -20 -41 -30.5t-43 -10.5q-51 0 -79.5 42t-28.5 118q0 35 7 89q1 8 16 68q-40 -8 -81.5 -17t-76.5 -21l-41 -129z" />
    <glyph glyph-name="afii10108" unicode="&#x45b;" horiz-adv-x="502" 
d="M45 750q-28 4 -44 19t-18.5 33.5t9 37t38.5 28.5q42 2 81 12t80 14q96 222 161 222q14 0 24.5 -9.5t10.5 -21.5q0 -7 -37 -87q-23 -49 -45 -99q100 2 199 -3t199 -15q0 -14 -0.5 -29t-1.5 -30q-111 -8 -220.5 -10.5t-219.5 -13.5q-149 -348 -271 -722q60 89 151 233
q160 254 232 254q20 0 33.5 -14.5t13.5 -36.5q0 -15 -4 -29.5t-15 -36.5q-72 -154 -102.5 -236t-30.5 -120q0 -14 4.5 -21.5t12.5 -7.5q22 0 57 39.5t94 132.5q3 5 8 13q23 37 35 37q7 0 22 -17t15 -28q0 -19 -35 -79t-84 -112q-33 -35 -64.5 -51t-66.5 -16q-44 0 -68 26.5
t-24 77.5q0 37 10.5 88.5t36.5 138.5q-35 -57 -89 -152q-121 -212 -185 -212q-33 0 -47.5 13.5t-14.5 43.5q0 64 75 288q69 209 182 482q-24 -8 -48 -14.5t-49 -9.5z" />
    </font>
</defs>
</svg>
